<svg width="181" height="70" viewBox="0 0 181 70" fill="none" xmlns="http://www.w3.org/2000/svg">
<path d="M20 1H161C171.493 1 180 9.50659 180 20V26C180 36.4934 171.493 45 161 45H20C9.50659 45 1 36.4934 1 26V20C1 9.50659 9.50659 1 20 1Z" fill="url(#paint0_linear_294_232)" stroke="#015486" stroke-width="2"/>
<path d="M40.17 20V10.926C40.5253 10.8827 40.9153 10.8523 41.34 10.835C41.7733 10.809 42.2197 10.796 42.679 10.796C43.433 10.796 44.0743 10.9173 44.603 11.16C45.1317 11.394 45.5347 11.719 45.812 12.135C46.0893 12.551 46.228 13.0277 46.228 13.565C46.228 14.215 46.0677 14.7653 45.747 15.216C45.4263 15.6667 44.98 16.0133 44.408 16.256C43.836 16.49 43.173 16.607 42.419 16.607C42.055 16.607 41.717 16.594 41.405 16.568V20H40.17ZM42.575 15.58C43.3463 15.58 43.9443 15.4067 44.369 15.06C44.7937 14.7133 45.006 14.2497 45.006 13.669C45.006 13.1057 44.8023 12.6593 44.395 12.33C43.9877 12.0007 43.407 11.836 42.653 11.836C42.419 11.836 42.198 11.8403 41.99 11.849C41.782 11.8577 41.587 11.8707 41.405 11.888V15.515C41.5437 15.5323 41.7127 15.5497 41.912 15.567C42.1113 15.5757 42.3323 15.58 42.575 15.58ZM47.8937 20V13.24H49.0247V14.709C49.1374 14.423 49.289 14.1587 49.4797 13.916C49.6704 13.6647 49.9087 13.4653 50.1947 13.318C50.4807 13.162 50.8144 13.084 51.1957 13.084C51.3257 13.084 51.4557 13.0927 51.5857 13.11C51.7157 13.1187 51.824 13.136 51.9107 13.162L51.5597 14.371C51.395 14.3017 51.2 14.267 50.9747 14.267C50.654 14.267 50.3464 14.358 50.0517 14.54C49.7657 14.722 49.5274 15.0037 49.3367 15.385C49.1547 15.7663 49.0637 16.2517 49.0637 16.841V20H47.8937ZM55.5795 20.156C55.0162 20.156 54.5049 20.013 54.0455 19.727C53.5862 19.441 53.2179 19.038 52.9405 18.518C52.6719 17.9893 52.5375 17.3697 52.5375 16.659C52.5375 15.983 52.6719 15.3763 52.9405 14.839C53.2179 14.3017 53.5949 13.877 54.0715 13.565C54.5569 13.2443 55.1115 13.084 55.7355 13.084C56.1255 13.084 56.4765 13.1533 56.7885 13.292C57.1092 13.422 57.3865 13.5867 57.6205 13.786V13.24H58.6865V18.362C58.6865 18.6913 58.7645 18.908 58.9205 19.012C59.0852 19.1073 59.2629 19.155 59.4535 19.155L59.2065 20.065C58.3745 20.065 57.8719 19.727 57.6985 19.051C57.4992 19.3283 57.2262 19.584 56.8795 19.818C56.5415 20.0433 56.1082 20.156 55.5795 20.156ZM55.8395 19.116C56.1689 19.116 56.4809 19.038 56.7755 18.882C57.0702 18.7173 57.3172 18.5137 57.5165 18.271V14.644C57.2825 14.4793 57.0225 14.3493 56.7365 14.254C56.4592 14.15 56.1645 14.098 55.8525 14.098C55.4365 14.098 55.0682 14.2063 54.7475 14.423C54.4355 14.631 54.1885 14.9257 54.0065 15.307C53.8245 15.6797 53.7335 16.1173 53.7335 16.62C53.7335 17.1053 53.8245 17.5387 54.0065 17.92C54.1885 18.2927 54.4399 18.5873 54.7605 18.804C55.0812 19.012 55.4409 19.116 55.8395 19.116ZM61.316 20V13.24H62.486V20H61.316ZM61.901 12.083C61.6756 12.083 61.4806 12.0007 61.316 11.836C61.16 11.6713 61.082 11.4807 61.082 11.264C61.082 11.0127 61.1556 10.8133 61.303 10.666C61.4503 10.5187 61.6496 10.445 61.901 10.445C62.1263 10.445 62.317 10.5273 62.473 10.692C62.6376 10.848 62.72 11.0387 62.72 11.264C62.72 11.5067 62.6463 11.706 62.499 11.862C62.3516 12.0093 62.1523 12.083 61.901 12.083ZM67.453 20.156C66.8896 20.156 66.3783 20.013 65.919 19.727C65.4596 19.441 65.0913 19.038 64.814 18.518C64.5453 17.9893 64.411 17.3697 64.411 16.659C64.411 15.983 64.5453 15.3763 64.814 14.839C65.0913 14.3017 65.4683 13.877 65.945 13.565C66.4303 13.2443 66.985 13.084 67.609 13.084C67.999 13.084 68.35 13.1533 68.662 13.292C68.9826 13.422 69.26 13.5867 69.494 13.786V13.24H70.56V18.362C70.56 18.6913 70.638 18.908 70.794 19.012C70.9586 19.1073 71.1363 19.155 71.327 19.155L71.08 20.065C70.248 20.065 69.7453 19.727 69.572 19.051C69.3726 19.3283 69.0996 19.584 68.753 19.818C68.415 20.0433 67.9816 20.156 67.453 20.156ZM67.713 19.116C68.0423 19.116 68.3543 19.038 68.649 18.882C68.9436 18.7173 69.1906 18.5137 69.39 18.271V14.644C69.156 14.4793 68.896 14.3493 68.61 14.254C68.3326 14.15 68.038 14.098 67.726 14.098C67.31 14.098 66.9416 14.2063 66.621 14.423C66.309 14.631 66.062 14.9257 65.88 15.307C65.698 15.6797 65.607 16.1173 65.607 16.62C65.607 17.1053 65.698 17.5387 65.88 17.92C66.062 18.2927 66.3133 18.5873 66.634 18.804C66.9546 19.012 67.3143 19.116 67.713 19.116ZM79.9479 20.156C79.3932 20.156 78.8862 20.013 78.4269 19.727C77.9675 19.441 77.6035 19.038 77.3349 18.518C77.0662 17.9893 76.9319 17.3697 76.9319 16.659C76.9319 15.9743 77.0662 15.3633 77.3349 14.826C77.6122 14.2887 77.9762 13.864 78.4269 13.552C78.8862 13.24 79.3889 13.084 79.9349 13.084C80.3855 13.084 80.7712 13.175 81.0919 13.357C81.4212 13.539 81.6769 13.7253 81.8589 13.916V10.38H83.0289V18.362C83.0289 18.6913 83.1069 18.908 83.2629 19.012C83.4275 19.1073 83.6052 19.155 83.7959 19.155L83.5489 20.065C82.7255 20.065 82.2229 19.7357 82.0409 19.077C81.8502 19.3457 81.5815 19.5927 81.2349 19.818C80.8969 20.0433 80.4679 20.156 79.9479 20.156ZM80.2079 19.116C80.5285 19.116 80.8319 19.0423 81.1179 18.895C81.4125 18.739 81.6595 18.5397 81.8589 18.297V14.943C81.6942 14.735 81.4645 14.5443 81.1699 14.371C80.8752 14.189 80.5502 14.098 80.1949 14.098C79.7789 14.098 79.4149 14.2107 79.1029 14.436C78.7909 14.6613 78.5482 14.9647 78.3749 15.346C78.2102 15.7187 78.1279 16.1433 78.1279 16.62C78.1279 17.0967 78.2189 17.5257 78.4009 17.907C78.5829 18.2797 78.8299 18.5743 79.1419 18.791C79.4625 19.0077 79.8179 19.116 80.2079 19.116ZM88.2366 20.156C87.2659 20.156 86.4946 19.8483 85.9226 19.233C85.3592 18.609 85.0776 17.738 85.0776 16.62C85.0776 15.944 85.2032 15.3417 85.4546 14.813C85.7146 14.2757 86.0742 13.8553 86.5336 13.552C86.9929 13.24 87.5259 13.084 88.1326 13.084C88.7826 13.084 89.3199 13.227 89.7446 13.513C90.1779 13.7903 90.5029 14.1673 90.7196 14.644C90.9362 15.1207 91.0446 15.645 91.0446 16.217C91.0446 16.5203 91.0316 16.815 91.0056 17.101H86.2736C86.3516 17.7337 86.5726 18.2277 86.9366 18.583C87.3006 18.9383 87.7816 19.116 88.3796 19.116C88.7696 19.116 89.1206 19.077 89.4326 18.999C89.7446 18.9123 90.0436 18.804 90.3296 18.674L90.6026 19.675C90.2906 19.8137 89.9396 19.9263 89.5496 20.013C89.1596 20.1083 88.7219 20.156 88.2366 20.156ZM86.2606 16.152H89.9656C89.9656 15.4933 89.8009 14.9863 89.4716 14.631C89.1422 14.2757 88.6872 14.098 88.1066 14.098C87.6039 14.098 87.1879 14.2757 86.8586 14.631C86.5292 14.9777 86.3299 15.4847 86.2606 16.152ZM99.8573 20.104C99.3287 20.104 98.826 20.091 98.3493 20.065C97.8813 20.039 97.5087 20.0087 97.2313 19.974V10.926C97.5347 10.8913 97.9117 10.861 98.3623 10.835C98.813 10.809 99.3287 10.796 99.9093 10.796C101.019 10.796 101.872 11.0083 102.47 11.433C103.068 11.849 103.367 12.4167 103.367 13.136C103.367 13.6127 103.237 14.02 102.977 14.358C102.726 14.6873 102.358 14.9603 101.872 15.177C102.462 15.385 102.908 15.6753 103.211 16.048C103.515 16.412 103.666 16.8627 103.666 17.4C103.666 18.2233 103.341 18.882 102.691 19.376C102.041 19.8613 101.097 20.104 99.8573 20.104ZM98.4663 14.826H99.8963C100.581 14.826 101.123 14.683 101.521 14.397C101.929 14.111 102.132 13.7427 102.132 13.292C102.132 12.8067 101.933 12.4383 101.534 12.187C101.136 11.927 100.59 11.797 99.8963 11.797C99.6103 11.797 99.3503 11.8057 99.1163 11.823C98.8823 11.8317 98.6657 11.8447 98.4663 11.862V14.826ZM99.9483 19.077C100.72 19.077 101.322 18.9383 101.755 18.661C102.189 18.3837 102.405 17.9807 102.405 17.452C102.405 16.932 102.193 16.5247 101.768 16.23C101.344 15.9353 100.737 15.788 99.9483 15.788H98.4663V18.999C98.9257 19.051 99.4197 19.077 99.9483 19.077ZM108.437 20.156C107.795 20.156 107.219 20.0087 106.708 19.714C106.196 19.4107 105.793 18.9947 105.499 18.466C105.213 17.9287 105.07 17.3133 105.07 16.62C105.07 15.892 105.217 15.2637 105.512 14.735C105.806 14.2063 106.209 13.799 106.721 13.513C107.232 13.227 107.804 13.084 108.437 13.084C109.069 13.084 109.637 13.227 110.14 13.513C110.651 13.799 111.054 14.2063 111.349 14.735C111.652 15.255 111.804 15.8747 111.804 16.594C111.804 17.3133 111.656 17.9417 111.362 18.479C111.067 19.0077 110.664 19.4193 110.153 19.714C109.65 20.0087 109.078 20.156 108.437 20.156ZM108.437 19.116C109.121 19.116 109.654 18.8863 110.036 18.427C110.417 17.959 110.608 17.3567 110.608 16.62C110.608 16.1693 110.512 15.7577 110.322 15.385C110.131 15.0037 109.871 14.7003 109.542 14.475C109.221 14.241 108.853 14.124 108.437 14.124C107.752 14.124 107.219 14.3493 106.838 14.8C106.456 15.2507 106.266 15.8487 106.266 16.594C106.266 17.0447 106.361 17.465 106.552 17.855C106.742 18.2363 106.998 18.544 107.319 18.778C107.648 19.0033 108.021 19.116 108.437 19.116ZM116.246 20.156C115.683 20.156 115.172 20.013 114.712 19.727C114.253 19.441 113.885 19.038 113.607 18.518C113.339 17.9893 113.204 17.3697 113.204 16.659C113.204 15.983 113.339 15.3763 113.607 14.839C113.885 14.3017 114.262 13.877 114.738 13.565C115.224 13.2443 115.778 13.084 116.402 13.084C116.792 13.084 117.143 13.1533 117.455 13.292C117.776 13.422 118.053 13.5867 118.287 13.786V13.24H119.353V18.362C119.353 18.6913 119.431 18.908 119.587 19.012C119.752 19.1073 119.93 19.155 120.12 19.155L119.873 20.065C119.041 20.065 118.539 19.727 118.365 19.051C118.166 19.3283 117.893 19.584 117.546 19.818C117.208 20.0433 116.775 20.156 116.246 20.156ZM116.506 19.116C116.836 19.116 117.148 19.038 117.442 18.882C117.737 18.7173 117.984 18.5137 118.183 18.271V14.644C117.949 14.4793 117.689 14.3493 117.403 14.254C117.126 14.15 116.831 14.098 116.519 14.098C116.103 14.098 115.735 14.2063 115.414 14.423C115.102 14.631 114.855 14.9257 114.673 15.307C114.491 15.6797 114.4 16.1173 114.4 16.62C114.4 17.1053 114.491 17.5387 114.673 17.92C114.855 18.2927 115.107 18.5873 115.427 18.804C115.748 19.012 116.108 19.116 116.506 19.116ZM128.611 20L125.27 11.225L126.479 10.757L129.339 18.648L132.212 10.796L133.33 11.225L130.002 20H128.611ZM134.796 20V13.24H135.966V20H134.796ZM135.381 12.083C135.155 12.083 134.96 12.0007 134.796 11.836C134.64 11.6713 134.562 11.4807 134.562 11.264C134.562 11.0127 134.635 10.8133 134.783 10.666C134.93 10.5187 135.129 10.445 135.381 10.445C135.606 10.445 135.797 10.5273 135.953 10.692C136.117 10.848 136.2 11.0387 136.2 11.264C136.2 11.5067 136.126 11.706 135.979 11.862C135.831 12.0093 135.632 12.083 135.381 12.083ZM140.933 20.156C140.369 20.156 139.858 20.013 139.399 19.727C138.939 19.441 138.571 19.038 138.294 18.518C138.025 17.9893 137.891 17.3697 137.891 16.659C137.891 15.983 138.025 15.3763 138.294 14.839C138.571 14.3017 138.948 13.877 139.425 13.565C139.91 13.2443 140.465 13.084 141.089 13.084C141.479 13.084 141.83 13.1533 142.142 13.292C142.462 13.422 142.74 13.5867 142.974 13.786V13.24H144.04V18.362C144.04 18.6913 144.118 18.908 144.274 19.012C144.438 19.1073 144.616 19.155 144.807 19.155L144.56 20.065C143.728 20.065 143.225 19.727 143.052 19.051C142.852 19.3283 142.579 19.584 142.233 19.818C141.895 20.0433 141.461 20.156 140.933 20.156ZM141.193 19.116C141.522 19.116 141.834 19.038 142.129 18.882C142.423 18.7173 142.67 18.5137 142.87 18.271V14.644C142.636 14.4793 142.376 14.3493 142.09 14.254C141.812 14.15 141.518 14.098 141.206 14.098C140.79 14.098 140.421 14.2063 140.101 14.423C139.789 14.631 139.542 14.9257 139.36 15.307C139.178 15.6797 139.087 16.1173 139.087 16.62C139.087 17.1053 139.178 17.5387 139.36 17.92C139.542 18.2927 139.793 18.5873 140.114 18.804C140.434 19.012 140.794 19.116 141.193 19.116ZM149.025 23.016C148.626 23.016 148.236 22.9683 147.855 22.873C147.482 22.7777 147.149 22.6347 146.854 22.444L147.283 21.43C147.491 21.5947 147.734 21.729 148.011 21.833C148.288 21.9457 148.626 22.002 149.025 22.002C149.64 22.002 150.121 21.8373 150.468 21.508C150.823 21.1873 151.001 20.6717 151.001 19.961V19.129C150.828 19.337 150.576 19.5363 150.247 19.727C149.926 19.909 149.541 20 149.09 20C148.579 20 148.093 19.87 147.634 19.61C147.175 19.3413 146.802 18.9513 146.516 18.44C146.23 17.9287 146.087 17.3133 146.087 16.594C146.087 15.918 146.226 15.3157 146.503 14.787C146.789 14.2583 147.17 13.8423 147.647 13.539C148.124 13.2357 148.648 13.084 149.22 13.084C149.601 13.084 149.948 13.149 150.26 13.279C150.572 13.409 150.841 13.5693 151.066 13.76V13.24H152.132V19.844C152.132 20.5893 152.002 21.196 151.742 21.664C151.482 22.132 151.118 22.4743 150.65 22.691C150.191 22.9077 149.649 23.016 149.025 23.016ZM149.35 18.96C149.697 18.96 150.009 18.882 150.286 18.726C150.563 18.57 150.789 18.388 150.962 18.18V14.644C150.771 14.5053 150.542 14.3797 150.273 14.267C150.004 14.1543 149.692 14.098 149.337 14.098C148.982 14.098 148.648 14.1933 148.336 14.384C148.024 14.5747 147.768 14.852 147.569 15.216C147.378 15.5713 147.283 16.009 147.283 16.529C147.283 17.023 147.378 17.452 147.569 17.816C147.768 18.18 148.024 18.4617 148.336 18.661C148.648 18.8603 148.986 18.96 149.35 18.96ZM157.151 20.156C156.18 20.156 155.409 19.8483 154.837 19.233C154.273 18.609 153.992 17.738 153.992 16.62C153.992 15.944 154.117 15.3417 154.369 14.813C154.629 14.2757 154.988 13.8553 155.448 13.552C155.907 13.24 156.44 13.084 157.047 13.084C157.697 13.084 158.234 13.227 158.659 13.513C159.092 13.7903 159.417 14.1673 159.634 14.644C159.85 15.1207 159.959 15.645 159.959 16.217C159.959 16.5203 159.946 16.815 159.92 17.101H155.188C155.266 17.7337 155.487 18.2277 155.851 18.583C156.215 18.9383 156.696 19.116 157.294 19.116C157.684 19.116 158.035 19.077 158.347 18.999C158.659 18.9123 158.958 18.804 159.244 18.674L159.517 19.675C159.205 19.8137 158.854 19.9263 158.464 20.013C158.074 20.1083 157.636 20.156 157.151 20.156ZM155.175 16.152H158.88C158.88 15.4933 158.715 14.9863 158.386 14.631C158.056 14.2757 157.601 14.098 157.021 14.098C156.518 14.098 156.102 14.2757 155.773 14.631C155.443 14.9777 155.244 15.4847 155.175 16.152ZM161.818 20V13.24H162.949V14.371C163.192 14.007 163.499 13.7037 163.872 13.461C164.245 13.2097 164.669 13.084 165.146 13.084C165.683 13.084 166.121 13.214 166.459 13.474C166.806 13.734 167.048 14.0807 167.187 14.514C167.456 14.1153 167.772 13.7773 168.136 13.5C168.509 13.2227 168.968 13.084 169.514 13.084C170.251 13.084 170.797 13.318 171.152 13.786C171.516 14.2453 171.698 14.8477 171.698 15.593V20H170.528V15.684C170.528 15.216 170.42 14.839 170.203 14.553C169.986 14.2583 169.687 14.111 169.306 14.111C168.916 14.111 168.552 14.2583 168.214 14.553C167.885 14.839 167.594 15.177 167.343 15.567V20H166.173V15.684C166.173 15.216 166.065 14.839 165.848 14.553C165.631 14.2583 165.332 14.111 164.951 14.111C164.57 14.111 164.21 14.254 163.872 14.54C163.534 14.8173 163.239 15.1467 162.988 15.528V20H161.818Z" fill="#015486"/>
<path d="M45.25 35H44.34L40.68 29.45V35H39.77V28.02H40.68L44.34 33.56V28.02H45.25V35ZM47.5713 28.63C47.3979 28.63 47.2513 28.57 47.1313 28.45C47.0113 28.33 46.9513 28.1833 46.9513 28.01C46.9513 27.8367 47.0113 27.69 47.1313 27.57C47.2513 27.45 47.3979 27.39 47.5713 27.39C47.7379 27.39 47.8779 27.45 47.9913 27.57C48.1113 27.69 48.1713 27.8367 48.1713 28.01C48.1713 28.1833 48.1113 28.33 47.9913 28.45C47.8779 28.57 47.7379 28.63 47.5713 28.63ZM48.0113 29.52V35H47.1013V29.52H48.0113ZM50.9722 30.27V33.5C50.9722 33.7667 51.0289 33.9567 51.1422 34.07C51.2555 34.1767 51.4522 34.23 51.7322 34.23H52.4022V35H51.5822C51.0755 35 50.6955 34.8833 50.4422 34.65C50.1889 34.4167 50.0622 34.0333 50.0622 33.5V30.27H49.3522V29.52H50.0622V28.14H50.9722V29.52H52.4022V30.27H50.9722ZM58.8048 32.05C58.8048 32.2233 58.7948 32.4067 58.7748 32.6H54.3948C54.4281 33.14 54.6114 33.5633 54.9448 33.87C55.2848 34.17 55.6948 34.32 56.1748 34.32C56.5681 34.32 56.8948 34.23 57.1548 34.05C57.4214 33.8633 57.6081 33.6167 57.7148 33.31H58.6948C58.5481 33.8367 58.2548 34.2667 57.8148 34.6C57.3748 34.9267 56.8281 35.09 56.1748 35.09C55.6548 35.09 55.1881 34.9733 54.7748 34.74C54.3681 34.5067 54.0481 34.1767 53.8148 33.75C53.5814 33.3167 53.4648 32.8167 53.4648 32.25C53.4648 31.6833 53.5781 31.1867 53.8048 30.76C54.0314 30.3333 54.3481 30.0067 54.7548 29.78C55.1681 29.5467 55.6414 29.43 56.1748 29.43C56.6948 29.43 57.1548 29.5433 57.5548 29.77C57.9548 29.9967 58.2614 30.31 58.4748 30.71C58.6948 31.1033 58.8048 31.55 58.8048 32.05ZM57.8648 31.86C57.8648 31.5133 57.7881 31.2167 57.6348 30.97C57.4814 30.7167 57.2714 30.5267 57.0048 30.4C56.7448 30.2667 56.4548 30.2 56.1348 30.2C55.6748 30.2 55.2814 30.3467 54.9548 30.64C54.6348 30.9333 54.4514 31.34 54.4048 31.86H57.8648ZM61.2159 30.41C61.3759 30.0967 61.6026 29.8533 61.8959 29.68C62.1959 29.5067 62.5593 29.42 62.9859 29.42V30.36H62.7459C61.7259 30.36 61.2159 30.9133 61.2159 32.02V35H60.3059V29.52H61.2159V30.41ZM66.7264 35.09C66.2131 35.09 65.7464 34.9733 65.3264 34.74C64.9131 34.5067 64.5864 34.1767 64.3464 33.75C64.1131 33.3167 63.9964 32.8167 63.9964 32.25C63.9964 31.69 64.1164 31.1967 64.3564 30.77C64.6031 30.3367 64.9364 30.0067 65.3564 29.78C65.7764 29.5467 66.2464 29.43 66.7664 29.43C67.2864 29.43 67.7564 29.5467 68.1764 29.78C68.5964 30.0067 68.9264 30.3333 69.1664 30.76C69.4131 31.1867 69.5364 31.6833 69.5364 32.25C69.5364 32.8167 69.4097 33.3167 69.1564 33.75C68.9097 34.1767 68.5731 34.5067 68.1464 34.74C67.7197 34.9733 67.2464 35.09 66.7264 35.09ZM66.7264 34.29C67.0531 34.29 67.3597 34.2133 67.6464 34.06C67.9331 33.9067 68.1631 33.6767 68.3364 33.37C68.5164 33.0633 68.6064 32.69 68.6064 32.25C68.6064 31.81 68.5197 31.4367 68.3464 31.13C68.1731 30.8233 67.9464 30.5967 67.6664 30.45C67.3864 30.2967 67.0831 30.22 66.7564 30.22C66.4231 30.22 66.1164 30.2967 65.8364 30.45C65.5631 30.5967 65.3431 30.8233 65.1764 31.13C65.0097 31.4367 64.9264 31.81 64.9264 32.25C64.9264 32.6967 65.0064 33.0733 65.1664 33.38C65.3331 33.6867 65.5531 33.9167 65.8264 34.07C66.0997 34.2167 66.3997 34.29 66.7264 34.29ZM67.7464 27.9L65.6164 29.04V28.36L67.7464 27.11V27.9ZM71.5029 28.63C71.3296 28.63 71.1829 28.57 71.0629 28.45C70.9429 28.33 70.8829 28.1833 70.8829 28.01C70.8829 27.8367 70.9429 27.69 71.0629 27.57C71.1829 27.45 71.3296 27.39 71.5029 27.39C71.6696 27.39 71.8096 27.45 71.9229 27.57C72.0429 27.69 72.1029 27.8367 72.1029 28.01C72.1029 28.1833 72.0429 28.33 71.9229 28.45C71.8096 28.57 71.6696 28.63 71.5029 28.63ZM71.9429 29.52V35H71.0329V29.52H71.9429ZM74.7338 33.74L73.6138 36.43H73.0038L73.7338 33.74H74.7338ZM82.7123 35L81.0523 32.15H79.9523V35H79.0423V28.03H81.2923C81.8189 28.03 82.2623 28.12 82.6223 28.3C82.9889 28.48 83.2623 28.7233 83.4423 29.03C83.6223 29.3367 83.7123 29.6867 83.7123 30.08C83.7123 30.56 83.5723 30.9833 83.2923 31.35C83.0189 31.7167 82.6056 31.96 82.0523 32.08L83.8023 35H82.7123ZM79.9523 31.42H81.2923C81.7856 31.42 82.1556 31.3 82.4023 31.06C82.6489 30.8133 82.7723 30.4867 82.7723 30.08C82.7723 29.6667 82.6489 29.3467 82.4023 29.12C82.1623 28.8933 81.7923 28.78 81.2923 28.78H79.9523V31.42ZM85.8963 28.63C85.7229 28.63 85.5763 28.57 85.4563 28.45C85.3363 28.33 85.2763 28.1833 85.2763 28.01C85.2763 27.8367 85.3363 27.69 85.4563 27.57C85.5763 27.45 85.7229 27.39 85.8963 27.39C86.0629 27.39 86.2029 27.45 86.3163 27.57C86.4363 27.69 86.4963 27.8367 86.4963 28.01C86.4963 28.1833 86.4363 28.33 86.3163 28.45C86.2029 28.57 86.0629 28.63 85.8963 28.63ZM86.3363 29.52V35H85.4263V29.52H86.3363ZM90.5772 35.09C90.0639 35.09 89.5972 34.9733 89.1772 34.74C88.7639 34.5067 88.4372 34.1767 88.1972 33.75C87.9639 33.3167 87.8472 32.8167 87.8472 32.25C87.8472 31.69 87.9672 31.1967 88.2072 30.77C88.4539 30.3367 88.7872 30.0067 89.2072 29.78C89.6272 29.5467 90.0972 29.43 90.6172 29.43C91.1372 29.43 91.6072 29.5467 92.0272 29.78C92.4472 30.0067 92.7772 30.3333 93.0172 30.76C93.2639 31.1867 93.3872 31.6833 93.3872 32.25C93.3872 32.8167 93.2605 33.3167 93.0072 33.75C92.7605 34.1767 92.4239 34.5067 91.9972 34.74C91.5705 34.9733 91.0972 35.09 90.5772 35.09ZM90.5772 34.29C90.9039 34.29 91.2105 34.2133 91.4972 34.06C91.7839 33.9067 92.0139 33.6767 92.1872 33.37C92.3672 33.0633 92.4572 32.69 92.4572 32.25C92.4572 31.81 92.3705 31.4367 92.1972 31.13C92.0239 30.8233 91.7972 30.5967 91.5172 30.45C91.2372 30.2967 90.9339 30.22 90.6072 30.22C90.2739 30.22 89.9672 30.2967 89.6872 30.45C89.4139 30.5967 89.1939 30.8233 89.0272 31.13C88.8605 31.4367 88.7772 31.81 88.7772 32.25C88.7772 32.6967 88.8572 33.0733 89.0172 33.38C89.1839 33.6867 89.4039 33.9167 89.6772 34.07C89.9505 34.2167 90.2505 34.29 90.5772 34.29ZM97.5097 32.24C97.5097 31.68 97.623 31.19 97.8497 30.77C98.0764 30.3433 98.3864 30.0133 98.7797 29.78C99.1797 29.5467 99.6264 29.43 100.12 29.43C100.546 29.43 100.943 29.53 101.31 29.73C101.676 29.9233 101.956 30.18 102.15 30.5V27.6H103.07V35H102.15V33.97C101.97 34.2967 101.703 34.5667 101.35 34.78C100.996 34.9867 100.583 35.09 100.11 35.09C99.623 35.09 99.1797 34.97 98.7797 34.73C98.3864 34.49 98.0764 34.1533 97.8497 33.72C97.623 33.2867 97.5097 32.7933 97.5097 32.24ZM102.15 32.25C102.15 31.8367 102.066 31.4767 101.9 31.17C101.733 30.8633 101.506 30.63 101.22 30.47C100.94 30.3033 100.63 30.22 100.29 30.22C99.9497 30.22 99.6397 30.3 99.3597 30.46C99.0797 30.62 98.8564 30.8533 98.6897 31.16C98.523 31.4667 98.4397 31.8267 98.4397 32.24C98.4397 32.66 98.523 33.0267 98.6897 33.34C98.8564 33.6467 99.0797 33.8833 99.3597 34.05C99.6397 34.21 99.9497 34.29 100.29 34.29C100.63 34.29 100.94 34.21 101.22 34.05C101.506 33.8833 101.733 33.6467 101.9 33.34C102.066 33.0267 102.15 32.6633 102.15 32.25ZM109.907 32.05C109.907 32.2233 109.897 32.4067 109.877 32.6H105.497C105.531 33.14 105.714 33.5633 106.047 33.87C106.387 34.17 106.797 34.32 107.277 34.32C107.671 34.32 107.997 34.23 108.257 34.05C108.524 33.8633 108.711 33.6167 108.817 33.31H109.797C109.651 33.8367 109.357 34.2667 108.917 34.6C108.477 34.9267 107.931 35.09 107.277 35.09C106.757 35.09 106.291 34.9733 105.877 34.74C105.471 34.5067 105.151 34.1767 104.917 33.75C104.684 33.3167 104.567 32.8167 104.567 32.25C104.567 31.6833 104.681 31.1867 104.907 30.76C105.134 30.3333 105.451 30.0067 105.857 29.78C106.271 29.5467 106.744 29.43 107.277 29.43C107.797 29.43 108.257 29.5433 108.657 29.77C109.057 29.9967 109.364 30.31 109.577 30.71C109.797 31.1033 109.907 31.55 109.907 32.05ZM108.967 31.86C108.967 31.5133 108.891 31.2167 108.737 30.97C108.584 30.7167 108.374 30.5267 108.107 30.4C107.847 30.2667 107.557 30.2 107.237 30.2C106.777 30.2 106.384 30.3467 106.057 30.64C105.737 30.9333 105.554 31.34 105.507 31.86H108.967ZM117.885 28.03V33.18C117.885 33.7533 117.708 34.2133 117.355 34.56C117.001 34.9 116.535 35.07 115.955 35.07C115.368 35.07 114.898 34.8967 114.545 34.55C114.191 34.1967 114.015 33.7167 114.015 33.11H114.925C114.931 33.45 115.018 33.7267 115.185 33.94C115.358 34.1533 115.615 34.26 115.955 34.26C116.295 34.26 116.548 34.16 116.715 33.96C116.881 33.7533 116.965 33.4933 116.965 33.18V28.03H117.885ZM119.637 32.24C119.637 31.68 119.751 31.19 119.977 30.77C120.204 30.3433 120.514 30.0133 120.907 29.78C121.307 29.5467 121.751 29.43 122.237 29.43C122.717 29.43 123.134 29.5333 123.487 29.74C123.841 29.9467 124.104 30.2067 124.277 30.52V29.52H125.197V35H124.277V33.98C124.097 34.3 123.827 34.5667 123.467 34.78C123.114 34.9867 122.701 35.09 122.227 35.09C121.741 35.09 121.301 34.97 120.907 34.73C120.514 34.49 120.204 34.1533 119.977 33.72C119.751 33.2867 119.637 32.7933 119.637 32.24ZM124.277 32.25C124.277 31.8367 124.194 31.4767 124.027 31.17C123.861 30.8633 123.634 30.63 123.347 30.47C123.067 30.3033 122.757 30.22 122.417 30.22C122.077 30.22 121.767 30.3 121.487 30.46C121.207 30.62 120.984 30.8533 120.817 31.16C120.651 31.4667 120.567 31.8267 120.567 32.24C120.567 32.66 120.651 33.0267 120.817 33.34C120.984 33.6467 121.207 33.8833 121.487 34.05C121.767 34.21 122.077 34.29 122.417 34.29C122.757 34.29 123.067 34.21 123.347 34.05C123.634 33.8833 123.861 33.6467 124.027 33.34C124.194 33.0267 124.277 32.6633 124.277 32.25ZM129.705 29.42C130.372 29.42 130.912 29.6233 131.325 30.03C131.739 30.43 131.945 31.01 131.945 31.77V35H131.045V31.9C131.045 31.3533 130.909 30.9367 130.635 30.65C130.362 30.3567 129.989 30.21 129.515 30.21C129.035 30.21 128.652 30.36 128.365 30.66C128.085 30.96 127.945 31.3967 127.945 31.97V35H127.035V29.52H127.945V30.3C128.125 30.02 128.369 29.8033 128.675 29.65C128.989 29.4967 129.332 29.42 129.705 29.42ZM138.732 32.05C138.732 32.2233 138.722 32.4067 138.702 32.6H134.322C134.355 33.14 134.538 33.5633 134.872 33.87C135.212 34.17 135.622 34.32 136.102 34.32C136.495 34.32 136.822 34.23 137.082 34.05C137.348 33.8633 137.535 33.6167 137.642 33.31H138.622C138.475 33.8367 138.182 34.2667 137.742 34.6C137.302 34.9267 136.755 35.09 136.102 35.09C135.582 35.09 135.115 34.9733 134.702 34.74C134.295 34.5067 133.975 34.1767 133.742 33.75C133.508 33.3167 133.392 32.8167 133.392 32.25C133.392 31.6833 133.505 31.1867 133.732 30.76C133.958 30.3333 134.275 30.0067 134.682 29.78C135.095 29.5467 135.568 29.43 136.102 29.43C136.622 29.43 137.082 29.5433 137.482 29.77C137.882 29.9967 138.188 30.31 138.402 30.71C138.622 31.1033 138.732 31.55 138.732 32.05ZM137.792 31.86C137.792 31.5133 137.715 31.2167 137.562 30.97C137.408 30.7167 137.198 30.5267 136.932 30.4C136.672 30.2667 136.382 30.2 136.062 30.2C135.602 30.2 135.208 30.3467 134.882 30.64C134.562 30.9333 134.378 31.34 134.332 31.86H137.792ZM140.703 28.63C140.53 28.63 140.383 28.57 140.263 28.45C140.143 28.33 140.083 28.1833 140.083 28.01C140.083 27.8367 140.143 27.69 140.263 27.57C140.383 27.45 140.53 27.39 140.703 27.39C140.87 27.39 141.01 27.45 141.123 27.57C141.243 27.69 141.303 27.8367 141.303 28.01C141.303 28.1833 141.243 28.33 141.123 28.45C141.01 28.57 140.87 28.63 140.703 28.63ZM141.143 29.52V35H140.233V29.52H141.143ZM143.904 30.41C144.064 30.0967 144.29 29.8533 144.584 29.68C144.884 29.5067 145.247 29.42 145.674 29.42V30.36H145.434C144.414 30.36 143.904 30.9133 143.904 32.02V35H142.994V29.52H143.904V30.41ZM149.414 35.09C148.901 35.09 148.434 34.9733 148.014 34.74C147.601 34.5067 147.274 34.1767 147.034 33.75C146.801 33.3167 146.684 32.8167 146.684 32.25C146.684 31.69 146.804 31.1967 147.044 30.77C147.291 30.3367 147.624 30.0067 148.044 29.78C148.464 29.5467 148.934 29.43 149.454 29.43C149.974 29.43 150.444 29.5467 150.864 29.78C151.284 30.0067 151.614 30.3333 151.854 30.76C152.101 31.1867 152.224 31.6833 152.224 32.25C152.224 32.8167 152.098 33.3167 151.844 33.75C151.598 34.1767 151.261 34.5067 150.834 34.74C150.408 34.9733 149.934 35.09 149.414 35.09ZM149.414 34.29C149.741 34.29 150.048 34.2133 150.334 34.06C150.621 33.9067 150.851 33.6767 151.024 33.37C151.204 33.0633 151.294 32.69 151.294 32.25C151.294 31.81 151.208 31.4367 151.034 31.13C150.861 30.8233 150.634 30.5967 150.354 30.45C150.074 30.2967 149.771 30.22 149.444 30.22C149.111 30.22 148.804 30.2967 148.524 30.45C148.251 30.5967 148.031 30.8233 147.864 31.13C147.698 31.4367 147.614 31.81 147.614 32.25C147.614 32.6967 147.694 33.0733 147.854 33.38C148.021 33.6867 148.241 33.9167 148.514 34.07C148.788 34.2167 149.088 34.29 149.414 34.29Z" fill="#98A4AE"/>
<path d="M73.9434 45.5L108.058 45.5L91.001 68.3301L73.9434 45.5Z" fill="white" stroke="#015486" stroke-width="2"/>
<path d="M91 65L71.0814 41L110.919 41L91 65Z" fill="white"/>
<path d="M31.155 11.978C30.2796 11.4725 29.3132 11.1443 28.311 11.0123C27.3088 10.8803 26.2904 10.947 25.314 11.2086C24.3376 11.4702 23.4223 11.9215 22.6203 12.5369C21.8183 13.1523 21.1454 13.9196 20.64 14.795L20.35 15.297C20.2507 15.4693 20.2239 15.6739 20.2755 15.8659C20.3271 16.0579 20.4528 16.2216 20.625 16.321L26.086 19.474L22.818 25.194L22.75 25.193C19.592 25.193 16.857 27.025 15.228 29.615C15.5062 29.5166 15.8027 29.481 16.0963 29.5108C16.3898 29.5405 16.6732 29.6348 16.926 29.787C18.338 27.921 20.444 26.693 22.75 26.693C25.154 26.693 27.341 28.028 28.75 30.029C28.9448 29.8497 29.1733 29.7109 29.4222 29.6206C29.6711 29.5303 29.9355 29.4903 30.2 29.503C28.869 27.445 26.833 25.883 24.444 25.372L27.385 20.224L32.658 23.269C32.7433 23.3183 32.8376 23.3503 32.9353 23.3631C33.033 23.376 33.1323 23.3695 33.2275 23.3439C33.3227 23.3184 33.4119 23.2743 33.4901 23.2143C33.5682 23.1543 33.6338 23.0794 33.683 22.994L33.973 22.493C34.4785 21.6176 34.8065 20.6511 34.9385 19.6489C35.0704 18.6466 35.0036 17.6282 34.742 16.6518C34.4803 15.6754 34.0288 14.7601 33.4134 13.9581C32.7979 13.1562 32.0305 12.4833 31.155 11.978ZM28.965 19.404L25.807 17.58C26.379 16.699 26.923 16.028 27.575 15.435C28.21 14.857 28.968 14.335 29.996 13.767C30.148 14.722 30.194 15.517 30.096 16.297C29.98 17.229 29.651 18.19 28.963 19.403M30.261 20.153C31.021 18.815 31.437 17.663 31.584 16.483C31.681 15.709 31.659 14.945 31.562 14.138C32.5536 15.0759 33.208 16.3148 33.4237 17.6625C33.6394 19.0102 33.4043 20.3915 32.755 21.592L30.261 20.153ZM26.565 14.325C25.775 15.044 25.14 15.844 24.505 16.829L22.025 15.397C22.7247 14.2594 23.773 13.3782 25.014 12.8845C26.2549 12.3908 27.6221 12.311 28.912 12.657C27.983 13.192 27.227 13.722 26.565 14.325ZM16.605 31.263C16.5536 31.1087 16.4535 30.9752 16.3197 30.8828C16.1859 30.7903 16.0257 30.7439 15.8632 30.7504C15.7007 30.757 15.5447 30.8162 15.4188 30.9191C15.2928 31.022 15.2038 31.163 15.165 31.321C14.91 32.363 14.427 32.935 13.877 33.267C13.301 33.615 12.567 33.749 11.748 33.749C11.5491 33.749 11.3583 33.828 11.2177 33.9687C11.077 34.1093 10.998 34.3001 10.998 34.499C10.998 34.6979 11.077 34.8887 11.2177 35.0293C11.3583 35.17 11.5491 35.249 11.748 35.249C12.705 35.249 13.748 35.097 14.652 34.551C15.1912 34.2252 15.6459 33.7767 15.979 33.242C17.768 35.524 21.261 35.512 22.998 33.218C24.763 35.548 28.338 35.524 30.101 33.132C30.5796 33.7834 31.2038 34.3141 31.9238 34.6816C32.6437 35.0492 33.4396 35.2435 34.248 35.249C34.4469 35.249 34.6377 35.17 34.7783 35.0293C34.919 34.8887 34.998 34.6979 34.998 34.499C34.998 34.3001 34.919 34.1093 34.7783 33.9687C34.6377 33.828 34.4469 33.749 34.248 33.749C32.773 33.749 31.303 32.789 30.818 31.271C30.77 31.1199 30.6754 30.9879 30.5477 30.894C30.42 30.8001 30.2659 30.749 30.1074 30.7481C29.9489 30.7472 29.7942 30.7965 29.6655 30.8891C29.5368 30.9816 29.4407 31.1125 29.391 31.263C28.428 34.172 24.653 34.135 23.707 31.384C23.6561 31.2364 23.5604 31.1085 23.4333 31.0179C23.3062 30.9273 23.1541 30.8786 22.998 30.8786C22.8419 30.8786 22.6897 30.9273 22.5626 31.0179C22.4355 31.1085 22.3399 31.2364 22.289 31.384C21.343 34.135 17.569 34.171 16.605 31.263Z" fill="#015486"/>
<defs>
<linearGradient id="paint0_linear_294_232" x1="179.069" y1="0.748829" x2="-69.2821" y2="206.234" gradientUnits="userSpaceOnUse">
<stop stop-color="white"/>
</linearGradient>
</defs>
</svg>
