<svg width="181" height="70" viewBox="0 0 181 70" fill="none" xmlns="http://www.w3.org/2000/svg">
<path d="M20 1H161C171.493 1 180 9.50659 180 20V26C180 36.4934 171.493 45 161 45H20C9.50659 45 1 36.4934 1 26V20C1 9.50659 9.50659 1 20 1Z" fill="url(#paint0_linear_294_446)" stroke="#015486" stroke-width="2"/>
<path d="M40.08 19V10.624C40.408 10.584 40.768 10.556 41.16 10.54C41.56 10.516 41.972 10.504 42.396 10.504C43.092 10.504 43.684 10.616 44.172 10.84C44.66 11.056 45.032 11.356 45.288 11.74C45.544 12.124 45.672 12.564 45.672 13.06C45.672 13.66 45.524 14.168 45.228 14.584C44.932 15 44.52 15.32 43.992 15.544C43.464 15.76 42.852 15.868 42.156 15.868C41.82 15.868 41.508 15.856 41.22 15.832V19H40.08ZM42.3 14.92C43.012 14.92 43.564 14.76 43.956 14.44C44.348 14.12 44.544 13.692 44.544 13.156C44.544 12.636 44.356 12.224 43.98 11.92C43.604 11.616 43.068 11.464 42.372 11.464C42.156 11.464 41.952 11.468 41.76 11.476C41.568 11.484 41.388 11.496 41.22 11.512V14.86C41.348 14.876 41.504 14.892 41.688 14.908C41.872 14.916 42.076 14.92 42.3 14.92ZM47.2327 19V12.76H48.2767V14.116C48.3807 13.852 48.5207 13.608 48.6967 13.384C48.8727 13.152 49.0927 12.968 49.3567 12.832C49.6207 12.688 49.9287 12.616 50.2807 12.616C50.4007 12.616 50.5207 12.624 50.6407 12.64C50.7607 12.648 50.8607 12.664 50.9407 12.688L50.6167 13.804C50.4647 13.74 50.2847 13.708 50.0767 13.708C49.7807 13.708 49.4967 13.792 49.2247 13.96C48.9607 14.128 48.7407 14.388 48.5647 14.74C48.3967 15.092 48.3127 15.54 48.3127 16.084V19H47.2327ZM54.3503 19.144C53.8303 19.144 53.3583 19.012 52.9343 18.748C52.5103 18.484 52.1703 18.112 51.9143 17.632C51.6663 17.144 51.5423 16.572 51.5423 15.916C51.5423 15.292 51.6663 14.732 51.9143 14.236C52.1703 13.74 52.5183 13.348 52.9583 13.06C53.4063 12.764 53.9183 12.616 54.4943 12.616C54.8543 12.616 55.1783 12.68 55.4663 12.808C55.7623 12.928 56.0183 13.08 56.2343 13.264V12.76H57.2183V17.488C57.2183 17.792 57.2903 17.992 57.4343 18.088C57.5863 18.176 57.7503 18.22 57.9263 18.22L57.6983 19.06C56.9303 19.06 56.4663 18.748 56.3063 18.124C56.1223 18.38 55.8703 18.616 55.5503 18.832C55.2383 19.04 54.8383 19.144 54.3503 19.144ZM54.5903 18.184C54.8943 18.184 55.1823 18.112 55.4543 17.968C55.7263 17.816 55.9543 17.628 56.1383 17.404V14.056C55.9223 13.904 55.6823 13.784 55.4183 13.696C55.1623 13.6 54.8903 13.552 54.6023 13.552C54.2183 13.552 53.8783 13.652 53.5823 13.852C53.2943 14.044 53.0663 14.316 52.8983 14.668C52.7303 15.012 52.6463 15.416 52.6463 15.88C52.6463 16.328 52.7303 16.728 52.8983 17.08C53.0663 17.424 53.2983 17.696 53.5943 17.896C53.8903 18.088 54.2223 18.184 54.5903 18.184ZM59.6686 19V12.76H60.7486V19H59.6686ZM60.2086 11.692C60.0006 11.692 59.8206 11.616 59.6686 11.464C59.5246 11.312 59.4526 11.136 59.4526 10.936C59.4526 10.704 59.5206 10.52 59.6566 10.384C59.7926 10.248 59.9766 10.18 60.2086 10.18C60.4166 10.18 60.5926 10.256 60.7366 10.408C60.8886 10.552 60.9646 10.728 60.9646 10.936C60.9646 11.16 60.8966 11.344 60.7606 11.488C60.6246 11.624 60.4406 11.692 60.2086 11.692ZM65.3566 19.144C64.8366 19.144 64.3646 19.012 63.9406 18.748C63.5166 18.484 63.1766 18.112 62.9206 17.632C62.6726 17.144 62.5486 16.572 62.5486 15.916C62.5486 15.292 62.6726 14.732 62.9206 14.236C63.1766 13.74 63.5246 13.348 63.9646 13.06C64.4126 12.764 64.9246 12.616 65.5006 12.616C65.8606 12.616 66.1846 12.68 66.4726 12.808C66.7686 12.928 67.0246 13.08 67.2406 13.264V12.76H68.2246V17.488C68.2246 17.792 68.2966 17.992 68.4406 18.088C68.5926 18.176 68.7566 18.22 68.9326 18.22L68.7046 19.06C67.9366 19.06 67.4726 18.748 67.3126 18.124C67.1286 18.38 66.8766 18.616 66.5566 18.832C66.2446 19.04 65.8446 19.144 65.3566 19.144ZM65.5966 18.184C65.9006 18.184 66.1886 18.112 66.4606 17.968C66.7326 17.816 66.9606 17.628 67.1446 17.404V14.056C66.9286 13.904 66.6886 13.784 66.4246 13.696C66.1686 13.6 65.8966 13.552 65.6086 13.552C65.2246 13.552 64.8846 13.652 64.5886 13.852C64.3006 14.044 64.0726 14.316 63.9046 14.668C63.7366 15.012 63.6526 15.416 63.6526 15.88C63.6526 16.328 63.7366 16.728 63.9046 17.08C64.0726 17.424 64.3046 17.696 64.6006 17.896C64.8966 18.088 65.2286 18.184 65.5966 18.184ZM76.9365 19.144C76.4245 19.144 75.9565 19.012 75.5325 18.748C75.1085 18.484 74.7725 18.112 74.5245 17.632C74.2765 17.144 74.1525 16.572 74.1525 15.916C74.1525 15.284 74.2765 14.72 74.5245 14.224C74.7805 13.728 75.1165 13.336 75.5325 13.048C75.9565 12.76 76.4205 12.616 76.9245 12.616C77.3405 12.616 77.6965 12.7 77.9925 12.868C78.2965 13.036 78.5325 13.208 78.7005 13.384V10.12H79.7805V17.488C79.7805 17.792 79.8525 17.992 79.9965 18.088C80.1485 18.176 80.3125 18.22 80.4885 18.22L80.2605 19.06C79.5005 19.06 79.0365 18.756 78.8685 18.148C78.6925 18.396 78.4445 18.624 78.1245 18.832C77.8125 19.04 77.4165 19.144 76.9365 19.144ZM77.1765 18.184C77.4725 18.184 77.7525 18.116 78.0165 17.98C78.2885 17.836 78.5165 17.652 78.7005 17.428V14.332C78.5485 14.14 78.3365 13.964 78.0645 13.804C77.7925 13.636 77.4925 13.552 77.1645 13.552C76.7805 13.552 76.4445 13.656 76.1565 13.864C75.8685 14.072 75.6445 14.352 75.4845 14.704C75.3325 15.048 75.2565 15.44 75.2565 15.88C75.2565 16.32 75.3405 16.716 75.5085 17.068C75.6765 17.412 75.9045 17.684 76.1925 17.884C76.4885 18.084 76.8165 18.184 77.1765 18.184ZM84.6107 19.144C83.7147 19.144 83.0027 18.86 82.4747 18.292C81.9547 17.716 81.6947 16.912 81.6947 15.88C81.6947 15.256 81.8107 14.7 82.0427 14.212C82.2827 13.716 82.6147 13.328 83.0387 13.048C83.4627 12.76 83.9547 12.616 84.5147 12.616C85.1147 12.616 85.6107 12.748 86.0027 13.012C86.4027 13.268 86.7027 13.616 86.9027 14.056C87.1027 14.496 87.2027 14.98 87.2027 15.508C87.2027 15.788 87.1907 16.06 87.1667 16.324H82.7987C82.8707 16.908 83.0747 17.364 83.4107 17.692C83.7467 18.02 84.1907 18.184 84.7427 18.184C85.1027 18.184 85.4267 18.148 85.7147 18.076C86.0027 17.996 86.2787 17.896 86.5427 17.776L86.7947 18.7C86.5067 18.828 86.1827 18.932 85.8227 19.012C85.4627 19.1 85.0587 19.144 84.6107 19.144ZM82.7867 15.448H86.2067C86.2067 14.84 86.0547 14.372 85.7507 14.044C85.4467 13.716 85.0267 13.552 84.4907 13.552C84.0267 13.552 83.6427 13.716 83.3387 14.044C83.0347 14.364 82.8507 14.832 82.7867 15.448ZM95.0477 19.144C94.4637 19.144 93.9317 19.068 93.4517 18.916C92.9717 18.756 92.5677 18.548 92.2397 18.292L92.8157 17.332C93.1037 17.572 93.4277 17.768 93.7877 17.92C94.1477 18.072 94.5677 18.148 95.0477 18.148C95.6237 18.148 96.0797 18.028 96.4157 17.788C96.7517 17.548 96.9197 17.224 96.9197 16.816C96.9197 16.584 96.8717 16.38 96.7757 16.204C96.6797 16.02 96.4917 15.844 96.2117 15.676C95.9397 15.5 95.5357 15.312 94.9997 15.112C94.4237 14.888 93.9637 14.664 93.6197 14.44C93.2757 14.208 93.0277 13.948 92.8757 13.66C92.7317 13.364 92.6597 13.016 92.6597 12.616C92.6597 12.216 92.7677 11.856 92.9837 11.536C93.2077 11.208 93.5317 10.948 93.9557 10.756C94.3877 10.556 94.9077 10.456 95.5157 10.456C96.0117 10.456 96.4557 10.508 96.8477 10.612C97.2477 10.708 97.6357 10.848 98.0117 11.032L97.5917 12.004C97.3197 11.844 96.9997 11.712 96.6317 11.608C96.2717 11.496 95.8917 11.44 95.4917 11.44C94.9637 11.44 94.5477 11.544 94.2437 11.752C93.9397 11.96 93.7877 12.228 93.7877 12.556C93.7877 12.764 93.8317 12.948 93.9197 13.108C94.0077 13.268 94.1797 13.424 94.4357 13.576C94.6997 13.728 95.0917 13.9 95.6117 14.092C96.2357 14.324 96.7277 14.568 97.0877 14.824C97.4557 15.08 97.7157 15.36 97.8677 15.664C98.0197 15.96 98.0957 16.3 98.0957 16.684C98.0957 17.204 97.9637 17.648 97.6997 18.016C97.4437 18.384 97.0837 18.664 96.6197 18.856C96.1637 19.048 95.6397 19.144 95.0477 19.144ZM102.348 19.144C101.828 19.144 101.356 19.012 100.932 18.748C100.508 18.484 100.168 18.112 99.912 17.632C99.664 17.144 99.54 16.572 99.54 15.916C99.54 15.292 99.664 14.732 99.912 14.236C100.168 13.74 100.516 13.348 100.956 13.06C101.404 12.764 101.916 12.616 102.492 12.616C102.852 12.616 103.176 12.68 103.464 12.808C103.76 12.928 104.016 13.08 104.232 13.264V12.76H105.216V17.488C105.216 17.792 105.288 17.992 105.432 18.088C105.584 18.176 105.748 18.22 105.924 18.22L105.696 19.06C104.928 19.06 104.464 18.748 104.304 18.124C104.12 18.38 103.868 18.616 103.548 18.832C103.236 19.04 102.836 19.144 102.348 19.144ZM102.588 18.184C102.892 18.184 103.18 18.112 103.452 17.968C103.724 17.816 103.952 17.628 104.136 17.404V14.056C103.92 13.904 103.68 13.784 103.416 13.696C103.16 13.6 102.888 13.552 102.6 13.552C102.216 13.552 101.876 13.652 101.58 13.852C101.292 14.044 101.064 14.316 100.896 14.668C100.728 15.012 100.644 15.416 100.644 15.88C100.644 16.328 100.728 16.728 100.896 17.08C101.064 17.424 101.296 17.696 101.592 17.896C101.888 18.088 102.22 18.184 102.588 18.184ZM101.184 11.704L100.764 10.96C100.908 10.8 101.092 10.656 101.316 10.528C101.54 10.4 101.772 10.336 102.012 10.336C102.212 10.336 102.384 10.372 102.528 10.444C102.672 10.508 102.808 10.576 102.936 10.648C103.072 10.712 103.224 10.744 103.392 10.744C103.568 10.744 103.724 10.708 103.86 10.636C103.996 10.556 104.116 10.468 104.22 10.372L104.64 11.128C104.496 11.264 104.328 11.392 104.136 11.512C103.952 11.624 103.736 11.68 103.488 11.68C103.28 11.68 103.104 11.648 102.96 11.584C102.816 11.512 102.676 11.444 102.54 11.38C102.404 11.308 102.244 11.272 102.06 11.272C101.884 11.272 101.724 11.316 101.58 11.404C101.436 11.492 101.304 11.592 101.184 11.704ZM110.177 19.144C109.585 19.144 109.053 19.008 108.581 18.736C108.109 18.456 107.737 18.072 107.465 17.584C107.201 17.088 107.069 16.52 107.069 15.88C107.069 15.208 107.205 14.628 107.477 14.14C107.749 13.652 108.121 13.276 108.593 13.012C109.065 12.748 109.593 12.616 110.177 12.616C110.761 12.616 111.285 12.748 111.749 13.012C112.221 13.276 112.593 13.652 112.865 14.14C113.145 14.62 113.285 15.192 113.285 15.856C113.285 16.52 113.149 17.1 112.877 17.596C112.605 18.084 112.233 18.464 111.761 18.736C111.297 19.008 110.769 19.144 110.177 19.144ZM110.177 18.184C110.809 18.184 111.301 17.972 111.653 17.548C112.005 17.116 112.181 16.56 112.181 15.88C112.181 15.464 112.093 15.084 111.917 14.74C111.741 14.388 111.501 14.108 111.197 13.9C110.901 13.684 110.561 13.576 110.177 13.576C109.545 13.576 109.053 13.784 108.701 14.2C108.349 14.616 108.173 15.168 108.173 15.856C108.173 16.272 108.261 16.66 108.437 17.02C108.613 17.372 108.849 17.656 109.145 17.872C109.449 18.08 109.793 18.184 110.177 18.184ZM122.267 19.144C121.539 19.144 120.895 18.972 120.335 18.628C119.775 18.276 119.339 17.78 119.027 17.14C118.715 16.492 118.559 15.724 118.559 14.836C118.559 13.98 118.715 13.224 119.027 12.568C119.347 11.904 119.795 11.388 120.371 11.02C120.955 10.644 121.635 10.456 122.411 10.456C122.811 10.456 123.175 10.496 123.503 10.576C123.831 10.648 124.139 10.752 124.427 10.888L124.079 11.848C123.831 11.728 123.575 11.632 123.311 11.56C123.055 11.488 122.751 11.452 122.399 11.452C121.887 11.452 121.427 11.584 121.019 11.848C120.619 12.112 120.303 12.492 120.071 12.988C119.839 13.484 119.723 14.084 119.723 14.788C119.723 15.46 119.835 16.048 120.059 16.552C120.291 17.056 120.607 17.448 121.007 17.728C121.415 18.008 121.879 18.148 122.399 18.148C122.791 18.148 123.131 18.1 123.419 18.004C123.707 17.908 123.987 17.784 124.259 17.632L124.607 18.58C124.311 18.74 123.971 18.876 123.587 18.988C123.211 19.092 122.771 19.144 122.267 19.144ZM126.344 19V10.12H127.424V13.756C127.648 13.428 127.932 13.156 128.276 12.94C128.62 12.724 129.024 12.616 129.488 12.616C130.192 12.616 130.716 12.828 131.06 13.252C131.412 13.676 131.588 14.236 131.588 14.932V19H130.508V15.052C130.508 14.604 130.404 14.244 130.196 13.972C129.988 13.7 129.696 13.564 129.32 13.564C128.952 13.564 128.6 13.696 128.264 13.96C127.936 14.216 127.656 14.52 127.424 14.872V19H126.344ZM136.133 19.144C135.613 19.144 135.141 19.012 134.717 18.748C134.293 18.484 133.953 18.112 133.697 17.632C133.449 17.144 133.325 16.572 133.325 15.916C133.325 15.292 133.449 14.732 133.697 14.236C133.953 13.74 134.301 13.348 134.741 13.06C135.189 12.764 135.701 12.616 136.277 12.616C136.637 12.616 136.961 12.68 137.249 12.808C137.545 12.928 137.801 13.08 138.017 13.264V12.76H139.001V17.488C139.001 17.792 139.073 17.992 139.217 18.088C139.369 18.176 139.533 18.22 139.709 18.22L139.481 19.06C138.713 19.06 138.249 18.748 138.089 18.124C137.905 18.38 137.653 18.616 137.333 18.832C137.021 19.04 136.621 19.144 136.133 19.144ZM136.373 18.184C136.677 18.184 136.965 18.112 137.237 17.968C137.509 17.816 137.737 17.628 137.921 17.404V14.056C137.705 13.904 137.465 13.784 137.201 13.696C136.945 13.6 136.673 13.552 136.385 13.552C136.001 13.552 135.661 13.652 135.365 13.852C135.077 14.044 134.849 14.316 134.681 14.668C134.513 15.012 134.429 15.416 134.429 15.88C134.429 16.328 134.513 16.728 134.681 17.08C134.849 17.424 135.081 17.696 135.377 17.896C135.673 18.088 136.005 18.184 136.373 18.184ZM141.451 19V12.76H142.495V14.116C142.599 13.852 142.739 13.608 142.915 13.384C143.091 13.152 143.311 12.968 143.575 12.832C143.839 12.688 144.147 12.616 144.499 12.616C144.619 12.616 144.739 12.624 144.859 12.64C144.979 12.648 145.079 12.664 145.159 12.688L144.835 13.804C144.683 13.74 144.503 13.708 144.295 13.708C143.999 13.708 143.715 13.792 143.443 13.96C143.179 14.128 142.959 14.388 142.783 14.74C142.615 15.092 142.531 15.54 142.531 16.084V19H141.451ZM146.544 19V12.76H147.624V19H146.544ZM147.084 11.692C146.876 11.692 146.696 11.616 146.544 11.464C146.4 11.312 146.328 11.136 146.328 10.936C146.328 10.704 146.396 10.52 146.532 10.384C146.668 10.248 146.852 10.18 147.084 10.18C147.292 10.18 147.468 10.256 147.612 10.408C147.764 10.552 147.84 10.728 147.84 10.936C147.84 11.16 147.772 11.344 147.636 11.488C147.5 11.624 147.316 11.692 147.084 11.692ZM152.028 19.144C151.428 19.144 150.952 18.948 150.6 18.556C150.256 18.156 150.084 17.588 150.084 16.852V13.924H149.004V12.988H150.108L150.336 11.02H151.164V12.988H152.892V13.924H151.164V16.936C151.164 17.4 151.26 17.724 151.452 17.908C151.652 18.092 151.888 18.184 152.16 18.184C152.36 18.184 152.548 18.152 152.724 18.088C152.908 18.024 153.076 17.948 153.228 17.86L153.528 18.724C153.368 18.82 153.152 18.912 152.88 19C152.608 19.096 152.324 19.144 152.028 19.144ZM157.068 19.144C156.548 19.144 156.076 19.012 155.652 18.748C155.228 18.484 154.888 18.112 154.632 17.632C154.384 17.144 154.26 16.572 154.26 15.916C154.26 15.292 154.384 14.732 154.632 14.236C154.888 13.74 155.236 13.348 155.676 13.06C156.124 12.764 156.636 12.616 157.212 12.616C157.572 12.616 157.896 12.68 158.184 12.808C158.48 12.928 158.736 13.08 158.952 13.264V12.76H159.936V17.488C159.936 17.792 160.008 17.992 160.152 18.088C160.304 18.176 160.468 18.22 160.644 18.22L160.416 19.06C159.648 19.06 159.184 18.748 159.024 18.124C158.84 18.38 158.588 18.616 158.268 18.832C157.956 19.04 157.556 19.144 157.068 19.144ZM157.308 18.184C157.612 18.184 157.9 18.112 158.172 17.968C158.444 17.816 158.672 17.628 158.856 17.404V14.056C158.64 13.904 158.4 13.784 158.136 13.696C157.88 13.6 157.608 13.552 157.32 13.552C156.936 13.552 156.596 13.652 156.3 13.852C156.012 14.044 155.784 14.316 155.616 14.668C155.448 15.012 155.364 15.416 155.364 15.88C155.364 16.328 155.448 16.728 155.616 17.08C155.784 17.424 156.016 17.696 156.312 17.896C156.608 18.088 156.94 18.184 157.308 18.184ZM164.066 19.144C163.594 19.144 163.166 19.084 162.782 18.964C162.406 18.844 162.094 18.688 161.846 18.496L162.302 17.596C162.51 17.772 162.77 17.92 163.082 18.04C163.402 18.152 163.742 18.208 164.102 18.208C164.55 18.208 164.886 18.136 165.11 17.992C165.342 17.84 165.458 17.648 165.458 17.416C165.458 17.248 165.414 17.1 165.326 16.972C165.246 16.844 165.094 16.72 164.87 16.6C164.646 16.472 164.322 16.336 163.898 16.192C163.314 15.992 162.874 15.756 162.578 15.484C162.29 15.204 162.146 14.82 162.146 14.332C162.146 13.852 162.354 13.448 162.77 13.12C163.194 12.784 163.778 12.616 164.522 12.616C164.922 12.616 165.278 12.66 165.59 12.748C165.902 12.828 166.182 12.932 166.43 13.06L166.13 13.948C165.914 13.82 165.666 13.716 165.386 13.636C165.114 13.556 164.81 13.516 164.474 13.516C164.058 13.516 163.742 13.6 163.526 13.768C163.31 13.936 163.202 14.12 163.202 14.32C163.202 14.512 163.286 14.676 163.454 14.812C163.622 14.948 163.95 15.096 164.438 15.256C165.23 15.52 165.782 15.812 166.094 16.132C166.406 16.452 166.562 16.852 166.562 17.332C166.562 17.892 166.334 18.336 165.878 18.664C165.43 18.984 164.826 19.144 164.066 19.144Z" fill="#015486"/>
<path d="M44.06 27.03V27.77H42.16V34H41.25V27.77H39.34V27.03H44.06ZM46.3902 29.41C46.5502 29.0967 46.7768 28.8533 47.0702 28.68C47.3702 28.5067 47.7335 28.42 48.1602 28.42V29.36H47.9202C46.9002 29.36 46.3902 29.9133 46.3902 31.02V34H45.4802V28.52H46.3902V29.41ZM49.1706 31.24C49.1706 30.68 49.284 30.19 49.5106 29.77C49.7373 29.3433 50.0473 29.0133 50.4406 28.78C50.8406 28.5467 51.284 28.43 51.7706 28.43C52.2506 28.43 52.6673 28.5333 53.0206 28.74C53.374 28.9467 53.6373 29.2067 53.8106 29.52V28.52H54.7306V34H53.8106V32.98C53.6306 33.3 53.3606 33.5667 53.0006 33.78C52.6473 33.9867 52.234 34.09 51.7606 34.09C51.274 34.09 50.834 33.97 50.4406 33.73C50.0473 33.49 49.7373 33.1533 49.5106 32.72C49.284 32.2867 49.1706 31.7933 49.1706 31.24ZM53.8106 31.25C53.8106 30.8367 53.7273 30.4767 53.5606 30.17C53.394 29.8633 53.1673 29.63 52.8806 29.47C52.6006 29.3033 52.2906 29.22 51.9506 29.22C51.6106 29.22 51.3006 29.3 51.0206 29.46C50.7406 29.62 50.5173 29.8533 50.3506 30.16C50.184 30.4667 50.1006 30.8267 50.1006 31.24C50.1006 31.66 50.184 32.0267 50.3506 32.34C50.5173 32.6467 50.7406 32.8833 51.0206 33.05C51.3006 33.21 51.6106 33.29 51.9506 33.29C52.2906 33.29 52.6006 33.21 52.8806 33.05C53.1673 32.8833 53.394 32.6467 53.5606 32.34C53.7273 32.0267 53.8106 31.6633 53.8106 31.25ZM58.6084 33.16L60.3084 28.52H61.2784L59.1284 34H58.0684L55.9184 28.52H56.8984L58.6084 33.16ZM67.4739 31.05C67.4739 31.2233 67.4639 31.4067 67.4439 31.6H63.0639C63.0972 32.14 63.2806 32.5633 63.6139 32.87C63.9539 33.17 64.3639 33.32 64.8439 33.32C65.2372 33.32 65.5639 33.23 65.8239 33.05C66.0906 32.8633 66.2772 32.6167 66.3839 32.31H67.3639C67.2172 32.8367 66.9239 33.2667 66.4839 33.6C66.0439 33.9267 65.4972 34.09 64.8439 34.09C64.3239 34.09 63.8572 33.9733 63.4439 33.74C63.0372 33.5067 62.7172 33.1767 62.4839 32.75C62.2506 32.3167 62.1339 31.8167 62.1339 31.25C62.1339 30.6833 62.2472 30.1867 62.4739 29.76C62.7006 29.3333 63.0172 29.0067 63.4239 28.78C63.8372 28.5467 64.3106 28.43 64.8439 28.43C65.3639 28.43 65.8239 28.5433 66.2239 28.77C66.6239 28.9967 66.9306 29.31 67.1439 29.71C67.3639 30.1033 67.4739 30.55 67.4739 31.05ZM66.5339 30.86C66.5339 30.5133 66.4572 30.2167 66.3039 29.97C66.1506 29.7167 65.9406 29.5267 65.6739 29.4C65.4139 29.2667 65.1239 29.2 64.8039 29.2C64.3439 29.2 63.9506 29.3467 63.6239 29.64C63.3039 29.9333 63.1206 30.34 63.0739 30.86H66.5339ZM70.9151 34.09C70.4951 34.09 70.1184 34.02 69.7851 33.88C69.4517 33.7333 69.1884 33.5333 68.9951 33.28C68.8017 33.02 68.6951 32.7233 68.6751 32.39H69.6151C69.6417 32.6633 69.7684 32.8867 69.9951 33.06C70.2284 33.2333 70.5317 33.32 70.9051 33.32C71.2517 33.32 71.5251 33.2433 71.7251 33.09C71.9251 32.9367 72.0251 32.7433 72.0251 32.51C72.0251 32.27 71.9184 32.0933 71.7051 31.98C71.4917 31.86 71.1617 31.7433 70.7151 31.63C70.3084 31.5233 69.9751 31.4167 69.7151 31.31C69.4617 31.1967 69.2417 31.0333 69.0551 30.82C68.8751 30.6 68.7851 30.3133 68.7851 29.96C68.7851 29.68 68.8684 29.4233 69.0351 29.19C69.2017 28.9567 69.4384 28.7733 69.7451 28.64C70.0517 28.5 70.4017 28.43 70.7951 28.43C71.4017 28.43 71.8917 28.5833 72.2651 28.89C72.6384 29.1967 72.8384 29.6167 72.8651 30.15H71.9551C71.9351 29.8633 71.8184 29.6333 71.6051 29.46C71.3984 29.2867 71.1184 29.2 70.7651 29.2C70.4384 29.2 70.1784 29.27 69.9851 29.41C69.7917 29.55 69.6951 29.7333 69.6951 29.96C69.6951 30.14 69.7517 30.29 69.8651 30.41C69.9851 30.5233 70.1317 30.6167 70.3051 30.69C70.4851 30.7567 70.7317 30.8333 71.0451 30.92C71.4384 31.0267 71.7584 31.1333 72.0051 31.24C72.2517 31.34 72.4617 31.4933 72.6351 31.7C72.8151 31.9067 72.9084 32.1767 72.9151 32.51C72.9151 32.81 72.8317 33.08 72.6651 33.32C72.4984 33.56 72.2617 33.75 71.9551 33.89C71.6551 34.0233 71.3084 34.09 70.9151 34.09ZM76.4397 34.09C76.0197 34.09 75.643 34.02 75.3097 33.88C74.9764 33.7333 74.713 33.5333 74.5197 33.28C74.3264 33.02 74.2197 32.7233 74.1997 32.39H75.1397C75.1664 32.6633 75.293 32.8867 75.5197 33.06C75.753 33.2333 76.0564 33.32 76.4297 33.32C76.7764 33.32 77.0497 33.2433 77.2497 33.09C77.4497 32.9367 77.5497 32.7433 77.5497 32.51C77.5497 32.27 77.443 32.0933 77.2297 31.98C77.0164 31.86 76.6864 31.7433 76.2397 31.63C75.833 31.5233 75.4997 31.4167 75.2397 31.31C74.9864 31.1967 74.7664 31.0333 74.5797 30.82C74.3997 30.6 74.3097 30.3133 74.3097 29.96C74.3097 29.68 74.393 29.4233 74.5597 29.19C74.7264 28.9567 74.963 28.7733 75.2697 28.64C75.5764 28.5 75.9264 28.43 76.3197 28.43C76.9264 28.43 77.4164 28.5833 77.7897 28.89C78.163 29.1967 78.363 29.6167 78.3897 30.15H77.4797C77.4597 29.8633 77.343 29.6333 77.1297 29.46C76.923 29.2867 76.643 29.2 76.2897 29.2C75.963 29.2 75.703 29.27 75.5097 29.41C75.3164 29.55 75.2197 29.7333 75.2197 29.96C75.2197 30.14 75.2764 30.29 75.3897 30.41C75.5097 30.5233 75.6564 30.6167 75.8297 30.69C76.0097 30.7567 76.2564 30.8333 76.5697 30.92C76.963 31.0267 77.283 31.1333 77.5297 31.24C77.7764 31.34 77.9864 31.4933 78.1597 31.7C78.3397 31.9067 78.433 32.1767 78.4397 32.51C78.4397 32.81 78.3564 33.08 78.1897 33.32C78.023 33.56 77.7864 33.75 77.4797 33.89C77.1797 34.0233 76.833 34.09 76.4397 34.09ZM79.6843 31.24C79.6843 30.68 79.7976 30.19 80.0243 29.77C80.251 29.3433 80.561 29.0133 80.9543 28.78C81.3543 28.5467 81.7976 28.43 82.2843 28.43C82.7643 28.43 83.181 28.5333 83.5343 28.74C83.8876 28.9467 84.151 29.2067 84.3243 29.52V28.52H85.2443V34H84.3243V32.98C84.1443 33.3 83.8743 33.5667 83.5143 33.78C83.161 33.9867 82.7476 34.09 82.2743 34.09C81.7876 34.09 81.3476 33.97 80.9543 33.73C80.561 33.49 80.251 33.1533 80.0243 32.72C79.7976 32.2867 79.6843 31.7933 79.6843 31.24ZM84.3243 31.25C84.3243 30.8367 84.241 30.4767 84.0743 30.17C83.9076 29.8633 83.681 29.63 83.3943 29.47C83.1143 29.3033 82.8043 29.22 82.4643 29.22C82.1243 29.22 81.8143 29.3 81.5343 29.46C81.2543 29.62 81.031 29.8533 80.8643 30.16C80.6976 30.4667 80.6143 30.8267 80.6143 31.24C80.6143 31.66 80.6976 32.0267 80.8643 32.34C81.031 32.6467 81.2543 32.8833 81.5343 33.05C81.8143 33.21 82.1243 33.29 82.4643 33.29C82.8043 33.29 83.1143 33.21 83.3943 33.05C83.681 32.8833 83.9076 32.6467 84.0743 32.34C84.241 32.0267 84.3243 31.6633 84.3243 31.25ZM92.2581 34.07C91.7981 34.07 91.3848 33.99 91.0181 33.83C90.6581 33.6633 90.3748 33.4367 90.1681 33.15C89.9615 32.8567 89.8548 32.52 89.8481 32.14H90.8181C90.8515 32.4667 90.9848 32.7433 91.2181 32.97C91.4581 33.19 91.8048 33.3 92.2581 33.3C92.6915 33.3 93.0315 33.1933 93.2781 32.98C93.5315 32.76 93.6581 32.48 93.6581 32.14C93.6581 31.8733 93.5848 31.6567 93.4381 31.49C93.2915 31.3233 93.1081 31.1967 92.8881 31.11C92.6681 31.0233 92.3715 30.93 91.9981 30.83C91.5381 30.71 91.1681 30.59 90.8881 30.47C90.6148 30.35 90.3781 30.1633 90.1781 29.91C89.9848 29.65 89.8881 29.3033 89.8881 28.87C89.8881 28.49 89.9848 28.1533 90.1781 27.86C90.3715 27.5667 90.6415 27.34 90.9881 27.18C91.3415 27.02 91.7448 26.94 92.1981 26.94C92.8515 26.94 93.3848 27.1033 93.7981 27.43C94.2181 27.7567 94.4548 28.19 94.5081 28.73H93.5081C93.4748 28.4633 93.3348 28.23 93.0881 28.03C92.8415 27.8233 92.5148 27.72 92.1081 27.72C91.7281 27.72 91.4181 27.82 91.1781 28.02C90.9381 28.2133 90.8181 28.4867 90.8181 28.84C90.8181 29.0933 90.8881 29.3 91.0281 29.46C91.1748 29.62 91.3515 29.7433 91.5581 29.83C91.7715 29.91 92.0681 30.0033 92.4481 30.11C92.9081 30.2367 93.2781 30.3633 93.5581 30.49C93.8381 30.61 94.0781 30.8 94.2781 31.06C94.4781 31.3133 94.5781 31.66 94.5781 32.1C94.5781 32.44 94.4881 32.76 94.3081 33.06C94.1281 33.36 93.8615 33.6033 93.5081 33.79C93.1548 33.9767 92.7381 34.07 92.2581 34.07ZM95.8773 31.24C95.8773 30.68 95.9906 30.19 96.2173 29.77C96.4439 29.3433 96.7539 29.0133 97.1473 28.78C97.5473 28.5467 97.9906 28.43 98.4773 28.43C98.9573 28.43 99.3739 28.5333 99.7273 28.74C100.081 28.9467 100.344 29.2067 100.517 29.52V28.52H101.437V34H100.517V32.98C100.337 33.3 100.067 33.5667 99.7073 33.78C99.3539 33.9867 98.9406 34.09 98.4673 34.09C97.9806 34.09 97.5406 33.97 97.1473 33.73C96.7539 33.49 96.4439 33.1533 96.2173 32.72C95.9906 32.2867 95.8773 31.7933 95.8773 31.24ZM100.517 31.25C100.517 30.8367 100.434 30.4767 100.267 30.17C100.101 29.8633 99.8739 29.63 99.5873 29.47C99.3073 29.3033 98.9973 29.22 98.6573 29.22C98.3173 29.22 98.0073 29.3 97.7273 29.46C97.4473 29.62 97.2239 29.8533 97.0573 30.16C96.8906 30.4667 96.8073 30.8267 96.8073 31.24C96.8073 31.66 96.8906 32.0267 97.0573 32.34C97.2239 32.6467 97.4473 32.8833 97.7273 33.05C98.0073 33.21 98.3173 33.29 98.6573 33.29C98.9973 33.29 99.3073 33.21 99.5873 33.05C99.8739 32.8833 100.101 32.6467 100.267 32.34C100.434 32.0267 100.517 31.6633 100.517 31.25ZM105.945 28.42C106.612 28.42 107.152 28.6233 107.565 29.03C107.978 29.43 108.185 30.01 108.185 30.77V34H107.285V30.9C107.285 30.3533 107.148 29.9367 106.875 29.65C106.602 29.3567 106.228 29.21 105.755 29.21C105.275 29.21 104.892 29.36 104.605 29.66C104.325 29.96 104.185 30.3967 104.185 30.97V34H103.275V28.52H104.185V29.3C104.365 29.02 104.608 28.8033 104.915 28.65C105.228 28.4967 105.572 28.42 105.945 28.42ZM111.082 29.27V32.5C111.082 32.7667 111.138 32.9567 111.252 33.07C111.365 33.1767 111.562 33.23 111.842 33.23H112.512V34H111.692C111.185 34 110.805 33.8833 110.552 33.65C110.298 33.4167 110.172 33.0333 110.172 32.5V29.27H109.462V28.52H110.172V27.14H111.082V28.52H112.512V29.27H111.082ZM113.574 31.24C113.574 30.68 113.687 30.19 113.914 29.77C114.141 29.3433 114.451 29.0133 114.844 28.78C115.244 28.5467 115.687 28.43 116.174 28.43C116.654 28.43 117.071 28.5333 117.424 28.74C117.777 28.9467 118.041 29.2067 118.214 29.52V28.52H119.134V34H118.214V32.98C118.034 33.3 117.764 33.5667 117.404 33.78C117.051 33.9867 116.637 34.09 116.164 34.09C115.677 34.09 115.237 33.97 114.844 33.73C114.451 33.49 114.141 33.1533 113.914 32.72C113.687 32.2867 113.574 31.7933 113.574 31.24ZM118.214 31.25C118.214 30.8367 118.131 30.4767 117.964 30.17C117.797 29.8633 117.571 29.63 117.284 29.47C117.004 29.3033 116.694 29.22 116.354 29.22C116.014 29.22 115.704 29.3 115.424 29.46C115.144 29.62 114.921 29.8533 114.754 30.16C114.587 30.4667 114.504 30.8267 114.504 31.24C114.504 31.66 114.587 32.0267 114.754 32.34C114.921 32.6467 115.144 32.8833 115.424 33.05C115.704 33.21 116.014 33.29 116.354 33.29C116.694 33.29 117.004 33.21 117.284 33.05C117.571 32.8833 117.797 32.6467 117.964 32.34C118.131 32.0267 118.214 31.6633 118.214 31.25ZM123.598 30.51C123.598 29.83 123.751 29.22 124.058 28.68C124.365 28.1333 124.781 27.7067 125.308 27.4C125.841 27.0933 126.431 26.94 127.078 26.94C127.838 26.94 128.501 27.1233 129.068 27.49C129.635 27.8567 130.048 28.3767 130.308 29.05H129.218C129.025 28.63 128.745 28.3067 128.378 28.08C128.018 27.8533 127.585 27.74 127.078 27.74C126.591 27.74 126.155 27.8533 125.768 28.08C125.381 28.3067 125.078 28.63 124.858 29.05C124.638 29.4633 124.528 29.95 124.528 30.51C124.528 31.0633 124.638 31.55 124.858 31.97C125.078 32.3833 125.381 32.7033 125.768 32.93C126.155 33.1567 126.591 33.27 127.078 33.27C127.585 33.27 128.018 33.16 128.378 32.94C128.745 32.7133 129.025 32.39 129.218 31.97H130.308C130.048 32.6367 129.635 33.1533 129.068 33.52C128.501 33.88 127.838 34.06 127.078 34.06C126.431 34.06 125.841 33.91 125.308 33.61C124.781 33.3033 124.365 32.88 124.058 32.34C123.751 31.8 123.598 31.19 123.598 30.51ZM131.623 31.24C131.623 30.68 131.736 30.19 131.963 29.77C132.189 29.3433 132.499 29.0133 132.893 28.78C133.293 28.5467 133.736 28.43 134.223 28.43C134.703 28.43 135.119 28.5333 135.473 28.74C135.826 28.9467 136.089 29.2067 136.263 29.52V28.52H137.183V34H136.263V32.98C136.083 33.3 135.813 33.5667 135.453 33.78C135.099 33.9867 134.686 34.09 134.213 34.09C133.726 34.09 133.286 33.97 132.893 33.73C132.499 33.49 132.189 33.1533 131.963 32.72C131.736 32.2867 131.623 31.7933 131.623 31.24ZM136.263 31.25C136.263 30.8367 136.179 30.4767 136.013 30.17C135.846 29.8633 135.619 29.63 135.333 29.47C135.053 29.3033 134.743 29.22 134.403 29.22C134.063 29.22 133.753 29.3 133.473 29.46C133.193 29.62 132.969 29.8533 132.803 30.16C132.636 30.4667 132.553 30.8267 132.553 31.24C132.553 31.66 132.636 32.0267 132.803 32.34C132.969 32.6467 133.193 32.8833 133.473 33.05C133.753 33.21 134.063 33.29 134.403 33.29C134.743 33.29 135.053 33.21 135.333 33.05C135.619 32.8833 135.846 32.6467 136.013 32.34C136.179 32.0267 136.263 31.6633 136.263 31.25ZM134.583 27.18L133.193 28.03V27.31L134.583 26.48L135.963 27.31V28.03L134.583 27.18ZM141.69 28.42C142.357 28.42 142.897 28.6233 143.31 29.03C143.724 29.43 143.93 30.01 143.93 30.77V34H143.03V30.9C143.03 30.3533 142.894 29.9367 142.62 29.65C142.347 29.3567 141.974 29.21 141.5 29.21C141.02 29.21 140.637 29.36 140.35 29.66C140.07 29.96 139.93 30.3967 139.93 30.97V34H139.02V28.52H139.93V29.3C140.11 29.02 140.354 28.8033 140.66 28.65C140.974 28.4967 141.317 28.42 141.69 28.42ZM145.377 31.24C145.377 30.68 145.49 30.19 145.717 29.77C145.944 29.3433 146.254 29.0133 146.647 28.78C147.047 28.5467 147.494 28.43 147.987 28.43C148.414 28.43 148.81 28.53 149.177 28.73C149.544 28.9233 149.824 29.18 150.017 29.5V26.6H150.937V34H150.017V32.97C149.837 33.2967 149.57 33.5667 149.217 33.78C148.864 33.9867 148.45 34.09 147.977 34.09C147.49 34.09 147.047 33.97 146.647 33.73C146.254 33.49 145.944 33.1533 145.717 32.72C145.49 32.2867 145.377 31.7933 145.377 31.24ZM150.017 31.25C150.017 30.8367 149.934 30.4767 149.767 30.17C149.6 29.8633 149.374 29.63 149.087 29.47C148.807 29.3033 148.497 29.22 148.157 29.22C147.817 29.22 147.507 29.3 147.227 29.46C146.947 29.62 146.724 29.8533 146.557 30.16C146.39 30.4667 146.307 30.8267 146.307 31.24C146.307 31.66 146.39 32.0267 146.557 32.34C146.724 32.6467 146.947 32.8833 147.227 33.05C147.507 33.21 147.817 33.29 148.157 33.29C148.497 33.29 148.807 33.21 149.087 33.05C149.374 32.8833 149.6 32.6467 149.767 32.34C149.934 32.0267 150.017 31.6633 150.017 31.25ZM153.245 27.63C153.071 27.63 152.925 27.57 152.805 27.45C152.685 27.33 152.625 27.1833 152.625 27.01C152.625 26.8367 152.685 26.69 152.805 26.57C152.925 26.45 153.071 26.39 153.245 26.39C153.411 26.39 153.551 26.45 153.665 26.57C153.785 26.69 153.845 26.8367 153.845 27.01C153.845 27.1833 153.785 27.33 153.665 27.45C153.551 27.57 153.411 27.63 153.245 27.63ZM153.685 28.52V34H152.775V28.52H153.685ZM155.196 31.24C155.196 30.68 155.309 30.19 155.536 29.77C155.762 29.3433 156.072 29.0133 156.466 28.78C156.866 28.5467 157.312 28.43 157.806 28.43C158.232 28.43 158.629 28.53 158.996 28.73C159.362 28.9233 159.642 29.18 159.836 29.5V26.6H160.756V34H159.836V32.97C159.656 33.2967 159.389 33.5667 159.036 33.78C158.682 33.9867 158.269 34.09 157.796 34.09C157.309 34.09 156.866 33.97 156.466 33.73C156.072 33.49 155.762 33.1533 155.536 32.72C155.309 32.2867 155.196 31.7933 155.196 31.24ZM159.836 31.25C159.836 30.8367 159.752 30.4767 159.586 30.17C159.419 29.8633 159.192 29.63 158.906 29.47C158.626 29.3033 158.316 29.22 157.976 29.22C157.636 29.22 157.326 29.3 157.046 29.46C156.766 29.62 156.542 29.8533 156.376 30.16C156.209 30.4667 156.126 30.8267 156.126 31.24C156.126 31.66 156.209 32.0267 156.376 32.34C156.542 32.6467 156.766 32.8833 157.046 33.05C157.326 33.21 157.636 33.29 157.976 33.29C158.316 33.29 158.626 33.21 158.906 33.05C159.192 32.8833 159.419 32.6467 159.586 32.34C159.752 32.0267 159.836 31.6633 159.836 31.25ZM162.253 31.24C162.253 30.68 162.367 30.19 162.593 29.77C162.82 29.3433 163.13 29.0133 163.523 28.78C163.923 28.5467 164.367 28.43 164.853 28.43C165.333 28.43 165.75 28.5333 166.103 28.74C166.457 28.9467 166.72 29.2067 166.893 29.52V28.52H167.813V34H166.893V32.98C166.713 33.3 166.443 33.5667 166.083 33.78C165.73 33.9867 165.317 34.09 164.843 34.09C164.357 34.09 163.917 33.97 163.523 33.73C163.13 33.49 162.82 33.1533 162.593 32.72C162.367 32.2867 162.253 31.7933 162.253 31.24ZM166.893 31.25C166.893 30.8367 166.81 30.4767 166.643 30.17C166.477 29.8633 166.25 29.63 165.963 29.47C165.683 29.3033 165.373 29.22 165.033 29.22C164.693 29.22 164.383 29.3 164.103 29.46C163.823 29.62 163.6 29.8533 163.433 30.16C163.267 30.4667 163.183 30.8267 163.183 31.24C163.183 31.66 163.267 32.0267 163.433 32.34C163.6 32.6467 163.823 32.8833 164.103 33.05C164.383 33.21 164.693 33.29 165.033 33.29C165.373 33.29 165.683 33.21 165.963 33.05C166.25 32.8833 166.477 32.6467 166.643 32.34C166.81 32.0267 166.893 31.6633 166.893 31.25Z" fill="#98A4AE"/>
<path d="M73.9434 45.5L108.058 45.5L91.001 68.3301L73.9434 45.5Z" fill="white" stroke="#015486" stroke-width="2"/>
<path d="M91 65L71.0814 41L110.919 41L91 65Z" fill="white"/>
<path d="M31.155 11.978C30.2796 11.4725 29.3132 11.1443 28.311 11.0123C27.3088 10.8803 26.2904 10.947 25.314 11.2086C24.3376 11.4702 23.4223 11.9215 22.6203 12.5369C21.8183 13.1523 21.1454 13.9196 20.64 14.795L20.35 15.297C20.2507 15.4693 20.2239 15.6739 20.2755 15.8659C20.3271 16.0579 20.4528 16.2216 20.625 16.321L26.086 19.474L22.818 25.194L22.75 25.193C19.592 25.193 16.857 27.025 15.228 29.615C15.5062 29.5166 15.8027 29.481 16.0963 29.5108C16.3898 29.5405 16.6732 29.6348 16.926 29.787C18.338 27.921 20.444 26.693 22.75 26.693C25.154 26.693 27.341 28.028 28.75 30.029C28.9448 29.8497 29.1733 29.7109 29.4222 29.6206C29.6711 29.5303 29.9355 29.4903 30.2 29.503C28.869 27.445 26.833 25.883 24.444 25.372L27.385 20.224L32.658 23.269C32.7433 23.3183 32.8376 23.3503 32.9353 23.3631C33.033 23.376 33.1323 23.3695 33.2275 23.3439C33.3227 23.3184 33.4119 23.2743 33.4901 23.2143C33.5682 23.1543 33.6338 23.0794 33.683 22.994L33.973 22.493C34.4785 21.6176 34.8065 20.6511 34.9385 19.6489C35.0704 18.6466 35.0036 17.6282 34.742 16.6518C34.4803 15.6754 34.0288 14.7601 33.4134 13.9581C32.7979 13.1562 32.0305 12.4833 31.155 11.978ZM28.965 19.404L25.807 17.58C26.379 16.699 26.923 16.028 27.575 15.435C28.21 14.857 28.968 14.335 29.996 13.767C30.148 14.722 30.194 15.517 30.096 16.297C29.98 17.229 29.651 18.19 28.963 19.403M30.261 20.153C31.021 18.815 31.437 17.663 31.584 16.483C31.681 15.709 31.659 14.945 31.562 14.138C32.5536 15.0759 33.208 16.3148 33.4237 17.6625C33.6394 19.0102 33.4043 20.3915 32.755 21.592L30.261 20.153ZM26.565 14.325C25.775 15.044 25.14 15.844 24.505 16.829L22.025 15.397C22.7247 14.2594 23.773 13.3782 25.014 12.8845C26.2549 12.3908 27.6221 12.311 28.912 12.657C27.983 13.192 27.227 13.722 26.565 14.325ZM16.605 31.263C16.5536 31.1087 16.4535 30.9752 16.3197 30.8828C16.1859 30.7903 16.0257 30.7439 15.8632 30.7504C15.7007 30.757 15.5447 30.8162 15.4188 30.9191C15.2928 31.022 15.2038 31.163 15.165 31.321C14.91 32.363 14.427 32.935 13.877 33.267C13.301 33.615 12.567 33.749 11.748 33.749C11.5491 33.749 11.3583 33.828 11.2177 33.9687C11.077 34.1093 10.998 34.3001 10.998 34.499C10.998 34.6979 11.077 34.8887 11.2177 35.0293C11.3583 35.17 11.5491 35.249 11.748 35.249C12.705 35.249 13.748 35.097 14.652 34.551C15.1912 34.2252 15.6459 33.7767 15.979 33.242C17.768 35.524 21.261 35.512 22.998 33.218C24.763 35.548 28.338 35.524 30.101 33.132C30.5796 33.7834 31.2038 34.3141 31.9238 34.6816C32.6437 35.0492 33.4396 35.2435 34.248 35.249C34.4469 35.249 34.6377 35.17 34.7783 35.0293C34.919 34.8887 34.998 34.6979 34.998 34.499C34.998 34.3001 34.919 34.1093 34.7783 33.9687C34.6377 33.828 34.4469 33.749 34.248 33.749C32.773 33.749 31.303 32.789 30.818 31.271C30.77 31.1199 30.6754 30.9879 30.5477 30.894C30.42 30.8001 30.2659 30.749 30.1074 30.7481C29.9489 30.7472 29.7942 30.7965 29.6655 30.8891C29.5368 30.9816 29.4407 31.1125 29.391 31.263C28.428 34.172 24.653 34.135 23.707 31.384C23.6561 31.2364 23.5604 31.1085 23.4333 31.0179C23.3062 30.9273 23.1541 30.8786 22.998 30.8786C22.8419 30.8786 22.6897 30.9273 22.5626 31.0179C22.4355 31.1085 22.3399 31.2364 22.289 31.384C21.343 34.135 17.569 34.171 16.605 31.263Z" fill="#015486"/>
<defs>
<linearGradient id="paint0_linear_294_446" x1="179.069" y1="0.748829" x2="-69.2821" y2="206.234" gradientUnits="userSpaceOnUse">
<stop stop-color="white"/>
</linearGradient>
</defs>
</svg>
