<svg width="181" height="70" viewBox="0 0 181 70" fill="none" xmlns="http://www.w3.org/2000/svg">
<path d="M20 1H161C171.493 1 180 9.50659 180 20V26C180 36.4934 171.493 45 161 45H20C9.50659 45 1 36.4934 1 26V20C1 9.50659 9.50659 1 20 1Z" fill="url(#paint0_linear_294_334)" stroke="#015486" stroke-width="2"/>
<path d="M40.08 19V10.624C40.408 10.584 40.768 10.556 41.16 10.54C41.56 10.516 41.972 10.504 42.396 10.504C43.092 10.504 43.684 10.616 44.172 10.84C44.66 11.056 45.032 11.356 45.288 11.74C45.544 12.124 45.672 12.564 45.672 13.06C45.672 13.66 45.524 14.168 45.228 14.584C44.932 15 44.52 15.32 43.992 15.544C43.464 15.76 42.852 15.868 42.156 15.868C41.82 15.868 41.508 15.856 41.22 15.832V19H40.08ZM42.3 14.92C43.012 14.92 43.564 14.76 43.956 14.44C44.348 14.12 44.544 13.692 44.544 13.156C44.544 12.636 44.356 12.224 43.98 11.92C43.604 11.616 43.068 11.464 42.372 11.464C42.156 11.464 41.952 11.468 41.76 11.476C41.568 11.484 41.388 11.496 41.22 11.512V14.86C41.348 14.876 41.504 14.892 41.688 14.908C41.872 14.916 42.076 14.92 42.3 14.92ZM47.2327 19V12.76H48.2767V14.116C48.3807 13.852 48.5207 13.608 48.6967 13.384C48.8727 13.152 49.0927 12.968 49.3567 12.832C49.6207 12.688 49.9287 12.616 50.2807 12.616C50.4007 12.616 50.5207 12.624 50.6407 12.64C50.7607 12.648 50.8607 12.664 50.9407 12.688L50.6167 13.804C50.4647 13.74 50.2847 13.708 50.0767 13.708C49.7807 13.708 49.4967 13.792 49.2247 13.96C48.9607 14.128 48.7407 14.388 48.5647 14.74C48.3967 15.092 48.3127 15.54 48.3127 16.084V19H47.2327ZM54.3503 19.144C53.8303 19.144 53.3583 19.012 52.9343 18.748C52.5103 18.484 52.1703 18.112 51.9143 17.632C51.6663 17.144 51.5423 16.572 51.5423 15.916C51.5423 15.292 51.6663 14.732 51.9143 14.236C52.1703 13.74 52.5183 13.348 52.9583 13.06C53.4063 12.764 53.9183 12.616 54.4943 12.616C54.8543 12.616 55.1783 12.68 55.4663 12.808C55.7623 12.928 56.0183 13.08 56.2343 13.264V12.76H57.2183V17.488C57.2183 17.792 57.2903 17.992 57.4343 18.088C57.5863 18.176 57.7503 18.22 57.9263 18.22L57.6983 19.06C56.9303 19.06 56.4663 18.748 56.3063 18.124C56.1223 18.38 55.8703 18.616 55.5503 18.832C55.2383 19.04 54.8383 19.144 54.3503 19.144ZM54.5903 18.184C54.8943 18.184 55.1823 18.112 55.4543 17.968C55.7263 17.816 55.9543 17.628 56.1383 17.404V14.056C55.9223 13.904 55.6823 13.784 55.4183 13.696C55.1623 13.6 54.8903 13.552 54.6023 13.552C54.2183 13.552 53.8783 13.652 53.5823 13.852C53.2943 14.044 53.0663 14.316 52.8983 14.668C52.7303 15.012 52.6463 15.416 52.6463 15.88C52.6463 16.328 52.7303 16.728 52.8983 17.08C53.0663 17.424 53.2983 17.696 53.5943 17.896C53.8903 18.088 54.2223 18.184 54.5903 18.184ZM59.6686 19V12.76H60.7486V19H59.6686ZM60.2086 11.692C60.0006 11.692 59.8206 11.616 59.6686 11.464C59.5246 11.312 59.4526 11.136 59.4526 10.936C59.4526 10.704 59.5206 10.52 59.6566 10.384C59.7926 10.248 59.9766 10.18 60.2086 10.18C60.4166 10.18 60.5926 10.256 60.7366 10.408C60.8886 10.552 60.9646 10.728 60.9646 10.936C60.9646 11.16 60.8966 11.344 60.7606 11.488C60.6246 11.624 60.4406 11.692 60.2086 11.692ZM65.3566 19.144C64.8366 19.144 64.3646 19.012 63.9406 18.748C63.5166 18.484 63.1766 18.112 62.9206 17.632C62.6726 17.144 62.5486 16.572 62.5486 15.916C62.5486 15.292 62.6726 14.732 62.9206 14.236C63.1766 13.74 63.5246 13.348 63.9646 13.06C64.4126 12.764 64.9246 12.616 65.5006 12.616C65.8606 12.616 66.1846 12.68 66.4726 12.808C66.7686 12.928 67.0246 13.08 67.2406 13.264V12.76H68.2246V17.488C68.2246 17.792 68.2966 17.992 68.4406 18.088C68.5926 18.176 68.7566 18.22 68.9326 18.22L68.7046 19.06C67.9366 19.06 67.4726 18.748 67.3126 18.124C67.1286 18.38 66.8766 18.616 66.5566 18.832C66.2446 19.04 65.8446 19.144 65.3566 19.144ZM65.5966 18.184C65.9006 18.184 66.1886 18.112 66.4606 17.968C66.7326 17.816 66.9606 17.628 67.1446 17.404V14.056C66.9286 13.904 66.6886 13.784 66.4246 13.696C66.1686 13.6 65.8966 13.552 65.6086 13.552C65.2246 13.552 64.8846 13.652 64.5886 13.852C64.3006 14.044 64.0726 14.316 63.9046 14.668C63.7366 15.012 63.6526 15.416 63.6526 15.88C63.6526 16.328 63.7366 16.728 63.9046 17.08C64.0726 17.424 64.3046 17.696 64.6006 17.896C64.8966 18.088 65.2286 18.184 65.5966 18.184ZM76.9365 19.144C76.4245 19.144 75.9565 19.012 75.5325 18.748C75.1085 18.484 74.7725 18.112 74.5245 17.632C74.2765 17.144 74.1525 16.572 74.1525 15.916C74.1525 15.284 74.2765 14.72 74.5245 14.224C74.7805 13.728 75.1165 13.336 75.5325 13.048C75.9565 12.76 76.4205 12.616 76.9245 12.616C77.3405 12.616 77.6965 12.7 77.9925 12.868C78.2965 13.036 78.5325 13.208 78.7005 13.384V10.12H79.7805V17.488C79.7805 17.792 79.8525 17.992 79.9965 18.088C80.1485 18.176 80.3125 18.22 80.4885 18.22L80.2605 19.06C79.5005 19.06 79.0365 18.756 78.8685 18.148C78.6925 18.396 78.4445 18.624 78.1245 18.832C77.8125 19.04 77.4165 19.144 76.9365 19.144ZM77.1765 18.184C77.4725 18.184 77.7525 18.116 78.0165 17.98C78.2885 17.836 78.5165 17.652 78.7005 17.428V14.332C78.5485 14.14 78.3365 13.964 78.0645 13.804C77.7925 13.636 77.4925 13.552 77.1645 13.552C76.7805 13.552 76.4445 13.656 76.1565 13.864C75.8685 14.072 75.6445 14.352 75.4845 14.704C75.3325 15.048 75.2565 15.44 75.2565 15.88C75.2565 16.32 75.3405 16.716 75.5085 17.068C75.6765 17.412 75.9045 17.684 76.1925 17.884C76.4885 18.084 76.8165 18.184 77.1765 18.184ZM84.6107 19.144C83.7147 19.144 83.0027 18.86 82.4747 18.292C81.9547 17.716 81.6947 16.912 81.6947 15.88C81.6947 15.256 81.8107 14.7 82.0427 14.212C82.2827 13.716 82.6147 13.328 83.0387 13.048C83.4627 12.76 83.9547 12.616 84.5147 12.616C85.1147 12.616 85.6107 12.748 86.0027 13.012C86.4027 13.268 86.7027 13.616 86.9027 14.056C87.1027 14.496 87.2027 14.98 87.2027 15.508C87.2027 15.788 87.1907 16.06 87.1667 16.324H82.7987C82.8707 16.908 83.0747 17.364 83.4107 17.692C83.7467 18.02 84.1907 18.184 84.7427 18.184C85.1027 18.184 85.4267 18.148 85.7147 18.076C86.0027 17.996 86.2787 17.896 86.5427 17.776L86.7947 18.7C86.5067 18.828 86.1827 18.932 85.8227 19.012C85.4627 19.1 85.0587 19.144 84.6107 19.144ZM82.7867 15.448H86.2067C86.2067 14.84 86.0547 14.372 85.7507 14.044C85.4467 13.716 85.0267 13.552 84.4907 13.552C84.0267 13.552 83.6427 13.716 83.3387 14.044C83.0347 14.364 82.8507 14.832 82.7867 15.448ZM95.0477 19.144C94.4637 19.144 93.9317 19.068 93.4517 18.916C92.9717 18.756 92.5677 18.548 92.2397 18.292L92.8157 17.332C93.1037 17.572 93.4277 17.768 93.7877 17.92C94.1477 18.072 94.5677 18.148 95.0477 18.148C95.6237 18.148 96.0797 18.028 96.4157 17.788C96.7517 17.548 96.9197 17.224 96.9197 16.816C96.9197 16.584 96.8717 16.38 96.7757 16.204C96.6797 16.02 96.4917 15.844 96.2117 15.676C95.9397 15.5 95.5357 15.312 94.9997 15.112C94.4237 14.888 93.9637 14.664 93.6197 14.44C93.2757 14.208 93.0277 13.948 92.8757 13.66C92.7317 13.364 92.6597 13.016 92.6597 12.616C92.6597 12.216 92.7677 11.856 92.9837 11.536C93.2077 11.208 93.5317 10.948 93.9557 10.756C94.3877 10.556 94.9077 10.456 95.5157 10.456C96.0117 10.456 96.4557 10.508 96.8477 10.612C97.2477 10.708 97.6357 10.848 98.0117 11.032L97.5917 12.004C97.3197 11.844 96.9997 11.712 96.6317 11.608C96.2717 11.496 95.8917 11.44 95.4917 11.44C94.9637 11.44 94.5477 11.544 94.2437 11.752C93.9397 11.96 93.7877 12.228 93.7877 12.556C93.7877 12.764 93.8317 12.948 93.9197 13.108C94.0077 13.268 94.1797 13.424 94.4357 13.576C94.6997 13.728 95.0917 13.9 95.6117 14.092C96.2357 14.324 96.7277 14.568 97.0877 14.824C97.4557 15.08 97.7157 15.36 97.8677 15.664C98.0197 15.96 98.0957 16.3 98.0957 16.684C98.0957 17.204 97.9637 17.648 97.6997 18.016C97.4437 18.384 97.0837 18.664 96.6197 18.856C96.1637 19.048 95.6397 19.144 95.0477 19.144ZM102.348 19.144C101.828 19.144 101.356 19.012 100.932 18.748C100.508 18.484 100.168 18.112 99.912 17.632C99.664 17.144 99.54 16.572 99.54 15.916C99.54 15.292 99.664 14.732 99.912 14.236C100.168 13.74 100.516 13.348 100.956 13.06C101.404 12.764 101.916 12.616 102.492 12.616C102.852 12.616 103.176 12.68 103.464 12.808C103.76 12.928 104.016 13.08 104.232 13.264V12.76H105.216V17.488C105.216 17.792 105.288 17.992 105.432 18.088C105.584 18.176 105.748 18.22 105.924 18.22L105.696 19.06C104.928 19.06 104.464 18.748 104.304 18.124C104.12 18.38 103.868 18.616 103.548 18.832C103.236 19.04 102.836 19.144 102.348 19.144ZM102.588 18.184C102.892 18.184 103.18 18.112 103.452 17.968C103.724 17.816 103.952 17.628 104.136 17.404V14.056C103.92 13.904 103.68 13.784 103.416 13.696C103.16 13.6 102.888 13.552 102.6 13.552C102.216 13.552 101.876 13.652 101.58 13.852C101.292 14.044 101.064 14.316 100.896 14.668C100.728 15.012 100.644 15.416 100.644 15.88C100.644 16.328 100.728 16.728 100.896 17.08C101.064 17.424 101.296 17.696 101.592 17.896C101.888 18.088 102.22 18.184 102.588 18.184ZM101.184 11.704L100.764 10.96C100.908 10.8 101.092 10.656 101.316 10.528C101.54 10.4 101.772 10.336 102.012 10.336C102.212 10.336 102.384 10.372 102.528 10.444C102.672 10.508 102.808 10.576 102.936 10.648C103.072 10.712 103.224 10.744 103.392 10.744C103.568 10.744 103.724 10.708 103.86 10.636C103.996 10.556 104.116 10.468 104.22 10.372L104.64 11.128C104.496 11.264 104.328 11.392 104.136 11.512C103.952 11.624 103.736 11.68 103.488 11.68C103.28 11.68 103.104 11.648 102.96 11.584C102.816 11.512 102.676 11.444 102.54 11.38C102.404 11.308 102.244 11.272 102.06 11.272C101.884 11.272 101.724 11.316 101.58 11.404C101.436 11.492 101.304 11.592 101.184 11.704ZM110.177 19.144C109.585 19.144 109.053 19.008 108.581 18.736C108.109 18.456 107.737 18.072 107.465 17.584C107.201 17.088 107.069 16.52 107.069 15.88C107.069 15.208 107.205 14.628 107.477 14.14C107.749 13.652 108.121 13.276 108.593 13.012C109.065 12.748 109.593 12.616 110.177 12.616C110.761 12.616 111.285 12.748 111.749 13.012C112.221 13.276 112.593 13.652 112.865 14.14C113.145 14.62 113.285 15.192 113.285 15.856C113.285 16.52 113.149 17.1 112.877 17.596C112.605 18.084 112.233 18.464 111.761 18.736C111.297 19.008 110.769 19.144 110.177 19.144ZM110.177 18.184C110.809 18.184 111.301 17.972 111.653 17.548C112.005 17.116 112.181 16.56 112.181 15.88C112.181 15.464 112.093 15.084 111.917 14.74C111.741 14.388 111.501 14.108 111.197 13.9C110.901 13.684 110.561 13.576 110.177 13.576C109.545 13.576 109.053 13.784 108.701 14.2C108.349 14.616 108.173 15.168 108.173 15.856C108.173 16.272 108.261 16.66 108.437 17.02C108.613 17.372 108.849 17.656 109.145 17.872C109.449 18.08 109.793 18.184 110.177 18.184ZM122.267 19.144C121.539 19.144 120.895 18.972 120.335 18.628C119.775 18.276 119.339 17.78 119.027 17.14C118.715 16.492 118.559 15.724 118.559 14.836C118.559 13.98 118.715 13.224 119.027 12.568C119.347 11.904 119.795 11.388 120.371 11.02C120.955 10.644 121.635 10.456 122.411 10.456C122.811 10.456 123.175 10.496 123.503 10.576C123.831 10.648 124.139 10.752 124.427 10.888L124.079 11.848C123.831 11.728 123.575 11.632 123.311 11.56C123.055 11.488 122.751 11.452 122.399 11.452C121.887 11.452 121.427 11.584 121.019 11.848C120.619 12.112 120.303 12.492 120.071 12.988C119.839 13.484 119.723 14.084 119.723 14.788C119.723 15.46 119.835 16.048 120.059 16.552C120.291 17.056 120.607 17.448 121.007 17.728C121.415 18.008 121.879 18.148 122.399 18.148C122.791 18.148 123.131 18.1 123.419 18.004C123.707 17.908 123.987 17.784 124.259 17.632L124.607 18.58C124.311 18.74 123.971 18.876 123.587 18.988C123.211 19.092 122.771 19.144 122.267 19.144ZM126.344 19V10.12H127.424V13.756C127.648 13.428 127.932 13.156 128.276 12.94C128.62 12.724 129.024 12.616 129.488 12.616C130.192 12.616 130.716 12.828 131.06 13.252C131.412 13.676 131.588 14.236 131.588 14.932V19H130.508V15.052C130.508 14.604 130.404 14.244 130.196 13.972C129.988 13.7 129.696 13.564 129.32 13.564C128.952 13.564 128.6 13.696 128.264 13.96C127.936 14.216 127.656 14.52 127.424 14.872V19H126.344ZM136.133 19.144C135.613 19.144 135.141 19.012 134.717 18.748C134.293 18.484 133.953 18.112 133.697 17.632C133.449 17.144 133.325 16.572 133.325 15.916C133.325 15.292 133.449 14.732 133.697 14.236C133.953 13.74 134.301 13.348 134.741 13.06C135.189 12.764 135.701 12.616 136.277 12.616C136.637 12.616 136.961 12.68 137.249 12.808C137.545 12.928 137.801 13.08 138.017 13.264V12.76H139.001V17.488C139.001 17.792 139.073 17.992 139.217 18.088C139.369 18.176 139.533 18.22 139.709 18.22L139.481 19.06C138.713 19.06 138.249 18.748 138.089 18.124C137.905 18.38 137.653 18.616 137.333 18.832C137.021 19.04 136.621 19.144 136.133 19.144ZM136.373 18.184C136.677 18.184 136.965 18.112 137.237 17.968C137.509 17.816 137.737 17.628 137.921 17.404V14.056C137.705 13.904 137.465 13.784 137.201 13.696C136.945 13.6 136.673 13.552 136.385 13.552C136.001 13.552 135.661 13.652 135.365 13.852C135.077 14.044 134.849 14.316 134.681 14.668C134.513 15.012 134.429 15.416 134.429 15.88C134.429 16.328 134.513 16.728 134.681 17.08C134.849 17.424 135.081 17.696 135.377 17.896C135.673 18.088 136.005 18.184 136.373 18.184ZM141.451 19V12.76H142.495V14.116C142.599 13.852 142.739 13.608 142.915 13.384C143.091 13.152 143.311 12.968 143.575 12.832C143.839 12.688 144.147 12.616 144.499 12.616C144.619 12.616 144.739 12.624 144.859 12.64C144.979 12.648 145.079 12.664 145.159 12.688L144.835 13.804C144.683 13.74 144.503 13.708 144.295 13.708C143.999 13.708 143.715 13.792 143.443 13.96C143.179 14.128 142.959 14.388 142.783 14.74C142.615 15.092 142.531 15.54 142.531 16.084V19H141.451ZM146.544 19V12.76H147.624V19H146.544ZM147.084 11.692C146.876 11.692 146.696 11.616 146.544 11.464C146.4 11.312 146.328 11.136 146.328 10.936C146.328 10.704 146.396 10.52 146.532 10.384C146.668 10.248 146.852 10.18 147.084 10.18C147.292 10.18 147.468 10.256 147.612 10.408C147.764 10.552 147.84 10.728 147.84 10.936C147.84 11.16 147.772 11.344 147.636 11.488C147.5 11.624 147.316 11.692 147.084 11.692ZM152.028 19.144C151.428 19.144 150.952 18.948 150.6 18.556C150.256 18.156 150.084 17.588 150.084 16.852V13.924H149.004V12.988H150.108L150.336 11.02H151.164V12.988H152.892V13.924H151.164V16.936C151.164 17.4 151.26 17.724 151.452 17.908C151.652 18.092 151.888 18.184 152.16 18.184C152.36 18.184 152.548 18.152 152.724 18.088C152.908 18.024 153.076 17.948 153.228 17.86L153.528 18.724C153.368 18.82 153.152 18.912 152.88 19C152.608 19.096 152.324 19.144 152.028 19.144ZM157.068 19.144C156.548 19.144 156.076 19.012 155.652 18.748C155.228 18.484 154.888 18.112 154.632 17.632C154.384 17.144 154.26 16.572 154.26 15.916C154.26 15.292 154.384 14.732 154.632 14.236C154.888 13.74 155.236 13.348 155.676 13.06C156.124 12.764 156.636 12.616 157.212 12.616C157.572 12.616 157.896 12.68 158.184 12.808C158.48 12.928 158.736 13.08 158.952 13.264V12.76H159.936V17.488C159.936 17.792 160.008 17.992 160.152 18.088C160.304 18.176 160.468 18.22 160.644 18.22L160.416 19.06C159.648 19.06 159.184 18.748 159.024 18.124C158.84 18.38 158.588 18.616 158.268 18.832C157.956 19.04 157.556 19.144 157.068 19.144ZM157.308 18.184C157.612 18.184 157.9 18.112 158.172 17.968C158.444 17.816 158.672 17.628 158.856 17.404V14.056C158.64 13.904 158.4 13.784 158.136 13.696C157.88 13.6 157.608 13.552 157.32 13.552C156.936 13.552 156.596 13.652 156.3 13.852C156.012 14.044 155.784 14.316 155.616 14.668C155.448 15.012 155.364 15.416 155.364 15.88C155.364 16.328 155.448 16.728 155.616 17.08C155.784 17.424 156.016 17.696 156.312 17.896C156.608 18.088 156.94 18.184 157.308 18.184ZM164.066 19.144C163.594 19.144 163.166 19.084 162.782 18.964C162.406 18.844 162.094 18.688 161.846 18.496L162.302 17.596C162.51 17.772 162.77 17.92 163.082 18.04C163.402 18.152 163.742 18.208 164.102 18.208C164.55 18.208 164.886 18.136 165.11 17.992C165.342 17.84 165.458 17.648 165.458 17.416C165.458 17.248 165.414 17.1 165.326 16.972C165.246 16.844 165.094 16.72 164.87 16.6C164.646 16.472 164.322 16.336 163.898 16.192C163.314 15.992 162.874 15.756 162.578 15.484C162.29 15.204 162.146 14.82 162.146 14.332C162.146 13.852 162.354 13.448 162.77 13.12C163.194 12.784 163.778 12.616 164.522 12.616C164.922 12.616 165.278 12.66 165.59 12.748C165.902 12.828 166.182 12.932 166.43 13.06L166.13 13.948C165.914 13.82 165.666 13.716 165.386 13.636C165.114 13.556 164.81 13.516 164.474 13.516C164.058 13.516 163.742 13.6 163.526 13.768C163.31 13.936 163.202 14.12 163.202 14.32C163.202 14.512 163.286 14.676 163.454 14.812C163.622 14.948 163.95 15.096 164.438 15.256C165.23 15.52 165.782 15.812 166.094 16.132C166.406 16.452 166.562 16.852 166.562 17.332C166.562 17.892 166.334 18.336 165.878 18.664C165.43 18.984 164.826 19.144 164.066 19.144Z" fill="#015486"/>
<path d="M43.89 32.45H40.85L40.29 34H39.33L41.85 27.07H42.9L45.41 34H44.45L43.89 32.45ZM43.63 31.71L42.37 28.19L41.11 31.71H43.63ZM43.35 25.98V26.66L41.22 25.52V24.73L43.35 25.98ZM49.4343 31.24C49.4343 30.68 49.5476 30.19 49.7743 29.77C50.001 29.3433 50.311 29.0133 50.7043 28.78C51.1043 28.5467 51.551 28.43 52.0443 28.43C52.471 28.43 52.8676 28.53 53.2343 28.73C53.601 28.9233 53.881 29.18 54.0743 29.5V26.6H54.9943V34H54.0743V32.97C53.8943 33.2967 53.6276 33.5667 53.2743 33.78C52.921 33.9867 52.5076 34.09 52.0343 34.09C51.5476 34.09 51.1043 33.97 50.7043 33.73C50.311 33.49 50.001 33.1533 49.7743 32.72C49.5476 32.2867 49.4343 31.7933 49.4343 31.24ZM54.0743 31.25C54.0743 30.8367 53.991 30.4767 53.8243 30.17C53.6576 29.8633 53.431 29.63 53.1443 29.47C52.8643 29.3033 52.5543 29.22 52.2143 29.22C51.8743 29.22 51.5643 29.3 51.2843 29.46C51.0043 29.62 50.781 29.8533 50.6143 30.16C50.4476 30.4667 50.3643 30.8267 50.3643 31.24C50.3643 31.66 50.4476 32.0267 50.6143 32.34C50.781 32.6467 51.0043 32.8833 51.2843 33.05C51.5643 33.21 51.8743 33.29 52.2143 33.29C52.5543 33.29 52.8643 33.21 53.1443 33.05C53.431 32.8833 53.6576 32.6467 53.8243 32.34C53.991 32.0267 54.0743 31.6633 54.0743 31.25ZM57.3021 27.63C57.1288 27.63 56.9821 27.57 56.8621 27.45C56.7421 27.33 56.6821 27.1833 56.6821 27.01C56.6821 26.8367 56.7421 26.69 56.8621 26.57C56.9821 26.45 57.1288 26.39 57.3021 26.39C57.4688 26.39 57.6088 26.45 57.7221 26.57C57.8421 26.69 57.9021 26.8367 57.9021 27.01C57.9021 27.1833 57.8421 27.33 57.7221 27.45C57.6088 27.57 57.4688 27.63 57.3021 27.63ZM57.7421 28.52V34H56.8321V28.52H57.7421ZM60.503 29.41C60.663 29.0967 60.8897 28.8533 61.183 28.68C61.483 28.5067 61.8464 28.42 62.273 28.42V29.36H62.033C61.013 29.36 60.503 29.9133 60.503 31.02V34H59.593V28.52H60.503V29.41ZM68.6235 31.05C68.6235 31.2233 68.6135 31.4067 68.5935 31.6H64.2135C64.2468 32.14 64.4302 32.5633 64.7635 32.87C65.1035 33.17 65.5135 33.32 65.9935 33.32C66.3868 33.32 66.7135 33.23 66.9735 33.05C67.2402 32.8633 67.4268 32.6167 67.5335 32.31H68.5135C68.3668 32.8367 68.0735 33.2667 67.6335 33.6C67.1935 33.9267 66.6468 34.09 65.9935 34.09C65.4735 34.09 65.0068 33.9733 64.5935 33.74C64.1868 33.5067 63.8668 33.1767 63.6335 32.75C63.4002 32.3167 63.2835 31.8167 63.2835 31.25C63.2835 30.6833 63.3968 30.1867 63.6235 29.76C63.8502 29.3333 64.1668 29.0067 64.5735 28.78C64.9868 28.5467 65.4602 28.43 65.9935 28.43C66.5135 28.43 66.9735 28.5433 67.3735 28.77C67.7735 28.9967 68.0802 29.31 68.2935 29.71C68.5135 30.1033 68.6235 30.55 68.6235 31.05ZM67.6835 30.86C67.6835 30.5133 67.6068 30.2167 67.4535 29.97C67.3002 29.7167 67.0902 29.5267 66.8235 29.4C66.5635 29.2667 66.2735 29.2 65.9535 29.2C65.4935 29.2 65.1002 29.3467 64.7735 29.64C64.4535 29.9333 64.2702 30.34 64.2235 30.86H67.6835ZM70.5947 27.63C70.4214 27.63 70.2747 27.57 70.1547 27.45C70.0347 27.33 69.9747 27.1833 69.9747 27.01C69.9747 26.8367 70.0347 26.69 70.1547 26.57C70.2747 26.45 70.4214 26.39 70.5947 26.39C70.7614 26.39 70.9014 26.45 71.0147 26.57C71.1347 26.69 71.1947 26.8367 71.1947 27.01C71.1947 27.1833 71.1347 27.33 71.0147 27.45C70.9014 27.57 70.7614 27.63 70.5947 27.63ZM71.0347 28.52V34H70.1247V28.52H71.0347ZM73.9956 29.27V32.5C73.9956 32.7667 74.0523 32.9567 74.1656 33.07C74.279 33.1767 74.4756 33.23 74.7556 33.23H75.4256V34H74.6056C74.099 34 73.719 33.8833 73.4656 33.65C73.2123 33.4167 73.0856 33.0333 73.0856 32.5V29.27H72.3756V28.52H73.0856V27.14H73.9956V28.52H75.4256V29.27H73.9956ZM76.4882 31.24C76.4882 30.68 76.6015 30.19 76.8282 29.77C77.0549 29.3433 77.3649 29.0133 77.7582 28.78C78.1582 28.5467 78.6015 28.43 79.0882 28.43C79.5682 28.43 79.9849 28.5333 80.3382 28.74C80.6915 28.9467 80.9549 29.2067 81.1282 29.52V28.52H82.0482V34H81.1282V32.98C80.9482 33.3 80.6782 33.5667 80.3182 33.78C79.9649 33.9867 79.5515 34.09 79.0782 34.09C78.5915 34.09 78.1515 33.97 77.7582 33.73C77.3649 33.49 77.0549 33.1533 76.8282 32.72C76.6015 32.2867 76.4882 31.7933 76.4882 31.24ZM81.1282 31.25C81.1282 30.8367 81.0449 30.4767 80.8782 30.17C80.7115 29.8633 80.4849 29.63 80.1982 29.47C79.9182 29.3033 79.6082 29.22 79.2682 29.22C78.9282 29.22 78.6182 29.3 78.3382 29.46C78.0582 29.62 77.8349 29.8533 77.6682 30.16C77.5015 30.4667 77.4182 30.8267 77.4182 31.24C77.4182 31.66 77.5015 32.0267 77.6682 32.34C77.8349 32.6467 78.0582 32.8833 78.3382 33.05C78.6182 33.21 78.9282 33.29 79.2682 33.29C79.6082 33.29 79.9182 33.21 80.1982 33.05C80.4849 32.8833 80.7115 32.6467 80.8782 32.34C81.0449 32.0267 81.1282 31.6633 81.1282 31.25ZM86.512 31.24C86.512 30.68 86.6254 30.19 86.852 29.77C87.0787 29.3433 87.3887 29.0133 87.782 28.78C88.182 28.5467 88.6287 28.43 89.122 28.43C89.5487 28.43 89.9454 28.53 90.312 28.73C90.6787 28.9233 90.9587 29.18 91.152 29.5V26.6H92.072V34H91.152V32.97C90.972 33.2967 90.7054 33.5667 90.352 33.78C89.9987 33.9867 89.5854 34.09 89.112 34.09C88.6254 34.09 88.182 33.97 87.782 33.73C87.3887 33.49 87.0787 33.1533 86.852 32.72C86.6254 32.2867 86.512 31.7933 86.512 31.24ZM91.152 31.25C91.152 30.8367 91.0687 30.4767 90.902 30.17C90.7354 29.8633 90.5087 29.63 90.222 29.47C89.942 29.3033 89.632 29.22 89.292 29.22C88.952 29.22 88.642 29.3 88.362 29.46C88.082 29.62 87.8587 29.8533 87.692 30.16C87.5254 30.4667 87.442 30.8267 87.442 31.24C87.442 31.66 87.5254 32.0267 87.692 32.34C87.8587 32.6467 88.082 32.8833 88.362 33.05C88.642 33.21 88.952 33.29 89.292 33.29C89.632 33.29 89.942 33.21 90.222 33.05C90.5087 32.8833 90.7354 32.6467 90.902 32.34C91.0687 32.0267 91.152 31.6633 91.152 31.25ZM96.2998 34.09C95.7865 34.09 95.3198 33.9733 94.8998 33.74C94.4865 33.5067 94.1598 33.1767 93.9198 32.75C93.6865 32.3167 93.5698 31.8167 93.5698 31.25C93.5698 30.69 93.6898 30.1967 93.9298 29.77C94.1765 29.3367 94.5098 29.0067 94.9298 28.78C95.3498 28.5467 95.8198 28.43 96.3398 28.43C96.8598 28.43 97.3298 28.5467 97.7498 28.78C98.1698 29.0067 98.4998 29.3333 98.7398 29.76C98.9865 30.1867 99.1098 30.6833 99.1098 31.25C99.1098 31.8167 98.9832 32.3167 98.7298 32.75C98.4832 33.1767 98.1465 33.5067 97.7198 33.74C97.2932 33.9733 96.8198 34.09 96.2998 34.09ZM96.2998 33.29C96.6265 33.29 96.9332 33.2133 97.2198 33.06C97.5065 32.9067 97.7365 32.6767 97.9098 32.37C98.0898 32.0633 98.1798 31.69 98.1798 31.25C98.1798 30.81 98.0932 30.4367 97.9198 30.13C97.7465 29.8233 97.5198 29.5967 97.2398 29.45C96.9598 29.2967 96.6565 29.22 96.3298 29.22C95.9965 29.22 95.6898 29.2967 95.4098 29.45C95.1365 29.5967 94.9165 29.8233 94.7498 30.13C94.5832 30.4367 94.4998 30.81 94.4998 31.25C94.4998 31.6967 94.5798 32.0733 94.7398 32.38C94.9065 32.6867 95.1265 32.9167 95.3998 33.07C95.6732 33.2167 95.9732 33.29 96.2998 33.29ZM103.232 30.51C103.232 29.83 103.386 29.22 103.692 28.68C103.999 28.1333 104.416 27.7067 104.942 27.4C105.476 27.0933 106.066 26.94 106.712 26.94C107.472 26.94 108.136 27.1233 108.702 27.49C109.269 27.8567 109.682 28.3767 109.942 29.05H108.852C108.659 28.63 108.379 28.3067 108.012 28.08C107.652 27.8533 107.219 27.74 106.712 27.74C106.226 27.74 105.789 27.8533 105.402 28.08C105.016 28.3067 104.712 28.63 104.492 29.05C104.272 29.4633 104.162 29.95 104.162 30.51C104.162 31.0633 104.272 31.55 104.492 31.97C104.712 32.3833 105.016 32.7033 105.402 32.93C105.789 33.1567 106.226 33.27 106.712 33.27C107.219 33.27 107.652 33.16 108.012 32.94C108.379 32.7133 108.659 32.39 108.852 31.97H109.942C109.682 32.6367 109.269 33.1533 108.702 33.52C108.136 33.88 107.472 34.06 106.712 34.06C106.066 34.06 105.476 33.91 104.942 33.61C104.416 33.3033 103.999 32.88 103.692 32.34C103.386 31.8 103.232 31.19 103.232 30.51ZM112.507 26.6V34H111.597V26.6H112.507ZM119.218 28.52V34H118.308V33.19C118.135 33.47 117.891 33.69 117.578 33.85C117.271 34.0033 116.931 34.08 116.558 34.08C116.131 34.08 115.748 33.9933 115.408 33.82C115.068 33.64 114.798 33.3733 114.598 33.02C114.405 32.6667 114.308 32.2367 114.308 31.73V28.52H115.208V31.61C115.208 32.15 115.345 32.5667 115.618 32.86C115.891 33.1467 116.265 33.29 116.738 33.29C117.225 33.29 117.608 33.14 117.888 32.84C118.168 32.54 118.308 32.1033 118.308 31.53V28.52H119.218ZM121.964 29.54C122.151 29.2133 122.424 28.9467 122.784 28.74C123.144 28.5333 123.554 28.43 124.014 28.43C124.508 28.43 124.951 28.5467 125.344 28.78C125.738 29.0133 126.048 29.3433 126.274 29.77C126.501 30.19 126.614 30.68 126.614 31.24C126.614 31.7933 126.501 32.2867 126.274 32.72C126.048 33.1533 125.734 33.49 125.334 33.73C124.941 33.97 124.501 34.09 124.014 34.09C123.541 34.09 123.124 33.9867 122.764 33.78C122.411 33.5733 122.144 33.31 121.964 32.99V34H121.054V26.6H121.964V29.54ZM125.684 31.24C125.684 30.8267 125.601 30.4667 125.434 30.16C125.268 29.8533 125.041 29.62 124.754 29.46C124.474 29.3 124.164 29.22 123.824 29.22C123.491 29.22 123.181 29.3033 122.894 29.47C122.614 29.63 122.388 29.8667 122.214 30.18C122.048 30.4867 121.964 30.8433 121.964 31.25C121.964 31.6633 122.048 32.0267 122.214 32.34C122.388 32.6467 122.614 32.8833 122.894 33.05C123.181 33.21 123.491 33.29 123.824 33.29C124.164 33.29 124.474 33.21 124.754 33.05C125.041 32.8833 125.268 32.6467 125.434 32.34C125.601 32.0267 125.684 31.66 125.684 31.24ZM133.112 31.05C133.112 31.2233 133.102 31.4067 133.082 31.6H128.702C128.736 32.14 128.919 32.5633 129.252 32.87C129.592 33.17 130.002 33.32 130.482 33.32C130.876 33.32 131.202 33.23 131.462 33.05C131.729 32.8633 131.916 32.6167 132.022 32.31H133.002C132.856 32.8367 132.562 33.2667 132.122 33.6C131.682 33.9267 131.136 34.09 130.482 34.09C129.962 34.09 129.496 33.9733 129.082 33.74C128.676 33.5067 128.356 33.1767 128.122 32.75C127.889 32.3167 127.772 31.8167 127.772 31.25C127.772 30.6833 127.886 30.1867 128.112 29.76C128.339 29.3333 128.656 29.0067 129.062 28.78C129.476 28.5467 129.949 28.43 130.482 28.43C131.002 28.43 131.462 28.5433 131.862 28.77C132.262 28.9967 132.569 29.31 132.782 29.71C133.002 30.1033 133.112 30.55 133.112 31.05ZM132.172 30.86C132.172 30.5133 132.096 30.2167 131.942 29.97C131.789 29.7167 131.579 29.5267 131.312 29.4C131.052 29.2667 130.762 29.2 130.442 29.2C129.982 29.2 129.589 29.3467 129.262 29.64C128.942 29.9333 128.759 30.34 128.712 30.86H132.172ZM143.059 34H142.149L138.489 28.45V34H137.579V27.02H138.489L142.149 32.56V27.02H143.059V34ZM144.571 31.24C144.571 30.68 144.684 30.19 144.911 29.77C145.137 29.3433 145.447 29.0133 145.841 28.78C146.241 28.5467 146.684 28.43 147.171 28.43C147.651 28.43 148.067 28.5333 148.421 28.74C148.774 28.9467 149.037 29.2067 149.211 29.52V28.52H150.131V34H149.211V32.98C149.031 33.3 148.761 33.5667 148.401 33.78C148.047 33.9867 147.634 34.09 147.161 34.09C146.674 34.09 146.234 33.97 145.841 33.73C145.447 33.49 145.137 33.1533 144.911 32.72C144.684 32.2867 144.571 31.7933 144.571 31.24ZM149.211 31.25C149.211 30.8367 149.127 30.4767 148.961 30.17C148.794 29.8633 148.567 29.63 148.281 29.47C148.001 29.3033 147.691 29.22 147.351 29.22C147.011 29.22 146.701 29.3 146.421 29.46C146.141 29.62 145.917 29.8533 145.751 30.16C145.584 30.4667 145.501 30.8267 145.501 31.24C145.501 31.66 145.584 32.0267 145.751 32.34C145.917 32.6467 146.141 32.8833 146.421 33.05C146.701 33.21 147.011 33.29 147.351 33.29C147.691 33.29 148.001 33.21 148.281 33.05C148.567 32.8833 148.794 32.6467 148.961 32.34C149.127 32.0267 149.211 31.6633 149.211 31.25ZM154.008 33.16L155.708 28.52H156.678L154.528 34H153.468L151.318 28.52H152.298L154.008 33.16ZM157.534 31.24C157.534 30.68 157.647 30.19 157.874 29.77C158.101 29.3433 158.411 29.0133 158.804 28.78C159.204 28.5467 159.647 28.43 160.134 28.43C160.614 28.43 161.031 28.5333 161.384 28.74C161.737 28.9467 162.001 29.2067 162.174 29.52V28.52H163.094V34H162.174V32.98C161.994 33.3 161.724 33.5667 161.364 33.78C161.011 33.9867 160.597 34.09 160.124 34.09C159.637 34.09 159.197 33.97 158.804 33.73C158.411 33.49 158.101 33.1533 157.874 32.72C157.647 32.2867 157.534 31.7933 157.534 31.24ZM162.174 31.25C162.174 30.8367 162.091 30.4767 161.924 30.17C161.757 29.8633 161.531 29.63 161.244 29.47C160.964 29.3033 160.654 29.22 160.314 29.22C159.974 29.22 159.664 29.3 159.384 29.46C159.104 29.62 158.881 29.8533 158.714 30.16C158.547 30.4667 158.464 30.8267 158.464 31.24C158.464 31.66 158.547 32.0267 158.714 32.34C158.881 32.6467 159.104 32.8833 159.384 33.05C159.664 33.21 159.974 33.29 160.314 33.29C160.654 33.29 160.964 33.21 161.244 33.05C161.531 32.8833 161.757 32.6467 161.924 32.34C162.091 32.0267 162.174 31.6633 162.174 31.25ZM165.842 26.6V34H164.932V26.6H165.842Z" fill="#98A4AE"/>
<path d="M73.9434 45.5L108.058 45.5L91.001 68.3301L73.9434 45.5Z" fill="white" stroke="#015486" stroke-width="2"/>
<path d="M91 65L71.0814 41L110.919 41L91 65Z" fill="white"/>
<path d="M31.155 11.978C30.2796 11.4725 29.3132 11.1443 28.311 11.0123C27.3088 10.8803 26.2904 10.947 25.314 11.2086C24.3376 11.4702 23.4223 11.9215 22.6203 12.5369C21.8183 13.1523 21.1454 13.9196 20.64 14.795L20.35 15.297C20.2507 15.4693 20.2239 15.6739 20.2755 15.8659C20.3271 16.0579 20.4528 16.2216 20.625 16.321L26.086 19.474L22.818 25.194L22.75 25.193C19.592 25.193 16.857 27.025 15.228 29.615C15.5062 29.5166 15.8027 29.481 16.0963 29.5108C16.3898 29.5405 16.6732 29.6348 16.926 29.787C18.338 27.921 20.444 26.693 22.75 26.693C25.154 26.693 27.341 28.028 28.75 30.029C28.9448 29.8497 29.1733 29.7109 29.4222 29.6206C29.6711 29.5303 29.9355 29.4903 30.2 29.503C28.869 27.445 26.833 25.883 24.444 25.372L27.385 20.224L32.658 23.269C32.7433 23.3183 32.8376 23.3503 32.9353 23.3631C33.033 23.376 33.1323 23.3695 33.2275 23.3439C33.3227 23.3184 33.4119 23.2743 33.4901 23.2143C33.5682 23.1543 33.6338 23.0794 33.683 22.994L33.973 22.493C34.4785 21.6176 34.8065 20.6511 34.9385 19.6489C35.0704 18.6466 35.0036 17.6282 34.742 16.6518C34.4803 15.6754 34.0288 14.7601 33.4134 13.9581C32.7979 13.1562 32.0305 12.4833 31.155 11.978ZM28.965 19.404L25.807 17.58C26.379 16.699 26.923 16.028 27.575 15.435C28.21 14.857 28.968 14.335 29.996 13.767C30.148 14.722 30.194 15.517 30.096 16.297C29.98 17.229 29.651 18.19 28.963 19.403M30.261 20.153C31.021 18.815 31.437 17.663 31.584 16.483C31.681 15.709 31.659 14.945 31.562 14.138C32.5536 15.0759 33.208 16.3148 33.4237 17.6625C33.6394 19.0102 33.4043 20.3915 32.755 21.592L30.261 20.153ZM26.565 14.325C25.775 15.044 25.14 15.844 24.505 16.829L22.025 15.397C22.7247 14.2594 23.773 13.3782 25.014 12.8845C26.2549 12.3908 27.6221 12.311 28.912 12.657C27.983 13.192 27.227 13.722 26.565 14.325ZM16.605 31.263C16.5536 31.1087 16.4535 30.9752 16.3197 30.8828C16.1859 30.7903 16.0257 30.7439 15.8632 30.7504C15.7007 30.757 15.5447 30.8162 15.4188 30.9191C15.2928 31.022 15.2038 31.163 15.165 31.321C14.91 32.363 14.427 32.935 13.877 33.267C13.301 33.615 12.567 33.749 11.748 33.749C11.5491 33.749 11.3583 33.828 11.2177 33.9687C11.077 34.1093 10.998 34.3001 10.998 34.499C10.998 34.6979 11.077 34.8887 11.2177 35.0293C11.3583 35.17 11.5491 35.249 11.748 35.249C12.705 35.249 13.748 35.097 14.652 34.551C15.1912 34.2252 15.6459 33.7767 15.979 33.242C17.768 35.524 21.261 35.512 22.998 33.218C24.763 35.548 28.338 35.524 30.101 33.132C30.5796 33.7834 31.2038 34.3141 31.9238 34.6816C32.6437 35.0492 33.4396 35.2435 34.248 35.249C34.4469 35.249 34.6377 35.17 34.7783 35.0293C34.919 34.8887 34.998 34.6979 34.998 34.499C34.998 34.3001 34.919 34.1093 34.7783 33.9687C34.6377 33.828 34.4469 33.749 34.248 33.749C32.773 33.749 31.303 32.789 30.818 31.271C30.77 31.1199 30.6754 30.9879 30.5477 30.894C30.42 30.8001 30.2659 30.749 30.1074 30.7481C29.9489 30.7472 29.7942 30.7965 29.6655 30.8891C29.5368 30.9816 29.4407 31.1125 29.391 31.263C28.428 34.172 24.653 34.135 23.707 31.384C23.6561 31.2364 23.5604 31.1085 23.4333 31.0179C23.3062 30.9273 23.1541 30.8786 22.998 30.8786C22.8419 30.8786 22.6897 30.9273 22.5626 31.0179C22.4355 31.1085 22.3399 31.2364 22.289 31.384C21.343 34.135 17.569 34.171 16.605 31.263Z" fill="#015486"/>
<defs>
<linearGradient id="paint0_linear_294_334" x1="179.069" y1="0.748829" x2="-69.2821" y2="206.234" gradientUnits="userSpaceOnUse">
<stop stop-color="white"/>
</linearGradient>
</defs>
</svg>
