<svg width="181" height="70" viewBox="0 0 181 70" fill="none" xmlns="http://www.w3.org/2000/svg">
<path d="M20 1H161C171.493 1 180 9.50659 180 20V26C180 36.4934 171.493 45 161 45H20C9.50659 45 1 36.4934 1 26V20C1 9.50659 9.50659 1 20 1Z" fill="url(#paint0_linear_294_327)" stroke="#015486" stroke-width="2"/>
<path d="M40.08 19V10.624C40.408 10.584 40.768 10.556 41.16 10.54C41.56 10.516 41.972 10.504 42.396 10.504C43.092 10.504 43.684 10.616 44.172 10.84C44.66 11.056 45.032 11.356 45.288 11.74C45.544 12.124 45.672 12.564 45.672 13.06C45.672 13.66 45.524 14.168 45.228 14.584C44.932 15 44.52 15.32 43.992 15.544C43.464 15.76 42.852 15.868 42.156 15.868C41.82 15.868 41.508 15.856 41.22 15.832V19H40.08ZM42.3 14.92C43.012 14.92 43.564 14.76 43.956 14.44C44.348 14.12 44.544 13.692 44.544 13.156C44.544 12.636 44.356 12.224 43.98 11.92C43.604 11.616 43.068 11.464 42.372 11.464C42.156 11.464 41.952 11.468 41.76 11.476C41.568 11.484 41.388 11.496 41.22 11.512V14.86C41.348 14.876 41.504 14.892 41.688 14.908C41.872 14.916 42.076 14.92 42.3 14.92ZM47.2327 19V12.76H48.2767V14.116C48.3807 13.852 48.5207 13.608 48.6967 13.384C48.8727 13.152 49.0927 12.968 49.3567 12.832C49.6207 12.688 49.9287 12.616 50.2807 12.616C50.4007 12.616 50.5207 12.624 50.6407 12.64C50.7607 12.648 50.8607 12.664 50.9407 12.688L50.6167 13.804C50.4647 13.74 50.2847 13.708 50.0767 13.708C49.7807 13.708 49.4967 13.792 49.2247 13.96C48.9607 14.128 48.7407 14.388 48.5647 14.74C48.3967 15.092 48.3127 15.54 48.3127 16.084V19H47.2327ZM54.3503 19.144C53.8303 19.144 53.3583 19.012 52.9343 18.748C52.5103 18.484 52.1703 18.112 51.9143 17.632C51.6663 17.144 51.5423 16.572 51.5423 15.916C51.5423 15.292 51.6663 14.732 51.9143 14.236C52.1703 13.74 52.5183 13.348 52.9583 13.06C53.4063 12.764 53.9183 12.616 54.4943 12.616C54.8543 12.616 55.1783 12.68 55.4663 12.808C55.7623 12.928 56.0183 13.08 56.2343 13.264V12.76H57.2183V17.488C57.2183 17.792 57.2903 17.992 57.4343 18.088C57.5863 18.176 57.7503 18.22 57.9263 18.22L57.6983 19.06C56.9303 19.06 56.4663 18.748 56.3063 18.124C56.1223 18.38 55.8703 18.616 55.5503 18.832C55.2383 19.04 54.8383 19.144 54.3503 19.144ZM54.5903 18.184C54.8943 18.184 55.1823 18.112 55.4543 17.968C55.7263 17.816 55.9543 17.628 56.1383 17.404V14.056C55.9223 13.904 55.6823 13.784 55.4183 13.696C55.1623 13.6 54.8903 13.552 54.6023 13.552C54.2183 13.552 53.8783 13.652 53.5823 13.852C53.2943 14.044 53.0663 14.316 52.8983 14.668C52.7303 15.012 52.6463 15.416 52.6463 15.88C52.6463 16.328 52.7303 16.728 52.8983 17.08C53.0663 17.424 53.2983 17.696 53.5943 17.896C53.8903 18.088 54.2223 18.184 54.5903 18.184ZM59.6686 19V12.76H60.7486V19H59.6686ZM60.2086 11.692C60.0006 11.692 59.8206 11.616 59.6686 11.464C59.5246 11.312 59.4526 11.136 59.4526 10.936C59.4526 10.704 59.5206 10.52 59.6566 10.384C59.7926 10.248 59.9766 10.18 60.2086 10.18C60.4166 10.18 60.5926 10.256 60.7366 10.408C60.8886 10.552 60.9646 10.728 60.9646 10.936C60.9646 11.16 60.8966 11.344 60.7606 11.488C60.6246 11.624 60.4406 11.692 60.2086 11.692ZM65.3566 19.144C64.8366 19.144 64.3646 19.012 63.9406 18.748C63.5166 18.484 63.1766 18.112 62.9206 17.632C62.6726 17.144 62.5486 16.572 62.5486 15.916C62.5486 15.292 62.6726 14.732 62.9206 14.236C63.1766 13.74 63.5246 13.348 63.9646 13.06C64.4126 12.764 64.9246 12.616 65.5006 12.616C65.8606 12.616 66.1846 12.68 66.4726 12.808C66.7686 12.928 67.0246 13.08 67.2406 13.264V12.76H68.2246V17.488C68.2246 17.792 68.2966 17.992 68.4406 18.088C68.5926 18.176 68.7566 18.22 68.9326 18.22L68.7046 19.06C67.9366 19.06 67.4726 18.748 67.3126 18.124C67.1286 18.38 66.8766 18.616 66.5566 18.832C66.2446 19.04 65.8446 19.144 65.3566 19.144ZM65.5966 18.184C65.9006 18.184 66.1886 18.112 66.4606 17.968C66.7326 17.816 66.9606 17.628 67.1446 17.404V14.056C66.9286 13.904 66.6886 13.784 66.4246 13.696C66.1686 13.6 65.8966 13.552 65.6086 13.552C65.2246 13.552 64.8846 13.652 64.5886 13.852C64.3006 14.044 64.0726 14.316 63.9046 14.668C63.7366 15.012 63.6526 15.416 63.6526 15.88C63.6526 16.328 63.7366 16.728 63.9046 17.08C64.0726 17.424 64.3046 17.696 64.6006 17.896C64.8966 18.088 65.2286 18.184 65.5966 18.184ZM76.9365 19.144C76.4245 19.144 75.9565 19.012 75.5325 18.748C75.1085 18.484 74.7725 18.112 74.5245 17.632C74.2765 17.144 74.1525 16.572 74.1525 15.916C74.1525 15.284 74.2765 14.72 74.5245 14.224C74.7805 13.728 75.1165 13.336 75.5325 13.048C75.9565 12.76 76.4205 12.616 76.9245 12.616C77.3405 12.616 77.6965 12.7 77.9925 12.868C78.2965 13.036 78.5325 13.208 78.7005 13.384V10.12H79.7805V17.488C79.7805 17.792 79.8525 17.992 79.9965 18.088C80.1485 18.176 80.3125 18.22 80.4885 18.22L80.2605 19.06C79.5005 19.06 79.0365 18.756 78.8685 18.148C78.6925 18.396 78.4445 18.624 78.1245 18.832C77.8125 19.04 77.4165 19.144 76.9365 19.144ZM77.1765 18.184C77.4725 18.184 77.7525 18.116 78.0165 17.98C78.2885 17.836 78.5165 17.652 78.7005 17.428V14.332C78.5485 14.14 78.3365 13.964 78.0645 13.804C77.7925 13.636 77.4925 13.552 77.1645 13.552C76.7805 13.552 76.4445 13.656 76.1565 13.864C75.8685 14.072 75.6445 14.352 75.4845 14.704C75.3325 15.048 75.2565 15.44 75.2565 15.88C75.2565 16.32 75.3405 16.716 75.5085 17.068C75.6765 17.412 75.9045 17.684 76.1925 17.884C76.4885 18.084 76.8165 18.184 77.1765 18.184ZM84.6107 19.144C83.7147 19.144 83.0027 18.86 82.4747 18.292C81.9547 17.716 81.6947 16.912 81.6947 15.88C81.6947 15.256 81.8107 14.7 82.0427 14.212C82.2827 13.716 82.6147 13.328 83.0387 13.048C83.4627 12.76 83.9547 12.616 84.5147 12.616C85.1147 12.616 85.6107 12.748 86.0027 13.012C86.4027 13.268 86.7027 13.616 86.9027 14.056C87.1027 14.496 87.2027 14.98 87.2027 15.508C87.2027 15.788 87.1907 16.06 87.1667 16.324H82.7987C82.8707 16.908 83.0747 17.364 83.4107 17.692C83.7467 18.02 84.1907 18.184 84.7427 18.184C85.1027 18.184 85.4267 18.148 85.7147 18.076C86.0027 17.996 86.2787 17.896 86.5427 17.776L86.7947 18.7C86.5067 18.828 86.1827 18.932 85.8227 19.012C85.4627 19.1 85.0587 19.144 84.6107 19.144ZM82.7867 15.448H86.2067C86.2067 14.84 86.0547 14.372 85.7507 14.044C85.4467 13.716 85.0267 13.552 84.4907 13.552C84.0267 13.552 83.6427 13.716 83.3387 14.044C83.0347 14.364 82.8507 14.832 82.7867 15.448ZM95.0477 19.144C94.4637 19.144 93.9317 19.068 93.4517 18.916C92.9717 18.756 92.5677 18.548 92.2397 18.292L92.8157 17.332C93.1037 17.572 93.4277 17.768 93.7877 17.92C94.1477 18.072 94.5677 18.148 95.0477 18.148C95.6237 18.148 96.0797 18.028 96.4157 17.788C96.7517 17.548 96.9197 17.224 96.9197 16.816C96.9197 16.584 96.8717 16.38 96.7757 16.204C96.6797 16.02 96.4917 15.844 96.2117 15.676C95.9397 15.5 95.5357 15.312 94.9997 15.112C94.4237 14.888 93.9637 14.664 93.6197 14.44C93.2757 14.208 93.0277 13.948 92.8757 13.66C92.7317 13.364 92.6597 13.016 92.6597 12.616C92.6597 12.216 92.7677 11.856 92.9837 11.536C93.2077 11.208 93.5317 10.948 93.9557 10.756C94.3877 10.556 94.9077 10.456 95.5157 10.456C96.0117 10.456 96.4557 10.508 96.8477 10.612C97.2477 10.708 97.6357 10.848 98.0117 11.032L97.5917 12.004C97.3197 11.844 96.9997 11.712 96.6317 11.608C96.2717 11.496 95.8917 11.44 95.4917 11.44C94.9637 11.44 94.5477 11.544 94.2437 11.752C93.9397 11.96 93.7877 12.228 93.7877 12.556C93.7877 12.764 93.8317 12.948 93.9197 13.108C94.0077 13.268 94.1797 13.424 94.4357 13.576C94.6997 13.728 95.0917 13.9 95.6117 14.092C96.2357 14.324 96.7277 14.568 97.0877 14.824C97.4557 15.08 97.7157 15.36 97.8677 15.664C98.0197 15.96 98.0957 16.3 98.0957 16.684C98.0957 17.204 97.9637 17.648 97.6997 18.016C97.4437 18.384 97.0837 18.664 96.6197 18.856C96.1637 19.048 95.6397 19.144 95.0477 19.144ZM102.348 19.144C101.828 19.144 101.356 19.012 100.932 18.748C100.508 18.484 100.168 18.112 99.912 17.632C99.664 17.144 99.54 16.572 99.54 15.916C99.54 15.292 99.664 14.732 99.912 14.236C100.168 13.74 100.516 13.348 100.956 13.06C101.404 12.764 101.916 12.616 102.492 12.616C102.852 12.616 103.176 12.68 103.464 12.808C103.76 12.928 104.016 13.08 104.232 13.264V12.76H105.216V17.488C105.216 17.792 105.288 17.992 105.432 18.088C105.584 18.176 105.748 18.22 105.924 18.22L105.696 19.06C104.928 19.06 104.464 18.748 104.304 18.124C104.12 18.38 103.868 18.616 103.548 18.832C103.236 19.04 102.836 19.144 102.348 19.144ZM102.588 18.184C102.892 18.184 103.18 18.112 103.452 17.968C103.724 17.816 103.952 17.628 104.136 17.404V14.056C103.92 13.904 103.68 13.784 103.416 13.696C103.16 13.6 102.888 13.552 102.6 13.552C102.216 13.552 101.876 13.652 101.58 13.852C101.292 14.044 101.064 14.316 100.896 14.668C100.728 15.012 100.644 15.416 100.644 15.88C100.644 16.328 100.728 16.728 100.896 17.08C101.064 17.424 101.296 17.696 101.592 17.896C101.888 18.088 102.22 18.184 102.588 18.184ZM101.184 11.704L100.764 10.96C100.908 10.8 101.092 10.656 101.316 10.528C101.54 10.4 101.772 10.336 102.012 10.336C102.212 10.336 102.384 10.372 102.528 10.444C102.672 10.508 102.808 10.576 102.936 10.648C103.072 10.712 103.224 10.744 103.392 10.744C103.568 10.744 103.724 10.708 103.86 10.636C103.996 10.556 104.116 10.468 104.22 10.372L104.64 11.128C104.496 11.264 104.328 11.392 104.136 11.512C103.952 11.624 103.736 11.68 103.488 11.68C103.28 11.68 103.104 11.648 102.96 11.584C102.816 11.512 102.676 11.444 102.54 11.38C102.404 11.308 102.244 11.272 102.06 11.272C101.884 11.272 101.724 11.316 101.58 11.404C101.436 11.492 101.304 11.592 101.184 11.704ZM110.177 19.144C109.585 19.144 109.053 19.008 108.581 18.736C108.109 18.456 107.737 18.072 107.465 17.584C107.201 17.088 107.069 16.52 107.069 15.88C107.069 15.208 107.205 14.628 107.477 14.14C107.749 13.652 108.121 13.276 108.593 13.012C109.065 12.748 109.593 12.616 110.177 12.616C110.761 12.616 111.285 12.748 111.749 13.012C112.221 13.276 112.593 13.652 112.865 14.14C113.145 14.62 113.285 15.192 113.285 15.856C113.285 16.52 113.149 17.1 112.877 17.596C112.605 18.084 112.233 18.464 111.761 18.736C111.297 19.008 110.769 19.144 110.177 19.144ZM110.177 18.184C110.809 18.184 111.301 17.972 111.653 17.548C112.005 17.116 112.181 16.56 112.181 15.88C112.181 15.464 112.093 15.084 111.917 14.74C111.741 14.388 111.501 14.108 111.197 13.9C110.901 13.684 110.561 13.576 110.177 13.576C109.545 13.576 109.053 13.784 108.701 14.2C108.349 14.616 108.173 15.168 108.173 15.856C108.173 16.272 108.261 16.66 108.437 17.02C108.613 17.372 108.849 17.656 109.145 17.872C109.449 18.08 109.793 18.184 110.177 18.184ZM122.267 19.144C121.539 19.144 120.895 18.972 120.335 18.628C119.775 18.276 119.339 17.78 119.027 17.14C118.715 16.492 118.559 15.724 118.559 14.836C118.559 13.98 118.715 13.224 119.027 12.568C119.347 11.904 119.795 11.388 120.371 11.02C120.955 10.644 121.635 10.456 122.411 10.456C122.811 10.456 123.175 10.496 123.503 10.576C123.831 10.648 124.139 10.752 124.427 10.888L124.079 11.848C123.831 11.728 123.575 11.632 123.311 11.56C123.055 11.488 122.751 11.452 122.399 11.452C121.887 11.452 121.427 11.584 121.019 11.848C120.619 12.112 120.303 12.492 120.071 12.988C119.839 13.484 119.723 14.084 119.723 14.788C119.723 15.46 119.835 16.048 120.059 16.552C120.291 17.056 120.607 17.448 121.007 17.728C121.415 18.008 121.879 18.148 122.399 18.148C122.791 18.148 123.131 18.1 123.419 18.004C123.707 17.908 123.987 17.784 124.259 17.632L124.607 18.58C124.311 18.74 123.971 18.876 123.587 18.988C123.211 19.092 122.771 19.144 122.267 19.144ZM126.344 19V10.12H127.424V13.756C127.648 13.428 127.932 13.156 128.276 12.94C128.62 12.724 129.024 12.616 129.488 12.616C130.192 12.616 130.716 12.828 131.06 13.252C131.412 13.676 131.588 14.236 131.588 14.932V19H130.508V15.052C130.508 14.604 130.404 14.244 130.196 13.972C129.988 13.7 129.696 13.564 129.32 13.564C128.952 13.564 128.6 13.696 128.264 13.96C127.936 14.216 127.656 14.52 127.424 14.872V19H126.344ZM136.133 19.144C135.613 19.144 135.141 19.012 134.717 18.748C134.293 18.484 133.953 18.112 133.697 17.632C133.449 17.144 133.325 16.572 133.325 15.916C133.325 15.292 133.449 14.732 133.697 14.236C133.953 13.74 134.301 13.348 134.741 13.06C135.189 12.764 135.701 12.616 136.277 12.616C136.637 12.616 136.961 12.68 137.249 12.808C137.545 12.928 137.801 13.08 138.017 13.264V12.76H139.001V17.488C139.001 17.792 139.073 17.992 139.217 18.088C139.369 18.176 139.533 18.22 139.709 18.22L139.481 19.06C138.713 19.06 138.249 18.748 138.089 18.124C137.905 18.38 137.653 18.616 137.333 18.832C137.021 19.04 136.621 19.144 136.133 19.144ZM136.373 18.184C136.677 18.184 136.965 18.112 137.237 17.968C137.509 17.816 137.737 17.628 137.921 17.404V14.056C137.705 13.904 137.465 13.784 137.201 13.696C136.945 13.6 136.673 13.552 136.385 13.552C136.001 13.552 135.661 13.652 135.365 13.852C135.077 14.044 134.849 14.316 134.681 14.668C134.513 15.012 134.429 15.416 134.429 15.88C134.429 16.328 134.513 16.728 134.681 17.08C134.849 17.424 135.081 17.696 135.377 17.896C135.673 18.088 136.005 18.184 136.373 18.184ZM141.451 19V12.76H142.495V14.116C142.599 13.852 142.739 13.608 142.915 13.384C143.091 13.152 143.311 12.968 143.575 12.832C143.839 12.688 144.147 12.616 144.499 12.616C144.619 12.616 144.739 12.624 144.859 12.64C144.979 12.648 145.079 12.664 145.159 12.688L144.835 13.804C144.683 13.74 144.503 13.708 144.295 13.708C143.999 13.708 143.715 13.792 143.443 13.96C143.179 14.128 142.959 14.388 142.783 14.74C142.615 15.092 142.531 15.54 142.531 16.084V19H141.451ZM146.544 19V12.76H147.624V19H146.544ZM147.084 11.692C146.876 11.692 146.696 11.616 146.544 11.464C146.4 11.312 146.328 11.136 146.328 10.936C146.328 10.704 146.396 10.52 146.532 10.384C146.668 10.248 146.852 10.18 147.084 10.18C147.292 10.18 147.468 10.256 147.612 10.408C147.764 10.552 147.84 10.728 147.84 10.936C147.84 11.16 147.772 11.344 147.636 11.488C147.5 11.624 147.316 11.692 147.084 11.692ZM152.028 19.144C151.428 19.144 150.952 18.948 150.6 18.556C150.256 18.156 150.084 17.588 150.084 16.852V13.924H149.004V12.988H150.108L150.336 11.02H151.164V12.988H152.892V13.924H151.164V16.936C151.164 17.4 151.26 17.724 151.452 17.908C151.652 18.092 151.888 18.184 152.16 18.184C152.36 18.184 152.548 18.152 152.724 18.088C152.908 18.024 153.076 17.948 153.228 17.86L153.528 18.724C153.368 18.82 153.152 18.912 152.88 19C152.608 19.096 152.324 19.144 152.028 19.144ZM157.068 19.144C156.548 19.144 156.076 19.012 155.652 18.748C155.228 18.484 154.888 18.112 154.632 17.632C154.384 17.144 154.26 16.572 154.26 15.916C154.26 15.292 154.384 14.732 154.632 14.236C154.888 13.74 155.236 13.348 155.676 13.06C156.124 12.764 156.636 12.616 157.212 12.616C157.572 12.616 157.896 12.68 158.184 12.808C158.48 12.928 158.736 13.08 158.952 13.264V12.76H159.936V17.488C159.936 17.792 160.008 17.992 160.152 18.088C160.304 18.176 160.468 18.22 160.644 18.22L160.416 19.06C159.648 19.06 159.184 18.748 159.024 18.124C158.84 18.38 158.588 18.616 158.268 18.832C157.956 19.04 157.556 19.144 157.068 19.144ZM157.308 18.184C157.612 18.184 157.9 18.112 158.172 17.968C158.444 17.816 158.672 17.628 158.856 17.404V14.056C158.64 13.904 158.4 13.784 158.136 13.696C157.88 13.6 157.608 13.552 157.32 13.552C156.936 13.552 156.596 13.652 156.3 13.852C156.012 14.044 155.784 14.316 155.616 14.668C155.448 15.012 155.364 15.416 155.364 15.88C155.364 16.328 155.448 16.728 155.616 17.08C155.784 17.424 156.016 17.696 156.312 17.896C156.608 18.088 156.94 18.184 157.308 18.184ZM164.066 19.144C163.594 19.144 163.166 19.084 162.782 18.964C162.406 18.844 162.094 18.688 161.846 18.496L162.302 17.596C162.51 17.772 162.77 17.92 163.082 18.04C163.402 18.152 163.742 18.208 164.102 18.208C164.55 18.208 164.886 18.136 165.11 17.992C165.342 17.84 165.458 17.648 165.458 17.416C165.458 17.248 165.414 17.1 165.326 16.972C165.246 16.844 165.094 16.72 164.87 16.6C164.646 16.472 164.322 16.336 163.898 16.192C163.314 15.992 162.874 15.756 162.578 15.484C162.29 15.204 162.146 14.82 162.146 14.332C162.146 13.852 162.354 13.448 162.77 13.12C163.194 12.784 163.778 12.616 164.522 12.616C164.922 12.616 165.278 12.66 165.59 12.748C165.902 12.828 166.182 12.932 166.43 13.06L166.13 13.948C165.914 13.82 165.666 13.716 165.386 13.636C165.114 13.556 164.81 13.516 164.474 13.516C164.058 13.516 163.742 13.6 163.526 13.768C163.31 13.936 163.202 14.12 163.202 14.32C163.202 14.512 163.286 14.676 163.454 14.812C163.622 14.948 163.95 15.096 164.438 15.256C165.23 15.52 165.782 15.812 166.094 16.132C166.406 16.452 166.562 16.852 166.562 17.332C166.562 17.892 166.334 18.336 165.878 18.664C165.43 18.984 164.826 19.144 164.066 19.144Z" fill="#015486"/>
<path d="M43.89 32.45H40.85L40.29 34H39.33L41.85 27.07H42.9L45.41 34H44.45L43.89 32.45ZM43.63 31.71L42.37 28.19L41.11 31.71H43.63ZM48.8483 33.16L50.5483 28.52H51.5183L49.3683 34H48.3083L46.1583 28.52H47.1383L48.8483 33.16ZM53.0038 34.06C52.8304 34.06 52.6838 34 52.5638 33.88C52.4438 33.76 52.3838 33.6133 52.3838 33.44C52.3838 33.2667 52.4438 33.12 52.5638 33C52.6838 32.88 52.8304 32.82 53.0038 32.82C53.1704 32.82 53.3104 32.88 53.4238 33C53.5438 33.12 53.6038 33.2667 53.6038 33.44C53.6038 33.6133 53.5438 33.76 53.4238 33.88C53.3104 34 53.1704 34.06 53.0038 34.06ZM63.6694 35.32L62.2794 33.93C61.9394 34.0233 61.5927 34.07 61.2394 34.07C60.5927 34.07 60.0027 33.92 59.4694 33.62C58.936 33.3133 58.5127 32.89 58.1994 32.35C57.8927 31.8033 57.7394 31.19 57.7394 30.51C57.7394 29.83 57.8927 29.22 58.1994 28.68C58.5127 28.1333 58.936 27.71 59.4694 27.41C60.0027 27.1033 60.5927 26.95 61.2394 26.95C61.8927 26.95 62.486 27.1033 63.0194 27.41C63.5527 27.71 63.9727 28.13 64.2794 28.67C64.586 29.21 64.7394 29.8233 64.7394 30.51C64.7394 31.1767 64.5927 31.7767 64.2994 32.31C64.006 32.8433 63.6027 33.2633 63.0894 33.57L64.8494 35.32H63.6694ZM58.6694 30.51C58.6694 31.0633 58.7794 31.55 58.9994 31.97C59.226 32.39 59.5327 32.7133 59.9194 32.94C60.3127 33.1667 60.7527 33.28 61.2394 33.28C61.726 33.28 62.1627 33.1667 62.5494 32.94C62.9427 32.7133 63.2494 32.39 63.4694 31.97C63.696 31.55 63.8094 31.0633 63.8094 30.51C63.8094 29.95 63.696 29.4633 63.4694 29.05C63.2494 28.63 62.946 28.3067 62.5594 28.08C62.1727 27.8533 61.7327 27.74 61.2394 27.74C60.746 27.74 60.306 27.8533 59.9194 28.08C59.5327 28.3067 59.226 28.63 58.9994 29.05C58.7794 29.4633 58.6694 29.95 58.6694 30.51ZM71.1202 28.52V34H70.2102V33.19C70.0369 33.47 69.7936 33.69 69.4802 33.85C69.1736 34.0033 68.8336 34.08 68.4602 34.08C68.0336 34.08 67.6502 33.9933 67.3102 33.82C66.9702 33.64 66.7002 33.3733 66.5002 33.02C66.3069 32.6667 66.2102 32.2367 66.2102 31.73V28.52H67.1102V31.61C67.1102 32.15 67.2469 32.5667 67.5202 32.86C67.7936 33.1467 68.1669 33.29 68.6402 33.29C69.1269 33.29 69.5102 33.14 69.7902 32.84C70.0702 32.54 70.2102 32.1033 70.2102 31.53V28.52H71.1202ZM73.4267 27.63C73.2534 27.63 73.1067 27.57 72.9867 27.45C72.8667 27.33 72.8067 27.1833 72.8067 27.01C72.8067 26.8367 72.8667 26.69 72.9867 26.57C73.1067 26.45 73.2534 26.39 73.4267 26.39C73.5934 26.39 73.7334 26.45 73.8467 26.57C73.9667 26.69 74.0267 26.8367 74.0267 27.01C74.0267 27.1833 73.9667 27.33 73.8467 27.45C73.7334 27.57 73.5934 27.63 73.4267 27.63ZM73.8667 28.52V34H72.9567V28.52H73.8667ZM78.3877 28.42C79.0543 28.42 79.5943 28.6233 80.0077 29.03C80.421 29.43 80.6277 30.01 80.6277 30.77V34H79.7277V30.9C79.7277 30.3533 79.591 29.9367 79.3177 29.65C79.0443 29.3567 78.671 29.21 78.1977 29.21C77.7177 29.21 77.3343 29.36 77.0477 29.66C76.7677 29.96 76.6277 30.3967 76.6277 30.97V34H75.7177V28.52H76.6277V29.3C76.8077 29.02 77.051 28.8033 77.3577 28.65C77.671 28.4967 78.0143 28.42 78.3877 28.42ZM83.5241 29.27V32.5C83.5241 32.7667 83.5808 32.9567 83.6941 33.07C83.8075 33.1767 84.0041 33.23 84.2841 33.23H84.9541V34H84.1341C83.6275 34 83.2475 33.8833 82.9941 33.65C82.7408 33.4167 82.6141 33.0333 82.6141 32.5V29.27H81.9041V28.52H82.6141V27.14H83.5241V28.52H84.9541V29.27H83.5241ZM86.8267 27.63C86.6534 27.63 86.5067 27.57 86.3867 27.45C86.2667 27.33 86.2067 27.1833 86.2067 27.01C86.2067 26.8367 86.2667 26.69 86.3867 26.57C86.5067 26.45 86.6534 26.39 86.8267 26.39C86.9934 26.39 87.1334 26.45 87.2467 26.57C87.3667 26.69 87.4267 26.8367 87.4267 27.01C87.4267 27.1833 87.3667 27.33 87.2467 27.45C87.1334 27.57 86.9934 27.63 86.8267 27.63ZM87.2667 28.52V34H86.3567V28.52H87.2667ZM91.7877 28.42C92.4543 28.42 92.9943 28.6233 93.4077 29.03C93.821 29.43 94.0277 30.01 94.0277 30.77V34H93.1277V30.9C93.1277 30.3533 92.991 29.9367 92.7177 29.65C92.4443 29.3567 92.071 29.21 91.5977 29.21C91.1177 29.21 90.7343 29.36 90.4477 29.66C90.1677 29.96 90.0277 30.3967 90.0277 30.97V34H89.1177V28.52H90.0277V29.3C90.2077 29.02 90.451 28.8033 90.7577 28.65C91.071 28.4967 91.4143 28.42 91.7877 28.42ZM98.2041 34.09C97.6908 34.09 97.2241 33.9733 96.8041 33.74C96.3908 33.5067 96.0641 33.1767 95.8241 32.75C95.5908 32.3167 95.4741 31.8167 95.4741 31.25C95.4741 30.69 95.5941 30.1967 95.8341 29.77C96.0808 29.3367 96.4141 29.0067 96.8341 28.78C97.2541 28.5467 97.7241 28.43 98.2441 28.43C98.7641 28.43 99.2341 28.5467 99.6541 28.78C100.074 29.0067 100.404 29.3333 100.644 29.76C100.891 30.1867 101.014 30.6833 101.014 31.25C101.014 31.8167 100.887 32.3167 100.634 32.75C100.387 33.1767 100.051 33.5067 99.6241 33.74C99.1975 33.9733 98.7241 34.09 98.2041 34.09ZM98.2041 33.29C98.5308 33.29 98.8375 33.2133 99.1241 33.06C99.4108 32.9067 99.6408 32.6767 99.8141 32.37C99.9941 32.0633 100.084 31.69 100.084 31.25C100.084 30.81 99.9975 30.4367 99.8241 30.13C99.6508 29.8233 99.4241 29.5967 99.1441 29.45C98.8641 29.2967 98.5608 29.22 98.2341 29.22C97.9008 29.22 97.5941 29.2967 97.3141 29.45C97.0408 29.5967 96.8208 29.8233 96.6541 30.13C96.4875 30.4367 96.4041 30.81 96.4041 31.25C96.4041 31.6967 96.4841 32.0733 96.6441 32.38C96.8108 32.6867 97.0308 32.9167 97.3041 33.07C97.5775 33.2167 97.8775 33.29 98.2041 33.29ZM108.967 30.41C109.22 30.45 109.45 30.5533 109.657 30.72C109.87 30.8867 110.037 31.0933 110.157 31.34C110.283 31.5867 110.347 31.85 110.347 32.13C110.347 32.4833 110.257 32.8033 110.077 33.09C109.897 33.37 109.633 33.5933 109.287 33.76C108.947 33.92 108.543 34 108.077 34H105.477V27.03H107.977C108.45 27.03 108.853 27.11 109.187 27.27C109.52 27.4233 109.77 27.6333 109.937 27.9C110.103 28.1667 110.187 28.4667 110.187 28.8C110.187 29.2133 110.073 29.5567 109.847 29.83C109.627 30.0967 109.333 30.29 108.967 30.41ZM106.387 30.04H107.917C108.343 30.04 108.673 29.94 108.907 29.74C109.14 29.54 109.257 29.2633 109.257 28.91C109.257 28.5567 109.14 28.28 108.907 28.08C108.673 27.88 108.337 27.78 107.897 27.78H106.387V30.04ZM107.997 33.25C108.45 33.25 108.803 33.1433 109.057 32.93C109.31 32.7167 109.437 32.42 109.437 32.04C109.437 31.6533 109.303 31.35 109.037 31.13C108.77 30.9033 108.413 30.79 107.967 30.79H106.387V33.25H107.997ZM114.299 34.09C113.786 34.09 113.319 33.9733 112.899 33.74C112.486 33.5067 112.159 33.1767 111.919 32.75C111.686 32.3167 111.569 31.8167 111.569 31.25C111.569 30.69 111.689 30.1967 111.929 29.77C112.176 29.3367 112.509 29.0067 112.929 28.78C113.349 28.5467 113.819 28.43 114.339 28.43C114.859 28.43 115.329 28.5467 115.749 28.78C116.169 29.0067 116.499 29.3333 116.739 29.76C116.986 30.1867 117.109 30.6833 117.109 31.25C117.109 31.8167 116.983 32.3167 116.729 32.75C116.483 33.1767 116.146 33.5067 115.719 33.74C115.293 33.9733 114.819 34.09 114.299 34.09ZM114.299 33.29C114.626 33.29 114.933 33.2133 115.219 33.06C115.506 32.9067 115.736 32.6767 115.909 32.37C116.089 32.0633 116.179 31.69 116.179 31.25C116.179 30.81 116.093 30.4367 115.919 30.13C115.746 29.8233 115.519 29.5967 115.239 29.45C114.959 29.2967 114.656 29.22 114.329 29.22C113.996 29.22 113.689 29.2967 113.409 29.45C113.136 29.5967 112.916 29.8233 112.749 30.13C112.583 30.4367 112.499 30.81 112.499 31.25C112.499 31.6967 112.579 32.0733 112.739 32.38C112.906 32.6867 113.126 32.9167 113.399 33.07C113.673 33.2167 113.973 33.29 114.299 33.29ZM118.266 31.25C118.266 30.6833 118.379 30.19 118.606 29.77C118.833 29.3433 119.146 29.0133 119.546 28.78C119.953 28.5467 120.416 28.43 120.936 28.43C121.609 28.43 122.163 28.5933 122.596 28.92C123.036 29.2467 123.326 29.7 123.466 30.28H122.486C122.393 29.9467 122.209 29.6833 121.936 29.49C121.669 29.2967 121.336 29.2 120.936 29.2C120.416 29.2 119.996 29.38 119.676 29.74C119.356 30.0933 119.196 30.5967 119.196 31.25C119.196 31.91 119.356 32.42 119.676 32.78C119.996 33.14 120.416 33.32 120.936 33.32C121.336 33.32 121.669 33.2267 121.936 33.04C122.203 32.8533 122.386 32.5867 122.486 32.24H123.466C123.319 32.8 123.026 33.25 122.586 33.59C122.146 33.9233 121.596 34.09 120.936 34.09C120.416 34.09 119.953 33.9733 119.546 33.74C119.146 33.5067 118.833 33.1767 118.606 32.75C118.379 32.3233 118.266 31.8233 118.266 31.25ZM124.64 31.24C124.64 30.68 124.753 30.19 124.98 29.77C125.207 29.3433 125.517 29.0133 125.91 28.78C126.31 28.5467 126.753 28.43 127.24 28.43C127.72 28.43 128.137 28.5333 128.49 28.74C128.843 28.9467 129.107 29.2067 129.28 29.52V28.52H130.2V34H129.28V32.98C129.1 33.3 128.83 33.5667 128.47 33.78C128.117 33.9867 127.703 34.09 127.23 34.09C126.743 34.09 126.303 33.97 125.91 33.73C125.517 33.49 125.207 33.1533 124.98 32.72C124.753 32.2867 124.64 31.7933 124.64 31.24ZM129.28 31.25C129.28 30.8367 129.197 30.4767 129.03 30.17C128.863 29.8633 128.637 29.63 128.35 29.47C128.07 29.3033 127.76 29.22 127.42 29.22C127.08 29.22 126.77 29.3 126.49 29.46C126.21 29.62 125.987 29.8533 125.82 30.16C125.653 30.4667 125.57 30.8267 125.57 31.24C125.57 31.66 125.653 32.0267 125.82 32.34C125.987 32.6467 126.21 32.8833 126.49 33.05C126.77 33.21 127.08 33.29 127.42 33.29C127.76 33.29 128.07 33.21 128.35 33.05C128.637 32.8833 128.863 32.6467 129.03 32.34C129.197 32.0267 129.28 31.6633 129.28 31.25ZM132.508 27.63C132.335 27.63 132.188 27.57 132.068 27.45C131.948 27.33 131.888 27.1833 131.888 27.01C131.888 26.8367 131.948 26.69 132.068 26.57C132.188 26.45 132.335 26.39 132.508 26.39C132.675 26.39 132.815 26.45 132.928 26.57C133.048 26.69 133.108 26.8367 133.108 27.01C133.108 27.1833 133.048 27.33 132.928 27.45C132.815 27.57 132.675 27.63 132.508 27.63ZM132.948 28.52V34H132.038V28.52H132.948ZM139.659 28.52V34H138.749V33.19C138.576 33.47 138.332 33.69 138.019 33.85C137.712 34.0033 137.372 34.08 136.999 34.08C136.572 34.08 136.189 33.9933 135.849 33.82C135.509 33.64 135.239 33.3733 135.039 33.02C134.846 32.6667 134.749 32.2367 134.749 31.73V28.52H135.649V31.61C135.649 32.15 135.786 32.5667 136.059 32.86C136.332 33.1467 136.706 33.29 137.179 33.29C137.666 33.29 138.049 33.14 138.329 32.84C138.609 32.54 138.749 32.1033 138.749 31.53V28.52H139.659ZM138.209 26.97L136.079 28.11V27.43L138.209 26.18V26.97ZM143.535 33.16L145.235 28.52H146.205L144.055 34H142.995L140.845 28.52H141.825L143.535 33.16ZM147.061 31.24C147.061 30.68 147.174 30.19 147.401 29.77C147.628 29.3433 147.938 29.0133 148.331 28.78C148.731 28.5467 149.174 28.43 149.661 28.43C150.141 28.43 150.558 28.5333 150.911 28.74C151.264 28.9467 151.528 29.2067 151.701 29.52V28.52H152.621V34H151.701V32.98C151.521 33.3 151.251 33.5667 150.891 33.78C150.538 33.9867 150.124 34.09 149.651 34.09C149.164 34.09 148.724 33.97 148.331 33.73C147.938 33.49 147.628 33.1533 147.401 32.72C147.174 32.2867 147.061 31.7933 147.061 31.24ZM151.701 31.25C151.701 30.8367 151.618 30.4767 151.451 30.17C151.284 29.8633 151.058 29.63 150.771 29.47C150.491 29.3033 150.181 29.22 149.841 29.22C149.501 29.22 149.191 29.3 148.911 29.46C148.631 29.62 148.408 29.8533 148.241 30.16C148.074 30.4667 147.991 30.8267 147.991 31.24C147.991 31.66 148.074 32.0267 148.241 32.34C148.408 32.6467 148.631 32.8833 148.911 33.05C149.191 33.21 149.501 33.29 149.841 33.29C150.181 33.29 150.491 33.21 150.771 33.05C151.058 32.8833 151.284 32.6467 151.451 32.34C151.618 32.0267 151.701 31.6633 151.701 31.25ZM157.255 28.59C157.301 27.9767 157.538 27.4967 157.965 27.15C158.391 26.8033 158.945 26.63 159.625 26.63C160.078 26.63 160.468 26.7133 160.795 26.88C161.128 27.04 161.378 27.26 161.545 27.54C161.718 27.82 161.805 28.1367 161.805 28.49C161.805 28.9033 161.685 29.26 161.445 29.56C161.211 29.86 160.905 30.0533 160.525 30.14V30.19C160.958 30.2967 161.301 30.5067 161.555 30.82C161.808 31.1333 161.935 31.5433 161.935 32.05C161.935 32.43 161.848 32.7733 161.675 33.08C161.501 33.38 161.241 33.6167 160.895 33.79C160.548 33.9633 160.131 34.05 159.645 34.05C158.938 34.05 158.358 33.8667 157.905 33.5C157.451 33.1267 157.198 32.6 157.145 31.92H158.025C158.071 32.32 158.235 32.6467 158.515 32.9C158.795 33.1533 159.168 33.28 159.635 33.28C160.101 33.28 160.455 33.16 160.695 32.92C160.941 32.6733 161.065 32.3567 161.065 31.97C161.065 31.47 160.898 31.11 160.565 30.89C160.231 30.67 159.728 30.56 159.055 30.56H158.825V29.8H159.065C159.678 29.7933 160.141 29.6933 160.455 29.5C160.768 29.3 160.925 28.9933 160.925 28.58C160.925 28.2267 160.808 27.9433 160.575 27.73C160.348 27.5167 160.021 27.41 159.595 27.41C159.181 27.41 158.848 27.5167 158.595 27.73C158.341 27.9433 158.191 28.23 158.145 28.59H157.255ZM168.073 27.56H164.563V29.84C164.717 29.6267 164.943 29.4533 165.243 29.32C165.543 29.18 165.867 29.11 166.213 29.11C166.767 29.11 167.217 29.2267 167.563 29.46C167.91 29.6867 168.157 29.9833 168.303 30.35C168.457 30.71 168.533 31.0933 168.533 31.5C168.533 31.98 168.443 32.41 168.263 32.79C168.083 33.17 167.807 33.47 167.433 33.69C167.067 33.91 166.61 34.02 166.063 34.02C165.363 34.02 164.797 33.84 164.363 33.48C163.93 33.12 163.667 32.64 163.573 32.04H164.463C164.55 32.42 164.733 32.7167 165.013 32.93C165.293 33.1433 165.647 33.25 166.073 33.25C166.6 33.25 166.997 33.0933 167.263 32.78C167.53 32.46 167.663 32.04 167.663 31.52C167.663 31 167.53 30.6 167.263 30.32C166.997 30.0333 166.603 29.89 166.083 29.89C165.73 29.89 165.42 29.9767 165.153 30.15C164.893 30.3167 164.703 30.5467 164.583 30.84H163.723V26.76H168.073V27.56ZM174.653 27.56H171.143V29.84C171.296 29.6267 171.523 29.4533 171.823 29.32C172.123 29.18 172.446 29.11 172.793 29.11C173.346 29.11 173.796 29.2267 174.143 29.46C174.489 29.6867 174.736 29.9833 174.883 30.35C175.036 30.71 175.113 31.0933 175.113 31.5C175.113 31.98 175.023 32.41 174.843 32.79C174.663 33.17 174.386 33.47 174.013 33.69C173.646 33.91 173.189 34.02 172.643 34.02C171.943 34.02 171.376 33.84 170.943 33.48C170.509 33.12 170.246 32.64 170.153 32.04H171.043C171.129 32.42 171.313 32.7167 171.593 32.93C171.873 33.1433 172.226 33.25 172.653 33.25C173.179 33.25 173.576 33.0933 173.843 32.78C174.109 32.46 174.243 32.04 174.243 31.52C174.243 31 174.109 30.6 173.843 30.32C173.576 30.0333 173.183 29.89 172.663 29.89C172.309 29.89 171.999 29.9767 171.733 30.15C171.473 30.3167 171.283 30.5467 171.163 30.84H170.303V26.76H174.653V27.56Z" fill="#98A4AE"/>
<path d="M73.9434 45.5L108.058 45.5L91.001 68.3301L73.9434 45.5Z" fill="white" stroke="#015486" stroke-width="2"/>
<path d="M91 65L71.0814 41L110.919 41L91 65Z" fill="white"/>
<path d="M31.155 11.978C30.2796 11.4725 29.3132 11.1443 28.311 11.0123C27.3088 10.8803 26.2904 10.947 25.314 11.2086C24.3376 11.4702 23.4223 11.9215 22.6203 12.5369C21.8183 13.1523 21.1454 13.9196 20.64 14.795L20.35 15.297C20.2507 15.4693 20.2239 15.6739 20.2755 15.8659C20.3271 16.0579 20.4528 16.2216 20.625 16.321L26.086 19.474L22.818 25.194L22.75 25.193C19.592 25.193 16.857 27.025 15.228 29.615C15.5062 29.5166 15.8027 29.481 16.0963 29.5108C16.3898 29.5405 16.6732 29.6348 16.926 29.787C18.338 27.921 20.444 26.693 22.75 26.693C25.154 26.693 27.341 28.028 28.75 30.029C28.9448 29.8497 29.1733 29.7109 29.4222 29.6206C29.6711 29.5303 29.9355 29.4903 30.2 29.503C28.869 27.445 26.833 25.883 24.444 25.372L27.385 20.224L32.658 23.269C32.7433 23.3183 32.8376 23.3503 32.9353 23.3631C33.033 23.376 33.1323 23.3695 33.2275 23.3439C33.3227 23.3184 33.4119 23.2743 33.4901 23.2143C33.5682 23.1543 33.6338 23.0794 33.683 22.994L33.973 22.493C34.4785 21.6176 34.8065 20.6511 34.9385 19.6489C35.0704 18.6466 35.0036 17.6282 34.742 16.6518C34.4803 15.6754 34.0288 14.7601 33.4134 13.9581C32.7979 13.1562 32.0305 12.4833 31.155 11.978ZM28.965 19.404L25.807 17.58C26.379 16.699 26.923 16.028 27.575 15.435C28.21 14.857 28.968 14.335 29.996 13.767C30.148 14.722 30.194 15.517 30.096 16.297C29.98 17.229 29.651 18.19 28.963 19.403M30.261 20.153C31.021 18.815 31.437 17.663 31.584 16.483C31.681 15.709 31.659 14.945 31.562 14.138C32.5536 15.0759 33.208 16.3148 33.4237 17.6625C33.6394 19.0102 33.4043 20.3915 32.755 21.592L30.261 20.153ZM26.565 14.325C25.775 15.044 25.14 15.844 24.505 16.829L22.025 15.397C22.7247 14.2594 23.773 13.3782 25.014 12.8845C26.2549 12.3908 27.6221 12.311 28.912 12.657C27.983 13.192 27.227 13.722 26.565 14.325ZM16.605 31.263C16.5536 31.1087 16.4535 30.9752 16.3197 30.8828C16.1859 30.7903 16.0257 30.7439 15.8632 30.7504C15.7007 30.757 15.5447 30.8162 15.4188 30.9191C15.2928 31.022 15.2038 31.163 15.165 31.321C14.91 32.363 14.427 32.935 13.877 33.267C13.301 33.615 12.567 33.749 11.748 33.749C11.5491 33.749 11.3583 33.828 11.2177 33.9687C11.077 34.1093 10.998 34.3001 10.998 34.499C10.998 34.6979 11.077 34.8887 11.2177 35.0293C11.3583 35.17 11.5491 35.249 11.748 35.249C12.705 35.249 13.748 35.097 14.652 34.551C15.1912 34.2252 15.6459 33.7767 15.979 33.242C17.768 35.524 21.261 35.512 22.998 33.218C24.763 35.548 28.338 35.524 30.101 33.132C30.5796 33.7834 31.2038 34.3141 31.9238 34.6816C32.6437 35.0492 33.4396 35.2435 34.248 35.249C34.4469 35.249 34.6377 35.17 34.7783 35.0293C34.919 34.8887 34.998 34.6979 34.998 34.499C34.998 34.3001 34.919 34.1093 34.7783 33.9687C34.6377 33.828 34.4469 33.749 34.248 33.749C32.773 33.749 31.303 32.789 30.818 31.271C30.77 31.1199 30.6754 30.9879 30.5477 30.894C30.42 30.8001 30.2659 30.749 30.1074 30.7481C29.9489 30.7472 29.7942 30.7965 29.6655 30.8891C29.5368 30.9816 29.4407 31.1125 29.391 31.263C28.428 34.172 24.653 34.135 23.707 31.384C23.6561 31.2364 23.5604 31.1085 23.4333 31.0179C23.3062 30.9273 23.1541 30.8786 22.998 30.8786C22.8419 30.8786 22.6897 30.9273 22.5626 31.0179C22.4355 31.1085 22.3399 31.2364 22.289 31.384C21.343 34.135 17.569 34.171 16.605 31.263Z" fill="#015486"/>
<defs>
<linearGradient id="paint0_linear_294_327" x1="179.069" y1="0.748829" x2="-69.2821" y2="206.234" gradientUnits="userSpaceOnUse">
<stop stop-color="white"/>
</linearGradient>
</defs>
</svg>
