<svg width="181" height="70" viewBox="0 0 181 70" fill="none" xmlns="http://www.w3.org/2000/svg">
<path d="M20 1H161C171.493 1 180 9.50659 180 20V26C180 36.4934 171.493 45 161 45H20C9.50659 45 1 36.4934 1 26V20C1 9.50659 9.50659 1 20 1Z" fill="url(#paint0_linear_294_404)" stroke="#015486" stroke-width="2"/>
<path d="M40.17 20V10.926C40.5253 10.8827 40.9153 10.8523 41.34 10.835C41.7733 10.809 42.2197 10.796 42.679 10.796C43.433 10.796 44.0743 10.9173 44.603 11.16C45.1317 11.394 45.5347 11.719 45.812 12.135C46.0893 12.551 46.228 13.0277 46.228 13.565C46.228 14.215 46.0677 14.7653 45.747 15.216C45.4263 15.6667 44.98 16.0133 44.408 16.256C43.836 16.49 43.173 16.607 42.419 16.607C42.055 16.607 41.717 16.594 41.405 16.568V20H40.17ZM42.575 15.58C43.3463 15.58 43.9443 15.4067 44.369 15.06C44.7937 14.7133 45.006 14.2497 45.006 13.669C45.006 13.1057 44.8023 12.6593 44.395 12.33C43.9877 12.0007 43.407 11.836 42.653 11.836C42.419 11.836 42.198 11.8403 41.99 11.849C41.782 11.8577 41.587 11.8707 41.405 11.888V15.515C41.5437 15.5323 41.7127 15.5497 41.912 15.567C42.1113 15.5757 42.3323 15.58 42.575 15.58ZM47.8937 20V13.24H49.0247V14.709C49.1374 14.423 49.289 14.1587 49.4797 13.916C49.6704 13.6647 49.9087 13.4653 50.1947 13.318C50.4807 13.162 50.8144 13.084 51.1957 13.084C51.3257 13.084 51.4557 13.0927 51.5857 13.11C51.7157 13.1187 51.824 13.136 51.9107 13.162L51.5597 14.371C51.395 14.3017 51.2 14.267 50.9747 14.267C50.654 14.267 50.3464 14.358 50.0517 14.54C49.7657 14.722 49.5274 15.0037 49.3367 15.385C49.1547 15.7663 49.0637 16.2517 49.0637 16.841V20H47.8937ZM55.5795 20.156C55.0162 20.156 54.5049 20.013 54.0455 19.727C53.5862 19.441 53.2179 19.038 52.9405 18.518C52.6719 17.9893 52.5375 17.3697 52.5375 16.659C52.5375 15.983 52.6719 15.3763 52.9405 14.839C53.2179 14.3017 53.5949 13.877 54.0715 13.565C54.5569 13.2443 55.1115 13.084 55.7355 13.084C56.1255 13.084 56.4765 13.1533 56.7885 13.292C57.1092 13.422 57.3865 13.5867 57.6205 13.786V13.24H58.6865V18.362C58.6865 18.6913 58.7645 18.908 58.9205 19.012C59.0852 19.1073 59.2629 19.155 59.4535 19.155L59.2065 20.065C58.3745 20.065 57.8719 19.727 57.6985 19.051C57.4992 19.3283 57.2262 19.584 56.8795 19.818C56.5415 20.0433 56.1082 20.156 55.5795 20.156ZM55.8395 19.116C56.1689 19.116 56.4809 19.038 56.7755 18.882C57.0702 18.7173 57.3172 18.5137 57.5165 18.271V14.644C57.2825 14.4793 57.0225 14.3493 56.7365 14.254C56.4592 14.15 56.1645 14.098 55.8525 14.098C55.4365 14.098 55.0682 14.2063 54.7475 14.423C54.4355 14.631 54.1885 14.9257 54.0065 15.307C53.8245 15.6797 53.7335 16.1173 53.7335 16.62C53.7335 17.1053 53.8245 17.5387 54.0065 17.92C54.1885 18.2927 54.4399 18.5873 54.7605 18.804C55.0812 19.012 55.4409 19.116 55.8395 19.116ZM61.316 20V13.24H62.486V20H61.316ZM61.901 12.083C61.6756 12.083 61.4806 12.0007 61.316 11.836C61.16 11.6713 61.082 11.4807 61.082 11.264C61.082 11.0127 61.1556 10.8133 61.303 10.666C61.4503 10.5187 61.6496 10.445 61.901 10.445C62.1263 10.445 62.317 10.5273 62.473 10.692C62.6376 10.848 62.72 11.0387 62.72 11.264C62.72 11.5067 62.6463 11.706 62.499 11.862C62.3516 12.0093 62.1523 12.083 61.901 12.083ZM67.453 20.156C66.8896 20.156 66.3783 20.013 65.919 19.727C65.4596 19.441 65.0913 19.038 64.814 18.518C64.5453 17.9893 64.411 17.3697 64.411 16.659C64.411 15.983 64.5453 15.3763 64.814 14.839C65.0913 14.3017 65.4683 13.877 65.945 13.565C66.4303 13.2443 66.985 13.084 67.609 13.084C67.999 13.084 68.35 13.1533 68.662 13.292C68.9826 13.422 69.26 13.5867 69.494 13.786V13.24H70.56V18.362C70.56 18.6913 70.638 18.908 70.794 19.012C70.9586 19.1073 71.1363 19.155 71.327 19.155L71.08 20.065C70.248 20.065 69.7453 19.727 69.572 19.051C69.3726 19.3283 69.0996 19.584 68.753 19.818C68.415 20.0433 67.9816 20.156 67.453 20.156ZM67.713 19.116C68.0423 19.116 68.3543 19.038 68.649 18.882C68.9436 18.7173 69.1906 18.5137 69.39 18.271V14.644C69.156 14.4793 68.896 14.3493 68.61 14.254C68.3326 14.15 68.038 14.098 67.726 14.098C67.31 14.098 66.9416 14.2063 66.621 14.423C66.309 14.631 66.062 14.9257 65.88 15.307C65.698 15.6797 65.607 16.1173 65.607 16.62C65.607 17.1053 65.698 17.5387 65.88 17.92C66.062 18.2927 66.3133 18.5873 66.634 18.804C66.9546 19.012 67.3143 19.116 67.713 19.116ZM79.9479 20.156C79.3932 20.156 78.8862 20.013 78.4269 19.727C77.9675 19.441 77.6035 19.038 77.3349 18.518C77.0662 17.9893 76.9319 17.3697 76.9319 16.659C76.9319 15.9743 77.0662 15.3633 77.3349 14.826C77.6122 14.2887 77.9762 13.864 78.4269 13.552C78.8862 13.24 79.3889 13.084 79.9349 13.084C80.3855 13.084 80.7712 13.175 81.0919 13.357C81.4212 13.539 81.6769 13.7253 81.8589 13.916V10.38H83.0289V18.362C83.0289 18.6913 83.1069 18.908 83.2629 19.012C83.4275 19.1073 83.6052 19.155 83.7959 19.155L83.5489 20.065C82.7255 20.065 82.2229 19.7357 82.0409 19.077C81.8502 19.3457 81.5815 19.5927 81.2349 19.818C80.8969 20.0433 80.4679 20.156 79.9479 20.156ZM80.2079 19.116C80.5285 19.116 80.8319 19.0423 81.1179 18.895C81.4125 18.739 81.6595 18.5397 81.8589 18.297V14.943C81.6942 14.735 81.4645 14.5443 81.1699 14.371C80.8752 14.189 80.5502 14.098 80.1949 14.098C79.7789 14.098 79.4149 14.2107 79.1029 14.436C78.7909 14.6613 78.5482 14.9647 78.3749 15.346C78.2102 15.7187 78.1279 16.1433 78.1279 16.62C78.1279 17.0967 78.2189 17.5257 78.4009 17.907C78.5829 18.2797 78.8299 18.5743 79.1419 18.791C79.4625 19.0077 79.8179 19.116 80.2079 19.116ZM88.2366 20.156C87.2659 20.156 86.4946 19.8483 85.9226 19.233C85.3592 18.609 85.0776 17.738 85.0776 16.62C85.0776 15.944 85.2032 15.3417 85.4546 14.813C85.7146 14.2757 86.0742 13.8553 86.5336 13.552C86.9929 13.24 87.5259 13.084 88.1326 13.084C88.7826 13.084 89.3199 13.227 89.7446 13.513C90.1779 13.7903 90.5029 14.1673 90.7196 14.644C90.9362 15.1207 91.0446 15.645 91.0446 16.217C91.0446 16.5203 91.0316 16.815 91.0056 17.101H86.2736C86.3516 17.7337 86.5726 18.2277 86.9366 18.583C87.3006 18.9383 87.7816 19.116 88.3796 19.116C88.7696 19.116 89.1206 19.077 89.4326 18.999C89.7446 18.9123 90.0436 18.804 90.3296 18.674L90.6026 19.675C90.2906 19.8137 89.9396 19.9263 89.5496 20.013C89.1596 20.1083 88.7219 20.156 88.2366 20.156ZM86.2606 16.152H89.9656C89.9656 15.4933 89.8009 14.9863 89.4716 14.631C89.1422 14.2757 88.6872 14.098 88.1066 14.098C87.6039 14.098 87.1879 14.2757 86.8586 14.631C86.5292 14.9777 86.3299 15.4847 86.2606 16.152ZM100.728 20.156C99.9397 20.156 99.242 19.9697 98.6353 19.597C98.0287 19.2157 97.5563 18.6783 97.2183 17.985C96.8803 17.283 96.7113 16.451 96.7113 15.489C96.7113 14.5617 96.8803 13.7427 97.2183 13.032C97.565 12.3127 98.0503 11.7537 98.6743 11.355C99.307 10.9477 100.044 10.744 100.884 10.744C101.318 10.744 101.712 10.7873 102.067 10.874C102.423 10.952 102.756 11.0647 103.068 11.212L102.691 12.252C102.423 12.122 102.145 12.018 101.859 11.94C101.582 11.862 101.253 11.823 100.871 11.823C100.317 11.823 99.8183 11.966 99.3763 12.252C98.943 12.538 98.6007 12.9497 98.3493 13.487C98.098 14.0243 97.9723 14.6743 97.9723 15.437C97.9723 16.165 98.0937 16.802 98.3363 17.348C98.5877 17.894 98.93 18.3187 99.3633 18.622C99.8053 18.9253 100.308 19.077 100.871 19.077C101.296 19.077 101.664 19.025 101.976 18.921C102.288 18.817 102.592 18.6827 102.886 18.518L103.263 19.545C102.943 19.7183 102.574 19.8657 102.158 19.987C101.751 20.0997 101.274 20.156 100.728 20.156ZM107.314 20.156C106.75 20.156 106.239 20.013 105.78 19.727C105.32 19.441 104.952 19.038 104.675 18.518C104.406 17.9893 104.272 17.3697 104.272 16.659C104.272 15.983 104.406 15.3763 104.675 14.839C104.952 14.3017 105.329 13.877 105.806 13.565C106.291 13.2443 106.846 13.084 107.47 13.084C107.86 13.084 108.211 13.1533 108.523 13.292C108.843 13.422 109.121 13.5867 109.355 13.786V13.24H110.421V18.362C110.421 18.6913 110.499 18.908 110.655 19.012C110.819 19.1073 110.997 19.155 111.188 19.155L110.941 20.065C110.109 20.065 109.606 19.727 109.433 19.051C109.233 19.3283 108.96 19.584 108.614 19.818C108.276 20.0433 107.842 20.156 107.314 20.156ZM107.574 19.116C107.903 19.116 108.215 19.038 108.51 18.882C108.804 18.7173 109.051 18.5137 109.251 18.271V14.644C109.017 14.4793 108.757 14.3493 108.471 14.254C108.193 14.15 107.899 14.098 107.587 14.098C107.171 14.098 106.802 14.2063 106.482 14.423C106.17 14.631 105.923 14.9257 105.741 15.307C105.559 15.6797 105.468 16.1173 105.468 16.62C105.468 17.1053 105.559 17.5387 105.741 17.92C105.923 18.2927 106.174 18.5873 106.495 18.804C106.815 19.012 107.175 19.116 107.574 19.116ZM113.05 20V13.24H114.181V14.371C114.424 14.007 114.731 13.7037 115.104 13.461C115.477 13.2097 115.901 13.084 116.378 13.084C116.915 13.084 117.353 13.214 117.691 13.474C118.038 13.734 118.28 14.0807 118.419 14.514C118.688 14.1153 119.004 13.7773 119.368 13.5C119.741 13.2227 120.2 13.084 120.746 13.084C121.483 13.084 122.029 13.318 122.384 13.786C122.748 14.2453 122.93 14.8477 122.93 15.593V20H121.76V15.684C121.76 15.216 121.652 14.839 121.435 14.553C121.218 14.2583 120.919 14.111 120.538 14.111C120.148 14.111 119.784 14.2583 119.446 14.553C119.117 14.839 118.826 15.177 118.575 15.567V20H117.405V15.684C117.405 15.216 117.297 14.839 117.08 14.553C116.863 14.2583 116.564 14.111 116.183 14.111C115.802 14.111 115.442 14.254 115.104 14.54C114.766 14.8173 114.471 15.1467 114.22 15.528V20H113.05ZM128.287 20.156C127.897 20.156 127.529 20.0867 127.182 19.948C126.844 19.8007 126.563 19.6317 126.337 19.441V20H125.245V10.38H126.415V13.942C126.589 13.7427 126.84 13.552 127.169 13.37C127.507 13.1793 127.906 13.084 128.365 13.084C128.885 13.084 129.371 13.2227 129.821 13.5C130.281 13.7687 130.649 14.163 130.926 14.683C131.204 15.1943 131.342 15.8183 131.342 16.555C131.342 17.0923 131.256 17.582 131.082 18.024C130.909 18.466 130.675 18.8473 130.38 19.168C130.094 19.48 129.769 19.7227 129.405 19.896C129.041 20.0693 128.669 20.156 128.287 20.156ZM127.975 19.116C128.4 19.116 128.773 19.012 129.093 18.804C129.423 18.596 129.678 18.3013 129.86 17.92C130.051 17.5387 130.146 17.0967 130.146 16.594C130.146 16.074 130.051 15.6277 129.86 15.255C129.678 14.8823 129.431 14.5963 129.119 14.397C128.816 14.1977 128.478 14.098 128.105 14.098C127.733 14.098 127.395 14.1933 127.091 14.384C126.797 14.566 126.571 14.7653 126.415 14.982V18.596C126.615 18.752 126.849 18.8777 127.117 18.973C127.386 19.0683 127.672 19.116 127.975 19.116ZM136.111 20.156C135.47 20.156 134.894 20.0087 134.382 19.714C133.871 19.4107 133.468 18.9947 133.173 18.466C132.887 17.9287 132.744 17.3133 132.744 16.62C132.744 15.892 132.892 15.2637 133.186 14.735C133.481 14.2063 133.884 13.799 134.395 13.513C134.907 13.227 135.479 13.084 136.111 13.084C136.744 13.084 137.312 13.227 137.814 13.513C138.326 13.799 138.729 14.2063 139.023 14.735C139.327 15.255 139.478 15.8747 139.478 16.594C139.478 17.3133 139.331 17.9417 139.036 18.479C138.742 19.0077 138.339 19.4193 137.827 19.714C137.325 20.0087 136.753 20.156 136.111 20.156ZM136.111 19.116C136.796 19.116 137.329 18.8863 137.71 18.427C138.092 17.959 138.282 17.3567 138.282 16.62C138.282 16.1693 138.187 15.7577 137.996 15.385C137.806 15.0037 137.546 14.7003 137.216 14.475C136.896 14.241 136.527 14.124 136.111 14.124C135.427 14.124 134.894 14.3493 134.512 14.8C134.131 15.2507 133.94 15.8487 133.94 16.594C133.94 17.0447 134.036 17.465 134.226 17.855C134.417 18.2363 134.673 18.544 134.993 18.778C135.323 19.0033 135.695 19.116 136.111 19.116ZM141.334 20V13.24H142.504V20H141.334ZM141.919 12.083C141.693 12.083 141.498 12.0007 141.334 11.836C141.178 11.6713 141.1 11.4807 141.1 11.264C141.1 11.0127 141.173 10.8133 141.321 10.666C141.468 10.5187 141.667 10.445 141.919 10.445C142.144 10.445 142.335 10.5273 142.491 10.692C142.655 10.848 142.738 11.0387 142.738 11.264C142.738 11.5067 142.664 11.706 142.517 11.862C142.369 12.0093 142.17 12.083 141.919 12.083ZM144.884 20V13.24H146.015V14.371C146.257 14.007 146.565 13.7037 146.938 13.461C147.319 13.2097 147.77 13.084 148.29 13.084C149.052 13.084 149.62 13.3137 149.993 13.773C150.374 14.2323 150.565 14.839 150.565 15.593V20H149.395V15.723C149.395 15.2377 149.278 14.8477 149.044 14.553C148.818 14.2583 148.502 14.111 148.095 14.111C147.696 14.111 147.319 14.254 146.964 14.54C146.608 14.8173 146.305 15.1467 146.054 15.528V20H144.884ZM152.877 20V10.38H154.047V14.319C154.29 13.9637 154.597 13.669 154.97 13.435C155.343 13.201 155.78 13.084 156.283 13.084C157.046 13.084 157.613 13.3137 157.986 13.773C158.367 14.2323 158.558 14.839 158.558 15.593V20H157.388V15.723C157.388 15.2377 157.275 14.8477 157.05 14.553C156.825 14.2583 156.508 14.111 156.101 14.111C155.702 14.111 155.321 14.254 154.957 14.54C154.602 14.8173 154.298 15.1467 154.047 15.528V20H152.877ZM163.457 20.156C162.894 20.156 162.383 20.013 161.923 19.727C161.464 19.441 161.096 19.038 160.818 18.518C160.55 17.9893 160.415 17.3697 160.415 16.659C160.415 15.983 160.55 15.3763 160.818 14.839C161.096 14.3017 161.473 13.877 161.949 13.565C162.435 13.2443 162.989 13.084 163.613 13.084C164.003 13.084 164.354 13.1533 164.666 13.292C164.987 13.422 165.264 13.5867 165.498 13.786V13.24H166.564V18.362C166.564 18.6913 166.642 18.908 166.798 19.012C166.963 19.1073 167.141 19.155 167.331 19.155L167.084 20.065C166.252 20.065 165.75 19.727 165.576 19.051C165.377 19.3283 165.104 19.584 164.757 19.818C164.419 20.0433 163.986 20.156 163.457 20.156ZM163.717 19.116C164.047 19.116 164.359 19.038 164.653 18.882C164.948 18.7173 165.195 18.5137 165.394 18.271V14.644C165.16 14.4793 164.9 14.3493 164.614 14.254C164.337 14.15 164.042 14.098 163.73 14.098C163.314 14.098 162.946 14.2063 162.625 14.423C162.313 14.631 162.066 14.9257 161.884 15.307C161.702 15.6797 161.611 16.1173 161.611 16.62C161.611 17.1053 161.702 17.5387 161.884 17.92C162.066 18.2927 162.318 18.5873 162.638 18.804C162.959 19.012 163.319 19.116 163.717 19.116ZM171.014 20.156C170.503 20.156 170.039 20.091 169.623 19.961C169.216 19.831 168.878 19.662 168.609 19.454L169.103 18.479C169.328 18.6697 169.61 18.83 169.948 18.96C170.295 19.0813 170.663 19.142 171.053 19.142C171.538 19.142 171.902 19.064 172.145 18.908C172.396 18.7433 172.522 18.5353 172.522 18.284C172.522 18.102 172.474 17.9417 172.379 17.803C172.292 17.6643 172.128 17.53 171.885 17.4C171.642 17.2613 171.291 17.114 170.832 16.958C170.199 16.7413 169.723 16.4857 169.402 16.191C169.09 15.8877 168.934 15.4717 168.934 14.943C168.934 14.423 169.159 13.9853 169.61 13.63C170.069 13.266 170.702 13.084 171.508 13.084C171.941 13.084 172.327 13.1317 172.665 13.227C173.003 13.3137 173.306 13.4263 173.575 13.565L173.25 14.527C173.016 14.3883 172.747 14.2757 172.444 14.189C172.149 14.1023 171.82 14.059 171.456 14.059C171.005 14.059 170.663 14.15 170.429 14.332C170.195 14.514 170.078 14.7133 170.078 14.93C170.078 15.138 170.169 15.3157 170.351 15.463C170.533 15.6103 170.888 15.7707 171.417 15.944C172.275 16.23 172.873 16.5463 173.211 16.893C173.549 17.2397 173.718 17.673 173.718 18.193C173.718 18.7997 173.471 19.2807 172.977 19.636C172.492 19.9827 171.837 20.156 171.014 20.156Z" fill="#015486"/>
<path d="M39.38 28.6V27.77H41.26V35H40.34V28.6H39.38ZM43.1231 31.31C43.1231 30.1633 43.3098 29.27 43.6831 28.63C44.0565 27.9833 44.7098 27.66 45.6431 27.66C46.5698 27.66 47.2198 27.9833 47.5931 28.63C47.9665 29.27 48.1531 30.1633 48.1531 31.31C48.1531 32.4767 47.9665 33.3833 47.5931 34.03C47.2198 34.6767 46.5698 35 45.6431 35C44.7098 35 44.0565 34.6767 43.6831 34.03C43.3098 33.3833 43.1231 32.4767 43.1231 31.31ZM47.2531 31.31C47.2531 30.73 47.2131 30.24 47.1331 29.84C47.0598 29.4333 46.9031 29.1067 46.6631 28.86C46.4298 28.6133 46.0898 28.49 45.6431 28.49C45.1898 28.49 44.8431 28.6133 44.6031 28.86C44.3698 29.1067 44.2131 29.4333 44.1331 29.84C44.0598 30.24 44.0231 30.73 44.0231 31.31C44.0231 31.91 44.0598 32.4133 44.1331 32.82C44.2131 33.2267 44.3698 33.5533 44.6031 33.8C44.8431 34.0467 45.1898 34.17 45.6431 34.17C46.0898 34.17 46.4298 34.0467 46.6631 33.8C46.9031 33.5533 47.0598 33.2267 47.1331 32.82C47.2131 32.4133 47.2531 31.91 47.2531 31.31ZM49.7024 31.31C49.7024 30.1633 49.8891 29.27 50.2624 28.63C50.6358 27.9833 51.2891 27.66 52.2224 27.66C53.1491 27.66 53.7991 27.9833 54.1724 28.63C54.5458 29.27 54.7324 30.1633 54.7324 31.31C54.7324 32.4767 54.5458 33.3833 54.1724 34.03C53.7991 34.6767 53.1491 35 52.2224 35C51.2891 35 50.6358 34.6767 50.2624 34.03C49.8891 33.3833 49.7024 32.4767 49.7024 31.31ZM53.8324 31.31C53.8324 30.73 53.7924 30.24 53.7124 29.84C53.6391 29.4333 53.4824 29.1067 53.2424 28.86C53.0091 28.6133 52.6691 28.49 52.2224 28.49C51.7691 28.49 51.4224 28.6133 51.1824 28.86C50.9491 29.1067 50.7924 29.4333 50.7124 29.84C50.6391 30.24 50.6024 30.73 50.6024 31.31C50.6024 31.91 50.6391 32.4133 50.7124 32.82C50.7924 33.2267 50.9491 33.5533 51.1824 33.8C51.4224 34.0467 51.7691 34.17 52.2224 34.17C52.6691 34.17 53.0091 34.0467 53.2424 33.8C53.4824 33.5533 53.6391 33.2267 53.7124 32.82C53.7924 32.4133 53.8324 31.91 53.8324 31.31ZM63.0217 29.42C63.4484 29.42 63.8284 29.51 64.1617 29.69C64.4951 29.8633 64.7584 30.1267 64.9517 30.48C65.1451 30.8333 65.2417 31.2633 65.2417 31.77V35H64.3417V31.9C64.3417 31.3533 64.2051 30.9367 63.9317 30.65C63.6651 30.3567 63.3017 30.21 62.8417 30.21C62.3684 30.21 61.9917 30.3633 61.7117 30.67C61.4317 30.97 61.2917 31.4067 61.2917 31.98V35H60.3917V31.9C60.3917 31.3533 60.2551 30.9367 59.9817 30.65C59.7151 30.3567 59.3517 30.21 58.8917 30.21C58.4184 30.21 58.0417 30.3633 57.7617 30.67C57.4817 30.97 57.3417 31.4067 57.3417 31.98V35H56.4317V29.52H57.3417V30.31C57.5217 30.0233 57.7617 29.8033 58.0617 29.65C58.3684 29.4967 58.7051 29.42 59.0717 29.42C59.5317 29.42 59.9384 29.5233 60.2917 29.73C60.6451 29.9367 60.9084 30.24 61.0817 30.64C61.2351 30.2533 61.4884 29.9533 61.8417 29.74C62.1951 29.5267 62.5884 29.42 63.0217 29.42ZM69.6605 32.24C69.6605 31.68 69.7738 31.19 70.0005 30.77C70.2271 30.3433 70.5371 30.0133 70.9305 29.78C71.3305 29.5467 71.7771 29.43 72.2705 29.43C72.6971 29.43 73.0938 29.53 73.4605 29.73C73.8271 29.9233 74.1071 30.18 74.3005 30.5V27.6H75.2205V35H74.3005V33.97C74.1205 34.2967 73.8538 34.5667 73.5005 34.78C73.1471 34.9867 72.7338 35.09 72.2605 35.09C71.7738 35.09 71.3305 34.97 70.9305 34.73C70.5371 34.49 70.2271 34.1533 70.0005 33.72C69.7738 33.2867 69.6605 32.7933 69.6605 32.24ZM74.3005 32.25C74.3005 31.8367 74.2171 31.4767 74.0505 31.17C73.8838 30.8633 73.6571 30.63 73.3705 30.47C73.0905 30.3033 72.7805 30.22 72.4405 30.22C72.1005 30.22 71.7905 30.3 71.5105 30.46C71.2305 30.62 71.0071 30.8533 70.8405 31.16C70.6738 31.4667 70.5905 31.8267 70.5905 32.24C70.5905 32.66 70.6738 33.0267 70.8405 33.34C71.0071 33.6467 71.2305 33.8833 71.5105 34.05C71.7905 34.21 72.1005 34.29 72.4405 34.29C72.7805 34.29 73.0905 34.21 73.3705 34.05C73.6571 33.8833 73.8838 33.6467 74.0505 33.34C74.2171 33.0267 74.3005 32.6633 74.3005 32.25ZM79.4483 35.09C78.9349 35.09 78.4683 34.9733 78.0483 34.74C77.6349 34.5067 77.3083 34.1767 77.0683 33.75C76.8349 33.3167 76.7183 32.8167 76.7183 32.25C76.7183 31.69 76.8383 31.1967 77.0783 30.77C77.3249 30.3367 77.6583 30.0067 78.0783 29.78C78.4983 29.5467 78.9683 29.43 79.4883 29.43C80.0083 29.43 80.4783 29.5467 80.8983 29.78C81.3183 30.0067 81.6483 30.3333 81.8883 30.76C82.1349 31.1867 82.2583 31.6833 82.2583 32.25C82.2583 32.8167 82.1316 33.3167 81.8783 33.75C81.6316 34.1767 81.2949 34.5067 80.8683 34.74C80.4416 34.9733 79.9683 35.09 79.4483 35.09ZM79.4483 34.29C79.7749 34.29 80.0816 34.2133 80.3683 34.06C80.6549 33.9067 80.8849 33.6767 81.0583 33.37C81.2383 33.0633 81.3283 32.69 81.3283 32.25C81.3283 31.81 81.2416 31.4367 81.0683 31.13C80.8949 30.8233 80.6683 30.5967 80.3883 30.45C80.1083 30.2967 79.8049 30.22 79.4783 30.22C79.1449 30.22 78.8383 30.2967 78.5583 30.45C78.2849 30.5967 78.0649 30.8233 77.8983 31.13C77.7316 31.4367 77.6483 31.81 77.6483 32.25C77.6483 32.6967 77.7283 33.0733 77.8883 33.38C78.0549 33.6867 78.2749 33.9167 78.5483 34.07C78.8216 34.2167 79.1216 34.29 79.4483 34.29ZM86.3808 31.51C86.3808 30.83 86.5341 30.22 86.8408 29.68C87.1474 29.1333 87.5641 28.7067 88.0908 28.4C88.6241 28.0933 89.2141 27.94 89.8608 27.94C90.6208 27.94 91.2841 28.1233 91.8508 28.49C92.4174 28.8567 92.8308 29.3767 93.0908 30.05H92.0008C91.8074 29.63 91.5274 29.3067 91.1608 29.08C90.8008 28.8533 90.3674 28.74 89.8608 28.74C89.3741 28.74 88.9374 28.8533 88.5508 29.08C88.1641 29.3067 87.8608 29.63 87.6408 30.05C87.4208 30.4633 87.3108 30.95 87.3108 31.51C87.3108 32.0633 87.4208 32.55 87.6408 32.97C87.8608 33.3833 88.1641 33.7033 88.5508 33.93C88.9374 34.1567 89.3741 34.27 89.8608 34.27C90.3674 34.27 90.8008 34.16 91.1608 33.94C91.5274 33.7133 91.8074 33.39 92.0008 32.97H93.0908C92.8308 33.6367 92.4174 34.1533 91.8508 34.52C91.2841 34.88 90.6208 35.06 89.8608 35.06C89.2141 35.06 88.6241 34.91 88.0908 34.61C87.5641 34.3033 87.1474 33.88 86.8408 33.34C86.5341 32.8 86.3808 32.19 86.3808 31.51ZM94.4054 32.24C94.4054 31.68 94.5187 31.19 94.7454 30.77C94.9721 30.3433 95.2821 30.0133 95.6754 29.78C96.0754 29.5467 96.5187 29.43 97.0054 29.43C97.4854 29.43 97.9021 29.5333 98.2554 29.74C98.6087 29.9467 98.8721 30.2067 99.0454 30.52V29.52H99.9654V35H99.0454V33.98C98.8654 34.3 98.5954 34.5667 98.2354 34.78C97.8821 34.9867 97.4687 35.09 96.9954 35.09C96.5087 35.09 96.0687 34.97 95.6754 34.73C95.2821 34.49 94.9721 34.1533 94.7454 33.72C94.5187 33.2867 94.4054 32.7933 94.4054 32.24ZM99.0454 32.25C99.0454 31.8367 98.9621 31.4767 98.7954 31.17C98.6287 30.8633 98.4021 30.63 98.1154 30.47C97.8354 30.3033 97.5254 30.22 97.1854 30.22C96.8454 30.22 96.5354 30.3 96.2554 30.46C95.9754 30.62 95.7521 30.8533 95.5854 31.16C95.4187 31.4667 95.3354 31.8267 95.3354 32.24C95.3354 32.66 95.4187 33.0267 95.5854 33.34C95.7521 33.6467 95.9754 33.8833 96.2554 34.05C96.5354 34.21 96.8454 34.29 97.1854 34.29C97.5254 34.29 97.8354 34.21 98.1154 34.05C98.4021 33.8833 98.6287 33.6467 98.7954 33.34C98.9621 33.0267 99.0454 32.6633 99.0454 32.25ZM104.473 29.42C105.14 29.42 105.68 29.6233 106.093 30.03C106.507 30.43 106.713 31.01 106.713 31.77V35H105.813V31.9C105.813 31.3533 105.677 30.9367 105.403 30.65C105.13 30.3567 104.757 30.21 104.283 30.21C103.803 30.21 103.42 30.36 103.133 30.66C102.853 30.96 102.713 31.3967 102.713 31.97V35H101.803V29.52H102.713V30.3C102.893 30.02 103.137 29.8033 103.443 29.65C103.757 29.4967 104.1 29.42 104.473 29.42ZM108.16 32.24C108.16 31.68 108.273 31.19 108.5 30.77C108.726 30.3433 109.036 30.0133 109.43 29.78C109.83 29.5467 110.273 29.43 110.76 29.43C111.24 29.43 111.656 29.5333 112.01 29.74C112.363 29.9467 112.626 30.2067 112.8 30.52V29.52H113.72V35H112.8V33.98C112.62 34.3 112.35 34.5667 111.99 34.78C111.636 34.9867 111.223 35.09 110.75 35.09C110.263 35.09 109.823 34.97 109.43 34.73C109.036 34.49 108.726 34.1533 108.5 33.72C108.273 33.2867 108.16 32.7933 108.16 32.24ZM112.8 32.25C112.8 31.8367 112.716 31.4767 112.55 31.17C112.383 30.8633 112.156 30.63 111.87 30.47C111.59 30.3033 111.28 30.22 110.94 30.22C110.6 30.22 110.29 30.3 110.01 30.46C109.73 30.62 109.506 30.8533 109.34 31.16C109.173 31.4667 109.09 31.8267 109.09 32.24C109.09 32.66 109.173 33.0267 109.34 33.34C109.506 33.6467 109.73 33.8833 110.01 34.05C110.29 34.21 110.6 34.29 110.94 34.29C111.28 34.29 111.59 34.21 111.87 34.05C112.156 33.8833 112.383 33.6467 112.55 33.34C112.716 33.0267 112.8 32.6633 112.8 32.25ZM116.467 27.6V35H115.557V27.6H116.467ZM120.944 32.24C120.944 31.68 121.058 31.19 121.284 30.77C121.511 30.3433 121.821 30.0133 122.214 29.78C122.614 29.5467 123.061 29.43 123.554 29.43C123.981 29.43 124.378 29.53 124.744 29.73C125.111 29.9233 125.391 30.18 125.584 30.5V27.6H126.504V35H125.584V33.97C125.404 34.2967 125.138 34.5667 124.784 34.78C124.431 34.9867 124.018 35.09 123.544 35.09C123.058 35.09 122.614 34.97 122.214 34.73C121.821 34.49 121.511 34.1533 121.284 33.72C121.058 33.2867 120.944 32.7933 120.944 32.24ZM125.584 32.25C125.584 31.8367 125.501 31.4767 125.334 31.17C125.168 30.8633 124.941 30.63 124.654 30.47C124.374 30.3033 124.064 30.22 123.724 30.22C123.384 30.22 123.074 30.3 122.794 30.46C122.514 30.62 122.291 30.8533 122.124 31.16C121.958 31.4667 121.874 31.8267 121.874 32.24C121.874 32.66 121.958 33.0267 122.124 33.34C122.291 33.6467 122.514 33.8833 122.794 34.05C123.074 34.21 123.384 34.29 123.724 34.29C124.064 34.29 124.374 34.21 124.654 34.05C124.941 33.8833 125.168 33.6467 125.334 33.34C125.501 33.0267 125.584 32.6633 125.584 32.25ZM128.002 32.24C128.002 31.68 128.116 31.19 128.342 30.77C128.569 30.3433 128.879 30.0133 129.272 29.78C129.672 29.5467 130.116 29.43 130.602 29.43C131.082 29.43 131.499 29.5333 131.852 29.74C132.206 29.9467 132.469 30.2067 132.642 30.52V29.52H133.562V35H132.642V33.98C132.462 34.3 132.192 34.5667 131.832 34.78C131.479 34.9867 131.066 35.09 130.592 35.09C130.106 35.09 129.666 34.97 129.272 34.73C128.879 34.49 128.569 34.1533 128.342 33.72C128.116 33.2867 128.002 32.7933 128.002 32.24ZM132.642 32.25C132.642 31.8367 132.559 31.4767 132.392 31.17C132.226 30.8633 131.999 30.63 131.712 30.47C131.432 30.3033 131.122 30.22 130.782 30.22C130.442 30.22 130.132 30.3 129.852 30.46C129.572 30.62 129.349 30.8533 129.182 31.16C129.016 31.4667 128.932 31.8267 128.932 32.24C128.932 32.66 129.016 33.0267 129.182 33.34C129.349 33.6467 129.572 33.8833 129.852 34.05C130.132 34.21 130.442 34.29 130.782 34.29C131.122 34.29 131.432 34.21 131.712 34.05C131.999 33.8833 132.226 33.6467 132.392 33.34C132.559 33.0267 132.642 32.6633 132.642 32.25ZM139.276 34.26H141.716V35H138.366V28.03H139.276V34.26ZM142.643 32.24C142.643 31.68 142.756 31.19 142.983 30.77C143.209 30.3433 143.519 30.0133 143.913 29.78C144.313 29.5467 144.756 29.43 145.243 29.43C145.723 29.43 146.139 29.5333 146.493 29.74C146.846 29.9467 147.109 30.2067 147.283 30.52V29.52H148.203V35H147.283V33.98C147.103 34.3 146.833 34.5667 146.473 34.78C146.119 34.9867 145.706 35.09 145.233 35.09C144.746 35.09 144.306 34.97 143.913 34.73C143.519 34.49 143.209 34.1533 142.983 33.72C142.756 33.2867 142.643 32.7933 142.643 32.24ZM147.283 32.25C147.283 31.8367 147.199 31.4767 147.033 31.17C146.866 30.8633 146.639 30.63 146.353 30.47C146.073 30.3033 145.763 30.22 145.423 30.22C145.083 30.22 144.773 30.3 144.493 30.46C144.213 30.62 143.989 30.8533 143.823 31.16C143.656 31.4667 143.573 31.8267 143.573 32.24C143.573 32.66 143.656 33.0267 143.823 33.34C143.989 33.6467 144.213 33.8833 144.493 34.05C144.773 34.21 145.083 34.29 145.423 34.29C145.763 34.29 146.073 34.21 146.353 34.05C146.639 33.8833 146.866 33.6467 147.033 33.34C147.199 33.0267 147.283 32.6633 147.283 32.25ZM152.3 29.43C152.774 29.43 153.187 29.5333 153.54 29.74C153.9 29.9467 154.167 30.2067 154.34 30.52V29.52H155.26V35.12C155.26 35.62 155.154 36.0633 154.94 36.45C154.727 36.8433 154.42 37.15 154.02 37.37C153.627 37.59 153.167 37.7 152.64 37.7C151.92 37.7 151.32 37.53 150.84 37.19C150.36 36.85 150.077 36.3867 149.99 35.8H150.89C150.99 36.1333 151.197 36.4 151.51 36.6C151.824 36.8067 152.2 36.91 152.64 36.91C153.14 36.91 153.547 36.7533 153.86 36.44C154.18 36.1267 154.34 35.6867 154.34 35.12V33.97C154.16 34.29 153.894 34.5567 153.54 34.77C153.187 34.9833 152.774 35.09 152.3 35.09C151.814 35.09 151.37 34.97 150.97 34.73C150.577 34.49 150.267 34.1533 150.04 33.72C149.814 33.2867 149.7 32.7933 149.7 32.24C149.7 31.68 149.814 31.19 150.04 30.77C150.267 30.3433 150.577 30.0133 150.97 29.78C151.37 29.5467 151.814 29.43 152.3 29.43ZM154.34 32.25C154.34 31.8367 154.257 31.4767 154.09 31.17C153.924 30.8633 153.697 30.63 153.41 30.47C153.13 30.3033 152.82 30.22 152.48 30.22C152.14 30.22 151.83 30.3 151.55 30.46C151.27 30.62 151.047 30.8533 150.88 31.16C150.714 31.4667 150.63 31.8267 150.63 32.24C150.63 32.66 150.714 33.0267 150.88 33.34C151.047 33.6467 151.27 33.8833 151.55 34.05C151.83 34.21 152.14 34.29 152.48 34.29C152.82 34.29 153.13 34.21 153.41 34.05C153.697 33.8833 153.924 33.6467 154.09 33.34C154.257 33.0267 154.34 32.6633 154.34 32.25ZM159.488 35.09C158.975 35.09 158.508 34.9733 158.088 34.74C157.675 34.5067 157.348 34.1767 157.108 33.75C156.875 33.3167 156.758 32.8167 156.758 32.25C156.758 31.69 156.878 31.1967 157.118 30.77C157.365 30.3367 157.698 30.0067 158.118 29.78C158.538 29.5467 159.008 29.43 159.528 29.43C160.048 29.43 160.518 29.5467 160.938 29.78C161.358 30.0067 161.688 30.3333 161.928 30.76C162.175 31.1867 162.298 31.6833 162.298 32.25C162.298 32.8167 162.171 33.3167 161.918 33.75C161.671 34.1767 161.335 34.5067 160.908 34.74C160.481 34.9733 160.008 35.09 159.488 35.09ZM159.488 34.29C159.815 34.29 160.121 34.2133 160.408 34.06C160.695 33.9067 160.925 33.6767 161.098 33.37C161.278 33.0633 161.368 32.69 161.368 32.25C161.368 31.81 161.281 31.4367 161.108 31.13C160.935 30.8233 160.708 30.5967 160.428 30.45C160.148 30.2967 159.845 30.22 159.518 30.22C159.185 30.22 158.878 30.2967 158.598 30.45C158.325 30.5967 158.105 30.8233 157.938 31.13C157.771 31.4367 157.688 31.81 157.688 32.25C157.688 32.6967 157.768 33.0733 157.928 33.38C158.095 33.6867 158.315 33.9167 158.588 34.07C158.861 34.2167 159.161 34.29 159.488 34.29ZM163.455 32.24C163.455 31.68 163.568 31.19 163.795 30.77C164.021 30.3433 164.331 30.0133 164.725 29.78C165.125 29.5467 165.568 29.43 166.055 29.43C166.535 29.43 166.951 29.5333 167.305 29.74C167.658 29.9467 167.921 30.2067 168.095 30.52V29.52H169.015V35H168.095V33.98C167.915 34.3 167.645 34.5667 167.285 34.78C166.931 34.9867 166.518 35.09 166.045 35.09C165.558 35.09 165.118 34.97 164.725 34.73C164.331 34.49 164.021 34.1533 163.795 33.72C163.568 33.2867 163.455 32.7933 163.455 32.24ZM168.095 32.25C168.095 31.8367 168.011 31.4767 167.845 31.17C167.678 30.8633 167.451 30.63 167.165 30.47C166.885 30.3033 166.575 30.22 166.235 30.22C165.895 30.22 165.585 30.3 165.305 30.46C165.025 30.62 164.801 30.8533 164.635 31.16C164.468 31.4667 164.385 31.8267 164.385 32.24C164.385 32.66 164.468 33.0267 164.635 33.34C164.801 33.6467 165.025 33.8833 165.305 34.05C165.585 34.21 165.895 34.29 166.235 34.29C166.575 34.29 166.885 34.21 167.165 34.05C167.451 33.8833 167.678 33.6467 167.845 33.34C168.011 33.0267 168.095 32.6633 168.095 32.25Z" fill="#98A4AE"/>
<path d="M73.9434 45.5L108.058 45.5L91.001 68.3301L73.9434 45.5Z" fill="white" stroke="#015486" stroke-width="2"/>
<path d="M91 65L71.0814 41L110.919 41L91 65Z" fill="white"/>
<path d="M31.155 11.978C30.2796 11.4725 29.3132 11.1443 28.311 11.0123C27.3088 10.8803 26.2904 10.947 25.314 11.2086C24.3376 11.4702 23.4223 11.9215 22.6203 12.5369C21.8183 13.1523 21.1454 13.9196 20.64 14.795L20.35 15.297C20.2507 15.4693 20.2239 15.6739 20.2755 15.8659C20.3271 16.0579 20.4528 16.2216 20.625 16.321L26.086 19.474L22.818 25.194L22.75 25.193C19.592 25.193 16.857 27.025 15.228 29.615C15.5062 29.5166 15.8027 29.481 16.0963 29.5108C16.3898 29.5405 16.6732 29.6348 16.926 29.787C18.338 27.921 20.444 26.693 22.75 26.693C25.154 26.693 27.341 28.028 28.75 30.029C28.9448 29.8497 29.1733 29.7109 29.4222 29.6206C29.6711 29.5303 29.9355 29.4903 30.2 29.503C28.869 27.445 26.833 25.883 24.444 25.372L27.385 20.224L32.658 23.269C32.7433 23.3183 32.8376 23.3503 32.9353 23.3631C33.033 23.376 33.1323 23.3695 33.2275 23.3439C33.3227 23.3184 33.4119 23.2743 33.4901 23.2143C33.5682 23.1543 33.6338 23.0794 33.683 22.994L33.973 22.493C34.4785 21.6176 34.8065 20.6511 34.9385 19.6489C35.0704 18.6466 35.0036 17.6282 34.742 16.6518C34.4803 15.6754 34.0288 14.7601 33.4134 13.9581C32.7979 13.1562 32.0305 12.4833 31.155 11.978ZM28.965 19.404L25.807 17.58C26.379 16.699 26.923 16.028 27.575 15.435C28.21 14.857 28.968 14.335 29.996 13.767C30.148 14.722 30.194 15.517 30.096 16.297C29.98 17.229 29.651 18.19 28.963 19.403M30.261 20.153C31.021 18.815 31.437 17.663 31.584 16.483C31.681 15.709 31.659 14.945 31.562 14.138C32.5536 15.0759 33.208 16.3148 33.4237 17.6625C33.6394 19.0102 33.4043 20.3915 32.755 21.592L30.261 20.153ZM26.565 14.325C25.775 15.044 25.14 15.844 24.505 16.829L22.025 15.397C22.7247 14.2594 23.773 13.3782 25.014 12.8845C26.2549 12.3908 27.6221 12.311 28.912 12.657C27.983 13.192 27.227 13.722 26.565 14.325ZM16.605 31.263C16.5536 31.1087 16.4535 30.9752 16.3197 30.8828C16.1859 30.7903 16.0257 30.7439 15.8632 30.7504C15.7007 30.757 15.5447 30.8162 15.4188 30.9191C15.2928 31.022 15.2038 31.163 15.165 31.321C14.91 32.363 14.427 32.935 13.877 33.267C13.301 33.615 12.567 33.749 11.748 33.749C11.5491 33.749 11.3583 33.828 11.2177 33.9687C11.077 34.1093 10.998 34.3001 10.998 34.499C10.998 34.6979 11.077 34.8887 11.2177 35.0293C11.3583 35.17 11.5491 35.249 11.748 35.249C12.705 35.249 13.748 35.097 14.652 34.551C15.1912 34.2252 15.6459 33.7767 15.979 33.242C17.768 35.524 21.261 35.512 22.998 33.218C24.763 35.548 28.338 35.524 30.101 33.132C30.5796 33.7834 31.2038 34.3141 31.9238 34.6816C32.6437 35.0492 33.4396 35.2435 34.248 35.249C34.4469 35.249 34.6377 35.17 34.7783 35.0293C34.919 34.8887 34.998 34.6979 34.998 34.499C34.998 34.3001 34.919 34.1093 34.7783 33.9687C34.6377 33.828 34.4469 33.749 34.248 33.749C32.773 33.749 31.303 32.789 30.818 31.271C30.77 31.1199 30.6754 30.9879 30.5477 30.894C30.42 30.8001 30.2659 30.749 30.1074 30.7481C29.9489 30.7472 29.7942 30.7965 29.6655 30.8891C29.5368 30.9816 29.4407 31.1125 29.391 31.263C28.428 34.172 24.653 34.135 23.707 31.384C23.6561 31.2364 23.5604 31.1085 23.4333 31.0179C23.3062 30.9273 23.1541 30.8786 22.998 30.8786C22.8419 30.8786 22.6897 30.9273 22.5626 31.0179C22.4355 31.1085 22.3399 31.2364 22.289 31.384C21.343 34.135 17.569 34.171 16.605 31.263Z" fill="#015486"/>
<defs>
<linearGradient id="paint0_linear_294_404" x1="179.069" y1="0.748829" x2="-69.2821" y2="206.234" gradientUnits="userSpaceOnUse">
<stop stop-color="white"/>
</linearGradient>
</defs>
</svg>
