<svg width="181" height="70" viewBox="0 0 181 70" fill="none" xmlns="http://www.w3.org/2000/svg">
<path d="M20 1H161C171.493 1 180 9.50659 180 20V26C180 36.4934 171.493 45 161 45H20C9.50659 45 1 36.4934 1 26V20C1 9.50659 9.50659 1 20 1Z" fill="url(#paint0_linear_294_252)" stroke="#015486" stroke-width="2"/>
<path d="M40.26 20V10.228C40.6427 10.1813 41.0627 10.1487 41.52 10.13C41.9867 10.102 42.4673 10.088 42.962 10.088C43.774 10.088 44.4647 10.2187 45.034 10.48C45.6033 10.732 46.0373 11.082 46.336 11.53C46.6347 11.978 46.784 12.4913 46.784 13.07C46.784 13.77 46.6113 14.3627 46.266 14.848C45.9207 15.3333 45.44 15.7067 44.824 15.968C44.208 16.22 43.494 16.346 42.682 16.346C42.29 16.346 41.926 16.332 41.59 16.304V20H40.26ZM42.85 15.24C43.6807 15.24 44.3247 15.0533 44.782 14.68C45.2393 14.3067 45.468 13.8073 45.468 13.182C45.468 12.5753 45.2487 12.0947 44.81 11.74C44.3713 11.3853 43.746 11.208 42.934 11.208C42.682 11.208 42.444 11.2127 42.22 11.222C41.996 11.2313 41.786 11.2453 41.59 11.264V15.17C41.7393 15.1887 41.9213 15.2073 42.136 15.226C42.3507 15.2353 42.5887 15.24 42.85 15.24ZM48.5548 20V12.72H49.7728V14.302C49.8941 13.994 50.0574 13.7093 50.2628 13.448C50.4681 13.1773 50.7248 12.9627 51.0328 12.804C51.3408 12.636 51.7001 12.552 52.1108 12.552C52.2508 12.552 52.3908 12.5613 52.5308 12.58C52.6708 12.5893 52.7874 12.608 52.8808 12.636L52.5028 13.938C52.3254 13.8633 52.1154 13.826 51.8728 13.826C51.5274 13.826 51.1961 13.924 50.8788 14.12C50.5708 14.316 50.3141 14.6193 50.1088 15.03C49.9128 15.4407 49.8148 15.9633 49.8148 16.598V20H48.5548ZM56.8087 20.168C56.2021 20.168 55.6514 20.014 55.1567 19.706C54.6621 19.398 54.2654 18.964 53.9667 18.404C53.6774 17.8347 53.5327 17.1673 53.5327 16.402C53.5327 15.674 53.6774 15.0207 53.9667 14.442C54.2654 13.8633 54.6714 13.406 55.1847 13.07C55.7074 12.7247 56.3047 12.552 56.9767 12.552C57.3967 12.552 57.7747 12.6267 58.1107 12.776C58.4561 12.916 58.7547 13.0933 59.0067 13.308V12.72H60.1547V18.236C60.1547 18.5907 60.2387 18.824 60.4067 18.936C60.5841 19.0387 60.7754 19.09 60.9807 19.09L60.7147 20.07C59.8187 20.07 59.2774 19.706 59.0907 18.978C58.8761 19.2767 58.5821 19.552 58.2087 19.804C57.8447 20.0467 57.3781 20.168 56.8087 20.168ZM57.0887 19.048C57.4434 19.048 57.7794 18.964 58.0967 18.796C58.4141 18.6187 58.6801 18.3993 58.8947 18.138V14.232C58.6427 14.0547 58.3627 13.9147 58.0547 13.812C57.7561 13.7 57.4387 13.644 57.1027 13.644C56.6547 13.644 56.2581 13.7607 55.9127 13.994C55.5767 14.218 55.3107 14.5353 55.1147 14.946C54.9187 15.3473 54.8207 15.8187 54.8207 16.36C54.8207 16.8827 54.9187 17.3493 55.1147 17.76C55.3107 18.1613 55.5814 18.4787 55.9267 18.712C56.2721 18.936 56.6594 19.048 57.0887 19.048ZM62.9634 20V12.72H64.2234V20H62.9634ZM63.5934 11.474C63.3507 11.474 63.1407 11.3853 62.9634 11.208C62.7954 11.0307 62.7114 10.8253 62.7114 10.592C62.7114 10.3213 62.7907 10.1067 62.9494 9.948C63.108 9.78933 63.3227 9.71 63.5934 9.71C63.836 9.71 64.0414 9.79867 64.2094 9.976C64.3867 10.144 64.4754 10.3493 64.4754 10.592C64.4754 10.8533 64.396 11.068 64.2374 11.236C64.0787 11.3947 63.864 11.474 63.5934 11.474ZM69.5494 20.168C68.9427 20.168 68.392 20.014 67.8974 19.706C67.4027 19.398 67.006 18.964 66.7074 18.404C66.418 17.8347 66.2734 17.1673 66.2734 16.402C66.2734 15.674 66.418 15.0207 66.7074 14.442C67.006 13.8633 67.412 13.406 67.9254 13.07C68.448 12.7247 69.0454 12.552 69.7174 12.552C70.1374 12.552 70.5154 12.6267 70.8514 12.776C71.1967 12.916 71.4954 13.0933 71.7474 13.308V12.72H72.8954V18.236C72.8954 18.5907 72.9794 18.824 73.1474 18.936C73.3247 19.0387 73.516 19.09 73.7214 19.09L73.4554 20.07C72.5594 20.07 72.018 19.706 71.8314 18.978C71.6167 19.2767 71.3227 19.552 70.9494 19.804C70.5854 20.0467 70.1187 20.168 69.5494 20.168ZM69.8294 19.048C70.184 19.048 70.52 18.964 70.8374 18.796C71.1547 18.6187 71.4207 18.3993 71.6354 18.138V14.232C71.3834 14.0547 71.1034 13.9147 70.7954 13.812C70.4967 13.7 70.1794 13.644 69.8434 13.644C69.3954 13.644 68.9987 13.7607 68.6534 13.994C68.3174 14.218 68.0514 14.5353 67.8554 14.946C67.6594 15.3473 67.5614 15.8187 67.5614 16.36C67.5614 16.8827 67.6594 17.3493 67.8554 17.76C68.0514 18.1613 68.322 18.4787 68.6674 18.712C69.0127 18.936 69.4 19.048 69.8294 19.048ZM82.9592 20.168C82.3619 20.168 81.8159 20.014 81.3212 19.706C80.8266 19.398 80.4346 18.964 80.1452 18.404C79.8559 17.8347 79.7112 17.1673 79.7112 16.402C79.7112 15.6647 79.8559 15.0067 80.1452 14.428C80.4439 13.8493 80.8359 13.392 81.3212 13.056C81.8159 12.72 82.3572 12.552 82.9452 12.552C83.4306 12.552 83.8459 12.65 84.1912 12.846C84.5459 13.042 84.8212 13.2427 85.0172 13.448V9.64H86.2772V18.236C86.2772 18.5907 86.3612 18.824 86.5292 18.936C86.7066 19.0387 86.8979 19.09 87.1032 19.09L86.8372 20.07C85.9506 20.07 85.4092 19.7153 85.2132 19.006C85.0079 19.2953 84.7186 19.5613 84.3452 19.804C83.9812 20.0467 83.5192 20.168 82.9592 20.168ZM83.2392 19.048C83.5846 19.048 83.9112 18.9687 84.2192 18.81C84.5366 18.642 84.8026 18.4273 85.0172 18.166V14.554C84.8399 14.33 84.5926 14.1247 84.2752 13.938C83.9579 13.742 83.6079 13.644 83.2252 13.644C82.7772 13.644 82.3852 13.7653 82.0492 14.008C81.7132 14.2507 81.4519 14.5773 81.2652 14.988C81.0879 15.3893 80.9992 15.8467 80.9992 16.36C80.9992 16.8733 81.0972 17.3353 81.2932 17.746C81.4892 18.1473 81.7552 18.4647 82.0912 18.698C82.4366 18.9313 82.8192 19.048 83.2392 19.048ZM91.7365 20.168C91.1298 20.168 90.5791 20.014 90.0845 19.706C89.5898 19.398 89.1931 18.964 88.8945 18.404C88.6051 17.8347 88.4605 17.1673 88.4605 16.402C88.4605 15.674 88.6051 15.0207 88.8945 14.442C89.1931 13.8633 89.5991 13.406 90.1125 13.07C90.6351 12.7247 91.2325 12.552 91.9045 12.552C92.3245 12.552 92.7025 12.6267 93.0385 12.776C93.3838 12.916 93.6825 13.0933 93.9345 13.308V12.72H95.0825V18.236C95.0825 18.5907 95.1665 18.824 95.3345 18.936C95.5118 19.0387 95.7031 19.09 95.9085 19.09L95.6425 20.07C94.7465 20.07 94.2051 19.706 94.0185 18.978C93.8038 19.2767 93.5098 19.552 93.1365 19.804C92.7725 20.0467 92.3058 20.168 91.7365 20.168ZM92.0165 19.048C92.3711 19.048 92.7071 18.964 93.0245 18.796C93.3418 18.6187 93.6078 18.3993 93.8225 18.138V14.232C93.5705 14.0547 93.2905 13.9147 92.9825 13.812C92.6838 13.7 92.3665 13.644 92.0305 13.644C91.5825 13.644 91.1858 13.7607 90.8405 13.994C90.5045 14.218 90.2385 14.5353 90.0425 14.946C89.8465 15.3473 89.7485 15.8187 89.7485 16.36C89.7485 16.8827 89.8465 17.3493 90.0425 17.76C90.2385 18.1613 90.5091 18.4787 90.8545 18.712C91.1998 18.936 91.5871 19.048 92.0165 19.048ZM99.8511 20.168C99.3004 20.168 98.8011 20.098 98.3531 19.958C97.9144 19.818 97.5504 19.636 97.2611 19.412L97.7931 18.362C98.0358 18.5673 98.3391 18.74 98.7031 18.88C99.0764 19.0107 99.4731 19.076 99.8931 19.076C100.416 19.076 100.808 18.992 101.069 18.824C101.34 18.6467 101.475 18.4227 101.475 18.152C101.475 17.956 101.424 17.7833 101.321 17.634C101.228 17.4847 101.05 17.34 100.789 17.2C100.528 17.0507 100.15 16.892 99.6551 16.724C98.9738 16.4907 98.4604 16.2153 98.1151 15.898C97.7791 15.5713 97.6111 15.1233 97.6111 14.554C97.6111 13.994 97.8538 13.5227 98.3391 13.14C98.8338 12.748 99.5151 12.552 100.383 12.552C100.85 12.552 101.265 12.6033 101.629 12.706C101.993 12.7993 102.32 12.9207 102.609 13.07L102.259 14.106C102.007 13.9567 101.718 13.8353 101.391 13.742C101.074 13.6487 100.719 13.602 100.327 13.602C99.8418 13.602 99.4731 13.7 99.2211 13.896C98.9691 14.092 98.8431 14.3067 98.8431 14.54C98.8431 14.764 98.9411 14.9553 99.1371 15.114C99.3331 15.2727 99.7158 15.4453 100.285 15.632C101.209 15.94 101.853 16.2807 102.217 16.654C102.581 17.0273 102.763 17.494 102.763 18.054C102.763 18.7073 102.497 19.2253 101.965 19.608C101.442 19.9813 100.738 20.168 99.8511 20.168ZM109.377 20V10.2H115.187V11.348H110.707V14.344H114.445V15.436H110.707V20H109.377ZM118.818 20.168C118.388 20.168 118.001 20.0887 117.656 19.93C117.31 19.762 117.035 19.496 116.83 19.132C116.634 18.768 116.536 18.2967 116.536 17.718V9.64H117.796V17.592C117.796 18.096 117.898 18.4693 118.104 18.712C118.318 18.9547 118.612 19.076 118.986 19.076C119.163 19.076 119.336 19.0573 119.504 19.02C119.681 18.9733 119.83 18.922 119.952 18.866L120.26 19.888C120.092 19.9627 119.882 20.028 119.63 20.084C119.387 20.14 119.116 20.168 118.818 20.168ZM124.452 20.168C123.407 20.168 122.576 19.8367 121.96 19.174C121.354 18.502 121.05 17.564 121.05 16.36C121.05 15.632 121.186 14.9833 121.456 14.414C121.736 13.8353 122.124 13.3827 122.618 13.056C123.113 12.72 123.687 12.552 124.34 12.552C125.04 12.552 125.619 12.706 126.076 13.014C126.543 13.3127 126.893 13.7187 127.126 14.232C127.36 14.7453 127.476 15.31 127.476 15.926C127.476 16.2527 127.462 16.57 127.434 16.878H122.338C122.422 17.5593 122.66 18.0913 123.052 18.474C123.444 18.8567 123.962 19.048 124.606 19.048C125.026 19.048 125.404 19.006 125.74 18.922C126.076 18.8287 126.398 18.712 126.706 18.572L127 19.65C126.664 19.7993 126.286 19.9207 125.866 20.014C125.446 20.1167 124.975 20.168 124.452 20.168ZM122.324 15.856H126.314C126.314 15.1467 126.137 14.6007 125.782 14.218C125.428 13.8353 124.938 13.644 124.312 13.644C123.771 13.644 123.323 13.8353 122.968 14.218C122.614 14.5913 122.399 15.1373 122.324 15.856ZM132.396 20.168C131.705 20.168 131.098 20.0093 130.576 19.692C130.062 19.3653 129.666 18.9173 129.386 18.348C129.106 17.7693 128.966 17.1067 128.966 16.36C128.966 15.66 129.106 15.0207 129.386 14.442C129.675 13.8633 130.086 13.406 130.618 13.07C131.15 12.7247 131.775 12.552 132.494 12.552C132.904 12.552 133.264 12.5893 133.572 12.664C133.889 12.7387 134.192 12.846 134.482 12.986L134.104 14.05C133.842 13.9193 133.59 13.826 133.348 13.77C133.114 13.7047 132.853 13.672 132.564 13.672C131.91 13.672 131.36 13.91 130.912 14.386C130.473 14.8527 130.254 15.5013 130.254 16.332C130.254 16.836 130.347 17.2933 130.534 17.704C130.72 18.1147 130.977 18.4413 131.304 18.684C131.64 18.9267 132.032 19.048 132.48 19.048C132.834 19.048 133.138 19.0107 133.39 18.936C133.642 18.852 133.912 18.7353 134.202 18.586L134.594 19.65C134.304 19.8087 133.978 19.9347 133.614 20.028C133.259 20.1213 132.853 20.168 132.396 20.168ZM136.359 20V9.64H137.619V13.882C137.88 13.4993 138.212 13.182 138.613 12.93C139.014 12.678 139.486 12.552 140.027 12.552C140.848 12.552 141.46 12.7993 141.861 13.294C142.272 13.7887 142.477 14.442 142.477 15.254V20H141.217V15.394C141.217 14.8713 141.096 14.4513 140.853 14.134C140.61 13.8167 140.27 13.658 139.831 13.658C139.402 13.658 138.991 13.812 138.599 14.12C138.216 14.4187 137.89 14.7733 137.619 15.184V20H136.359ZM147.73 20.168C147.124 20.168 146.573 20.014 146.078 19.706C145.584 19.398 145.187 18.964 144.888 18.404C144.599 17.8347 144.454 17.1673 144.454 16.402C144.454 15.674 144.599 15.0207 144.888 14.442C145.187 13.8633 145.593 13.406 146.106 13.07C146.629 12.7247 147.226 12.552 147.898 12.552C148.318 12.552 148.696 12.6267 149.032 12.776C149.378 12.916 149.676 13.0933 149.928 13.308V12.72H151.076V18.236C151.076 18.5907 151.16 18.824 151.328 18.936C151.506 19.0387 151.697 19.09 151.902 19.09L151.636 20.07C150.74 20.07 150.199 19.706 150.012 18.978C149.798 19.2767 149.504 19.552 149.13 19.804C148.766 20.0467 148.3 20.168 147.73 20.168ZM148.01 19.048C148.365 19.048 148.701 18.964 149.018 18.796C149.336 18.6187 149.602 18.3993 149.816 18.138V14.232C149.564 14.0547 149.284 13.9147 148.976 13.812C148.678 13.7 148.36 13.644 148.024 13.644C147.576 13.644 147.18 13.7607 146.834 13.994C146.498 14.218 146.232 14.5353 146.036 14.946C145.84 15.3473 145.742 15.8187 145.742 16.36C145.742 16.8827 145.84 17.3493 146.036 17.76C146.232 18.1613 146.503 18.4787 146.848 18.712C147.194 18.936 147.581 19.048 148.01 19.048ZM155.845 20.168C155.294 20.168 154.795 20.098 154.347 19.958C153.908 19.818 153.544 19.636 153.255 19.412L153.787 18.362C154.03 18.5673 154.333 18.74 154.697 18.88C155.07 19.0107 155.467 19.076 155.887 19.076C156.41 19.076 156.802 18.992 157.063 18.824C157.334 18.6467 157.469 18.4227 157.469 18.152C157.469 17.956 157.418 17.7833 157.315 17.634C157.222 17.4847 157.044 17.34 156.783 17.2C156.522 17.0507 156.144 16.892 155.649 16.724C154.968 16.4907 154.454 16.2153 154.109 15.898C153.773 15.5713 153.605 15.1233 153.605 14.554C153.605 13.994 153.848 13.5227 154.333 13.14C154.828 12.748 155.509 12.552 156.377 12.552C156.844 12.552 157.259 12.6033 157.623 12.706C157.987 12.7993 158.314 12.9207 158.603 13.07L158.253 14.106C158.001 13.9567 157.712 13.8353 157.385 13.742C157.068 13.6487 156.713 13.602 156.321 13.602C155.836 13.602 155.467 13.7 155.215 13.896C154.963 14.092 154.837 14.3067 154.837 14.54C154.837 14.764 154.935 14.9553 155.131 15.114C155.327 15.2727 155.71 15.4453 156.279 15.632C157.203 15.94 157.847 16.2807 158.211 16.654C158.575 17.0273 158.757 17.494 158.757 18.054C158.757 18.7073 158.491 19.2253 157.959 19.608C157.436 19.9813 156.732 20.168 155.845 20.168Z" fill="#015486"/>
<path d="M43.44 35L41.78 32.15H40.68V35H39.77V28.03H42.02C42.5467 28.03 42.99 28.12 43.35 28.3C43.7167 28.48 43.99 28.7233 44.17 29.03C44.35 29.3367 44.44 29.6867 44.44 30.08C44.44 30.56 44.3 30.9833 44.02 31.35C43.7467 31.7167 43.3333 31.96 42.78 32.08L44.53 35H43.44ZM40.68 31.42H42.02C42.5133 31.42 42.8833 31.3 43.13 31.06C43.3767 30.8133 43.5 30.4867 43.5 30.08C43.5 29.6667 43.3767 29.3467 43.13 29.12C42.89 28.8933 42.52 28.78 42.02 28.78H40.68V31.42ZM51.014 29.52V35H50.104V34.19C49.9307 34.47 49.6873 34.69 49.374 34.85C49.0673 35.0033 48.7273 35.08 48.354 35.08C47.9273 35.08 47.544 34.9933 47.204 34.82C46.864 34.64 46.594 34.3733 46.394 34.02C46.2007 33.6667 46.104 33.2367 46.104 32.73V29.52H47.004V32.61C47.004 33.15 47.1407 33.5667 47.414 33.86C47.6873 34.1467 48.0607 34.29 48.534 34.29C49.0207 34.29 49.404 34.14 49.684 33.84C49.964 33.54 50.104 33.1033 50.104 32.53V29.52H51.014ZM52.5105 32.24C52.5105 31.68 52.6238 31.19 52.8505 30.77C53.0771 30.3433 53.3871 30.0133 53.7805 29.78C54.1805 29.5467 54.6238 29.43 55.1105 29.43C55.5905 29.43 56.0071 29.5333 56.3605 29.74C56.7138 29.9467 56.9771 30.2067 57.1505 30.52V29.52H58.0705V35H57.1505V33.98C56.9705 34.3 56.7005 34.5667 56.3405 34.78C55.9871 34.9867 55.5738 35.09 55.1005 35.09C54.6138 35.09 54.1738 34.97 53.7805 34.73C53.3871 34.49 53.0771 34.1533 52.8505 33.72C52.6238 33.2867 52.5105 32.7933 52.5105 32.24ZM57.1505 32.25C57.1505 31.8367 57.0671 31.4767 56.9005 31.17C56.7338 30.8633 56.5071 30.63 56.2205 30.47C55.9405 30.3033 55.6305 30.22 55.2905 30.22C54.9505 30.22 54.6405 30.3 54.3605 30.46C54.0805 30.62 53.8571 30.8533 53.6905 31.16C53.5238 31.4667 53.4405 31.8267 53.4405 32.24C53.4405 32.66 53.5238 33.0267 53.6905 33.34C53.8571 33.6467 54.0805 33.8833 54.3605 34.05C54.6405 34.21 54.9505 34.29 55.2905 34.29C55.6305 34.29 55.9405 34.21 56.2205 34.05C56.5071 33.8833 56.7338 33.6467 56.9005 33.34C57.0671 33.0267 57.1505 32.6633 57.1505 32.25ZM68.3543 35H67.4443L63.7843 29.45V35H62.8743V28.02H63.7843L67.4443 33.56V28.02H68.3543V35ZM70.6755 28.63C70.5022 28.63 70.3555 28.57 70.2355 28.45C70.1155 28.33 70.0555 28.1833 70.0555 28.01C70.0555 27.8367 70.1155 27.69 70.2355 27.57C70.3555 27.45 70.5022 27.39 70.6755 27.39C70.8422 27.39 70.9822 27.45 71.0955 27.57C71.2155 27.69 71.2755 27.8367 71.2755 28.01C71.2755 28.1833 71.2155 28.33 71.0955 28.45C70.9822 28.57 70.8422 28.63 70.6755 28.63ZM71.1155 29.52V35H70.2055V29.52H71.1155ZM73.8765 27.6V35H72.9665V27.6H73.8765ZM78.1174 35.09C77.6041 35.09 77.1374 34.9733 76.7174 34.74C76.3041 34.5067 75.9774 34.1767 75.7374 33.75C75.5041 33.3167 75.3874 32.8167 75.3874 32.25C75.3874 31.69 75.5074 31.1967 75.7474 30.77C75.9941 30.3367 76.3274 30.0067 76.7474 29.78C77.1674 29.5467 77.6374 29.43 78.1574 29.43C78.6774 29.43 79.1474 29.5467 79.5674 29.78C79.9874 30.0067 80.3174 30.3333 80.5574 30.76C80.8041 31.1867 80.9274 31.6833 80.9274 32.25C80.9274 32.8167 80.8008 33.3167 80.5474 33.75C80.3008 34.1767 79.9641 34.5067 79.5374 34.74C79.1108 34.9733 78.6374 35.09 78.1174 35.09ZM78.1174 34.29C78.4441 34.29 78.7508 34.2133 79.0374 34.06C79.3241 33.9067 79.5541 33.6767 79.7274 33.37C79.9074 33.0633 79.9974 32.69 79.9974 32.25C79.9974 31.81 79.9108 31.4367 79.7374 31.13C79.5641 30.8233 79.3374 30.5967 79.0574 30.45C78.7774 30.2967 78.4741 30.22 78.1474 30.22C77.8141 30.22 77.5074 30.2967 77.2274 30.45C76.9541 30.5967 76.7341 30.8233 76.5674 31.13C76.4008 31.4367 76.3174 31.81 76.3174 32.25C76.3174 32.6967 76.3974 33.0733 76.5574 33.38C76.7241 33.6867 76.9441 33.9167 77.2174 34.07C77.4908 34.2167 77.7908 34.29 78.1174 34.29ZM90.0499 30.07C90.0499 30.65 89.8499 31.1333 89.4499 31.52C89.0566 31.9 88.4533 32.09 87.6399 32.09H86.2999V35H85.3899V28.03H87.6399C88.4266 28.03 89.0233 28.22 89.4299 28.6C89.8433 28.98 90.0499 29.47 90.0499 30.07ZM87.6399 31.34C88.1466 31.34 88.5199 31.23 88.7599 31.01C88.9999 30.79 89.1199 30.4767 89.1199 30.07C89.1199 29.21 88.6266 28.78 87.6399 28.78H86.2999V31.34H87.6399ZM96.4809 32.05C96.4809 32.2233 96.4709 32.4067 96.4509 32.6H92.0709C92.1043 33.14 92.2876 33.5633 92.6209 33.87C92.9609 34.17 93.3709 34.32 93.8509 34.32C94.2443 34.32 94.5709 34.23 94.8309 34.05C95.0976 33.8633 95.2843 33.6167 95.3909 33.31H96.3709C96.2243 33.8367 95.9309 34.2667 95.4909 34.6C95.0509 34.9267 94.5043 35.09 93.8509 35.09C93.3309 35.09 92.8643 34.9733 92.4509 34.74C92.0443 34.5067 91.7243 34.1767 91.4909 33.75C91.2576 33.3167 91.1409 32.8167 91.1409 32.25C91.1409 31.6833 91.2543 31.1867 91.4809 30.76C91.7076 30.3333 92.0243 30.0067 92.4309 29.78C92.8443 29.5467 93.3176 29.43 93.8509 29.43C94.3709 29.43 94.8309 29.5433 95.2309 29.77C95.6309 29.9967 95.9376 30.31 96.1509 30.71C96.3709 31.1033 96.4809 31.55 96.4809 32.05ZM95.5409 31.86C95.5409 31.5133 95.4643 31.2167 95.3109 30.97C95.1576 30.7167 94.9476 30.5267 94.6809 30.4C94.4209 30.2667 94.1309 30.2 93.8109 30.2C93.3509 30.2 92.9576 30.3467 92.6309 30.64C92.3109 30.9333 92.1276 31.34 92.0809 31.86H95.5409ZM100.312 34.32C100.712 34.32 101.045 34.2267 101.312 34.04C101.579 33.8533 101.762 33.5867 101.862 33.24H102.842C102.709 33.76 102.445 34.1867 102.052 34.52C101.665 34.8467 101.179 35.0333 100.592 35.08V35.58C100.985 35.5733 101.299 35.6567 101.532 35.83C101.765 36.0033 101.882 36.25 101.882 36.57C101.882 36.8833 101.769 37.1333 101.542 37.32C101.315 37.5067 101.022 37.6 100.662 37.6H99.5121V37.01H100.482C100.702 37.01 100.862 36.9767 100.962 36.91C101.069 36.8433 101.122 36.73 101.122 36.57C101.122 36.4167 101.069 36.3067 100.962 36.24C100.862 36.1733 100.702 36.14 100.482 36.14H99.9821V35.07C99.5221 35.0233 99.1154 34.88 98.7621 34.64C98.4088 34.3933 98.1321 34.0667 97.9321 33.66C97.7388 33.2467 97.6421 32.7767 97.6421 32.25C97.6421 31.6833 97.7554 31.19 97.9821 30.77C98.2088 30.3433 98.5221 30.0133 98.9221 29.78C99.3288 29.5467 99.7921 29.43 100.312 29.43C100.985 29.43 101.539 29.5933 101.972 29.92C102.412 30.2467 102.702 30.7 102.842 31.28H101.862C101.769 30.9467 101.585 30.6833 101.312 30.49C101.045 30.2967 100.712 30.2 100.312 30.2C99.7921 30.2 99.3721 30.38 99.0521 30.74C98.7321 31.0933 98.5721 31.5967 98.5721 32.25C98.5721 32.91 98.7321 33.42 99.0521 33.78C99.3721 34.14 99.7921 34.32 100.312 34.32ZM104.016 32.24C104.016 31.68 104.13 31.19 104.356 30.77C104.583 30.3433 104.893 30.0133 105.286 29.78C105.686 29.5467 106.13 29.43 106.616 29.43C107.096 29.43 107.513 29.5333 107.866 29.74C108.22 29.9467 108.483 30.2067 108.656 30.52V29.52H109.576V35H108.656V33.98C108.476 34.3 108.206 34.5667 107.846 34.78C107.493 34.9867 107.08 35.09 106.606 35.09C106.12 35.09 105.68 34.97 105.286 34.73C104.893 34.49 104.583 34.1533 104.356 33.72C104.13 33.2867 104.016 32.7933 104.016 32.24ZM108.656 32.25C108.656 31.8367 108.573 31.4767 108.406 31.17C108.24 30.8633 108.013 30.63 107.726 30.47C107.446 30.3033 107.136 30.22 106.796 30.22C106.456 30.22 106.146 30.3 105.866 30.46C105.586 30.62 105.363 30.8533 105.196 31.16C105.03 31.4667 104.946 31.8267 104.946 32.24C104.946 32.66 105.03 33.0267 105.196 33.34C105.363 33.6467 105.586 33.8833 105.866 34.05C106.146 34.21 106.456 34.29 106.796 34.29C107.136 34.29 107.446 34.21 107.726 34.05C108.013 33.8833 108.24 33.6467 108.406 33.34C108.573 33.0267 108.656 32.6633 108.656 32.25ZM114.084 29.42C114.751 29.42 115.291 29.6233 115.704 30.03C116.117 30.43 116.324 31.01 116.324 31.77V35H115.424V31.9C115.424 31.3533 115.287 30.9367 115.014 30.65C114.741 30.3567 114.367 30.21 113.894 30.21C113.414 30.21 113.031 30.36 112.744 30.66C112.464 30.96 112.324 31.3967 112.324 31.97V35H111.414V29.52H112.324V30.3C112.504 30.02 112.747 29.8033 113.054 29.65C113.367 29.4967 113.711 29.42 114.084 29.42ZM120.831 29.42C121.244 29.42 121.617 29.51 121.951 29.69C122.284 29.8633 122.544 30.1267 122.731 30.48C122.924 30.8333 123.021 31.2633 123.021 31.77V35H122.121V31.9C122.121 31.3533 121.984 30.9367 121.711 30.65C121.437 30.3567 121.064 30.21 120.591 30.21C120.111 30.21 119.727 30.36 119.441 30.66C119.161 30.96 119.021 31.3967 119.021 31.97V35H118.111V27.6H119.021V30.3C119.201 30.02 119.447 29.8033 119.761 29.65C120.081 29.4967 120.437 29.42 120.831 29.42ZM124.467 32.24C124.467 31.68 124.58 31.19 124.807 30.77C125.034 30.3433 125.344 30.0133 125.737 29.78C126.137 29.5467 126.58 29.43 127.067 29.43C127.547 29.43 127.964 29.5333 128.317 29.74C128.67 29.9467 128.934 30.2067 129.107 30.52V29.52H130.027V35H129.107V33.98C128.927 34.3 128.657 34.5667 128.297 34.78C127.944 34.9867 127.53 35.09 127.057 35.09C126.57 35.09 126.13 34.97 125.737 34.73C125.344 34.49 125.034 34.1533 124.807 33.72C124.58 33.2867 124.467 32.7933 124.467 32.24ZM129.107 32.25C129.107 31.8367 129.024 31.4767 128.857 31.17C128.69 30.8633 128.464 30.63 128.177 30.47C127.897 30.3033 127.587 30.22 127.247 30.22C126.907 30.22 126.597 30.3 126.317 30.46C126.037 30.62 125.814 30.8533 125.647 31.16C125.48 31.4667 125.397 31.8267 125.397 32.24C125.397 32.66 125.48 33.0267 125.647 33.34C125.814 33.6467 126.037 33.8833 126.317 34.05C126.597 34.21 126.907 34.29 127.247 34.29C127.587 34.29 127.897 34.21 128.177 34.05C128.464 33.8833 128.69 33.6467 128.857 33.34C129.024 33.0267 129.107 32.6633 129.107 32.25Z" fill="#98A4AE"/>
<path d="M73.9434 45.5L108.058 45.5L91.001 68.3301L73.9434 45.5Z" fill="white" stroke="#015486" stroke-width="2"/>
<path d="M91 65L71.0814 41L110.919 41L91 65Z" fill="white"/>
<path d="M31.155 11.978C30.2796 11.4725 29.3132 11.1443 28.311 11.0123C27.3088 10.8803 26.2904 10.947 25.314 11.2086C24.3376 11.4702 23.4223 11.9215 22.6203 12.5369C21.8183 13.1523 21.1454 13.9196 20.64 14.795L20.35 15.297C20.2507 15.4693 20.2239 15.6739 20.2755 15.8659C20.3271 16.0579 20.4528 16.2216 20.625 16.321L26.086 19.474L22.818 25.194L22.75 25.193C19.592 25.193 16.857 27.025 15.228 29.615C15.5062 29.5166 15.8027 29.481 16.0963 29.5108C16.3898 29.5405 16.6732 29.6348 16.926 29.787C18.338 27.921 20.444 26.693 22.75 26.693C25.154 26.693 27.341 28.028 28.75 30.029C28.9448 29.8497 29.1733 29.7109 29.4222 29.6206C29.6711 29.5303 29.9355 29.4903 30.2 29.503C28.869 27.445 26.833 25.883 24.444 25.372L27.385 20.224L32.658 23.269C32.7433 23.3183 32.8376 23.3503 32.9353 23.3631C33.033 23.376 33.1323 23.3695 33.2275 23.3439C33.3227 23.3184 33.4119 23.2743 33.4901 23.2143C33.5682 23.1543 33.6338 23.0794 33.683 22.994L33.973 22.493C34.4785 21.6176 34.8065 20.6511 34.9385 19.6489C35.0704 18.6466 35.0036 17.6282 34.742 16.6518C34.4803 15.6754 34.0288 14.7601 33.4134 13.9581C32.7979 13.1562 32.0305 12.4833 31.155 11.978ZM28.965 19.404L25.807 17.58C26.379 16.699 26.923 16.028 27.575 15.435C28.21 14.857 28.968 14.335 29.996 13.767C30.148 14.722 30.194 15.517 30.096 16.297C29.98 17.229 29.651 18.19 28.963 19.403M30.261 20.153C31.021 18.815 31.437 17.663 31.584 16.483C31.681 15.709 31.659 14.945 31.562 14.138C32.5536 15.0759 33.208 16.3148 33.4237 17.6625C33.6394 19.0102 33.4043 20.3915 32.755 21.592L30.261 20.153ZM26.565 14.325C25.775 15.044 25.14 15.844 24.505 16.829L22.025 15.397C22.7247 14.2594 23.773 13.3782 25.014 12.8845C26.2549 12.3908 27.6221 12.311 28.912 12.657C27.983 13.192 27.227 13.722 26.565 14.325ZM16.605 31.263C16.5536 31.1087 16.4535 30.9752 16.3197 30.8828C16.1859 30.7903 16.0257 30.7439 15.8632 30.7504C15.7007 30.757 15.5447 30.8162 15.4188 30.9191C15.2928 31.022 15.2038 31.163 15.165 31.321C14.91 32.363 14.427 32.935 13.877 33.267C13.301 33.615 12.567 33.749 11.748 33.749C11.5491 33.749 11.3583 33.828 11.2177 33.9687C11.077 34.1093 10.998 34.3001 10.998 34.499C10.998 34.6979 11.077 34.8887 11.2177 35.0293C11.3583 35.17 11.5491 35.249 11.748 35.249C12.705 35.249 13.748 35.097 14.652 34.551C15.1912 34.2252 15.6459 33.7767 15.979 33.242C17.768 35.524 21.261 35.512 22.998 33.218C24.763 35.548 28.338 35.524 30.101 33.132C30.5796 33.7834 31.2038 34.3141 31.9238 34.6816C32.6437 35.0492 33.4396 35.2435 34.248 35.249C34.4469 35.249 34.6377 35.17 34.7783 35.0293C34.919 34.8887 34.998 34.6979 34.998 34.499C34.998 34.3001 34.919 34.1093 34.7783 33.9687C34.6377 33.828 34.4469 33.749 34.248 33.749C32.773 33.749 31.303 32.789 30.818 31.271C30.77 31.1199 30.6754 30.9879 30.5477 30.894C30.42 30.8001 30.2659 30.749 30.1074 30.7481C29.9489 30.7472 29.7942 30.7965 29.6655 30.8891C29.5368 30.9816 29.4407 31.1125 29.391 31.263C28.428 34.172 24.653 34.135 23.707 31.384C23.6561 31.2364 23.5604 31.1085 23.4333 31.0179C23.3062 30.9273 23.1541 30.8786 22.998 30.8786C22.8419 30.8786 22.6897 30.9273 22.5626 31.0179C22.4355 31.1085 22.3399 31.2364 22.289 31.384C21.343 34.135 17.569 34.171 16.605 31.263Z" fill="#015486"/>
<defs>
<linearGradient id="paint0_linear_294_252" x1="179.069" y1="0.748829" x2="-69.2821" y2="206.234" gradientUnits="userSpaceOnUse">
<stop stop-color="white"/>
</linearGradient>
</defs>
</svg>
