<svg width="181" height="70" viewBox="0 0 181 70" fill="none" xmlns="http://www.w3.org/2000/svg">
<path d="M20 1H161C171.493 1 180 9.50659 180 20V26C180 36.4934 171.493 45 161 45H20C9.50659 45 1 36.4934 1 26V20C1 9.50659 9.50659 1 20 1Z" fill="url(#paint0_linear_294_258)" stroke="#015486" stroke-width="2"/>
<path d="M40.26 20V10.228C40.6427 10.1813 41.0627 10.1487 41.52 10.13C41.9867 10.102 42.4673 10.088 42.962 10.088C43.774 10.088 44.4647 10.2187 45.034 10.48C45.6033 10.732 46.0373 11.082 46.336 11.53C46.6347 11.978 46.784 12.4913 46.784 13.07C46.784 13.77 46.6113 14.3627 46.266 14.848C45.9207 15.3333 45.44 15.7067 44.824 15.968C44.208 16.22 43.494 16.346 42.682 16.346C42.29 16.346 41.926 16.332 41.59 16.304V20H40.26ZM42.85 15.24C43.6807 15.24 44.3247 15.0533 44.782 14.68C45.2393 14.3067 45.468 13.8073 45.468 13.182C45.468 12.5753 45.2487 12.0947 44.81 11.74C44.3713 11.3853 43.746 11.208 42.934 11.208C42.682 11.208 42.444 11.2127 42.22 11.222C41.996 11.2313 41.786 11.2453 41.59 11.264V15.17C41.7393 15.1887 41.9213 15.2073 42.136 15.226C42.3507 15.2353 42.5887 15.24 42.85 15.24ZM48.5548 20V12.72H49.7728V14.302C49.8941 13.994 50.0574 13.7093 50.2628 13.448C50.4681 13.1773 50.7248 12.9627 51.0328 12.804C51.3408 12.636 51.7001 12.552 52.1108 12.552C52.2508 12.552 52.3908 12.5613 52.5308 12.58C52.6708 12.5893 52.7874 12.608 52.8808 12.636L52.5028 13.938C52.3254 13.8633 52.1154 13.826 51.8728 13.826C51.5274 13.826 51.1961 13.924 50.8788 14.12C50.5708 14.316 50.3141 14.6193 50.1088 15.03C49.9128 15.4407 49.8148 15.9633 49.8148 16.598V20H48.5548ZM56.8087 20.168C56.2021 20.168 55.6514 20.014 55.1567 19.706C54.6621 19.398 54.2654 18.964 53.9667 18.404C53.6774 17.8347 53.5327 17.1673 53.5327 16.402C53.5327 15.674 53.6774 15.0207 53.9667 14.442C54.2654 13.8633 54.6714 13.406 55.1847 13.07C55.7074 12.7247 56.3047 12.552 56.9767 12.552C57.3967 12.552 57.7747 12.6267 58.1107 12.776C58.4561 12.916 58.7547 13.0933 59.0067 13.308V12.72H60.1547V18.236C60.1547 18.5907 60.2387 18.824 60.4067 18.936C60.5841 19.0387 60.7754 19.09 60.9807 19.09L60.7147 20.07C59.8187 20.07 59.2774 19.706 59.0907 18.978C58.8761 19.2767 58.5821 19.552 58.2087 19.804C57.8447 20.0467 57.3781 20.168 56.8087 20.168ZM57.0887 19.048C57.4434 19.048 57.7794 18.964 58.0967 18.796C58.4141 18.6187 58.6801 18.3993 58.8947 18.138V14.232C58.6427 14.0547 58.3627 13.9147 58.0547 13.812C57.7561 13.7 57.4387 13.644 57.1027 13.644C56.6547 13.644 56.2581 13.7607 55.9127 13.994C55.5767 14.218 55.3107 14.5353 55.1147 14.946C54.9187 15.3473 54.8207 15.8187 54.8207 16.36C54.8207 16.8827 54.9187 17.3493 55.1147 17.76C55.3107 18.1613 55.5814 18.4787 55.9267 18.712C56.2721 18.936 56.6594 19.048 57.0887 19.048ZM62.9634 20V12.72H64.2234V20H62.9634ZM63.5934 11.474C63.3507 11.474 63.1407 11.3853 62.9634 11.208C62.7954 11.0307 62.7114 10.8253 62.7114 10.592C62.7114 10.3213 62.7907 10.1067 62.9494 9.948C63.108 9.78933 63.3227 9.71 63.5934 9.71C63.836 9.71 64.0414 9.79867 64.2094 9.976C64.3867 10.144 64.4754 10.3493 64.4754 10.592C64.4754 10.8533 64.396 11.068 64.2374 11.236C64.0787 11.3947 63.864 11.474 63.5934 11.474ZM69.5494 20.168C68.9427 20.168 68.392 20.014 67.8974 19.706C67.4027 19.398 67.006 18.964 66.7074 18.404C66.418 17.8347 66.2734 17.1673 66.2734 16.402C66.2734 15.674 66.418 15.0207 66.7074 14.442C67.006 13.8633 67.412 13.406 67.9254 13.07C68.448 12.7247 69.0454 12.552 69.7174 12.552C70.1374 12.552 70.5154 12.6267 70.8514 12.776C71.1967 12.916 71.4954 13.0933 71.7474 13.308V12.72H72.8954V18.236C72.8954 18.5907 72.9794 18.824 73.1474 18.936C73.3247 19.0387 73.516 19.09 73.7214 19.09L73.4554 20.07C72.5594 20.07 72.018 19.706 71.8314 18.978C71.6167 19.2767 71.3227 19.552 70.9494 19.804C70.5854 20.0467 70.1187 20.168 69.5494 20.168ZM69.8294 19.048C70.184 19.048 70.52 18.964 70.8374 18.796C71.1547 18.6187 71.4207 18.3993 71.6354 18.138V14.232C71.3834 14.0547 71.1034 13.9147 70.7954 13.812C70.4967 13.7 70.1794 13.644 69.8434 13.644C69.3954 13.644 68.9987 13.7607 68.6534 13.994C68.3174 14.218 68.0514 14.5353 67.8554 14.946C67.6594 15.3473 67.5614 15.8187 67.5614 16.36C67.5614 16.8827 67.6594 17.3493 67.8554 17.76C68.0514 18.1613 68.322 18.4787 68.6674 18.712C69.0127 18.936 69.4 19.048 69.8294 19.048ZM82.9592 20.168C82.3619 20.168 81.8159 20.014 81.3212 19.706C80.8266 19.398 80.4346 18.964 80.1452 18.404C79.8559 17.8347 79.7112 17.1673 79.7112 16.402C79.7112 15.6647 79.8559 15.0067 80.1452 14.428C80.4439 13.8493 80.8359 13.392 81.3212 13.056C81.8159 12.72 82.3572 12.552 82.9452 12.552C83.4306 12.552 83.8459 12.65 84.1912 12.846C84.5459 13.042 84.8212 13.2427 85.0172 13.448V9.64H86.2772V18.236C86.2772 18.5907 86.3612 18.824 86.5292 18.936C86.7066 19.0387 86.8979 19.09 87.1032 19.09L86.8372 20.07C85.9506 20.07 85.4092 19.7153 85.2132 19.006C85.0079 19.2953 84.7186 19.5613 84.3452 19.804C83.9812 20.0467 83.5192 20.168 82.9592 20.168ZM83.2392 19.048C83.5846 19.048 83.9112 18.9687 84.2192 18.81C84.5366 18.642 84.8026 18.4273 85.0172 18.166V14.554C84.8399 14.33 84.5926 14.1247 84.2752 13.938C83.9579 13.742 83.6079 13.644 83.2252 13.644C82.7772 13.644 82.3852 13.7653 82.0492 14.008C81.7132 14.2507 81.4519 14.5773 81.2652 14.988C81.0879 15.3893 80.9992 15.8467 80.9992 16.36C80.9992 16.8733 81.0972 17.3353 81.2932 17.746C81.4892 18.1473 81.7552 18.4647 82.0912 18.698C82.4366 18.9313 82.8192 19.048 83.2392 19.048ZM91.7365 20.168C91.1298 20.168 90.5791 20.014 90.0845 19.706C89.5898 19.398 89.1931 18.964 88.8945 18.404C88.6051 17.8347 88.4605 17.1673 88.4605 16.402C88.4605 15.674 88.6051 15.0207 88.8945 14.442C89.1931 13.8633 89.5991 13.406 90.1125 13.07C90.6351 12.7247 91.2325 12.552 91.9045 12.552C92.3245 12.552 92.7025 12.6267 93.0385 12.776C93.3838 12.916 93.6825 13.0933 93.9345 13.308V12.72H95.0825V18.236C95.0825 18.5907 95.1665 18.824 95.3345 18.936C95.5118 19.0387 95.7031 19.09 95.9085 19.09L95.6425 20.07C94.7465 20.07 94.2051 19.706 94.0185 18.978C93.8038 19.2767 93.5098 19.552 93.1365 19.804C92.7725 20.0467 92.3058 20.168 91.7365 20.168ZM92.0165 19.048C92.3711 19.048 92.7071 18.964 93.0245 18.796C93.3418 18.6187 93.6078 18.3993 93.8225 18.138V14.232C93.5705 14.0547 93.2905 13.9147 92.9825 13.812C92.6838 13.7 92.3665 13.644 92.0305 13.644C91.5825 13.644 91.1858 13.7607 90.8405 13.994C90.5045 14.218 90.2385 14.5353 90.0425 14.946C89.8465 15.3473 89.7485 15.8187 89.7485 16.36C89.7485 16.8827 89.8465 17.3493 90.0425 17.76C90.2385 18.1613 90.5091 18.4787 90.8545 18.712C91.1998 18.936 91.5871 19.048 92.0165 19.048ZM99.8511 20.168C99.3004 20.168 98.8011 20.098 98.3531 19.958C97.9144 19.818 97.5504 19.636 97.2611 19.412L97.7931 18.362C98.0358 18.5673 98.3391 18.74 98.7031 18.88C99.0764 19.0107 99.4731 19.076 99.8931 19.076C100.416 19.076 100.808 18.992 101.069 18.824C101.34 18.6467 101.475 18.4227 101.475 18.152C101.475 17.956 101.424 17.7833 101.321 17.634C101.228 17.4847 101.05 17.34 100.789 17.2C100.528 17.0507 100.15 16.892 99.6551 16.724C98.9738 16.4907 98.4604 16.2153 98.1151 15.898C97.7791 15.5713 97.6111 15.1233 97.6111 14.554C97.6111 13.994 97.8538 13.5227 98.3391 13.14C98.8338 12.748 99.5151 12.552 100.383 12.552C100.85 12.552 101.265 12.6033 101.629 12.706C101.993 12.7993 102.32 12.9207 102.609 13.07L102.259 14.106C102.007 13.9567 101.718 13.8353 101.391 13.742C101.074 13.6487 100.719 13.602 100.327 13.602C99.8418 13.602 99.4731 13.7 99.2211 13.896C98.9691 14.092 98.8431 14.3067 98.8431 14.54C98.8431 14.764 98.9411 14.9553 99.1371 15.114C99.3331 15.2727 99.7158 15.4453 100.285 15.632C101.209 15.94 101.853 16.2807 102.217 16.654C102.581 17.0273 102.763 17.494 102.763 18.054C102.763 18.7073 102.497 19.2253 101.965 19.608C101.442 19.9813 100.738 20.168 99.8511 20.168ZM109.377 20V10.2H115.187V11.348H110.707V14.344H114.445V15.436H110.707V20H109.377ZM118.818 20.168C118.388 20.168 118.001 20.0887 117.656 19.93C117.31 19.762 117.035 19.496 116.83 19.132C116.634 18.768 116.536 18.2967 116.536 17.718V9.64H117.796V17.592C117.796 18.096 117.898 18.4693 118.104 18.712C118.318 18.9547 118.612 19.076 118.986 19.076C119.163 19.076 119.336 19.0573 119.504 19.02C119.681 18.9733 119.83 18.922 119.952 18.866L120.26 19.888C120.092 19.9627 119.882 20.028 119.63 20.084C119.387 20.14 119.116 20.168 118.818 20.168ZM124.452 20.168C123.407 20.168 122.576 19.8367 121.96 19.174C121.354 18.502 121.05 17.564 121.05 16.36C121.05 15.632 121.186 14.9833 121.456 14.414C121.736 13.8353 122.124 13.3827 122.618 13.056C123.113 12.72 123.687 12.552 124.34 12.552C125.04 12.552 125.619 12.706 126.076 13.014C126.543 13.3127 126.893 13.7187 127.126 14.232C127.36 14.7453 127.476 15.31 127.476 15.926C127.476 16.2527 127.462 16.57 127.434 16.878H122.338C122.422 17.5593 122.66 18.0913 123.052 18.474C123.444 18.8567 123.962 19.048 124.606 19.048C125.026 19.048 125.404 19.006 125.74 18.922C126.076 18.8287 126.398 18.712 126.706 18.572L127 19.65C126.664 19.7993 126.286 19.9207 125.866 20.014C125.446 20.1167 124.975 20.168 124.452 20.168ZM122.324 15.856H126.314C126.314 15.1467 126.137 14.6007 125.782 14.218C125.428 13.8353 124.938 13.644 124.312 13.644C123.771 13.644 123.323 13.8353 122.968 14.218C122.614 14.5913 122.399 15.1373 122.324 15.856ZM132.396 20.168C131.705 20.168 131.098 20.0093 130.576 19.692C130.062 19.3653 129.666 18.9173 129.386 18.348C129.106 17.7693 128.966 17.1067 128.966 16.36C128.966 15.66 129.106 15.0207 129.386 14.442C129.675 13.8633 130.086 13.406 130.618 13.07C131.15 12.7247 131.775 12.552 132.494 12.552C132.904 12.552 133.264 12.5893 133.572 12.664C133.889 12.7387 134.192 12.846 134.482 12.986L134.104 14.05C133.842 13.9193 133.59 13.826 133.348 13.77C133.114 13.7047 132.853 13.672 132.564 13.672C131.91 13.672 131.36 13.91 130.912 14.386C130.473 14.8527 130.254 15.5013 130.254 16.332C130.254 16.836 130.347 17.2933 130.534 17.704C130.72 18.1147 130.977 18.4413 131.304 18.684C131.64 18.9267 132.032 19.048 132.48 19.048C132.834 19.048 133.138 19.0107 133.39 18.936C133.642 18.852 133.912 18.7353 134.202 18.586L134.594 19.65C134.304 19.8087 133.978 19.9347 133.614 20.028C133.259 20.1213 132.853 20.168 132.396 20.168ZM136.359 20V9.64H137.619V13.882C137.88 13.4993 138.212 13.182 138.613 12.93C139.014 12.678 139.486 12.552 140.027 12.552C140.848 12.552 141.46 12.7993 141.861 13.294C142.272 13.7887 142.477 14.442 142.477 15.254V20H141.217V15.394C141.217 14.8713 141.096 14.4513 140.853 14.134C140.61 13.8167 140.27 13.658 139.831 13.658C139.402 13.658 138.991 13.812 138.599 14.12C138.216 14.4187 137.89 14.7733 137.619 15.184V20H136.359ZM147.73 20.168C147.124 20.168 146.573 20.014 146.078 19.706C145.584 19.398 145.187 18.964 144.888 18.404C144.599 17.8347 144.454 17.1673 144.454 16.402C144.454 15.674 144.599 15.0207 144.888 14.442C145.187 13.8633 145.593 13.406 146.106 13.07C146.629 12.7247 147.226 12.552 147.898 12.552C148.318 12.552 148.696 12.6267 149.032 12.776C149.378 12.916 149.676 13.0933 149.928 13.308V12.72H151.076V18.236C151.076 18.5907 151.16 18.824 151.328 18.936C151.506 19.0387 151.697 19.09 151.902 19.09L151.636 20.07C150.74 20.07 150.199 19.706 150.012 18.978C149.798 19.2767 149.504 19.552 149.13 19.804C148.766 20.0467 148.3 20.168 147.73 20.168ZM148.01 19.048C148.365 19.048 148.701 18.964 149.018 18.796C149.336 18.6187 149.602 18.3993 149.816 18.138V14.232C149.564 14.0547 149.284 13.9147 148.976 13.812C148.678 13.7 148.36 13.644 148.024 13.644C147.576 13.644 147.18 13.7607 146.834 13.994C146.498 14.218 146.232 14.5353 146.036 14.946C145.84 15.3473 145.742 15.8187 145.742 16.36C145.742 16.8827 145.84 17.3493 146.036 17.76C146.232 18.1613 146.503 18.4787 146.848 18.712C147.194 18.936 147.581 19.048 148.01 19.048ZM155.845 20.168C155.294 20.168 154.795 20.098 154.347 19.958C153.908 19.818 153.544 19.636 153.255 19.412L153.787 18.362C154.03 18.5673 154.333 18.74 154.697 18.88C155.07 19.0107 155.467 19.076 155.887 19.076C156.41 19.076 156.802 18.992 157.063 18.824C157.334 18.6467 157.469 18.4227 157.469 18.152C157.469 17.956 157.418 17.7833 157.315 17.634C157.222 17.4847 157.044 17.34 156.783 17.2C156.522 17.0507 156.144 16.892 155.649 16.724C154.968 16.4907 154.454 16.2153 154.109 15.898C153.773 15.5713 153.605 15.1233 153.605 14.554C153.605 13.994 153.848 13.5227 154.333 13.14C154.828 12.748 155.509 12.552 156.377 12.552C156.844 12.552 157.259 12.6033 157.623 12.706C157.987 12.7993 158.314 12.9207 158.603 13.07L158.253 14.106C158.001 13.9567 157.712 13.8353 157.385 13.742C157.068 13.6487 156.713 13.602 156.321 13.602C155.836 13.602 155.467 13.7 155.215 13.896C154.963 14.092 154.837 14.3067 154.837 14.54C154.837 14.764 154.935 14.9553 155.131 15.114C155.327 15.2727 155.71 15.4453 156.279 15.632C157.203 15.94 157.847 16.2807 158.211 16.654C158.575 17.0273 158.757 17.494 158.757 18.054C158.757 18.7073 158.491 19.2253 157.959 19.608C157.436 19.9813 156.732 20.168 155.845 20.168Z" fill="#015486"/>
<path d="M43.44 35L41.78 32.15H40.68V35H39.77V28.03H42.02C42.5467 28.03 42.99 28.12 43.35 28.3C43.7167 28.48 43.99 28.7233 44.17 29.03C44.35 29.3367 44.44 29.6867 44.44 30.08C44.44 30.56 44.3 30.9833 44.02 31.35C43.7467 31.7167 43.3333 31.96 42.78 32.08L44.53 35H43.44ZM40.68 31.42H42.02C42.5133 31.42 42.8833 31.3 43.13 31.06C43.3767 30.8133 43.5 30.4867 43.5 30.08C43.5 29.6667 43.3767 29.3467 43.13 29.12C42.89 28.8933 42.52 28.78 42.02 28.78H40.68V31.42ZM51.014 29.52V35H50.104V34.19C49.9307 34.47 49.6873 34.69 49.374 34.85C49.0673 35.0033 48.7273 35.08 48.354 35.08C47.9273 35.08 47.544 34.9933 47.204 34.82C46.864 34.64 46.594 34.3733 46.394 34.02C46.2007 33.6667 46.104 33.2367 46.104 32.73V29.52H47.004V32.61C47.004 33.15 47.1407 33.5667 47.414 33.86C47.6873 34.1467 48.0607 34.29 48.534 34.29C49.0207 34.29 49.404 34.14 49.684 33.84C49.964 33.54 50.104 33.1033 50.104 32.53V29.52H51.014ZM52.5105 32.24C52.5105 31.68 52.6238 31.19 52.8505 30.77C53.0771 30.3433 53.3871 30.0133 53.7805 29.78C54.1805 29.5467 54.6238 29.43 55.1105 29.43C55.5905 29.43 56.0071 29.5333 56.3605 29.74C56.7138 29.9467 56.9771 30.2067 57.1505 30.52V29.52H58.0705V35H57.1505V33.98C56.9705 34.3 56.7005 34.5667 56.3405 34.78C55.9871 34.9867 55.5738 35.09 55.1005 35.09C54.6138 35.09 54.1738 34.97 53.7805 34.73C53.3871 34.49 53.0771 34.1533 52.8505 33.72C52.6238 33.2867 52.5105 32.7933 52.5105 32.24ZM57.1505 32.25C57.1505 31.8367 57.0671 31.4767 56.9005 31.17C56.7338 30.8633 56.5071 30.63 56.2205 30.47C55.9405 30.3033 55.6305 30.22 55.2905 30.22C54.9505 30.22 54.6405 30.3 54.3605 30.46C54.0805 30.62 53.8571 30.8533 53.6905 31.16C53.5238 31.4667 53.4405 31.8267 53.4405 32.24C53.4405 32.66 53.5238 33.0267 53.6905 33.34C53.8571 33.6467 54.0805 33.8833 54.3605 34.05C54.6405 34.21 54.9505 34.29 55.2905 34.29C55.6305 34.29 55.9405 34.21 56.2205 34.05C56.5071 33.8833 56.7338 33.6467 56.9005 33.34C57.0671 33.0267 57.1505 32.6633 57.1505 32.25ZM67.5343 30.07C67.5343 30.65 67.3343 31.1333 66.9343 31.52C66.541 31.9 65.9376 32.09 65.1243 32.09H63.7843V35H62.8743V28.03H65.1243C65.911 28.03 66.5076 28.22 66.9143 28.6C67.3276 28.98 67.5343 29.47 67.5343 30.07ZM65.1243 31.34C65.631 31.34 66.0043 31.23 66.2443 31.01C66.4843 30.79 66.6043 30.4767 66.6043 30.07C66.6043 29.21 66.111 28.78 65.1243 28.78H63.7843V31.34H65.1243ZM69.8753 30.41C70.0353 30.0967 70.262 29.8533 70.5553 29.68C70.8553 29.5067 71.2186 29.42 71.6453 29.42V30.36H71.4053C70.3853 30.36 69.8753 30.9133 69.8753 32.02V35H68.9653V29.52H69.8753V30.41ZM72.6558 32.24C72.6558 31.68 72.7691 31.19 72.9958 30.77C73.2224 30.3433 73.5324 30.0133 73.9258 29.78C74.3258 29.5467 74.7691 29.43 75.2558 29.43C75.7358 29.43 76.1524 29.5333 76.5058 29.74C76.8591 29.9467 77.1224 30.2067 77.2958 30.52V29.52H78.2158V35H77.2958V33.98C77.1158 34.3 76.8458 34.5667 76.4858 34.78C76.1324 34.9867 75.7191 35.09 75.2458 35.09C74.7591 35.09 74.3191 34.97 73.9258 34.73C73.5324 34.49 73.2224 34.1533 72.9958 33.72C72.7691 33.2867 72.6558 32.7933 72.6558 32.24ZM77.2958 32.25C77.2958 31.8367 77.2124 31.4767 77.0458 31.17C76.8791 30.8633 76.6524 30.63 76.3658 30.47C76.0858 30.3033 75.7758 30.22 75.4358 30.22C75.0958 30.22 74.7858 30.3 74.5058 30.46C74.2258 30.62 74.0024 30.8533 73.8358 31.16C73.6691 31.4667 73.5858 31.8267 73.5858 32.24C73.5858 32.66 73.6691 33.0267 73.8358 33.34C74.0024 33.6467 74.2258 33.8833 74.5058 34.05C74.7858 34.21 75.0958 34.29 75.4358 34.29C75.7758 34.29 76.0858 34.21 76.3658 34.05C76.6524 33.8833 76.8791 33.6467 77.0458 33.34C77.2124 33.0267 77.2958 32.6633 77.2958 32.25ZM80.5236 28.63C80.3503 28.63 80.2036 28.57 80.0836 28.45C79.9636 28.33 79.9036 28.1833 79.9036 28.01C79.9036 27.8367 79.9636 27.69 80.0836 27.57C80.2036 27.45 80.3503 27.39 80.5236 27.39C80.6903 27.39 80.8303 27.45 80.9436 27.57C81.0636 27.69 81.1236 27.8367 81.1236 28.01C81.1236 28.1833 81.0636 28.33 80.9436 28.45C80.8303 28.57 80.6903 28.63 80.5236 28.63ZM80.9636 29.52V35H80.0536V29.52H80.9636ZM82.4745 32.24C82.4745 31.68 82.5879 31.19 82.8145 30.77C83.0412 30.3433 83.3512 30.0133 83.7445 29.78C84.1445 29.5467 84.5879 29.43 85.0745 29.43C85.5545 29.43 85.9712 29.5333 86.3245 29.74C86.6779 29.9467 86.9412 30.2067 87.1145 30.52V29.52H88.0345V35H87.1145V33.98C86.9345 34.3 86.6645 34.5667 86.3045 34.78C85.9512 34.9867 85.5379 35.09 85.0645 35.09C84.5779 35.09 84.1379 34.97 83.7445 34.73C83.3512 34.49 83.0412 34.1533 82.8145 33.72C82.5879 33.2867 82.4745 32.7933 82.4745 32.24ZM87.1145 32.25C87.1145 31.8367 87.0312 31.4767 86.8645 31.17C86.6979 30.8633 86.4712 30.63 86.1845 30.47C85.9045 30.3033 85.5945 30.22 85.2545 30.22C84.9145 30.22 84.6045 30.3 84.3245 30.46C84.0445 30.62 83.8212 30.8533 83.6545 31.16C83.4879 31.4667 83.4045 31.8267 83.4045 32.24C83.4045 32.66 83.4879 33.0267 83.6545 33.34C83.8212 33.6467 84.0445 33.8833 84.3245 34.05C84.6045 34.21 84.9145 34.29 85.2545 34.29C85.5945 34.29 85.9045 34.21 86.1845 34.05C86.4712 33.8833 86.6979 33.6467 86.8645 33.34C87.0312 33.0267 87.1145 32.6633 87.1145 32.25ZM92.4984 32.24C92.4984 31.68 92.6117 31.19 92.8384 30.77C93.065 30.3433 93.375 30.0133 93.7684 29.78C94.1684 29.5467 94.615 29.43 95.1084 29.43C95.535 29.43 95.9317 29.53 96.2984 29.73C96.665 29.9233 96.945 30.18 97.1384 30.5V27.6H98.0584V35H97.1384V33.97C96.9584 34.2967 96.6917 34.5667 96.3384 34.78C95.985 34.9867 95.5717 35.09 95.0984 35.09C94.6117 35.09 94.1684 34.97 93.7684 34.73C93.375 34.49 93.065 34.1533 92.8384 33.72C92.6117 33.2867 92.4984 32.7933 92.4984 32.24ZM97.1384 32.25C97.1384 31.8367 97.055 31.4767 96.8884 31.17C96.7217 30.8633 96.495 30.63 96.2084 30.47C95.9284 30.3033 95.6184 30.22 95.2784 30.22C94.9384 30.22 94.6284 30.3 94.3484 30.46C94.0684 30.62 93.845 30.8533 93.6784 31.16C93.5117 31.4667 93.4284 31.8267 93.4284 32.24C93.4284 32.66 93.5117 33.0267 93.6784 33.34C93.845 33.6467 94.0684 33.8833 94.3484 34.05C94.6284 34.21 94.9384 34.29 95.2784 34.29C95.6184 34.29 95.9284 34.21 96.2084 34.05C96.495 33.8833 96.7217 33.6467 96.8884 33.34C97.055 33.0267 97.1384 32.6633 97.1384 32.25ZM104.896 32.05C104.896 32.2233 104.886 32.4067 104.866 32.6H100.486C100.52 33.14 100.703 33.5633 101.036 33.87C101.376 34.17 101.786 34.32 102.266 34.32C102.66 34.32 102.986 34.23 103.246 34.05C103.513 33.8633 103.7 33.6167 103.806 33.31H104.786C104.64 33.8367 104.346 34.2667 103.906 34.6C103.466 34.9267 102.92 35.09 102.266 35.09C101.746 35.09 101.28 34.9733 100.866 34.74C100.46 34.5067 100.14 34.1767 99.9062 33.75C99.6728 33.3167 99.5562 32.8167 99.5562 32.25C99.5562 31.6833 99.6695 31.1867 99.8962 30.76C100.123 30.3333 100.44 30.0067 100.846 29.78C101.26 29.5467 101.733 29.43 102.266 29.43C102.786 29.43 103.246 29.5433 103.646 29.77C104.046 29.9967 104.353 30.31 104.566 30.71C104.786 31.1033 104.896 31.55 104.896 32.05ZM103.956 31.86C103.956 31.5133 103.88 31.2167 103.726 30.97C103.573 30.7167 103.363 30.5267 103.096 30.4C102.836 30.2667 102.546 30.2 102.226 30.2C101.766 30.2 101.373 30.3467 101.046 30.64C100.726 30.9333 100.543 31.34 100.496 31.86H103.956ZM110.273 28.03V35H109.363V28.03H110.273ZM111.784 32.25C111.784 31.6833 111.898 31.19 112.124 30.77C112.351 30.3433 112.664 30.0133 113.064 29.78C113.471 29.5467 113.934 29.43 114.454 29.43C115.128 29.43 115.681 29.5933 116.114 29.92C116.554 30.2467 116.844 30.7 116.984 31.28H116.004C115.911 30.9467 115.728 30.6833 115.454 30.49C115.188 30.2967 114.854 30.2 114.454 30.2C113.934 30.2 113.514 30.38 113.194 30.74C112.874 31.0933 112.714 31.5967 112.714 32.25C112.714 32.91 112.874 33.42 113.194 33.78C113.514 34.14 113.934 34.32 114.454 34.32C114.854 34.32 115.188 34.2267 115.454 34.04C115.721 33.8533 115.904 33.5867 116.004 33.24H116.984C116.838 33.8 116.544 34.25 116.104 34.59C115.664 34.9233 115.114 35.09 114.454 35.09C113.934 35.09 113.471 34.9733 113.064 34.74C112.664 34.5067 112.351 34.1767 112.124 33.75C111.898 33.3233 111.784 32.8233 111.784 32.25ZM118.159 32.24C118.159 31.68 118.272 31.19 118.499 30.77C118.725 30.3433 119.035 30.0133 119.429 29.78C119.829 29.5467 120.272 29.43 120.759 29.43C121.239 29.43 121.655 29.5333 122.009 29.74C122.362 29.9467 122.625 30.2067 122.799 30.52V29.52H123.719V35H122.799V33.98C122.619 34.3 122.349 34.5667 121.989 34.78C121.635 34.9867 121.222 35.09 120.749 35.09C120.262 35.09 119.822 34.97 119.429 34.73C119.035 34.49 118.725 34.1533 118.499 33.72C118.272 33.2867 118.159 32.7933 118.159 32.24ZM122.799 32.25C122.799 31.8367 122.715 31.4767 122.549 31.17C122.382 30.8633 122.155 30.63 121.869 30.47C121.589 30.3033 121.279 30.22 120.939 30.22C120.599 30.22 120.289 30.3 120.009 30.46C119.729 30.62 119.505 30.8533 119.339 31.16C119.172 31.4667 119.089 31.8267 119.089 32.24C119.089 32.66 119.172 33.0267 119.339 33.34C119.505 33.6467 119.729 33.8833 120.009 34.05C120.289 34.21 120.599 34.29 120.939 34.29C121.279 34.29 121.589 34.21 121.869 34.05C122.155 33.8833 122.382 33.6467 122.549 33.34C122.715 33.0267 122.799 32.6633 122.799 32.25ZM126.466 30.41C126.626 30.0967 126.853 29.8533 127.146 29.68C127.446 29.5067 127.81 29.42 128.236 29.42V30.36H127.996C126.976 30.36 126.466 30.9133 126.466 32.02V35H125.556V29.52H126.466V30.41ZM129.247 32.24C129.247 31.68 129.36 31.19 129.587 30.77C129.813 30.3433 130.123 30.0133 130.517 29.78C130.917 29.5467 131.36 29.43 131.847 29.43C132.327 29.43 132.743 29.5333 133.097 29.74C133.45 29.9467 133.713 30.2067 133.887 30.52V29.52H134.807V35H133.887V33.98C133.707 34.3 133.437 34.5667 133.077 34.78C132.723 34.9867 132.31 35.09 131.837 35.09C131.35 35.09 130.91 34.97 130.517 34.73C130.123 34.49 129.813 34.1533 129.587 33.72C129.36 33.2867 129.247 32.7933 129.247 32.24ZM133.887 32.25C133.887 31.8367 133.803 31.4767 133.637 31.17C133.47 30.8633 133.243 30.63 132.957 30.47C132.677 30.3033 132.367 30.22 132.027 30.22C131.687 30.22 131.377 30.3 131.097 30.46C130.817 30.62 130.593 30.8533 130.427 31.16C130.26 31.4667 130.177 31.8267 130.177 32.24C130.177 32.66 130.26 33.0267 130.427 33.34C130.593 33.6467 130.817 33.8833 131.097 34.05C131.377 34.21 131.687 34.29 132.027 34.29C132.367 34.29 132.677 34.21 132.957 34.05C133.243 33.8833 133.47 33.6467 133.637 33.34C133.803 33.0267 133.887 32.6633 133.887 32.25ZM137.555 29.52V35H136.645V29.52H137.555ZM138.075 27.97L135.945 29.11V28.43L138.075 27.18V27.97ZM145.042 29.42C145.708 29.42 146.248 29.6233 146.662 30.03C147.075 30.43 147.282 31.01 147.282 31.77V35H146.382V31.9C146.382 31.3533 146.245 30.9367 145.972 30.65C145.698 30.3567 145.325 30.21 144.852 30.21C144.372 30.21 143.988 30.36 143.702 30.66C143.422 30.96 143.282 31.3967 143.282 31.97V35H142.372V29.52H143.282V30.3C143.462 30.02 143.705 29.8033 144.012 29.65C144.325 29.4967 144.668 29.42 145.042 29.42ZM148.628 29.72C148.628 29.36 148.708 29.0433 148.868 28.77C149.028 28.4967 149.248 28.2867 149.528 28.14C149.815 27.9867 150.131 27.91 150.478 27.91C150.831 27.91 151.148 27.9867 151.428 28.14C151.708 28.2867 151.928 28.4967 152.088 28.77C152.248 29.0433 152.328 29.36 152.328 29.72C152.328 30.0733 152.245 30.39 152.078 30.67C151.918 30.9433 151.695 31.1567 151.408 31.31C151.128 31.4633 150.815 31.54 150.468 31.54C150.115 31.54 149.798 31.4633 149.518 31.31C149.245 31.1567 149.028 30.9433 148.868 30.67C148.708 30.3967 148.628 30.08 148.628 29.72ZM151.588 29.73C151.588 29.3367 151.478 29.03 151.258 28.81C151.045 28.59 150.785 28.48 150.478 28.48C150.165 28.48 149.901 28.59 149.688 28.81C149.481 29.03 149.378 29.3367 149.378 29.73C149.378 30.1167 149.481 30.42 149.688 30.64C149.895 30.8533 150.155 30.96 150.468 30.96C150.775 30.96 151.038 30.85 151.258 30.63C151.478 30.41 151.588 30.11 151.588 29.73ZM153.334 28.6V27.77H155.214V35H154.294V28.6H153.334ZM161.107 29.49C160.96 28.75 160.503 28.38 159.737 28.38C159.143 28.38 158.7 28.61 158.407 29.07C158.113 29.5233 157.97 30.2733 157.977 31.32C158.13 30.9733 158.383 30.7033 158.737 30.51C159.097 30.31 159.497 30.21 159.937 30.21C160.623 30.21 161.17 30.4233 161.577 30.85C161.99 31.2767 162.197 31.8667 162.197 32.62C162.197 33.0733 162.107 33.48 161.927 33.84C161.753 34.2 161.487 34.4867 161.127 34.7C160.773 34.9133 160.343 35.02 159.837 35.02C159.15 35.02 158.613 34.8667 158.227 34.56C157.84 34.2533 157.57 33.83 157.417 33.29C157.263 32.75 157.187 32.0833 157.187 31.29C157.187 28.8433 158.04 27.62 159.747 27.62C160.4 27.62 160.913 27.7967 161.287 28.15C161.66 28.5033 161.88 28.95 161.947 29.49H161.107ZM159.747 30.98C159.46 30.98 159.19 31.04 158.937 31.16C158.683 31.2733 158.477 31.45 158.317 31.69C158.163 31.9233 158.087 32.21 158.087 32.55C158.087 33.0567 158.233 33.47 158.527 33.79C158.82 34.1033 159.24 34.26 159.787 34.26C160.253 34.26 160.623 34.1167 160.897 33.83C161.177 33.5367 161.317 33.1433 161.317 32.65C161.317 32.13 161.183 31.7233 160.917 31.43C160.65 31.13 160.26 30.98 159.747 30.98ZM163.704 29.59C163.751 28.9767 163.988 28.4967 164.414 28.15C164.841 27.8033 165.394 27.63 166.074 27.63C166.528 27.63 166.918 27.7133 167.244 27.88C167.578 28.04 167.828 28.26 167.994 28.54C168.168 28.82 168.254 29.1367 168.254 29.49C168.254 29.9033 168.134 30.26 167.894 30.56C167.661 30.86 167.354 31.0533 166.974 31.14V31.19C167.408 31.2967 167.751 31.5067 168.004 31.82C168.258 32.1333 168.384 32.5433 168.384 33.05C168.384 33.43 168.298 33.7733 168.124 34.08C167.951 34.38 167.691 34.6167 167.344 34.79C166.998 34.9633 166.581 35.05 166.094 35.05C165.388 35.05 164.808 34.8667 164.354 34.5C163.901 34.1267 163.648 33.6 163.594 32.92H164.474C164.521 33.32 164.684 33.6467 164.964 33.9C165.244 34.1533 165.618 34.28 166.084 34.28C166.551 34.28 166.904 34.16 167.144 33.92C167.391 33.6733 167.514 33.3567 167.514 32.97C167.514 32.47 167.348 32.11 167.014 31.89C166.681 31.67 166.178 31.56 165.504 31.56H165.274V30.8H165.514C166.128 30.7933 166.591 30.6933 166.904 30.5C167.218 30.3 167.374 29.9933 167.374 29.58C167.374 29.2267 167.258 28.9433 167.024 28.73C166.798 28.5167 166.471 28.41 166.044 28.41C165.631 28.41 165.298 28.5167 165.044 28.73C164.791 28.9433 164.641 29.23 164.594 29.59H163.704Z" fill="#98A4AE"/>
<path d="M73.9434 45.5L108.058 45.5L91.001 68.3301L73.9434 45.5Z" fill="white" stroke="#015486" stroke-width="2"/>
<path d="M91 65L71.0814 41L110.919 41L91 65Z" fill="white"/>
<path d="M31.155 11.978C30.2796 11.4725 29.3132 11.1443 28.311 11.0123C27.3088 10.8803 26.2904 10.947 25.314 11.2086C24.3376 11.4702 23.4223 11.9215 22.6203 12.5369C21.8183 13.1523 21.1454 13.9196 20.64 14.795L20.35 15.297C20.2507 15.4693 20.2239 15.6739 20.2755 15.8659C20.3271 16.0579 20.4528 16.2216 20.625 16.321L26.086 19.474L22.818 25.194L22.75 25.193C19.592 25.193 16.857 27.025 15.228 29.615C15.5062 29.5166 15.8027 29.481 16.0963 29.5108C16.3898 29.5405 16.6732 29.6348 16.926 29.787C18.338 27.921 20.444 26.693 22.75 26.693C25.154 26.693 27.341 28.028 28.75 30.029C28.9448 29.8497 29.1733 29.7109 29.4222 29.6206C29.6711 29.5303 29.9355 29.4903 30.2 29.503C28.869 27.445 26.833 25.883 24.444 25.372L27.385 20.224L32.658 23.269C32.7433 23.3183 32.8376 23.3503 32.9353 23.3631C33.033 23.376 33.1323 23.3695 33.2275 23.3439C33.3227 23.3184 33.4119 23.2743 33.4901 23.2143C33.5682 23.1543 33.6338 23.0794 33.683 22.994L33.973 22.493C34.4785 21.6176 34.8065 20.6511 34.9385 19.6489C35.0704 18.6466 35.0036 17.6282 34.742 16.6518C34.4803 15.6754 34.0288 14.7601 33.4134 13.9581C32.7979 13.1562 32.0305 12.4833 31.155 11.978ZM28.965 19.404L25.807 17.58C26.379 16.699 26.923 16.028 27.575 15.435C28.21 14.857 28.968 14.335 29.996 13.767C30.148 14.722 30.194 15.517 30.096 16.297C29.98 17.229 29.651 18.19 28.963 19.403M30.261 20.153C31.021 18.815 31.437 17.663 31.584 16.483C31.681 15.709 31.659 14.945 31.562 14.138C32.5536 15.0759 33.208 16.3148 33.4237 17.6625C33.6394 19.0102 33.4043 20.3915 32.755 21.592L30.261 20.153ZM26.565 14.325C25.775 15.044 25.14 15.844 24.505 16.829L22.025 15.397C22.7247 14.2594 23.773 13.3782 25.014 12.8845C26.2549 12.3908 27.6221 12.311 28.912 12.657C27.983 13.192 27.227 13.722 26.565 14.325ZM16.605 31.263C16.5536 31.1087 16.4535 30.9752 16.3197 30.8828C16.1859 30.7903 16.0257 30.7439 15.8632 30.7504C15.7007 30.757 15.5447 30.8162 15.4188 30.9191C15.2928 31.022 15.2038 31.163 15.165 31.321C14.91 32.363 14.427 32.935 13.877 33.267C13.301 33.615 12.567 33.749 11.748 33.749C11.5491 33.749 11.3583 33.828 11.2177 33.9687C11.077 34.1093 10.998 34.3001 10.998 34.499C10.998 34.6979 11.077 34.8887 11.2177 35.0293C11.3583 35.17 11.5491 35.249 11.748 35.249C12.705 35.249 13.748 35.097 14.652 34.551C15.1912 34.2252 15.6459 33.7767 15.979 33.242C17.768 35.524 21.261 35.512 22.998 33.218C24.763 35.548 28.338 35.524 30.101 33.132C30.5796 33.7834 31.2038 34.3141 31.9238 34.6816C32.6437 35.0492 33.4396 35.2435 34.248 35.249C34.4469 35.249 34.6377 35.17 34.7783 35.0293C34.919 34.8887 34.998 34.6979 34.998 34.499C34.998 34.3001 34.919 34.1093 34.7783 33.9687C34.6377 33.828 34.4469 33.749 34.248 33.749C32.773 33.749 31.303 32.789 30.818 31.271C30.77 31.1199 30.6754 30.9879 30.5477 30.894C30.42 30.8001 30.2659 30.749 30.1074 30.7481C29.9489 30.7472 29.7942 30.7965 29.6655 30.8891C29.5368 30.9816 29.4407 31.1125 29.391 31.263C28.428 34.172 24.653 34.135 23.707 31.384C23.6561 31.2364 23.5604 31.1085 23.4333 31.0179C23.3062 30.9273 23.1541 30.8786 22.998 30.8786C22.8419 30.8786 22.6897 30.9273 22.5626 31.0179C22.4355 31.1085 22.3399 31.2364 22.289 31.384C21.343 34.135 17.569 34.171 16.605 31.263Z" fill="#015486"/>
<defs>
<linearGradient id="paint0_linear_294_258" x1="179.069" y1="0.748829" x2="-69.2821" y2="206.234" gradientUnits="userSpaceOnUse">
<stop stop-color="white"/>
</linearGradient>
</defs>
</svg>
