<svg width="181" height="70" viewBox="0 0 181 70" fill="none" xmlns="http://www.w3.org/2000/svg">
<path d="M20 1H161C171.493 1 180 9.50659 180 20V26C180 36.4934 171.493 45 161 45H20C9.50659 45 1 36.4934 1 26V20C1 9.50659 9.50659 1 20 1Z" fill="url(#paint0_linear_294_264)" stroke="#015486" stroke-width="2"/>
<path d="M40.26 20V10.228C40.6427 10.1813 41.0627 10.1487 41.52 10.13C41.9867 10.102 42.4673 10.088 42.962 10.088C43.774 10.088 44.4647 10.2187 45.034 10.48C45.6033 10.732 46.0373 11.082 46.336 11.53C46.6347 11.978 46.784 12.4913 46.784 13.07C46.784 13.77 46.6113 14.3627 46.266 14.848C45.9207 15.3333 45.44 15.7067 44.824 15.968C44.208 16.22 43.494 16.346 42.682 16.346C42.29 16.346 41.926 16.332 41.59 16.304V20H40.26ZM42.85 15.24C43.6807 15.24 44.3247 15.0533 44.782 14.68C45.2393 14.3067 45.468 13.8073 45.468 13.182C45.468 12.5753 45.2487 12.0947 44.81 11.74C44.3713 11.3853 43.746 11.208 42.934 11.208C42.682 11.208 42.444 11.2127 42.22 11.222C41.996 11.2313 41.786 11.2453 41.59 11.264V15.17C41.7393 15.1887 41.9213 15.2073 42.136 15.226C42.3507 15.2353 42.5887 15.24 42.85 15.24ZM48.5548 20V12.72H49.7728V14.302C49.8941 13.994 50.0574 13.7093 50.2628 13.448C50.4681 13.1773 50.7248 12.9627 51.0328 12.804C51.3408 12.636 51.7001 12.552 52.1108 12.552C52.2508 12.552 52.3908 12.5613 52.5308 12.58C52.6708 12.5893 52.7874 12.608 52.8808 12.636L52.5028 13.938C52.3254 13.8633 52.1154 13.826 51.8728 13.826C51.5274 13.826 51.1961 13.924 50.8788 14.12C50.5708 14.316 50.3141 14.6193 50.1088 15.03C49.9128 15.4407 49.8148 15.9633 49.8148 16.598V20H48.5548ZM56.8087 20.168C56.2021 20.168 55.6514 20.014 55.1567 19.706C54.6621 19.398 54.2654 18.964 53.9667 18.404C53.6774 17.8347 53.5327 17.1673 53.5327 16.402C53.5327 15.674 53.6774 15.0207 53.9667 14.442C54.2654 13.8633 54.6714 13.406 55.1847 13.07C55.7074 12.7247 56.3047 12.552 56.9767 12.552C57.3967 12.552 57.7747 12.6267 58.1107 12.776C58.4561 12.916 58.7547 13.0933 59.0067 13.308V12.72H60.1547V18.236C60.1547 18.5907 60.2387 18.824 60.4067 18.936C60.5841 19.0387 60.7754 19.09 60.9807 19.09L60.7147 20.07C59.8187 20.07 59.2774 19.706 59.0907 18.978C58.8761 19.2767 58.5821 19.552 58.2087 19.804C57.8447 20.0467 57.3781 20.168 56.8087 20.168ZM57.0887 19.048C57.4434 19.048 57.7794 18.964 58.0967 18.796C58.4141 18.6187 58.6801 18.3993 58.8947 18.138V14.232C58.6427 14.0547 58.3627 13.9147 58.0547 13.812C57.7561 13.7 57.4387 13.644 57.1027 13.644C56.6547 13.644 56.2581 13.7607 55.9127 13.994C55.5767 14.218 55.3107 14.5353 55.1147 14.946C54.9187 15.3473 54.8207 15.8187 54.8207 16.36C54.8207 16.8827 54.9187 17.3493 55.1147 17.76C55.3107 18.1613 55.5814 18.4787 55.9267 18.712C56.2721 18.936 56.6594 19.048 57.0887 19.048ZM62.9634 20V12.72H64.2234V20H62.9634ZM63.5934 11.474C63.3507 11.474 63.1407 11.3853 62.9634 11.208C62.7954 11.0307 62.7114 10.8253 62.7114 10.592C62.7114 10.3213 62.7907 10.1067 62.9494 9.948C63.108 9.78933 63.3227 9.71 63.5934 9.71C63.836 9.71 64.0414 9.79867 64.2094 9.976C64.3867 10.144 64.4754 10.3493 64.4754 10.592C64.4754 10.8533 64.396 11.068 64.2374 11.236C64.0787 11.3947 63.864 11.474 63.5934 11.474ZM69.5494 20.168C68.9427 20.168 68.392 20.014 67.8974 19.706C67.4027 19.398 67.006 18.964 66.7074 18.404C66.418 17.8347 66.2734 17.1673 66.2734 16.402C66.2734 15.674 66.418 15.0207 66.7074 14.442C67.006 13.8633 67.412 13.406 67.9254 13.07C68.448 12.7247 69.0454 12.552 69.7174 12.552C70.1374 12.552 70.5154 12.6267 70.8514 12.776C71.1967 12.916 71.4954 13.0933 71.7474 13.308V12.72H72.8954V18.236C72.8954 18.5907 72.9794 18.824 73.1474 18.936C73.3247 19.0387 73.516 19.09 73.7214 19.09L73.4554 20.07C72.5594 20.07 72.018 19.706 71.8314 18.978C71.6167 19.2767 71.3227 19.552 70.9494 19.804C70.5854 20.0467 70.1187 20.168 69.5494 20.168ZM69.8294 19.048C70.184 19.048 70.52 18.964 70.8374 18.796C71.1547 18.6187 71.4207 18.3993 71.6354 18.138V14.232C71.3834 14.0547 71.1034 13.9147 70.7954 13.812C70.4967 13.7 70.1794 13.644 69.8434 13.644C69.3954 13.644 68.9987 13.7607 68.6534 13.994C68.3174 14.218 68.0514 14.5353 67.8554 14.946C67.6594 15.3473 67.5614 15.8187 67.5614 16.36C67.5614 16.8827 67.6594 17.3493 67.8554 17.76C68.0514 18.1613 68.322 18.4787 68.6674 18.712C69.0127 18.936 69.4 19.048 69.8294 19.048ZM82.9592 20.168C82.3619 20.168 81.8159 20.014 81.3212 19.706C80.8266 19.398 80.4346 18.964 80.1452 18.404C79.8559 17.8347 79.7112 17.1673 79.7112 16.402C79.7112 15.6647 79.8559 15.0067 80.1452 14.428C80.4439 13.8493 80.8359 13.392 81.3212 13.056C81.8159 12.72 82.3572 12.552 82.9452 12.552C83.4306 12.552 83.8459 12.65 84.1912 12.846C84.5459 13.042 84.8212 13.2427 85.0172 13.448V9.64H86.2772V18.236C86.2772 18.5907 86.3612 18.824 86.5292 18.936C86.7066 19.0387 86.8979 19.09 87.1032 19.09L86.8372 20.07C85.9506 20.07 85.4092 19.7153 85.2132 19.006C85.0079 19.2953 84.7186 19.5613 84.3452 19.804C83.9812 20.0467 83.5192 20.168 82.9592 20.168ZM83.2392 19.048C83.5846 19.048 83.9112 18.9687 84.2192 18.81C84.5366 18.642 84.8026 18.4273 85.0172 18.166V14.554C84.8399 14.33 84.5926 14.1247 84.2752 13.938C83.9579 13.742 83.6079 13.644 83.2252 13.644C82.7772 13.644 82.3852 13.7653 82.0492 14.008C81.7132 14.2507 81.4519 14.5773 81.2652 14.988C81.0879 15.3893 80.9992 15.8467 80.9992 16.36C80.9992 16.8733 81.0972 17.3353 81.2932 17.746C81.4892 18.1473 81.7552 18.4647 82.0912 18.698C82.4366 18.9313 82.8192 19.048 83.2392 19.048ZM92.0165 20.168C91.3258 20.168 90.7051 20.0093 90.1545 19.692C89.6038 19.3653 89.1698 18.9173 88.8525 18.348C88.5445 17.7693 88.3905 17.1067 88.3905 16.36C88.3905 15.576 88.5491 14.8993 88.8665 14.33C89.1838 13.7607 89.6178 13.322 90.1685 13.014C90.7191 12.706 91.3351 12.552 92.0165 12.552C92.6978 12.552 93.3091 12.706 93.8505 13.014C94.4011 13.322 94.8351 13.7607 95.1525 14.33C95.4791 14.89 95.6425 15.5573 95.6425 16.332C95.6425 17.1067 95.4838 17.7833 95.1665 18.362C94.8491 18.9313 94.4151 19.3747 93.8645 19.692C93.3231 20.0093 92.7071 20.168 92.0165 20.168ZM92.0165 19.048C92.7538 19.048 93.3278 18.8007 93.7385 18.306C94.1491 17.802 94.3545 17.1533 94.3545 16.36C94.3545 15.8747 94.2518 15.4313 94.0465 15.03C93.8411 14.6193 93.5611 14.2927 93.2065 14.05C92.8611 13.798 92.4645 13.672 92.0165 13.672C91.2791 13.672 90.7051 13.9147 90.2945 14.4C89.8838 14.8853 89.6785 15.5293 89.6785 16.332C89.6785 16.8173 89.7811 17.27 89.9865 17.69C90.1918 18.1007 90.4671 18.432 90.8125 18.684C91.1671 18.9267 91.5685 19.048 92.0165 19.048ZM105.601 20.168C104.845 20.168 104.173 19.972 103.585 19.58C102.997 19.188 102.535 18.6327 102.199 17.914C101.863 17.186 101.695 16.332 101.695 15.352C101.695 14.3067 101.872 13.3873 102.227 12.594C102.582 11.7913 103.09 11.166 103.753 10.718C104.425 10.2607 105.232 10.032 106.175 10.032C106.782 10.032 107.323 10.1067 107.799 10.256C108.275 10.4053 108.723 10.5967 109.143 10.83L108.653 11.936C108.261 11.7213 107.86 11.544 107.449 11.404C107.048 11.264 106.6 11.194 106.105 11.194C105.517 11.194 104.994 11.3527 104.537 11.67C104.08 11.978 103.716 12.4353 103.445 13.042C103.184 13.6487 103.053 14.3907 103.053 15.268C103.053 16.052 103.174 16.724 103.417 17.284C103.66 17.8347 103.996 18.2593 104.425 18.558C104.854 18.8567 105.349 19.006 105.909 19.006C106.432 19.006 106.894 18.8987 107.295 18.684C107.706 18.46 108.028 18.2313 108.261 17.998V15.856H106.231V14.806H109.521V20H108.345V19.02C108.018 19.3093 107.622 19.5753 107.155 19.818C106.688 20.0513 106.17 20.168 105.601 20.168ZM111.849 20V12.72H113.067V14.302C113.188 13.994 113.351 13.7093 113.557 13.448C113.762 13.1773 114.019 12.9627 114.327 12.804C114.635 12.636 114.994 12.552 115.405 12.552C115.545 12.552 115.685 12.5613 115.825 12.58C115.965 12.5893 116.081 12.608 116.175 12.636L115.797 13.938C115.619 13.8633 115.409 13.826 115.167 13.826C114.821 13.826 114.49 13.924 114.173 14.12C113.865 14.316 113.608 14.6193 113.403 15.03C113.207 15.4407 113.109 15.9633 113.109 16.598V20H111.849ZM120.102 20.168C119.496 20.168 118.945 20.014 118.45 19.706C117.956 19.398 117.559 18.964 117.26 18.404C116.971 17.8347 116.826 17.1673 116.826 16.402C116.826 15.674 116.971 15.0207 117.26 14.442C117.559 13.8633 117.965 13.406 118.478 13.07C119.001 12.7247 119.598 12.552 120.27 12.552C120.69 12.552 121.068 12.6267 121.404 12.776C121.75 12.916 122.048 13.0933 122.3 13.308V12.72H123.448V18.236C123.448 18.5907 123.532 18.824 123.7 18.936C123.878 19.0387 124.069 19.09 124.274 19.09L124.008 20.07C123.112 20.07 122.571 19.706 122.384 18.978C122.17 19.2767 121.876 19.552 121.502 19.804C121.138 20.0467 120.672 20.168 120.102 20.168ZM120.382 19.048C120.737 19.048 121.073 18.964 121.39 18.796C121.708 18.6187 121.974 18.3993 122.188 18.138V14.232C121.936 14.0547 121.656 13.9147 121.348 13.812C121.05 13.7 120.732 13.644 120.396 13.644C119.948 13.644 119.552 13.7607 119.206 13.994C118.87 14.218 118.604 14.5353 118.408 14.946C118.212 15.3473 118.114 15.8187 118.114 16.36C118.114 16.8827 118.212 17.3493 118.408 17.76C118.604 18.1613 118.875 18.4787 119.22 18.712C119.566 18.936 119.953 19.048 120.382 19.048ZM128.794 23.248C128.365 23.248 127.945 23.1967 127.534 23.094C127.133 22.9913 126.774 22.8373 126.456 22.632L126.918 21.54C127.142 21.7173 127.404 21.862 127.702 21.974C128.001 22.0953 128.365 22.156 128.794 22.156C129.457 22.156 129.975 21.9787 130.348 21.624C130.731 21.2787 130.922 20.7233 130.922 19.958V19.062C130.736 19.286 130.465 19.5007 130.11 19.706C129.765 19.902 129.35 20 128.864 20C128.314 20 127.791 19.86 127.296 19.58C126.802 19.2907 126.4 18.8707 126.092 18.32C125.784 17.7693 125.63 17.1067 125.63 16.332C125.63 15.604 125.78 14.9553 126.078 14.386C126.386 13.8167 126.797 13.3687 127.31 13.042C127.824 12.7153 128.388 12.552 129.004 12.552C129.415 12.552 129.788 12.622 130.124 12.762C130.46 12.902 130.75 13.0747 130.992 13.28V12.72H132.14V19.832C132.14 20.6347 132 21.288 131.72 21.792C131.44 22.296 131.048 22.6647 130.544 22.898C130.05 23.1313 129.466 23.248 128.794 23.248ZM129.144 18.88C129.518 18.88 129.854 18.796 130.152 18.628C130.451 18.46 130.694 18.264 130.88 18.04V14.232C130.675 14.0827 130.428 13.9473 130.138 13.826C129.849 13.7047 129.513 13.644 129.13 13.644C128.748 13.644 128.388 13.7467 128.052 13.952C127.716 14.1573 127.441 14.456 127.226 14.848C127.021 15.2307 126.918 15.702 126.918 16.262C126.918 16.794 127.021 17.256 127.226 17.648C127.441 18.04 127.716 18.3433 128.052 18.558C128.388 18.7727 128.752 18.88 129.144 18.88ZM137.676 20.168C136.985 20.168 136.365 20.0093 135.814 19.692C135.263 19.3653 134.829 18.9173 134.512 18.348C134.204 17.7693 134.05 17.1067 134.05 16.36C134.05 15.576 134.209 14.8993 134.526 14.33C134.843 13.7607 135.277 13.322 135.828 13.014C136.379 12.706 136.995 12.552 137.676 12.552C138.357 12.552 138.969 12.706 139.51 13.014C140.061 13.322 140.495 13.7607 140.812 14.33C141.139 14.89 141.302 15.5573 141.302 16.332C141.302 17.1067 141.143 17.7833 140.826 18.362C140.509 18.9313 140.075 19.3747 139.524 19.692C138.983 20.0093 138.367 20.168 137.676 20.168ZM137.676 19.048C138.413 19.048 138.987 18.8007 139.398 18.306C139.809 17.802 140.014 17.1533 140.014 16.36C140.014 15.8747 139.911 15.4313 139.706 15.03C139.501 14.6193 139.221 14.2927 138.866 14.05C138.521 13.798 138.124 13.672 137.676 13.672C136.939 13.672 136.365 13.9147 135.954 14.4C135.543 14.8853 135.338 15.5293 135.338 16.332C135.338 16.8173 135.441 17.27 135.646 17.69C135.851 18.1007 136.127 18.432 136.472 18.684C136.827 18.9267 137.228 19.048 137.676 19.048ZM146.063 20.168C145.456 20.168 144.906 20.014 144.411 19.706C143.916 19.398 143.52 18.964 143.221 18.404C142.932 17.8347 142.787 17.1673 142.787 16.402C142.787 15.674 142.932 15.0207 143.221 14.442C143.52 13.8633 143.926 13.406 144.439 13.07C144.962 12.7247 145.559 12.552 146.231 12.552C146.651 12.552 147.029 12.6267 147.365 12.776C147.71 12.916 148.009 13.0933 148.261 13.308V12.72H149.409V18.236C149.409 18.5907 149.493 18.824 149.661 18.936C149.838 19.0387 150.03 19.09 150.235 19.09L149.969 20.07C149.073 20.07 148.532 19.706 148.345 18.978C148.13 19.2767 147.836 19.552 147.463 19.804C147.099 20.0467 146.632 20.168 146.063 20.168ZM146.343 19.048C146.698 19.048 147.034 18.964 147.351 18.796C147.668 18.6187 147.934 18.3993 148.149 18.138V14.232C147.897 14.0547 147.617 13.9147 147.309 13.812C147.01 13.7 146.693 13.644 146.357 13.644C145.909 13.644 145.512 13.7607 145.167 13.994C144.831 14.218 144.565 14.5353 144.369 14.946C144.173 15.3473 144.075 15.8187 144.075 16.36C144.075 16.8827 144.173 17.3493 144.369 17.76C144.565 18.1613 144.836 18.4787 145.181 18.712C145.526 18.936 145.914 19.048 146.343 19.048ZM154.766 20.168C154.066 20.168 153.51 19.9393 153.1 19.482C152.698 19.0153 152.498 18.3527 152.498 17.494V14.078H151.238V12.986H152.526L152.792 10.69H153.758V12.986H155.774V14.078H153.758V17.592C153.758 18.1333 153.87 18.5113 154.094 18.726C154.327 18.9407 154.602 19.048 154.92 19.048C155.153 19.048 155.372 19.0107 155.578 18.936C155.792 18.8613 155.988 18.7727 156.166 18.67L156.516 19.678C156.329 19.79 156.077 19.8973 155.76 20C155.442 20.112 155.111 20.168 154.766 20.168ZM160.595 20.168C159.988 20.168 159.437 20.014 158.943 19.706C158.448 19.398 158.051 18.964 157.753 18.404C157.463 17.8347 157.319 17.1673 157.319 16.402C157.319 15.674 157.463 15.0207 157.753 14.442C158.051 13.8633 158.457 13.406 158.971 13.07C159.493 12.7247 160.091 12.552 160.763 12.552C161.183 12.552 161.561 12.6267 161.897 12.776C162.242 12.916 162.541 13.0933 162.793 13.308V12.72H163.941V18.236C163.941 18.5907 164.025 18.824 164.193 18.936C164.37 19.0387 164.561 19.09 164.767 19.09L164.501 20.07C163.605 20.07 163.063 19.706 162.877 18.978C162.662 19.2767 162.368 19.552 161.995 19.804C161.631 20.0467 161.164 20.168 160.595 20.168ZM160.875 19.048C161.229 19.048 161.565 18.964 161.883 18.796C162.2 18.6187 162.466 18.3993 162.681 18.138V14.232C162.429 14.0547 162.149 13.9147 161.841 13.812C161.542 13.7 161.225 13.644 160.889 13.644C160.441 13.644 160.044 13.7607 159.699 13.994C159.363 14.218 159.097 14.5353 158.901 14.946C158.705 15.3473 158.607 15.8187 158.607 16.36C158.607 16.8827 158.705 17.3493 158.901 17.76C159.097 18.1613 159.367 18.4787 159.713 18.712C160.058 18.936 160.445 19.048 160.875 19.048ZM159.825 11.95L159.391 11.096L162.037 9.346L162.625 10.522L159.825 11.95Z" fill="#015486"/>
<path d="M45.25 35H44.34L40.68 29.45V35H39.77V28.02H40.68L44.34 33.56V28.02H45.25V35ZM47.5713 28.63C47.3979 28.63 47.2513 28.57 47.1313 28.45C47.0113 28.33 46.9513 28.1833 46.9513 28.01C46.9513 27.8367 47.0113 27.69 47.1313 27.57C47.2513 27.45 47.3979 27.39 47.5713 27.39C47.7379 27.39 47.8779 27.45 47.9913 27.57C48.1113 27.69 48.1713 27.8367 48.1713 28.01C48.1713 28.1833 48.1113 28.33 47.9913 28.45C47.8779 28.57 47.7379 28.63 47.5713 28.63ZM48.0113 29.52V35H47.1013V29.52H48.0113ZM50.9722 30.27V33.5C50.9722 33.7667 51.0289 33.9567 51.1422 34.07C51.2555 34.1767 51.4522 34.23 51.7322 34.23H52.4022V35H51.5822C51.0755 35 50.6955 34.8833 50.4422 34.65C50.1889 34.4167 50.0622 34.0333 50.0622 33.5V30.27H49.3522V29.52H50.0622V28.14H50.9722V29.52H52.4022V30.27H50.9722ZM58.8048 32.05C58.8048 32.2233 58.7948 32.4067 58.7748 32.6H54.3948C54.4281 33.14 54.6114 33.5633 54.9448 33.87C55.2848 34.17 55.6948 34.32 56.1748 34.32C56.5681 34.32 56.8948 34.23 57.1548 34.05C57.4214 33.8633 57.6081 33.6167 57.7148 33.31H58.6948C58.5481 33.8367 58.2548 34.2667 57.8148 34.6C57.3748 34.9267 56.8281 35.09 56.1748 35.09C55.6548 35.09 55.1881 34.9733 54.7748 34.74C54.3681 34.5067 54.0481 34.1767 53.8148 33.75C53.5814 33.3167 53.4648 32.8167 53.4648 32.25C53.4648 31.6833 53.5781 31.1867 53.8048 30.76C54.0314 30.3333 54.3481 30.0067 54.7548 29.78C55.1681 29.5467 55.6414 29.43 56.1748 29.43C56.6948 29.43 57.1548 29.5433 57.5548 29.77C57.9548 29.9967 58.2614 30.31 58.4748 30.71C58.6948 31.1033 58.8048 31.55 58.8048 32.05ZM57.8648 31.86C57.8648 31.5133 57.7881 31.2167 57.6348 30.97C57.4814 30.7167 57.2714 30.5267 57.0048 30.4C56.7448 30.2667 56.4548 30.2 56.1348 30.2C55.6748 30.2 55.2814 30.3467 54.9548 30.64C54.6348 30.9333 54.4514 31.34 54.4048 31.86H57.8648ZM61.2159 30.41C61.3759 30.0967 61.6026 29.8533 61.8959 29.68C62.1959 29.5067 62.5593 29.42 62.9859 29.42V30.36H62.7459C61.7259 30.36 61.2159 30.9133 61.2159 32.02V35H60.3059V29.52H61.2159V30.41ZM66.7264 35.09C66.2131 35.09 65.7464 34.9733 65.3264 34.74C64.9131 34.5067 64.5864 34.1767 64.3464 33.75C64.1131 33.3167 63.9964 32.8167 63.9964 32.25C63.9964 31.69 64.1164 31.1967 64.3564 30.77C64.6031 30.3367 64.9364 30.0067 65.3564 29.78C65.7764 29.5467 66.2464 29.43 66.7664 29.43C67.2864 29.43 67.7564 29.5467 68.1764 29.78C68.5964 30.0067 68.9264 30.3333 69.1664 30.76C69.4131 31.1867 69.5364 31.6833 69.5364 32.25C69.5364 32.8167 69.4097 33.3167 69.1564 33.75C68.9097 34.1767 68.5731 34.5067 68.1464 34.74C67.7197 34.9733 67.2464 35.09 66.7264 35.09ZM66.7264 34.29C67.0531 34.29 67.3597 34.2133 67.6464 34.06C67.9331 33.9067 68.1631 33.6767 68.3364 33.37C68.5164 33.0633 68.6064 32.69 68.6064 32.25C68.6064 31.81 68.5197 31.4367 68.3464 31.13C68.1731 30.8233 67.9464 30.5967 67.6664 30.45C67.3864 30.2967 67.0831 30.22 66.7564 30.22C66.4231 30.22 66.1164 30.2967 65.8364 30.45C65.5631 30.5967 65.3431 30.8233 65.1764 31.13C65.0097 31.4367 64.9264 31.81 64.9264 32.25C64.9264 32.6967 65.0064 33.0733 65.1664 33.38C65.3331 33.6867 65.5531 33.9167 65.8264 34.07C66.0997 34.2167 66.3997 34.29 66.7264 34.29ZM67.7464 27.9L65.6164 29.04V28.36L67.7464 27.11V27.9ZM71.5029 28.63C71.3296 28.63 71.1829 28.57 71.0629 28.45C70.9429 28.33 70.8829 28.1833 70.8829 28.01C70.8829 27.8367 70.9429 27.69 71.0629 27.57C71.1829 27.45 71.3296 27.39 71.5029 27.39C71.6696 27.39 71.8096 27.45 71.9229 27.57C72.0429 27.69 72.1029 27.8367 72.1029 28.01C72.1029 28.1833 72.0429 28.33 71.9229 28.45C71.8096 28.57 71.6696 28.63 71.5029 28.63ZM71.9429 29.52V35H71.0329V29.52H71.9429ZM74.7338 33.74L73.6138 36.43H73.0038L73.7338 33.74H74.7338ZM82.7123 35L81.0523 32.15H79.9523V35H79.0423V28.03H81.2923C81.8189 28.03 82.2623 28.12 82.6223 28.3C82.9889 28.48 83.2623 28.7233 83.4423 29.03C83.6223 29.3367 83.7123 29.6867 83.7123 30.08C83.7123 30.56 83.5723 30.9833 83.2923 31.35C83.0189 31.7167 82.6056 31.96 82.0523 32.08L83.8023 35H82.7123ZM79.9523 31.42H81.2923C81.7856 31.42 82.1556 31.3 82.4023 31.06C82.6489 30.8133 82.7723 30.4867 82.7723 30.08C82.7723 29.6667 82.6489 29.3467 82.4023 29.12C82.1623 28.8933 81.7923 28.78 81.2923 28.78H79.9523V31.42ZM85.8963 28.63C85.7229 28.63 85.5763 28.57 85.4563 28.45C85.3363 28.33 85.2763 28.1833 85.2763 28.01C85.2763 27.8367 85.3363 27.69 85.4563 27.57C85.5763 27.45 85.7229 27.39 85.8963 27.39C86.0629 27.39 86.2029 27.45 86.3163 27.57C86.4363 27.69 86.4963 27.8367 86.4963 28.01C86.4963 28.1833 86.4363 28.33 86.3163 28.45C86.2029 28.57 86.0629 28.63 85.8963 28.63ZM86.3363 29.52V35H85.4263V29.52H86.3363ZM90.5772 35.09C90.0639 35.09 89.5972 34.9733 89.1772 34.74C88.7639 34.5067 88.4372 34.1767 88.1972 33.75C87.9639 33.3167 87.8472 32.8167 87.8472 32.25C87.8472 31.69 87.9672 31.1967 88.2072 30.77C88.4539 30.3367 88.7872 30.0067 89.2072 29.78C89.6272 29.5467 90.0972 29.43 90.6172 29.43C91.1372 29.43 91.6072 29.5467 92.0272 29.78C92.4472 30.0067 92.7772 30.3333 93.0172 30.76C93.2639 31.1867 93.3872 31.6833 93.3872 32.25C93.3872 32.8167 93.2605 33.3167 93.0072 33.75C92.7605 34.1767 92.4239 34.5067 91.9972 34.74C91.5705 34.9733 91.0972 35.09 90.5772 35.09ZM90.5772 34.29C90.9039 34.29 91.2105 34.2133 91.4972 34.06C91.7839 33.9067 92.0139 33.6767 92.1872 33.37C92.3672 33.0633 92.4572 32.69 92.4572 32.25C92.4572 31.81 92.3705 31.4367 92.1972 31.13C92.0239 30.8233 91.7972 30.5967 91.5172 30.45C91.2372 30.2967 90.9339 30.22 90.6072 30.22C90.2739 30.22 89.9672 30.2967 89.6872 30.45C89.4139 30.5967 89.1939 30.8233 89.0272 31.13C88.8605 31.4367 88.7772 31.81 88.7772 32.25C88.7772 32.6967 88.8572 33.0733 89.0172 33.38C89.1839 33.6867 89.4039 33.9167 89.6772 34.07C89.9505 34.2167 90.2505 34.29 90.5772 34.29ZM97.5097 32.24C97.5097 31.68 97.623 31.19 97.8497 30.77C98.0764 30.3433 98.3864 30.0133 98.7797 29.78C99.1797 29.5467 99.6264 29.43 100.12 29.43C100.546 29.43 100.943 29.53 101.31 29.73C101.676 29.9233 101.956 30.18 102.15 30.5V27.6H103.07V35H102.15V33.97C101.97 34.2967 101.703 34.5667 101.35 34.78C100.996 34.9867 100.583 35.09 100.11 35.09C99.623 35.09 99.1797 34.97 98.7797 34.73C98.3864 34.49 98.0764 34.1533 97.8497 33.72C97.623 33.2867 97.5097 32.7933 97.5097 32.24ZM102.15 32.25C102.15 31.8367 102.066 31.4767 101.9 31.17C101.733 30.8633 101.506 30.63 101.22 30.47C100.94 30.3033 100.63 30.22 100.29 30.22C99.9497 30.22 99.6397 30.3 99.3597 30.46C99.0797 30.62 98.8564 30.8533 98.6897 31.16C98.523 31.4667 98.4397 31.8267 98.4397 32.24C98.4397 32.66 98.523 33.0267 98.6897 33.34C98.8564 33.6467 99.0797 33.8833 99.3597 34.05C99.6397 34.21 99.9497 34.29 100.29 34.29C100.63 34.29 100.94 34.21 101.22 34.05C101.506 33.8833 101.733 33.6467 101.9 33.34C102.066 33.0267 102.15 32.6633 102.15 32.25ZM109.907 32.05C109.907 32.2233 109.897 32.4067 109.877 32.6H105.497C105.531 33.14 105.714 33.5633 106.047 33.87C106.387 34.17 106.797 34.32 107.277 34.32C107.671 34.32 107.997 34.23 108.257 34.05C108.524 33.8633 108.711 33.6167 108.817 33.31H109.797C109.651 33.8367 109.357 34.2667 108.917 34.6C108.477 34.9267 107.931 35.09 107.277 35.09C106.757 35.09 106.291 34.9733 105.877 34.74C105.471 34.5067 105.151 34.1767 104.917 33.75C104.684 33.3167 104.567 32.8167 104.567 32.25C104.567 31.6833 104.681 31.1867 104.907 30.76C105.134 30.3333 105.451 30.0067 105.857 29.78C106.271 29.5467 106.744 29.43 107.277 29.43C107.797 29.43 108.257 29.5433 108.657 29.77C109.057 29.9967 109.364 30.31 109.577 30.71C109.797 31.1033 109.907 31.55 109.907 32.05ZM108.967 31.86C108.967 31.5133 108.891 31.2167 108.737 30.97C108.584 30.7167 108.374 30.5267 108.107 30.4C107.847 30.2667 107.557 30.2 107.237 30.2C106.777 30.2 106.384 30.3467 106.057 30.64C105.737 30.9333 105.554 31.34 105.507 31.86H108.967ZM117.885 28.03V33.18C117.885 33.7533 117.708 34.2133 117.355 34.56C117.001 34.9 116.535 35.07 115.955 35.07C115.368 35.07 114.898 34.8967 114.545 34.55C114.191 34.1967 114.015 33.7167 114.015 33.11H114.925C114.931 33.45 115.018 33.7267 115.185 33.94C115.358 34.1533 115.615 34.26 115.955 34.26C116.295 34.26 116.548 34.16 116.715 33.96C116.881 33.7533 116.965 33.4933 116.965 33.18V28.03H117.885ZM119.637 32.24C119.637 31.68 119.751 31.19 119.977 30.77C120.204 30.3433 120.514 30.0133 120.907 29.78C121.307 29.5467 121.751 29.43 122.237 29.43C122.717 29.43 123.134 29.5333 123.487 29.74C123.841 29.9467 124.104 30.2067 124.277 30.52V29.52H125.197V35H124.277V33.98C124.097 34.3 123.827 34.5667 123.467 34.78C123.114 34.9867 122.701 35.09 122.227 35.09C121.741 35.09 121.301 34.97 120.907 34.73C120.514 34.49 120.204 34.1533 119.977 33.72C119.751 33.2867 119.637 32.7933 119.637 32.24ZM124.277 32.25C124.277 31.8367 124.194 31.4767 124.027 31.17C123.861 30.8633 123.634 30.63 123.347 30.47C123.067 30.3033 122.757 30.22 122.417 30.22C122.077 30.22 121.767 30.3 121.487 30.46C121.207 30.62 120.984 30.8533 120.817 31.16C120.651 31.4667 120.567 31.8267 120.567 32.24C120.567 32.66 120.651 33.0267 120.817 33.34C120.984 33.6467 121.207 33.8833 121.487 34.05C121.767 34.21 122.077 34.29 122.417 34.29C122.757 34.29 123.067 34.21 123.347 34.05C123.634 33.8833 123.861 33.6467 124.027 33.34C124.194 33.0267 124.277 32.6633 124.277 32.25ZM129.705 29.42C130.372 29.42 130.912 29.6233 131.325 30.03C131.739 30.43 131.945 31.01 131.945 31.77V35H131.045V31.9C131.045 31.3533 130.909 30.9367 130.635 30.65C130.362 30.3567 129.989 30.21 129.515 30.21C129.035 30.21 128.652 30.36 128.365 30.66C128.085 30.96 127.945 31.3967 127.945 31.97V35H127.035V29.52H127.945V30.3C128.125 30.02 128.369 29.8033 128.675 29.65C128.989 29.4967 129.332 29.42 129.705 29.42ZM138.732 32.05C138.732 32.2233 138.722 32.4067 138.702 32.6H134.322C134.355 33.14 134.538 33.5633 134.872 33.87C135.212 34.17 135.622 34.32 136.102 34.32C136.495 34.32 136.822 34.23 137.082 34.05C137.348 33.8633 137.535 33.6167 137.642 33.31H138.622C138.475 33.8367 138.182 34.2667 137.742 34.6C137.302 34.9267 136.755 35.09 136.102 35.09C135.582 35.09 135.115 34.9733 134.702 34.74C134.295 34.5067 133.975 34.1767 133.742 33.75C133.508 33.3167 133.392 32.8167 133.392 32.25C133.392 31.6833 133.505 31.1867 133.732 30.76C133.958 30.3333 134.275 30.0067 134.682 29.78C135.095 29.5467 135.568 29.43 136.102 29.43C136.622 29.43 137.082 29.5433 137.482 29.77C137.882 29.9967 138.188 30.31 138.402 30.71C138.622 31.1033 138.732 31.55 138.732 32.05ZM137.792 31.86C137.792 31.5133 137.715 31.2167 137.562 30.97C137.408 30.7167 137.198 30.5267 136.932 30.4C136.672 30.2667 136.382 30.2 136.062 30.2C135.602 30.2 135.208 30.3467 134.882 30.64C134.562 30.9333 134.378 31.34 134.332 31.86H137.792ZM140.703 28.63C140.53 28.63 140.383 28.57 140.263 28.45C140.143 28.33 140.083 28.1833 140.083 28.01C140.083 27.8367 140.143 27.69 140.263 27.57C140.383 27.45 140.53 27.39 140.703 27.39C140.87 27.39 141.01 27.45 141.123 27.57C141.243 27.69 141.303 27.8367 141.303 28.01C141.303 28.1833 141.243 28.33 141.123 28.45C141.01 28.57 140.87 28.63 140.703 28.63ZM141.143 29.52V35H140.233V29.52H141.143ZM143.904 30.41C144.064 30.0967 144.29 29.8533 144.584 29.68C144.884 29.5067 145.247 29.42 145.674 29.42V30.36H145.434C144.414 30.36 143.904 30.9133 143.904 32.02V35H142.994V29.52H143.904V30.41ZM149.414 35.09C148.901 35.09 148.434 34.9733 148.014 34.74C147.601 34.5067 147.274 34.1767 147.034 33.75C146.801 33.3167 146.684 32.8167 146.684 32.25C146.684 31.69 146.804 31.1967 147.044 30.77C147.291 30.3367 147.624 30.0067 148.044 29.78C148.464 29.5467 148.934 29.43 149.454 29.43C149.974 29.43 150.444 29.5467 150.864 29.78C151.284 30.0067 151.614 30.3333 151.854 30.76C152.101 31.1867 152.224 31.6833 152.224 32.25C152.224 32.8167 152.098 33.3167 151.844 33.75C151.598 34.1767 151.261 34.5067 150.834 34.74C150.408 34.9733 149.934 35.09 149.414 35.09ZM149.414 34.29C149.741 34.29 150.048 34.2133 150.334 34.06C150.621 33.9067 150.851 33.6767 151.024 33.37C151.204 33.0633 151.294 32.69 151.294 32.25C151.294 31.81 151.208 31.4367 151.034 31.13C150.861 30.8233 150.634 30.5967 150.354 30.45C150.074 30.2967 149.771 30.22 149.444 30.22C149.111 30.22 148.804 30.2967 148.524 30.45C148.251 30.5967 148.031 30.8233 147.864 31.13C147.698 31.4367 147.614 31.81 147.614 32.25C147.614 32.6967 147.694 33.0733 147.854 33.38C148.021 33.6867 148.241 33.9167 148.514 34.07C148.788 34.2167 149.088 34.29 149.414 34.29Z" fill="#98A4AE"/>
<path d="M73.9434 45.5L108.058 45.5L91.001 68.3301L73.9434 45.5Z" fill="white" stroke="#015486" stroke-width="2"/>
<path d="M91 65L71.0814 41L110.919 41L91 65Z" fill="white"/>
<path d="M31.155 11.978C30.2797 11.4725 29.3133 11.1443 28.3111 11.0123C27.3089 10.8803 26.2905 10.947 25.3141 11.2086C24.3377 11.4702 23.4223 11.9215 22.6203 12.5369C21.8184 13.1523 21.1455 13.9196 20.64 14.795L20.35 15.297C20.2508 15.4693 20.224 15.6739 20.2756 15.8659C20.3271 16.0579 20.4528 16.2216 20.625 16.321L26.086 19.474L22.818 25.194L22.75 25.193C19.592 25.193 16.857 27.025 15.228 29.615C15.5062 29.5166 15.8027 29.481 16.0963 29.5108C16.3899 29.5405 16.6732 29.6348 16.926 29.787C18.338 27.921 20.444 26.693 22.75 26.693C25.154 26.693 27.341 28.028 28.75 30.029C28.9449 29.8497 29.1734 29.7109 29.4223 29.6206C29.6712 29.5303 29.9356 29.4903 30.2 29.503C28.869 27.445 26.833 25.883 24.444 25.372L27.385 20.224L32.658 23.269C32.7434 23.3183 32.8376 23.3503 32.9353 23.3631C33.0331 23.376 33.1324 23.3695 33.2275 23.3439C33.3227 23.3184 33.412 23.2743 33.4901 23.2143C33.5683 23.1543 33.6338 23.0794 33.683 22.994L33.973 22.493C34.4785 21.6176 34.8066 20.6511 34.9385 19.6489C35.0705 18.6466 35.0037 17.6282 34.742 16.6518C34.4803 15.6754 34.0289 14.7601 33.4134 13.9581C32.798 13.1562 32.0306 12.4833 31.155 11.978ZM28.965 19.404L25.807 17.58C26.379 16.699 26.923 16.028 27.575 15.435C28.21 14.857 28.968 14.335 29.996 13.767C30.148 14.722 30.194 15.517 30.096 16.297C29.98 17.229 29.651 18.19 28.963 19.403M30.261 20.153C31.021 18.815 31.437 17.663 31.584 16.483C31.681 15.709 31.659 14.945 31.562 14.138C32.5536 15.0759 33.208 16.3148 33.4237 17.6625C33.6394 19.0102 33.4044 20.3915 32.755 21.592L30.261 20.153ZM26.565 14.325C25.775 15.044 25.14 15.844 24.505 16.829L22.025 15.397C22.7248 14.2594 23.7731 13.3782 25.014 12.8845C26.2549 12.3908 27.6221 12.311 28.912 12.657C27.983 13.192 27.227 13.722 26.565 14.325ZM16.605 31.263C16.5537 31.1087 16.4536 30.9752 16.3198 30.8828C16.186 30.7903 16.0257 30.7439 15.8632 30.7504C15.7007 30.757 15.5448 30.8162 15.4188 30.9191C15.2929 31.022 15.2038 31.163 15.165 31.321C14.91 32.363 14.427 32.935 13.877 33.267C13.301 33.615 12.567 33.749 11.748 33.749C11.5491 33.749 11.3584 33.828 11.2177 33.9687C11.0771 34.1093 10.998 34.3001 10.998 34.499C10.998 34.6979 11.0771 34.8887 11.2177 35.0293C11.3584 35.17 11.5491 35.249 11.748 35.249C12.705 35.249 13.748 35.097 14.652 34.551C15.1913 34.2252 15.646 33.7767 15.979 33.242C17.768 35.524 21.261 35.512 22.998 33.218C24.763 35.548 28.338 35.524 30.101 33.132C30.5797 33.7834 31.2038 34.3141 31.9238 34.6816C32.6438 35.0492 33.4397 35.2435 34.248 35.249C34.447 35.249 34.6377 35.17 34.7784 35.0293C34.919 34.8887 34.998 34.6979 34.998 34.499C34.998 34.3001 34.919 34.1093 34.7784 33.9687C34.6377 33.828 34.447 33.749 34.248 33.749C32.773 33.749 31.303 32.789 30.818 31.271C30.7701 31.1199 30.6754 30.9879 30.5478 30.894C30.4201 30.8001 30.266 30.749 30.1075 30.7481C29.949 30.7472 29.7942 30.7965 29.6655 30.8891C29.5368 30.9816 29.4407 31.1125 29.391 31.263C28.428 34.172 24.653 34.135 23.707 31.384C23.6561 31.2364 23.5605 31.1085 23.4334 31.0179C23.3063 30.9273 23.1541 30.8786 22.998 30.8786C22.842 30.8786 22.6898 30.9273 22.5627 31.0179C22.4356 31.1085 22.3399 31.2364 22.289 31.384C21.343 34.135 17.569 34.171 16.605 31.263Z" fill="#015486"/>
<defs>
<linearGradient id="paint0_linear_294_264" x1="179.069" y1="0.748829" x2="-69.2821" y2="206.234" gradientUnits="userSpaceOnUse">
<stop stop-color="white"/>
</linearGradient>
</defs>
</svg>
