<svg width="181" height="70" viewBox="0 0 181 70" fill="none" xmlns="http://www.w3.org/2000/svg">
<path d="M20 1H161C171.493 1 180 9.50659 180 20V26C180 36.4934 171.493 45 161 45H20C9.50659 45 1 36.4934 1 26V20C1 9.50659 9.50659 1 20 1Z" fill="url(#paint0_linear_294_439)" stroke="#015486" stroke-width="2"/>
<path d="M40.17 20V10.926C40.5253 10.8827 40.9153 10.8523 41.34 10.835C41.7733 10.809 42.2197 10.796 42.679 10.796C43.433 10.796 44.0743 10.9173 44.603 11.16C45.1317 11.394 45.5347 11.719 45.812 12.135C46.0893 12.551 46.228 13.0277 46.228 13.565C46.228 14.215 46.0677 14.7653 45.747 15.216C45.4263 15.6667 44.98 16.0133 44.408 16.256C43.836 16.49 43.173 16.607 42.419 16.607C42.055 16.607 41.717 16.594 41.405 16.568V20H40.17ZM42.575 15.58C43.3463 15.58 43.9443 15.4067 44.369 15.06C44.7937 14.7133 45.006 14.2497 45.006 13.669C45.006 13.1057 44.8023 12.6593 44.395 12.33C43.9877 12.0007 43.407 11.836 42.653 11.836C42.419 11.836 42.198 11.8403 41.99 11.849C41.782 11.8577 41.587 11.8707 41.405 11.888V15.515C41.5437 15.5323 41.7127 15.5497 41.912 15.567C42.1113 15.5757 42.3323 15.58 42.575 15.58ZM47.8937 20V13.24H49.0247V14.709C49.1374 14.423 49.289 14.1587 49.4797 13.916C49.6704 13.6647 49.9087 13.4653 50.1947 13.318C50.4807 13.162 50.8144 13.084 51.1957 13.084C51.3257 13.084 51.4557 13.0927 51.5857 13.11C51.7157 13.1187 51.824 13.136 51.9107 13.162L51.5597 14.371C51.395 14.3017 51.2 14.267 50.9747 14.267C50.654 14.267 50.3464 14.358 50.0517 14.54C49.7657 14.722 49.5274 15.0037 49.3367 15.385C49.1547 15.7663 49.0637 16.2517 49.0637 16.841V20H47.8937ZM55.5795 20.156C55.0162 20.156 54.5049 20.013 54.0455 19.727C53.5862 19.441 53.2179 19.038 52.9405 18.518C52.6719 17.9893 52.5375 17.3697 52.5375 16.659C52.5375 15.983 52.6719 15.3763 52.9405 14.839C53.2179 14.3017 53.5949 13.877 54.0715 13.565C54.5569 13.2443 55.1115 13.084 55.7355 13.084C56.1255 13.084 56.4765 13.1533 56.7885 13.292C57.1092 13.422 57.3865 13.5867 57.6205 13.786V13.24H58.6865V18.362C58.6865 18.6913 58.7645 18.908 58.9205 19.012C59.0852 19.1073 59.2629 19.155 59.4535 19.155L59.2065 20.065C58.3745 20.065 57.8719 19.727 57.6985 19.051C57.4992 19.3283 57.2262 19.584 56.8795 19.818C56.5415 20.0433 56.1082 20.156 55.5795 20.156ZM55.8395 19.116C56.1689 19.116 56.4809 19.038 56.7755 18.882C57.0702 18.7173 57.3172 18.5137 57.5165 18.271V14.644C57.2825 14.4793 57.0225 14.3493 56.7365 14.254C56.4592 14.15 56.1645 14.098 55.8525 14.098C55.4365 14.098 55.0682 14.2063 54.7475 14.423C54.4355 14.631 54.1885 14.9257 54.0065 15.307C53.8245 15.6797 53.7335 16.1173 53.7335 16.62C53.7335 17.1053 53.8245 17.5387 54.0065 17.92C54.1885 18.2927 54.4399 18.5873 54.7605 18.804C55.0812 19.012 55.4409 19.116 55.8395 19.116ZM61.316 20V13.24H62.486V20H61.316ZM61.901 12.083C61.6756 12.083 61.4806 12.0007 61.316 11.836C61.16 11.6713 61.082 11.4807 61.082 11.264C61.082 11.0127 61.1556 10.8133 61.303 10.666C61.4503 10.5187 61.6496 10.445 61.901 10.445C62.1263 10.445 62.317 10.5273 62.473 10.692C62.6376 10.848 62.72 11.0387 62.72 11.264C62.72 11.5067 62.6463 11.706 62.499 11.862C62.3516 12.0093 62.1523 12.083 61.901 12.083ZM67.453 20.156C66.8896 20.156 66.3783 20.013 65.919 19.727C65.4596 19.441 65.0913 19.038 64.814 18.518C64.5453 17.9893 64.411 17.3697 64.411 16.659C64.411 15.983 64.5453 15.3763 64.814 14.839C65.0913 14.3017 65.4683 13.877 65.945 13.565C66.4303 13.2443 66.985 13.084 67.609 13.084C67.999 13.084 68.35 13.1533 68.662 13.292C68.9826 13.422 69.26 13.5867 69.494 13.786V13.24H70.56V18.362C70.56 18.6913 70.638 18.908 70.794 19.012C70.9586 19.1073 71.1363 19.155 71.327 19.155L71.08 20.065C70.248 20.065 69.7453 19.727 69.572 19.051C69.3726 19.3283 69.0996 19.584 68.753 19.818C68.415 20.0433 67.9816 20.156 67.453 20.156ZM67.713 19.116C68.0423 19.116 68.3543 19.038 68.649 18.882C68.9436 18.7173 69.1906 18.5137 69.39 18.271V14.644C69.156 14.4793 68.896 14.3493 68.61 14.254C68.3326 14.15 68.038 14.098 67.726 14.098C67.31 14.098 66.9416 14.2063 66.621 14.423C66.309 14.631 66.062 14.9257 65.88 15.307C65.698 15.6797 65.607 16.1173 65.607 16.62C65.607 17.1053 65.698 17.5387 65.88 17.92C66.062 18.2927 66.3133 18.5873 66.634 18.804C66.9546 19.012 67.3143 19.116 67.713 19.116ZM79.9479 20.156C79.3932 20.156 78.8862 20.013 78.4269 19.727C77.9675 19.441 77.6035 19.038 77.3349 18.518C77.0662 17.9893 76.9319 17.3697 76.9319 16.659C76.9319 15.9743 77.0662 15.3633 77.3349 14.826C77.6122 14.2887 77.9762 13.864 78.4269 13.552C78.8862 13.24 79.3889 13.084 79.9349 13.084C80.3855 13.084 80.7712 13.175 81.0919 13.357C81.4212 13.539 81.6769 13.7253 81.8589 13.916V10.38H83.0289V18.362C83.0289 18.6913 83.1069 18.908 83.2629 19.012C83.4275 19.1073 83.6052 19.155 83.7959 19.155L83.5489 20.065C82.7255 20.065 82.2229 19.7357 82.0409 19.077C81.8502 19.3457 81.5815 19.5927 81.2349 19.818C80.8969 20.0433 80.4679 20.156 79.9479 20.156ZM80.2079 19.116C80.5285 19.116 80.8319 19.0423 81.1179 18.895C81.4125 18.739 81.6595 18.5397 81.8589 18.297V14.943C81.6942 14.735 81.4645 14.5443 81.1699 14.371C80.8752 14.189 80.5502 14.098 80.1949 14.098C79.7789 14.098 79.4149 14.2107 79.1029 14.436C78.7909 14.6613 78.5482 14.9647 78.3749 15.346C78.2102 15.7187 78.1279 16.1433 78.1279 16.62C78.1279 17.0967 78.2189 17.5257 78.4009 17.907C78.5829 18.2797 78.8299 18.5743 79.1419 18.791C79.4625 19.0077 79.8179 19.116 80.2079 19.116ZM88.2366 20.156C87.2659 20.156 86.4946 19.8483 85.9226 19.233C85.3592 18.609 85.0776 17.738 85.0776 16.62C85.0776 15.944 85.2032 15.3417 85.4546 14.813C85.7146 14.2757 86.0742 13.8553 86.5336 13.552C86.9929 13.24 87.5259 13.084 88.1326 13.084C88.7826 13.084 89.3199 13.227 89.7446 13.513C90.1779 13.7903 90.5029 14.1673 90.7196 14.644C90.9362 15.1207 91.0446 15.645 91.0446 16.217C91.0446 16.5203 91.0316 16.815 91.0056 17.101H86.2736C86.3516 17.7337 86.5726 18.2277 86.9366 18.583C87.3006 18.9383 87.7816 19.116 88.3796 19.116C88.7696 19.116 89.1206 19.077 89.4326 18.999C89.7446 18.9123 90.0436 18.804 90.3296 18.674L90.6026 19.675C90.2906 19.8137 89.9396 19.9263 89.5496 20.013C89.1596 20.1083 88.7219 20.156 88.2366 20.156ZM86.2606 16.152H89.9656C89.9656 15.4933 89.8009 14.9863 89.4716 14.631C89.1422 14.2757 88.6872 14.098 88.1066 14.098C87.6039 14.098 87.1879 14.2757 86.8586 14.631C86.5292 14.9777 86.3299 15.4847 86.2606 16.152ZM97.2313 20V10.9H98.4663V20H97.2313ZM103.347 20.156C102.697 20.156 102.182 19.9437 101.8 19.519C101.428 19.0857 101.241 18.4703 101.241 17.673V14.501H100.071V13.487H101.267L101.514 11.355H102.411V13.487H104.283V14.501H102.411V17.764C102.411 18.2667 102.515 18.6177 102.723 18.817C102.94 19.0163 103.196 19.116 103.49 19.116C103.707 19.116 103.911 19.0813 104.101 19.012C104.301 18.9427 104.483 18.8603 104.647 18.765L104.972 19.701C104.799 19.805 104.565 19.9047 104.27 20C103.976 20.104 103.668 20.156 103.347 20.156ZM108.781 20.156C108.218 20.156 107.707 20.013 107.247 19.727C106.788 19.441 106.42 19.038 106.142 18.518C105.874 17.9893 105.739 17.3697 105.739 16.659C105.739 15.983 105.874 15.3763 106.142 14.839C106.42 14.3017 106.797 13.877 107.273 13.565C107.759 13.2443 108.313 13.084 108.937 13.084C109.327 13.084 109.678 13.1533 109.99 13.292C110.311 13.422 110.588 13.5867 110.822 13.786V13.24H111.888V18.362C111.888 18.6913 111.966 18.908 112.122 19.012C112.287 19.1073 112.465 19.155 112.655 19.155L112.408 20.065C111.576 20.065 111.074 19.727 110.9 19.051C110.701 19.3283 110.428 19.584 110.081 19.818C109.743 20.0433 109.31 20.156 108.781 20.156ZM109.041 19.116C109.371 19.116 109.683 19.038 109.977 18.882C110.272 18.7173 110.519 18.5137 110.718 18.271V14.644C110.484 14.4793 110.224 14.3493 109.938 14.254C109.661 14.15 109.366 14.098 109.054 14.098C108.638 14.098 108.27 14.2063 107.949 14.423C107.637 14.631 107.39 14.9257 107.208 15.307C107.026 15.6797 106.935 16.1173 106.935 16.62C106.935 17.1053 107.026 17.5387 107.208 17.92C107.39 18.2927 107.642 18.5873 107.962 18.804C108.283 19.012 108.643 19.116 109.041 19.116ZM117.121 20.156C116.48 20.156 115.916 20.0087 115.431 19.714C114.954 19.4107 114.586 18.9947 114.326 18.466C114.066 17.9287 113.936 17.3133 113.936 16.62C113.936 15.97 114.066 15.3763 114.326 14.839C114.595 14.3017 114.976 13.877 115.47 13.565C115.964 13.2443 116.545 13.084 117.212 13.084C117.593 13.084 117.927 13.1187 118.213 13.188C118.508 13.2573 118.789 13.357 119.058 13.487L118.707 14.475C118.464 14.3537 118.23 14.267 118.005 14.215C117.788 14.1543 117.546 14.124 117.277 14.124C116.67 14.124 116.159 14.345 115.743 14.787C115.336 15.2203 115.132 15.8227 115.132 16.594C115.132 17.062 115.219 17.4867 115.392 17.868C115.565 18.2493 115.804 18.5527 116.107 18.778C116.419 19.0033 116.783 19.116 117.199 19.116C117.528 19.116 117.81 19.0813 118.044 19.012C118.278 18.934 118.529 18.8257 118.798 18.687L119.162 19.675C118.893 19.8223 118.59 19.9393 118.252 20.026C117.923 20.1127 117.546 20.156 117.121 20.156ZM123.543 20.156C122.902 20.156 122.325 20.0087 121.814 19.714C121.303 19.4107 120.9 18.9947 120.605 18.466C120.319 17.9287 120.176 17.3133 120.176 16.62C120.176 15.892 120.323 15.2637 120.618 14.735C120.913 14.2063 121.316 13.799 121.827 13.513C122.338 13.227 122.91 13.084 123.543 13.084C124.176 13.084 124.743 13.227 125.246 13.513C125.757 13.799 126.16 14.2063 126.455 14.735C126.758 15.255 126.91 15.8747 126.91 16.594C126.91 17.3133 126.763 17.9417 126.468 18.479C126.173 19.0077 125.77 19.4193 125.259 19.714C124.756 20.0087 124.184 20.156 123.543 20.156ZM123.543 19.116C124.228 19.116 124.761 18.8863 125.142 18.427C125.523 17.959 125.714 17.3567 125.714 16.62C125.714 16.1693 125.619 15.7577 125.428 15.385C125.237 15.0037 124.977 14.7003 124.648 14.475C124.327 14.241 123.959 14.124 123.543 14.124C122.858 14.124 122.325 14.3493 121.944 14.8C121.563 15.2507 121.372 15.8487 121.372 16.594C121.372 17.0447 121.467 17.465 121.658 17.855C121.849 18.2363 122.104 18.544 122.425 18.778C122.754 19.0033 123.127 19.116 123.543 19.116ZM131.352 20.156C130.789 20.156 130.278 20.013 129.818 19.727C129.359 19.441 128.991 19.038 128.713 18.518C128.445 17.9893 128.31 17.3697 128.31 16.659C128.31 15.983 128.445 15.3763 128.713 14.839C128.991 14.3017 129.368 13.877 129.844 13.565C130.33 13.2443 130.884 13.084 131.508 13.084C131.898 13.084 132.249 13.1533 132.561 13.292C132.882 13.422 133.159 13.5867 133.393 13.786V13.24H134.459V18.362C134.459 18.6913 134.537 18.908 134.693 19.012C134.858 19.1073 135.036 19.155 135.226 19.155L134.979 20.065C134.147 20.065 133.645 19.727 133.471 19.051C133.272 19.3283 132.999 19.584 132.652 19.818C132.314 20.0433 131.881 20.156 131.352 20.156ZM131.612 19.116C131.942 19.116 132.254 19.038 132.548 18.882C132.843 18.7173 133.09 18.5137 133.289 18.271V14.644C133.055 14.4793 132.795 14.3493 132.509 14.254C132.232 14.15 131.937 14.098 131.625 14.098C131.209 14.098 130.841 14.2063 130.52 14.423C130.208 14.631 129.961 14.9257 129.779 15.307C129.597 15.6797 129.506 16.1173 129.506 16.62C129.506 17.1053 129.597 17.5387 129.779 17.92C129.961 18.2927 130.213 18.5873 130.533 18.804C130.854 19.012 131.214 19.116 131.612 19.116ZM139.455 20.156C138.805 20.156 138.289 19.9437 137.908 19.519C137.535 19.0857 137.349 18.4703 137.349 17.673V14.501H136.179V13.487H137.375L137.622 11.355H138.519V13.487H140.391V14.501H138.519V17.764C138.519 18.2667 138.623 18.6177 138.831 18.817C139.047 19.0163 139.303 19.116 139.598 19.116C139.814 19.116 140.018 19.0813 140.209 19.012C140.408 18.9427 140.59 18.8603 140.755 18.765L141.08 19.701C140.906 19.805 140.672 19.9047 140.378 20C140.083 20.104 139.775 20.156 139.455 20.156ZM142.556 20V13.24H143.726V20H142.556ZM143.141 12.083C142.915 12.083 142.72 12.0007 142.556 11.836C142.4 11.6713 142.322 11.4807 142.322 11.264C142.322 11.0127 142.395 10.8133 142.543 10.666C142.69 10.5187 142.889 10.445 143.141 10.445C143.366 10.445 143.557 10.5273 143.713 10.692C143.877 10.848 143.96 11.0387 143.96 11.264C143.96 11.5067 143.886 11.706 143.739 11.862C143.591 12.0093 143.392 12.083 143.141 12.083ZM148.693 20.156C148.129 20.156 147.618 20.013 147.159 19.727C146.699 19.441 146.331 19.038 146.054 18.518C145.785 17.9893 145.651 17.3697 145.651 16.659C145.651 15.983 145.785 15.3763 146.054 14.839C146.331 14.3017 146.708 13.877 147.185 13.565C147.67 13.2443 148.225 13.084 148.849 13.084C149.239 13.084 149.59 13.1533 149.902 13.292C150.222 13.422 150.5 13.5867 150.734 13.786V13.24H151.8V18.362C151.8 18.6913 151.878 18.908 152.034 19.012C152.198 19.1073 152.376 19.155 152.567 19.155L152.32 20.065C151.488 20.065 150.985 19.727 150.812 19.051C150.612 19.3283 150.339 19.584 149.993 19.818C149.655 20.0433 149.221 20.156 148.693 20.156ZM148.953 19.116C149.282 19.116 149.594 19.038 149.889 18.882C150.183 18.7173 150.43 18.5137 150.63 18.271V14.644C150.396 14.4793 150.136 14.3493 149.85 14.254C149.572 14.15 149.278 14.098 148.966 14.098C148.55 14.098 148.181 14.2063 147.861 14.423C147.549 14.631 147.302 14.9257 147.12 15.307C146.938 15.6797 146.847 16.1173 146.847 16.62C146.847 17.1053 146.938 17.5387 147.12 17.92C147.302 18.2927 147.553 18.5873 147.874 18.804C148.194 19.012 148.554 19.116 148.953 19.116ZM154.429 20V13.24H155.56V14.709C155.673 14.423 155.825 14.1587 156.015 13.916C156.206 13.6647 156.444 13.4653 156.73 13.318C157.016 13.162 157.35 13.084 157.731 13.084C157.861 13.084 157.991 13.0927 158.121 13.11C158.251 13.1187 158.36 13.136 158.446 13.162L158.095 14.371C157.931 14.3017 157.736 14.267 157.51 14.267C157.19 14.267 156.882 14.358 156.587 14.54C156.301 14.722 156.063 15.0037 155.872 15.385C155.69 15.7663 155.599 16.2517 155.599 16.841V20H154.429ZM162.115 20.156C161.552 20.156 161.04 20.013 160.581 19.727C160.122 19.441 159.753 19.038 159.476 18.518C159.207 17.9893 159.073 17.3697 159.073 16.659C159.073 15.983 159.207 15.3763 159.476 14.839C159.753 14.3017 160.13 13.877 160.607 13.565C161.092 13.2443 161.647 13.084 162.271 13.084C162.661 13.084 163.012 13.1533 163.324 13.292C163.645 13.422 163.922 13.5867 164.156 13.786V13.24H165.222V18.362C165.222 18.6913 165.3 18.908 165.456 19.012C165.621 19.1073 165.798 19.155 165.989 19.155L165.742 20.065C164.91 20.065 164.407 19.727 164.234 19.051C164.035 19.3283 163.762 19.584 163.415 19.818C163.077 20.0433 162.644 20.156 162.115 20.156ZM162.375 19.116C162.704 19.116 163.016 19.038 163.311 18.882C163.606 18.7173 163.853 18.5137 164.052 18.271V14.644C163.818 14.4793 163.558 14.3493 163.272 14.254C162.995 14.15 162.7 14.098 162.388 14.098C161.972 14.098 161.604 14.2063 161.283 14.423C160.971 14.631 160.724 14.9257 160.542 15.307C160.36 15.6797 160.269 16.1173 160.269 16.62C160.269 17.1053 160.36 17.5387 160.542 17.92C160.724 18.2927 160.975 18.5873 161.296 18.804C161.617 19.012 161.976 19.116 162.375 19.116Z" fill="#015486"/>
<path d="M43.44 35L41.78 32.15H40.68V35H39.77V28.03H42.02C42.5467 28.03 42.99 28.12 43.35 28.3C43.7167 28.48 43.99 28.7233 44.17 29.03C44.35 29.3367 44.44 29.6867 44.44 30.08C44.44 30.56 44.3 30.9833 44.02 31.35C43.7467 31.7167 43.3333 31.96 42.78 32.08L44.53 35H43.44ZM40.68 31.42H42.02C42.5133 31.42 42.8833 31.3 43.13 31.06C43.3767 30.8133 43.5 30.4867 43.5 30.08C43.5 29.6667 43.3767 29.3467 43.13 29.12C42.89 28.8933 42.52 28.78 42.02 28.78H40.68V31.42ZM51.014 29.52V35H50.104V34.19C49.9307 34.47 49.6873 34.69 49.374 34.85C49.0673 35.0033 48.7273 35.08 48.354 35.08C47.9273 35.08 47.544 34.9933 47.204 34.82C46.864 34.64 46.594 34.3733 46.394 34.02C46.2007 33.6667 46.104 33.2367 46.104 32.73V29.52H47.004V32.61C47.004 33.15 47.1407 33.5667 47.414 33.86C47.6873 34.1467 48.0607 34.29 48.534 34.29C49.0207 34.29 49.404 34.14 49.684 33.84C49.964 33.54 50.104 33.1033 50.104 32.53V29.52H51.014ZM52.5105 32.24C52.5105 31.68 52.6238 31.19 52.8505 30.77C53.0771 30.3433 53.3871 30.0133 53.7805 29.78C54.1805 29.5467 54.6238 29.43 55.1105 29.43C55.5905 29.43 56.0071 29.5333 56.3605 29.74C56.7138 29.9467 56.9771 30.2067 57.1505 30.52V29.52H58.0705V35H57.1505V33.98C56.9705 34.3 56.7005 34.5667 56.3405 34.78C55.9871 34.9867 55.5738 35.09 55.1005 35.09C54.6138 35.09 54.1738 34.97 53.7805 34.73C53.3871 34.49 53.0771 34.1533 52.8505 33.72C52.6238 33.2867 52.5105 32.7933 52.5105 32.24ZM57.1505 32.25C57.1505 31.8367 57.0671 31.4767 56.9005 31.17C56.7338 30.8633 56.5071 30.63 56.2205 30.47C55.9405 30.3033 55.6305 30.22 55.2905 30.22C54.9505 30.22 54.6405 30.3 54.3605 30.46C54.0805 30.62 53.8571 30.8533 53.6905 31.16C53.5238 31.4667 53.4405 31.8267 53.4405 32.24C53.4405 32.66 53.5238 33.0267 53.6905 33.34C53.8571 33.6467 54.0805 33.8833 54.3605 34.05C54.6405 34.21 54.9505 34.29 55.2905 34.29C55.6305 34.29 55.9405 34.21 56.2205 34.05C56.5071 33.8833 56.7338 33.6467 56.9005 33.34C57.0671 33.0267 57.1505 32.6633 57.1505 32.25ZM62.5343 32.24C62.5343 31.68 62.6476 31.19 62.8743 30.77C63.101 30.3433 63.411 30.0133 63.8043 29.78C64.2043 29.5467 64.651 29.43 65.1443 29.43C65.571 29.43 65.9676 29.53 66.3343 29.73C66.701 29.9233 66.981 30.18 67.1743 30.5V27.6H68.0943V35H67.1743V33.97C66.9943 34.2967 66.7276 34.5667 66.3743 34.78C66.021 34.9867 65.6076 35.09 65.1343 35.09C64.6476 35.09 64.2043 34.97 63.8043 34.73C63.411 34.49 63.101 34.1533 62.8743 33.72C62.6476 33.2867 62.5343 32.7933 62.5343 32.24ZM67.1743 32.25C67.1743 31.8367 67.091 31.4767 66.9243 31.17C66.7576 30.8633 66.531 30.63 66.2443 30.47C65.9643 30.3033 65.6543 30.22 65.3143 30.22C64.9743 30.22 64.6643 30.3 64.3843 30.46C64.1043 30.62 63.881 30.8533 63.7143 31.16C63.5476 31.4667 63.4643 31.8267 63.4643 32.24C63.4643 32.66 63.5476 33.0267 63.7143 33.34C63.881 33.6467 64.1043 33.8833 64.3843 34.05C64.6643 34.21 64.9743 34.29 65.3143 34.29C65.6543 34.29 65.9643 34.21 66.2443 34.05C66.531 33.8833 66.7576 33.6467 66.9243 33.34C67.091 33.0267 67.1743 32.6633 67.1743 32.25ZM69.5921 32.24C69.5921 31.68 69.7054 31.19 69.9321 30.77C70.1588 30.3433 70.4688 30.0133 70.8621 29.78C71.2621 29.5467 71.7054 29.43 72.1921 29.43C72.6721 29.43 73.0888 29.5333 73.4421 29.74C73.7954 29.9467 74.0588 30.2067 74.2321 30.52V29.52H75.1521V35H74.2321V33.98C74.0521 34.3 73.7821 34.5667 73.4221 34.78C73.0688 34.9867 72.6554 35.09 72.1821 35.09C71.6954 35.09 71.2554 34.97 70.8621 34.73C70.4688 34.49 70.1588 34.1533 69.9321 33.72C69.7054 33.2867 69.5921 32.7933 69.5921 32.24ZM74.2321 32.25C74.2321 31.8367 74.1488 31.4767 73.9821 31.17C73.8154 30.8633 73.5888 30.63 73.3021 30.47C73.0221 30.3033 72.7121 30.22 72.3721 30.22C72.0321 30.22 71.7221 30.3 71.4421 30.46C71.1621 30.62 70.9388 30.8533 70.7721 31.16C70.6054 31.4667 70.5221 31.8267 70.5221 32.24C70.5221 32.66 70.6054 33.0267 70.7721 33.34C70.9388 33.6467 71.1621 33.8833 71.4421 34.05C71.7221 34.21 72.0321 34.29 72.3721 34.29C72.7121 34.29 73.0221 34.21 73.3021 34.05C73.5888 33.8833 73.8154 33.6467 73.9821 33.34C74.1488 33.0267 74.2321 32.6633 74.2321 32.25ZM78.9299 35.09C78.5099 35.09 78.1333 35.02 77.7999 34.88C77.4666 34.7333 77.2033 34.5333 77.0099 34.28C76.8166 34.02 76.7099 33.7233 76.6899 33.39H77.6299C77.6566 33.6633 77.7833 33.8867 78.0099 34.06C78.2433 34.2333 78.5466 34.32 78.9199 34.32C79.2666 34.32 79.5399 34.2433 79.7399 34.09C79.9399 33.9367 80.0399 33.7433 80.0399 33.51C80.0399 33.27 79.9333 33.0933 79.7199 32.98C79.5066 32.86 79.1766 32.7433 78.7299 32.63C78.3233 32.5233 77.9899 32.4167 77.7299 32.31C77.4766 32.1967 77.2566 32.0333 77.0699 31.82C76.8899 31.6 76.7999 31.3133 76.7999 30.96C76.7999 30.68 76.8833 30.4233 77.0499 30.19C77.2166 29.9567 77.4533 29.7733 77.7599 29.64C78.0666 29.5 78.4166 29.43 78.8099 29.43C79.4166 29.43 79.9066 29.5833 80.2799 29.89C80.6533 30.1967 80.8533 30.6167 80.8799 31.15H79.9699C79.9499 30.8633 79.8333 30.6333 79.6199 30.46C79.4133 30.2867 79.1333 30.2 78.7799 30.2C78.4533 30.2 78.1933 30.27 77.9999 30.41C77.8066 30.55 77.7099 30.7333 77.7099 30.96C77.7099 31.14 77.7666 31.29 77.8799 31.41C77.9999 31.5233 78.1466 31.6167 78.3199 31.69C78.4999 31.7567 78.7466 31.8333 79.0599 31.92C79.4533 32.0267 79.7733 32.1333 80.0199 32.24C80.2666 32.34 80.4766 32.4933 80.6499 32.7C80.8299 32.9067 80.9233 33.1767 80.9299 33.51C80.9299 33.81 80.8466 34.08 80.6799 34.32C80.5133 34.56 80.2766 34.75 79.9699 34.89C79.6699 35.0233 79.3233 35.09 78.9299 35.09ZM90.1405 30.07C90.1405 30.65 89.9405 31.1333 89.5405 31.52C89.1472 31.9 88.5439 32.09 87.7305 32.09H86.3905V35H85.4805V28.03H87.7305C88.5172 28.03 89.1139 28.22 89.5205 28.6C89.9339 28.98 90.1405 29.47 90.1405 30.07ZM87.7305 31.34C88.2372 31.34 88.6105 31.23 88.8505 31.01C89.0905 30.79 89.2105 30.4767 89.2105 30.07C89.2105 29.21 88.7172 28.78 87.7305 28.78H86.3905V31.34H87.7305ZM91.2316 32.24C91.2316 31.68 91.3449 31.19 91.5716 30.77C91.7982 30.3433 92.1082 30.0133 92.5016 29.78C92.9016 29.5467 93.3449 29.43 93.8316 29.43C94.3116 29.43 94.7282 29.5333 95.0816 29.74C95.4349 29.9467 95.6982 30.2067 95.8716 30.52V29.52H96.7916V35H95.8716V33.98C95.6916 34.3 95.4216 34.5667 95.0616 34.78C94.7082 34.9867 94.2949 35.09 93.8216 35.09C93.3349 35.09 92.8949 34.97 92.5016 34.73C92.1082 34.49 91.7982 34.1533 91.5716 33.72C91.3449 33.2867 91.2316 32.7933 91.2316 32.24ZM95.8716 32.25C95.8716 31.8367 95.7882 31.4767 95.6216 31.17C95.4549 30.8633 95.2282 30.63 94.9416 30.47C94.6616 30.3033 94.3516 30.22 94.0116 30.22C93.6716 30.22 93.3616 30.3 93.0816 30.46C92.8016 30.62 92.5782 30.8533 92.4116 31.16C92.2449 31.4667 92.1616 31.8267 92.1616 32.24C92.1616 32.66 92.2449 33.0267 92.4116 33.34C92.5782 33.6467 92.8016 33.8833 93.0816 34.05C93.3616 34.21 93.6716 34.29 94.0116 34.29C94.3516 34.29 94.6616 34.21 94.9416 34.05C95.2282 33.8833 95.4549 33.6467 95.6216 33.34C95.7882 33.0267 95.8716 32.6633 95.8716 32.25ZM99.5394 30.53C99.7194 30.2167 99.986 29.9567 100.339 29.75C100.699 29.5367 101.116 29.43 101.589 29.43C102.076 29.43 102.516 29.5467 102.909 29.78C103.309 30.0133 103.623 30.3433 103.849 30.77C104.076 31.19 104.189 31.68 104.189 32.24C104.189 32.7933 104.076 33.2867 103.849 33.72C103.623 34.1533 103.309 34.49 102.909 34.73C102.516 34.97 102.076 35.09 101.589 35.09C101.123 35.09 100.709 34.9867 100.349 34.78C99.996 34.5667 99.726 34.3033 99.5394 33.99V37.6H98.6294V29.52H99.5394V30.53ZM103.259 32.24C103.259 31.8267 103.176 31.4667 103.009 31.16C102.843 30.8533 102.616 30.62 102.329 30.46C102.049 30.3 101.739 30.22 101.399 30.22C101.066 30.22 100.756 30.3033 100.469 30.47C100.189 30.63 99.9627 30.8667 99.7894 31.18C99.6227 31.4867 99.5394 31.8433 99.5394 32.25C99.5394 32.6633 99.6227 33.0267 99.7894 33.34C99.9627 33.6467 100.189 33.8833 100.469 34.05C100.756 34.21 101.066 34.29 101.399 34.29C101.739 34.29 102.049 34.21 102.329 34.05C102.616 33.8833 102.843 33.6467 103.009 33.34C103.176 33.0267 103.259 32.66 103.259 32.24ZM108.077 35.09C107.564 35.09 107.097 34.9733 106.677 34.74C106.264 34.5067 105.937 34.1767 105.697 33.75C105.464 33.3167 105.347 32.8167 105.347 32.25C105.347 31.69 105.467 31.1967 105.707 30.77C105.954 30.3367 106.287 30.0067 106.707 29.78C107.127 29.5467 107.597 29.43 108.117 29.43C108.637 29.43 109.107 29.5467 109.527 29.78C109.947 30.0067 110.277 30.3333 110.517 30.76C110.764 31.1867 110.887 31.6833 110.887 32.25C110.887 32.8167 110.761 33.3167 110.507 33.75C110.261 34.1767 109.924 34.5067 109.497 34.74C109.071 34.9733 108.597 35.09 108.077 35.09ZM108.077 34.29C108.404 34.29 108.711 34.2133 108.997 34.06C109.284 33.9067 109.514 33.6767 109.687 33.37C109.867 33.0633 109.957 32.69 109.957 32.25C109.957 31.81 109.871 31.4367 109.697 31.13C109.524 30.8233 109.297 30.5967 109.017 30.45C108.737 30.2967 108.434 30.22 108.107 30.22C107.774 30.22 107.467 30.2967 107.187 30.45C106.914 30.5967 106.694 30.8233 106.527 31.13C106.361 31.4367 106.277 31.81 106.277 32.25C106.277 32.6967 106.357 33.0733 106.517 33.38C106.684 33.6867 106.904 33.9167 107.177 34.07C107.451 34.2167 107.751 34.29 108.077 34.29ZM117.244 29.52V35H116.334V34.19C116.16 34.47 115.917 34.69 115.604 34.85C115.297 35.0033 114.957 35.08 114.584 35.08C114.157 35.08 113.774 34.9933 113.434 34.82C113.094 34.64 112.824 34.3733 112.624 34.02C112.43 33.6667 112.334 33.2367 112.334 32.73V29.52H113.234V32.61C113.234 33.15 113.37 33.5667 113.644 33.86C113.917 34.1467 114.29 34.29 114.764 34.29C115.25 34.29 115.634 34.14 115.914 33.84C116.194 33.54 116.334 33.1033 116.334 32.53V29.52H117.244ZM119.99 27.6V35H119.08V27.6H119.99ZM121.501 32.24C121.501 31.68 121.614 31.19 121.841 30.77C122.068 30.3433 122.378 30.0133 122.771 29.78C123.171 29.5467 123.614 29.43 124.101 29.43C124.581 29.43 124.998 29.5333 125.351 29.74C125.704 29.9467 125.968 30.2067 126.141 30.52V29.52H127.061V35H126.141V33.98C125.961 34.3 125.691 34.5667 125.331 34.78C124.978 34.9867 124.564 35.09 124.091 35.09C123.604 35.09 123.164 34.97 122.771 34.73C122.378 34.49 122.068 34.1533 121.841 33.72C121.614 33.2867 121.501 32.7933 121.501 32.24ZM126.141 32.25C126.141 31.8367 126.058 31.4767 125.891 31.17C125.724 30.8633 125.498 30.63 125.211 30.47C124.931 30.3033 124.621 30.22 124.281 30.22C123.941 30.22 123.631 30.3 123.351 30.46C123.071 30.62 122.848 30.8533 122.681 31.16C122.514 31.4667 122.431 31.8267 122.431 32.24C122.431 32.66 122.514 33.0267 122.681 33.34C122.848 33.6467 123.071 33.8833 123.351 34.05C123.631 34.21 123.941 34.29 124.281 34.29C124.621 34.29 124.931 34.21 125.211 34.05C125.498 33.8833 125.724 33.6467 125.891 33.34C126.058 33.0267 126.141 32.6633 126.141 32.25ZM130.839 35.09C130.419 35.09 130.042 35.02 129.709 34.88C129.376 34.7333 129.112 34.5333 128.919 34.28C128.726 34.02 128.619 33.7233 128.599 33.39H129.539C129.566 33.6633 129.692 33.8867 129.919 34.06C130.152 34.2333 130.456 34.32 130.829 34.32C131.176 34.32 131.449 34.2433 131.649 34.09C131.849 33.9367 131.949 33.7433 131.949 33.51C131.949 33.27 131.842 33.0933 131.629 32.98C131.416 32.86 131.086 32.7433 130.639 32.63C130.232 32.5233 129.899 32.4167 129.639 32.31C129.386 32.1967 129.166 32.0333 128.979 31.82C128.799 31.6 128.709 31.3133 128.709 30.96C128.709 30.68 128.792 30.4233 128.959 30.19C129.126 29.9567 129.362 29.7733 129.669 29.64C129.976 29.5 130.326 29.43 130.719 29.43C131.326 29.43 131.816 29.5833 132.189 29.89C132.562 30.1967 132.762 30.6167 132.789 31.15H131.879C131.859 30.8633 131.742 30.6333 131.529 30.46C131.322 30.2867 131.042 30.2 130.689 30.2C130.362 30.2 130.102 30.27 129.909 30.41C129.716 30.55 129.619 30.7333 129.619 30.96C129.619 31.14 129.676 31.29 129.789 31.41C129.909 31.5233 130.056 31.6167 130.229 31.69C130.409 31.7567 130.656 31.8333 130.969 31.92C131.362 32.0267 131.682 32.1333 131.929 32.24C132.176 32.34 132.386 32.4933 132.559 32.7C132.739 32.9067 132.832 33.1767 132.839 33.51C132.839 33.81 132.756 34.08 132.589 34.32C132.422 34.56 132.186 34.75 131.879 34.89C131.579 35.0233 131.232 35.09 130.839 35.09Z" fill="#98A4AE"/>
<path d="M73.9434 45.5L108.058 45.5L91.001 68.3301L73.9434 45.5Z" fill="white" stroke="#015486" stroke-width="2"/>
<path d="M91 65L71.0814 41L110.919 41L91 65Z" fill="white"/>
<path d="M31.155 11.978C30.2796 11.4725 29.3132 11.1443 28.311 11.0123C27.3088 10.8803 26.2904 10.947 25.314 11.2086C24.3376 11.4702 23.4223 11.9215 22.6203 12.5369C21.8183 13.1523 21.1454 13.9196 20.64 14.795L20.35 15.297C20.2507 15.4693 20.2239 15.6739 20.2755 15.8659C20.3271 16.0579 20.4528 16.2216 20.625 16.321L26.086 19.474L22.818 25.194L22.75 25.193C19.592 25.193 16.857 27.025 15.228 29.615C15.5062 29.5166 15.8027 29.481 16.0963 29.5108C16.3898 29.5405 16.6732 29.6348 16.926 29.787C18.338 27.921 20.444 26.693 22.75 26.693C25.154 26.693 27.341 28.028 28.75 30.029C28.9448 29.8497 29.1733 29.7109 29.4222 29.6206C29.6711 29.5303 29.9355 29.4903 30.2 29.503C28.869 27.445 26.833 25.883 24.444 25.372L27.385 20.224L32.658 23.269C32.7433 23.3183 32.8376 23.3503 32.9353 23.3631C33.033 23.376 33.1323 23.3695 33.2275 23.3439C33.3227 23.3184 33.4119 23.2743 33.4901 23.2143C33.5682 23.1543 33.6338 23.0794 33.683 22.994L33.973 22.493C34.4785 21.6176 34.8065 20.6511 34.9385 19.6489C35.0704 18.6466 35.0036 17.6282 34.742 16.6518C34.4803 15.6754 34.0288 14.7601 33.4134 13.9581C32.7979 13.1562 32.0305 12.4833 31.155 11.978ZM28.965 19.404L25.807 17.58C26.379 16.699 26.923 16.028 27.575 15.435C28.21 14.857 28.968 14.335 29.996 13.767C30.148 14.722 30.194 15.517 30.096 16.297C29.98 17.229 29.651 18.19 28.963 19.403M30.261 20.153C31.021 18.815 31.437 17.663 31.584 16.483C31.681 15.709 31.659 14.945 31.562 14.138C32.5536 15.0759 33.208 16.3148 33.4237 17.6625C33.6394 19.0102 33.4043 20.3915 32.755 21.592L30.261 20.153ZM26.565 14.325C25.775 15.044 25.14 15.844 24.505 16.829L22.025 15.397C22.7247 14.2594 23.773 13.3782 25.014 12.8845C26.2549 12.3908 27.6221 12.311 28.912 12.657C27.983 13.192 27.227 13.722 26.565 14.325ZM16.605 31.263C16.5536 31.1087 16.4535 30.9752 16.3197 30.8828C16.1859 30.7903 16.0257 30.7439 15.8632 30.7504C15.7007 30.757 15.5447 30.8162 15.4188 30.9191C15.2928 31.022 15.2038 31.163 15.165 31.321C14.91 32.363 14.427 32.935 13.877 33.267C13.301 33.615 12.567 33.749 11.748 33.749C11.5491 33.749 11.3583 33.828 11.2177 33.9687C11.077 34.1093 10.998 34.3001 10.998 34.499C10.998 34.6979 11.077 34.8887 11.2177 35.0293C11.3583 35.17 11.5491 35.249 11.748 35.249C12.705 35.249 13.748 35.097 14.652 34.551C15.1912 34.2252 15.6459 33.7767 15.979 33.242C17.768 35.524 21.261 35.512 22.998 33.218C24.763 35.548 28.338 35.524 30.101 33.132C30.5796 33.7834 31.2038 34.3141 31.9238 34.6816C32.6437 35.0492 33.4396 35.2435 34.248 35.249C34.4469 35.249 34.6377 35.17 34.7783 35.0293C34.919 34.8887 34.998 34.6979 34.998 34.499C34.998 34.3001 34.919 34.1093 34.7783 33.9687C34.6377 33.828 34.4469 33.749 34.248 33.749C32.773 33.749 31.303 32.789 30.818 31.271C30.77 31.1199 30.6754 30.9879 30.5477 30.894C30.42 30.8001 30.2659 30.749 30.1074 30.7481C29.9489 30.7472 29.7942 30.7965 29.6655 30.8891C29.5368 30.9816 29.4407 31.1125 29.391 31.263C28.428 34.172 24.653 34.135 23.707 31.384C23.6561 31.2364 23.5604 31.1085 23.4333 31.0179C23.3062 30.9273 23.1541 30.8786 22.998 30.8786C22.8419 30.8786 22.6897 30.9273 22.5626 31.0179C22.4355 31.1085 22.3399 31.2364 22.289 31.384C21.343 34.135 17.569 34.171 16.605 31.263Z" fill="#015486"/>
<defs>
<linearGradient id="paint0_linear_294_439" x1="179.069" y1="0.748829" x2="-69.2821" y2="206.234" gradientUnits="userSpaceOnUse">
<stop stop-color="white"/>
</linearGradient>
</defs>
</svg>
