<svg width="181" height="70" viewBox="0 0 181 70" fill="none" xmlns="http://www.w3.org/2000/svg">
<path d="M20 1H161C171.493 1 180 9.50659 180 20V26C180 36.4934 171.493 45 161 45H20C9.50659 45 1 36.4934 1 26V20C1 9.50659 9.50659 1 20 1Z" fill="url(#paint0_linear_294_278)" stroke="#015486" stroke-width="2"/>
<path d="M40.26 21V11.228C40.6427 11.1813 41.0627 11.1487 41.52 11.13C41.9867 11.102 42.4673 11.088 42.962 11.088C43.774 11.088 44.4647 11.2187 45.034 11.48C45.6033 11.732 46.0373 12.082 46.336 12.53C46.6347 12.978 46.784 13.4913 46.784 14.07C46.784 14.77 46.6113 15.3627 46.266 15.848C45.9207 16.3333 45.44 16.7067 44.824 16.968C44.208 17.22 43.494 17.346 42.682 17.346C42.29 17.346 41.926 17.332 41.59 17.304V21H40.26ZM42.85 16.24C43.6807 16.24 44.3247 16.0533 44.782 15.68C45.2393 15.3067 45.468 14.8073 45.468 14.182C45.468 13.5753 45.2487 13.0947 44.81 12.74C44.3713 12.3853 43.746 12.208 42.934 12.208C42.682 12.208 42.444 12.2127 42.22 12.222C41.996 12.2313 41.786 12.2453 41.59 12.264V16.17C41.7393 16.1887 41.9213 16.2073 42.136 16.226C42.3507 16.2353 42.5887 16.24 42.85 16.24ZM48.5548 21V13.72H49.7728V15.302C49.8941 14.994 50.0574 14.7093 50.2628 14.448C50.4681 14.1773 50.7248 13.9627 51.0328 13.804C51.3408 13.636 51.7001 13.552 52.1108 13.552C52.2508 13.552 52.3908 13.5613 52.5308 13.58C52.6708 13.5893 52.7874 13.608 52.8808 13.636L52.5028 14.938C52.3254 14.8633 52.1154 14.826 51.8728 14.826C51.5274 14.826 51.1961 14.924 50.8788 15.12C50.5708 15.316 50.3141 15.6193 50.1088 16.03C49.9128 16.4407 49.8148 16.9633 49.8148 17.598V21H48.5548ZM56.8087 21.168C56.2021 21.168 55.6514 21.014 55.1567 20.706C54.6621 20.398 54.2654 19.964 53.9667 19.404C53.6774 18.8347 53.5327 18.1673 53.5327 17.402C53.5327 16.674 53.6774 16.0207 53.9667 15.442C54.2654 14.8633 54.6714 14.406 55.1847 14.07C55.7074 13.7247 56.3047 13.552 56.9767 13.552C57.3967 13.552 57.7747 13.6267 58.1107 13.776C58.4561 13.916 58.7547 14.0933 59.0067 14.308V13.72H60.1547V19.236C60.1547 19.5907 60.2387 19.824 60.4067 19.936C60.5841 20.0387 60.7754 20.09 60.9807 20.09L60.7147 21.07C59.8187 21.07 59.2774 20.706 59.0907 19.978C58.8761 20.2767 58.5821 20.552 58.2087 20.804C57.8447 21.0467 57.3781 21.168 56.8087 21.168ZM57.0887 20.048C57.4434 20.048 57.7794 19.964 58.0967 19.796C58.4141 19.6187 58.6801 19.3993 58.8947 19.138V15.232C58.6427 15.0547 58.3627 14.9147 58.0547 14.812C57.7561 14.7 57.4387 14.644 57.1027 14.644C56.6547 14.644 56.2581 14.7607 55.9127 14.994C55.5767 15.218 55.3107 15.5353 55.1147 15.946C54.9187 16.3473 54.8207 16.8187 54.8207 17.36C54.8207 17.8827 54.9187 18.3493 55.1147 18.76C55.3107 19.1613 55.5814 19.4787 55.9267 19.712C56.2721 19.936 56.6594 20.048 57.0887 20.048ZM62.9634 21V13.72H64.2234V21H62.9634ZM63.5934 12.474C63.3507 12.474 63.1407 12.3853 62.9634 12.208C62.7954 12.0307 62.7114 11.8253 62.7114 11.592C62.7114 11.3213 62.7907 11.1067 62.9494 10.948C63.108 10.7893 63.3227 10.71 63.5934 10.71C63.836 10.71 64.0414 10.7987 64.2094 10.976C64.3867 11.144 64.4754 11.3493 64.4754 11.592C64.4754 11.8533 64.396 12.068 64.2374 12.236C64.0787 12.3947 63.864 12.474 63.5934 12.474ZM69.5494 21.168C68.9427 21.168 68.392 21.014 67.8974 20.706C67.4027 20.398 67.006 19.964 66.7074 19.404C66.418 18.8347 66.2734 18.1673 66.2734 17.402C66.2734 16.674 66.418 16.0207 66.7074 15.442C67.006 14.8633 67.412 14.406 67.9254 14.07C68.448 13.7247 69.0454 13.552 69.7174 13.552C70.1374 13.552 70.5154 13.6267 70.8514 13.776C71.1967 13.916 71.4954 14.0933 71.7474 14.308V13.72H72.8954V19.236C72.8954 19.5907 72.9794 19.824 73.1474 19.936C73.3247 20.0387 73.516 20.09 73.7214 20.09L73.4554 21.07C72.5594 21.07 72.018 20.706 71.8314 19.978C71.6167 20.2767 71.3227 20.552 70.9494 20.804C70.5854 21.0467 70.1187 21.168 69.5494 21.168ZM69.8294 20.048C70.184 20.048 70.52 19.964 70.8374 19.796C71.1547 19.6187 71.4207 19.3993 71.6354 19.138V15.232C71.3834 15.0547 71.1034 14.9147 70.7954 14.812C70.4967 14.7 70.1794 14.644 69.8434 14.644C69.3954 14.644 68.9987 14.7607 68.6534 14.994C68.3174 15.218 68.0514 15.5353 67.8554 15.946C67.6594 16.3473 67.5614 16.8187 67.5614 17.36C67.5614 17.8827 67.6594 18.3493 67.8554 18.76C68.0514 19.1613 68.322 19.4787 68.6674 19.712C69.0127 19.936 69.4 20.048 69.8294 20.048ZM82.9592 21.168C82.3619 21.168 81.8159 21.014 81.3212 20.706C80.8266 20.398 80.4346 19.964 80.1452 19.404C79.8559 18.8347 79.7112 18.1673 79.7112 17.402C79.7112 16.6647 79.8559 16.0067 80.1452 15.428C80.4439 14.8493 80.8359 14.392 81.3212 14.056C81.8159 13.72 82.3572 13.552 82.9452 13.552C83.4306 13.552 83.8459 13.65 84.1912 13.846C84.5459 14.042 84.8212 14.2427 85.0172 14.448V10.64H86.2772V19.236C86.2772 19.5907 86.3612 19.824 86.5292 19.936C86.7066 20.0387 86.8979 20.09 87.1032 20.09L86.8372 21.07C85.9506 21.07 85.4092 20.7153 85.2132 20.006C85.0079 20.2953 84.7186 20.5613 84.3452 20.804C83.9812 21.0467 83.5192 21.168 82.9592 21.168ZM83.2392 20.048C83.5846 20.048 83.9112 19.9687 84.2192 19.81C84.5366 19.642 84.8026 19.4273 85.0172 19.166V15.554C84.8399 15.33 84.5926 15.1247 84.2752 14.938C83.9579 14.742 83.6079 14.644 83.2252 14.644C82.7772 14.644 82.3852 14.7653 82.0492 15.008C81.7132 15.2507 81.4519 15.5773 81.2652 15.988C81.0879 16.3893 80.9992 16.8467 80.9992 17.36C80.9992 17.8733 81.0972 18.3353 81.2932 18.746C81.4892 19.1473 81.7552 19.4647 82.0912 19.698C82.4366 19.9313 82.8192 20.048 83.2392 20.048ZM91.8625 21.168C90.8171 21.168 89.9865 20.8367 89.3705 20.174C88.7638 19.502 88.4605 18.564 88.4605 17.36C88.4605 16.632 88.5958 15.9833 88.8665 15.414C89.1465 14.8353 89.5338 14.3827 90.0285 14.056C90.5231 13.72 91.0971 13.552 91.7505 13.552C92.4505 13.552 93.0291 13.706 93.4865 14.014C93.9531 14.3127 94.3031 14.7187 94.5365 15.232C94.7698 15.7453 94.8865 16.31 94.8865 16.926C94.8865 17.2527 94.8725 17.57 94.8445 17.878H89.7485C89.8325 18.5593 90.0705 19.0913 90.4625 19.474C90.8545 19.8567 91.3725 20.048 92.0165 20.048C92.4365 20.048 92.8145 20.006 93.1505 19.922C93.4865 19.8287 93.8085 19.712 94.1165 19.572L94.4105 20.65C94.0745 20.7993 93.6965 20.9207 93.2765 21.014C92.8565 21.1167 92.3851 21.168 91.8625 21.168ZM89.7345 16.856H93.7245C93.7245 16.1467 93.5471 15.6007 93.1925 15.218C92.8378 14.8353 92.3478 14.644 91.7225 14.644C91.1811 14.644 90.7331 14.8353 90.3785 15.218C90.0238 15.5913 89.8091 16.1373 89.7345 16.856ZM101.503 21V11.2H102.833V21H101.503ZM108.458 21.168C107.768 21.168 107.161 21.0093 106.638 20.692C106.125 20.3653 105.728 19.9173 105.448 19.348C105.168 18.7693 105.028 18.1067 105.028 17.36C105.028 16.66 105.168 16.0207 105.448 15.442C105.738 14.8633 106.148 14.406 106.68 14.07C107.212 13.7247 107.838 13.552 108.556 13.552C108.967 13.552 109.326 13.5893 109.634 13.664C109.952 13.7387 110.255 13.846 110.544 13.986L110.166 15.05C109.905 14.9193 109.653 14.826 109.41 14.77C109.177 14.7047 108.916 14.672 108.626 14.672C107.973 14.672 107.422 14.91 106.974 15.386C106.536 15.8527 106.316 16.5013 106.316 17.332C106.316 17.836 106.41 18.2933 106.596 18.704C106.783 19.1147 107.04 19.4413 107.366 19.684C107.702 19.9267 108.094 20.048 108.542 20.048C108.897 20.048 109.2 20.0107 109.452 19.936C109.704 19.852 109.975 19.7353 110.264 19.586L110.656 20.65C110.367 20.8087 110.04 20.9347 109.676 21.028C109.322 21.1213 108.916 21.168 108.458 21.168ZM115.071 21.168C114.465 21.168 113.914 21.014 113.419 20.706C112.925 20.398 112.528 19.964 112.229 19.404C111.94 18.8347 111.795 18.1673 111.795 17.402C111.795 16.674 111.94 16.0207 112.229 15.442C112.528 14.8633 112.934 14.406 113.447 14.07C113.97 13.7247 114.567 13.552 115.239 13.552C115.659 13.552 116.037 13.6267 116.373 13.776C116.719 13.916 117.017 14.0933 117.269 14.308V13.72H118.417V19.236C118.417 19.5907 118.501 19.824 118.669 19.936C118.847 20.0387 119.038 20.09 119.243 20.09L118.977 21.07C118.081 21.07 117.54 20.706 117.353 19.978C117.139 20.2767 116.845 20.552 116.471 20.804C116.107 21.0467 115.641 21.168 115.071 21.168ZM115.351 20.048C115.706 20.048 116.042 19.964 116.359 19.796C116.677 19.6187 116.943 19.3993 117.157 19.138V15.232C116.905 15.0547 116.625 14.9147 116.317 14.812C116.019 14.7 115.701 14.644 115.365 14.644C114.917 14.644 114.521 14.7607 114.175 14.994C113.839 15.218 113.573 15.5353 113.377 15.946C113.181 16.3473 113.083 16.8187 113.083 17.36C113.083 17.8827 113.181 18.3493 113.377 18.76C113.573 19.1613 113.844 19.4787 114.189 19.712C114.535 19.936 114.922 20.048 115.351 20.048ZM121.226 21V13.72H122.444V15.302C122.565 14.994 122.729 14.7093 122.934 14.448C123.139 14.1773 123.396 13.9627 123.704 13.804C124.012 13.636 124.371 13.552 124.782 13.552C124.922 13.552 125.062 13.5613 125.202 13.58C125.342 13.5893 125.459 13.608 125.552 13.636L125.174 14.938C124.997 14.8633 124.787 14.826 124.544 14.826C124.199 14.826 123.867 14.924 123.55 15.12C123.242 15.316 122.985 15.6193 122.78 16.03C122.584 16.4407 122.486 16.9633 122.486 17.598V21H121.226ZM129.48 21.168C128.873 21.168 128.322 21.014 127.828 20.706C127.333 20.398 126.936 19.964 126.638 19.404C126.348 18.8347 126.204 18.1673 126.204 17.402C126.204 16.674 126.348 16.0207 126.638 15.442C126.936 14.8633 127.342 14.406 127.856 14.07C128.378 13.7247 128.976 13.552 129.648 13.552C130.068 13.552 130.446 13.6267 130.782 13.776C131.127 13.916 131.426 14.0933 131.678 14.308V13.72H132.826V19.236C132.826 19.5907 132.91 19.824 133.078 19.936C133.255 20.0387 133.446 20.09 133.652 20.09L133.386 21.07C132.49 21.07 131.948 20.706 131.762 19.978C131.547 20.2767 131.253 20.552 130.88 20.804C130.516 21.0467 130.049 21.168 129.48 21.168ZM129.76 20.048C130.114 20.048 130.45 19.964 130.768 19.796C131.085 19.6187 131.351 19.3993 131.566 19.138V15.232C131.314 15.0547 131.034 14.9147 130.726 14.812C130.427 14.7 130.11 14.644 129.774 14.644C129.326 14.644 128.929 14.7607 128.584 14.994C128.248 15.218 127.982 15.5353 127.786 15.946C127.59 16.3473 127.492 16.8187 127.492 17.36C127.492 17.8827 127.59 18.3493 127.786 18.76C127.982 19.1613 128.252 19.4787 128.598 19.712C128.943 19.936 129.33 20.048 129.76 20.048ZM135.634 21V13.72H136.894V21H135.634ZM135.074 12.95L134.64 12.096L137.286 10.346L137.874 11.522L135.074 12.95Z" fill="#015486"/>
<path d="M44.43 31.07C44.43 31.65 44.23 32.1333 43.83 32.52C43.4367 32.9 42.8333 33.09 42.02 33.09H40.68V36H39.77V29.03H42.02C42.8067 29.03 43.4033 29.22 43.81 29.6C44.2233 29.98 44.43 30.47 44.43 31.07ZM42.02 32.34C42.5267 32.34 42.9 32.23 43.14 32.01C43.38 31.79 43.5 31.4767 43.5 31.07C43.5 30.21 43.0067 29.78 42.02 29.78H40.68V32.34H42.02ZM46.771 31.41C46.931 31.0967 47.1577 30.8533 47.451 30.68C47.751 30.5067 48.1143 30.42 48.541 30.42V31.36H48.301C47.281 31.36 46.771 31.9133 46.771 33.02V36H45.861V30.52H46.771V31.41ZM49.5515 33.24C49.5515 32.68 49.6648 32.19 49.8915 31.77C50.1182 31.3433 50.4282 31.0133 50.8215 30.78C51.2215 30.5467 51.6648 30.43 52.1515 30.43C52.6315 30.43 53.0482 30.5333 53.4015 30.74C53.7548 30.9467 54.0182 31.2067 54.1915 31.52V30.52H55.1115V36H54.1915V34.98C54.0115 35.3 53.7415 35.5667 53.3815 35.78C53.0282 35.9867 52.6148 36.09 52.1415 36.09C51.6548 36.09 51.2148 35.97 50.8215 35.73C50.4282 35.49 50.1182 35.1533 49.8915 34.72C49.6648 34.2867 49.5515 33.7933 49.5515 33.24ZM54.1915 33.25C54.1915 32.8367 54.1082 32.4767 53.9415 32.17C53.7748 31.8633 53.5482 31.63 53.2615 31.47C52.9815 31.3033 52.6715 31.22 52.3315 31.22C51.9915 31.22 51.6815 31.3 51.4015 31.46C51.1215 31.62 50.8982 31.8533 50.7315 32.16C50.5648 32.4667 50.4815 32.8267 50.4815 33.24C50.4815 33.66 50.5648 34.0267 50.7315 34.34C50.8982 34.6467 51.1215 34.8833 51.4015 35.05C51.6815 35.21 51.9915 35.29 52.3315 35.29C52.6715 35.29 52.9815 35.21 53.2615 35.05C53.5482 34.8833 53.7748 34.6467 53.9415 34.34C54.1082 34.0267 54.1915 33.6633 54.1915 33.25ZM59.2793 35.32C59.6793 35.32 60.0126 35.2267 60.2793 35.04C60.546 34.8533 60.7293 34.5867 60.8293 34.24H61.8093C61.676 34.76 61.4126 35.1867 61.0193 35.52C60.6326 35.8467 60.146 36.0333 59.5593 36.08V36.58C59.9526 36.5733 60.266 36.6567 60.4993 36.83C60.7326 37.0033 60.8493 37.25 60.8493 37.57C60.8493 37.8833 60.736 38.1333 60.5093 38.32C60.2826 38.5067 59.9893 38.6 59.6293 38.6H58.4793V38.01H59.4493C59.6693 38.01 59.8293 37.9767 59.9293 37.91C60.036 37.8433 60.0893 37.73 60.0893 37.57C60.0893 37.4167 60.036 37.3067 59.9293 37.24C59.8293 37.1733 59.6693 37.14 59.4493 37.14H58.9493V36.07C58.4893 36.0233 58.0826 35.88 57.7293 35.64C57.376 35.3933 57.0993 35.0667 56.8993 34.66C56.706 34.2467 56.6093 33.7767 56.6093 33.25C56.6093 32.6833 56.7226 32.19 56.9493 31.77C57.176 31.3433 57.4893 31.0133 57.8893 30.78C58.296 30.5467 58.7593 30.43 59.2793 30.43C59.9526 30.43 60.506 30.5933 60.9393 30.92C61.3793 31.2467 61.6693 31.7 61.8093 32.28H60.8293C60.736 31.9467 60.5526 31.6833 60.2793 31.49C60.0126 31.2967 59.6793 31.2 59.2793 31.2C58.7593 31.2 58.3393 31.38 58.0193 31.74C57.6993 32.0933 57.5393 32.5967 57.5393 33.25C57.5393 33.91 57.6993 34.42 58.0193 34.78C58.3393 35.14 58.7593 35.32 59.2793 35.32ZM62.9835 33.24C62.9835 32.68 63.0968 32.19 63.3235 31.77C63.5502 31.3433 63.8602 31.0133 64.2535 30.78C64.6535 30.5467 65.0968 30.43 65.5835 30.43C66.0635 30.43 66.4802 30.5333 66.8335 30.74C67.1869 30.9467 67.4502 31.2067 67.6235 31.52V30.52H68.5435V36H67.6235V34.98C67.4435 35.3 67.1735 35.5667 66.8135 35.78C66.4602 35.9867 66.0468 36.09 65.5735 36.09C65.0868 36.09 64.6468 35.97 64.2535 35.73C63.8602 35.49 63.5502 35.1533 63.3235 34.72C63.0968 34.2867 62.9835 33.7933 62.9835 33.24ZM67.6235 33.25C67.6235 32.8367 67.5402 32.4767 67.3735 32.17C67.2068 31.8633 66.9802 31.63 66.6935 31.47C66.4135 31.3033 66.1035 31.22 65.7635 31.22C65.4235 31.22 65.1135 31.3 64.8335 31.46C64.5535 31.62 64.3302 31.8533 64.1635 32.16C63.9968 32.4667 63.9135 32.8267 63.9135 33.24C63.9135 33.66 63.9968 34.0267 64.1635 34.34C64.3302 34.6467 64.5535 34.8833 64.8335 35.05C65.1135 35.21 65.4235 35.29 65.7635 35.29C66.1035 35.29 66.4135 35.21 66.6935 35.05C66.9802 34.8833 67.2068 34.6467 67.3735 34.34C67.5402 34.0267 67.6235 33.6633 67.6235 33.25ZM78.6273 31.05C78.434 30.6433 78.154 30.33 77.7873 30.11C77.4207 29.8833 76.994 29.77 76.5073 29.77C76.0207 29.77 75.5807 29.8833 75.1873 30.11C74.8007 30.33 74.494 30.65 74.2673 31.07C74.0473 31.4833 73.9373 31.9633 73.9373 32.51C73.9373 33.0567 74.0473 33.5367 74.2673 33.95C74.494 34.3633 74.8007 34.6833 75.1873 34.91C75.5807 35.13 76.0207 35.24 76.5073 35.24C77.1873 35.24 77.7473 35.0367 78.1873 34.63C78.6273 34.2233 78.884 33.6733 78.9573 32.98H76.1773V32.24H79.9273V32.94C79.874 33.5133 79.694 34.04 79.3873 34.52C79.0807 34.9933 78.6773 35.37 78.1773 35.65C77.6773 35.9233 77.1207 36.06 76.5073 36.06C75.8607 36.06 75.2707 35.91 74.7373 35.61C74.204 35.3033 73.7807 34.88 73.4673 34.34C73.1607 33.8 73.0073 33.19 73.0073 32.51C73.0073 31.83 73.1607 31.22 73.4673 30.68C73.7807 30.1333 74.204 29.71 74.7373 29.41C75.2707 29.1033 75.8607 28.95 76.5073 28.95C77.2473 28.95 77.9007 29.1333 78.4673 29.5C79.0407 29.8667 79.4573 30.3833 79.7173 31.05H78.6273ZM86.4305 33.05C86.4305 33.2233 86.4205 33.4067 86.4005 33.6H82.0205C82.0539 34.14 82.2372 34.5633 82.5705 34.87C82.9105 35.17 83.3205 35.32 83.8005 35.32C84.1939 35.32 84.5205 35.23 84.7805 35.05C85.0472 34.8633 85.2339 34.6167 85.3405 34.31H86.3205C86.1739 34.8367 85.8805 35.2667 85.4405 35.6C85.0005 35.9267 84.4539 36.09 83.8005 36.09C83.2805 36.09 82.8139 35.9733 82.4005 35.74C81.9939 35.5067 81.6739 35.1767 81.4405 34.75C81.2072 34.3167 81.0905 33.8167 81.0905 33.25C81.0905 32.6833 81.2039 32.1867 81.4305 31.76C81.6572 31.3333 81.9739 31.0067 82.3805 30.78C82.7939 30.5467 83.2672 30.43 83.8005 30.43C84.3205 30.43 84.7805 30.5433 85.1805 30.77C85.5805 30.9967 85.8872 31.31 86.1005 31.71C86.3205 32.1033 86.4305 32.55 86.4305 33.05ZM85.4905 32.86C85.4905 32.5133 85.4139 32.2167 85.2605 31.97C85.1072 31.7167 84.8972 31.5267 84.6305 31.4C84.3705 31.2667 84.0805 31.2 83.7605 31.2C83.3005 31.2 82.9072 31.3467 82.5805 31.64C82.2605 31.9333 82.0772 32.34 82.0305 32.86H85.4905ZM89.0417 31.27V34.5C89.0417 34.7667 89.0984 34.9567 89.2117 35.07C89.3251 35.1767 89.5217 35.23 89.8017 35.23H90.4717V36H89.6517C89.1451 36 88.7651 35.8833 88.5117 35.65C88.2584 35.4167 88.1317 35.0333 88.1317 34.5V31.27H87.4217V30.52H88.1317V29.14H89.0417V30.52H90.4717V31.27H89.0417ZM96.7343 30.52V36H95.8243V35.19C95.651 35.47 95.4076 35.69 95.0943 35.85C94.7876 36.0033 94.4476 36.08 94.0743 36.08C93.6476 36.08 93.2643 35.9933 92.9243 35.82C92.5843 35.64 92.3143 35.3733 92.1143 35.02C91.921 34.6667 91.8243 34.2367 91.8243 33.73V30.52H92.7243V33.61C92.7243 34.15 92.861 34.5667 93.1343 34.86C93.4076 35.1467 93.781 35.29 94.2543 35.29C94.741 35.29 95.1243 35.14 95.4043 34.84C95.6843 34.54 95.8243 34.1033 95.8243 33.53V30.52H96.7343ZM95.2843 28.97L93.1543 30.11V29.43L95.2843 28.18V28.97ZM99.4808 28.6V36H98.5708V28.6H99.4808ZM101.802 29.63C101.628 29.63 101.482 29.57 101.362 29.45C101.242 29.33 101.182 29.1833 101.182 29.01C101.182 28.8367 101.242 28.69 101.362 28.57C101.482 28.45 101.628 28.39 101.802 28.39C101.968 28.39 102.108 28.45 102.222 28.57C102.342 28.69 102.402 28.8367 102.402 29.01C102.402 29.1833 102.342 29.33 102.222 29.45C102.108 29.57 101.968 29.63 101.802 29.63ZM102.242 30.52V36H101.332V30.52H102.242ZM106.483 36.09C105.969 36.09 105.503 35.9733 105.083 35.74C104.669 35.5067 104.343 35.1767 104.103 34.75C103.869 34.3167 103.753 33.8167 103.753 33.25C103.753 32.69 103.873 32.1967 104.113 31.77C104.359 31.3367 104.693 31.0067 105.113 30.78C105.533 30.5467 106.003 30.43 106.523 30.43C107.043 30.43 107.513 30.5467 107.933 30.78C108.353 31.0067 108.683 31.3333 108.923 31.76C109.169 32.1867 109.293 32.6833 109.293 33.25C109.293 33.8167 109.166 34.3167 108.913 34.75C108.666 35.1767 108.329 35.5067 107.903 35.74C107.476 35.9733 107.003 36.09 106.483 36.09ZM106.483 35.29C106.809 35.29 107.116 35.2133 107.403 35.06C107.689 34.9067 107.919 34.6767 108.093 34.37C108.273 34.0633 108.363 33.69 108.363 33.25C108.363 32.81 108.276 32.4367 108.103 32.13C107.929 31.8233 107.703 31.5967 107.423 31.45C107.143 31.2967 106.839 31.22 106.513 31.22C106.179 31.22 105.873 31.2967 105.593 31.45C105.319 31.5967 105.099 31.8233 104.933 32.13C104.766 32.4367 104.683 32.81 104.683 33.25C104.683 33.6967 104.763 34.0733 104.923 34.38C105.089 34.6867 105.309 34.9167 105.583 35.07C105.856 35.2167 106.156 35.29 106.483 35.29ZM119.515 29.03L116.885 36H115.835L113.205 29.03H114.175L116.365 35.04L118.555 29.03H119.515ZM120.473 33.24C120.473 32.68 120.586 32.19 120.813 31.77C121.04 31.3433 121.35 31.0133 121.743 30.78C122.143 30.5467 122.586 30.43 123.073 30.43C123.553 30.43 123.97 30.5333 124.323 30.74C124.676 30.9467 124.94 31.2067 125.113 31.52V30.52H126.033V36H125.113V34.98C124.933 35.3 124.663 35.5667 124.303 35.78C123.95 35.9867 123.536 36.09 123.063 36.09C122.576 36.09 122.136 35.97 121.743 35.73C121.35 35.49 121.04 35.1533 120.813 34.72C120.586 34.2867 120.473 33.7933 120.473 33.24ZM125.113 33.25C125.113 32.8367 125.03 32.4767 124.863 32.17C124.696 31.8633 124.47 31.63 124.183 31.47C123.903 31.3033 123.593 31.22 123.253 31.22C122.913 31.22 122.603 31.3 122.323 31.46C122.043 31.62 121.82 31.8533 121.653 32.16C121.486 32.4667 121.403 32.8267 121.403 33.24C121.403 33.66 121.486 34.0267 121.653 34.34C121.82 34.6467 122.043 34.8833 122.323 35.05C122.603 35.21 122.913 35.29 123.253 35.29C123.593 35.29 123.903 35.21 124.183 35.05C124.47 34.8833 124.696 34.6467 124.863 34.34C125.03 34.0267 125.113 33.6633 125.113 33.25ZM128.781 31.41C128.941 31.0967 129.167 30.8533 129.461 30.68C129.761 30.5067 130.124 30.42 130.551 30.42V31.36H130.311C129.291 31.36 128.781 31.9133 128.781 33.02V36H127.871V30.52H128.781V31.41ZM134.161 30.43C134.635 30.43 135.048 30.5333 135.401 30.74C135.761 30.9467 136.028 31.2067 136.201 31.52V30.52H137.121V36.12C137.121 36.62 137.015 37.0633 136.801 37.45C136.588 37.8433 136.281 38.15 135.881 38.37C135.488 38.59 135.028 38.7 134.501 38.7C133.781 38.7 133.181 38.53 132.701 38.19C132.221 37.85 131.938 37.3867 131.851 36.8H132.751C132.851 37.1333 133.058 37.4 133.371 37.6C133.685 37.8067 134.061 37.91 134.501 37.91C135.001 37.91 135.408 37.7533 135.721 37.44C136.041 37.1267 136.201 36.6867 136.201 36.12V34.97C136.021 35.29 135.755 35.5567 135.401 35.77C135.048 35.9833 134.635 36.09 134.161 36.09C133.675 36.09 133.231 35.97 132.831 35.73C132.438 35.49 132.128 35.1533 131.901 34.72C131.675 34.2867 131.561 33.7933 131.561 33.24C131.561 32.68 131.675 32.19 131.901 31.77C132.128 31.3433 132.438 31.0133 132.831 30.78C133.231 30.5467 133.675 30.43 134.161 30.43ZM136.201 33.25C136.201 32.8367 136.118 32.4767 135.951 32.17C135.785 31.8633 135.558 31.63 135.271 31.47C134.991 31.3033 134.681 31.22 134.341 31.22C134.001 31.22 133.691 31.3 133.411 31.46C133.131 31.62 132.908 31.8533 132.741 32.16C132.575 32.4667 132.491 32.8267 132.491 33.24C132.491 33.66 132.575 34.0267 132.741 34.34C132.908 34.6467 133.131 34.8833 133.411 35.05C133.691 35.21 134.001 35.29 134.341 35.29C134.681 35.29 134.991 35.21 135.271 35.05C135.558 34.8833 135.785 34.6467 135.951 34.34C136.118 34.0267 136.201 33.6633 136.201 33.25ZM138.619 33.24C138.619 32.68 138.732 32.19 138.959 31.77C139.186 31.3433 139.496 31.0133 139.889 30.78C140.289 30.5467 140.732 30.43 141.219 30.43C141.699 30.43 142.116 30.5333 142.469 30.74C142.822 30.9467 143.086 31.2067 143.259 31.52V30.52H144.179V36H143.259V34.98C143.079 35.3 142.809 35.5667 142.449 35.78C142.096 35.9867 141.682 36.09 141.209 36.09C140.722 36.09 140.282 35.97 139.889 35.73C139.496 35.49 139.186 35.1533 138.959 34.72C138.732 34.2867 138.619 33.7933 138.619 33.24ZM143.259 33.25C143.259 32.8367 143.176 32.4767 143.009 32.17C142.842 31.8633 142.616 31.63 142.329 31.47C142.049 31.3033 141.739 31.22 141.399 31.22C141.059 31.22 140.749 31.3 140.469 31.46C140.189 31.62 139.966 31.8533 139.799 32.16C139.632 32.4667 139.549 32.8267 139.549 33.24C139.549 33.66 139.632 34.0267 139.799 34.34C139.966 34.6467 140.189 34.8833 140.469 35.05C140.749 35.21 141.059 35.29 141.399 35.29C141.739 35.29 142.049 35.21 142.329 35.05C142.616 34.8833 142.842 34.6467 143.009 34.34C143.176 34.0267 143.259 33.6633 143.259 33.25ZM147.957 36.09C147.537 36.09 147.16 36.02 146.827 35.88C146.494 35.7333 146.23 35.5333 146.037 35.28C145.844 35.02 145.737 34.7233 145.717 34.39H146.657C146.684 34.6633 146.81 34.8867 147.037 35.06C147.27 35.2333 147.574 35.32 147.947 35.32C148.294 35.32 148.567 35.2433 148.767 35.09C148.967 34.9367 149.067 34.7433 149.067 34.51C149.067 34.27 148.96 34.0933 148.747 33.98C148.534 33.86 148.204 33.7433 147.757 33.63C147.35 33.5233 147.017 33.4167 146.757 33.31C146.504 33.1967 146.284 33.0333 146.097 32.82C145.917 32.6 145.827 32.3133 145.827 31.96C145.827 31.68 145.91 31.4233 146.077 31.19C146.244 30.9567 146.48 30.7733 146.787 30.64C147.094 30.5 147.444 30.43 147.837 30.43C148.444 30.43 148.934 30.5833 149.307 30.89C149.68 31.1967 149.88 31.6167 149.907 32.15H148.997C148.977 31.8633 148.86 31.6333 148.647 31.46C148.44 31.2867 148.16 31.2 147.807 31.2C147.48 31.2 147.22 31.27 147.027 31.41C146.834 31.55 146.737 31.7333 146.737 31.96C146.737 32.14 146.794 32.29 146.907 32.41C147.027 32.5233 147.174 32.6167 147.347 32.69C147.527 32.7567 147.774 32.8333 148.087 32.92C148.48 33.0267 148.8 33.1333 149.047 33.24C149.294 33.34 149.504 33.4933 149.677 33.7C149.857 33.9067 149.95 34.1767 149.957 34.51C149.957 34.81 149.874 35.08 149.707 35.32C149.54 35.56 149.304 35.75 148.997 35.89C148.697 36.0233 148.35 36.09 147.957 36.09Z" fill="#98A4AE"/>
<path d="M73.9434 45.5L108.058 45.5L91.001 68.3301L73.9434 45.5Z" fill="white" stroke="#015486" stroke-width="2"/>
<path d="M91 65L71.0814 41L110.919 41L91 65Z" fill="white"/>
<path d="M31.155 11.978C30.2796 11.4725 29.3132 11.1443 28.311 11.0123C27.3088 10.8803 26.2904 10.947 25.314 11.2086C24.3376 11.4702 23.4223 11.9215 22.6203 12.5369C21.8183 13.1523 21.1454 13.9196 20.64 14.795L20.35 15.297C20.2507 15.4693 20.2239 15.6739 20.2755 15.8659C20.3271 16.0579 20.4528 16.2216 20.625 16.321L26.086 19.474L22.818 25.194L22.75 25.193C19.592 25.193 16.857 27.025 15.228 29.615C15.5062 29.5166 15.8027 29.481 16.0963 29.5108C16.3898 29.5405 16.6732 29.6348 16.926 29.787C18.338 27.921 20.444 26.693 22.75 26.693C25.154 26.693 27.341 28.028 28.75 30.029C28.9448 29.8497 29.1733 29.7109 29.4222 29.6206C29.6711 29.5303 29.9355 29.4903 30.2 29.503C28.869 27.445 26.833 25.883 24.444 25.372L27.385 20.224L32.658 23.269C32.7433 23.3183 32.8376 23.3503 32.9353 23.3631C33.033 23.376 33.1323 23.3695 33.2275 23.3439C33.3227 23.3184 33.4119 23.2743 33.4901 23.2143C33.5682 23.1543 33.6338 23.0794 33.683 22.994L33.973 22.493C34.4785 21.6176 34.8065 20.6511 34.9385 19.6489C35.0704 18.6466 35.0036 17.6282 34.742 16.6518C34.4803 15.6754 34.0288 14.7601 33.4134 13.9581C32.7979 13.1562 32.0305 12.4833 31.155 11.978ZM28.965 19.404L25.807 17.58C26.379 16.699 26.923 16.028 27.575 15.435C28.21 14.857 28.968 14.335 29.996 13.767C30.148 14.722 30.194 15.517 30.096 16.297C29.98 17.229 29.651 18.19 28.963 19.403M30.261 20.153C31.021 18.815 31.437 17.663 31.584 16.483C31.681 15.709 31.659 14.945 31.562 14.138C32.5536 15.0759 33.208 16.3148 33.4237 17.6625C33.6394 19.0102 33.4043 20.3915 32.755 21.592L30.261 20.153ZM26.565 14.325C25.775 15.044 25.14 15.844 24.505 16.829L22.025 15.397C22.7247 14.2594 23.773 13.3782 25.014 12.8845C26.2549 12.3908 27.6221 12.311 28.912 12.657C27.983 13.192 27.227 13.722 26.565 14.325ZM16.605 31.263C16.5536 31.1087 16.4535 30.9752 16.3197 30.8828C16.1859 30.7903 16.0257 30.7439 15.8632 30.7504C15.7007 30.757 15.5447 30.8162 15.4188 30.9191C15.2928 31.022 15.2038 31.163 15.165 31.321C14.91 32.363 14.427 32.935 13.877 33.267C13.301 33.615 12.567 33.749 11.748 33.749C11.5491 33.749 11.3583 33.828 11.2177 33.9687C11.077 34.1093 10.998 34.3001 10.998 34.499C10.998 34.6979 11.077 34.8887 11.2177 35.0293C11.3583 35.17 11.5491 35.249 11.748 35.249C12.705 35.249 13.748 35.097 14.652 34.551C15.1912 34.2252 15.6459 33.7767 15.979 33.242C17.768 35.524 21.261 35.512 22.998 33.218C24.763 35.548 28.338 35.524 30.101 33.132C30.5796 33.7834 31.2038 34.3141 31.9238 34.6816C32.6437 35.0492 33.4396 35.2435 34.248 35.249C34.4469 35.249 34.6377 35.17 34.7783 35.0293C34.919 34.8887 34.998 34.6979 34.998 34.499C34.998 34.3001 34.919 34.1093 34.7783 33.9687C34.6377 33.828 34.4469 33.749 34.248 33.749C32.773 33.749 31.303 32.789 30.818 31.271C30.77 31.1199 30.6754 30.9879 30.5477 30.894C30.42 30.8001 30.2659 30.749 30.1074 30.7481C29.9489 30.7472 29.7942 30.7965 29.6655 30.8891C29.5368 30.9816 29.4407 31.1125 29.391 31.263C28.428 34.172 24.653 34.135 23.707 31.384C23.6561 31.2364 23.5604 31.1085 23.4333 31.0179C23.3062 30.9273 23.1541 30.8786 22.998 30.8786C22.8419 30.8786 22.6897 30.9273 22.5626 31.0179C22.4355 31.1085 22.3399 31.2364 22.289 31.384C21.343 34.135 17.569 34.171 16.605 31.263Z" fill="#015486"/>
<defs>
<linearGradient id="paint0_linear_294_278" x1="179.069" y1="0.748829" x2="-69.2821" y2="206.234" gradientUnits="userSpaceOnUse">
<stop stop-color="white"/>
</linearGradient>
</defs>
</svg>
