<svg width="181" height="70" viewBox="0 0 181 70" fill="none" xmlns="http://www.w3.org/2000/svg">
<path d="M20 1H161C171.493 1 180 9.50659 180 20V26C180 36.4934 171.493 45 161 45H20C9.50659 45 1 36.4934 1 26V20C1 9.50659 9.50659 1 20 1Z" fill="url(#paint0_linear_294_271)" stroke="#015486" stroke-width="2"/>
<path d="M40.26 21V11.228C40.6427 11.1813 41.0627 11.1487 41.52 11.13C41.9867 11.102 42.4673 11.088 42.962 11.088C43.774 11.088 44.4647 11.2187 45.034 11.48C45.6033 11.732 46.0373 12.082 46.336 12.53C46.6347 12.978 46.784 13.4913 46.784 14.07C46.784 14.77 46.6113 15.3627 46.266 15.848C45.9207 16.3333 45.44 16.7067 44.824 16.968C44.208 17.22 43.494 17.346 42.682 17.346C42.29 17.346 41.926 17.332 41.59 17.304V21H40.26ZM42.85 16.24C43.6807 16.24 44.3247 16.0533 44.782 15.68C45.2393 15.3067 45.468 14.8073 45.468 14.182C45.468 13.5753 45.2487 13.0947 44.81 12.74C44.3713 12.3853 43.746 12.208 42.934 12.208C42.682 12.208 42.444 12.2127 42.22 12.222C41.996 12.2313 41.786 12.2453 41.59 12.264V16.17C41.7393 16.1887 41.9213 16.2073 42.136 16.226C42.3507 16.2353 42.5887 16.24 42.85 16.24ZM48.5548 21V13.72H49.7728V15.302C49.8941 14.994 50.0574 14.7093 50.2628 14.448C50.4681 14.1773 50.7248 13.9627 51.0328 13.804C51.3408 13.636 51.7001 13.552 52.1108 13.552C52.2508 13.552 52.3908 13.5613 52.5308 13.58C52.6708 13.5893 52.7874 13.608 52.8808 13.636L52.5028 14.938C52.3254 14.8633 52.1154 14.826 51.8728 14.826C51.5274 14.826 51.1961 14.924 50.8788 15.12C50.5708 15.316 50.3141 15.6193 50.1088 16.03C49.9128 16.4407 49.8148 16.9633 49.8148 17.598V21H48.5548ZM56.8087 21.168C56.2021 21.168 55.6514 21.014 55.1567 20.706C54.6621 20.398 54.2654 19.964 53.9667 19.404C53.6774 18.8347 53.5327 18.1673 53.5327 17.402C53.5327 16.674 53.6774 16.0207 53.9667 15.442C54.2654 14.8633 54.6714 14.406 55.1847 14.07C55.7074 13.7247 56.3047 13.552 56.9767 13.552C57.3967 13.552 57.7747 13.6267 58.1107 13.776C58.4561 13.916 58.7547 14.0933 59.0067 14.308V13.72H60.1547V19.236C60.1547 19.5907 60.2387 19.824 60.4067 19.936C60.5841 20.0387 60.7754 20.09 60.9807 20.09L60.7147 21.07C59.8187 21.07 59.2774 20.706 59.0907 19.978C58.8761 20.2767 58.5821 20.552 58.2087 20.804C57.8447 21.0467 57.3781 21.168 56.8087 21.168ZM57.0887 20.048C57.4434 20.048 57.7794 19.964 58.0967 19.796C58.4141 19.6187 58.6801 19.3993 58.8947 19.138V15.232C58.6427 15.0547 58.3627 14.9147 58.0547 14.812C57.7561 14.7 57.4387 14.644 57.1027 14.644C56.6547 14.644 56.2581 14.7607 55.9127 14.994C55.5767 15.218 55.3107 15.5353 55.1147 15.946C54.9187 16.3473 54.8207 16.8187 54.8207 17.36C54.8207 17.8827 54.9187 18.3493 55.1147 18.76C55.3107 19.1613 55.5814 19.4787 55.9267 19.712C56.2721 19.936 56.6594 20.048 57.0887 20.048ZM62.9634 21V13.72H64.2234V21H62.9634ZM63.5934 12.474C63.3507 12.474 63.1407 12.3853 62.9634 12.208C62.7954 12.0307 62.7114 11.8253 62.7114 11.592C62.7114 11.3213 62.7907 11.1067 62.9494 10.948C63.108 10.7893 63.3227 10.71 63.5934 10.71C63.836 10.71 64.0414 10.7987 64.2094 10.976C64.3867 11.144 64.4754 11.3493 64.4754 11.592C64.4754 11.8533 64.396 12.068 64.2374 12.236C64.0787 12.3947 63.864 12.474 63.5934 12.474ZM69.5494 21.168C68.9427 21.168 68.392 21.014 67.8974 20.706C67.4027 20.398 67.006 19.964 66.7074 19.404C66.418 18.8347 66.2734 18.1673 66.2734 17.402C66.2734 16.674 66.418 16.0207 66.7074 15.442C67.006 14.8633 67.412 14.406 67.9254 14.07C68.448 13.7247 69.0454 13.552 69.7174 13.552C70.1374 13.552 70.5154 13.6267 70.8514 13.776C71.1967 13.916 71.4954 14.0933 71.7474 14.308V13.72H72.8954V19.236C72.8954 19.5907 72.9794 19.824 73.1474 19.936C73.3247 20.0387 73.516 20.09 73.7214 20.09L73.4554 21.07C72.5594 21.07 72.018 20.706 71.8314 19.978C71.6167 20.2767 71.3227 20.552 70.9494 20.804C70.5854 21.0467 70.1187 21.168 69.5494 21.168ZM69.8294 20.048C70.184 20.048 70.52 19.964 70.8374 19.796C71.1547 19.6187 71.4207 19.3993 71.6354 19.138V15.232C71.3834 15.0547 71.1034 14.9147 70.7954 14.812C70.4967 14.7 70.1794 14.644 69.8434 14.644C69.3954 14.644 68.9987 14.7607 68.6534 14.994C68.3174 15.218 68.0514 15.5353 67.8554 15.946C67.6594 16.3473 67.5614 16.8187 67.5614 17.36C67.5614 17.8827 67.6594 18.3493 67.8554 18.76C68.0514 19.1613 68.322 19.4787 68.6674 19.712C69.0127 19.936 69.4 20.048 69.8294 20.048ZM82.9592 21.168C82.3619 21.168 81.8159 21.014 81.3212 20.706C80.8266 20.398 80.4346 19.964 80.1452 19.404C79.8559 18.8347 79.7112 18.1673 79.7112 17.402C79.7112 16.6647 79.8559 16.0067 80.1452 15.428C80.4439 14.8493 80.8359 14.392 81.3212 14.056C81.8159 13.72 82.3572 13.552 82.9452 13.552C83.4306 13.552 83.8459 13.65 84.1912 13.846C84.5459 14.042 84.8212 14.2427 85.0172 14.448V10.64H86.2772V19.236C86.2772 19.5907 86.3612 19.824 86.5292 19.936C86.7066 20.0387 86.8979 20.09 87.1032 20.09L86.8372 21.07C85.9506 21.07 85.4092 20.7153 85.2132 20.006C85.0079 20.2953 84.7186 20.5613 84.3452 20.804C83.9812 21.0467 83.5192 21.168 82.9592 21.168ZM83.2392 20.048C83.5846 20.048 83.9112 19.9687 84.2192 19.81C84.5366 19.642 84.8026 19.4273 85.0172 19.166V15.554C84.8399 15.33 84.5926 15.1247 84.2752 14.938C83.9579 14.742 83.6079 14.644 83.2252 14.644C82.7772 14.644 82.3852 14.7653 82.0492 15.008C81.7132 15.2507 81.4519 15.5773 81.2652 15.988C81.0879 16.3893 80.9992 16.8467 80.9992 17.36C80.9992 17.8733 81.0972 18.3353 81.2932 18.746C81.4892 19.1473 81.7552 19.4647 82.0912 19.698C82.4366 19.9313 82.8192 20.048 83.2392 20.048ZM91.8625 21.168C90.8171 21.168 89.9865 20.8367 89.3705 20.174C88.7638 19.502 88.4605 18.564 88.4605 17.36C88.4605 16.632 88.5958 15.9833 88.8665 15.414C89.1465 14.8353 89.5338 14.3827 90.0285 14.056C90.5231 13.72 91.0971 13.552 91.7505 13.552C92.4505 13.552 93.0291 13.706 93.4865 14.014C93.9531 14.3127 94.3031 14.7187 94.5365 15.232C94.7698 15.7453 94.8865 16.31 94.8865 16.926C94.8865 17.2527 94.8725 17.57 94.8445 17.878H89.7485C89.8325 18.5593 90.0705 19.0913 90.4625 19.474C90.8545 19.8567 91.3725 20.048 92.0165 20.048C92.4365 20.048 92.8145 20.006 93.1505 19.922C93.4865 19.8287 93.8085 19.712 94.1165 19.572L94.4105 20.65C94.0745 20.7993 93.6965 20.9207 93.2765 21.014C92.8565 21.1167 92.3851 21.168 91.8625 21.168ZM89.7345 16.856H93.7245C93.7245 16.1467 93.5471 15.6007 93.1925 15.218C92.8378 14.8353 92.3478 14.644 91.7225 14.644C91.1811 14.644 90.7331 14.8353 90.3785 15.218C90.0238 15.5913 89.8091 16.1373 89.7345 16.856ZM101.503 21V11.2H102.833V21H101.503ZM108.458 21.168C107.768 21.168 107.161 21.0093 106.638 20.692C106.125 20.3653 105.728 19.9173 105.448 19.348C105.168 18.7693 105.028 18.1067 105.028 17.36C105.028 16.66 105.168 16.0207 105.448 15.442C105.738 14.8633 106.148 14.406 106.68 14.07C107.212 13.7247 107.838 13.552 108.556 13.552C108.967 13.552 109.326 13.5893 109.634 13.664C109.952 13.7387 110.255 13.846 110.544 13.986L110.166 15.05C109.905 14.9193 109.653 14.826 109.41 14.77C109.177 14.7047 108.916 14.672 108.626 14.672C107.973 14.672 107.422 14.91 106.974 15.386C106.536 15.8527 106.316 16.5013 106.316 17.332C106.316 17.836 106.41 18.2933 106.596 18.704C106.783 19.1147 107.04 19.4413 107.366 19.684C107.702 19.9267 108.094 20.048 108.542 20.048C108.897 20.048 109.2 20.0107 109.452 19.936C109.704 19.852 109.975 19.7353 110.264 19.586L110.656 20.65C110.367 20.8087 110.04 20.9347 109.676 21.028C109.322 21.1213 108.916 21.168 108.458 21.168ZM115.071 21.168C114.465 21.168 113.914 21.014 113.419 20.706C112.925 20.398 112.528 19.964 112.229 19.404C111.94 18.8347 111.795 18.1673 111.795 17.402C111.795 16.674 111.94 16.0207 112.229 15.442C112.528 14.8633 112.934 14.406 113.447 14.07C113.97 13.7247 114.567 13.552 115.239 13.552C115.659 13.552 116.037 13.6267 116.373 13.776C116.719 13.916 117.017 14.0933 117.269 14.308V13.72H118.417V19.236C118.417 19.5907 118.501 19.824 118.669 19.936C118.847 20.0387 119.038 20.09 119.243 20.09L118.977 21.07C118.081 21.07 117.54 20.706 117.353 19.978C117.139 20.2767 116.845 20.552 116.471 20.804C116.107 21.0467 115.641 21.168 115.071 21.168ZM115.351 20.048C115.706 20.048 116.042 19.964 116.359 19.796C116.677 19.6187 116.943 19.3993 117.157 19.138V15.232C116.905 15.0547 116.625 14.9147 116.317 14.812C116.019 14.7 115.701 14.644 115.365 14.644C114.917 14.644 114.521 14.7607 114.175 14.994C113.839 15.218 113.573 15.5353 113.377 15.946C113.181 16.3473 113.083 16.8187 113.083 17.36C113.083 17.8827 113.181 18.3493 113.377 18.76C113.573 19.1613 113.844 19.4787 114.189 19.712C114.535 19.936 114.922 20.048 115.351 20.048ZM121.226 21V13.72H122.444V15.302C122.565 14.994 122.729 14.7093 122.934 14.448C123.139 14.1773 123.396 13.9627 123.704 13.804C124.012 13.636 124.371 13.552 124.782 13.552C124.922 13.552 125.062 13.5613 125.202 13.58C125.342 13.5893 125.459 13.608 125.552 13.636L125.174 14.938C124.997 14.8633 124.787 14.826 124.544 14.826C124.199 14.826 123.867 14.924 123.55 15.12C123.242 15.316 122.985 15.6193 122.78 16.03C122.584 16.4407 122.486 16.9633 122.486 17.598V21H121.226ZM129.48 21.168C128.873 21.168 128.322 21.014 127.828 20.706C127.333 20.398 126.936 19.964 126.638 19.404C126.348 18.8347 126.204 18.1673 126.204 17.402C126.204 16.674 126.348 16.0207 126.638 15.442C126.936 14.8633 127.342 14.406 127.856 14.07C128.378 13.7247 128.976 13.552 129.648 13.552C130.068 13.552 130.446 13.6267 130.782 13.776C131.127 13.916 131.426 14.0933 131.678 14.308V13.72H132.826V19.236C132.826 19.5907 132.91 19.824 133.078 19.936C133.255 20.0387 133.446 20.09 133.652 20.09L133.386 21.07C132.49 21.07 131.948 20.706 131.762 19.978C131.547 20.2767 131.253 20.552 130.88 20.804C130.516 21.0467 130.049 21.168 129.48 21.168ZM129.76 20.048C130.114 20.048 130.45 19.964 130.768 19.796C131.085 19.6187 131.351 19.3993 131.566 19.138V15.232C131.314 15.0547 131.034 14.9147 130.726 14.812C130.427 14.7 130.11 14.644 129.774 14.644C129.326 14.644 128.929 14.7607 128.584 14.994C128.248 15.218 127.982 15.5353 127.786 15.946C127.59 16.3473 127.492 16.8187 127.492 17.36C127.492 17.8827 127.59 18.3493 127.786 18.76C127.982 19.1613 128.252 19.4787 128.598 19.712C128.943 19.936 129.33 20.048 129.76 20.048ZM135.634 21V13.72H136.894V21H135.634ZM135.074 12.95L134.64 12.096L137.286 10.346L137.874 11.522L135.074 12.95Z" fill="#015486"/>
<path d="M44.43 31.07C44.43 31.65 44.23 32.1333 43.83 32.52C43.4367 32.9 42.8333 33.09 42.02 33.09H40.68V36H39.77V29.03H42.02C42.8067 29.03 43.4033 29.22 43.81 29.6C44.2233 29.98 44.43 30.47 44.43 31.07ZM42.02 32.34C42.5267 32.34 42.9 32.23 43.14 32.01C43.38 31.79 43.5 31.4767 43.5 31.07C43.5 30.21 43.0067 29.78 42.02 29.78H40.68V32.34H42.02ZM50.861 33.05C50.861 33.2233 50.851 33.4067 50.831 33.6H46.451C46.4843 34.14 46.6677 34.5633 47.001 34.87C47.341 35.17 47.751 35.32 48.231 35.32C48.6243 35.32 48.951 35.23 49.211 35.05C49.4777 34.8633 49.6643 34.6167 49.771 34.31H50.751C50.6043 34.8367 50.311 35.2667 49.871 35.6C49.431 35.9267 48.8843 36.09 48.231 36.09C47.711 36.09 47.2443 35.9733 46.831 35.74C46.4243 35.5067 46.1043 35.1767 45.871 34.75C45.6377 34.3167 45.521 33.8167 45.521 33.25C45.521 32.6833 45.6343 32.1867 45.861 31.76C46.0877 31.3333 46.4043 31.0067 46.811 30.78C47.2243 30.5467 47.6977 30.43 48.231 30.43C48.751 30.43 49.211 30.5433 49.611 30.77C50.011 30.9967 50.3177 31.31 50.531 31.71C50.751 32.1033 50.861 32.55 50.861 33.05ZM49.921 32.86C49.921 32.5133 49.8443 32.2167 49.691 31.97C49.5377 31.7167 49.3277 31.5267 49.061 31.4C48.801 31.2667 48.511 31.2 48.191 31.2C47.731 31.2 47.3377 31.3467 47.011 31.64C46.691 31.9333 46.5077 32.34 46.461 32.86H49.921ZM52.0222 33.24C52.0222 32.68 52.1355 32.19 52.3622 31.77C52.5889 31.3433 52.8989 31.0133 53.2922 30.78C53.6922 30.5467 54.1389 30.43 54.6322 30.43C55.0589 30.43 55.4555 30.53 55.8222 30.73C56.1889 30.9233 56.4689 31.18 56.6622 31.5V28.6H57.5822V36H56.6622V34.97C56.4822 35.2967 56.2155 35.5667 55.8622 35.78C55.5089 35.9867 55.0955 36.09 54.6222 36.09C54.1355 36.09 53.6922 35.97 53.2922 35.73C52.8989 35.49 52.5889 35.1533 52.3622 34.72C52.1355 34.2867 52.0222 33.7933 52.0222 33.24ZM56.6622 33.25C56.6622 32.8367 56.5789 32.4767 56.4122 32.17C56.2455 31.8633 56.0189 31.63 55.7322 31.47C55.4522 31.3033 55.1422 31.22 54.8022 31.22C54.4622 31.22 54.1522 31.3 53.8722 31.46C53.5922 31.62 53.3689 31.8533 53.2022 32.16C53.0355 32.4667 52.9522 32.8267 52.9522 33.24C52.9522 33.66 53.0355 34.0267 53.2022 34.34C53.3689 34.6467 53.5922 34.8833 53.8722 35.05C54.1522 35.21 54.4622 35.29 54.8022 35.29C55.1422 35.29 55.4522 35.21 55.7322 35.05C56.0189 34.8833 56.2455 34.6467 56.4122 34.34C56.5789 34.0267 56.6622 33.6633 56.6622 33.25ZM60.33 31.41C60.49 31.0967 60.7167 30.8533 61.01 30.68C61.31 30.5067 61.6733 30.42 62.1 30.42V31.36H61.86C60.84 31.36 60.33 31.9133 60.33 33.02V36H59.42V30.52H60.33V31.41ZM63.1105 33.24C63.1105 32.68 63.2238 32.19 63.4505 31.77C63.6771 31.3433 63.9871 31.0133 64.3805 30.78C64.7805 30.5467 65.2238 30.43 65.7105 30.43C66.1905 30.43 66.6071 30.5333 66.9605 30.74C67.3138 30.9467 67.5771 31.2067 67.7505 31.52V30.52H68.6705V36H67.7505V34.98C67.5705 35.3 67.3005 35.5667 66.9405 35.78C66.5871 35.9867 66.1738 36.09 65.7005 36.09C65.2138 36.09 64.7738 35.97 64.3805 35.73C63.9871 35.49 63.6771 35.1533 63.4505 34.72C63.2238 34.2867 63.1105 33.7933 63.1105 33.24ZM67.7505 33.25C67.7505 32.8367 67.6671 32.4767 67.5005 32.17C67.3338 31.8633 67.1071 31.63 66.8205 31.47C66.5405 31.3033 66.2305 31.22 65.8905 31.22C65.5505 31.22 65.2405 31.3 64.9605 31.46C64.6805 31.62 64.4571 31.8533 64.2905 32.16C64.1238 32.4667 64.0405 32.8267 64.0405 33.24C64.0405 33.66 64.1238 34.0267 64.2905 34.34C64.4571 34.6467 64.6805 34.8833 64.9605 35.05C65.2405 35.21 65.5505 35.29 65.8905 35.29C66.2305 35.29 66.5405 35.21 66.8205 35.05C67.1071 34.8833 67.3338 34.6467 67.5005 34.34C67.6671 34.0267 67.7505 33.6633 67.7505 33.25ZM73.1343 33.24C73.1343 32.68 73.2476 32.19 73.4743 31.77C73.701 31.3433 74.011 31.0133 74.4043 30.78C74.8043 30.5467 75.251 30.43 75.7443 30.43C76.171 30.43 76.5676 30.53 76.9343 30.73C77.301 30.9233 77.581 31.18 77.7743 31.5V28.6H78.6943V36H77.7743V34.97C77.5943 35.2967 77.3276 35.5667 76.9743 35.78C76.621 35.9867 76.2076 36.09 75.7343 36.09C75.2476 36.09 74.8043 35.97 74.4043 35.73C74.011 35.49 73.701 35.1533 73.4743 34.72C73.2476 34.2867 73.1343 33.7933 73.1343 33.24ZM77.7743 33.25C77.7743 32.8367 77.691 32.4767 77.5243 32.17C77.3576 31.8633 77.131 31.63 76.8443 31.47C76.5643 31.3033 76.2543 31.22 75.9143 31.22C75.5743 31.22 75.2643 31.3 74.9843 31.46C74.7043 31.62 74.481 31.8533 74.3143 32.16C74.1476 32.4667 74.0643 32.8267 74.0643 33.24C74.0643 33.66 74.1476 34.0267 74.3143 34.34C74.481 34.6467 74.7043 34.8833 74.9843 35.05C75.2643 35.21 75.5743 35.29 75.9143 35.29C76.2543 35.29 76.5643 35.21 76.8443 35.05C77.131 34.8833 77.3576 34.6467 77.5243 34.34C77.691 34.0267 77.7743 33.6633 77.7743 33.25ZM85.5321 33.05C85.5321 33.2233 85.5221 33.4067 85.5021 33.6H81.1221C81.1554 34.14 81.3388 34.5633 81.6721 34.87C82.0121 35.17 82.4221 35.32 82.9021 35.32C83.2954 35.32 83.6221 35.23 83.8821 35.05C84.1488 34.8633 84.3354 34.6167 84.4421 34.31H85.4221C85.2754 34.8367 84.9821 35.2667 84.5421 35.6C84.1021 35.9267 83.5554 36.09 82.9021 36.09C82.3821 36.09 81.9154 35.9733 81.5021 35.74C81.0954 35.5067 80.7754 35.1767 80.5421 34.75C80.3088 34.3167 80.1921 33.8167 80.1921 33.25C80.1921 32.6833 80.3054 32.1867 80.5321 31.76C80.7588 31.3333 81.0754 31.0067 81.4821 30.78C81.8954 30.5467 82.3688 30.43 82.9021 30.43C83.4221 30.43 83.8821 30.5433 84.2821 30.77C84.6821 30.9967 84.9888 31.31 85.2021 31.71C85.4221 32.1033 85.5321 32.55 85.5321 33.05ZM84.5921 32.86C84.5921 32.5133 84.5154 32.2167 84.3621 31.97C84.2088 31.7167 83.9988 31.5267 83.7321 31.4C83.4721 31.2667 83.1821 31.2 82.8621 31.2C82.4021 31.2 82.0088 31.3467 81.6821 31.64C81.3621 31.9333 81.1788 32.34 81.1321 32.86H84.5921ZM90.9093 29.03V36H89.9993V29.03H90.9093ZM93.8702 31.27V34.5C93.8702 34.7667 93.9269 34.9567 94.0402 35.07C94.1536 35.1767 94.3502 35.23 94.6302 35.23H95.3002V36H94.4802C93.9736 36 93.5936 35.8833 93.3402 35.65C93.0869 35.4167 92.9602 35.0333 92.9602 34.5V31.27H92.2502V30.52H92.9602V29.14H93.8702V30.52H95.3002V31.27H93.8702ZM96.3628 33.24C96.3628 32.68 96.4761 32.19 96.7028 31.77C96.9295 31.3433 97.2395 31.0133 97.6328 30.78C98.0328 30.5467 98.4761 30.43 98.9628 30.43C99.4428 30.43 99.8595 30.5333 100.213 30.74C100.566 30.9467 100.829 31.2067 101.003 31.52V30.52H101.923V36H101.003V34.98C100.823 35.3 100.553 35.5667 100.193 35.78C99.8395 35.9867 99.4261 36.09 98.9528 36.09C98.4661 36.09 98.0261 35.97 97.6328 35.73C97.2395 35.49 96.9295 35.1533 96.7028 34.72C96.4761 34.2867 96.3628 33.7933 96.3628 33.24ZM101.003 33.25C101.003 32.8367 100.919 32.4767 100.753 32.17C100.586 31.8633 100.359 31.63 100.073 31.47C99.7928 31.3033 99.4828 31.22 99.1428 31.22C98.8028 31.22 98.4928 31.3 98.2128 31.46C97.9328 31.62 97.7095 31.8533 97.5428 32.16C97.3761 32.4667 97.2928 32.8267 97.2928 33.24C97.2928 33.66 97.3761 34.0267 97.5428 34.34C97.7095 34.6467 97.9328 34.8833 98.2128 35.05C98.4928 35.21 98.8028 35.29 99.1428 35.29C99.4828 35.29 99.7928 35.21 100.073 35.05C100.359 34.8833 100.586 34.6467 100.753 34.34C100.919 34.0267 101.003 33.6633 101.003 33.25ZM104.671 31.53C104.851 31.2167 105.117 30.9567 105.471 30.75C105.831 30.5367 106.247 30.43 106.721 30.43C107.207 30.43 107.647 30.5467 108.041 30.78C108.441 31.0133 108.754 31.3433 108.981 31.77C109.207 32.19 109.321 32.68 109.321 33.24C109.321 33.7933 109.207 34.2867 108.981 34.72C108.754 35.1533 108.441 35.49 108.041 35.73C107.647 35.97 107.207 36.09 106.721 36.09C106.254 36.09 105.841 35.9867 105.481 35.78C105.127 35.5667 104.857 35.3033 104.671 34.99V38.6H103.761V30.52H104.671V31.53ZM108.391 33.24C108.391 32.8267 108.307 32.4667 108.141 32.16C107.974 31.8533 107.747 31.62 107.461 31.46C107.181 31.3 106.871 31.22 106.531 31.22C106.197 31.22 105.887 31.3033 105.601 31.47C105.321 31.63 105.094 31.8667 104.921 32.18C104.754 32.4867 104.671 32.8433 104.671 33.25C104.671 33.6633 104.754 34.0267 104.921 34.34C105.094 34.6467 105.321 34.8833 105.601 35.05C105.887 35.21 106.197 35.29 106.531 35.29C106.871 35.29 107.181 35.21 107.461 35.05C107.747 34.8833 107.974 34.6467 108.141 34.34C108.307 34.0267 108.391 33.66 108.391 33.24ZM115.678 30.52V36H114.768V35.19C114.595 35.47 114.352 35.69 114.038 35.85C113.732 36.0033 113.392 36.08 113.018 36.08C112.592 36.08 112.208 35.9933 111.868 35.82C111.528 35.64 111.258 35.3733 111.058 35.02C110.865 34.6667 110.768 34.2367 110.768 33.73V30.52H111.668V33.61C111.668 34.15 111.805 34.5667 112.078 34.86C112.352 35.1467 112.725 35.29 113.198 35.29C113.685 35.29 114.068 35.14 114.348 34.84C114.628 34.54 114.768 34.1033 114.768 33.53V30.52H115.678ZM117.175 33.25C117.175 32.6833 117.288 32.19 117.515 31.77C117.742 31.3433 118.055 31.0133 118.455 30.78C118.862 30.5467 119.325 30.43 119.845 30.43C120.518 30.43 121.072 30.5933 121.505 30.92C121.945 31.2467 122.235 31.7 122.375 32.28H121.395C121.302 31.9467 121.118 31.6833 120.845 31.49C120.578 31.2967 120.245 31.2 119.845 31.2C119.325 31.2 118.905 31.38 118.585 31.74C118.265 32.0933 118.105 32.5967 118.105 33.25C118.105 33.91 118.265 34.42 118.585 34.78C118.905 35.14 119.325 35.32 119.845 35.32C120.245 35.32 120.578 35.2267 120.845 35.04C121.112 34.8533 121.295 34.5867 121.395 34.24H122.375C122.228 34.8 121.935 35.25 121.495 35.59C121.055 35.9233 120.505 36.09 119.845 36.09C119.325 36.09 118.862 35.9733 118.455 35.74C118.055 35.5067 117.742 35.1767 117.515 34.75C117.288 34.3233 117.175 33.8233 117.175 33.25ZM123.549 33.24C123.549 32.68 123.662 32.19 123.889 31.77C124.116 31.3433 124.426 31.0133 124.819 30.78C125.219 30.5467 125.662 30.43 126.149 30.43C126.629 30.43 127.046 30.5333 127.399 30.74C127.752 30.9467 128.016 31.2067 128.189 31.52V30.52H129.109V36H128.189V34.98C128.009 35.3 127.739 35.5667 127.379 35.78C127.026 35.9867 126.612 36.09 126.139 36.09C125.652 36.09 125.212 35.97 124.819 35.73C124.426 35.49 124.116 35.1533 123.889 34.72C123.662 34.2867 123.549 33.7933 123.549 33.24ZM128.189 33.25C128.189 32.8367 128.106 32.4767 127.939 32.17C127.772 31.8633 127.546 31.63 127.259 31.47C126.979 31.3033 126.669 31.22 126.329 31.22C125.989 31.22 125.679 31.3 125.399 31.46C125.119 31.62 124.896 31.8533 124.729 32.16C124.562 32.4667 124.479 32.8267 124.479 33.24C124.479 33.66 124.562 34.0267 124.729 34.34C124.896 34.6467 125.119 34.8833 125.399 35.05C125.679 35.21 125.989 35.29 126.329 35.29C126.669 35.29 126.979 35.21 127.259 35.05C127.546 34.8833 127.772 34.6467 127.939 34.34C128.106 34.0267 128.189 33.6633 128.189 33.25Z" fill="#98A4AE"/>
<path d="M73.9434 45.5L108.058 45.5L91.001 68.3301L73.9434 45.5Z" fill="white" stroke="#015486" stroke-width="2"/>
<path d="M91 65L71.0814 41L110.919 41L91 65Z" fill="white"/>
<path d="M31.155 11.978C30.2796 11.4725 29.3132 11.1443 28.311 11.0123C27.3088 10.8803 26.2904 10.947 25.314 11.2086C24.3376 11.4702 23.4223 11.9215 22.6203 12.5369C21.8183 13.1523 21.1454 13.9196 20.64 14.795L20.35 15.297C20.2507 15.4693 20.2239 15.6739 20.2755 15.8659C20.3271 16.0579 20.4528 16.2216 20.625 16.321L26.086 19.474L22.818 25.194L22.75 25.193C19.592 25.193 16.857 27.025 15.228 29.615C15.5062 29.5166 15.8027 29.481 16.0963 29.5108C16.3898 29.5405 16.6732 29.6348 16.926 29.787C18.338 27.921 20.444 26.693 22.75 26.693C25.154 26.693 27.341 28.028 28.75 30.029C28.9448 29.8497 29.1733 29.7109 29.4222 29.6206C29.6711 29.5303 29.9355 29.4903 30.2 29.503C28.869 27.445 26.833 25.883 24.444 25.372L27.385 20.224L32.658 23.269C32.7433 23.3183 32.8376 23.3503 32.9353 23.3631C33.033 23.376 33.1323 23.3695 33.2275 23.3439C33.3227 23.3184 33.4119 23.2743 33.4901 23.2143C33.5682 23.1543 33.6338 23.0794 33.683 22.994L33.973 22.493C34.4785 21.6176 34.8065 20.6511 34.9385 19.6489C35.0704 18.6466 35.0036 17.6282 34.742 16.6518C34.4803 15.6754 34.0288 14.7601 33.4134 13.9581C32.7979 13.1562 32.0305 12.4833 31.155 11.978ZM28.965 19.404L25.807 17.58C26.379 16.699 26.923 16.028 27.575 15.435C28.21 14.857 28.968 14.335 29.996 13.767C30.148 14.722 30.194 15.517 30.096 16.297C29.98 17.229 29.651 18.19 28.963 19.403M30.261 20.153C31.021 18.815 31.437 17.663 31.584 16.483C31.681 15.709 31.659 14.945 31.562 14.138C32.5536 15.0759 33.208 16.3148 33.4237 17.6625C33.6394 19.0102 33.4043 20.3915 32.755 21.592L30.261 20.153ZM26.565 14.325C25.775 15.044 25.14 15.844 24.505 16.829L22.025 15.397C22.7247 14.2594 23.773 13.3782 25.014 12.8845C26.2549 12.3908 27.6221 12.311 28.912 12.657C27.983 13.192 27.227 13.722 26.565 14.325ZM16.605 31.263C16.5536 31.1087 16.4535 30.9752 16.3197 30.8828C16.1859 30.7903 16.0257 30.7439 15.8632 30.7504C15.7007 30.757 15.5447 30.8162 15.4188 30.9191C15.2928 31.022 15.2038 31.163 15.165 31.321C14.91 32.363 14.427 32.935 13.877 33.267C13.301 33.615 12.567 33.749 11.748 33.749C11.5491 33.749 11.3583 33.828 11.2177 33.9687C11.077 34.1093 10.998 34.3001 10.998 34.499C10.998 34.6979 11.077 34.8887 11.2177 35.0293C11.3583 35.17 11.5491 35.249 11.748 35.249C12.705 35.249 13.748 35.097 14.652 34.551C15.1912 34.2252 15.6459 33.7767 15.979 33.242C17.768 35.524 21.261 35.512 22.998 33.218C24.763 35.548 28.338 35.524 30.101 33.132C30.5796 33.7834 31.2038 34.3141 31.9238 34.6816C32.6437 35.0492 33.4396 35.2435 34.248 35.249C34.4469 35.249 34.6377 35.17 34.7783 35.0293C34.919 34.8887 34.998 34.6979 34.998 34.499C34.998 34.3001 34.919 34.1093 34.7783 33.9687C34.6377 33.828 34.4469 33.749 34.248 33.749C32.773 33.749 31.303 32.789 30.818 31.271C30.77 31.1199 30.6754 30.9879 30.5477 30.894C30.42 30.8001 30.2659 30.749 30.1074 30.7481C29.9489 30.7472 29.7942 30.7965 29.6655 30.8891C29.5368 30.9816 29.4407 31.1125 29.391 31.263C28.428 34.172 24.653 34.135 23.707 31.384C23.6561 31.2364 23.5604 31.1085 23.4333 31.0179C23.3062 30.9273 23.1541 30.8786 22.998 30.8786C22.8419 30.8786 22.6897 30.9273 22.5626 31.0179C22.4355 31.1085 22.3399 31.2364 22.289 31.384C21.343 34.135 17.569 34.171 16.605 31.263Z" fill="#015486"/>
<defs>
<linearGradient id="paint0_linear_294_271" x1="179.069" y1="0.748829" x2="-69.2821" y2="206.234" gradientUnits="userSpaceOnUse">
<stop stop-color="white"/>
</linearGradient>
</defs>
</svg>
