<svg width="181" height="70" viewBox="0 0 181 70" fill="none" xmlns="http://www.w3.org/2000/svg">
<path d="M20 1H161C171.493 1 180 9.50659 180 20V26C180 36.4934 171.493 45 161 45H20C9.50659 45 1 36.4934 1 26V20C1 9.50659 9.50659 1 20 1Z" fill="url(#paint0_linear_294_299)" stroke="#015486" stroke-width="2"/>
<path d="M40.26 21V11.228C40.6427 11.1813 41.0627 11.1487 41.52 11.13C41.9867 11.102 42.4673 11.088 42.962 11.088C43.774 11.088 44.4647 11.2187 45.034 11.48C45.6033 11.732 46.0373 12.082 46.336 12.53C46.6347 12.978 46.784 13.4913 46.784 14.07C46.784 14.77 46.6113 15.3627 46.266 15.848C45.9207 16.3333 45.44 16.7067 44.824 16.968C44.208 17.22 43.494 17.346 42.682 17.346C42.29 17.346 41.926 17.332 41.59 17.304V21H40.26ZM42.85 16.24C43.6807 16.24 44.3247 16.0533 44.782 15.68C45.2393 15.3067 45.468 14.8073 45.468 14.182C45.468 13.5753 45.2487 13.0947 44.81 12.74C44.3713 12.3853 43.746 12.208 42.934 12.208C42.682 12.208 42.444 12.2127 42.22 12.222C41.996 12.2313 41.786 12.2453 41.59 12.264V16.17C41.7393 16.1887 41.9213 16.2073 42.136 16.226C42.3507 16.2353 42.5887 16.24 42.85 16.24ZM48.5548 21V13.72H49.7728V15.302C49.8941 14.994 50.0574 14.7093 50.2628 14.448C50.4681 14.1773 50.7248 13.9627 51.0328 13.804C51.3408 13.636 51.7001 13.552 52.1108 13.552C52.2508 13.552 52.3908 13.5613 52.5308 13.58C52.6708 13.5893 52.7874 13.608 52.8808 13.636L52.5028 14.938C52.3254 14.8633 52.1154 14.826 51.8728 14.826C51.5274 14.826 51.1961 14.924 50.8788 15.12C50.5708 15.316 50.3141 15.6193 50.1088 16.03C49.9128 16.4407 49.8148 16.9633 49.8148 17.598V21H48.5548ZM56.8087 21.168C56.2021 21.168 55.6514 21.014 55.1567 20.706C54.6621 20.398 54.2654 19.964 53.9667 19.404C53.6774 18.8347 53.5327 18.1673 53.5327 17.402C53.5327 16.674 53.6774 16.0207 53.9667 15.442C54.2654 14.8633 54.6714 14.406 55.1847 14.07C55.7074 13.7247 56.3047 13.552 56.9767 13.552C57.3967 13.552 57.7747 13.6267 58.1107 13.776C58.4561 13.916 58.7547 14.0933 59.0067 14.308V13.72H60.1547V19.236C60.1547 19.5907 60.2387 19.824 60.4067 19.936C60.5841 20.0387 60.7754 20.09 60.9807 20.09L60.7147 21.07C59.8187 21.07 59.2774 20.706 59.0907 19.978C58.8761 20.2767 58.5821 20.552 58.2087 20.804C57.8447 21.0467 57.3781 21.168 56.8087 21.168ZM57.0887 20.048C57.4434 20.048 57.7794 19.964 58.0967 19.796C58.4141 19.6187 58.6801 19.3993 58.8947 19.138V15.232C58.6427 15.0547 58.3627 14.9147 58.0547 14.812C57.7561 14.7 57.4387 14.644 57.1027 14.644C56.6547 14.644 56.2581 14.7607 55.9127 14.994C55.5767 15.218 55.3107 15.5353 55.1147 15.946C54.9187 16.3473 54.8207 16.8187 54.8207 17.36C54.8207 17.8827 54.9187 18.3493 55.1147 18.76C55.3107 19.1613 55.5814 19.4787 55.9267 19.712C56.2721 19.936 56.6594 20.048 57.0887 20.048ZM62.9634 21V13.72H64.2234V21H62.9634ZM63.5934 12.474C63.3507 12.474 63.1407 12.3853 62.9634 12.208C62.7954 12.0307 62.7114 11.8253 62.7114 11.592C62.7114 11.3213 62.7907 11.1067 62.9494 10.948C63.108 10.7893 63.3227 10.71 63.5934 10.71C63.836 10.71 64.0414 10.7987 64.2094 10.976C64.3867 11.144 64.4754 11.3493 64.4754 11.592C64.4754 11.8533 64.396 12.068 64.2374 12.236C64.0787 12.3947 63.864 12.474 63.5934 12.474ZM69.5494 21.168C68.9427 21.168 68.392 21.014 67.8974 20.706C67.4027 20.398 67.006 19.964 66.7074 19.404C66.418 18.8347 66.2734 18.1673 66.2734 17.402C66.2734 16.674 66.418 16.0207 66.7074 15.442C67.006 14.8633 67.412 14.406 67.9254 14.07C68.448 13.7247 69.0454 13.552 69.7174 13.552C70.1374 13.552 70.5154 13.6267 70.8514 13.776C71.1967 13.916 71.4954 14.0933 71.7474 14.308V13.72H72.8954V19.236C72.8954 19.5907 72.9794 19.824 73.1474 19.936C73.3247 20.0387 73.516 20.09 73.7214 20.09L73.4554 21.07C72.5594 21.07 72.018 20.706 71.8314 19.978C71.6167 20.2767 71.3227 20.552 70.9494 20.804C70.5854 21.0467 70.1187 21.168 69.5494 21.168ZM69.8294 20.048C70.184 20.048 70.52 19.964 70.8374 19.796C71.1547 19.6187 71.4207 19.3993 71.6354 19.138V15.232C71.3834 15.0547 71.1034 14.9147 70.7954 14.812C70.4967 14.7 70.1794 14.644 69.8434 14.644C69.3954 14.644 68.9987 14.7607 68.6534 14.994C68.3174 15.218 68.0514 15.5353 67.8554 15.946C67.6594 16.3473 67.5614 16.8187 67.5614 17.36C67.5614 17.8827 67.6594 18.3493 67.8554 18.76C68.0514 19.1613 68.322 19.4787 68.6674 19.712C69.0127 19.936 69.4 20.048 69.8294 20.048ZM82.9592 21.168C82.3619 21.168 81.8159 21.014 81.3212 20.706C80.8266 20.398 80.4346 19.964 80.1452 19.404C79.8559 18.8347 79.7112 18.1673 79.7112 17.402C79.7112 16.6647 79.8559 16.0067 80.1452 15.428C80.4439 14.8493 80.8359 14.392 81.3212 14.056C81.8159 13.72 82.3572 13.552 82.9452 13.552C83.4306 13.552 83.8459 13.65 84.1912 13.846C84.5459 14.042 84.8212 14.2427 85.0172 14.448V10.64H86.2772V19.236C86.2772 19.5907 86.3612 19.824 86.5292 19.936C86.7066 20.0387 86.8979 20.09 87.1032 20.09L86.8372 21.07C85.9506 21.07 85.4092 20.7153 85.2132 20.006C85.0079 20.2953 84.7186 20.5613 84.3452 20.804C83.9812 21.0467 83.5192 21.168 82.9592 21.168ZM83.2392 20.048C83.5846 20.048 83.9112 19.9687 84.2192 19.81C84.5366 19.642 84.8026 19.4273 85.0172 19.166V15.554C84.8399 15.33 84.5926 15.1247 84.2752 14.938C83.9579 14.742 83.6079 14.644 83.2252 14.644C82.7772 14.644 82.3852 14.7653 82.0492 15.008C81.7132 15.2507 81.4519 15.5773 81.2652 15.988C81.0879 16.3893 80.9992 16.8467 80.9992 17.36C80.9992 17.8733 81.0972 18.3353 81.2932 18.746C81.4892 19.1473 81.7552 19.4647 82.0912 19.698C82.4366 19.9313 82.8192 20.048 83.2392 20.048ZM91.8625 21.168C90.8171 21.168 89.9865 20.8367 89.3705 20.174C88.7638 19.502 88.4605 18.564 88.4605 17.36C88.4605 16.632 88.5958 15.9833 88.8665 15.414C89.1465 14.8353 89.5338 14.3827 90.0285 14.056C90.5231 13.72 91.0971 13.552 91.7505 13.552C92.4505 13.552 93.0291 13.706 93.4865 14.014C93.9531 14.3127 94.3031 14.7187 94.5365 15.232C94.7698 15.7453 94.8865 16.31 94.8865 16.926C94.8865 17.2527 94.8725 17.57 94.8445 17.878H89.7485C89.8325 18.5593 90.0705 19.0913 90.4625 19.474C90.8545 19.8567 91.3725 20.048 92.0165 20.048C92.4365 20.048 92.8145 20.006 93.1505 19.922C93.4865 19.8287 93.8085 19.712 94.1165 19.572L94.4105 20.65C94.0745 20.7993 93.6965 20.9207 93.2765 21.014C92.8565 21.1167 92.3851 21.168 91.8625 21.168ZM89.7345 16.856H93.7245C93.7245 16.1467 93.5471 15.6007 93.1925 15.218C92.8378 14.8353 92.3478 14.644 91.7225 14.644C91.1811 14.644 90.7331 14.8353 90.3785 15.218C90.0238 15.5913 89.8091 16.1373 89.7345 16.856ZM101.503 21V11.2H102.833V21H101.503ZM108.458 21.168C107.768 21.168 107.161 21.0093 106.638 20.692C106.125 20.3653 105.728 19.9173 105.448 19.348C105.168 18.7693 105.028 18.1067 105.028 17.36C105.028 16.66 105.168 16.0207 105.448 15.442C105.738 14.8633 106.148 14.406 106.68 14.07C107.212 13.7247 107.838 13.552 108.556 13.552C108.967 13.552 109.326 13.5893 109.634 13.664C109.952 13.7387 110.255 13.846 110.544 13.986L110.166 15.05C109.905 14.9193 109.653 14.826 109.41 14.77C109.177 14.7047 108.916 14.672 108.626 14.672C107.973 14.672 107.422 14.91 106.974 15.386C106.536 15.8527 106.316 16.5013 106.316 17.332C106.316 17.836 106.41 18.2933 106.596 18.704C106.783 19.1147 107.04 19.4413 107.366 19.684C107.702 19.9267 108.094 20.048 108.542 20.048C108.897 20.048 109.2 20.0107 109.452 19.936C109.704 19.852 109.975 19.7353 110.264 19.586L110.656 20.65C110.367 20.8087 110.04 20.9347 109.676 21.028C109.322 21.1213 108.916 21.168 108.458 21.168ZM115.071 21.168C114.465 21.168 113.914 21.014 113.419 20.706C112.925 20.398 112.528 19.964 112.229 19.404C111.94 18.8347 111.795 18.1673 111.795 17.402C111.795 16.674 111.94 16.0207 112.229 15.442C112.528 14.8633 112.934 14.406 113.447 14.07C113.97 13.7247 114.567 13.552 115.239 13.552C115.659 13.552 116.037 13.6267 116.373 13.776C116.719 13.916 117.017 14.0933 117.269 14.308V13.72H118.417V19.236C118.417 19.5907 118.501 19.824 118.669 19.936C118.847 20.0387 119.038 20.09 119.243 20.09L118.977 21.07C118.081 21.07 117.54 20.706 117.353 19.978C117.139 20.2767 116.845 20.552 116.471 20.804C116.107 21.0467 115.641 21.168 115.071 21.168ZM115.351 20.048C115.706 20.048 116.042 19.964 116.359 19.796C116.677 19.6187 116.943 19.3993 117.157 19.138V15.232C116.905 15.0547 116.625 14.9147 116.317 14.812C116.019 14.7 115.701 14.644 115.365 14.644C114.917 14.644 114.521 14.7607 114.175 14.994C113.839 15.218 113.573 15.5353 113.377 15.946C113.181 16.3473 113.083 16.8187 113.083 17.36C113.083 17.8827 113.181 18.3493 113.377 18.76C113.573 19.1613 113.844 19.4787 114.189 19.712C114.535 19.936 114.922 20.048 115.351 20.048ZM121.226 21V13.72H122.444V15.302C122.565 14.994 122.729 14.7093 122.934 14.448C123.139 14.1773 123.396 13.9627 123.704 13.804C124.012 13.636 124.371 13.552 124.782 13.552C124.922 13.552 125.062 13.5613 125.202 13.58C125.342 13.5893 125.459 13.608 125.552 13.636L125.174 14.938C124.997 14.8633 124.787 14.826 124.544 14.826C124.199 14.826 123.867 14.924 123.55 15.12C123.242 15.316 122.985 15.6193 122.78 16.03C122.584 16.4407 122.486 16.9633 122.486 17.598V21H121.226ZM129.48 21.168C128.873 21.168 128.322 21.014 127.828 20.706C127.333 20.398 126.936 19.964 126.638 19.404C126.348 18.8347 126.204 18.1673 126.204 17.402C126.204 16.674 126.348 16.0207 126.638 15.442C126.936 14.8633 127.342 14.406 127.856 14.07C128.378 13.7247 128.976 13.552 129.648 13.552C130.068 13.552 130.446 13.6267 130.782 13.776C131.127 13.916 131.426 14.0933 131.678 14.308V13.72H132.826V19.236C132.826 19.5907 132.91 19.824 133.078 19.936C133.255 20.0387 133.446 20.09 133.652 20.09L133.386 21.07C132.49 21.07 131.948 20.706 131.762 19.978C131.547 20.2767 131.253 20.552 130.88 20.804C130.516 21.0467 130.049 21.168 129.48 21.168ZM129.76 20.048C130.114 20.048 130.45 19.964 130.768 19.796C131.085 19.6187 131.351 19.3993 131.566 19.138V15.232C131.314 15.0547 131.034 14.9147 130.726 14.812C130.427 14.7 130.11 14.644 129.774 14.644C129.326 14.644 128.929 14.7607 128.584 14.994C128.248 15.218 127.982 15.5353 127.786 15.946C127.59 16.3473 127.492 16.8187 127.492 17.36C127.492 17.8827 127.59 18.3493 127.786 18.76C127.982 19.1613 128.252 19.4787 128.598 19.712C128.943 19.936 129.33 20.048 129.76 20.048ZM135.634 21V13.72H136.894V21H135.634ZM135.074 12.95L134.64 12.096L137.286 10.346L137.874 11.522L135.074 12.95Z" fill="#015486"/>
<path d="M43.44 36L41.78 33.15H40.68V36H39.77V29.03H42.02C42.5467 29.03 42.99 29.12 43.35 29.3C43.7167 29.48 43.99 29.7233 44.17 30.03C44.35 30.3367 44.44 30.6867 44.44 31.08C44.44 31.56 44.3 31.9833 44.02 32.35C43.7467 32.7167 43.3333 32.96 42.78 33.08L44.53 36H43.44ZM40.68 32.42H42.02C42.5133 32.42 42.8833 32.3 43.13 32.06C43.3767 31.8133 43.5 31.4867 43.5 31.08C43.5 30.6667 43.3767 30.3467 43.13 30.12C42.89 29.8933 42.52 29.78 42.02 29.78H40.68V32.42ZM51.014 30.52V36H50.104V35.19C49.9307 35.47 49.6873 35.69 49.374 35.85C49.0673 36.0033 48.7273 36.08 48.354 36.08C47.9273 36.08 47.544 35.9933 47.204 35.82C46.864 35.64 46.594 35.3733 46.394 35.02C46.2007 34.6667 46.104 34.2367 46.104 33.73V30.52H47.004V33.61C47.004 34.15 47.1407 34.5667 47.414 34.86C47.6873 35.1467 48.0607 35.29 48.534 35.29C49.0207 35.29 49.404 35.14 49.684 34.84C49.964 34.54 50.104 34.1033 50.104 33.53V30.52H51.014ZM52.5105 33.24C52.5105 32.68 52.6238 32.19 52.8505 31.77C53.0771 31.3433 53.3871 31.0133 53.7805 30.78C54.1805 30.5467 54.6238 30.43 55.1105 30.43C55.5905 30.43 56.0071 30.5333 56.3605 30.74C56.7138 30.9467 56.9771 31.2067 57.1505 31.52V30.52H58.0705V36H57.1505V34.98C56.9705 35.3 56.7005 35.5667 56.3405 35.78C55.9871 35.9867 55.5738 36.09 55.1005 36.09C54.6138 36.09 54.1738 35.97 53.7805 35.73C53.3871 35.49 53.0771 35.1533 52.8505 34.72C52.6238 34.2867 52.5105 33.7933 52.5105 33.24ZM57.1505 33.25C57.1505 32.8367 57.0671 32.4767 56.9005 32.17C56.7338 31.8633 56.5071 31.63 56.2205 31.47C55.9405 31.3033 55.6305 31.22 55.2905 31.22C54.9505 31.22 54.6405 31.3 54.3605 31.46C54.0805 31.62 53.8571 31.8533 53.6905 32.16C53.5238 32.4667 53.4405 32.8267 53.4405 33.24C53.4405 33.66 53.5238 34.0267 53.6905 34.34C53.8571 34.6467 54.0805 34.8833 54.3605 35.05C54.6405 35.21 54.9505 35.29 55.2905 35.29C55.6305 35.29 55.9405 35.21 56.2205 35.05C56.5071 34.8833 56.7338 34.6467 56.9005 34.34C57.0671 34.0267 57.1505 33.6633 57.1505 33.25ZM69.9443 29.08V36H69.0343V30.84L66.7343 36H66.0943L63.7843 30.83V36H62.8743V29.08H63.8543L66.4143 34.8L68.9743 29.08H69.9443ZM71.4476 33.24C71.4476 32.68 71.5609 32.19 71.7876 31.77C72.0142 31.3433 72.3242 31.0133 72.7176 30.78C73.1176 30.5467 73.5609 30.43 74.0476 30.43C74.5276 30.43 74.9442 30.5333 75.2976 30.74C75.6509 30.9467 75.9142 31.2067 76.0876 31.52V30.52H77.0076V36H76.0876V34.98C75.9076 35.3 75.6376 35.5667 75.2776 35.78C74.9242 35.9867 74.5109 36.09 74.0376 36.09C73.5509 36.09 73.1109 35.97 72.7176 35.73C72.3242 35.49 72.0142 35.1533 71.7876 34.72C71.5609 34.2867 71.4476 33.7933 71.4476 33.24ZM76.0876 33.25C76.0876 32.8367 76.0042 32.4767 75.8376 32.17C75.6709 31.8633 75.4442 31.63 75.1576 31.47C74.8776 31.3033 74.5676 31.22 74.2276 31.22C73.8876 31.22 73.5776 31.3 73.2976 31.46C73.0176 31.62 72.7942 31.8533 72.6276 32.16C72.4609 32.4667 72.3776 32.8267 72.3776 33.24C72.3776 33.66 72.4609 34.0267 72.6276 34.34C72.7942 34.6467 73.0176 34.8833 73.2976 35.05C73.5776 35.21 73.8876 35.29 74.2276 35.29C74.5676 35.29 74.8776 35.21 75.1576 35.05C75.4442 34.8833 75.6709 34.6467 75.8376 34.34C76.0042 34.0267 76.0876 33.6633 76.0876 33.25ZM79.7554 31.41C79.9154 31.0967 80.1421 30.8533 80.4354 30.68C80.7354 30.5067 81.0987 30.42 81.5254 30.42V31.36H81.2854C80.2654 31.36 79.7554 31.9133 79.7554 33.02V36H78.8454V30.52H79.7554V31.41ZM83.3459 29.63C83.1725 29.63 83.0259 29.57 82.9059 29.45C82.7859 29.33 82.7259 29.1833 82.7259 29.01C82.7259 28.8367 82.7859 28.69 82.9059 28.57C83.0259 28.45 83.1725 28.39 83.3459 28.39C83.5125 28.39 83.6525 28.45 83.7659 28.57C83.8859 28.69 83.9459 28.8367 83.9459 29.01C83.9459 29.1833 83.8859 29.33 83.7659 29.45C83.6525 29.57 83.5125 29.63 83.3459 29.63ZM83.7859 30.52V36H82.8759V30.52H83.7859ZM86.3168 35.25H89.0068V36H85.2768V35.25L87.9368 31.26H85.2968V30.52H88.9868V31.26L86.3168 35.25ZM98.4536 33.05C98.4536 33.2233 98.4436 33.4067 98.4236 33.6H94.0436C94.0769 34.14 94.2603 34.5633 94.5936 34.87C94.9336 35.17 95.3436 35.32 95.8236 35.32C96.2169 35.32 96.5436 35.23 96.8036 35.05C97.0703 34.8633 97.2569 34.6167 97.3636 34.31H98.3436C98.1969 34.8367 97.9036 35.2667 97.4636 35.6C97.0236 35.9267 96.4769 36.09 95.8236 36.09C95.3036 36.09 94.8369 35.9733 94.4236 35.74C94.0169 35.5067 93.6969 35.1767 93.4636 34.75C93.2303 34.3167 93.1136 33.8167 93.1136 33.25C93.1136 32.6833 93.2269 32.1867 93.4536 31.76C93.6803 31.3333 93.9969 31.0067 94.4036 30.78C94.8169 30.5467 95.2903 30.43 95.8236 30.43C96.3436 30.43 96.8036 30.5433 97.2036 30.77C97.6036 30.9967 97.9103 31.31 98.1236 31.71C98.3436 32.1033 98.4536 32.55 98.4536 33.05ZM97.5136 32.86C97.5136 32.5133 97.4369 32.2167 97.2836 31.97C97.1303 31.7167 96.9203 31.5267 96.6536 31.4C96.3936 31.2667 96.1036 31.2 95.7836 31.2C95.3236 31.2 94.9303 31.3467 94.6036 31.64C94.2836 31.9333 94.1003 32.34 94.0536 32.86H97.5136ZM106.411 32.41C106.664 32.45 106.894 32.5533 107.101 32.72C107.314 32.8867 107.481 33.0933 107.601 33.34C107.727 33.5867 107.791 33.85 107.791 34.13C107.791 34.4833 107.701 34.8033 107.521 35.09C107.341 35.37 107.077 35.5933 106.731 35.76C106.391 35.92 105.987 36 105.521 36H102.921V29.03H105.421C105.894 29.03 106.297 29.11 106.631 29.27C106.964 29.4233 107.214 29.6333 107.381 29.9C107.547 30.1667 107.631 30.4667 107.631 30.8C107.631 31.2133 107.517 31.5567 107.291 31.83C107.071 32.0967 106.777 32.29 106.411 32.41ZM103.831 32.04H105.361C105.787 32.04 106.117 31.94 106.351 31.74C106.584 31.54 106.701 31.2633 106.701 30.91C106.701 30.5567 106.584 30.28 106.351 30.08C106.117 29.88 105.781 29.78 105.341 29.78H103.831V32.04ZM105.441 35.25C105.894 35.25 106.247 35.1433 106.501 34.93C106.754 34.7167 106.881 34.42 106.881 34.04C106.881 33.6533 106.747 33.35 106.481 33.13C106.214 32.9033 105.857 32.79 105.411 32.79H103.831V35.25H105.441ZM109.014 33.24C109.014 32.68 109.127 32.19 109.354 31.77C109.58 31.3433 109.89 31.0133 110.284 30.78C110.684 30.5467 111.127 30.43 111.614 30.43C112.094 30.43 112.51 30.5333 112.864 30.74C113.217 30.9467 113.48 31.2067 113.654 31.52V30.52H114.574V36H113.654V34.98C113.474 35.3 113.204 35.5667 112.844 35.78C112.49 35.9867 112.077 36.09 111.604 36.09C111.117 36.09 110.677 35.97 110.284 35.73C109.89 35.49 109.58 35.1533 109.354 34.72C109.127 34.2867 109.014 33.7933 109.014 33.24ZM113.654 33.25C113.654 32.8367 113.57 32.4767 113.404 32.17C113.237 31.8633 113.01 31.63 112.724 31.47C112.444 31.3033 112.134 31.22 111.794 31.22C111.454 31.22 111.144 31.3 110.864 31.46C110.584 31.62 110.36 31.8533 110.194 32.16C110.027 32.4667 109.944 32.8267 109.944 33.24C109.944 33.66 110.027 34.0267 110.194 34.34C110.36 34.6467 110.584 34.8833 110.864 35.05C111.144 35.21 111.454 35.29 111.794 35.29C112.134 35.29 112.444 35.21 112.724 35.05C113.01 34.8833 113.237 34.6467 113.404 34.34C113.57 34.0267 113.654 33.6633 113.654 33.25ZM117.321 31.41C117.481 31.0967 117.708 30.8533 118.001 30.68C118.301 30.5067 118.665 30.42 119.091 30.42V31.36H118.851C117.831 31.36 117.321 31.9133 117.321 33.02V36H116.411V30.52H117.321V31.41ZM121.352 31.41C121.512 31.0967 121.739 30.8533 122.032 30.68C122.332 30.5067 122.695 30.42 123.122 30.42V31.36H122.882C121.862 31.36 121.352 31.9133 121.352 33.02V36H120.442V30.52H121.352V31.41ZM126.862 36.09C126.349 36.09 125.882 35.9733 125.462 35.74C125.049 35.5067 124.722 35.1767 124.482 34.75C124.249 34.3167 124.132 33.8167 124.132 33.25C124.132 32.69 124.252 32.1967 124.492 31.77C124.739 31.3367 125.072 31.0067 125.492 30.78C125.912 30.5467 126.382 30.43 126.902 30.43C127.422 30.43 127.892 30.5467 128.312 30.78C128.732 31.0067 129.062 31.3333 129.302 31.76C129.549 32.1867 129.672 32.6833 129.672 33.25C129.672 33.8167 129.546 34.3167 129.292 34.75C129.046 35.1767 128.709 35.5067 128.282 35.74C127.856 35.9733 127.382 36.09 126.862 36.09ZM126.862 35.29C127.189 35.29 127.496 35.2133 127.782 35.06C128.069 34.9067 128.299 34.6767 128.472 34.37C128.652 34.0633 128.742 33.69 128.742 33.25C128.742 32.81 128.656 32.4367 128.482 32.13C128.309 31.8233 128.082 31.5967 127.802 31.45C127.522 31.2967 127.219 31.22 126.892 31.22C126.559 31.22 126.252 31.2967 125.972 31.45C125.699 31.5967 125.479 31.8233 125.312 32.13C125.146 32.4367 125.062 32.81 125.062 33.25C125.062 33.6967 125.142 34.0733 125.302 34.38C125.469 34.6867 125.689 34.9167 125.962 35.07C126.236 35.2167 126.536 35.29 126.862 35.29ZM133.109 36.09C132.689 36.09 132.312 36.02 131.979 35.88C131.645 35.7333 131.382 35.5333 131.189 35.28C130.995 35.02 130.889 34.7233 130.869 34.39H131.809C131.835 34.6633 131.962 34.8867 132.189 35.06C132.422 35.2333 132.725 35.32 133.099 35.32C133.445 35.32 133.719 35.2433 133.919 35.09C134.119 34.9367 134.219 34.7433 134.219 34.51C134.219 34.27 134.112 34.0933 133.899 33.98C133.685 33.86 133.355 33.7433 132.909 33.63C132.502 33.5233 132.169 33.4167 131.909 33.31C131.655 33.1967 131.435 33.0333 131.249 32.82C131.069 32.6 130.979 32.3133 130.979 31.96C130.979 31.68 131.062 31.4233 131.229 31.19C131.395 30.9567 131.632 30.7733 131.939 30.64C132.245 30.5 132.595 30.43 132.989 30.43C133.595 30.43 134.085 30.5833 134.459 30.89C134.832 31.1967 135.032 31.6167 135.059 32.15H134.149C134.129 31.8633 134.012 31.6333 133.799 31.46C133.592 31.2867 133.312 31.2 132.959 31.2C132.632 31.2 132.372 31.27 132.179 31.41C131.985 31.55 131.889 31.7333 131.889 31.96C131.889 32.14 131.945 32.29 132.059 32.41C132.179 32.5233 132.325 32.6167 132.499 32.69C132.679 32.7567 132.925 32.8333 133.239 32.92C133.632 33.0267 133.952 33.1333 134.199 33.24C134.445 33.34 134.655 33.4933 134.829 33.7C135.009 33.9067 135.102 34.1767 135.109 34.51C135.109 34.81 135.025 35.08 134.859 35.32C134.692 35.56 134.455 35.75 134.149 35.89C133.849 36.0233 133.502 36.09 133.109 36.09Z" fill="#98A4AE"/>
<path d="M73.9434 45.5L108.058 45.5L91.001 68.3301L73.9434 45.5Z" fill="white" stroke="#015486" stroke-width="2"/>
<path d="M91 65L71.0814 41L110.919 41L91 65Z" fill="white"/>
<path d="M31.155 11.978C30.2796 11.4725 29.3132 11.1443 28.311 11.0123C27.3088 10.8803 26.2904 10.947 25.314 11.2086C24.3376 11.4702 23.4223 11.9215 22.6203 12.5369C21.8183 13.1523 21.1454 13.9196 20.64 14.795L20.35 15.297C20.2507 15.4693 20.2239 15.6739 20.2755 15.8659C20.3271 16.0579 20.4528 16.2216 20.625 16.321L26.086 19.474L22.818 25.194L22.75 25.193C19.592 25.193 16.857 27.025 15.228 29.615C15.5062 29.5166 15.8027 29.481 16.0963 29.5108C16.3898 29.5405 16.6732 29.6348 16.926 29.787C18.338 27.921 20.444 26.693 22.75 26.693C25.154 26.693 27.341 28.028 28.75 30.029C28.9448 29.8497 29.1733 29.7109 29.4222 29.6206C29.6711 29.5303 29.9355 29.4903 30.2 29.503C28.869 27.445 26.833 25.883 24.444 25.372L27.385 20.224L32.658 23.269C32.7433 23.3183 32.8376 23.3503 32.9353 23.3631C33.033 23.376 33.1323 23.3695 33.2275 23.3439C33.3227 23.3184 33.4119 23.2743 33.4901 23.2143C33.5682 23.1543 33.6338 23.0794 33.683 22.994L33.973 22.493C34.4785 21.6176 34.8065 20.6511 34.9385 19.6489C35.0704 18.6466 35.0036 17.6282 34.742 16.6518C34.4803 15.6754 34.0288 14.7601 33.4134 13.9581C32.7979 13.1562 32.0305 12.4833 31.155 11.978ZM28.965 19.404L25.807 17.58C26.379 16.699 26.923 16.028 27.575 15.435C28.21 14.857 28.968 14.335 29.996 13.767C30.148 14.722 30.194 15.517 30.096 16.297C29.98 17.229 29.651 18.19 28.963 19.403M30.261 20.153C31.021 18.815 31.437 17.663 31.584 16.483C31.681 15.709 31.659 14.945 31.562 14.138C32.5536 15.0759 33.208 16.3148 33.4237 17.6625C33.6394 19.0102 33.4043 20.3915 32.755 21.592L30.261 20.153ZM26.565 14.325C25.775 15.044 25.14 15.844 24.505 16.829L22.025 15.397C22.7247 14.2594 23.773 13.3782 25.014 12.8845C26.2549 12.3908 27.6221 12.311 28.912 12.657C27.983 13.192 27.227 13.722 26.565 14.325ZM16.605 31.263C16.5536 31.1087 16.4535 30.9752 16.3197 30.8828C16.1859 30.7903 16.0257 30.7439 15.8632 30.7504C15.7007 30.757 15.5447 30.8162 15.4188 30.9191C15.2928 31.022 15.2038 31.163 15.165 31.321C14.91 32.363 14.427 32.935 13.877 33.267C13.301 33.615 12.567 33.749 11.748 33.749C11.5491 33.749 11.3583 33.828 11.2177 33.9687C11.077 34.1093 10.998 34.3001 10.998 34.499C10.998 34.6979 11.077 34.8887 11.2177 35.0293C11.3583 35.17 11.5491 35.249 11.748 35.249C12.705 35.249 13.748 35.097 14.652 34.551C15.1912 34.2252 15.6459 33.7767 15.979 33.242C17.768 35.524 21.261 35.512 22.998 33.218C24.763 35.548 28.338 35.524 30.101 33.132C30.5796 33.7834 31.2038 34.3141 31.9238 34.6816C32.6437 35.0492 33.4396 35.2435 34.248 35.249C34.4469 35.249 34.6377 35.17 34.7783 35.0293C34.919 34.8887 34.998 34.6979 34.998 34.499C34.998 34.3001 34.919 34.1093 34.7783 33.9687C34.6377 33.828 34.4469 33.749 34.248 33.749C32.773 33.749 31.303 32.789 30.818 31.271C30.77 31.1199 30.6754 30.9879 30.5477 30.894C30.42 30.8001 30.2659 30.749 30.1074 30.7481C29.9489 30.7472 29.7942 30.7965 29.6655 30.8891C29.5368 30.9816 29.4407 31.1125 29.391 31.263C28.428 34.172 24.653 34.135 23.707 31.384C23.6561 31.2364 23.5604 31.1085 23.4333 31.0179C23.3062 30.9273 23.1541 30.8786 22.998 30.8786C22.8419 30.8786 22.6897 30.9273 22.5626 31.0179C22.4355 31.1085 22.3399 31.2364 22.289 31.384C21.343 34.135 17.569 34.171 16.605 31.263Z" fill="#015486"/>
<defs>
<linearGradient id="paint0_linear_294_299" x1="179.069" y1="0.748829" x2="-69.2821" y2="206.234" gradientUnits="userSpaceOnUse">
<stop stop-color="white"/>
</linearGradient>
</defs>
</svg>
