<svg width="181" height="70" viewBox="0 0 181 70" fill="none" xmlns="http://www.w3.org/2000/svg">
<path d="M20 1H161C171.493 1 180 9.50659 180 20V26C180 36.4934 171.493 45 161 45H20C9.50659 45 1 36.4934 1 26V20C1 9.50659 9.50659 1 20 1Z" fill="url(#paint0_linear_294_425)" stroke="#015486" stroke-width="2"/>
<path d="M40.26 21V11.228C40.6427 11.1813 41.0627 11.1487 41.52 11.13C41.9867 11.102 42.4673 11.088 42.962 11.088C43.774 11.088 44.4647 11.2187 45.034 11.48C45.6033 11.732 46.0373 12.082 46.336 12.53C46.6347 12.978 46.784 13.4913 46.784 14.07C46.784 14.77 46.6113 15.3627 46.266 15.848C45.9207 16.3333 45.44 16.7067 44.824 16.968C44.208 17.22 43.494 17.346 42.682 17.346C42.29 17.346 41.926 17.332 41.59 17.304V21H40.26ZM42.85 16.24C43.6807 16.24 44.3247 16.0533 44.782 15.68C45.2393 15.3067 45.468 14.8073 45.468 14.182C45.468 13.5753 45.2487 13.0947 44.81 12.74C44.3713 12.3853 43.746 12.208 42.934 12.208C42.682 12.208 42.444 12.2127 42.22 12.222C41.996 12.2313 41.786 12.2453 41.59 12.264V16.17C41.7393 16.1887 41.9213 16.2073 42.136 16.226C42.3507 16.2353 42.5887 16.24 42.85 16.24ZM48.5548 21V13.72H49.7728V15.302C49.8941 14.994 50.0574 14.7093 50.2628 14.448C50.4681 14.1773 50.7248 13.9627 51.0328 13.804C51.3408 13.636 51.7001 13.552 52.1108 13.552C52.2508 13.552 52.3908 13.5613 52.5308 13.58C52.6708 13.5893 52.7874 13.608 52.8808 13.636L52.5028 14.938C52.3254 14.8633 52.1154 14.826 51.8728 14.826C51.5274 14.826 51.1961 14.924 50.8788 15.12C50.5708 15.316 50.3141 15.6193 50.1088 16.03C49.9128 16.4407 49.8148 16.9633 49.8148 17.598V21H48.5548ZM56.8087 21.168C56.2021 21.168 55.6514 21.014 55.1567 20.706C54.6621 20.398 54.2654 19.964 53.9667 19.404C53.6774 18.8347 53.5327 18.1673 53.5327 17.402C53.5327 16.674 53.6774 16.0207 53.9667 15.442C54.2654 14.8633 54.6714 14.406 55.1847 14.07C55.7074 13.7247 56.3047 13.552 56.9767 13.552C57.3967 13.552 57.7747 13.6267 58.1107 13.776C58.4561 13.916 58.7547 14.0933 59.0067 14.308V13.72H60.1547V19.236C60.1547 19.5907 60.2387 19.824 60.4067 19.936C60.5841 20.0387 60.7754 20.09 60.9807 20.09L60.7147 21.07C59.8187 21.07 59.2774 20.706 59.0907 19.978C58.8761 20.2767 58.5821 20.552 58.2087 20.804C57.8447 21.0467 57.3781 21.168 56.8087 21.168ZM57.0887 20.048C57.4434 20.048 57.7794 19.964 58.0967 19.796C58.4141 19.6187 58.6801 19.3993 58.8947 19.138V15.232C58.6427 15.0547 58.3627 14.9147 58.0547 14.812C57.7561 14.7 57.4387 14.644 57.1027 14.644C56.6547 14.644 56.2581 14.7607 55.9127 14.994C55.5767 15.218 55.3107 15.5353 55.1147 15.946C54.9187 16.3473 54.8207 16.8187 54.8207 17.36C54.8207 17.8827 54.9187 18.3493 55.1147 18.76C55.3107 19.1613 55.5814 19.4787 55.9267 19.712C56.2721 19.936 56.6594 20.048 57.0887 20.048ZM62.9634 21V13.72H64.2234V21H62.9634ZM63.5934 12.474C63.3507 12.474 63.1407 12.3853 62.9634 12.208C62.7954 12.0307 62.7114 11.8253 62.7114 11.592C62.7114 11.3213 62.7907 11.1067 62.9494 10.948C63.108 10.7893 63.3227 10.71 63.5934 10.71C63.836 10.71 64.0414 10.7987 64.2094 10.976C64.3867 11.144 64.4754 11.3493 64.4754 11.592C64.4754 11.8533 64.396 12.068 64.2374 12.236C64.0787 12.3947 63.864 12.474 63.5934 12.474ZM69.5494 21.168C68.9427 21.168 68.392 21.014 67.8974 20.706C67.4027 20.398 67.006 19.964 66.7074 19.404C66.418 18.8347 66.2734 18.1673 66.2734 17.402C66.2734 16.674 66.418 16.0207 66.7074 15.442C67.006 14.8633 67.412 14.406 67.9254 14.07C68.448 13.7247 69.0454 13.552 69.7174 13.552C70.1374 13.552 70.5154 13.6267 70.8514 13.776C71.1967 13.916 71.4954 14.0933 71.7474 14.308V13.72H72.8954V19.236C72.8954 19.5907 72.9794 19.824 73.1474 19.936C73.3247 20.0387 73.516 20.09 73.7214 20.09L73.4554 21.07C72.5594 21.07 72.018 20.706 71.8314 19.978C71.6167 20.2767 71.3227 20.552 70.9494 20.804C70.5854 21.0467 70.1187 21.168 69.5494 21.168ZM69.8294 20.048C70.184 20.048 70.52 19.964 70.8374 19.796C71.1547 19.6187 71.4207 19.3993 71.6354 19.138V15.232C71.3834 15.0547 71.1034 14.9147 70.7954 14.812C70.4967 14.7 70.1794 14.644 69.8434 14.644C69.3954 14.644 68.9987 14.7607 68.6534 14.994C68.3174 15.218 68.0514 15.5353 67.8554 15.946C67.6594 16.3473 67.5614 16.8187 67.5614 17.36C67.5614 17.8827 67.6594 18.3493 67.8554 18.76C68.0514 19.1613 68.322 19.4787 68.6674 19.712C69.0127 19.936 69.4 20.048 69.8294 20.048ZM82.9592 21.168C82.3619 21.168 81.8159 21.014 81.3212 20.706C80.8266 20.398 80.4346 19.964 80.1452 19.404C79.8559 18.8347 79.7112 18.1673 79.7112 17.402C79.7112 16.6647 79.8559 16.0067 80.1452 15.428C80.4439 14.8493 80.8359 14.392 81.3212 14.056C81.8159 13.72 82.3572 13.552 82.9452 13.552C83.4306 13.552 83.8459 13.65 84.1912 13.846C84.5459 14.042 84.8212 14.2427 85.0172 14.448V10.64H86.2772V19.236C86.2772 19.5907 86.3612 19.824 86.5292 19.936C86.7066 20.0387 86.8979 20.09 87.1032 20.09L86.8372 21.07C85.9506 21.07 85.4092 20.7153 85.2132 20.006C85.0079 20.2953 84.7186 20.5613 84.3452 20.804C83.9812 21.0467 83.5192 21.168 82.9592 21.168ZM83.2392 20.048C83.5846 20.048 83.9112 19.9687 84.2192 19.81C84.5366 19.642 84.8026 19.4273 85.0172 19.166V15.554C84.8399 15.33 84.5926 15.1247 84.2752 14.938C83.9579 14.742 83.6079 14.644 83.2252 14.644C82.7772 14.644 82.3852 14.7653 82.0492 15.008C81.7132 15.2507 81.4519 15.5773 81.2652 15.988C81.0879 16.3893 80.9992 16.8467 80.9992 17.36C80.9992 17.8733 81.0972 18.3353 81.2932 18.746C81.4892 19.1473 81.7552 19.4647 82.0912 19.698C82.4366 19.9313 82.8192 20.048 83.2392 20.048ZM91.8625 21.168C90.8171 21.168 89.9865 20.8367 89.3705 20.174C88.7638 19.502 88.4605 18.564 88.4605 17.36C88.4605 16.632 88.5958 15.9833 88.8665 15.414C89.1465 14.8353 89.5338 14.3827 90.0285 14.056C90.5231 13.72 91.0971 13.552 91.7505 13.552C92.4505 13.552 93.0291 13.706 93.4865 14.014C93.9531 14.3127 94.3031 14.7187 94.5365 15.232C94.7698 15.7453 94.8865 16.31 94.8865 16.926C94.8865 17.2527 94.8725 17.57 94.8445 17.878H89.7485C89.8325 18.5593 90.0705 19.0913 90.4625 19.474C90.8545 19.8567 91.3725 20.048 92.0165 20.048C92.4365 20.048 92.8145 20.006 93.1505 19.922C93.4865 19.8287 93.8085 19.712 94.1165 19.572L94.4105 20.65C94.0745 20.7993 93.6965 20.9207 93.2765 21.014C92.8565 21.1167 92.3851 21.168 91.8625 21.168ZM89.7345 16.856H93.7245C93.7245 16.1467 93.5471 15.6007 93.1925 15.218C92.8378 14.8353 92.3478 14.644 91.7225 14.644C91.1811 14.644 90.7331 14.8353 90.3785 15.218C90.0238 15.5913 89.8091 16.1373 89.7345 16.856ZM101.503 21V11.2H102.833V21H101.503ZM108.066 21.168C107.366 21.168 106.811 20.9393 106.4 20.482C105.999 20.0153 105.798 19.3527 105.798 18.494V15.078H104.538V13.986H105.826L106.092 11.69H107.058V13.986H109.074V15.078H107.058V18.592C107.058 19.1333 107.17 19.5113 107.394 19.726C107.628 19.9407 107.903 20.048 108.22 20.048C108.454 20.048 108.673 20.0107 108.878 19.936C109.093 19.8613 109.289 19.7727 109.466 19.67L109.816 20.678C109.63 20.79 109.378 20.8973 109.06 21C108.743 21.112 108.412 21.168 108.066 21.168ZM113.895 21.168C113.289 21.168 112.738 21.014 112.243 20.706C111.749 20.398 111.352 19.964 111.053 19.404C110.764 18.8347 110.619 18.1673 110.619 17.402C110.619 16.674 110.764 16.0207 111.053 15.442C111.352 14.8633 111.758 14.406 112.271 14.07C112.794 13.7247 113.391 13.552 114.063 13.552C114.483 13.552 114.861 13.6267 115.197 13.776C115.543 13.916 115.841 14.0933 116.093 14.308V13.72H117.241V19.236C117.241 19.5907 117.325 19.824 117.493 19.936C117.671 20.0387 117.862 20.09 118.067 20.09L117.801 21.07C116.905 21.07 116.364 20.706 116.177 19.978C115.963 20.2767 115.669 20.552 115.295 20.804C114.931 21.0467 114.465 21.168 113.895 21.168ZM114.175 20.048C114.53 20.048 114.866 19.964 115.183 19.796C115.501 19.6187 115.767 19.3993 115.981 19.138V15.232C115.729 15.0547 115.449 14.9147 115.141 14.812C114.843 14.7 114.525 14.644 114.189 14.644C113.741 14.644 113.345 14.7607 112.999 14.994C112.663 15.218 112.397 15.5353 112.201 15.946C112.005 16.3473 111.907 16.8187 111.907 17.36C111.907 17.8827 112.005 18.3493 112.201 18.76C112.397 19.1613 112.668 19.4787 113.013 19.712C113.359 19.936 113.746 20.048 114.175 20.048ZM120.05 21V13.72H121.31V21H120.05ZM120.68 12.474C120.437 12.474 120.227 12.3853 120.05 12.208C119.882 12.0307 119.798 11.8253 119.798 11.592C119.798 11.3213 119.877 11.1067 120.036 10.948C120.195 10.7893 120.409 10.71 120.68 10.71C120.923 10.71 121.128 10.7987 121.296 10.976C121.473 11.144 121.562 11.3493 121.562 11.592C121.562 11.8533 121.483 12.068 121.324 12.236C121.165 12.3947 120.951 12.474 120.68 12.474ZM124.116 24.08V15.582C124.116 15.2647 124.037 15.0407 123.878 14.91C123.729 14.77 123.533 14.7 123.29 14.7L123.556 13.72C124.415 13.72 124.951 14.0607 125.166 14.742C125.259 14.602 125.409 14.4387 125.614 14.252C125.829 14.0653 126.09 13.902 126.398 13.762C126.715 13.622 127.075 13.552 127.476 13.552C128.036 13.552 128.559 13.7013 129.044 14C129.539 14.2893 129.935 14.714 130.234 15.274C130.533 15.8247 130.682 16.4967 130.682 17.29C130.682 18.0647 130.533 18.746 130.234 19.334C129.935 19.9127 129.543 20.3653 129.058 20.692C128.582 21.0093 128.064 21.168 127.504 21.168C127.075 21.168 126.673 21.084 126.3 20.916C125.927 20.7387 125.619 20.538 125.376 20.314V24.08H124.116ZM127.252 20.048C127.887 20.048 128.4 19.8007 128.792 19.306C129.193 18.802 129.394 18.144 129.394 17.332C129.394 16.772 129.291 16.2913 129.086 15.89C128.89 15.4887 128.624 15.1807 128.288 14.966C127.961 14.7513 127.597 14.644 127.196 14.644C126.795 14.644 126.431 14.7467 126.104 14.952C125.787 15.148 125.544 15.3627 125.376 15.596V19.18C125.619 19.432 125.899 19.642 126.216 19.81C126.533 19.9687 126.879 20.048 127.252 20.048ZM135.116 21.168C134.696 21.168 134.299 21.0793 133.926 20.902C133.553 20.7247 133.249 20.44 133.016 20.048C132.783 19.6467 132.666 19.1147 132.666 18.452V13.72H133.926V18.284C133.926 18.8533 134.047 19.292 134.29 19.6C134.533 19.8987 134.887 20.048 135.354 20.048C135.737 20.048 136.105 19.9733 136.46 19.824C136.824 19.6653 137.146 19.4553 137.426 19.194V13.72H138.686V19.11C138.686 19.5113 138.77 19.7773 138.938 19.908C139.115 20.0293 139.307 20.09 139.512 20.09L139.246 21.07C138.378 21.07 137.841 20.7247 137.636 20.034C137.309 20.37 136.931 20.6453 136.502 20.86C136.073 21.0653 135.611 21.168 135.116 21.168Z" fill="#015486"/>
<path d="M44.43 31.07C44.43 31.65 44.23 32.1333 43.83 32.52C43.4367 32.9 42.8333 33.09 42.02 33.09H40.68V36H39.77V29.03H42.02C42.8067 29.03 43.4033 29.22 43.81 29.6C44.2233 29.98 44.43 30.47 44.43 31.07ZM42.02 32.34C42.5267 32.34 42.9 32.23 43.14 32.01C43.38 31.79 43.5 31.4767 43.5 31.07C43.5 30.21 43.0067 29.78 42.02 29.78H40.68V32.34H42.02ZM46.771 31.41C46.931 31.0967 47.1577 30.8533 47.451 30.68C47.751 30.5067 48.1143 30.42 48.541 30.42V31.36H48.301C47.281 31.36 46.771 31.9133 46.771 33.02V36H45.861V30.52H46.771V31.41ZM49.5515 33.24C49.5515 32.68 49.6648 32.19 49.8915 31.77C50.1182 31.3433 50.4282 31.0133 50.8215 30.78C51.2215 30.5467 51.6648 30.43 52.1515 30.43C52.6315 30.43 53.0482 30.5333 53.4015 30.74C53.7548 30.9467 54.0182 31.2067 54.1915 31.52V30.52H55.1115V36H54.1915V34.98C54.0115 35.3 53.7415 35.5667 53.3815 35.78C53.0282 35.9867 52.6148 36.09 52.1415 36.09C51.6548 36.09 51.2148 35.97 50.8215 35.73C50.4282 35.49 50.1182 35.1533 49.8915 34.72C49.6648 34.2867 49.5515 33.7933 49.5515 33.24ZM54.1915 33.25C54.1915 32.8367 54.1082 32.4767 53.9415 32.17C53.7748 31.8633 53.5482 31.63 53.2615 31.47C52.9815 31.3033 52.6715 31.22 52.3315 31.22C51.9915 31.22 51.6815 31.3 51.4015 31.46C51.1215 31.62 50.8982 31.8533 50.7315 32.16C50.5648 32.4667 50.4815 32.8267 50.4815 33.24C50.4815 33.66 50.5648 34.0267 50.7315 34.34C50.8982 34.6467 51.1215 34.8833 51.4015 35.05C51.6815 35.21 51.9915 35.29 52.3315 35.29C52.6715 35.29 52.9815 35.21 53.2615 35.05C53.5482 34.8833 53.7748 34.6467 53.9415 34.34C54.1082 34.0267 54.1915 33.6633 54.1915 33.25ZM57.4193 29.63C57.246 29.63 57.0993 29.57 56.9793 29.45C56.8593 29.33 56.7993 29.1833 56.7993 29.01C56.7993 28.8367 56.8593 28.69 56.9793 28.57C57.0993 28.45 57.246 28.39 57.4193 28.39C57.586 28.39 57.726 28.45 57.8393 28.57C57.9593 28.69 58.0193 28.8367 58.0193 29.01C58.0193 29.1833 57.9593 29.33 57.8393 29.45C57.726 29.57 57.586 29.63 57.4193 29.63ZM57.8593 30.52V36H56.9493V30.52H57.8593ZM59.3702 33.24C59.3702 32.68 59.4836 32.19 59.7102 31.77C59.9369 31.3433 60.2469 31.0133 60.6402 30.78C61.0402 30.5467 61.4836 30.43 61.9702 30.43C62.4502 30.43 62.8669 30.5333 63.2202 30.74C63.5736 30.9467 63.8369 31.2067 64.0102 31.52V30.52H64.9302V36H64.0102V34.98C63.8302 35.3 63.5602 35.5667 63.2002 35.78C62.8469 35.9867 62.4336 36.09 61.9602 36.09C61.4736 36.09 61.0336 35.97 60.6402 35.73C60.2469 35.49 59.9369 35.1533 59.7102 34.72C59.4836 34.2867 59.3702 33.7933 59.3702 33.24ZM64.0102 33.25C64.0102 32.8367 63.9269 32.4767 63.7602 32.17C63.5936 31.8633 63.3669 31.63 63.0802 31.47C62.8002 31.3033 62.4902 31.22 62.1502 31.22C61.8102 31.22 61.5002 31.3 61.2202 31.46C60.9402 31.62 60.7169 31.8533 60.5502 32.16C60.3836 32.4667 60.3002 32.8267 60.3002 33.24C60.3002 33.66 60.3836 34.0267 60.5502 34.34C60.7169 34.6467 60.9402 34.8833 61.2202 35.05C61.5002 35.21 61.8102 35.29 62.1502 35.29C62.4902 35.29 62.8002 35.21 63.0802 35.05C63.3669 34.8833 63.5936 34.6467 63.7602 34.34C63.9269 34.0267 64.0102 33.6633 64.0102 33.25ZM69.3941 33.24C69.3941 32.68 69.5074 32.19 69.7341 31.77C69.9607 31.3433 70.2707 31.0133 70.6641 30.78C71.0641 30.5467 71.5107 30.43 72.0041 30.43C72.4307 30.43 72.8274 30.53 73.1941 30.73C73.5607 30.9233 73.8407 31.18 74.0341 31.5V28.6H74.9541V36H74.0341V34.97C73.8541 35.2967 73.5874 35.5667 73.2341 35.78C72.8807 35.9867 72.4674 36.09 71.9941 36.09C71.5074 36.09 71.0641 35.97 70.6641 35.73C70.2707 35.49 69.9607 35.1533 69.7341 34.72C69.5074 34.2867 69.3941 33.7933 69.3941 33.24ZM74.0341 33.25C74.0341 32.8367 73.9507 32.4767 73.7841 32.17C73.6174 31.8633 73.3907 31.63 73.1041 31.47C72.8241 31.3033 72.5141 31.22 72.1741 31.22C71.8341 31.22 71.5241 31.3 71.2441 31.46C70.9641 31.62 70.7407 31.8533 70.5741 32.16C70.4074 32.4667 70.3241 32.8267 70.3241 33.24C70.3241 33.66 70.4074 34.0267 70.5741 34.34C70.7407 34.6467 70.9641 34.8833 71.2441 35.05C71.5241 35.21 71.8341 35.29 72.1741 35.29C72.5141 35.29 72.8241 35.21 73.1041 35.05C73.3907 34.8833 73.6174 34.6467 73.7841 34.34C73.9507 34.0267 74.0341 33.6633 74.0341 33.25ZM81.7919 33.05C81.7919 33.2233 81.7819 33.4067 81.7619 33.6H77.3819C77.4152 34.14 77.5985 34.5633 77.9319 34.87C78.2719 35.17 78.6819 35.32 79.1619 35.32C79.5552 35.32 79.8819 35.23 80.1419 35.05C80.4085 34.8633 80.5952 34.6167 80.7019 34.31H81.6819C81.5352 34.8367 81.2419 35.2667 80.8019 35.6C80.3619 35.9267 79.8152 36.09 79.1619 36.09C78.6419 36.09 78.1752 35.9733 77.7619 35.74C77.3552 35.5067 77.0352 35.1767 76.8019 34.75C76.5685 34.3167 76.4519 33.8167 76.4519 33.25C76.4519 32.6833 76.5652 32.1867 76.7919 31.76C77.0185 31.3333 77.3352 31.0067 77.7419 30.78C78.1552 30.5467 78.6285 30.43 79.1619 30.43C79.6819 30.43 80.1419 30.5433 80.5419 30.77C80.9419 30.9967 81.2485 31.31 81.4619 31.71C81.6819 32.1033 81.7919 32.55 81.7919 33.05ZM80.8519 32.86C80.8519 32.5133 80.7752 32.2167 80.6219 31.97C80.4685 31.7167 80.2585 31.5267 79.9919 31.4C79.7319 31.2667 79.4419 31.2 79.1219 31.2C78.6619 31.2 78.2685 31.3467 77.9419 31.64C77.6219 31.9333 77.4385 32.34 77.3919 32.86H80.8519ZM87.1691 29.03V36H86.2591V29.03H87.1691ZM90.13 31.27V34.5C90.13 34.7667 90.1867 34.9567 90.3 35.07C90.4133 35.1767 90.61 35.23 90.89 35.23H91.56V36H90.74C90.2333 36 89.8533 35.8833 89.6 35.65C89.3467 35.4167 89.22 35.0333 89.22 34.5V31.27H88.51V30.52H89.22V29.14H90.13V30.52H91.56V31.27H90.13ZM92.6226 33.24C92.6226 32.68 92.7359 32.19 92.9626 31.77C93.1892 31.3433 93.4992 31.0133 93.8926 30.78C94.2926 30.5467 94.7359 30.43 95.2226 30.43C95.7026 30.43 96.1192 30.5333 96.4726 30.74C96.8259 30.9467 97.0892 31.2067 97.2626 31.52V30.52H98.1826V36H97.2626V34.98C97.0826 35.3 96.8126 35.5667 96.4526 35.78C96.0992 35.9867 95.6859 36.09 95.2126 36.09C94.7259 36.09 94.2859 35.97 93.8926 35.73C93.4992 35.49 93.1892 35.1533 92.9626 34.72C92.7359 34.2867 92.6226 33.7933 92.6226 33.24ZM97.2626 33.25C97.2626 32.8367 97.1792 32.4767 97.0126 32.17C96.8459 31.8633 96.6192 31.63 96.3326 31.47C96.0526 31.3033 95.7426 31.22 95.4026 31.22C95.0626 31.22 94.7526 31.3 94.4726 31.46C94.1926 31.62 93.9692 31.8533 93.8026 32.16C93.6359 32.4667 93.5526 32.8267 93.5526 33.24C93.5526 33.66 93.6359 34.0267 93.8026 34.34C93.9692 34.6467 94.1926 34.8833 94.4726 35.05C94.7526 35.21 95.0626 35.29 95.4026 35.29C95.7426 35.29 96.0526 35.21 96.3326 35.05C96.6192 34.8833 96.8459 34.6467 97.0126 34.34C97.1792 34.0267 97.2626 33.6633 97.2626 33.25ZM100.49 29.63C100.317 29.63 100.17 29.57 100.05 29.45C99.9304 29.33 99.8704 29.1833 99.8704 29.01C99.8704 28.8367 99.9304 28.69 100.05 28.57C100.17 28.45 100.317 28.39 100.49 28.39C100.657 28.39 100.797 28.45 100.91 28.57C101.03 28.69 101.09 28.8367 101.09 29.01C101.09 29.1833 101.03 29.33 100.91 29.45C100.797 29.57 100.657 29.63 100.49 29.63ZM100.93 30.52V36H100.02V30.52H100.93ZM103.691 31.53C103.871 31.2167 104.138 30.9567 104.491 30.75C104.851 30.5367 105.268 30.43 105.741 30.43C106.228 30.43 106.668 30.5467 107.061 30.78C107.461 31.0133 107.775 31.3433 108.001 31.77C108.228 32.19 108.341 32.68 108.341 33.24C108.341 33.7933 108.228 34.2867 108.001 34.72C107.775 35.1533 107.461 35.49 107.061 35.73C106.668 35.97 106.228 36.09 105.741 36.09C105.275 36.09 104.861 35.9867 104.501 35.78C104.148 35.5667 103.878 35.3033 103.691 34.99V38.6H102.781V30.52H103.691V31.53ZM107.411 33.24C107.411 32.8267 107.328 32.4667 107.161 32.16C106.995 31.8533 106.768 31.62 106.481 31.46C106.201 31.3 105.891 31.22 105.551 31.22C105.218 31.22 104.908 31.3033 104.621 31.47C104.341 31.63 104.115 31.8667 103.941 32.18C103.775 32.4867 103.691 32.8433 103.691 33.25C103.691 33.6633 103.775 34.0267 103.941 34.34C104.115 34.6467 104.341 34.8833 104.621 35.05C104.908 35.21 105.218 35.29 105.551 35.29C105.891 35.29 106.201 35.21 106.481 35.05C106.768 34.8833 106.995 34.6467 107.161 34.34C107.328 34.0267 107.411 33.66 107.411 33.24ZM114.699 30.52V36H113.789V35.19C113.616 35.47 113.372 35.69 113.059 35.85C112.752 36.0033 112.412 36.08 112.039 36.08C111.612 36.08 111.229 35.9933 110.889 35.82C110.549 35.64 110.279 35.3733 110.079 35.02C109.886 34.6667 109.789 34.2367 109.789 33.73V30.52H110.689V33.61C110.689 34.15 110.826 34.5667 111.099 34.86C111.372 35.1467 111.746 35.29 112.219 35.29C112.706 35.29 113.089 35.14 113.369 34.84C113.649 34.54 113.789 34.1033 113.789 33.53V30.52H114.699ZM113.249 28.97L111.119 30.11V29.43L113.249 28.18V28.97ZM122.172 30.42C122.838 30.42 123.378 30.6233 123.792 31.03C124.205 31.43 124.412 32.01 124.412 32.77V36H123.512V32.9C123.512 32.3533 123.375 31.9367 123.102 31.65C122.828 31.3567 122.455 31.21 121.982 31.21C121.502 31.21 121.118 31.36 120.832 31.66C120.552 31.96 120.412 32.3967 120.412 32.97V36H119.502V30.52H120.412V31.3C120.592 31.02 120.835 30.8033 121.142 30.65C121.455 30.4967 121.798 30.42 122.172 30.42ZM125.758 30.72C125.758 30.36 125.838 30.0433 125.998 29.77C126.158 29.4967 126.378 29.2867 126.658 29.14C126.945 28.9867 127.261 28.91 127.608 28.91C127.961 28.91 128.278 28.9867 128.558 29.14C128.838 29.2867 129.058 29.4967 129.218 29.77C129.378 30.0433 129.458 30.36 129.458 30.72C129.458 31.0733 129.375 31.39 129.208 31.67C129.048 31.9433 128.825 32.1567 128.538 32.31C128.258 32.4633 127.945 32.54 127.598 32.54C127.245 32.54 126.928 32.4633 126.648 32.31C126.375 32.1567 126.158 31.9433 125.998 31.67C125.838 31.3967 125.758 31.08 125.758 30.72ZM128.718 30.73C128.718 30.3367 128.608 30.03 128.388 29.81C128.175 29.59 127.915 29.48 127.608 29.48C127.295 29.48 127.031 29.59 126.818 29.81C126.611 30.03 126.508 30.3367 126.508 30.73C126.508 31.1167 126.611 31.42 126.818 31.64C127.025 31.8533 127.285 31.96 127.598 31.96C127.905 31.96 128.168 31.85 128.388 31.63C128.608 31.41 128.718 31.11 128.718 30.73ZM130.594 35.27C131.44 34.59 132.104 34.0333 132.584 33.6C133.064 33.16 133.467 32.7033 133.794 32.23C134.127 31.75 134.294 31.28 134.294 30.82C134.294 30.3867 134.187 30.0467 133.974 29.8C133.767 29.5467 133.43 29.42 132.964 29.42C132.51 29.42 132.157 29.5633 131.904 29.85C131.657 30.13 131.524 30.5067 131.504 30.98H130.624C130.65 30.2333 130.877 29.6567 131.304 29.25C131.73 28.8433 132.28 28.64 132.954 28.64C133.64 28.64 134.184 28.83 134.584 29.21C134.99 29.59 135.194 30.1133 135.194 30.78C135.194 31.3333 135.027 31.8733 134.694 32.4C134.367 32.92 133.994 33.38 133.574 33.78C133.154 34.1733 132.617 34.6333 131.964 35.16H135.404V35.92H130.594V35.27ZM136.516 29.6V28.77H138.396V36H137.476V29.6H136.516Z" fill="#98A4AE"/>
<path d="M73.9434 45.5L108.058 45.5L91.001 68.3301L73.9434 45.5Z" fill="white" stroke="#015486" stroke-width="2"/>
<path d="M91 65L71.0814 41L110.919 41L91 65Z" fill="white"/>
<path d="M31.155 11.978C30.2796 11.4725 29.3132 11.1443 28.311 11.0123C27.3088 10.8803 26.2904 10.947 25.314 11.2086C24.3376 11.4702 23.4223 11.9215 22.6203 12.5369C21.8183 13.1523 21.1454 13.9196 20.64 14.795L20.35 15.297C20.2507 15.4693 20.2239 15.6739 20.2755 15.8659C20.3271 16.0579 20.4528 16.2216 20.625 16.321L26.086 19.474L22.818 25.194L22.75 25.193C19.592 25.193 16.857 27.025 15.228 29.615C15.5062 29.5166 15.8027 29.481 16.0963 29.5108C16.3898 29.5405 16.6732 29.6348 16.926 29.787C18.338 27.921 20.444 26.693 22.75 26.693C25.154 26.693 27.341 28.028 28.75 30.029C28.9448 29.8497 29.1733 29.7109 29.4222 29.6206C29.6711 29.5303 29.9355 29.4903 30.2 29.503C28.869 27.445 26.833 25.883 24.444 25.372L27.385 20.224L32.658 23.269C32.7433 23.3183 32.8376 23.3503 32.9353 23.3631C33.033 23.376 33.1323 23.3695 33.2275 23.3439C33.3227 23.3184 33.4119 23.2743 33.4901 23.2143C33.5682 23.1543 33.6338 23.0794 33.683 22.994L33.973 22.493C34.4785 21.6176 34.8065 20.6511 34.9385 19.6489C35.0704 18.6466 35.0036 17.6282 34.742 16.6518C34.4803 15.6754 34.0288 14.7601 33.4134 13.9581C32.7979 13.1562 32.0305 12.4833 31.155 11.978ZM28.965 19.404L25.807 17.58C26.379 16.699 26.923 16.028 27.575 15.435C28.21 14.857 28.968 14.335 29.996 13.767C30.148 14.722 30.194 15.517 30.096 16.297C29.98 17.229 29.651 18.19 28.963 19.403M30.261 20.153C31.021 18.815 31.437 17.663 31.584 16.483C31.681 15.709 31.659 14.945 31.562 14.138C32.5536 15.0759 33.208 16.3148 33.4237 17.6625C33.6394 19.0102 33.4043 20.3915 32.755 21.592L30.261 20.153ZM26.565 14.325C25.775 15.044 25.14 15.844 24.505 16.829L22.025 15.397C22.7247 14.2594 23.773 13.3782 25.014 12.8845C26.2549 12.3908 27.6221 12.311 28.912 12.657C27.983 13.192 27.227 13.722 26.565 14.325ZM16.605 31.263C16.5536 31.1087 16.4535 30.9752 16.3197 30.8828C16.1859 30.7903 16.0257 30.7439 15.8632 30.7504C15.7007 30.757 15.5447 30.8162 15.4188 30.9191C15.2928 31.022 15.2038 31.163 15.165 31.321C14.91 32.363 14.427 32.935 13.877 33.267C13.301 33.615 12.567 33.749 11.748 33.749C11.5491 33.749 11.3583 33.828 11.2177 33.9687C11.077 34.1093 10.998 34.3001 10.998 34.499C10.998 34.6979 11.077 34.8887 11.2177 35.0293C11.3583 35.17 11.5491 35.249 11.748 35.249C12.705 35.249 13.748 35.097 14.652 34.551C15.1912 34.2252 15.6459 33.7767 15.979 33.242C17.768 35.524 21.261 35.512 22.998 33.218C24.763 35.548 28.338 35.524 30.101 33.132C30.5796 33.7834 31.2038 34.3141 31.9238 34.6816C32.6437 35.0492 33.4396 35.2435 34.248 35.249C34.4469 35.249 34.6377 35.17 34.7783 35.0293C34.919 34.8887 34.998 34.6979 34.998 34.499C34.998 34.3001 34.919 34.1093 34.7783 33.9687C34.6377 33.828 34.4469 33.749 34.248 33.749C32.773 33.749 31.303 32.789 30.818 31.271C30.77 31.1199 30.6754 30.9879 30.5477 30.894C30.42 30.8001 30.2659 30.749 30.1074 30.7481C29.9489 30.7472 29.7942 30.7965 29.6655 30.8891C29.5368 30.9816 29.4407 31.1125 29.391 31.263C28.428 34.172 24.653 34.135 23.707 31.384C23.6561 31.2364 23.5604 31.1085 23.4333 31.0179C23.3062 30.9273 23.1541 30.8786 22.998 30.8786C22.8419 30.8786 22.6897 30.9273 22.5626 31.0179C22.4355 31.1085 22.3399 31.2364 22.289 31.384C21.343 34.135 17.569 34.171 16.605 31.263Z" fill="#015486"/>
<defs>
<linearGradient id="paint0_linear_294_425" x1="179.069" y1="0.748829" x2="-69.2821" y2="206.234" gradientUnits="userSpaceOnUse">
<stop stop-color="white"/>
</linearGradient>
</defs>
</svg>
