<svg width="181" height="70" viewBox="0 0 181 70" fill="none" xmlns="http://www.w3.org/2000/svg">
<path d="M20 1H161C171.493 1 180 9.50659 180 20V26C180 36.4934 171.493 45 161 45H20C9.50659 45 1 36.4934 1 26V20C1 9.50659 9.50659 1 20 1Z" fill="url(#paint0_linear_294_418)" stroke="#015486" stroke-width="2"/>
<path d="M40.26 21V11.228C40.6427 11.1813 41.0627 11.1487 41.52 11.13C41.9867 11.102 42.4673 11.088 42.962 11.088C43.774 11.088 44.4647 11.2187 45.034 11.48C45.6033 11.732 46.0373 12.082 46.336 12.53C46.6347 12.978 46.784 13.4913 46.784 14.07C46.784 14.77 46.6113 15.3627 46.266 15.848C45.9207 16.3333 45.44 16.7067 44.824 16.968C44.208 17.22 43.494 17.346 42.682 17.346C42.29 17.346 41.926 17.332 41.59 17.304V21H40.26ZM42.85 16.24C43.6807 16.24 44.3247 16.0533 44.782 15.68C45.2393 15.3067 45.468 14.8073 45.468 14.182C45.468 13.5753 45.2487 13.0947 44.81 12.74C44.3713 12.3853 43.746 12.208 42.934 12.208C42.682 12.208 42.444 12.2127 42.22 12.222C41.996 12.2313 41.786 12.2453 41.59 12.264V16.17C41.7393 16.1887 41.9213 16.2073 42.136 16.226C42.3507 16.2353 42.5887 16.24 42.85 16.24ZM48.5548 21V13.72H49.7728V15.302C49.8941 14.994 50.0574 14.7093 50.2628 14.448C50.4681 14.1773 50.7248 13.9627 51.0328 13.804C51.3408 13.636 51.7001 13.552 52.1108 13.552C52.2508 13.552 52.3908 13.5613 52.5308 13.58C52.6708 13.5893 52.7874 13.608 52.8808 13.636L52.5028 14.938C52.3254 14.8633 52.1154 14.826 51.8728 14.826C51.5274 14.826 51.1961 14.924 50.8788 15.12C50.5708 15.316 50.3141 15.6193 50.1088 16.03C49.9128 16.4407 49.8148 16.9633 49.8148 17.598V21H48.5548ZM56.8087 21.168C56.2021 21.168 55.6514 21.014 55.1567 20.706C54.6621 20.398 54.2654 19.964 53.9667 19.404C53.6774 18.8347 53.5327 18.1673 53.5327 17.402C53.5327 16.674 53.6774 16.0207 53.9667 15.442C54.2654 14.8633 54.6714 14.406 55.1847 14.07C55.7074 13.7247 56.3047 13.552 56.9767 13.552C57.3967 13.552 57.7747 13.6267 58.1107 13.776C58.4561 13.916 58.7547 14.0933 59.0067 14.308V13.72H60.1547V19.236C60.1547 19.5907 60.2387 19.824 60.4067 19.936C60.5841 20.0387 60.7754 20.09 60.9807 20.09L60.7147 21.07C59.8187 21.07 59.2774 20.706 59.0907 19.978C58.8761 20.2767 58.5821 20.552 58.2087 20.804C57.8447 21.0467 57.3781 21.168 56.8087 21.168ZM57.0887 20.048C57.4434 20.048 57.7794 19.964 58.0967 19.796C58.4141 19.6187 58.6801 19.3993 58.8947 19.138V15.232C58.6427 15.0547 58.3627 14.9147 58.0547 14.812C57.7561 14.7 57.4387 14.644 57.1027 14.644C56.6547 14.644 56.2581 14.7607 55.9127 14.994C55.5767 15.218 55.3107 15.5353 55.1147 15.946C54.9187 16.3473 54.8207 16.8187 54.8207 17.36C54.8207 17.8827 54.9187 18.3493 55.1147 18.76C55.3107 19.1613 55.5814 19.4787 55.9267 19.712C56.2721 19.936 56.6594 20.048 57.0887 20.048ZM62.9634 21V13.72H64.2234V21H62.9634ZM63.5934 12.474C63.3507 12.474 63.1407 12.3853 62.9634 12.208C62.7954 12.0307 62.7114 11.8253 62.7114 11.592C62.7114 11.3213 62.7907 11.1067 62.9494 10.948C63.108 10.7893 63.3227 10.71 63.5934 10.71C63.836 10.71 64.0414 10.7987 64.2094 10.976C64.3867 11.144 64.4754 11.3493 64.4754 11.592C64.4754 11.8533 64.396 12.068 64.2374 12.236C64.0787 12.3947 63.864 12.474 63.5934 12.474ZM69.5494 21.168C68.9427 21.168 68.392 21.014 67.8974 20.706C67.4027 20.398 67.006 19.964 66.7074 19.404C66.418 18.8347 66.2734 18.1673 66.2734 17.402C66.2734 16.674 66.418 16.0207 66.7074 15.442C67.006 14.8633 67.412 14.406 67.9254 14.07C68.448 13.7247 69.0454 13.552 69.7174 13.552C70.1374 13.552 70.5154 13.6267 70.8514 13.776C71.1967 13.916 71.4954 14.0933 71.7474 14.308V13.72H72.8954V19.236C72.8954 19.5907 72.9794 19.824 73.1474 19.936C73.3247 20.0387 73.516 20.09 73.7214 20.09L73.4554 21.07C72.5594 21.07 72.018 20.706 71.8314 19.978C71.6167 20.2767 71.3227 20.552 70.9494 20.804C70.5854 21.0467 70.1187 21.168 69.5494 21.168ZM69.8294 20.048C70.184 20.048 70.52 19.964 70.8374 19.796C71.1547 19.6187 71.4207 19.3993 71.6354 19.138V15.232C71.3834 15.0547 71.1034 14.9147 70.7954 14.812C70.4967 14.7 70.1794 14.644 69.8434 14.644C69.3954 14.644 68.9987 14.7607 68.6534 14.994C68.3174 15.218 68.0514 15.5353 67.8554 15.946C67.6594 16.3473 67.5614 16.8187 67.5614 17.36C67.5614 17.8827 67.6594 18.3493 67.8554 18.76C68.0514 19.1613 68.322 19.4787 68.6674 19.712C69.0127 19.936 69.4 20.048 69.8294 20.048ZM82.9592 21.168C82.3619 21.168 81.8159 21.014 81.3212 20.706C80.8266 20.398 80.4346 19.964 80.1452 19.404C79.8559 18.8347 79.7112 18.1673 79.7112 17.402C79.7112 16.6647 79.8559 16.0067 80.1452 15.428C80.4439 14.8493 80.8359 14.392 81.3212 14.056C81.8159 13.72 82.3572 13.552 82.9452 13.552C83.4306 13.552 83.8459 13.65 84.1912 13.846C84.5459 14.042 84.8212 14.2427 85.0172 14.448V10.64H86.2772V19.236C86.2772 19.5907 86.3612 19.824 86.5292 19.936C86.7066 20.0387 86.8979 20.09 87.1032 20.09L86.8372 21.07C85.9506 21.07 85.4092 20.7153 85.2132 20.006C85.0079 20.2953 84.7186 20.5613 84.3452 20.804C83.9812 21.0467 83.5192 21.168 82.9592 21.168ZM83.2392 20.048C83.5846 20.048 83.9112 19.9687 84.2192 19.81C84.5366 19.642 84.8026 19.4273 85.0172 19.166V15.554C84.8399 15.33 84.5926 15.1247 84.2752 14.938C83.9579 14.742 83.6079 14.644 83.2252 14.644C82.7772 14.644 82.3852 14.7653 82.0492 15.008C81.7132 15.2507 81.4519 15.5773 81.2652 15.988C81.0879 16.3893 80.9992 16.8467 80.9992 17.36C80.9992 17.8733 81.0972 18.3353 81.2932 18.746C81.4892 19.1473 81.7552 19.4647 82.0912 19.698C82.4366 19.9313 82.8192 20.048 83.2392 20.048ZM91.8625 21.168C90.8171 21.168 89.9865 20.8367 89.3705 20.174C88.7638 19.502 88.4605 18.564 88.4605 17.36C88.4605 16.632 88.5958 15.9833 88.8665 15.414C89.1465 14.8353 89.5338 14.3827 90.0285 14.056C90.5231 13.72 91.0971 13.552 91.7505 13.552C92.4505 13.552 93.0291 13.706 93.4865 14.014C93.9531 14.3127 94.3031 14.7187 94.5365 15.232C94.7698 15.7453 94.8865 16.31 94.8865 16.926C94.8865 17.2527 94.8725 17.57 94.8445 17.878H89.7485C89.8325 18.5593 90.0705 19.0913 90.4625 19.474C90.8545 19.8567 91.3725 20.048 92.0165 20.048C92.4365 20.048 92.8145 20.006 93.1505 19.922C93.4865 19.8287 93.8085 19.712 94.1165 19.572L94.4105 20.65C94.0745 20.7993 93.6965 20.9207 93.2765 21.014C92.8565 21.1167 92.3851 21.168 91.8625 21.168ZM89.7345 16.856H93.7245C93.7245 16.1467 93.5471 15.6007 93.1925 15.218C92.8378 14.8353 92.3478 14.644 91.7225 14.644C91.1811 14.644 90.7331 14.8353 90.3785 15.218C90.0238 15.5913 89.8091 16.1373 89.7345 16.856ZM101.503 21V11.2H102.833V21H101.503ZM108.066 21.168C107.366 21.168 106.811 20.9393 106.4 20.482C105.999 20.0153 105.798 19.3527 105.798 18.494V15.078H104.538V13.986H105.826L106.092 11.69H107.058V13.986H109.074V15.078H107.058V18.592C107.058 19.1333 107.17 19.5113 107.394 19.726C107.628 19.9407 107.903 20.048 108.22 20.048C108.454 20.048 108.673 20.0107 108.878 19.936C109.093 19.8613 109.289 19.7727 109.466 19.67L109.816 20.678C109.63 20.79 109.378 20.8973 109.06 21C108.743 21.112 108.412 21.168 108.066 21.168ZM113.895 21.168C113.289 21.168 112.738 21.014 112.243 20.706C111.749 20.398 111.352 19.964 111.053 19.404C110.764 18.8347 110.619 18.1673 110.619 17.402C110.619 16.674 110.764 16.0207 111.053 15.442C111.352 14.8633 111.758 14.406 112.271 14.07C112.794 13.7247 113.391 13.552 114.063 13.552C114.483 13.552 114.861 13.6267 115.197 13.776C115.543 13.916 115.841 14.0933 116.093 14.308V13.72H117.241V19.236C117.241 19.5907 117.325 19.824 117.493 19.936C117.671 20.0387 117.862 20.09 118.067 20.09L117.801 21.07C116.905 21.07 116.364 20.706 116.177 19.978C115.963 20.2767 115.669 20.552 115.295 20.804C114.931 21.0467 114.465 21.168 113.895 21.168ZM114.175 20.048C114.53 20.048 114.866 19.964 115.183 19.796C115.501 19.6187 115.767 19.3993 115.981 19.138V15.232C115.729 15.0547 115.449 14.9147 115.141 14.812C114.843 14.7 114.525 14.644 114.189 14.644C113.741 14.644 113.345 14.7607 112.999 14.994C112.663 15.218 112.397 15.5353 112.201 15.946C112.005 16.3473 111.907 16.8187 111.907 17.36C111.907 17.8827 112.005 18.3493 112.201 18.76C112.397 19.1613 112.668 19.4787 113.013 19.712C113.359 19.936 113.746 20.048 114.175 20.048ZM120.05 21V13.72H121.31V21H120.05ZM120.68 12.474C120.437 12.474 120.227 12.3853 120.05 12.208C119.882 12.0307 119.798 11.8253 119.798 11.592C119.798 11.3213 119.877 11.1067 120.036 10.948C120.195 10.7893 120.409 10.71 120.68 10.71C120.923 10.71 121.128 10.7987 121.296 10.976C121.473 11.144 121.562 11.3493 121.562 11.592C121.562 11.8533 121.483 12.068 121.324 12.236C121.165 12.3947 120.951 12.474 120.68 12.474ZM124.116 24.08V15.582C124.116 15.2647 124.037 15.0407 123.878 14.91C123.729 14.77 123.533 14.7 123.29 14.7L123.556 13.72C124.415 13.72 124.951 14.0607 125.166 14.742C125.259 14.602 125.409 14.4387 125.614 14.252C125.829 14.0653 126.09 13.902 126.398 13.762C126.715 13.622 127.075 13.552 127.476 13.552C128.036 13.552 128.559 13.7013 129.044 14C129.539 14.2893 129.935 14.714 130.234 15.274C130.533 15.8247 130.682 16.4967 130.682 17.29C130.682 18.0647 130.533 18.746 130.234 19.334C129.935 19.9127 129.543 20.3653 129.058 20.692C128.582 21.0093 128.064 21.168 127.504 21.168C127.075 21.168 126.673 21.084 126.3 20.916C125.927 20.7387 125.619 20.538 125.376 20.314V24.08H124.116ZM127.252 20.048C127.887 20.048 128.4 19.8007 128.792 19.306C129.193 18.802 129.394 18.144 129.394 17.332C129.394 16.772 129.291 16.2913 129.086 15.89C128.89 15.4887 128.624 15.1807 128.288 14.966C127.961 14.7513 127.597 14.644 127.196 14.644C126.795 14.644 126.431 14.7467 126.104 14.952C125.787 15.148 125.544 15.3627 125.376 15.596V19.18C125.619 19.432 125.899 19.642 126.216 19.81C126.533 19.9687 126.879 20.048 127.252 20.048ZM135.116 21.168C134.696 21.168 134.299 21.0793 133.926 20.902C133.553 20.7247 133.249 20.44 133.016 20.048C132.783 19.6467 132.666 19.1147 132.666 18.452V13.72H133.926V18.284C133.926 18.8533 134.047 19.292 134.29 19.6C134.533 19.8987 134.887 20.048 135.354 20.048C135.737 20.048 136.105 19.9733 136.46 19.824C136.824 19.6653 137.146 19.4553 137.426 19.194V13.72H138.686V19.11C138.686 19.5113 138.77 19.7773 138.938 19.908C139.115 20.0293 139.307 20.09 139.512 20.09L139.246 21.07C138.378 21.07 137.841 20.7247 137.636 20.034C137.309 20.37 136.931 20.6453 136.502 20.86C136.073 21.0653 135.611 21.168 135.116 21.168Z" fill="#015486"/>
<path d="M43.44 36L41.78 33.15H40.68V36H39.77V29.03H42.02C42.5467 29.03 42.99 29.12 43.35 29.3C43.7167 29.48 43.99 29.7233 44.17 30.03C44.35 30.3367 44.44 30.6867 44.44 31.08C44.44 31.56 44.3 31.9833 44.02 32.35C43.7467 32.7167 43.3333 32.96 42.78 33.08L44.53 36H43.44ZM40.68 32.42H42.02C42.5133 32.42 42.8833 32.3 43.13 32.06C43.3767 31.8133 43.5 31.4867 43.5 31.08C43.5 30.6667 43.3767 30.3467 43.13 30.12C42.89 29.8933 42.52 29.78 42.02 29.78H40.68V32.42ZM51.154 33.05C51.154 33.2233 51.144 33.4067 51.124 33.6H46.744C46.7773 34.14 46.9607 34.5633 47.294 34.87C47.634 35.17 48.044 35.32 48.524 35.32C48.9173 35.32 49.244 35.23 49.504 35.05C49.7707 34.8633 49.9573 34.6167 50.064 34.31H51.044C50.8973 34.8367 50.604 35.2667 50.164 35.6C49.724 35.9267 49.1773 36.09 48.524 36.09C48.004 36.09 47.5373 35.9733 47.124 35.74C46.7173 35.5067 46.3973 35.1767 46.164 34.75C45.9307 34.3167 45.814 33.8167 45.814 33.25C45.814 32.6833 45.9273 32.1867 46.154 31.76C46.3807 31.3333 46.6973 31.0067 47.104 30.78C47.5173 30.5467 47.9907 30.43 48.524 30.43C49.044 30.43 49.504 30.5433 49.904 30.77C50.304 30.9967 50.6107 31.31 50.824 31.71C51.044 32.1033 51.154 32.55 51.154 33.05ZM50.214 32.86C50.214 32.5133 50.1373 32.2167 49.984 31.97C49.8307 31.7167 49.6207 31.5267 49.354 31.4C49.094 31.2667 48.804 31.2 48.484 31.2C48.024 31.2 47.6307 31.3467 47.304 31.64C46.984 31.9333 46.8007 32.34 46.754 32.86H50.214ZM54.5952 36.09C54.1752 36.09 53.7985 36.02 53.4652 35.88C53.1318 35.7333 52.8685 35.5333 52.6752 35.28C52.4818 35.02 52.3752 34.7233 52.3552 34.39H53.2952C53.3218 34.6633 53.4485 34.8867 53.6752 35.06C53.9085 35.2333 54.2118 35.32 54.5852 35.32C54.9318 35.32 55.2052 35.2433 55.4052 35.09C55.6052 34.9367 55.7052 34.7433 55.7052 34.51C55.7052 34.27 55.5985 34.0933 55.3852 33.98C55.1718 33.86 54.8418 33.7433 54.3952 33.63C53.9885 33.5233 53.6552 33.4167 53.3952 33.31C53.1418 33.1967 52.9218 33.0333 52.7352 32.82C52.5552 32.6 52.4652 32.3133 52.4652 31.96C52.4652 31.68 52.5485 31.4233 52.7152 31.19C52.8818 30.9567 53.1185 30.7733 53.4252 30.64C53.7318 30.5 54.0818 30.43 54.4752 30.43C55.0818 30.43 55.5718 30.5833 55.9452 30.89C56.3185 31.1967 56.5185 31.6167 56.5452 32.15H55.6352C55.6152 31.8633 55.4985 31.6333 55.2852 31.46C55.0785 31.2867 54.7985 31.2 54.4452 31.2C54.1185 31.2 53.8585 31.27 53.6652 31.41C53.4718 31.55 53.3752 31.7333 53.3752 31.96C53.3752 32.14 53.4318 32.29 53.5452 32.41C53.6652 32.5233 53.8118 32.6167 53.9852 32.69C54.1652 32.7567 54.4118 32.8333 54.7252 32.92C55.1185 33.0267 55.4385 33.1333 55.6852 33.24C55.9318 33.34 56.1418 33.4933 56.3152 33.7C56.4952 33.9067 56.5885 34.1767 56.5952 34.51C56.5952 34.81 56.5118 35.08 56.3452 35.32C56.1785 35.56 55.9418 35.75 55.6352 35.89C55.3352 36.0233 54.9885 36.09 54.5952 36.09ZM59.2898 31.27V34.5C59.2898 34.7667 59.3464 34.9567 59.4598 35.07C59.5731 35.1767 59.7698 35.23 60.0498 35.23H60.7198V36H59.8998C59.3931 36 59.0131 35.8833 58.7598 35.65C58.5064 35.4167 58.3798 35.0333 58.3798 34.5V31.27H57.6698V30.52H58.3798V29.14H59.2898V30.52H60.7198V31.27H59.2898ZM61.7823 33.24C61.7823 32.68 61.8957 32.19 62.1223 31.77C62.349 31.3433 62.659 31.0133 63.0523 30.78C63.4523 30.5467 63.8957 30.43 64.3823 30.43C64.8623 30.43 65.279 30.5333 65.6323 30.74C65.9857 30.9467 66.249 31.2067 66.4223 31.52V30.52H67.3423V36H66.4223V34.98C66.2423 35.3 65.9723 35.5667 65.6123 35.78C65.259 35.9867 64.8457 36.09 64.3723 36.09C63.8857 36.09 63.4457 35.97 63.0523 35.73C62.659 35.49 62.349 35.1533 62.1223 34.72C61.8957 34.2867 61.7823 33.7933 61.7823 33.24ZM66.4223 33.25C66.4223 32.8367 66.339 32.4767 66.1723 32.17C66.0057 31.8633 65.779 31.63 65.4923 31.47C65.2123 31.3033 64.9023 31.22 64.5623 31.22C64.2223 31.22 63.9123 31.3 63.6323 31.46C63.3523 31.62 63.129 31.8533 62.9623 32.16C62.7957 32.4667 62.7123 32.8267 62.7123 33.24C62.7123 33.66 62.7957 34.0267 62.9623 34.34C63.129 34.6467 63.3523 34.8833 63.6323 35.05C63.9123 35.21 64.2223 35.29 64.5623 35.29C64.9023 35.29 65.2123 35.21 65.4923 35.05C65.779 34.8833 66.0057 34.6467 66.1723 34.34C66.339 34.0267 66.4223 33.6633 66.4223 33.25ZM74.0402 30.52V36H73.1302V35.19C72.9568 35.47 72.7135 35.69 72.4002 35.85C72.0935 36.0033 71.7535 36.08 71.3802 36.08C70.9535 36.08 70.5702 35.9933 70.2302 35.82C69.8902 35.64 69.6202 35.3733 69.4202 35.02C69.2268 34.6667 69.1302 34.2367 69.1302 33.73V30.52H70.0302V33.61C70.0302 34.15 70.1668 34.5667 70.4402 34.86C70.7135 35.1467 71.0868 35.29 71.5602 35.29C72.0468 35.29 72.4302 35.14 72.7102 34.84C72.9902 34.54 73.1302 34.1033 73.1302 33.53V30.52H74.0402ZM76.7866 31.41C76.9466 31.0967 77.1733 30.8533 77.4666 30.68C77.7666 30.5067 78.13 30.42 78.5566 30.42V31.36H78.3166C77.2966 31.36 76.7866 31.9133 76.7866 33.02V36H75.8766V30.52H76.7866V31.41ZM79.5671 33.24C79.5671 32.68 79.6804 32.19 79.9071 31.77C80.1338 31.3433 80.4438 31.0133 80.8371 30.78C81.2371 30.5467 81.6804 30.43 82.1671 30.43C82.6471 30.43 83.0638 30.5333 83.4171 30.74C83.7704 30.9467 84.0338 31.2067 84.2071 31.52V30.52H85.1271V36H84.2071V34.98C84.0271 35.3 83.7571 35.5667 83.3971 35.78C83.0438 35.9867 82.6304 36.09 82.1571 36.09C81.6704 36.09 81.2304 35.97 80.8371 35.73C80.4438 35.49 80.1338 35.1533 79.9071 34.72C79.6804 34.2867 79.5671 33.7933 79.5671 33.24ZM84.2071 33.25C84.2071 32.8367 84.1238 32.4767 83.9571 32.17C83.7904 31.8633 83.5638 31.63 83.2771 31.47C82.9971 31.3033 82.6871 31.22 82.3471 31.22C82.0071 31.22 81.6971 31.3 81.4171 31.46C81.1371 31.62 80.9138 31.8533 80.7471 32.16C80.5804 32.4667 80.4971 32.8267 80.4971 33.24C80.4971 33.66 80.5804 34.0267 80.7471 34.34C80.9138 34.6467 81.1371 34.8833 81.4171 35.05C81.6971 35.21 82.0071 35.29 82.3471 35.29C82.6871 35.29 82.9971 35.21 83.2771 35.05C83.5638 34.8833 83.7904 34.6467 83.9571 34.34C84.1238 34.0267 84.2071 33.6633 84.2071 33.25ZM89.6349 30.42C90.3016 30.42 90.8416 30.6233 91.2549 31.03C91.6683 31.43 91.8749 32.01 91.8749 32.77V36H90.9749V32.9C90.9749 32.3533 90.8383 31.9367 90.5649 31.65C90.2916 31.3567 89.9183 31.21 89.4449 31.21C88.9649 31.21 88.5816 31.36 88.2949 31.66C88.0149 31.96 87.8749 32.3967 87.8749 32.97V36H86.9649V30.52H87.8749V31.3C88.0549 31.02 88.2983 30.8033 88.6049 30.65C88.9183 30.4967 89.2616 30.42 89.6349 30.42ZM94.7714 31.27V34.5C94.7714 34.7667 94.8281 34.9567 94.9414 35.07C95.0547 35.1767 95.2514 35.23 95.5314 35.23H96.2014V36H95.3814C94.8747 36 94.4947 35.8833 94.2414 35.65C93.9881 35.4167 93.8614 35.0333 93.8614 34.5V31.27H93.1514V30.52H93.8614V29.14H94.7714V30.52H96.2014V31.27H94.7714ZM102.604 33.05C102.604 33.2233 102.594 33.4067 102.574 33.6H98.194C98.2273 34.14 98.4107 34.5633 98.744 34.87C99.084 35.17 99.494 35.32 99.974 35.32C100.367 35.32 100.694 35.23 100.954 35.05C101.221 34.8633 101.407 34.6167 101.514 34.31H102.494C102.347 34.8367 102.054 35.2667 101.614 35.6C101.174 35.9267 100.627 36.09 99.974 36.09C99.454 36.09 98.9873 35.9733 98.574 35.74C98.1673 35.5067 97.8473 35.1767 97.614 34.75C97.3807 34.3167 97.264 33.8167 97.264 33.25C97.264 32.6833 97.3773 32.1867 97.604 31.76C97.8307 31.3333 98.1473 31.0067 98.554 30.78C98.9673 30.5467 99.4407 30.43 99.974 30.43C100.494 30.43 100.954 30.5433 101.354 30.77C101.754 30.9967 102.061 31.31 102.274 31.71C102.494 32.1033 102.604 32.55 102.604 33.05ZM101.664 32.86C101.664 32.5133 101.587 32.2167 101.434 31.97C101.281 31.7167 101.071 31.5267 100.804 31.4C100.544 31.2667 100.254 31.2 99.934 31.2C99.474 31.2 99.0807 31.3467 98.754 31.64C98.434 31.9333 98.2507 32.34 98.204 32.86H101.664ZM112.831 29.03L110.201 36H109.151L106.521 29.03H107.491L109.681 35.04L111.871 29.03H112.831ZM113.789 33.24C113.789 32.68 113.902 32.19 114.129 31.77C114.356 31.3433 114.666 31.0133 115.059 30.78C115.459 30.5467 115.902 30.43 116.389 30.43C116.869 30.43 117.286 30.5333 117.639 30.74C117.992 30.9467 118.256 31.2067 118.429 31.52V30.52H119.349V36H118.429V34.98C118.249 35.3 117.979 35.5667 117.619 35.78C117.266 35.9867 116.852 36.09 116.379 36.09C115.892 36.09 115.452 35.97 115.059 35.73C114.666 35.49 114.356 35.1533 114.129 34.72C113.902 34.2867 113.789 33.7933 113.789 33.24ZM118.429 33.25C118.429 32.8367 118.346 32.4767 118.179 32.17C118.012 31.8633 117.786 31.63 117.499 31.47C117.219 31.3033 116.909 31.22 116.569 31.22C116.229 31.22 115.919 31.3 115.639 31.46C115.359 31.62 115.136 31.8533 114.969 32.16C114.802 32.4667 114.719 32.8267 114.719 33.24C114.719 33.66 114.802 34.0267 114.969 34.34C115.136 34.6467 115.359 34.8833 115.639 35.05C115.919 35.21 116.229 35.29 116.569 35.29C116.909 35.29 117.219 35.21 117.499 35.05C117.786 34.8833 118.012 34.6467 118.179 34.34C118.346 34.0267 118.429 33.6633 118.429 33.25ZM122.097 31.41C122.257 31.0967 122.483 30.8533 122.777 30.68C123.077 30.5067 123.44 30.42 123.867 30.42V31.36H123.627C122.607 31.36 122.097 31.9133 122.097 33.02V36H121.187V30.52H122.097V31.41ZM124.877 33.24C124.877 32.68 124.991 32.19 125.217 31.77C125.444 31.3433 125.754 31.0133 126.147 30.78C126.547 30.5467 126.991 30.43 127.477 30.43C127.957 30.43 128.374 30.5333 128.727 30.74C129.081 30.9467 129.344 31.2067 129.517 31.52V30.52H130.437V36H129.517V34.98C129.337 35.3 129.067 35.5667 128.707 35.78C128.354 35.9867 127.941 36.09 127.467 36.09C126.981 36.09 126.541 35.97 126.147 35.73C125.754 35.49 125.444 35.1533 125.217 34.72C124.991 34.2867 124.877 33.7933 124.877 33.24ZM129.517 33.25C129.517 32.8367 129.434 32.4767 129.267 32.17C129.101 31.8633 128.874 31.63 128.587 31.47C128.307 31.3033 127.997 31.22 127.657 31.22C127.317 31.22 127.007 31.3 126.727 31.46C126.447 31.62 126.224 31.8533 126.057 32.16C125.891 32.4667 125.807 32.8267 125.807 33.24C125.807 33.66 125.891 34.0267 126.057 34.34C126.224 34.6467 126.447 34.8833 126.727 35.05C127.007 35.21 127.317 35.29 127.657 35.29C127.997 35.29 128.307 35.21 128.587 35.05C128.874 34.8833 129.101 34.6467 129.267 34.34C129.434 34.0267 129.517 33.6633 129.517 33.25ZM134.945 30.42C135.612 30.42 136.152 30.6233 136.565 31.03C136.978 31.43 137.185 32.01 137.185 32.77V36H136.285V32.9C136.285 32.3533 136.148 31.9367 135.875 31.65C135.602 31.3567 135.228 31.21 134.755 31.21C134.275 31.21 133.892 31.36 133.605 31.66C133.325 31.96 133.185 32.3967 133.185 32.97V36H132.275V30.52H133.185V31.3C133.365 31.02 133.608 30.8033 133.915 30.65C134.228 30.4967 134.572 30.42 134.945 30.42ZM138.632 33.24C138.632 32.68 138.745 32.19 138.972 31.77C139.198 31.3433 139.508 31.0133 139.902 30.78C140.302 30.5467 140.748 30.43 141.242 30.43C141.668 30.43 142.065 30.53 142.432 30.73C142.798 30.9233 143.078 31.18 143.272 31.5V28.6H144.192V36H143.272V34.97C143.092 35.2967 142.825 35.5667 142.472 35.78C142.118 35.9867 141.705 36.09 141.232 36.09C140.745 36.09 140.302 35.97 139.902 35.73C139.508 35.49 139.198 35.1533 138.972 34.72C138.745 34.2867 138.632 33.7933 138.632 33.24ZM143.272 33.25C143.272 32.8367 143.188 32.4767 143.022 32.17C142.855 31.8633 142.628 31.63 142.342 31.47C142.062 31.3033 141.752 31.22 141.412 31.22C141.072 31.22 140.762 31.3 140.482 31.46C140.202 31.62 139.978 31.8533 139.812 32.16C139.645 32.4667 139.562 32.8267 139.562 33.24C139.562 33.66 139.645 34.0267 139.812 34.34C139.978 34.6467 140.202 34.8833 140.482 35.05C140.762 35.21 141.072 35.29 141.412 35.29C141.752 35.29 142.062 35.21 142.342 35.05C142.628 34.8833 142.855 34.6467 143.022 34.34C143.188 34.0267 143.272 33.6633 143.272 33.25ZM145.689 33.24C145.689 32.68 145.803 32.19 146.029 31.77C146.256 31.3433 146.566 31.0133 146.959 30.78C147.359 30.5467 147.803 30.43 148.289 30.43C148.769 30.43 149.186 30.5333 149.539 30.74C149.893 30.9467 150.156 31.2067 150.329 31.52V30.52H151.249V36H150.329V34.98C150.149 35.3 149.879 35.5667 149.519 35.78C149.166 35.9867 148.753 36.09 148.279 36.09C147.793 36.09 147.353 35.97 146.959 35.73C146.566 35.49 146.256 35.1533 146.029 34.72C145.803 34.2867 145.689 33.7933 145.689 33.24ZM150.329 33.25C150.329 32.8367 150.246 32.4767 150.079 32.17C149.913 31.8633 149.686 31.63 149.399 31.47C149.119 31.3033 148.809 31.22 148.469 31.22C148.129 31.22 147.819 31.3 147.539 31.46C147.259 31.62 147.036 31.8533 146.869 32.16C146.703 32.4667 146.619 32.8267 146.619 33.24C146.619 33.66 146.703 34.0267 146.869 34.34C147.036 34.6467 147.259 34.8833 147.539 35.05C147.819 35.21 148.129 35.29 148.469 35.29C148.809 35.29 149.119 35.21 149.399 35.05C149.686 34.8833 149.913 34.6467 150.079 34.34C150.246 34.0267 150.329 33.6633 150.329 33.25ZM147.179 29.93C147.226 29.59 147.336 29.33 147.509 29.15C147.689 28.97 147.913 28.88 148.179 28.88C148.306 28.88 148.413 28.9033 148.499 28.95C148.593 28.99 148.703 29.05 148.829 29.13C148.923 29.1967 149.006 29.25 149.079 29.29C149.153 29.3233 149.233 29.34 149.319 29.34C149.433 29.34 149.529 29.3033 149.609 29.23C149.689 29.1567 149.739 29.05 149.759 28.91H150.279C150.239 29.2433 150.129 29.5 149.949 29.68C149.769 29.86 149.546 29.95 149.279 29.95C149.153 29.95 149.039 29.93 148.939 29.89C148.846 29.8433 148.739 29.7767 148.619 29.69C148.513 29.6233 148.426 29.5733 148.359 29.54C148.299 29.5067 148.226 29.49 148.139 29.49C148.026 29.49 147.929 29.5267 147.849 29.6C147.776 29.6733 147.729 29.7833 147.709 29.93H147.179ZM155.477 36.09C154.964 36.09 154.497 35.9733 154.077 35.74C153.664 35.5067 153.337 35.1767 153.097 34.75C152.864 34.3167 152.747 33.8167 152.747 33.25C152.747 32.69 152.867 32.1967 153.107 31.77C153.354 31.3367 153.687 31.0067 154.107 30.78C154.527 30.5467 154.997 30.43 155.517 30.43C156.037 30.43 156.507 30.5467 156.927 30.78C157.347 31.0067 157.677 31.3333 157.917 31.76C158.164 32.1867 158.287 32.6833 158.287 33.25C158.287 33.8167 158.161 34.3167 157.907 34.75C157.661 35.1767 157.324 35.5067 156.897 35.74C156.471 35.9733 155.997 36.09 155.477 36.09ZM155.477 35.29C155.804 35.29 156.111 35.2133 156.397 35.06C156.684 34.9067 156.914 34.6767 157.087 34.37C157.267 34.0633 157.357 33.69 157.357 33.25C157.357 32.81 157.271 32.4367 157.097 32.13C156.924 31.8233 156.697 31.5967 156.417 31.45C156.137 31.2967 155.834 31.22 155.507 31.22C155.174 31.22 154.867 31.2967 154.587 31.45C154.314 31.5967 154.094 31.8233 153.927 32.13C153.761 32.4367 153.677 32.81 153.677 33.25C153.677 33.6967 153.757 34.0733 153.917 34.38C154.084 34.6867 154.304 34.9167 154.577 35.07C154.851 35.2167 155.151 35.29 155.477 35.29Z" fill="#98A4AE"/>
<path d="M73.9434 45.5L108.058 45.5L91.001 68.3301L73.9434 45.5Z" fill="white" stroke="#015486" stroke-width="2"/>
<path d="M91 65L71.0814 41L110.919 41L91 65Z" fill="white"/>
<path d="M31.155 11.978C30.2796 11.4725 29.3132 11.1443 28.311 11.0123C27.3088 10.8803 26.2904 10.947 25.314 11.2086C24.3376 11.4702 23.4223 11.9215 22.6203 12.5369C21.8183 13.1523 21.1454 13.9196 20.64 14.795L20.35 15.297C20.2507 15.4693 20.2239 15.6739 20.2755 15.8659C20.3271 16.0579 20.4528 16.2216 20.625 16.321L26.086 19.474L22.818 25.194L22.75 25.193C19.592 25.193 16.857 27.025 15.228 29.615C15.5062 29.5166 15.8027 29.481 16.0963 29.5108C16.3898 29.5405 16.6732 29.6348 16.926 29.787C18.338 27.921 20.444 26.693 22.75 26.693C25.154 26.693 27.341 28.028 28.75 30.029C28.9448 29.8497 29.1733 29.7109 29.4222 29.6206C29.6711 29.5303 29.9355 29.4903 30.2 29.503C28.869 27.445 26.833 25.883 24.444 25.372L27.385 20.224L32.658 23.269C32.7433 23.3183 32.8376 23.3503 32.9353 23.3631C33.033 23.376 33.1323 23.3695 33.2275 23.3439C33.3227 23.3184 33.4119 23.2743 33.4901 23.2143C33.5682 23.1543 33.6338 23.0794 33.683 22.994L33.973 22.493C34.4785 21.6176 34.8065 20.6511 34.9385 19.6489C35.0704 18.6466 35.0036 17.6282 34.742 16.6518C34.4803 15.6754 34.0288 14.7601 33.4134 13.9581C32.7979 13.1562 32.0305 12.4833 31.155 11.978ZM28.965 19.404L25.807 17.58C26.379 16.699 26.923 16.028 27.575 15.435C28.21 14.857 28.968 14.335 29.996 13.767C30.148 14.722 30.194 15.517 30.096 16.297C29.98 17.229 29.651 18.19 28.963 19.403M30.261 20.153C31.021 18.815 31.437 17.663 31.584 16.483C31.681 15.709 31.659 14.945 31.562 14.138C32.5536 15.0759 33.208 16.3148 33.4237 17.6625C33.6394 19.0102 33.4043 20.3915 32.755 21.592L30.261 20.153ZM26.565 14.325C25.775 15.044 25.14 15.844 24.505 16.829L22.025 15.397C22.7247 14.2594 23.773 13.3782 25.014 12.8845C26.2549 12.3908 27.6221 12.311 28.912 12.657C27.983 13.192 27.227 13.722 26.565 14.325ZM16.605 31.263C16.5536 31.1087 16.4535 30.9752 16.3197 30.8828C16.1859 30.7903 16.0257 30.7439 15.8632 30.7504C15.7007 30.757 15.5447 30.8162 15.4188 30.9191C15.2928 31.022 15.2038 31.163 15.165 31.321C14.91 32.363 14.427 32.935 13.877 33.267C13.301 33.615 12.567 33.749 11.748 33.749C11.5491 33.749 11.3583 33.828 11.2177 33.9687C11.077 34.1093 10.998 34.3001 10.998 34.499C10.998 34.6979 11.077 34.8887 11.2177 35.0293C11.3583 35.17 11.5491 35.249 11.748 35.249C12.705 35.249 13.748 35.097 14.652 34.551C15.1912 34.2252 15.6459 33.7767 15.979 33.242C17.768 35.524 21.261 35.512 22.998 33.218C24.763 35.548 28.338 35.524 30.101 33.132C30.5796 33.7834 31.2038 34.3141 31.9238 34.6816C32.6437 35.0492 33.4396 35.2435 34.248 35.249C34.4469 35.249 34.6377 35.17 34.7783 35.0293C34.919 34.8887 34.998 34.6979 34.998 34.499C34.998 34.3001 34.919 34.1093 34.7783 33.9687C34.6377 33.828 34.4469 33.749 34.248 33.749C32.773 33.749 31.303 32.789 30.818 31.271C30.77 31.1199 30.6754 30.9879 30.5477 30.894C30.42 30.8001 30.2659 30.749 30.1074 30.7481C29.9489 30.7472 29.7942 30.7965 29.6655 30.8891C29.5368 30.9816 29.4407 31.1125 29.391 31.263C28.428 34.172 24.653 34.135 23.707 31.384C23.6561 31.2364 23.5604 31.1085 23.4333 31.0179C23.3062 30.9273 23.1541 30.8786 22.998 30.8786C22.8419 30.8786 22.6897 30.9273 22.5626 31.0179C22.4355 31.1085 22.3399 31.2364 22.289 31.384C21.343 34.135 17.569 34.171 16.605 31.263Z" fill="#015486"/>
<defs>
<linearGradient id="paint0_linear_294_418" x1="179.069" y1="0.748829" x2="-69.2821" y2="206.234" gradientUnits="userSpaceOnUse">
<stop stop-color="white"/>
</linearGradient>
</defs>
</svg>
