<svg width="181" height="70" viewBox="0 0 181 70" fill="none" xmlns="http://www.w3.org/2000/svg">
<path d="M20 1H161C171.493 1 180 9.50659 180 20V26C180 36.4934 171.493 45 161 45H20C9.50659 45 1 36.4934 1 26V20C1 9.50659 9.50659 1 20 1Z" fill="url(#paint0_linear_294_348)" stroke="#015486" stroke-width="2"/>
<path d="M40.26 21V11.228C40.6427 11.1813 41.0627 11.1487 41.52 11.13C41.9867 11.102 42.4673 11.088 42.962 11.088C43.774 11.088 44.4647 11.2187 45.034 11.48C45.6033 11.732 46.0373 12.082 46.336 12.53C46.6347 12.978 46.784 13.4913 46.784 14.07C46.784 14.77 46.6113 15.3627 46.266 15.848C45.9207 16.3333 45.44 16.7067 44.824 16.968C44.208 17.22 43.494 17.346 42.682 17.346C42.29 17.346 41.926 17.332 41.59 17.304V21H40.26ZM42.85 16.24C43.6807 16.24 44.3247 16.0533 44.782 15.68C45.2393 15.3067 45.468 14.8073 45.468 14.182C45.468 13.5753 45.2487 13.0947 44.81 12.74C44.3713 12.3853 43.746 12.208 42.934 12.208C42.682 12.208 42.444 12.2127 42.22 12.222C41.996 12.2313 41.786 12.2453 41.59 12.264V16.17C41.7393 16.1887 41.9213 16.2073 42.136 16.226C42.3507 16.2353 42.5887 16.24 42.85 16.24ZM48.5548 21V13.72H49.7728V15.302C49.8941 14.994 50.0574 14.7093 50.2628 14.448C50.4681 14.1773 50.7248 13.9627 51.0328 13.804C51.3408 13.636 51.7001 13.552 52.1108 13.552C52.2508 13.552 52.3908 13.5613 52.5308 13.58C52.6708 13.5893 52.7874 13.608 52.8808 13.636L52.5028 14.938C52.3254 14.8633 52.1154 14.826 51.8728 14.826C51.5274 14.826 51.1961 14.924 50.8788 15.12C50.5708 15.316 50.3141 15.6193 50.1088 16.03C49.9128 16.4407 49.8148 16.9633 49.8148 17.598V21H48.5548ZM56.8087 21.168C56.2021 21.168 55.6514 21.014 55.1567 20.706C54.6621 20.398 54.2654 19.964 53.9667 19.404C53.6774 18.8347 53.5327 18.1673 53.5327 17.402C53.5327 16.674 53.6774 16.0207 53.9667 15.442C54.2654 14.8633 54.6714 14.406 55.1847 14.07C55.7074 13.7247 56.3047 13.552 56.9767 13.552C57.3967 13.552 57.7747 13.6267 58.1107 13.776C58.4561 13.916 58.7547 14.0933 59.0067 14.308V13.72H60.1547V19.236C60.1547 19.5907 60.2387 19.824 60.4067 19.936C60.5841 20.0387 60.7754 20.09 60.9807 20.09L60.7147 21.07C59.8187 21.07 59.2774 20.706 59.0907 19.978C58.8761 20.2767 58.5821 20.552 58.2087 20.804C57.8447 21.0467 57.3781 21.168 56.8087 21.168ZM57.0887 20.048C57.4434 20.048 57.7794 19.964 58.0967 19.796C58.4141 19.6187 58.6801 19.3993 58.8947 19.138V15.232C58.6427 15.0547 58.3627 14.9147 58.0547 14.812C57.7561 14.7 57.4387 14.644 57.1027 14.644C56.6547 14.644 56.2581 14.7607 55.9127 14.994C55.5767 15.218 55.3107 15.5353 55.1147 15.946C54.9187 16.3473 54.8207 16.8187 54.8207 17.36C54.8207 17.8827 54.9187 18.3493 55.1147 18.76C55.3107 19.1613 55.5814 19.4787 55.9267 19.712C56.2721 19.936 56.6594 20.048 57.0887 20.048ZM62.9634 21V13.72H64.2234V21H62.9634ZM63.5934 12.474C63.3507 12.474 63.1407 12.3853 62.9634 12.208C62.7954 12.0307 62.7114 11.8253 62.7114 11.592C62.7114 11.3213 62.7907 11.1067 62.9494 10.948C63.108 10.7893 63.3227 10.71 63.5934 10.71C63.836 10.71 64.0414 10.7987 64.2094 10.976C64.3867 11.144 64.4754 11.3493 64.4754 11.592C64.4754 11.8533 64.396 12.068 64.2374 12.236C64.0787 12.3947 63.864 12.474 63.5934 12.474ZM69.5494 21.168C68.9427 21.168 68.392 21.014 67.8974 20.706C67.4027 20.398 67.006 19.964 66.7074 19.404C66.418 18.8347 66.2734 18.1673 66.2734 17.402C66.2734 16.674 66.418 16.0207 66.7074 15.442C67.006 14.8633 67.412 14.406 67.9254 14.07C68.448 13.7247 69.0454 13.552 69.7174 13.552C70.1374 13.552 70.5154 13.6267 70.8514 13.776C71.1967 13.916 71.4954 14.0933 71.7474 14.308V13.72H72.8954V19.236C72.8954 19.5907 72.9794 19.824 73.1474 19.936C73.3247 20.0387 73.516 20.09 73.7214 20.09L73.4554 21.07C72.5594 21.07 72.018 20.706 71.8314 19.978C71.6167 20.2767 71.3227 20.552 70.9494 20.804C70.5854 21.0467 70.1187 21.168 69.5494 21.168ZM69.8294 20.048C70.184 20.048 70.52 19.964 70.8374 19.796C71.1547 19.6187 71.4207 19.3993 71.6354 19.138V15.232C71.3834 15.0547 71.1034 14.9147 70.7954 14.812C70.4967 14.7 70.1794 14.644 69.8434 14.644C69.3954 14.644 68.9987 14.7607 68.6534 14.994C68.3174 15.218 68.0514 15.5353 67.8554 15.946C67.6594 16.3473 67.5614 16.8187 67.5614 17.36C67.5614 17.8827 67.6594 18.3493 67.8554 18.76C68.0514 19.1613 68.322 19.4787 68.6674 19.712C69.0127 19.936 69.4 20.048 69.8294 20.048ZM82.9592 21.168C82.3619 21.168 81.8159 21.014 81.3212 20.706C80.8266 20.398 80.4346 19.964 80.1452 19.404C79.8559 18.8347 79.7112 18.1673 79.7112 17.402C79.7112 16.6647 79.8559 16.0067 80.1452 15.428C80.4439 14.8493 80.8359 14.392 81.3212 14.056C81.8159 13.72 82.3572 13.552 82.9452 13.552C83.4306 13.552 83.8459 13.65 84.1912 13.846C84.5459 14.042 84.8212 14.2427 85.0172 14.448V10.64H86.2772V19.236C86.2772 19.5907 86.3612 19.824 86.5292 19.936C86.7066 20.0387 86.8979 20.09 87.1032 20.09L86.8372 21.07C85.9506 21.07 85.4092 20.7153 85.2132 20.006C85.0079 20.2953 84.7186 20.5613 84.3452 20.804C83.9812 21.0467 83.5192 21.168 82.9592 21.168ZM83.2392 20.048C83.5846 20.048 83.9112 19.9687 84.2192 19.81C84.5366 19.642 84.8026 19.4273 85.0172 19.166V15.554C84.8399 15.33 84.5926 15.1247 84.2752 14.938C83.9579 14.742 83.6079 14.644 83.2252 14.644C82.7772 14.644 82.3852 14.7653 82.0492 15.008C81.7132 15.2507 81.4519 15.5773 81.2652 15.988C81.0879 16.3893 80.9992 16.8467 80.9992 17.36C80.9992 17.8733 81.0972 18.3353 81.2932 18.746C81.4892 19.1473 81.7552 19.4647 82.0912 19.698C82.4366 19.9313 82.8192 20.048 83.2392 20.048ZM91.8625 21.168C90.8171 21.168 89.9865 20.8367 89.3705 20.174C88.7638 19.502 88.4605 18.564 88.4605 17.36C88.4605 16.632 88.5958 15.9833 88.8665 15.414C89.1465 14.8353 89.5338 14.3827 90.0285 14.056C90.5231 13.72 91.0971 13.552 91.7505 13.552C92.4505 13.552 93.0291 13.706 93.4865 14.014C93.9531 14.3127 94.3031 14.7187 94.5365 15.232C94.7698 15.7453 94.8865 16.31 94.8865 16.926C94.8865 17.2527 94.8725 17.57 94.8445 17.878H89.7485C89.8325 18.5593 90.0705 19.0913 90.4625 19.474C90.8545 19.8567 91.3725 20.048 92.0165 20.048C92.4365 20.048 92.8145 20.006 93.1505 19.922C93.4865 19.8287 93.8085 19.712 94.1165 19.572L94.4105 20.65C94.0745 20.7993 93.6965 20.9207 93.2765 21.014C92.8565 21.1167 92.3851 21.168 91.8625 21.168ZM89.7345 16.856H93.7245C93.7245 16.1467 93.5471 15.6007 93.1925 15.218C92.8378 14.8353 92.3478 14.644 91.7225 14.644C91.1811 14.644 90.7331 14.8353 90.3785 15.218C90.0238 15.5913 89.8091 16.1373 89.7345 16.856ZM102.399 21.168C101.97 21.168 101.564 21.0933 101.181 20.944C100.808 20.7947 100.495 20.5987 100.243 20.356L100.887 19.334C101.074 19.53 101.298 19.6933 101.559 19.824C101.82 19.9547 102.086 20.02 102.357 20.02C102.805 20.02 103.16 19.8613 103.421 19.544C103.682 19.2173 103.813 18.6713 103.813 17.906V11.2H105.143V17.766C105.143 18.9513 104.891 19.8147 104.387 20.356C103.883 20.8973 103.22 21.168 102.399 21.168ZM110.059 21.168C109.639 21.168 109.242 21.0793 108.869 20.902C108.495 20.7247 108.192 20.44 107.959 20.048C107.725 19.6467 107.609 19.1147 107.609 18.452V13.72H108.869V18.284C108.869 18.8533 108.99 19.292 109.233 19.6C109.475 19.8987 109.83 20.048 110.297 20.048C110.679 20.048 111.048 19.9733 111.403 19.824C111.767 19.6653 112.089 19.4553 112.369 19.194V13.72H113.629V19.11C113.629 19.5113 113.713 19.7773 113.881 19.908C114.058 20.0293 114.249 20.09 114.455 20.09L114.189 21.07C113.321 21.07 112.784 20.7247 112.579 20.034C112.252 20.37 111.874 20.6453 111.445 20.86C111.015 21.0653 110.553 21.168 110.059 21.168ZM116.428 21V13.72H117.646V15.302C117.767 14.994 117.93 14.7093 118.136 14.448C118.341 14.1773 118.598 13.9627 118.906 13.804C119.214 13.636 119.573 13.552 119.984 13.552C120.124 13.552 120.264 13.5613 120.404 13.58C120.544 13.5893 120.66 13.608 120.754 13.636L120.376 14.938C120.198 14.8633 119.988 14.826 119.746 14.826C119.4 14.826 119.069 14.924 118.752 15.12C118.444 15.316 118.187 15.6193 117.982 16.03C117.786 16.4407 117.688 16.9633 117.688 17.598V21H116.428ZM124.7 21.168C124.28 21.168 123.883 21.0793 123.51 20.902C123.136 20.7247 122.833 20.44 122.6 20.048C122.366 19.6467 122.25 19.1147 122.25 18.452V13.72H123.51V18.284C123.51 18.8533 123.631 19.292 123.874 19.6C124.116 19.8987 124.471 20.048 124.938 20.048C125.32 20.048 125.689 19.9733 126.044 19.824C126.408 19.6653 126.73 19.4553 127.01 19.194V13.72H128.27V19.11C128.27 19.5113 128.354 19.7773 128.522 19.908C128.699 20.0293 128.89 20.09 129.096 20.09L128.83 21.07C127.962 21.07 127.425 20.7247 127.22 20.034C126.893 20.37 126.515 20.6453 126.086 20.86C125.656 21.0653 125.194 21.168 124.7 21.168ZM129.913 24.248C129.344 24.248 128.868 24.1407 128.485 23.926L128.793 22.876C128.915 22.9507 129.064 23.016 129.241 23.072C129.409 23.128 129.582 23.156 129.759 23.156C130.553 23.156 130.949 22.6613 130.949 21.672V13.72H132.209V21.798C132.209 22.3673 132.107 22.8293 131.901 23.184C131.696 23.548 131.421 23.814 131.075 23.982C130.73 24.1593 130.343 24.248 129.913 24.248ZM131.551 12.474C131.309 12.474 131.099 12.3853 130.921 12.208C130.753 12.0307 130.669 11.8253 130.669 11.592C130.669 11.3213 130.749 11.1067 130.907 10.948C131.066 10.7893 131.281 10.71 131.551 10.71C131.794 10.71 131.999 10.7987 132.167 10.976C132.345 11.144 132.433 11.3493 132.433 11.592C132.433 11.8533 132.354 12.068 132.195 12.236C132.037 12.3947 131.822 12.474 131.551 12.474ZM137.126 21.168C136.706 21.168 136.309 21.0793 135.936 20.902C135.562 20.7247 135.259 20.44 135.026 20.048C134.792 19.6467 134.676 19.1147 134.676 18.452V13.72H135.936V18.284C135.936 18.8533 136.057 19.292 136.3 19.6C136.542 19.8987 136.897 20.048 137.364 20.048C137.746 20.048 138.115 19.9733 138.47 19.824C138.834 19.6653 139.156 19.4553 139.436 19.194V13.72H140.696V19.11C140.696 19.5113 140.78 19.7773 140.948 19.908C141.125 20.0293 141.316 20.09 141.522 20.09L141.256 21.07C140.388 21.07 139.851 20.7247 139.646 20.034C139.319 20.37 138.941 20.6453 138.512 20.86C138.082 21.0653 137.62 21.168 137.126 21.168ZM146.771 21.168C146.351 21.168 145.954 21.0933 145.581 20.944C145.217 20.7853 144.914 20.6033 144.671 20.398V21H143.495V10.64H144.755V14.476C144.942 14.2613 145.212 14.056 145.567 13.86C145.931 13.6547 146.36 13.552 146.855 13.552C147.415 13.552 147.938 13.7013 148.423 14C148.918 14.2893 149.314 14.714 149.613 15.274C149.912 15.8247 150.061 16.4967 150.061 17.29C150.061 17.8687 149.968 18.396 149.781 18.872C149.594 19.348 149.342 19.7587 149.025 20.104C148.717 20.44 148.367 20.7013 147.975 20.888C147.583 21.0747 147.182 21.168 146.771 21.168ZM146.435 20.048C146.892 20.048 147.294 19.936 147.639 19.712C147.994 19.488 148.269 19.1707 148.465 18.76C148.67 18.3493 148.773 17.8733 148.773 17.332C148.773 16.772 148.67 16.2913 148.465 15.89C148.269 15.4887 148.003 15.1807 147.667 14.966C147.34 14.7513 146.976 14.644 146.575 14.644C146.174 14.644 145.81 14.7467 145.483 14.952C145.166 15.148 144.923 15.3627 144.755 15.596V19.488C144.97 19.656 145.222 19.7913 145.511 19.894C145.8 19.9967 146.108 20.048 146.435 20.048ZM154.894 21.168C154.287 21.168 153.736 21.014 153.242 20.706C152.747 20.398 152.35 19.964 152.052 19.404C151.762 18.8347 151.618 18.1673 151.618 17.402C151.618 16.674 151.762 16.0207 152.052 15.442C152.35 14.8633 152.756 14.406 153.27 14.07C153.792 13.7247 154.39 13.552 155.062 13.552C155.482 13.552 155.86 13.6267 156.196 13.776C156.541 13.916 156.84 14.0933 157.092 14.308V13.72H158.24V19.236C158.24 19.5907 158.324 19.824 158.492 19.936C158.669 20.0387 158.86 20.09 159.066 20.09L158.8 21.07C157.904 21.07 157.362 20.706 157.176 19.978C156.961 20.2767 156.667 20.552 156.294 20.804C155.93 21.0467 155.463 21.168 154.894 21.168ZM155.174 20.048C155.528 20.048 155.864 19.964 156.182 19.796C156.499 19.6187 156.765 19.3993 156.98 19.138V15.232C156.728 15.0547 156.448 14.9147 156.14 14.812C155.841 14.7 155.524 14.644 155.188 14.644C154.74 14.644 154.343 14.7607 153.998 14.994C153.662 15.218 153.396 15.5353 153.2 15.946C153.004 16.3473 152.906 16.8187 152.906 17.36C152.906 17.8827 153.004 18.3493 153.2 18.76C153.396 19.1613 153.666 19.4787 154.012 19.712C154.357 19.936 154.744 20.048 155.174 20.048Z" fill="#015486"/>
<path d="M43.89 34.45H40.85L40.29 36H39.33L41.85 29.07H42.9L45.41 36H44.45L43.89 34.45ZM43.63 33.71L42.37 30.19L41.11 33.71H43.63ZM48.8483 35.16L50.5483 30.52H51.5183L49.3683 36H48.3083L46.1583 30.52H47.1383L48.8483 35.16ZM53.0038 36.06C52.8304 36.06 52.6838 36 52.5638 35.88C52.4438 35.76 52.3838 35.6133 52.3838 35.44C52.3838 35.2667 52.4438 35.12 52.5638 35C52.6838 34.88 52.8304 34.82 53.0038 34.82C53.1704 34.82 53.3104 34.88 53.4238 35C53.5438 35.12 53.6038 35.2667 53.6038 35.44C53.6038 35.6133 53.5438 35.76 53.4238 35.88C53.3104 36 53.1704 36.06 53.0038 36.06ZM57.7394 32.51C57.7394 31.83 57.8927 31.22 58.1994 30.68C58.506 30.1333 58.9227 29.7067 59.4494 29.4C59.9827 29.0933 60.5727 28.94 61.2194 28.94C61.9794 28.94 62.6427 29.1233 63.2094 29.49C63.776 29.8567 64.1894 30.3767 64.4494 31.05H63.3594C63.166 30.63 62.886 30.3067 62.5194 30.08C62.1594 29.8533 61.726 29.74 61.2194 29.74C60.7327 29.74 60.296 29.8533 59.9094 30.08C59.5227 30.3067 59.2194 30.63 58.9994 31.05C58.7794 31.4633 58.6694 31.95 58.6694 32.51C58.6694 33.0633 58.7794 33.55 58.9994 33.97C59.2194 34.3833 59.5227 34.7033 59.9094 34.93C60.296 35.1567 60.7327 35.27 61.2194 35.27C61.726 35.27 62.1594 35.16 62.5194 34.94C62.886 34.7133 63.166 34.39 63.3594 33.97H64.4494C64.1894 34.6367 63.776 35.1533 63.2094 35.52C62.6427 35.88 61.9794 36.06 61.2194 36.06C60.5727 36.06 59.9827 35.91 59.4494 35.61C58.9227 35.3033 58.506 34.88 58.1994 34.34C57.8927 33.8 57.7394 33.19 57.7394 32.51ZM65.764 33.24C65.764 32.68 65.8773 32.19 66.104 31.77C66.3307 31.3433 66.6407 31.0133 67.034 30.78C67.434 30.5467 67.8773 30.43 68.364 30.43C68.844 30.43 69.2607 30.5333 69.614 30.74C69.9673 30.9467 70.2307 31.2067 70.404 31.52V30.52H71.324V36H70.404V34.98C70.224 35.3 69.954 35.5667 69.594 35.78C69.2407 35.9867 68.8273 36.09 68.354 36.09C67.8673 36.09 67.4273 35.97 67.034 35.73C66.6407 35.49 66.3307 35.1533 66.104 34.72C65.8773 34.2867 65.764 33.7933 65.764 33.24ZM70.404 33.25C70.404 32.8367 70.3207 32.4767 70.154 32.17C69.9873 31.8633 69.7607 31.63 69.474 31.47C69.194 31.3033 68.884 31.22 68.544 31.22C68.204 31.22 67.894 31.3 67.614 31.46C67.334 31.62 67.1107 31.8533 66.944 32.16C66.7773 32.4667 66.694 32.8267 66.694 33.24C66.694 33.66 66.7773 34.0267 66.944 34.34C67.1107 34.6467 67.334 34.8833 67.614 35.05C67.894 35.21 68.204 35.29 68.544 35.29C68.884 35.29 69.194 35.21 69.474 35.05C69.7607 34.8833 69.9873 34.6467 70.154 34.34C70.3207 34.0267 70.404 33.6633 70.404 33.25ZM74.0718 31.41C74.2318 31.0967 74.4585 30.8533 74.7518 30.68C75.0518 30.5067 75.4151 30.42 75.8418 30.42V31.36H75.6018C74.5818 31.36 74.0718 31.9133 74.0718 33.02V36H73.1618V30.52H74.0718V31.41ZM78.1023 28.6V36H77.1923V28.6H78.1023ZM82.3432 36.09C81.8299 36.09 81.3632 35.9733 80.9432 35.74C80.5299 35.5067 80.2032 35.1767 79.9632 34.75C79.7299 34.3167 79.6132 33.8167 79.6132 33.25C79.6132 32.69 79.7332 32.1967 79.9732 31.77C80.2199 31.3367 80.5532 31.0067 80.9732 30.78C81.3932 30.5467 81.8632 30.43 82.3832 30.43C82.9032 30.43 83.3732 30.5467 83.7932 30.78C84.2132 31.0067 84.5432 31.3333 84.7832 31.76C85.0299 32.1867 85.1532 32.6833 85.1532 33.25C85.1532 33.8167 85.0265 34.3167 84.7732 34.75C84.5265 35.1767 84.1899 35.5067 83.7632 35.74C83.3365 35.9733 82.8632 36.09 82.3432 36.09ZM82.3432 35.29C82.6699 35.29 82.9765 35.2133 83.2632 35.06C83.5499 34.9067 83.7799 34.6767 83.9532 34.37C84.1332 34.0633 84.2232 33.69 84.2232 33.25C84.2232 32.81 84.1365 32.4367 83.9632 32.13C83.7899 31.8233 83.5632 31.5967 83.2832 31.45C83.0032 31.2967 82.6999 31.22 82.3732 31.22C82.0399 31.22 81.7332 31.2967 81.4532 31.45C81.1799 31.5967 80.9599 31.8233 80.7932 32.13C80.6265 32.4367 80.5432 32.81 80.5432 33.25C80.5432 33.6967 80.6232 34.0733 80.7832 34.38C80.9499 34.6867 81.1699 34.9167 81.4432 35.07C81.7165 35.2167 82.0165 35.29 82.3432 35.29ZM88.5897 36.09C88.1697 36.09 87.793 36.02 87.4597 35.88C87.1264 35.7333 86.863 35.5333 86.6697 35.28C86.4764 35.02 86.3697 34.7233 86.3497 34.39H87.2897C87.3164 34.6633 87.443 34.8867 87.6697 35.06C87.903 35.2333 88.2064 35.32 88.5797 35.32C88.9264 35.32 89.1997 35.2433 89.3997 35.09C89.5997 34.9367 89.6997 34.7433 89.6997 34.51C89.6997 34.27 89.593 34.0933 89.3797 33.98C89.1664 33.86 88.8364 33.7433 88.3897 33.63C87.983 33.5233 87.6497 33.4167 87.3897 33.31C87.1364 33.1967 86.9164 33.0333 86.7297 32.82C86.5497 32.6 86.4597 32.3133 86.4597 31.96C86.4597 31.68 86.543 31.4233 86.7097 31.19C86.8764 30.9567 87.113 30.7733 87.4197 30.64C87.7264 30.5 88.0764 30.43 88.4697 30.43C89.0764 30.43 89.5664 30.5833 89.9397 30.89C90.313 31.1967 90.513 31.6167 90.5397 32.15H89.6297C89.6097 31.8633 89.493 31.6333 89.2797 31.46C89.073 31.2867 88.793 31.2 88.4397 31.2C88.113 31.2 87.853 31.27 87.6597 31.41C87.4664 31.55 87.3697 31.7333 87.3697 31.96C87.3697 32.14 87.4264 32.29 87.5397 32.41C87.6597 32.5233 87.8064 32.6167 87.9797 32.69C88.1597 32.7567 88.4064 32.8333 88.7197 32.92C89.113 33.0267 89.433 33.1333 89.6797 33.24C89.9264 33.34 90.1364 33.4933 90.3097 33.7C90.4897 33.9067 90.583 34.1767 90.5897 34.51C90.5897 34.81 90.5064 35.08 90.3397 35.32C90.173 35.56 89.9364 35.75 89.6297 35.89C89.3297 36.0233 88.983 36.09 88.5897 36.09ZM96.0503 29.77V32.1H98.5903V32.85H96.0503V35.25H98.8903V36H95.1403V29.02H98.8903V29.77H96.0503ZM100.857 36.06C100.684 36.06 100.537 36 100.417 35.88C100.297 35.76 100.237 35.6133 100.237 35.44C100.237 35.2667 100.297 35.12 100.417 35C100.537 34.88 100.684 34.82 100.857 34.82C101.024 34.82 101.164 34.88 101.277 35C101.397 35.12 101.457 35.2667 101.457 35.44C101.457 35.6133 101.397 35.76 101.277 35.88C101.164 36 101.024 36.06 100.857 36.06ZM113.003 29.08V36H112.093V30.84L109.793 36H109.153L106.843 30.83V36H105.933V29.08H106.913L109.473 34.8L112.033 29.08H113.003ZM114.506 33.24C114.506 32.68 114.62 32.19 114.846 31.77C115.073 31.3433 115.383 31.0133 115.776 30.78C116.176 30.5467 116.62 30.43 117.106 30.43C117.586 30.43 118.003 30.5333 118.356 30.74C118.71 30.9467 118.973 31.2067 119.146 31.52V30.52H120.066V36H119.146V34.98C118.966 35.3 118.696 35.5667 118.336 35.78C117.983 35.9867 117.57 36.09 117.096 36.09C116.61 36.09 116.17 35.97 115.776 35.73C115.383 35.49 115.073 35.1533 114.846 34.72C114.62 34.2867 114.506 33.7933 114.506 33.24ZM119.146 33.25C119.146 32.8367 119.063 32.4767 118.896 32.17C118.73 31.8633 118.503 31.63 118.216 31.47C117.936 31.3033 117.626 31.22 117.286 31.22C116.946 31.22 116.636 31.3 116.356 31.46C116.076 31.62 115.853 31.8533 115.686 32.16C115.52 32.4667 115.436 32.8267 115.436 33.24C115.436 33.66 115.52 34.0267 115.686 34.34C115.853 34.6467 116.076 34.8833 116.356 35.05C116.636 35.21 116.946 35.29 117.286 35.29C117.626 35.29 117.936 35.21 118.216 35.05C118.503 34.8833 118.73 34.6467 118.896 34.34C119.063 34.0267 119.146 33.6633 119.146 33.25ZM122.814 31.41C122.974 31.0967 123.201 30.8533 123.494 30.68C123.794 30.5067 124.157 30.42 124.584 30.42V31.36H124.344C123.324 31.36 122.814 31.9133 122.814 33.02V36H121.904V30.52H122.814V31.41ZM127.044 31.27V34.5C127.044 34.7667 127.101 34.9567 127.214 35.07C127.328 35.1767 127.524 35.23 127.804 35.23H128.474V36H127.654C127.148 36 126.768 35.8833 126.514 35.65C126.261 35.4167 126.134 35.0333 126.134 34.5V31.27H125.424V30.52H126.134V29.14H127.044V30.52H128.474V31.27H127.044ZM130.347 29.63C130.174 29.63 130.027 29.57 129.907 29.45C129.787 29.33 129.727 29.1833 129.727 29.01C129.727 28.8367 129.787 28.69 129.907 28.57C130.027 28.45 130.174 28.39 130.347 28.39C130.514 28.39 130.654 28.45 130.767 28.57C130.887 28.69 130.947 28.8367 130.947 29.01C130.947 29.1833 130.887 29.33 130.767 29.45C130.654 29.57 130.514 29.63 130.347 29.63ZM130.787 30.52V36H129.877V30.52H130.787ZM135.308 30.42C135.975 30.42 136.515 30.6233 136.928 31.03C137.341 31.43 137.548 32.01 137.548 32.77V36H136.648V32.9C136.648 32.3533 136.511 31.9367 136.238 31.65C135.965 31.3567 135.591 31.21 135.118 31.21C134.638 31.21 134.255 31.36 133.968 31.66C133.688 31.96 133.548 32.3967 133.548 32.97V36H132.638V30.52H133.548V31.3C133.728 31.02 133.971 30.8033 134.278 30.65C134.591 30.4967 134.935 30.42 135.308 30.42ZM141.274 36.09C140.854 36.09 140.478 36.02 140.144 35.88C139.811 35.7333 139.548 35.5333 139.354 35.28C139.161 35.02 139.054 34.7233 139.034 34.39H139.974C140.001 34.6633 140.128 34.8867 140.354 35.06C140.588 35.2333 140.891 35.32 141.264 35.32C141.611 35.32 141.884 35.2433 142.084 35.09C142.284 34.9367 142.384 34.7433 142.384 34.51C142.384 34.27 142.278 34.0933 142.064 33.98C141.851 33.86 141.521 33.7433 141.074 33.63C140.668 33.5233 140.334 33.4167 140.074 33.31C139.821 33.1967 139.601 33.0333 139.414 32.82C139.234 32.6 139.144 32.3133 139.144 31.96C139.144 31.68 139.228 31.4233 139.394 31.19C139.561 30.9567 139.798 30.7733 140.104 30.64C140.411 30.5 140.761 30.43 141.154 30.43C141.761 30.43 142.251 30.5833 142.624 30.89C142.998 31.1967 143.198 31.6167 143.224 32.15H142.314C142.294 31.8633 142.178 31.6333 141.964 31.46C141.758 31.2867 141.478 31.2 141.124 31.2C140.798 31.2 140.538 31.27 140.344 31.41C140.151 31.55 140.054 31.7333 140.054 31.96C140.054 32.14 140.111 32.29 140.224 32.41C140.344 32.5233 140.491 32.6167 140.664 32.69C140.844 32.7567 141.091 32.8333 141.404 32.92C141.798 33.0267 142.118 33.1333 142.364 33.24C142.611 33.34 142.821 33.4933 142.994 33.7C143.174 33.9067 143.268 34.1767 143.274 34.51C143.274 34.81 143.191 35.08 143.024 35.32C142.858 35.56 142.621 35.75 142.314 35.89C142.014 36.0233 141.668 36.09 141.274 36.09ZM147.435 29.6V28.77H149.315V36H148.395V29.6H147.435ZM152.348 34.06C152.415 34.44 152.568 34.7333 152.808 34.94C153.055 35.1467 153.385 35.25 153.798 35.25C154.352 35.25 154.758 35.0333 155.018 34.6C155.285 34.1667 155.412 33.4367 155.398 32.41C155.258 32.71 155.025 32.9467 154.698 33.12C154.372 33.2867 154.008 33.37 153.608 33.37C153.162 33.37 152.762 33.28 152.408 33.1C152.062 32.9133 151.788 32.6433 151.588 32.29C151.388 31.9367 151.288 31.51 151.288 31.01C151.288 30.2967 151.495 29.7233 151.908 29.29C152.322 28.85 152.908 28.63 153.668 28.63C154.602 28.63 155.255 28.9333 155.628 29.54C156.008 30.1467 156.198 31.05 156.198 32.25C156.198 33.09 156.122 33.7833 155.968 34.33C155.822 34.8767 155.568 35.2933 155.208 35.58C154.855 35.8667 154.368 36.01 153.748 36.01C153.068 36.01 152.538 35.8267 152.158 35.46C151.778 35.0933 151.562 34.6267 151.508 34.06H152.348ZM153.758 32.6C154.205 32.6 154.572 32.4633 154.858 32.19C155.145 31.91 155.288 31.5333 155.288 31.06C155.288 30.56 155.148 30.1567 154.868 29.85C154.588 29.5433 154.195 29.39 153.688 29.39C153.222 29.39 152.848 29.5367 152.568 29.83C152.295 30.1233 152.158 30.51 152.158 30.99C152.158 31.4767 152.295 31.8667 152.568 32.16C152.842 32.4533 153.238 32.6 153.758 32.6ZM157.757 30.59C157.804 29.9767 158.04 29.4967 158.467 29.15C158.894 28.8033 159.447 28.63 160.127 28.63C160.58 28.63 160.97 28.7133 161.297 28.88C161.63 29.04 161.88 29.26 162.047 29.54C162.22 29.82 162.307 30.1367 162.307 30.49C162.307 30.9033 162.187 31.26 161.947 31.56C161.714 31.86 161.407 32.0533 161.027 32.14V32.19C161.46 32.2967 161.804 32.5067 162.057 32.82C162.31 33.1333 162.437 33.5433 162.437 34.05C162.437 34.43 162.35 34.7733 162.177 35.08C162.004 35.38 161.744 35.6167 161.397 35.79C161.05 35.9633 160.634 36.05 160.147 36.05C159.44 36.05 158.86 35.8667 158.407 35.5C157.954 35.1267 157.7 34.6 157.647 33.92H158.527C158.574 34.32 158.737 34.6467 159.017 34.9C159.297 35.1533 159.67 35.28 160.137 35.28C160.604 35.28 160.957 35.16 161.197 34.92C161.444 34.6733 161.567 34.3567 161.567 33.97C161.567 33.47 161.4 33.11 161.067 32.89C160.734 32.67 160.23 32.56 159.557 32.56H159.327V31.8H159.567C160.18 31.7933 160.644 31.6933 160.957 31.5C161.27 31.3 161.427 30.9933 161.427 30.58C161.427 30.2267 161.31 29.9433 161.077 29.73C160.85 29.5167 160.524 29.41 160.097 29.41C159.684 29.41 159.35 29.5167 159.097 29.73C158.844 29.9433 158.694 30.23 158.647 30.59H157.757ZM168.576 29.56H165.066V31.84C165.219 31.6267 165.446 31.4533 165.746 31.32C166.046 31.18 166.369 31.11 166.716 31.11C167.269 31.11 167.719 31.2267 168.066 31.46C168.412 31.6867 168.659 31.9833 168.806 32.35C168.959 32.71 169.036 33.0933 169.036 33.5C169.036 33.98 168.946 34.41 168.766 34.79C168.586 35.17 168.309 35.47 167.936 35.69C167.569 35.91 167.112 36.02 166.566 36.02C165.866 36.02 165.299 35.84 164.866 35.48C164.432 35.12 164.169 34.64 164.076 34.04H164.966C165.052 34.42 165.236 34.7167 165.516 34.93C165.796 35.1433 166.149 35.25 166.576 35.25C167.102 35.25 167.499 35.0933 167.766 34.78C168.032 34.46 168.166 34.04 168.166 33.52C168.166 33 168.032 32.6 167.766 32.32C167.499 32.0333 167.106 31.89 166.586 31.89C166.232 31.89 165.922 31.9767 165.656 32.15C165.396 32.3167 165.206 32.5467 165.086 32.84H164.226V28.76H168.576V29.56Z" fill="#98A4AE"/>
<path d="M73.9434 45.5L108.058 45.5L91.001 68.3301L73.9434 45.5Z" fill="white" stroke="#015486" stroke-width="2"/>
<path d="M91 65L71.0814 41L110.919 41L91 65Z" fill="white"/>
<path d="M31.155 11.978C30.2796 11.4725 29.3132 11.1443 28.311 11.0123C27.3088 10.8803 26.2904 10.947 25.314 11.2086C24.3376 11.4702 23.4223 11.9215 22.6203 12.5369C21.8183 13.1523 21.1454 13.9196 20.64 14.795L20.35 15.297C20.2507 15.4693 20.2239 15.6739 20.2755 15.8659C20.3271 16.0579 20.4528 16.2216 20.625 16.321L26.086 19.474L22.818 25.194L22.75 25.193C19.592 25.193 16.857 27.025 15.228 29.615C15.5062 29.5166 15.8027 29.481 16.0963 29.5108C16.3898 29.5405 16.6732 29.6348 16.926 29.787C18.338 27.921 20.444 26.693 22.75 26.693C25.154 26.693 27.341 28.028 28.75 30.029C28.9448 29.8497 29.1733 29.7109 29.4222 29.6206C29.6711 29.5303 29.9355 29.4903 30.2 29.503C28.869 27.445 26.833 25.883 24.444 25.372L27.385 20.224L32.658 23.269C32.7433 23.3183 32.8376 23.3503 32.9353 23.3631C33.033 23.376 33.1323 23.3695 33.2275 23.3439C33.3227 23.3184 33.4119 23.2743 33.4901 23.2143C33.5682 23.1543 33.6338 23.0794 33.683 22.994L33.973 22.493C34.4785 21.6176 34.8065 20.6511 34.9385 19.6489C35.0704 18.6466 35.0036 17.6282 34.742 16.6518C34.4803 15.6754 34.0288 14.7601 33.4134 13.9581C32.7979 13.1562 32.0305 12.4833 31.155 11.978ZM28.965 19.404L25.807 17.58C26.379 16.699 26.923 16.028 27.575 15.435C28.21 14.857 28.968 14.335 29.996 13.767C30.148 14.722 30.194 15.517 30.096 16.297C29.98 17.229 29.651 18.19 28.963 19.403M30.261 20.153C31.021 18.815 31.437 17.663 31.584 16.483C31.681 15.709 31.659 14.945 31.562 14.138C32.5536 15.0759 33.208 16.3148 33.4237 17.6625C33.6394 19.0102 33.4043 20.3915 32.755 21.592L30.261 20.153ZM26.565 14.325C25.775 15.044 25.14 15.844 24.505 16.829L22.025 15.397C22.7247 14.2594 23.773 13.3782 25.014 12.8845C26.2549 12.3908 27.6221 12.311 28.912 12.657C27.983 13.192 27.227 13.722 26.565 14.325ZM16.605 31.263C16.5536 31.1087 16.4535 30.9752 16.3197 30.8828C16.1859 30.7903 16.0257 30.7439 15.8632 30.7504C15.7007 30.757 15.5447 30.8162 15.4188 30.9191C15.2928 31.022 15.2038 31.163 15.165 31.321C14.91 32.363 14.427 32.935 13.877 33.267C13.301 33.615 12.567 33.749 11.748 33.749C11.5491 33.749 11.3583 33.828 11.2177 33.9687C11.077 34.1093 10.998 34.3001 10.998 34.499C10.998 34.6979 11.077 34.8887 11.2177 35.0293C11.3583 35.17 11.5491 35.249 11.748 35.249C12.705 35.249 13.748 35.097 14.652 34.551C15.1912 34.2252 15.6459 33.7767 15.979 33.242C17.768 35.524 21.261 35.512 22.998 33.218C24.763 35.548 28.338 35.524 30.101 33.132C30.5796 33.7834 31.2038 34.3141 31.9238 34.6816C32.6437 35.0492 33.4396 35.2435 34.248 35.249C34.4469 35.249 34.6377 35.17 34.7783 35.0293C34.919 34.8887 34.998 34.6979 34.998 34.499C34.998 34.3001 34.919 34.1093 34.7783 33.9687C34.6377 33.828 34.4469 33.749 34.248 33.749C32.773 33.749 31.303 32.789 30.818 31.271C30.77 31.1199 30.6754 30.9879 30.5477 30.894C30.42 30.8001 30.2659 30.749 30.1074 30.7481C29.9489 30.7472 29.7942 30.7965 29.6655 30.8891C29.5368 30.9816 29.4407 31.1125 29.391 31.263C28.428 34.172 24.653 34.135 23.707 31.384C23.6561 31.2364 23.5604 31.1085 23.4333 31.0179C23.3062 30.9273 23.1541 30.8786 22.998 30.8786C22.8419 30.8786 22.6897 30.9273 22.5626 31.0179C22.4355 31.1085 22.3399 31.2364 22.289 31.384C21.343 34.135 17.569 34.171 16.605 31.263Z" fill="#015486"/>
<defs>
<linearGradient id="paint0_linear_294_348" x1="179.069" y1="0.748829" x2="-69.2821" y2="206.234" gradientUnits="userSpaceOnUse">
<stop stop-color="white"/>
</linearGradient>
</defs>
</svg>
