<svg width="50" height="65" viewBox="0 0 50 65" fill="none" xmlns="http://www.w3.org/2000/svg">
<path d="M25 0.75C38.4221 0.75 49.25 11.1879 49.25 24C49.25 36.8121 38.4221 47.25 25 47.25C11.5779 47.25 0.75 36.8121 0.75 24C0.75 11.1879 11.5779 0.75 25 0.75Z" fill="white" stroke="#015486" stroke-width="1.5"/>
<path d="M7.94336 40.5L42.0576 40.5L25.001 63.3301L7.94336 40.5Z" fill="white" stroke="#015486" stroke-width="2"/>
<path d="M25 60L5.08142 36L44.9186 36L25 60Z" fill="white"/>
<path d="M32.157 14.0316C31.2816 13.5261 30.3152 13.1979 29.313 13.0659C28.3108 12.9339 27.2925 13.0006 26.316 13.2622C25.3396 13.5238 24.4243 13.9751 23.6223 14.5905C22.8203 15.2058 22.1474 15.9731 21.642 16.8486L21.352 17.3506C21.2527 17.5229 21.226 17.7275 21.2775 17.9195C21.3291 18.1115 21.4548 18.2752 21.627 18.3746L27.088 21.5276L23.82 27.2476L23.752 27.2466C20.594 27.2466 17.859 29.0786 16.23 31.6686C16.5082 31.5702 16.8047 31.5346 17.0983 31.5644C17.3918 31.5941 17.6752 31.6884 17.928 31.8406C19.34 29.9746 21.446 28.7466 23.752 28.7466C26.156 28.7466 28.343 30.0816 29.752 32.0826C29.9468 31.9033 30.1753 31.7645 30.4243 31.6742C30.6732 31.5839 30.9375 31.5439 31.202 31.5566C29.871 29.4986 27.835 27.9366 25.446 27.4256L28.387 22.2776L33.66 25.3226C33.7453 25.3719 33.8396 25.4039 33.9373 25.4167C34.035 25.4296 34.1343 25.4231 34.2295 25.3975C34.3247 25.372 34.4139 25.3279 34.4921 25.2679C34.5702 25.2078 34.6358 25.133 34.685 25.0476L34.975 24.5466C35.4805 23.6711 35.8085 22.7047 35.9405 21.7025C36.0724 20.7002 36.0057 19.6818 35.744 18.7054C35.4823 17.729 35.0308 16.8136 34.4154 16.0117C33.7999 15.2098 33.0325 14.5369 32.157 14.0316ZM29.967 21.4576L26.809 19.6336C27.381 18.7526 27.925 18.0816 28.577 17.4886C29.212 16.9106 29.97 16.3886 30.998 15.8206C31.15 16.7756 31.196 17.5706 31.098 18.3506C30.982 19.2826 30.653 20.2436 29.965 21.4566M31.263 22.2066C32.023 20.8686 32.439 19.7166 32.586 18.5366C32.683 17.7626 32.661 16.9986 32.564 16.1916C33.5556 17.1295 34.21 18.3684 34.4257 19.7161C34.6414 21.0638 34.4063 22.4451 33.757 23.6456L31.263 22.2066ZM27.567 16.3786C26.777 17.0976 26.142 17.8976 25.507 18.8826L23.027 17.4506C23.7267 16.313 24.7751 15.4318 26.016 14.9381C27.2569 14.4444 28.6241 14.3646 29.914 14.7106C28.985 15.2456 28.229 15.7756 27.567 16.3786ZM17.607 33.3166C17.5556 33.1623 17.4555 33.0288 17.3217 32.9364C17.1879 32.8439 17.0277 32.7975 16.8652 32.804C16.7027 32.8106 16.5467 32.8697 16.4208 32.9727C16.2948 33.0756 16.2058 33.2166 16.167 33.3746C15.912 34.4166 15.429 34.9886 14.879 35.3206C14.303 35.6686 13.569 35.8026 12.75 35.8026C12.5511 35.8026 12.3603 35.8816 12.2197 36.0222C12.079 36.1629 12 36.3537 12 36.5526C12 36.7515 12.079 36.9423 12.2197 37.0829C12.3603 37.2236 12.5511 37.3026 12.75 37.3026C13.707 37.3026 14.75 37.1506 15.654 36.6046C16.1932 36.2788 16.6479 35.8303 16.981 35.2956C18.77 37.5776 22.263 37.5656 24 35.2716C25.765 37.6016 29.34 37.5776 31.103 35.1856C31.5816 35.837 32.2058 36.3677 32.9258 36.7352C33.6458 37.1028 34.4416 37.297 35.25 37.3026C35.4489 37.3026 35.6397 37.2236 35.7803 37.0829C35.921 36.9423 36 36.7515 36 36.5526C36 36.3537 35.921 36.1629 35.7803 36.0222C35.6397 35.8816 35.4489 35.8026 35.25 35.8026C33.775 35.8026 32.305 34.8426 31.82 33.3246C31.772 33.1735 31.6774 33.0415 31.5497 32.9476C31.4221 32.8536 31.2679 32.8026 31.1094 32.8017C30.9509 32.8008 30.7962 32.8501 30.6675 32.9426C30.5388 33.0352 30.4427 33.1661 30.393 33.3166C29.43 36.2256 25.655 36.1886 24.709 33.4376C24.6581 33.29 24.5624 33.162 24.4354 33.0714C24.3083 32.9808 24.1561 32.9322 24 32.9322C23.8439 32.9322 23.6917 32.9808 23.5646 33.0714C23.4376 33.162 23.3419 33.29 23.291 33.4376C22.345 36.1886 18.571 36.2246 17.607 33.3166Z" fill="#015486"/>
</svg>
