<svg width="181" height="70" viewBox="0 0 181 70" fill="none" xmlns="http://www.w3.org/2000/svg">
<path d="M20 1H161C171.493 1 180 9.50659 180 20V26C180 36.4934 171.493 45 161 45H20C9.50659 45 1 36.4934 1 26V20C1 9.50659 9.50659 1 20 1Z" fill="url(#paint0_linear_294_390)" stroke="#015486" stroke-width="2"/>
<path d="M40.17 20V10.926C40.5253 10.8827 40.9153 10.8523 41.34 10.835C41.7733 10.809 42.2197 10.796 42.679 10.796C43.433 10.796 44.0743 10.9173 44.603 11.16C45.1317 11.394 45.5347 11.719 45.812 12.135C46.0893 12.551 46.228 13.0277 46.228 13.565C46.228 14.215 46.0677 14.7653 45.747 15.216C45.4263 15.6667 44.98 16.0133 44.408 16.256C43.836 16.49 43.173 16.607 42.419 16.607C42.055 16.607 41.717 16.594 41.405 16.568V20H40.17ZM42.575 15.58C43.3463 15.58 43.9443 15.4067 44.369 15.06C44.7937 14.7133 45.006 14.2497 45.006 13.669C45.006 13.1057 44.8023 12.6593 44.395 12.33C43.9877 12.0007 43.407 11.836 42.653 11.836C42.419 11.836 42.198 11.8403 41.99 11.849C41.782 11.8577 41.587 11.8707 41.405 11.888V15.515C41.5437 15.5323 41.7127 15.5497 41.912 15.567C42.1113 15.5757 42.3323 15.58 42.575 15.58ZM47.8937 20V13.24H49.0247V14.709C49.1374 14.423 49.289 14.1587 49.4797 13.916C49.6704 13.6647 49.9087 13.4653 50.1947 13.318C50.4807 13.162 50.8144 13.084 51.1957 13.084C51.3257 13.084 51.4557 13.0927 51.5857 13.11C51.7157 13.1187 51.824 13.136 51.9107 13.162L51.5597 14.371C51.395 14.3017 51.2 14.267 50.9747 14.267C50.654 14.267 50.3464 14.358 50.0517 14.54C49.7657 14.722 49.5274 15.0037 49.3367 15.385C49.1547 15.7663 49.0637 16.2517 49.0637 16.841V20H47.8937ZM55.5795 20.156C55.0162 20.156 54.5049 20.013 54.0455 19.727C53.5862 19.441 53.2179 19.038 52.9405 18.518C52.6719 17.9893 52.5375 17.3697 52.5375 16.659C52.5375 15.983 52.6719 15.3763 52.9405 14.839C53.2179 14.3017 53.5949 13.877 54.0715 13.565C54.5569 13.2443 55.1115 13.084 55.7355 13.084C56.1255 13.084 56.4765 13.1533 56.7885 13.292C57.1092 13.422 57.3865 13.5867 57.6205 13.786V13.24H58.6865V18.362C58.6865 18.6913 58.7645 18.908 58.9205 19.012C59.0852 19.1073 59.2629 19.155 59.4535 19.155L59.2065 20.065C58.3745 20.065 57.8719 19.727 57.6985 19.051C57.4992 19.3283 57.2262 19.584 56.8795 19.818C56.5415 20.0433 56.1082 20.156 55.5795 20.156ZM55.8395 19.116C56.1689 19.116 56.4809 19.038 56.7755 18.882C57.0702 18.7173 57.3172 18.5137 57.5165 18.271V14.644C57.2825 14.4793 57.0225 14.3493 56.7365 14.254C56.4592 14.15 56.1645 14.098 55.8525 14.098C55.4365 14.098 55.0682 14.2063 54.7475 14.423C54.4355 14.631 54.1885 14.9257 54.0065 15.307C53.8245 15.6797 53.7335 16.1173 53.7335 16.62C53.7335 17.1053 53.8245 17.5387 54.0065 17.92C54.1885 18.2927 54.4399 18.5873 54.7605 18.804C55.0812 19.012 55.4409 19.116 55.8395 19.116ZM61.316 20V13.24H62.486V20H61.316ZM61.901 12.083C61.6756 12.083 61.4806 12.0007 61.316 11.836C61.16 11.6713 61.082 11.4807 61.082 11.264C61.082 11.0127 61.1556 10.8133 61.303 10.666C61.4503 10.5187 61.6496 10.445 61.901 10.445C62.1263 10.445 62.317 10.5273 62.473 10.692C62.6376 10.848 62.72 11.0387 62.72 11.264C62.72 11.5067 62.6463 11.706 62.499 11.862C62.3516 12.0093 62.1523 12.083 61.901 12.083ZM67.453 20.156C66.8896 20.156 66.3783 20.013 65.919 19.727C65.4596 19.441 65.0913 19.038 64.814 18.518C64.5453 17.9893 64.411 17.3697 64.411 16.659C64.411 15.983 64.5453 15.3763 64.814 14.839C65.0913 14.3017 65.4683 13.877 65.945 13.565C66.4303 13.2443 66.985 13.084 67.609 13.084C67.999 13.084 68.35 13.1533 68.662 13.292C68.9826 13.422 69.26 13.5867 69.494 13.786V13.24H70.56V18.362C70.56 18.6913 70.638 18.908 70.794 19.012C70.9586 19.1073 71.1363 19.155 71.327 19.155L71.08 20.065C70.248 20.065 69.7453 19.727 69.572 19.051C69.3726 19.3283 69.0996 19.584 68.753 19.818C68.415 20.0433 67.9816 20.156 67.453 20.156ZM67.713 19.116C68.0423 19.116 68.3543 19.038 68.649 18.882C68.9436 18.7173 69.1906 18.5137 69.39 18.271V14.644C69.156 14.4793 68.896 14.3493 68.61 14.254C68.3326 14.15 68.038 14.098 67.726 14.098C67.31 14.098 66.9416 14.2063 66.621 14.423C66.309 14.631 66.062 14.9257 65.88 15.307C65.698 15.6797 65.607 16.1173 65.607 16.62C65.607 17.1053 65.698 17.5387 65.88 17.92C66.062 18.2927 66.3133 18.5873 66.634 18.804C66.9546 19.012 67.3143 19.116 67.713 19.116ZM79.9479 20.156C79.3932 20.156 78.8862 20.013 78.4269 19.727C77.9675 19.441 77.6035 19.038 77.3349 18.518C77.0662 17.9893 76.9319 17.3697 76.9319 16.659C76.9319 15.9743 77.0662 15.3633 77.3349 14.826C77.6122 14.2887 77.9762 13.864 78.4269 13.552C78.8862 13.24 79.3889 13.084 79.9349 13.084C80.3855 13.084 80.7712 13.175 81.0919 13.357C81.4212 13.539 81.6769 13.7253 81.8589 13.916V10.38H83.0289V18.362C83.0289 18.6913 83.1069 18.908 83.2629 19.012C83.4275 19.1073 83.6052 19.155 83.7959 19.155L83.5489 20.065C82.7255 20.065 82.2229 19.7357 82.0409 19.077C81.8502 19.3457 81.5815 19.5927 81.2349 19.818C80.8969 20.0433 80.4679 20.156 79.9479 20.156ZM80.2079 19.116C80.5285 19.116 80.8319 19.0423 81.1179 18.895C81.4125 18.739 81.6595 18.5397 81.8589 18.297V14.943C81.6942 14.735 81.4645 14.5443 81.1699 14.371C80.8752 14.189 80.5502 14.098 80.1949 14.098C79.7789 14.098 79.4149 14.2107 79.1029 14.436C78.7909 14.6613 78.5482 14.9647 78.3749 15.346C78.2102 15.7187 78.1279 16.1433 78.1279 16.62C78.1279 17.0967 78.2189 17.5257 78.4009 17.907C78.5829 18.2797 78.8299 18.5743 79.1419 18.791C79.4625 19.0077 79.8179 19.116 80.2079 19.116ZM88.2366 20.156C87.2659 20.156 86.4946 19.8483 85.9226 19.233C85.3592 18.609 85.0776 17.738 85.0776 16.62C85.0776 15.944 85.2032 15.3417 85.4546 14.813C85.7146 14.2757 86.0742 13.8553 86.5336 13.552C86.9929 13.24 87.5259 13.084 88.1326 13.084C88.7826 13.084 89.3199 13.227 89.7446 13.513C90.1779 13.7903 90.5029 14.1673 90.7196 14.644C90.9362 15.1207 91.0446 15.645 91.0446 16.217C91.0446 16.5203 91.0316 16.815 91.0056 17.101H86.2736C86.3516 17.7337 86.5726 18.2277 86.9366 18.583C87.3006 18.9383 87.7816 19.116 88.3796 19.116C88.7696 19.116 89.1206 19.077 89.4326 18.999C89.7446 18.9123 90.0436 18.804 90.3296 18.674L90.6026 19.675C90.2906 19.8137 89.9396 19.9263 89.5496 20.013C89.1596 20.1083 88.7219 20.156 88.2366 20.156ZM86.2606 16.152H89.9656C89.9656 15.4933 89.8009 14.9863 89.4716 14.631C89.1422 14.2757 88.6872 14.098 88.1066 14.098C87.6039 14.098 87.1879 14.2757 86.8586 14.631C86.5292 14.9777 86.3299 15.4847 86.2606 16.152ZM97.2313 20V10.926C97.5867 10.8827 97.9767 10.8523 98.4013 10.835C98.8347 10.809 99.281 10.796 99.7403 10.796C100.494 10.796 101.136 10.9173 101.664 11.16C102.193 11.394 102.596 11.719 102.873 12.135C103.151 12.551 103.289 13.0277 103.289 13.565C103.289 14.215 103.129 14.7653 102.808 15.216C102.488 15.6667 102.041 16.0133 101.469 16.256C100.897 16.49 100.234 16.607 99.4803 16.607C99.1163 16.607 98.7783 16.594 98.4663 16.568V20H97.2313ZM99.6363 15.58C100.408 15.58 101.006 15.4067 101.43 15.06C101.855 14.7133 102.067 14.2497 102.067 13.669C102.067 13.1057 101.864 12.6593 101.456 12.33C101.049 12.0007 100.468 11.836 99.7143 11.836C99.4803 11.836 99.2593 11.8403 99.0513 11.849C98.8433 11.8577 98.6483 11.8707 98.4663 11.888V15.515C98.605 15.5323 98.774 15.5497 98.9733 15.567C99.1727 15.5757 99.3937 15.58 99.6363 15.58ZM104.955 20V13.24H106.125V20H104.955ZM105.54 12.083C105.315 12.083 105.12 12.0007 104.955 11.836C104.799 11.6713 104.721 11.4807 104.721 11.264C104.721 11.0127 104.795 10.8133 104.942 10.666C105.089 10.5187 105.289 10.445 105.54 10.445C105.765 10.445 105.956 10.5273 106.112 10.692C106.277 10.848 106.359 11.0387 106.359 11.264C106.359 11.5067 106.285 11.706 106.138 11.862C105.991 12.0093 105.791 12.083 105.54 12.083ZM108.505 20V13.24H109.636V14.709C109.749 14.423 109.9 14.1587 110.091 13.916C110.282 13.6647 110.52 13.4653 110.806 13.318C111.092 13.162 111.426 13.084 111.807 13.084C111.937 13.084 112.067 13.0927 112.197 13.11C112.327 13.1187 112.435 13.136 112.522 13.162L112.171 14.371C112.006 14.3017 111.811 14.267 111.586 14.267C111.265 14.267 110.958 14.358 110.663 14.54C110.377 14.722 110.139 15.0037 109.948 15.385C109.766 15.7663 109.675 16.2517 109.675 16.841V20H108.505ZM116.191 20.156C115.628 20.156 115.116 20.013 114.657 19.727C114.198 19.441 113.829 19.038 113.552 18.518C113.283 17.9893 113.149 17.3697 113.149 16.659C113.149 15.983 113.283 15.3763 113.552 14.839C113.829 14.3017 114.206 13.877 114.683 13.565C115.168 13.2443 115.723 13.084 116.347 13.084C116.737 13.084 117.088 13.1533 117.4 13.292C117.721 13.422 117.998 13.5867 118.232 13.786V13.24H119.298V18.362C119.298 18.6913 119.376 18.908 119.532 19.012C119.697 19.1073 119.874 19.155 120.065 19.155L119.818 20.065C118.986 20.065 118.483 19.727 118.31 19.051C118.111 19.3283 117.838 19.584 117.491 19.818C117.153 20.0433 116.72 20.156 116.191 20.156ZM116.451 19.116C116.78 19.116 117.092 19.038 117.387 18.882C117.682 18.7173 117.929 18.5137 118.128 18.271V14.644C117.894 14.4793 117.634 14.3493 117.348 14.254C117.071 14.15 116.776 14.098 116.464 14.098C116.048 14.098 115.68 14.2063 115.359 14.423C115.047 14.631 114.8 14.9257 114.618 15.307C114.436 15.6797 114.345 16.1173 114.345 16.62C114.345 17.1053 114.436 17.5387 114.618 17.92C114.8 18.2927 115.051 18.5873 115.372 18.804C115.693 19.012 116.052 19.116 116.451 19.116ZM124.293 20.156C123.643 20.156 123.128 19.9437 122.746 19.519C122.374 19.0857 122.187 18.4703 122.187 17.673V14.501H121.017V13.487H122.213L122.46 11.355H123.357V13.487H125.229V14.501H123.357V17.764C123.357 18.2667 123.461 18.6177 123.669 18.817C123.886 19.0163 124.142 19.116 124.436 19.116C124.653 19.116 124.857 19.0813 125.047 19.012C125.247 18.9427 125.429 18.8603 125.593 18.765L125.918 19.701C125.745 19.805 125.511 19.9047 125.216 20C124.922 20.104 124.614 20.156 124.293 20.156ZM127.394 20V13.24H128.564V20H127.394ZM127.979 12.083C127.754 12.083 127.559 12.0007 127.394 11.836C127.238 11.6713 127.16 11.4807 127.16 11.264C127.16 11.0127 127.234 10.8133 127.381 10.666C127.529 10.5187 127.728 10.445 127.979 10.445C128.205 10.445 128.395 10.5273 128.551 10.692C128.716 10.848 128.798 11.0387 128.798 11.264C128.798 11.5067 128.725 11.706 128.577 11.862C128.43 12.0093 128.231 12.083 127.979 12.083ZM130.944 20V13.24H132.075V14.371C132.318 14.007 132.626 13.7037 132.998 13.461C133.38 13.2097 133.83 13.084 134.35 13.084C135.113 13.084 135.681 13.3137 136.053 13.773C136.435 14.2323 136.625 14.839 136.625 15.593V20H135.455V15.723C135.455 15.2377 135.338 14.8477 135.104 14.553C134.879 14.2583 134.563 14.111 134.155 14.111C133.757 14.111 133.38 14.254 133.024 14.54C132.669 14.8173 132.366 15.1467 132.114 15.528V20H130.944ZM138.938 20V13.24H140.108V20H138.938ZM139.523 12.083C139.297 12.083 139.102 12.0007 138.938 11.836C138.782 11.6713 138.704 11.4807 138.704 11.264C138.704 11.0127 138.777 10.8133 138.925 10.666C139.072 10.5187 139.271 10.445 139.523 10.445C139.748 10.445 139.939 10.5273 140.095 10.692C140.259 10.848 140.342 11.0387 140.342 11.264C140.342 11.5067 140.268 11.706 140.121 11.862C139.973 12.0093 139.774 12.083 139.523 12.083ZM142.488 20V13.24H143.619V14.371C143.861 14.007 144.169 13.7037 144.542 13.461C144.923 13.2097 145.374 13.084 145.894 13.084C146.656 13.084 147.224 13.3137 147.597 13.773C147.978 14.2323 148.169 14.839 148.169 15.593V20H146.999V15.723C146.999 15.2377 146.882 14.8477 146.648 14.553C146.422 14.2583 146.106 14.111 145.699 14.111C145.3 14.111 144.923 14.254 144.568 14.54C144.212 14.8173 143.909 15.1467 143.658 15.528V20H142.488ZM152.964 23.016C152.565 23.016 152.175 22.9683 151.794 22.873C151.421 22.7777 151.088 22.6347 150.793 22.444L151.222 21.43C151.43 21.5947 151.673 21.729 151.95 21.833C152.227 21.9457 152.565 22.002 152.964 22.002C153.579 22.002 154.06 21.8373 154.407 21.508C154.762 21.1873 154.94 20.6717 154.94 19.961V19.129C154.767 19.337 154.515 19.5363 154.186 19.727C153.865 19.909 153.48 20 153.029 20C152.518 20 152.032 19.87 151.573 19.61C151.114 19.3413 150.741 18.9513 150.455 18.44C150.169 17.9287 150.026 17.3133 150.026 16.594C150.026 15.918 150.165 15.3157 150.442 14.787C150.728 14.2583 151.109 13.8423 151.586 13.539C152.063 13.2357 152.587 13.084 153.159 13.084C153.54 13.084 153.887 13.149 154.199 13.279C154.511 13.409 154.78 13.5693 155.005 13.76V13.24H156.071V19.844C156.071 20.5893 155.941 21.196 155.681 21.664C155.421 22.132 155.057 22.4743 154.589 22.691C154.13 22.9077 153.588 23.016 152.964 23.016ZM153.289 18.96C153.636 18.96 153.948 18.882 154.225 18.726C154.502 18.57 154.728 18.388 154.901 18.18V14.644C154.71 14.5053 154.481 14.3797 154.212 14.267C153.943 14.1543 153.631 14.098 153.276 14.098C152.921 14.098 152.587 14.1933 152.275 14.384C151.963 14.5747 151.707 14.852 151.508 15.216C151.317 15.5713 151.222 16.009 151.222 16.529C151.222 17.023 151.317 17.452 151.508 17.816C151.707 18.18 151.963 18.4617 152.275 18.661C152.587 18.8603 152.925 18.96 153.289 18.96ZM160.973 20.156C160.409 20.156 159.898 20.013 159.439 19.727C158.979 19.441 158.611 19.038 158.334 18.518C158.065 17.9893 157.931 17.3697 157.931 16.659C157.931 15.983 158.065 15.3763 158.334 14.839C158.611 14.3017 158.988 13.877 159.465 13.565C159.95 13.2443 160.505 13.084 161.129 13.084C161.519 13.084 161.87 13.1533 162.182 13.292C162.502 13.422 162.78 13.5867 163.014 13.786V13.24H164.08V18.362C164.08 18.6913 164.158 18.908 164.314 19.012C164.478 19.1073 164.656 19.155 164.847 19.155L164.6 20.065C163.768 20.065 163.265 19.727 163.092 19.051C162.892 19.3283 162.619 19.584 162.273 19.818C161.935 20.0433 161.501 20.156 160.973 20.156ZM161.233 19.116C161.562 19.116 161.874 19.038 162.169 18.882C162.463 18.7173 162.71 18.5137 162.91 18.271V14.644C162.676 14.4793 162.416 14.3493 162.13 14.254C161.852 14.15 161.558 14.098 161.246 14.098C160.83 14.098 160.461 14.2063 160.141 14.423C159.829 14.631 159.582 14.9257 159.4 15.307C159.218 15.6797 159.127 16.1173 159.127 16.62C159.127 17.1053 159.218 17.5387 159.4 17.92C159.582 18.2927 159.833 18.5873 160.154 18.804C160.474 19.012 160.834 19.116 161.233 19.116Z" fill="#015486"/>
<path d="M43.44 35L41.78 32.15H40.68V35H39.77V28.03H42.02C42.5467 28.03 42.99 28.12 43.35 28.3C43.7167 28.48 43.99 28.7233 44.17 29.03C44.35 29.3367 44.44 29.6867 44.44 30.08C44.44 30.56 44.3 30.9833 44.02 31.35C43.7467 31.7167 43.3333 31.96 42.78 32.08L44.53 35H43.44ZM40.68 31.42H42.02C42.5133 31.42 42.8833 31.3 43.13 31.06C43.3767 30.8133 43.5 30.4867 43.5 30.08C43.5 29.6667 43.3767 29.3467 43.13 29.12C42.89 28.8933 42.52 28.78 42.02 28.78H40.68V31.42ZM51.014 29.52V35H50.104V34.19C49.9307 34.47 49.6873 34.69 49.374 34.85C49.0673 35.0033 48.7273 35.08 48.354 35.08C47.9273 35.08 47.544 34.9933 47.204 34.82C46.864 34.64 46.594 34.3733 46.394 34.02C46.2007 33.6667 46.104 33.2367 46.104 32.73V29.52H47.004V32.61C47.004 33.15 47.1407 33.5667 47.414 33.86C47.6873 34.1467 48.0607 34.29 48.534 34.29C49.0207 34.29 49.404 34.14 49.684 33.84C49.964 33.54 50.104 33.1033 50.104 32.53V29.52H51.014ZM52.5105 32.24C52.5105 31.68 52.6238 31.19 52.8505 30.77C53.0771 30.3433 53.3871 30.0133 53.7805 29.78C54.1805 29.5467 54.6238 29.43 55.1105 29.43C55.5905 29.43 56.0071 29.5333 56.3605 29.74C56.7138 29.9467 56.9771 30.2067 57.1505 30.52V29.52H58.0705V35H57.1505V33.98C56.9705 34.3 56.7005 34.5667 56.3405 34.78C55.9871 34.9867 55.5738 35.09 55.1005 35.09C54.6138 35.09 54.1738 34.97 53.7805 34.73C53.3871 34.49 53.0771 34.1533 52.8505 33.72C52.6238 33.2867 52.5105 32.7933 52.5105 32.24ZM57.1505 32.25C57.1505 31.8367 57.0671 31.4767 56.9005 31.17C56.7338 30.8633 56.5071 30.63 56.2205 30.47C55.9405 30.3033 55.6305 30.22 55.2905 30.22C54.9505 30.22 54.6405 30.3 54.3605 30.46C54.0805 30.62 53.8571 30.8533 53.6905 31.16C53.5238 31.4667 53.4405 31.8267 53.4405 32.24C53.4405 32.66 53.5238 33.0267 53.6905 33.34C53.8571 33.6467 54.0805 33.8833 54.3605 34.05C54.6405 34.21 54.9505 34.29 55.2905 34.29C55.6305 34.29 55.9405 34.21 56.2205 34.05C56.5071 33.8833 56.7338 33.6467 56.9005 33.34C57.0671 33.0267 57.1505 32.6633 57.1505 32.25ZM66.3843 28.03V33.18C66.3843 33.7533 66.2076 34.2133 65.8543 34.56C65.501 34.9 65.0343 35.07 64.4543 35.07C63.8676 35.07 63.3976 34.8967 63.0443 34.55C62.691 34.1967 62.5143 33.7167 62.5143 33.11H63.4243C63.431 33.45 63.5176 33.7267 63.6843 33.94C63.8576 34.1533 64.1143 34.26 64.4543 34.26C64.7943 34.26 65.0476 34.16 65.2143 33.96C65.381 33.7533 65.4643 33.4933 65.4643 33.18V28.03H66.3843ZM70.867 35.09C70.3537 35.09 69.887 34.9733 69.467 34.74C69.0537 34.5067 68.727 34.1767 68.487 33.75C68.2537 33.3167 68.137 32.8167 68.137 32.25C68.137 31.69 68.257 31.1967 68.497 30.77C68.7437 30.3367 69.077 30.0067 69.497 29.78C69.917 29.5467 70.387 29.43 70.907 29.43C71.427 29.43 71.897 29.5467 72.317 29.78C72.737 30.0067 73.067 30.3333 73.307 30.76C73.5537 31.1867 73.677 31.6833 73.677 32.25C73.677 32.8167 73.5504 33.3167 73.297 33.75C73.0504 34.1767 72.7137 34.5067 72.287 34.74C71.8604 34.9733 71.387 35.09 70.867 35.09ZM70.867 34.29C71.1937 34.29 71.5004 34.2133 71.787 34.06C72.0737 33.9067 72.3037 33.6767 72.477 33.37C72.657 33.0633 72.747 32.69 72.747 32.25C72.747 31.81 72.6604 31.4367 72.487 31.13C72.3137 30.8233 72.087 30.5967 71.807 30.45C71.527 30.2967 71.2237 30.22 70.897 30.22C70.5637 30.22 70.257 30.2967 69.977 30.45C69.7037 30.5967 69.4837 30.8233 69.317 31.13C69.1504 31.4367 69.067 31.81 69.067 32.25C69.067 32.6967 69.147 33.0733 69.307 33.38C69.4737 33.6867 69.6937 33.9167 69.967 34.07C70.2404 34.2167 70.5404 34.29 70.867 34.29ZM74.8335 32.24C74.8335 31.68 74.9468 31.19 75.1735 30.77C75.4002 30.3433 75.7102 30.0133 76.1035 29.78C76.5035 29.5467 76.9468 29.43 77.4335 29.43C77.9135 29.43 78.3302 29.5333 78.6835 29.74C79.0368 29.9467 79.3002 30.2067 79.4735 30.52V29.52H80.3935V35H79.4735V33.98C79.2935 34.3 79.0235 34.5667 78.6635 34.78C78.3102 34.9867 77.8968 35.09 77.4235 35.09C76.9368 35.09 76.4968 34.97 76.1035 34.73C75.7102 34.49 75.4002 34.1533 75.1735 33.72C74.9468 33.2867 74.8335 32.7933 74.8335 32.24ZM79.4735 32.25C79.4735 31.8367 79.3902 31.4767 79.2235 31.17C79.0568 30.8633 78.8302 30.63 78.5435 30.47C78.2635 30.3033 77.9535 30.22 77.6135 30.22C77.2735 30.22 76.9635 30.3 76.6835 30.46C76.4035 30.62 76.1802 30.8533 76.0135 31.16C75.8468 31.4667 75.7635 31.8267 75.7635 32.24C75.7635 32.66 75.8468 33.0267 76.0135 33.34C76.1802 33.6467 76.4035 33.8833 76.6835 34.05C76.9635 34.21 77.2735 34.29 77.6135 34.29C77.9535 34.29 78.2635 34.21 78.5435 34.05C78.8302 33.8833 79.0568 33.6467 79.2235 33.34C79.3902 33.0267 79.4735 32.6633 79.4735 32.25ZM76.3235 28.93C76.3702 28.59 76.4802 28.33 76.6535 28.15C76.8335 27.97 77.0568 27.88 77.3235 27.88C77.4502 27.88 77.5568 27.9033 77.6435 27.95C77.7368 27.99 77.8468 28.05 77.9735 28.13C78.0668 28.1967 78.1502 28.25 78.2235 28.29C78.2968 28.3233 78.3768 28.34 78.4635 28.34C78.5768 28.34 78.6735 28.3033 78.7535 28.23C78.8335 28.1567 78.8835 28.05 78.9035 27.91H79.4235C79.3835 28.2433 79.2735 28.5 79.0935 28.68C78.9135 28.86 78.6902 28.95 78.4235 28.95C78.2968 28.95 78.1835 28.93 78.0835 28.89C77.9902 28.8433 77.8835 28.7767 77.7635 28.69C77.6568 28.6233 77.5702 28.5733 77.5035 28.54C77.4435 28.5067 77.3702 28.49 77.2835 28.49C77.1702 28.49 77.0735 28.5267 76.9935 28.6C76.9202 28.6733 76.8735 28.7833 76.8535 28.93H76.3235ZM84.6213 35.09C84.108 35.09 83.6413 34.9733 83.2213 34.74C82.808 34.5067 82.4813 34.1767 82.2413 33.75C82.008 33.3167 81.8913 32.8167 81.8913 32.25C81.8913 31.69 82.0113 31.1967 82.2513 30.77C82.498 30.3367 82.8313 30.0067 83.2513 29.78C83.6713 29.5467 84.1413 29.43 84.6613 29.43C85.1813 29.43 85.6513 29.5467 86.0713 29.78C86.4913 30.0067 86.8213 30.3333 87.0613 30.76C87.308 31.1867 87.4313 31.6833 87.4313 32.25C87.4313 32.8167 87.3047 33.3167 87.0513 33.75C86.8047 34.1767 86.468 34.5067 86.0413 34.74C85.6147 34.9733 85.1413 35.09 84.6213 35.09ZM84.6213 34.29C84.948 34.29 85.2547 34.2133 85.5413 34.06C85.828 33.9067 86.058 33.6767 86.2313 33.37C86.4113 33.0633 86.5013 32.69 86.5013 32.25C86.5013 31.81 86.4147 31.4367 86.2413 31.13C86.068 30.8233 85.8413 30.5967 85.5613 30.45C85.2813 30.2967 84.978 30.22 84.6513 30.22C84.318 30.22 84.0113 30.2967 83.7313 30.45C83.458 30.5967 83.238 30.8233 83.0713 31.13C82.9047 31.4367 82.8213 31.81 82.8213 32.25C82.8213 32.6967 82.9013 33.0733 83.0613 33.38C83.228 33.6867 83.448 33.9167 83.7213 34.07C83.9947 34.2167 84.2947 34.29 84.6213 34.29ZM97.1738 30.05C96.9805 29.6433 96.7005 29.33 96.3338 29.11C95.9672 28.8833 95.5405 28.77 95.0538 28.77C94.5672 28.77 94.1272 28.8833 93.7338 29.11C93.3472 29.33 93.0405 29.65 92.8138 30.07C92.5938 30.4833 92.4838 30.9633 92.4838 31.51C92.4838 32.0567 92.5938 32.5367 92.8138 32.95C93.0405 33.3633 93.3472 33.6833 93.7338 33.91C94.1272 34.13 94.5672 34.24 95.0538 34.24C95.7338 34.24 96.2938 34.0367 96.7338 33.63C97.1738 33.2233 97.4305 32.6733 97.5038 31.98H94.7238V31.24H98.4738V31.94C98.4205 32.5133 98.2405 33.04 97.9338 33.52C97.6272 33.9933 97.2238 34.37 96.7238 34.65C96.2238 34.9233 95.6672 35.06 95.0538 35.06C94.4072 35.06 93.8172 34.91 93.2838 34.61C92.7505 34.3033 92.3272 33.88 92.0138 33.34C91.7072 32.8 91.5538 32.19 91.5538 31.51C91.5538 30.83 91.7072 30.22 92.0138 29.68C92.3272 29.1333 92.7505 28.71 93.2838 28.41C93.8172 28.1033 94.4072 27.95 95.0538 27.95C95.7938 27.95 96.4472 28.1333 97.0138 28.5C97.5872 28.8667 98.0038 29.3833 98.2638 30.05H97.1738ZM102.367 35.09C101.854 35.09 101.387 34.9733 100.967 34.74C100.554 34.5067 100.227 34.1767 99.987 33.75C99.7537 33.3167 99.637 32.8167 99.637 32.25C99.637 31.69 99.757 31.1967 99.997 30.77C100.244 30.3367 100.577 30.0067 100.997 29.78C101.417 29.5467 101.887 29.43 102.407 29.43C102.927 29.43 103.397 29.5467 103.817 29.78C104.237 30.0067 104.567 30.3333 104.807 30.76C105.054 31.1867 105.177 31.6833 105.177 32.25C105.177 32.8167 105.05 33.3167 104.797 33.75C104.55 34.1767 104.214 34.5067 103.787 34.74C103.36 34.9733 102.887 35.09 102.367 35.09ZM102.367 34.29C102.694 34.29 103 34.2133 103.287 34.06C103.574 33.9067 103.804 33.6767 103.977 33.37C104.157 33.0633 104.247 32.69 104.247 32.25C104.247 31.81 104.16 31.4367 103.987 31.13C103.814 30.8233 103.587 30.5967 103.307 30.45C103.027 30.2967 102.724 30.22 102.397 30.22C102.064 30.22 101.757 30.2967 101.477 30.45C101.204 30.5967 100.984 30.8233 100.817 31.13C100.65 31.4367 100.567 31.81 100.567 32.25C100.567 32.6967 100.647 33.0733 100.807 33.38C100.974 33.6867 101.194 33.9167 101.467 34.07C101.74 34.2167 102.04 34.29 102.367 34.29ZM113.264 29.42C113.69 29.42 114.07 29.51 114.404 29.69C114.737 29.8633 115 30.1267 115.194 30.48C115.387 30.8333 115.484 31.2633 115.484 31.77V35H114.584V31.9C114.584 31.3533 114.447 30.9367 114.174 30.65C113.907 30.3567 113.544 30.21 113.084 30.21C112.61 30.21 112.234 30.3633 111.954 30.67C111.674 30.97 111.534 31.4067 111.534 31.98V35H110.634V31.9C110.634 31.3533 110.497 30.9367 110.224 30.65C109.957 30.3567 109.594 30.21 109.134 30.21C108.66 30.21 108.284 30.3633 108.004 30.67C107.724 30.97 107.584 31.4067 107.584 31.98V35H106.674V29.52H107.584V30.31C107.764 30.0233 108.004 29.8033 108.304 29.65C108.61 29.4967 108.947 29.42 109.314 29.42C109.774 29.42 110.18 29.5233 110.534 29.73C110.887 29.9367 111.15 30.24 111.324 30.64C111.477 30.2533 111.73 29.9533 112.084 29.74C112.437 29.5267 112.83 29.42 113.264 29.42ZM122.276 32.05C122.276 32.2233 122.266 32.4067 122.246 32.6H117.866C117.9 33.14 118.083 33.5633 118.416 33.87C118.756 34.17 119.166 34.32 119.646 34.32C120.04 34.32 120.366 34.23 120.626 34.05C120.893 33.8633 121.08 33.6167 121.186 33.31H122.166C122.02 33.8367 121.726 34.2667 121.286 34.6C120.846 34.9267 120.3 35.09 119.646 35.09C119.126 35.09 118.66 34.9733 118.246 34.74C117.84 34.5067 117.52 34.1767 117.286 33.75C117.053 33.3167 116.936 32.8167 116.936 32.25C116.936 31.6833 117.05 31.1867 117.276 30.76C117.503 30.3333 117.82 30.0067 118.226 29.78C118.64 29.5467 119.113 29.43 119.646 29.43C120.166 29.43 120.626 29.5433 121.026 29.77C121.426 29.9967 121.733 30.31 121.946 30.71C122.166 31.1033 122.276 31.55 122.276 32.05ZM121.336 31.86C121.336 31.5133 121.26 31.2167 121.106 30.97C120.953 30.7167 120.743 30.5267 120.476 30.4C120.216 30.2667 119.926 30.2 119.606 30.2C119.146 30.2 118.753 30.3467 118.426 30.64C118.106 30.9333 117.923 31.34 117.876 31.86H121.336ZM125.717 35.09C125.297 35.09 124.921 35.02 124.587 34.88C124.254 34.7333 123.991 34.5333 123.797 34.28C123.604 34.02 123.497 33.7233 123.477 33.39H124.417C124.444 33.6633 124.571 33.8867 124.797 34.06C125.031 34.2333 125.334 34.32 125.707 34.32C126.054 34.32 126.327 34.2433 126.527 34.09C126.727 33.9367 126.827 33.7433 126.827 33.51C126.827 33.27 126.721 33.0933 126.507 32.98C126.294 32.86 125.964 32.7433 125.517 32.63C125.111 32.5233 124.777 32.4167 124.517 32.31C124.264 32.1967 124.044 32.0333 123.857 31.82C123.677 31.6 123.587 31.3133 123.587 30.96C123.587 30.68 123.671 30.4233 123.837 30.19C124.004 29.9567 124.241 29.7733 124.547 29.64C124.854 29.5 125.204 29.43 125.597 29.43C126.204 29.43 126.694 29.5833 127.067 29.89C127.441 30.1967 127.641 30.6167 127.667 31.15H126.757C126.737 30.8633 126.621 30.6333 126.407 30.46C126.201 30.2867 125.921 30.2 125.567 30.2C125.241 30.2 124.981 30.27 124.787 30.41C124.594 30.55 124.497 30.7333 124.497 30.96C124.497 31.14 124.554 31.29 124.667 31.41C124.787 31.5233 124.934 31.6167 125.107 31.69C125.287 31.7567 125.534 31.8333 125.847 31.92C126.241 32.0267 126.561 32.1333 126.807 32.24C127.054 32.34 127.264 32.4933 127.437 32.7C127.617 32.9067 127.711 33.1767 127.717 33.51C127.717 33.81 127.634 34.08 127.467 34.32C127.301 34.56 127.064 34.75 126.757 34.89C126.457 35.0233 126.111 35.09 125.717 35.09ZM131.928 32.24C131.928 31.68 132.041 31.19 132.268 30.77C132.495 30.3433 132.805 30.0133 133.198 29.78C133.598 29.5467 134.045 29.43 134.538 29.43C134.965 29.43 135.361 29.53 135.728 29.73C136.095 29.9233 136.375 30.18 136.568 30.5V27.6H137.488V35H136.568V33.97C136.388 34.2967 136.121 34.5667 135.768 34.78C135.415 34.9867 135.001 35.09 134.528 35.09C134.041 35.09 133.598 34.97 133.198 34.73C132.805 34.49 132.495 34.1533 132.268 33.72C132.041 33.2867 131.928 32.7933 131.928 32.24ZM136.568 32.25C136.568 31.8367 136.485 31.4767 136.318 31.17C136.151 30.8633 135.925 30.63 135.638 30.47C135.358 30.3033 135.048 30.22 134.708 30.22C134.368 30.22 134.058 30.3 133.778 30.46C133.498 30.62 133.275 30.8533 133.108 31.16C132.941 31.4667 132.858 31.8267 132.858 32.24C132.858 32.66 132.941 33.0267 133.108 33.34C133.275 33.6467 133.498 33.8833 133.778 34.05C134.058 34.21 134.368 34.29 134.708 34.29C135.048 34.29 135.358 34.21 135.638 34.05C135.925 33.8833 136.151 33.6467 136.318 33.34C136.485 33.0267 136.568 32.6633 136.568 32.25ZM138.986 32.24C138.986 31.68 139.099 31.19 139.326 30.77C139.553 30.3433 139.863 30.0133 140.256 29.78C140.656 29.5467 141.099 29.43 141.586 29.43C142.066 29.43 142.483 29.5333 142.836 29.74C143.189 29.9467 143.453 30.2067 143.626 30.52V29.52H144.546V35H143.626V33.98C143.446 34.3 143.176 34.5667 142.816 34.78C142.463 34.9867 142.049 35.09 141.576 35.09C141.089 35.09 140.649 34.97 140.256 34.73C139.863 34.49 139.553 34.1533 139.326 33.72C139.099 33.2867 138.986 32.7933 138.986 32.24ZM143.626 32.25C143.626 31.8367 143.543 31.4767 143.376 31.17C143.209 30.8633 142.983 30.63 142.696 30.47C142.416 30.3033 142.106 30.22 141.766 30.22C141.426 30.22 141.116 30.3 140.836 30.46C140.556 30.62 140.333 30.8533 140.166 31.16C139.999 31.4667 139.916 31.8267 139.916 32.24C139.916 32.66 139.999 33.0267 140.166 33.34C140.333 33.6467 140.556 33.8833 140.836 34.05C141.116 34.21 141.426 34.29 141.766 34.29C142.106 34.29 142.416 34.21 142.696 34.05C142.983 33.8833 143.209 33.6467 143.376 33.34C143.543 33.0267 143.626 32.6633 143.626 32.25ZM151.56 35.07C151.1 35.07 150.686 34.99 150.32 34.83C149.96 34.6633 149.676 34.4367 149.47 34.15C149.263 33.8567 149.156 33.52 149.15 33.14H150.12C150.153 33.4667 150.286 33.7433 150.52 33.97C150.76 34.19 151.106 34.3 151.56 34.3C151.993 34.3 152.333 34.1933 152.58 33.98C152.833 33.76 152.96 33.48 152.96 33.14C152.96 32.8733 152.886 32.6567 152.74 32.49C152.593 32.3233 152.41 32.1967 152.19 32.11C151.97 32.0233 151.673 31.93 151.3 31.83C150.84 31.71 150.47 31.59 150.19 31.47C149.916 31.35 149.68 31.1633 149.48 30.91C149.286 30.65 149.19 30.3033 149.19 29.87C149.19 29.49 149.286 29.1533 149.48 28.86C149.673 28.5667 149.943 28.34 150.29 28.18C150.643 28.02 151.046 27.94 151.5 27.94C152.153 27.94 152.686 28.1033 153.1 28.43C153.52 28.7567 153.756 29.19 153.81 29.73H152.81C152.776 29.4633 152.636 29.23 152.39 29.03C152.143 28.8233 151.816 28.72 151.41 28.72C151.03 28.72 150.72 28.82 150.48 29.02C150.24 29.2133 150.12 29.4867 150.12 29.84C150.12 30.0933 150.19 30.3 150.33 30.46C150.476 30.62 150.653 30.7433 150.86 30.83C151.073 30.91 151.37 31.0033 151.75 31.11C152.21 31.2367 152.58 31.3633 152.86 31.49C153.14 31.61 153.38 31.8 153.58 32.06C153.78 32.3133 153.88 32.66 153.88 33.1C153.88 33.44 153.79 33.76 153.61 34.06C153.43 34.36 153.163 34.6033 152.81 34.79C152.456 34.9767 152.04 35.07 151.56 35.07ZM155.989 28.63C155.815 28.63 155.669 28.57 155.549 28.45C155.429 28.33 155.369 28.1833 155.369 28.01C155.369 27.8367 155.429 27.69 155.549 27.57C155.669 27.45 155.815 27.39 155.989 27.39C156.155 27.39 156.295 27.45 156.409 27.57C156.529 27.69 156.589 27.8367 156.589 28.01C156.589 28.1833 156.529 28.33 156.409 28.45C156.295 28.57 156.155 28.63 155.989 28.63ZM156.429 29.52V35H155.519V29.52H156.429ZM159.19 27.6V35H158.28V27.6H159.19ZM163.081 34.16L164.781 29.52H165.751L163.601 35H162.541L160.391 29.52H161.371L163.081 34.16ZM166.606 32.24C166.606 31.68 166.72 31.19 166.946 30.77C167.173 30.3433 167.483 30.0133 167.876 29.78C168.276 29.5467 168.72 29.43 169.206 29.43C169.686 29.43 170.103 29.5333 170.456 29.74C170.81 29.9467 171.073 30.2067 171.246 30.52V29.52H172.166V35H171.246V33.98C171.066 34.3 170.796 34.5667 170.436 34.78C170.083 34.9867 169.67 35.09 169.196 35.09C168.71 35.09 168.27 34.97 167.876 34.73C167.483 34.49 167.173 34.1533 166.946 33.72C166.72 33.2867 166.606 32.7933 166.606 32.24ZM171.246 32.25C171.246 31.8367 171.163 31.4767 170.996 31.17C170.83 30.8633 170.603 30.63 170.316 30.47C170.036 30.3033 169.726 30.22 169.386 30.22C169.046 30.22 168.736 30.3 168.456 30.46C168.176 30.62 167.953 30.8533 167.786 31.16C167.62 31.4667 167.536 31.8267 167.536 32.24C167.536 32.66 167.62 33.0267 167.786 33.34C167.953 33.6467 168.176 33.8833 168.456 34.05C168.736 34.21 169.046 34.29 169.386 34.29C169.726 34.29 170.036 34.21 170.316 34.05C170.603 33.8833 170.83 33.6467 170.996 33.34C171.163 33.0267 171.246 32.6633 171.246 32.25Z" fill="#98A4AE"/>
<path d="M73.9434 45.5L108.058 45.5L91.001 68.3301L73.9434 45.5Z" fill="white" stroke="#015486" stroke-width="2"/>
<path d="M91 65L71.0814 41L110.919 41L91 65Z" fill="white"/>
<path d="M31.155 11.978C30.2796 11.4725 29.3132 11.1443 28.311 11.0123C27.3088 10.8803 26.2904 10.947 25.314 11.2086C24.3376 11.4702 23.4223 11.9215 22.6203 12.5369C21.8183 13.1523 21.1454 13.9196 20.64 14.795L20.35 15.297C20.2507 15.4693 20.2239 15.6739 20.2755 15.8659C20.3271 16.0579 20.4528 16.2216 20.625 16.321L26.086 19.474L22.818 25.194L22.75 25.193C19.592 25.193 16.857 27.025 15.228 29.615C15.5062 29.5166 15.8027 29.481 16.0963 29.5108C16.3898 29.5405 16.6732 29.6348 16.926 29.787C18.338 27.921 20.444 26.693 22.75 26.693C25.154 26.693 27.341 28.028 28.75 30.029C28.9448 29.8497 29.1733 29.7109 29.4222 29.6206C29.6711 29.5303 29.9355 29.4903 30.2 29.503C28.869 27.445 26.833 25.883 24.444 25.372L27.385 20.224L32.658 23.269C32.7433 23.3183 32.8376 23.3503 32.9353 23.3631C33.033 23.376 33.1323 23.3695 33.2275 23.3439C33.3227 23.3184 33.4119 23.2743 33.4901 23.2143C33.5682 23.1543 33.6338 23.0794 33.683 22.994L33.973 22.493C34.4785 21.6176 34.8065 20.6511 34.9385 19.6489C35.0704 18.6466 35.0036 17.6282 34.742 16.6518C34.4803 15.6754 34.0288 14.7601 33.4134 13.9581C32.7979 13.1562 32.0305 12.4833 31.155 11.978ZM28.965 19.404L25.807 17.58C26.379 16.699 26.923 16.028 27.575 15.435C28.21 14.857 28.968 14.335 29.996 13.767C30.148 14.722 30.194 15.517 30.096 16.297C29.98 17.229 29.651 18.19 28.963 19.403M30.261 20.153C31.021 18.815 31.437 17.663 31.584 16.483C31.681 15.709 31.659 14.945 31.562 14.138C32.5536 15.0759 33.208 16.3148 33.4237 17.6625C33.6394 19.0102 33.4043 20.3915 32.755 21.592L30.261 20.153ZM26.565 14.325C25.775 15.044 25.14 15.844 24.505 16.829L22.025 15.397C22.7247 14.2594 23.773 13.3782 25.014 12.8845C26.2549 12.3908 27.6221 12.311 28.912 12.657C27.983 13.192 27.227 13.722 26.565 14.325ZM16.605 31.263C16.5536 31.1087 16.4535 30.9752 16.3197 30.8828C16.1859 30.7903 16.0257 30.7439 15.8632 30.7504C15.7007 30.757 15.5447 30.8162 15.4188 30.9191C15.2928 31.022 15.2038 31.163 15.165 31.321C14.91 32.363 14.427 32.935 13.877 33.267C13.301 33.615 12.567 33.749 11.748 33.749C11.5491 33.749 11.3583 33.828 11.2177 33.9687C11.077 34.1093 10.998 34.3001 10.998 34.499C10.998 34.6979 11.077 34.8887 11.2177 35.0293C11.3583 35.17 11.5491 35.249 11.748 35.249C12.705 35.249 13.748 35.097 14.652 34.551C15.1912 34.2252 15.6459 33.7767 15.979 33.242C17.768 35.524 21.261 35.512 22.998 33.218C24.763 35.548 28.338 35.524 30.101 33.132C30.5796 33.7834 31.2038 34.3141 31.9238 34.6816C32.6437 35.0492 33.4396 35.2435 34.248 35.249C34.4469 35.249 34.6377 35.17 34.7783 35.0293C34.919 34.8887 34.998 34.6979 34.998 34.499C34.998 34.3001 34.919 34.1093 34.7783 33.9687C34.6377 33.828 34.4469 33.749 34.248 33.749C32.773 33.749 31.303 32.789 30.818 31.271C30.77 31.1199 30.6754 30.9879 30.5477 30.894C30.42 30.8001 30.2659 30.749 30.1074 30.7481C29.9489 30.7472 29.7942 30.7965 29.6655 30.8891C29.5368 30.9816 29.4407 31.1125 29.391 31.263C28.428 34.172 24.653 34.135 23.707 31.384C23.6561 31.2364 23.5604 31.1085 23.4333 31.0179C23.3062 30.9273 23.1541 30.8786 22.998 30.8786C22.8419 30.8786 22.6897 30.9273 22.5626 31.0179C22.4355 31.1085 22.3399 31.2364 22.289 31.384C21.343 34.135 17.569 34.171 16.605 31.263Z" fill="#015486"/>
<defs>
<linearGradient id="paint0_linear_294_390" x1="179.069" y1="0.748829" x2="-69.2821" y2="206.234" gradientUnits="userSpaceOnUse">
<stop stop-color="white"/>
</linearGradient>
</defs>
</svg>
