<svg width="181" height="70" viewBox="0 0 181 70" fill="none" xmlns="http://www.w3.org/2000/svg">
<path d="M20 1H161C171.493 1 180 9.50659 180 20V26C180 36.4934 171.493 45 161 45H20C9.50659 45 1 36.4934 1 26V20C1 9.50659 9.50659 1 20 1Z" fill="url(#paint0_linear_294_376)" stroke="#015486" stroke-width="2"/>
<path d="M40.17 20V10.926C40.5253 10.8827 40.9153 10.8523 41.34 10.835C41.7733 10.809 42.2197 10.796 42.679 10.796C43.433 10.796 44.0743 10.9173 44.603 11.16C45.1317 11.394 45.5347 11.719 45.812 12.135C46.0893 12.551 46.228 13.0277 46.228 13.565C46.228 14.215 46.0677 14.7653 45.747 15.216C45.4263 15.6667 44.98 16.0133 44.408 16.256C43.836 16.49 43.173 16.607 42.419 16.607C42.055 16.607 41.717 16.594 41.405 16.568V20H40.17ZM42.575 15.58C43.3463 15.58 43.9443 15.4067 44.369 15.06C44.7937 14.7133 45.006 14.2497 45.006 13.669C45.006 13.1057 44.8023 12.6593 44.395 12.33C43.9877 12.0007 43.407 11.836 42.653 11.836C42.419 11.836 42.198 11.8403 41.99 11.849C41.782 11.8577 41.587 11.8707 41.405 11.888V15.515C41.5437 15.5323 41.7127 15.5497 41.912 15.567C42.1113 15.5757 42.3323 15.58 42.575 15.58ZM47.8937 20V13.24H49.0247V14.709C49.1374 14.423 49.289 14.1587 49.4797 13.916C49.6704 13.6647 49.9087 13.4653 50.1947 13.318C50.4807 13.162 50.8144 13.084 51.1957 13.084C51.3257 13.084 51.4557 13.0927 51.5857 13.11C51.7157 13.1187 51.824 13.136 51.9107 13.162L51.5597 14.371C51.395 14.3017 51.2 14.267 50.9747 14.267C50.654 14.267 50.3464 14.358 50.0517 14.54C49.7657 14.722 49.5274 15.0037 49.3367 15.385C49.1547 15.7663 49.0637 16.2517 49.0637 16.841V20H47.8937ZM55.5795 20.156C55.0162 20.156 54.5049 20.013 54.0455 19.727C53.5862 19.441 53.2179 19.038 52.9405 18.518C52.6719 17.9893 52.5375 17.3697 52.5375 16.659C52.5375 15.983 52.6719 15.3763 52.9405 14.839C53.2179 14.3017 53.5949 13.877 54.0715 13.565C54.5569 13.2443 55.1115 13.084 55.7355 13.084C56.1255 13.084 56.4765 13.1533 56.7885 13.292C57.1092 13.422 57.3865 13.5867 57.6205 13.786V13.24H58.6865V18.362C58.6865 18.6913 58.7645 18.908 58.9205 19.012C59.0852 19.1073 59.2629 19.155 59.4535 19.155L59.2065 20.065C58.3745 20.065 57.8719 19.727 57.6985 19.051C57.4992 19.3283 57.2262 19.584 56.8795 19.818C56.5415 20.0433 56.1082 20.156 55.5795 20.156ZM55.8395 19.116C56.1689 19.116 56.4809 19.038 56.7755 18.882C57.0702 18.7173 57.3172 18.5137 57.5165 18.271V14.644C57.2825 14.4793 57.0225 14.3493 56.7365 14.254C56.4592 14.15 56.1645 14.098 55.8525 14.098C55.4365 14.098 55.0682 14.2063 54.7475 14.423C54.4355 14.631 54.1885 14.9257 54.0065 15.307C53.8245 15.6797 53.7335 16.1173 53.7335 16.62C53.7335 17.1053 53.8245 17.5387 54.0065 17.92C54.1885 18.2927 54.4399 18.5873 54.7605 18.804C55.0812 19.012 55.4409 19.116 55.8395 19.116ZM61.316 20V13.24H62.486V20H61.316ZM61.901 12.083C61.6756 12.083 61.4806 12.0007 61.316 11.836C61.16 11.6713 61.082 11.4807 61.082 11.264C61.082 11.0127 61.1556 10.8133 61.303 10.666C61.4503 10.5187 61.6496 10.445 61.901 10.445C62.1263 10.445 62.317 10.5273 62.473 10.692C62.6376 10.848 62.72 11.0387 62.72 11.264C62.72 11.5067 62.6463 11.706 62.499 11.862C62.3516 12.0093 62.1523 12.083 61.901 12.083ZM67.453 20.156C66.8896 20.156 66.3783 20.013 65.919 19.727C65.4596 19.441 65.0913 19.038 64.814 18.518C64.5453 17.9893 64.411 17.3697 64.411 16.659C64.411 15.983 64.5453 15.3763 64.814 14.839C65.0913 14.3017 65.4683 13.877 65.945 13.565C66.4303 13.2443 66.985 13.084 67.609 13.084C67.999 13.084 68.35 13.1533 68.662 13.292C68.9826 13.422 69.26 13.5867 69.494 13.786V13.24H70.56V18.362C70.56 18.6913 70.638 18.908 70.794 19.012C70.9586 19.1073 71.1363 19.155 71.327 19.155L71.08 20.065C70.248 20.065 69.7453 19.727 69.572 19.051C69.3726 19.3283 69.0996 19.584 68.753 19.818C68.415 20.0433 67.9816 20.156 67.453 20.156ZM67.713 19.116C68.0423 19.116 68.3543 19.038 68.649 18.882C68.9436 18.7173 69.1906 18.5137 69.39 18.271V14.644C69.156 14.4793 68.896 14.3493 68.61 14.254C68.3326 14.15 68.038 14.098 67.726 14.098C67.31 14.098 66.9416 14.2063 66.621 14.423C66.309 14.631 66.062 14.9257 65.88 15.307C65.698 15.6797 65.607 16.1173 65.607 16.62C65.607 17.1053 65.698 17.5387 65.88 17.92C66.062 18.2927 66.3133 18.5873 66.634 18.804C66.9546 19.012 67.3143 19.116 67.713 19.116ZM79.9479 20.156C79.3932 20.156 78.8862 20.013 78.4269 19.727C77.9675 19.441 77.6035 19.038 77.3349 18.518C77.0662 17.9893 76.9319 17.3697 76.9319 16.659C76.9319 15.9743 77.0662 15.3633 77.3349 14.826C77.6122 14.2887 77.9762 13.864 78.4269 13.552C78.8862 13.24 79.3889 13.084 79.9349 13.084C80.3855 13.084 80.7712 13.175 81.0919 13.357C81.4212 13.539 81.6769 13.7253 81.8589 13.916V10.38H83.0289V18.362C83.0289 18.6913 83.1069 18.908 83.2629 19.012C83.4275 19.1073 83.6052 19.155 83.7959 19.155L83.5489 20.065C82.7255 20.065 82.2229 19.7357 82.0409 19.077C81.8502 19.3457 81.5815 19.5927 81.2349 19.818C80.8969 20.0433 80.4679 20.156 79.9479 20.156ZM80.2079 19.116C80.5285 19.116 80.8319 19.0423 81.1179 18.895C81.4125 18.739 81.6595 18.5397 81.8589 18.297V14.943C81.6942 14.735 81.4645 14.5443 81.1699 14.371C80.8752 14.189 80.5502 14.098 80.1949 14.098C79.7789 14.098 79.4149 14.2107 79.1029 14.436C78.7909 14.6613 78.5482 14.9647 78.3749 15.346C78.2102 15.7187 78.1279 16.1433 78.1279 16.62C78.1279 17.0967 78.2189 17.5257 78.4009 17.907C78.5829 18.2797 78.8299 18.5743 79.1419 18.791C79.4625 19.0077 79.8179 19.116 80.2079 19.116ZM88.2366 20.156C87.2659 20.156 86.4946 19.8483 85.9226 19.233C85.3592 18.609 85.0776 17.738 85.0776 16.62C85.0776 15.944 85.2032 15.3417 85.4546 14.813C85.7146 14.2757 86.0742 13.8553 86.5336 13.552C86.9929 13.24 87.5259 13.084 88.1326 13.084C88.7826 13.084 89.3199 13.227 89.7446 13.513C90.1779 13.7903 90.5029 14.1673 90.7196 14.644C90.9362 15.1207 91.0446 15.645 91.0446 16.217C91.0446 16.5203 91.0316 16.815 91.0056 17.101H86.2736C86.3516 17.7337 86.5726 18.2277 86.9366 18.583C87.3006 18.9383 87.7816 19.116 88.3796 19.116C88.7696 19.116 89.1206 19.077 89.4326 18.999C89.7446 18.9123 90.0436 18.804 90.3296 18.674L90.6026 19.675C90.2906 19.8137 89.9396 19.9263 89.5496 20.013C89.1596 20.1083 88.7219 20.156 88.2366 20.156ZM86.2606 16.152H89.9656C89.9656 15.4933 89.8009 14.9863 89.4716 14.631C89.1422 14.2757 88.6872 14.098 88.1066 14.098C87.6039 14.098 87.1879 14.2757 86.8586 14.631C86.5292 14.9777 86.3299 15.4847 86.2606 16.152ZM97.2313 20V10.926C97.5867 10.8827 97.9767 10.8523 98.4013 10.835C98.8347 10.809 99.281 10.796 99.7403 10.796C100.494 10.796 101.136 10.9173 101.664 11.16C102.193 11.394 102.596 11.719 102.873 12.135C103.151 12.551 103.289 13.0277 103.289 13.565C103.289 14.215 103.129 14.7653 102.808 15.216C102.488 15.6667 102.041 16.0133 101.469 16.256C100.897 16.49 100.234 16.607 99.4803 16.607C99.1163 16.607 98.7783 16.594 98.4663 16.568V20H97.2313ZM99.6363 15.58C100.408 15.58 101.006 15.4067 101.43 15.06C101.855 14.7133 102.067 14.2497 102.067 13.669C102.067 13.1057 101.864 12.6593 101.456 12.33C101.049 12.0007 100.468 11.836 99.7143 11.836C99.4803 11.836 99.2593 11.8403 99.0513 11.849C98.8433 11.8577 98.6483 11.8707 98.4663 11.888V15.515C98.605 15.5323 98.774 15.5497 98.9733 15.567C99.1727 15.5757 99.3937 15.58 99.6363 15.58ZM104.955 20V13.24H106.125V20H104.955ZM105.54 12.083C105.315 12.083 105.12 12.0007 104.955 11.836C104.799 11.6713 104.721 11.4807 104.721 11.264C104.721 11.0127 104.795 10.8133 104.942 10.666C105.089 10.5187 105.289 10.445 105.54 10.445C105.765 10.445 105.956 10.5273 106.112 10.692C106.277 10.848 106.359 11.0387 106.359 11.264C106.359 11.5067 106.285 11.706 106.138 11.862C105.991 12.0093 105.791 12.083 105.54 12.083ZM108.505 20V13.24H109.636V14.709C109.749 14.423 109.9 14.1587 110.091 13.916C110.282 13.6647 110.52 13.4653 110.806 13.318C111.092 13.162 111.426 13.084 111.807 13.084C111.937 13.084 112.067 13.0927 112.197 13.11C112.327 13.1187 112.435 13.136 112.522 13.162L112.171 14.371C112.006 14.3017 111.811 14.267 111.586 14.267C111.265 14.267 110.958 14.358 110.663 14.54C110.377 14.722 110.139 15.0037 109.948 15.385C109.766 15.7663 109.675 16.2517 109.675 16.841V20H108.505ZM116.191 20.156C115.628 20.156 115.116 20.013 114.657 19.727C114.198 19.441 113.829 19.038 113.552 18.518C113.283 17.9893 113.149 17.3697 113.149 16.659C113.149 15.983 113.283 15.3763 113.552 14.839C113.829 14.3017 114.206 13.877 114.683 13.565C115.168 13.2443 115.723 13.084 116.347 13.084C116.737 13.084 117.088 13.1533 117.4 13.292C117.721 13.422 117.998 13.5867 118.232 13.786V13.24H119.298V18.362C119.298 18.6913 119.376 18.908 119.532 19.012C119.697 19.1073 119.874 19.155 120.065 19.155L119.818 20.065C118.986 20.065 118.483 19.727 118.31 19.051C118.111 19.3283 117.838 19.584 117.491 19.818C117.153 20.0433 116.72 20.156 116.191 20.156ZM116.451 19.116C116.78 19.116 117.092 19.038 117.387 18.882C117.682 18.7173 117.929 18.5137 118.128 18.271V14.644C117.894 14.4793 117.634 14.3493 117.348 14.254C117.071 14.15 116.776 14.098 116.464 14.098C116.048 14.098 115.68 14.2063 115.359 14.423C115.047 14.631 114.8 14.9257 114.618 15.307C114.436 15.6797 114.345 16.1173 114.345 16.62C114.345 17.1053 114.436 17.5387 114.618 17.92C114.8 18.2927 115.051 18.5873 115.372 18.804C115.693 19.012 116.052 19.116 116.451 19.116ZM124.293 20.156C123.643 20.156 123.128 19.9437 122.746 19.519C122.374 19.0857 122.187 18.4703 122.187 17.673V14.501H121.017V13.487H122.213L122.46 11.355H123.357V13.487H125.229V14.501H123.357V17.764C123.357 18.2667 123.461 18.6177 123.669 18.817C123.886 19.0163 124.142 19.116 124.436 19.116C124.653 19.116 124.857 19.0813 125.047 19.012C125.247 18.9427 125.429 18.8603 125.593 18.765L125.918 19.701C125.745 19.805 125.511 19.9047 125.216 20C124.922 20.104 124.614 20.156 124.293 20.156ZM127.394 20V13.24H128.564V20H127.394ZM127.979 12.083C127.754 12.083 127.559 12.0007 127.394 11.836C127.238 11.6713 127.16 11.4807 127.16 11.264C127.16 11.0127 127.234 10.8133 127.381 10.666C127.529 10.5187 127.728 10.445 127.979 10.445C128.205 10.445 128.395 10.5273 128.551 10.692C128.716 10.848 128.798 11.0387 128.798 11.264C128.798 11.5067 128.725 11.706 128.577 11.862C128.43 12.0093 128.231 12.083 127.979 12.083ZM130.944 20V13.24H132.075V14.371C132.318 14.007 132.626 13.7037 132.998 13.461C133.38 13.2097 133.83 13.084 134.35 13.084C135.113 13.084 135.681 13.3137 136.053 13.773C136.435 14.2323 136.625 14.839 136.625 15.593V20H135.455V15.723C135.455 15.2377 135.338 14.8477 135.104 14.553C134.879 14.2583 134.563 14.111 134.155 14.111C133.757 14.111 133.38 14.254 133.024 14.54C132.669 14.8173 132.366 15.1467 132.114 15.528V20H130.944ZM138.938 20V13.24H140.108V20H138.938ZM139.523 12.083C139.297 12.083 139.102 12.0007 138.938 11.836C138.782 11.6713 138.704 11.4807 138.704 11.264C138.704 11.0127 138.777 10.8133 138.925 10.666C139.072 10.5187 139.271 10.445 139.523 10.445C139.748 10.445 139.939 10.5273 140.095 10.692C140.259 10.848 140.342 11.0387 140.342 11.264C140.342 11.5067 140.268 11.706 140.121 11.862C139.973 12.0093 139.774 12.083 139.523 12.083ZM142.488 20V13.24H143.619V14.371C143.861 14.007 144.169 13.7037 144.542 13.461C144.923 13.2097 145.374 13.084 145.894 13.084C146.656 13.084 147.224 13.3137 147.597 13.773C147.978 14.2323 148.169 14.839 148.169 15.593V20H146.999V15.723C146.999 15.2377 146.882 14.8477 146.648 14.553C146.422 14.2583 146.106 14.111 145.699 14.111C145.3 14.111 144.923 14.254 144.568 14.54C144.212 14.8173 143.909 15.1467 143.658 15.528V20H142.488ZM152.964 23.016C152.565 23.016 152.175 22.9683 151.794 22.873C151.421 22.7777 151.088 22.6347 150.793 22.444L151.222 21.43C151.43 21.5947 151.673 21.729 151.95 21.833C152.227 21.9457 152.565 22.002 152.964 22.002C153.579 22.002 154.06 21.8373 154.407 21.508C154.762 21.1873 154.94 20.6717 154.94 19.961V19.129C154.767 19.337 154.515 19.5363 154.186 19.727C153.865 19.909 153.48 20 153.029 20C152.518 20 152.032 19.87 151.573 19.61C151.114 19.3413 150.741 18.9513 150.455 18.44C150.169 17.9287 150.026 17.3133 150.026 16.594C150.026 15.918 150.165 15.3157 150.442 14.787C150.728 14.2583 151.109 13.8423 151.586 13.539C152.063 13.2357 152.587 13.084 153.159 13.084C153.54 13.084 153.887 13.149 154.199 13.279C154.511 13.409 154.78 13.5693 155.005 13.76V13.24H156.071V19.844C156.071 20.5893 155.941 21.196 155.681 21.664C155.421 22.132 155.057 22.4743 154.589 22.691C154.13 22.9077 153.588 23.016 152.964 23.016ZM153.289 18.96C153.636 18.96 153.948 18.882 154.225 18.726C154.502 18.57 154.728 18.388 154.901 18.18V14.644C154.71 14.5053 154.481 14.3797 154.212 14.267C153.943 14.1543 153.631 14.098 153.276 14.098C152.921 14.098 152.587 14.1933 152.275 14.384C151.963 14.5747 151.707 14.852 151.508 15.216C151.317 15.5713 151.222 16.009 151.222 16.529C151.222 17.023 151.317 17.452 151.508 17.816C151.707 18.18 151.963 18.4617 152.275 18.661C152.587 18.8603 152.925 18.96 153.289 18.96ZM160.973 20.156C160.409 20.156 159.898 20.013 159.439 19.727C158.979 19.441 158.611 19.038 158.334 18.518C158.065 17.9893 157.931 17.3697 157.931 16.659C157.931 15.983 158.065 15.3763 158.334 14.839C158.611 14.3017 158.988 13.877 159.465 13.565C159.95 13.2443 160.505 13.084 161.129 13.084C161.519 13.084 161.87 13.1533 162.182 13.292C162.502 13.422 162.78 13.5867 163.014 13.786V13.24H164.08V18.362C164.08 18.6913 164.158 18.908 164.314 19.012C164.478 19.1073 164.656 19.155 164.847 19.155L164.6 20.065C163.768 20.065 163.265 19.727 163.092 19.051C162.892 19.3283 162.619 19.584 162.273 19.818C161.935 20.0433 161.501 20.156 160.973 20.156ZM161.233 19.116C161.562 19.116 161.874 19.038 162.169 18.882C162.463 18.7173 162.71 18.5137 162.91 18.271V14.644C162.676 14.4793 162.416 14.3493 162.13 14.254C161.852 14.15 161.558 14.098 161.246 14.098C160.83 14.098 160.461 14.2063 160.141 14.423C159.829 14.631 159.582 14.9257 159.4 15.307C159.218 15.6797 159.127 16.1173 159.127 16.62C159.127 17.1053 159.218 17.5387 159.4 17.92C159.582 18.2927 159.833 18.5873 160.154 18.804C160.474 19.012 160.834 19.116 161.233 19.116Z" fill="#015486"/>
<path d="M43.44 35L41.78 32.15H40.68V35H39.77V28.03H42.02C42.5467 28.03 42.99 28.12 43.35 28.3C43.7167 28.48 43.99 28.7233 44.17 29.03C44.35 29.3367 44.44 29.6867 44.44 30.08C44.44 30.56 44.3 30.9833 44.02 31.35C43.7467 31.7167 43.3333 31.96 42.78 32.08L44.53 35H43.44ZM40.68 31.42H42.02C42.5133 31.42 42.8833 31.3 43.13 31.06C43.3767 30.8133 43.5 30.4867 43.5 30.08C43.5 29.6667 43.3767 29.3467 43.13 29.12C42.89 28.8933 42.52 28.78 42.02 28.78H40.68V31.42ZM46.444 35.06C46.2707 35.06 46.124 35 46.004 34.88C45.884 34.76 45.824 34.6133 45.824 34.44C45.824 34.2667 45.884 34.12 46.004 34C46.124 33.88 46.2707 33.82 46.444 33.82C46.6107 33.82 46.7507 33.88 46.864 34C46.984 34.12 47.044 34.2667 47.044 34.44C47.044 34.6133 46.984 34.76 46.864 34.88C46.7507 35 46.6107 35.06 46.444 35.06ZM56.7996 30.05C56.6063 29.6433 56.3263 29.33 55.9596 29.11C55.5929 28.8833 55.1663 28.77 54.6796 28.77C54.1929 28.77 53.7529 28.8833 53.3596 29.11C52.9729 29.33 52.6663 29.65 52.4396 30.07C52.2196 30.4833 52.1096 30.9633 52.1096 31.51C52.1096 32.0567 52.2196 32.5367 52.4396 32.95C52.6663 33.3633 52.9729 33.6833 53.3596 33.91C53.7529 34.13 54.1929 34.24 54.6796 34.24C55.3596 34.24 55.9196 34.0367 56.3596 33.63C56.7996 33.2233 57.0563 32.6733 57.1296 31.98H54.3496V31.24H58.0996V31.94C58.0463 32.5133 57.8663 33.04 57.5596 33.52C57.2529 33.9933 56.8496 34.37 56.3496 34.65C55.8496 34.9233 55.2929 35.06 54.6796 35.06C54.0329 35.06 53.4429 34.91 52.9096 34.61C52.3763 34.3033 51.9529 33.88 51.6396 33.34C51.3329 32.8 51.1796 32.19 51.1796 31.51C51.1796 30.83 51.3329 30.22 51.6396 29.68C51.9529 29.1333 52.3763 28.71 52.9096 28.41C53.4429 28.1033 54.0329 27.95 54.6796 27.95C55.4196 27.95 56.0729 28.1333 56.6396 28.5C57.2129 28.8667 57.6296 29.3833 57.8896 30.05H56.7996ZM64.6028 32.05C64.6028 32.2233 64.5928 32.4067 64.5728 32.6H60.1928C60.2261 33.14 60.4095 33.5633 60.7428 33.87C61.0828 34.17 61.4928 34.32 61.9728 34.32C62.3661 34.32 62.6928 34.23 62.9528 34.05C63.2195 33.8633 63.4061 33.6167 63.5128 33.31H64.4928C64.3461 33.8367 64.0528 34.2667 63.6128 34.6C63.1728 34.9267 62.6261 35.09 61.9728 35.09C61.4528 35.09 60.9861 34.9733 60.5728 34.74C60.1661 34.5067 59.8461 34.1767 59.6128 33.75C59.3795 33.3167 59.2628 32.8167 59.2628 32.25C59.2628 31.6833 59.3761 31.1867 59.6028 30.76C59.8295 30.3333 60.1461 30.0067 60.5528 29.78C60.9661 29.5467 61.4395 29.43 61.9728 29.43C62.4928 29.43 62.9528 29.5433 63.3528 29.77C63.7528 29.9967 64.0595 30.31 64.2728 30.71C64.4928 31.1033 64.6028 31.55 64.6028 32.05ZM63.6628 31.86C63.6628 31.5133 63.5861 31.2167 63.4328 30.97C63.2795 30.7167 63.0695 30.5267 62.8028 30.4C62.5428 30.2667 62.2528 30.2 61.9328 30.2C61.4728 30.2 61.0795 30.3467 60.7528 30.64C60.4328 30.9333 60.2495 31.34 60.2028 31.86H63.6628ZM68.774 29.42C69.4407 29.42 69.9807 29.6233 70.394 30.03C70.8073 30.43 71.014 31.01 71.014 31.77V35H70.114V31.9C70.114 31.3533 69.9773 30.9367 69.704 30.65C69.4307 30.3567 69.0573 30.21 68.584 30.21C68.104 30.21 67.7207 30.36 67.434 30.66C67.154 30.96 67.014 31.3967 67.014 31.97V35H66.104V29.52H67.014V30.3C67.194 30.02 67.4373 29.8033 67.744 29.65C68.0573 29.4967 68.4007 29.42 68.774 29.42ZM73.0905 35.06C72.9171 35.06 72.7705 35 72.6505 34.88C72.5305 34.76 72.4705 34.6133 72.4705 34.44C72.4705 34.2667 72.5305 34.12 72.6505 34C72.7705 33.88 72.9171 33.82 73.0905 33.82C73.2571 33.82 73.3971 33.88 73.5105 34C73.6305 34.12 73.6905 34.2667 73.6905 34.44C73.6905 34.6133 73.6305 34.76 73.5105 34.88C73.3971 35 73.2571 35.06 73.0905 35.06ZM81.8361 35L80.1761 32.15H79.0761V35H78.1661V28.03H80.4161C80.9428 28.03 81.3861 28.12 81.7461 28.3C82.1128 28.48 82.3861 28.7233 82.5661 29.03C82.7461 29.3367 82.8361 29.6867 82.8361 30.08C82.8361 30.56 82.6961 30.9833 82.4161 31.35C82.1428 31.7167 81.7294 31.96 81.1761 32.08L82.9261 35H81.8361ZM79.0761 31.42H80.4161C80.9094 31.42 81.2794 31.3 81.5261 31.06C81.7728 30.8133 81.8961 30.4867 81.8961 30.08C81.8961 29.6667 81.7728 29.3467 81.5261 29.12C81.2861 28.8933 80.9161 28.78 80.4161 28.78H79.0761V31.42ZM89.4101 29.52V35H88.5001V34.19C88.3267 34.47 88.0834 34.69 87.7701 34.85C87.4634 35.0033 87.1234 35.08 86.7501 35.08C86.3234 35.08 85.9401 34.9933 85.6001 34.82C85.2601 34.64 84.9901 34.3733 84.7901 34.02C84.5967 33.6667 84.5001 33.2367 84.5001 32.73V29.52H85.4001V32.61C85.4001 33.15 85.5367 33.5667 85.8101 33.86C86.0834 34.1467 86.4567 34.29 86.9301 34.29C87.4167 34.29 87.8001 34.14 88.0801 33.84C88.3601 33.54 88.5001 33.1033 88.5001 32.53V29.52H89.4101ZM92.1566 30.54C92.3432 30.2133 92.6166 29.9467 92.9766 29.74C93.3366 29.5333 93.7466 29.43 94.2066 29.43C94.6999 29.43 95.1432 29.5467 95.5366 29.78C95.9299 30.0133 96.2399 30.3433 96.4666 30.77C96.6932 31.19 96.8066 31.68 96.8066 32.24C96.8066 32.7933 96.6932 33.2867 96.4666 33.72C96.2399 34.1533 95.9266 34.49 95.5266 34.73C95.1332 34.97 94.6932 35.09 94.2066 35.09C93.7332 35.09 93.3166 34.9867 92.9566 34.78C92.6032 34.5733 92.3366 34.31 92.1566 33.99V35H91.2466V27.6H92.1566V30.54ZM95.8766 32.24C95.8766 31.8267 95.7932 31.4667 95.6266 31.16C95.4599 30.8533 95.2332 30.62 94.9466 30.46C94.6666 30.3 94.3566 30.22 94.0166 30.22C93.6832 30.22 93.3732 30.3033 93.0866 30.47C92.8066 30.63 92.5799 30.8667 92.4066 31.18C92.2399 31.4867 92.1566 31.8433 92.1566 32.25C92.1566 32.6633 92.2399 33.0267 92.4066 33.34C92.5799 33.6467 92.8066 33.8833 93.0866 34.05C93.3732 34.21 93.6832 34.29 94.0166 34.29C94.3566 34.29 94.6666 34.21 94.9466 34.05C95.2332 33.8833 95.4599 33.6467 95.6266 33.34C95.7932 33.0267 95.8766 32.66 95.8766 32.24ZM103.304 32.05C103.304 32.2233 103.294 32.4067 103.274 32.6H98.8944C98.9277 33.14 99.111 33.5633 99.4444 33.87C99.7844 34.17 100.194 34.32 100.674 34.32C101.068 34.32 101.394 34.23 101.654 34.05C101.921 33.8633 102.108 33.6167 102.214 33.31H103.194C103.048 33.8367 102.754 34.2667 102.314 34.6C101.874 34.9267 101.328 35.09 100.674 35.09C100.154 35.09 99.6877 34.9733 99.2744 34.74C98.8677 34.5067 98.5477 34.1767 98.3144 33.75C98.081 33.3167 97.9644 32.8167 97.9644 32.25C97.9644 31.6833 98.0777 31.1867 98.3044 30.76C98.531 30.3333 98.8477 30.0067 99.2544 29.78C99.6677 29.5467 100.141 29.43 100.674 29.43C101.194 29.43 101.654 29.5433 102.054 29.77C102.454 29.9967 102.761 30.31 102.974 30.71C103.194 31.1033 103.304 31.55 103.304 32.05ZM102.364 31.86C102.364 31.5133 102.288 31.2167 102.134 30.97C101.981 30.7167 101.771 30.5267 101.504 30.4C101.244 30.2667 100.954 30.2 100.634 30.2C100.174 30.2 99.781 30.3467 99.4544 30.64C99.1344 30.9333 98.951 31.34 98.9044 31.86H102.364ZM107.476 29.42C108.142 29.42 108.682 29.6233 109.096 30.03C109.509 30.43 109.716 31.01 109.716 31.77V35H108.816V31.9C108.816 31.3533 108.679 30.9367 108.406 30.65C108.132 30.3567 107.759 30.21 107.286 30.21C106.806 30.21 106.422 30.36 106.136 30.66C105.856 30.96 105.716 31.3967 105.716 31.97V35H104.806V29.52H105.716V30.3C105.896 30.02 106.139 29.8033 106.446 29.65C106.759 29.4967 107.102 29.42 107.476 29.42ZM113.442 35.09C113.022 35.09 112.645 35.02 112.312 34.88C111.979 34.7333 111.715 34.5333 111.522 34.28C111.329 34.02 111.222 33.7233 111.202 33.39H112.142C112.169 33.6633 112.295 33.8867 112.522 34.06C112.755 34.2333 113.059 34.32 113.432 34.32C113.779 34.32 114.052 34.2433 114.252 34.09C114.452 33.9367 114.552 33.7433 114.552 33.51C114.552 33.27 114.445 33.0933 114.232 32.98C114.019 32.86 113.689 32.7433 113.242 32.63C112.835 32.5233 112.502 32.4167 112.242 32.31C111.989 32.1967 111.769 32.0333 111.582 31.82C111.402 31.6 111.312 31.3133 111.312 30.96C111.312 30.68 111.395 30.4233 111.562 30.19C111.729 29.9567 111.965 29.7733 112.272 29.64C112.579 29.5 112.929 29.43 113.322 29.43C113.929 29.43 114.419 29.5833 114.792 29.89C115.165 30.1967 115.365 30.6167 115.392 31.15H114.482C114.462 30.8633 114.345 30.6333 114.132 30.46C113.925 30.2867 113.645 30.2 113.292 30.2C112.965 30.2 112.705 30.27 112.512 30.41C112.319 30.55 112.222 30.7333 112.222 30.96C112.222 31.14 112.279 31.29 112.392 31.41C112.512 31.5233 112.659 31.6167 112.832 31.69C113.012 31.7567 113.259 31.8333 113.572 31.92C113.965 32.0267 114.285 32.1333 114.532 32.24C114.779 32.34 114.989 32.4933 115.162 32.7C115.342 32.9067 115.435 33.1767 115.442 33.51C115.442 33.81 115.359 34.08 115.192 34.32C115.025 34.56 114.789 34.75 114.482 34.89C114.182 35.0233 113.835 35.09 113.442 35.09ZM123.663 35L122.003 32.15H120.903V35H119.993V28.03H122.243C122.769 28.03 123.213 28.12 123.573 28.3C123.939 28.48 124.213 28.7233 124.393 29.03C124.573 29.3367 124.663 29.6867 124.663 30.08C124.663 30.56 124.523 30.9833 124.243 31.35C123.969 31.7167 123.556 31.96 123.003 32.08L124.753 35H123.663ZM120.903 31.42H122.243C122.736 31.42 123.106 31.3 123.353 31.06C123.599 30.8133 123.723 30.4867 123.723 30.08C123.723 29.6667 123.599 29.3467 123.353 29.12C123.113 28.8933 122.743 28.78 122.243 28.78H120.903V31.42ZM126.667 35.06C126.493 35.06 126.347 35 126.227 34.88C126.107 34.76 126.047 34.6133 126.047 34.44C126.047 34.2667 126.107 34.12 126.227 34C126.347 33.88 126.493 33.82 126.667 33.82C126.833 33.82 126.973 33.88 127.087 34C127.207 34.12 127.267 34.2667 127.267 34.44C127.267 34.6133 127.207 34.76 127.087 34.88C126.973 35 126.833 35.06 126.667 35.06ZM136.032 28.03V28.77H134.132V35H133.222V28.77H131.312V28.03H136.032ZM142.452 32.05C142.452 32.2233 142.442 32.4067 142.422 32.6H138.042C138.076 33.14 138.259 33.5633 138.592 33.87C138.932 34.17 139.342 34.32 139.822 34.32C140.216 34.32 140.542 34.23 140.802 34.05C141.069 33.8633 141.256 33.6167 141.362 33.31H142.342C142.196 33.8367 141.902 34.2667 141.462 34.6C141.022 34.9267 140.476 35.09 139.822 35.09C139.302 35.09 138.836 34.9733 138.422 34.74C138.016 34.5067 137.696 34.1767 137.462 33.75C137.229 33.3167 137.112 32.8167 137.112 32.25C137.112 31.6833 137.226 31.1867 137.452 30.76C137.679 30.3333 137.996 30.0067 138.402 29.78C138.816 29.5467 139.289 29.43 139.822 29.43C140.342 29.43 140.802 29.5433 141.202 29.77C141.602 29.9967 141.909 30.31 142.122 30.71C142.342 31.1033 142.452 31.55 142.452 32.05ZM141.512 31.86C141.512 31.5133 141.436 31.2167 141.282 30.97C141.129 30.7167 140.919 30.5267 140.652 30.4C140.392 30.2667 140.102 30.2 139.782 30.2C139.322 30.2 138.929 30.3467 138.602 30.64C138.282 30.9333 138.099 31.34 138.052 31.86H141.512ZM144.424 28.63C144.25 28.63 144.104 28.57 143.984 28.45C143.864 28.33 143.804 28.1833 143.804 28.01C143.804 27.8367 143.864 27.69 143.984 27.57C144.104 27.45 144.25 27.39 144.424 27.39C144.59 27.39 144.73 27.45 144.844 27.57C144.964 27.69 145.024 27.8367 145.024 28.01C145.024 28.1833 144.964 28.33 144.844 28.45C144.73 28.57 144.59 28.63 144.424 28.63ZM144.864 29.52V35H143.954V29.52H144.864ZM149.575 35L148.275 32.96L147.025 35H146.075L147.845 32.28L146.075 29.52H147.105L148.405 31.55L149.645 29.52H150.595L148.835 32.23L150.605 35H149.575ZM156.8 32.05C156.8 32.2233 156.79 32.4067 156.77 32.6H152.39C152.423 33.14 152.606 33.5633 152.94 33.87C153.28 34.17 153.69 34.32 154.17 34.32C154.563 34.32 154.89 34.23 155.15 34.05C155.416 33.8633 155.603 33.6167 155.71 33.31H156.69C156.543 33.8367 156.25 34.2667 155.81 34.6C155.37 34.9267 154.823 35.09 154.17 35.09C153.65 35.09 153.183 34.9733 152.77 34.74C152.363 34.5067 152.043 34.1767 151.81 33.75C151.576 33.3167 151.46 32.8167 151.46 32.25C151.46 31.6833 151.573 31.1867 151.8 30.76C152.026 30.3333 152.343 30.0067 152.75 29.78C153.163 29.5467 153.636 29.43 154.17 29.43C154.69 29.43 155.15 29.5433 155.55 29.77C155.95 29.9967 156.256 30.31 156.47 30.71C156.69 31.1033 156.8 31.55 156.8 32.05ZM155.86 31.86C155.86 31.5133 155.783 31.2167 155.63 30.97C155.476 30.7167 155.266 30.5267 155 30.4C154.74 30.2667 154.45 30.2 154.13 30.2C153.67 30.2 153.276 30.3467 152.95 30.64C152.63 30.9333 152.446 31.34 152.4 31.86H155.86ZM158.771 28.63C158.598 28.63 158.451 28.57 158.331 28.45C158.211 28.33 158.151 28.1833 158.151 28.01C158.151 27.8367 158.211 27.69 158.331 27.57C158.451 27.45 158.598 27.39 158.771 27.39C158.938 27.39 159.078 27.45 159.191 27.57C159.311 27.69 159.371 27.8367 159.371 28.01C159.371 28.1833 159.311 28.33 159.191 28.45C159.078 28.57 158.938 28.63 158.771 28.63ZM159.211 29.52V35H158.301V29.52H159.211ZM161.972 30.41C162.132 30.0967 162.358 29.8533 162.652 29.68C162.952 29.5067 163.315 29.42 163.742 29.42V30.36H163.502C162.482 30.36 161.972 30.9133 161.972 32.02V35H161.062V29.52H161.972V30.41ZM164.752 32.24C164.752 31.68 164.866 31.19 165.092 30.77C165.319 30.3433 165.629 30.0133 166.022 29.78C166.422 29.5467 166.866 29.43 167.352 29.43C167.832 29.43 168.249 29.5333 168.602 29.74C168.956 29.9467 169.219 30.2067 169.392 30.52V29.52H170.312V35H169.392V33.98C169.212 34.3 168.942 34.5667 168.582 34.78C168.229 34.9867 167.816 35.09 167.342 35.09C166.856 35.09 166.416 34.97 166.022 34.73C165.629 34.49 165.319 34.1533 165.092 33.72C164.866 33.2867 164.752 32.7933 164.752 32.24ZM169.392 32.25C169.392 31.8367 169.309 31.4767 169.142 31.17C168.976 30.8633 168.749 30.63 168.462 30.47C168.182 30.3033 167.872 30.22 167.532 30.22C167.192 30.22 166.882 30.3 166.602 30.46C166.322 30.62 166.099 30.8533 165.932 31.16C165.766 31.4667 165.682 31.8267 165.682 32.24C165.682 32.66 165.766 33.0267 165.932 33.34C166.099 33.6467 166.322 33.8833 166.602 34.05C166.882 34.21 167.192 34.29 167.532 34.29C167.872 34.29 168.182 34.21 168.462 34.05C168.749 33.8833 168.976 33.6467 169.142 33.34C169.309 33.0267 169.392 32.6633 169.392 32.25Z" fill="#98A4AE"/>
<path d="M73.9434 45.5L108.058 45.5L91.001 68.3301L73.9434 45.5Z" fill="white" stroke="#015486" stroke-width="2"/>
<path d="M91 65L71.0814 41L110.919 41L91 65Z" fill="white"/>
<path d="M31.155 11.978C30.2796 11.4725 29.3132 11.1443 28.311 11.0123C27.3088 10.8803 26.2904 10.947 25.314 11.2086C24.3376 11.4702 23.4223 11.9215 22.6203 12.5369C21.8183 13.1523 21.1454 13.9196 20.64 14.795L20.35 15.297C20.2507 15.4693 20.2239 15.6739 20.2755 15.8659C20.3271 16.0579 20.4528 16.2216 20.625 16.321L26.086 19.474L22.818 25.194L22.75 25.193C19.592 25.193 16.857 27.025 15.228 29.615C15.5062 29.5166 15.8027 29.481 16.0963 29.5108C16.3898 29.5405 16.6732 29.6348 16.926 29.787C18.338 27.921 20.444 26.693 22.75 26.693C25.154 26.693 27.341 28.028 28.75 30.029C28.9448 29.8497 29.1733 29.7109 29.4222 29.6206C29.6711 29.5303 29.9355 29.4903 30.2 29.503C28.869 27.445 26.833 25.883 24.444 25.372L27.385 20.224L32.658 23.269C32.7433 23.3183 32.8376 23.3503 32.9353 23.3631C33.033 23.376 33.1323 23.3695 33.2275 23.3439C33.3227 23.3184 33.4119 23.2743 33.4901 23.2143C33.5682 23.1543 33.6338 23.0794 33.683 22.994L33.973 22.493C34.4785 21.6176 34.8065 20.6511 34.9385 19.6489C35.0704 18.6466 35.0036 17.6282 34.742 16.6518C34.4803 15.6754 34.0288 14.7601 33.4134 13.9581C32.7979 13.1562 32.0305 12.4833 31.155 11.978ZM28.965 19.404L25.807 17.58C26.379 16.699 26.923 16.028 27.575 15.435C28.21 14.857 28.968 14.335 29.996 13.767C30.148 14.722 30.194 15.517 30.096 16.297C29.98 17.229 29.651 18.19 28.963 19.403M30.261 20.153C31.021 18.815 31.437 17.663 31.584 16.483C31.681 15.709 31.659 14.945 31.562 14.138C32.5536 15.0759 33.208 16.3148 33.4237 17.6625C33.6394 19.0102 33.4043 20.3915 32.755 21.592L30.261 20.153ZM26.565 14.325C25.775 15.044 25.14 15.844 24.505 16.829L22.025 15.397C22.7247 14.2594 23.773 13.3782 25.014 12.8845C26.2549 12.3908 27.6221 12.311 28.912 12.657C27.983 13.192 27.227 13.722 26.565 14.325ZM16.605 31.263C16.5536 31.1087 16.4535 30.9752 16.3197 30.8828C16.1859 30.7903 16.0257 30.7439 15.8632 30.7504C15.7007 30.757 15.5447 30.8162 15.4188 30.9191C15.2928 31.022 15.2038 31.163 15.165 31.321C14.91 32.363 14.427 32.935 13.877 33.267C13.301 33.615 12.567 33.749 11.748 33.749C11.5491 33.749 11.3583 33.828 11.2177 33.9687C11.077 34.1093 10.998 34.3001 10.998 34.499C10.998 34.6979 11.077 34.8887 11.2177 35.0293C11.3583 35.17 11.5491 35.249 11.748 35.249C12.705 35.249 13.748 35.097 14.652 34.551C15.1912 34.2252 15.6459 33.7767 15.979 33.242C17.768 35.524 21.261 35.512 22.998 33.218C24.763 35.548 28.338 35.524 30.101 33.132C30.5796 33.7834 31.2038 34.3141 31.9238 34.6816C32.6437 35.0492 33.4396 35.2435 34.248 35.249C34.4469 35.249 34.6377 35.17 34.7783 35.0293C34.919 34.8887 34.998 34.6979 34.998 34.499C34.998 34.3001 34.919 34.1093 34.7783 33.9687C34.6377 33.828 34.4469 33.749 34.248 33.749C32.773 33.749 31.303 32.789 30.818 31.271C30.77 31.1199 30.6754 30.9879 30.5477 30.894C30.42 30.8001 30.2659 30.749 30.1074 30.7481C29.9489 30.7472 29.7942 30.7965 29.6655 30.8891C29.5368 30.9816 29.4407 31.1125 29.391 31.263C28.428 34.172 24.653 34.135 23.707 31.384C23.6561 31.2364 23.5604 31.1085 23.4333 31.0179C23.3062 30.9273 23.1541 30.8786 22.998 30.8786C22.8419 30.8786 22.6897 30.9273 22.5626 31.0179C22.4355 31.1085 22.3399 31.2364 22.289 31.384C21.343 34.135 17.569 34.171 16.605 31.263Z" fill="#015486"/>
<defs>
<linearGradient id="paint0_linear_294_376" x1="179.069" y1="0.748829" x2="-69.2821" y2="206.234" gradientUnits="userSpaceOnUse">
<stop stop-color="white"/>
</linearGradient>
</defs>
</svg>
