<svg width="181" height="70" viewBox="0 0 181 70" fill="none" xmlns="http://www.w3.org/2000/svg">
<path d="M20 1H161C171.493 1 180 9.50659 180 20V26C180 36.4934 171.493 45 161 45H20C9.50659 45 1 36.4934 1 26V20C1 9.50659 9.50659 1 20 1Z" fill="url(#paint0_linear_294_369)" stroke="#015486" stroke-width="2"/>
<path d="M40.17 20V10.926C40.5253 10.8827 40.9153 10.8523 41.34 10.835C41.7733 10.809 42.2197 10.796 42.679 10.796C43.433 10.796 44.0743 10.9173 44.603 11.16C45.1317 11.394 45.5347 11.719 45.812 12.135C46.0893 12.551 46.228 13.0277 46.228 13.565C46.228 14.215 46.0677 14.7653 45.747 15.216C45.4263 15.6667 44.98 16.0133 44.408 16.256C43.836 16.49 43.173 16.607 42.419 16.607C42.055 16.607 41.717 16.594 41.405 16.568V20H40.17ZM42.575 15.58C43.3463 15.58 43.9443 15.4067 44.369 15.06C44.7937 14.7133 45.006 14.2497 45.006 13.669C45.006 13.1057 44.8023 12.6593 44.395 12.33C43.9877 12.0007 43.407 11.836 42.653 11.836C42.419 11.836 42.198 11.8403 41.99 11.849C41.782 11.8577 41.587 11.8707 41.405 11.888V15.515C41.5437 15.5323 41.7127 15.5497 41.912 15.567C42.1113 15.5757 42.3323 15.58 42.575 15.58ZM47.8937 20V13.24H49.0247V14.709C49.1374 14.423 49.289 14.1587 49.4797 13.916C49.6704 13.6647 49.9087 13.4653 50.1947 13.318C50.4807 13.162 50.8144 13.084 51.1957 13.084C51.3257 13.084 51.4557 13.0927 51.5857 13.11C51.7157 13.1187 51.824 13.136 51.9107 13.162L51.5597 14.371C51.395 14.3017 51.2 14.267 50.9747 14.267C50.654 14.267 50.3464 14.358 50.0517 14.54C49.7657 14.722 49.5274 15.0037 49.3367 15.385C49.1547 15.7663 49.0637 16.2517 49.0637 16.841V20H47.8937ZM55.5795 20.156C55.0162 20.156 54.5049 20.013 54.0455 19.727C53.5862 19.441 53.2179 19.038 52.9405 18.518C52.6719 17.9893 52.5375 17.3697 52.5375 16.659C52.5375 15.983 52.6719 15.3763 52.9405 14.839C53.2179 14.3017 53.5949 13.877 54.0715 13.565C54.5569 13.2443 55.1115 13.084 55.7355 13.084C56.1255 13.084 56.4765 13.1533 56.7885 13.292C57.1092 13.422 57.3865 13.5867 57.6205 13.786V13.24H58.6865V18.362C58.6865 18.6913 58.7645 18.908 58.9205 19.012C59.0852 19.1073 59.2629 19.155 59.4535 19.155L59.2065 20.065C58.3745 20.065 57.8719 19.727 57.6985 19.051C57.4992 19.3283 57.2262 19.584 56.8795 19.818C56.5415 20.0433 56.1082 20.156 55.5795 20.156ZM55.8395 19.116C56.1689 19.116 56.4809 19.038 56.7755 18.882C57.0702 18.7173 57.3172 18.5137 57.5165 18.271V14.644C57.2825 14.4793 57.0225 14.3493 56.7365 14.254C56.4592 14.15 56.1645 14.098 55.8525 14.098C55.4365 14.098 55.0682 14.2063 54.7475 14.423C54.4355 14.631 54.1885 14.9257 54.0065 15.307C53.8245 15.6797 53.7335 16.1173 53.7335 16.62C53.7335 17.1053 53.8245 17.5387 54.0065 17.92C54.1885 18.2927 54.4399 18.5873 54.7605 18.804C55.0812 19.012 55.4409 19.116 55.8395 19.116ZM61.316 20V13.24H62.486V20H61.316ZM61.901 12.083C61.6756 12.083 61.4806 12.0007 61.316 11.836C61.16 11.6713 61.082 11.4807 61.082 11.264C61.082 11.0127 61.1556 10.8133 61.303 10.666C61.4503 10.5187 61.6496 10.445 61.901 10.445C62.1263 10.445 62.317 10.5273 62.473 10.692C62.6376 10.848 62.72 11.0387 62.72 11.264C62.72 11.5067 62.6463 11.706 62.499 11.862C62.3516 12.0093 62.1523 12.083 61.901 12.083ZM67.453 20.156C66.8896 20.156 66.3783 20.013 65.919 19.727C65.4596 19.441 65.0913 19.038 64.814 18.518C64.5453 17.9893 64.411 17.3697 64.411 16.659C64.411 15.983 64.5453 15.3763 64.814 14.839C65.0913 14.3017 65.4683 13.877 65.945 13.565C66.4303 13.2443 66.985 13.084 67.609 13.084C67.999 13.084 68.35 13.1533 68.662 13.292C68.9826 13.422 69.26 13.5867 69.494 13.786V13.24H70.56V18.362C70.56 18.6913 70.638 18.908 70.794 19.012C70.9586 19.1073 71.1363 19.155 71.327 19.155L71.08 20.065C70.248 20.065 69.7453 19.727 69.572 19.051C69.3726 19.3283 69.0996 19.584 68.753 19.818C68.415 20.0433 67.9816 20.156 67.453 20.156ZM67.713 19.116C68.0423 19.116 68.3543 19.038 68.649 18.882C68.9436 18.7173 69.1906 18.5137 69.39 18.271V14.644C69.156 14.4793 68.896 14.3493 68.61 14.254C68.3326 14.15 68.038 14.098 67.726 14.098C67.31 14.098 66.9416 14.2063 66.621 14.423C66.309 14.631 66.062 14.9257 65.88 15.307C65.698 15.6797 65.607 16.1173 65.607 16.62C65.607 17.1053 65.698 17.5387 65.88 17.92C66.062 18.2927 66.3133 18.5873 66.634 18.804C66.9546 19.012 67.3143 19.116 67.713 19.116ZM79.9479 20.156C79.3932 20.156 78.8862 20.013 78.4269 19.727C77.9675 19.441 77.6035 19.038 77.3349 18.518C77.0662 17.9893 76.9319 17.3697 76.9319 16.659C76.9319 15.9743 77.0662 15.3633 77.3349 14.826C77.6122 14.2887 77.9762 13.864 78.4269 13.552C78.8862 13.24 79.3889 13.084 79.9349 13.084C80.3855 13.084 80.7712 13.175 81.0919 13.357C81.4212 13.539 81.6769 13.7253 81.8589 13.916V10.38H83.0289V18.362C83.0289 18.6913 83.1069 18.908 83.2629 19.012C83.4275 19.1073 83.6052 19.155 83.7959 19.155L83.5489 20.065C82.7255 20.065 82.2229 19.7357 82.0409 19.077C81.8502 19.3457 81.5815 19.5927 81.2349 19.818C80.8969 20.0433 80.4679 20.156 79.9479 20.156ZM80.2079 19.116C80.5285 19.116 80.8319 19.0423 81.1179 18.895C81.4125 18.739 81.6595 18.5397 81.8589 18.297V14.943C81.6942 14.735 81.4645 14.5443 81.1699 14.371C80.8752 14.189 80.5502 14.098 80.1949 14.098C79.7789 14.098 79.4149 14.2107 79.1029 14.436C78.7909 14.6613 78.5482 14.9647 78.3749 15.346C78.2102 15.7187 78.1279 16.1433 78.1279 16.62C78.1279 17.0967 78.2189 17.5257 78.4009 17.907C78.5829 18.2797 78.8299 18.5743 79.1419 18.791C79.4625 19.0077 79.8179 19.116 80.2079 19.116ZM88.2366 20.156C87.2659 20.156 86.4946 19.8483 85.9226 19.233C85.3592 18.609 85.0776 17.738 85.0776 16.62C85.0776 15.944 85.2032 15.3417 85.4546 14.813C85.7146 14.2757 86.0742 13.8553 86.5336 13.552C86.9929 13.24 87.5259 13.084 88.1326 13.084C88.7826 13.084 89.3199 13.227 89.7446 13.513C90.1779 13.7903 90.5029 14.1673 90.7196 14.644C90.9362 15.1207 91.0446 15.645 91.0446 16.217C91.0446 16.5203 91.0316 16.815 91.0056 17.101H86.2736C86.3516 17.7337 86.5726 18.2277 86.9366 18.583C87.3006 18.9383 87.7816 19.116 88.3796 19.116C88.7696 19.116 89.1206 19.077 89.4326 18.999C89.7446 18.9123 90.0436 18.804 90.3296 18.674L90.6026 19.675C90.2906 19.8137 89.9396 19.9263 89.5496 20.013C89.1596 20.1083 88.7219 20.156 88.2366 20.156ZM86.2606 16.152H89.9656C89.9656 15.4933 89.8009 14.9863 89.4716 14.631C89.1422 14.2757 88.6872 14.098 88.1066 14.098C87.6039 14.098 87.1879 14.2757 86.8586 14.631C86.5292 14.9777 86.3299 15.4847 86.2606 16.152ZM97.2313 20V10.926C97.5867 10.8827 97.9767 10.8523 98.4013 10.835C98.8347 10.809 99.281 10.796 99.7403 10.796C100.494 10.796 101.136 10.9173 101.664 11.16C102.193 11.394 102.596 11.719 102.873 12.135C103.151 12.551 103.289 13.0277 103.289 13.565C103.289 14.215 103.129 14.7653 102.808 15.216C102.488 15.6667 102.041 16.0133 101.469 16.256C100.897 16.49 100.234 16.607 99.4803 16.607C99.1163 16.607 98.7783 16.594 98.4663 16.568V20H97.2313ZM99.6363 15.58C100.408 15.58 101.006 15.4067 101.43 15.06C101.855 14.7133 102.067 14.2497 102.067 13.669C102.067 13.1057 101.864 12.6593 101.456 12.33C101.049 12.0007 100.468 11.836 99.7143 11.836C99.4803 11.836 99.2593 11.8403 99.0513 11.849C98.8433 11.8577 98.6483 11.8707 98.4663 11.888V15.515C98.605 15.5323 98.774 15.5497 98.9733 15.567C99.1727 15.5757 99.3937 15.58 99.6363 15.58ZM104.955 20V13.24H106.125V20H104.955ZM105.54 12.083C105.315 12.083 105.12 12.0007 104.955 11.836C104.799 11.6713 104.721 11.4807 104.721 11.264C104.721 11.0127 104.795 10.8133 104.942 10.666C105.089 10.5187 105.289 10.445 105.54 10.445C105.765 10.445 105.956 10.5273 106.112 10.692C106.277 10.848 106.359 11.0387 106.359 11.264C106.359 11.5067 106.285 11.706 106.138 11.862C105.991 12.0093 105.791 12.083 105.54 12.083ZM108.505 20V13.24H109.636V14.709C109.749 14.423 109.9 14.1587 110.091 13.916C110.282 13.6647 110.52 13.4653 110.806 13.318C111.092 13.162 111.426 13.084 111.807 13.084C111.937 13.084 112.067 13.0927 112.197 13.11C112.327 13.1187 112.435 13.136 112.522 13.162L112.171 14.371C112.006 14.3017 111.811 14.267 111.586 14.267C111.265 14.267 110.958 14.358 110.663 14.54C110.377 14.722 110.139 15.0037 109.948 15.385C109.766 15.7663 109.675 16.2517 109.675 16.841V20H108.505ZM116.191 20.156C115.628 20.156 115.116 20.013 114.657 19.727C114.198 19.441 113.829 19.038 113.552 18.518C113.283 17.9893 113.149 17.3697 113.149 16.659C113.149 15.983 113.283 15.3763 113.552 14.839C113.829 14.3017 114.206 13.877 114.683 13.565C115.168 13.2443 115.723 13.084 116.347 13.084C116.737 13.084 117.088 13.1533 117.4 13.292C117.721 13.422 117.998 13.5867 118.232 13.786V13.24H119.298V18.362C119.298 18.6913 119.376 18.908 119.532 19.012C119.697 19.1073 119.874 19.155 120.065 19.155L119.818 20.065C118.986 20.065 118.483 19.727 118.31 19.051C118.111 19.3283 117.838 19.584 117.491 19.818C117.153 20.0433 116.72 20.156 116.191 20.156ZM116.451 19.116C116.78 19.116 117.092 19.038 117.387 18.882C117.682 18.7173 117.929 18.5137 118.128 18.271V14.644C117.894 14.4793 117.634 14.3493 117.348 14.254C117.071 14.15 116.776 14.098 116.464 14.098C116.048 14.098 115.68 14.2063 115.359 14.423C115.047 14.631 114.8 14.9257 114.618 15.307C114.436 15.6797 114.345 16.1173 114.345 16.62C114.345 17.1053 114.436 17.5387 114.618 17.92C114.8 18.2927 115.051 18.5873 115.372 18.804C115.693 19.012 116.052 19.116 116.451 19.116ZM124.293 20.156C123.643 20.156 123.128 19.9437 122.746 19.519C122.374 19.0857 122.187 18.4703 122.187 17.673V14.501H121.017V13.487H122.213L122.46 11.355H123.357V13.487H125.229V14.501H123.357V17.764C123.357 18.2667 123.461 18.6177 123.669 18.817C123.886 19.0163 124.142 19.116 124.436 19.116C124.653 19.116 124.857 19.0813 125.047 19.012C125.247 18.9427 125.429 18.8603 125.593 18.765L125.918 19.701C125.745 19.805 125.511 19.9047 125.216 20C124.922 20.104 124.614 20.156 124.293 20.156ZM127.394 20V13.24H128.564V20H127.394ZM127.979 12.083C127.754 12.083 127.559 12.0007 127.394 11.836C127.238 11.6713 127.16 11.4807 127.16 11.264C127.16 11.0127 127.234 10.8133 127.381 10.666C127.529 10.5187 127.728 10.445 127.979 10.445C128.205 10.445 128.395 10.5273 128.551 10.692C128.716 10.848 128.798 11.0387 128.798 11.264C128.798 11.5067 128.725 11.706 128.577 11.862C128.43 12.0093 128.231 12.083 127.979 12.083ZM130.944 20V13.24H132.075V14.371C132.318 14.007 132.626 13.7037 132.998 13.461C133.38 13.2097 133.83 13.084 134.35 13.084C135.113 13.084 135.681 13.3137 136.053 13.773C136.435 14.2323 136.625 14.839 136.625 15.593V20H135.455V15.723C135.455 15.2377 135.338 14.8477 135.104 14.553C134.879 14.2583 134.563 14.111 134.155 14.111C133.757 14.111 133.38 14.254 133.024 14.54C132.669 14.8173 132.366 15.1467 132.114 15.528V20H130.944ZM138.938 20V13.24H140.108V20H138.938ZM139.523 12.083C139.297 12.083 139.102 12.0007 138.938 11.836C138.782 11.6713 138.704 11.4807 138.704 11.264C138.704 11.0127 138.777 10.8133 138.925 10.666C139.072 10.5187 139.271 10.445 139.523 10.445C139.748 10.445 139.939 10.5273 140.095 10.692C140.259 10.848 140.342 11.0387 140.342 11.264C140.342 11.5067 140.268 11.706 140.121 11.862C139.973 12.0093 139.774 12.083 139.523 12.083ZM142.488 20V13.24H143.619V14.371C143.861 14.007 144.169 13.7037 144.542 13.461C144.923 13.2097 145.374 13.084 145.894 13.084C146.656 13.084 147.224 13.3137 147.597 13.773C147.978 14.2323 148.169 14.839 148.169 15.593V20H146.999V15.723C146.999 15.2377 146.882 14.8477 146.648 14.553C146.422 14.2583 146.106 14.111 145.699 14.111C145.3 14.111 144.923 14.254 144.568 14.54C144.212 14.8173 143.909 15.1467 143.658 15.528V20H142.488ZM152.964 23.016C152.565 23.016 152.175 22.9683 151.794 22.873C151.421 22.7777 151.088 22.6347 150.793 22.444L151.222 21.43C151.43 21.5947 151.673 21.729 151.95 21.833C152.227 21.9457 152.565 22.002 152.964 22.002C153.579 22.002 154.06 21.8373 154.407 21.508C154.762 21.1873 154.94 20.6717 154.94 19.961V19.129C154.767 19.337 154.515 19.5363 154.186 19.727C153.865 19.909 153.48 20 153.029 20C152.518 20 152.032 19.87 151.573 19.61C151.114 19.3413 150.741 18.9513 150.455 18.44C150.169 17.9287 150.026 17.3133 150.026 16.594C150.026 15.918 150.165 15.3157 150.442 14.787C150.728 14.2583 151.109 13.8423 151.586 13.539C152.063 13.2357 152.587 13.084 153.159 13.084C153.54 13.084 153.887 13.149 154.199 13.279C154.511 13.409 154.78 13.5693 155.005 13.76V13.24H156.071V19.844C156.071 20.5893 155.941 21.196 155.681 21.664C155.421 22.132 155.057 22.4743 154.589 22.691C154.13 22.9077 153.588 23.016 152.964 23.016ZM153.289 18.96C153.636 18.96 153.948 18.882 154.225 18.726C154.502 18.57 154.728 18.388 154.901 18.18V14.644C154.71 14.5053 154.481 14.3797 154.212 14.267C153.943 14.1543 153.631 14.098 153.276 14.098C152.921 14.098 152.587 14.1933 152.275 14.384C151.963 14.5747 151.707 14.852 151.508 15.216C151.317 15.5713 151.222 16.009 151.222 16.529C151.222 17.023 151.317 17.452 151.508 17.816C151.707 18.18 151.963 18.4617 152.275 18.661C152.587 18.8603 152.925 18.96 153.289 18.96ZM160.973 20.156C160.409 20.156 159.898 20.013 159.439 19.727C158.979 19.441 158.611 19.038 158.334 18.518C158.065 17.9893 157.931 17.3697 157.931 16.659C157.931 15.983 158.065 15.3763 158.334 14.839C158.611 14.3017 158.988 13.877 159.465 13.565C159.95 13.2443 160.505 13.084 161.129 13.084C161.519 13.084 161.87 13.1533 162.182 13.292C162.502 13.422 162.78 13.5867 163.014 13.786V13.24H164.08V18.362C164.08 18.6913 164.158 18.908 164.314 19.012C164.478 19.1073 164.656 19.155 164.847 19.155L164.6 20.065C163.768 20.065 163.265 19.727 163.092 19.051C162.892 19.3283 162.619 19.584 162.273 19.818C161.935 20.0433 161.501 20.156 160.973 20.156ZM161.233 19.116C161.562 19.116 161.874 19.038 162.169 18.882C162.463 18.7173 162.71 18.5137 162.91 18.271V14.644C162.676 14.4793 162.416 14.3493 162.13 14.254C161.852 14.15 161.558 14.098 161.246 14.098C160.83 14.098 160.461 14.2063 160.141 14.423C159.829 14.631 159.582 14.9257 159.4 15.307C159.218 15.6797 159.127 16.1173 159.127 16.62C159.127 17.1053 159.218 17.5387 159.4 17.92C159.582 18.2927 159.833 18.5873 160.154 18.804C160.474 19.012 160.834 19.116 161.233 19.116Z" fill="#015486"/>
<path d="M43.89 33.45H40.85L40.29 35H39.33L41.85 28.07H42.9L45.41 35H44.45L43.89 33.45ZM43.63 32.71L42.37 29.19L41.11 32.71H43.63ZM48.8483 34.16L50.5483 29.52H51.5183L49.3683 35H48.3083L46.1583 29.52H47.1383L48.8483 34.16ZM53.0038 35.06C52.8304 35.06 52.6838 35 52.5638 34.88C52.4438 34.76 52.3838 34.6133 52.3838 34.44C52.3838 34.2667 52.4438 34.12 52.5638 34C52.6838 33.88 52.8304 33.82 53.0038 33.82C53.1704 33.82 53.3104 33.88 53.4238 34C53.5438 34.12 53.6038 34.2667 53.6038 34.44C53.6038 34.6133 53.5438 34.76 53.4238 34.88C53.3104 35 53.1704 35.06 53.0038 35.06ZM60.2494 28.03C61.0094 28.03 61.666 28.1733 62.2194 28.46C62.7794 28.74 63.206 29.1433 63.4994 29.67C63.7994 30.1967 63.9494 30.8167 63.9494 31.53C63.9494 32.2433 63.7994 32.8633 63.4994 33.39C63.206 33.91 62.7794 34.31 62.2194 34.59C61.666 34.8633 61.0094 35 60.2494 35H58.0794V28.03H60.2494ZM60.2494 34.25C61.1494 34.25 61.836 34.0133 62.3094 33.54C62.7827 33.06 63.0194 32.39 63.0194 31.53C63.0194 30.6633 62.7794 29.9867 62.2994 29.5C61.826 29.0133 61.1427 28.77 60.2494 28.77H58.9894V34.25H60.2494ZM67.8397 35.09C67.3264 35.09 66.8597 34.9733 66.4397 34.74C66.0264 34.5067 65.6997 34.1767 65.4597 33.75C65.2264 33.3167 65.1097 32.8167 65.1097 32.25C65.1097 31.69 65.2297 31.1967 65.4697 30.77C65.7164 30.3367 66.0497 30.0067 66.4697 29.78C66.8897 29.5467 67.3597 29.43 67.8797 29.43C68.3997 29.43 68.8697 29.5467 69.2897 29.78C69.7097 30.0067 70.0397 30.3333 70.2797 30.76C70.5264 31.1867 70.6497 31.6833 70.6497 32.25C70.6497 32.8167 70.523 33.3167 70.2697 33.75C70.023 34.1767 69.6864 34.5067 69.2597 34.74C68.833 34.9733 68.3597 35.09 67.8397 35.09ZM67.8397 34.29C68.1664 34.29 68.473 34.2133 68.7597 34.06C69.0464 33.9067 69.2764 33.6767 69.4497 33.37C69.6297 33.0633 69.7197 32.69 69.7197 32.25C69.7197 31.81 69.633 31.4367 69.4597 31.13C69.2864 30.8233 69.0597 30.5967 68.7797 30.45C68.4997 30.2967 68.1964 30.22 67.8697 30.22C67.5364 30.22 67.2297 30.2967 66.9497 30.45C66.6764 30.5967 66.4564 30.8233 66.2897 31.13C66.123 31.4367 66.0397 31.81 66.0397 32.25C66.0397 32.6967 66.1197 33.0733 66.2797 33.38C66.4464 33.6867 66.6664 33.9167 66.9397 34.07C67.213 34.2167 67.513 34.29 67.8397 34.29ZM77.0062 29.52V35H76.0962V34.19C75.9228 34.47 75.6795 34.69 75.3662 34.85C75.0595 35.0033 74.7195 35.08 74.3462 35.08C73.9195 35.08 73.5362 34.9933 73.1962 34.82C72.8562 34.64 72.5862 34.3733 72.3862 34.02C72.1928 33.6667 72.0962 33.2367 72.0962 32.73V29.52H72.9962V32.61C72.9962 33.15 73.1328 33.5667 73.4062 33.86C73.6795 34.1467 74.0528 34.29 74.5262 34.29C75.0128 34.29 75.3962 34.14 75.6762 33.84C75.9562 33.54 76.0962 33.1033 76.0962 32.53V29.52H77.0062ZM79.9527 30.27V33.5C79.9527 33.7667 80.0093 33.9567 80.1227 34.07C80.236 34.1767 80.4327 34.23 80.7127 34.23H81.3827V35H80.5627C80.056 35 79.676 34.8833 79.4227 34.65C79.1693 34.4167 79.0427 34.0333 79.0427 33.5V30.27H78.3327V29.52H79.0427V28.14H79.9527V29.52H81.3827V30.27H79.9527ZM85.1752 35.09C84.6619 35.09 84.1952 34.9733 83.7752 34.74C83.3619 34.5067 83.0352 34.1767 82.7952 33.75C82.5619 33.3167 82.4452 32.8167 82.4452 32.25C82.4452 31.69 82.5652 31.1967 82.8052 30.77C83.0519 30.3367 83.3852 30.0067 83.8052 29.78C84.2252 29.5467 84.6952 29.43 85.2152 29.43C85.7352 29.43 86.2052 29.5467 86.6252 29.78C87.0452 30.0067 87.3752 30.3333 87.6152 30.76C87.8619 31.1867 87.9852 31.6833 87.9852 32.25C87.9852 32.8167 87.8586 33.3167 87.6052 33.75C87.3586 34.1767 87.0219 34.5067 86.5952 34.74C86.1686 34.9733 85.6952 35.09 85.1752 35.09ZM85.1752 34.29C85.5019 34.29 85.8086 34.2133 86.0952 34.06C86.3819 33.9067 86.6119 33.6767 86.7852 33.37C86.9652 33.0633 87.0552 32.69 87.0552 32.25C87.0552 31.81 86.9686 31.4367 86.7952 31.13C86.6219 30.8233 86.3952 30.5967 86.1152 30.45C85.8352 30.2967 85.5319 30.22 85.2052 30.22C84.8719 30.22 84.5652 30.2967 84.2852 30.45C84.0119 30.5967 83.7919 30.8233 83.6252 31.13C83.4586 31.4367 83.3752 31.81 83.3752 32.25C83.3752 32.6967 83.4552 33.0733 83.6152 33.38C83.7819 33.6867 84.0019 33.9167 84.2752 34.07C84.5486 34.2167 84.8486 34.29 85.1752 34.29ZM90.3917 30.41C90.5517 30.0967 90.7784 29.8533 91.0717 29.68C91.3717 29.5067 91.7351 29.42 92.1617 29.42V30.36H91.9217C90.9017 30.36 90.3917 30.9133 90.3917 32.02V35H89.4817V29.52H90.3917V30.41ZM100.598 33.45H97.5582L96.9982 35H96.0382L98.5582 28.07H99.6082L102.118 35H101.158L100.598 33.45ZM100.338 32.71L99.0782 29.19L97.8182 32.71H100.338ZM103.176 32.25C103.176 31.6833 103.29 31.19 103.516 30.77C103.743 30.3433 104.056 30.0133 104.456 29.78C104.863 29.5467 105.326 29.43 105.846 29.43C106.52 29.43 107.073 29.5933 107.506 29.92C107.946 30.2467 108.236 30.7 108.376 31.28H107.396C107.303 30.9467 107.12 30.6833 106.846 30.49C106.58 30.2967 106.246 30.2 105.846 30.2C105.326 30.2 104.906 30.38 104.586 30.74C104.266 31.0933 104.106 31.5967 104.106 32.25C104.106 32.91 104.266 33.42 104.586 33.78C104.906 34.14 105.326 34.32 105.846 34.32C106.246 34.32 106.58 34.2267 106.846 34.04C107.113 33.8533 107.296 33.5867 107.396 33.24H108.376C108.23 33.8 107.936 34.25 107.496 34.59C107.056 34.9233 106.506 35.09 105.846 35.09C105.326 35.09 104.863 34.9733 104.456 34.74C104.056 34.5067 103.743 34.1767 103.516 33.75C103.29 33.3233 103.176 32.8233 103.176 32.25ZM114.751 29.52V35H113.841V34.19C113.667 34.47 113.424 34.69 113.111 34.85C112.804 35.0033 112.464 35.08 112.091 35.08C111.664 35.08 111.281 34.9933 110.941 34.82C110.601 34.64 110.331 34.3733 110.131 34.02C109.937 33.6667 109.841 33.2367 109.841 32.73V29.52H110.741V32.61C110.741 33.15 110.877 33.5667 111.151 33.86C111.424 34.1467 111.797 34.29 112.271 34.29C112.757 34.29 113.141 34.14 113.421 33.84C113.701 33.54 113.841 33.1033 113.841 32.53V29.52H114.751ZM113.301 27.97L111.171 29.11V28.43L113.301 27.18V27.97ZM117.497 30.41C117.657 30.0967 117.884 29.8533 118.177 29.68C118.477 29.5067 118.841 29.42 119.267 29.42V30.36H119.027C118.007 30.36 117.497 30.9133 117.497 32.02V35H116.587V29.52H117.497V30.41ZM120.278 32.25C120.278 31.6833 120.391 31.19 120.618 30.77C120.844 30.3433 121.158 30.0133 121.558 29.78C121.964 29.5467 122.428 29.43 122.948 29.43C123.621 29.43 124.174 29.5933 124.608 29.92C125.048 30.2467 125.338 30.7 125.478 31.28H124.498C124.404 30.9467 124.221 30.6833 123.948 30.49C123.681 30.2967 123.348 30.2 122.948 30.2C122.428 30.2 122.008 30.38 121.688 30.74C121.368 31.0933 121.208 31.5967 121.208 32.25C121.208 32.91 121.368 33.42 121.688 33.78C122.008 34.14 122.428 34.32 122.948 34.32C123.348 34.32 123.681 34.2267 123.948 34.04C124.214 33.8533 124.398 33.5867 124.498 33.24H125.478C125.331 33.8 125.038 34.25 124.598 34.59C124.158 34.9233 123.608 35.09 122.948 35.09C122.428 35.09 121.964 34.9733 121.558 34.74C121.158 34.5067 120.844 34.1767 120.618 33.75C120.391 33.3233 120.278 32.8233 120.278 32.25ZM127.462 28.63C127.289 28.63 127.142 28.57 127.022 28.45C126.902 28.33 126.842 28.1833 126.842 28.01C126.842 27.8367 126.902 27.69 127.022 27.57C127.142 27.45 127.289 27.39 127.462 27.39C127.629 27.39 127.769 27.45 127.882 27.57C128.002 27.69 128.062 27.8367 128.062 28.01C128.062 28.1833 128.002 28.33 127.882 28.45C127.769 28.57 127.629 28.63 127.462 28.63ZM127.902 29.52V35H126.992V29.52H127.902ZM132.143 35.09C131.629 35.09 131.163 34.9733 130.743 34.74C130.329 34.5067 130.003 34.1767 129.763 33.75C129.529 33.3167 129.413 32.8167 129.413 32.25C129.413 31.69 129.533 31.1967 129.773 30.77C130.019 30.3367 130.353 30.0067 130.773 29.78C131.193 29.5467 131.663 29.43 132.183 29.43C132.703 29.43 133.173 29.5467 133.593 29.78C134.013 30.0067 134.343 30.3333 134.583 30.76C134.829 31.1867 134.953 31.6833 134.953 32.25C134.953 32.8167 134.826 33.3167 134.573 33.75C134.326 34.1767 133.989 34.5067 133.563 34.74C133.136 34.9733 132.663 35.09 132.143 35.09ZM132.143 34.29C132.469 34.29 132.776 34.2133 133.063 34.06C133.349 33.9067 133.579 33.6767 133.753 33.37C133.933 33.0633 134.023 32.69 134.023 32.25C134.023 31.81 133.936 31.4367 133.763 31.13C133.589 30.8233 133.363 30.5967 133.083 30.45C132.803 30.2967 132.499 30.22 132.173 30.22C131.839 30.22 131.533 30.2967 131.253 30.45C130.979 30.5967 130.759 30.8233 130.593 31.13C130.426 31.4367 130.343 31.81 130.343 32.25C130.343 32.6967 130.423 33.0733 130.583 33.38C130.749 33.6867 130.969 33.9167 131.243 34.07C131.516 34.2167 131.816 34.29 132.143 34.29ZM143.705 28.03V28.77H141.805V35H140.895V28.77H138.985V28.03H143.705ZM147.515 35.09C147.002 35.09 146.535 34.9733 146.115 34.74C145.702 34.5067 145.375 34.1767 145.135 33.75C144.902 33.3167 144.785 32.8167 144.785 32.25C144.785 31.69 144.905 31.1967 145.145 30.77C145.392 30.3367 145.725 30.0067 146.145 29.78C146.565 29.5467 147.035 29.43 147.555 29.43C148.075 29.43 148.545 29.5467 148.965 29.78C149.385 30.0067 149.715 30.3333 149.955 30.76C150.202 31.1867 150.325 31.6833 150.325 32.25C150.325 32.8167 150.199 33.3167 149.945 33.75C149.699 34.1767 149.362 34.5067 148.935 34.74C148.509 34.9733 148.035 35.09 147.515 35.09ZM147.515 34.29C147.842 34.29 148.149 34.2133 148.435 34.06C148.722 33.9067 148.952 33.6767 149.125 33.37C149.305 33.0633 149.395 32.69 149.395 32.25C149.395 31.81 149.309 31.4367 149.135 31.13C148.962 30.8233 148.735 30.5967 148.455 30.45C148.175 30.2967 147.872 30.22 147.545 30.22C147.212 30.22 146.905 30.2967 146.625 30.45C146.352 30.5967 146.132 30.8233 145.965 31.13C145.799 31.4367 145.715 31.81 145.715 32.25C145.715 32.6967 145.795 33.0733 145.955 33.38C146.122 33.6867 146.342 33.9167 146.615 34.07C146.889 34.2167 147.189 34.29 147.515 34.29ZM152.732 30.41C152.892 30.0967 153.119 29.8533 153.412 29.68C153.712 29.5067 154.075 29.42 154.502 29.42V30.36H154.262C153.242 30.36 152.732 30.9133 152.732 32.02V35H151.822V29.52H152.732V30.41ZM156.762 30.41C156.922 30.0967 157.149 29.8533 157.442 29.68C157.742 29.5067 158.106 29.42 158.532 29.42V30.36H158.292C157.272 30.36 156.762 30.9133 156.762 32.02V35H155.852V29.52H156.762V30.41ZM164.883 32.05C164.883 32.2233 164.873 32.4067 164.853 32.6H160.473C160.506 33.14 160.69 33.5633 161.023 33.87C161.363 34.17 161.773 34.32 162.253 34.32C162.646 34.32 162.973 34.23 163.233 34.05C163.5 33.8633 163.686 33.6167 163.793 33.31H164.773C164.626 33.8367 164.333 34.2667 163.893 34.6C163.453 34.9267 162.906 35.09 162.253 35.09C161.733 35.09 161.266 34.9733 160.853 34.74C160.446 34.5067 160.126 34.1767 159.893 33.75C159.66 33.3167 159.543 32.8167 159.543 32.25C159.543 31.6833 159.656 31.1867 159.883 30.76C160.11 30.3333 160.426 30.0067 160.833 29.78C161.246 29.5467 161.72 29.43 162.253 29.43C162.773 29.43 163.233 29.5433 163.633 29.77C164.033 29.9967 164.34 30.31 164.553 30.71C164.773 31.1033 164.883 31.55 164.883 32.05ZM163.943 31.86C163.943 31.5133 163.866 31.2167 163.713 30.97C163.56 30.7167 163.35 30.5267 163.083 30.4C162.823 30.2667 162.533 30.2 162.213 30.2C161.753 30.2 161.36 30.3467 161.033 30.64C160.713 30.9333 160.53 31.34 160.483 31.86H163.943ZM168.324 35.09C167.904 35.09 167.527 35.02 167.194 34.88C166.861 34.7333 166.597 34.5333 166.404 34.28C166.211 34.02 166.104 33.7233 166.084 33.39H167.024C167.051 33.6633 167.177 33.8867 167.404 34.06C167.637 34.2333 167.941 34.32 168.314 34.32C168.661 34.32 168.934 34.2433 169.134 34.09C169.334 33.9367 169.434 33.7433 169.434 33.51C169.434 33.27 169.327 33.0933 169.114 32.98C168.901 32.86 168.571 32.7433 168.124 32.63C167.717 32.5233 167.384 32.4167 167.124 32.31C166.871 32.1967 166.651 32.0333 166.464 31.82C166.284 31.6 166.194 31.3133 166.194 30.96C166.194 30.68 166.277 30.4233 166.444 30.19C166.611 29.9567 166.847 29.7733 167.154 29.64C167.461 29.5 167.811 29.43 168.204 29.43C168.811 29.43 169.301 29.5833 169.674 29.89C170.047 30.1967 170.247 30.6167 170.274 31.15H169.364C169.344 30.8633 169.227 30.6333 169.014 30.46C168.807 30.2867 168.527 30.2 168.174 30.2C167.847 30.2 167.587 30.27 167.394 30.41C167.201 30.55 167.104 30.7333 167.104 30.96C167.104 31.14 167.161 31.29 167.274 31.41C167.394 31.5233 167.541 31.6167 167.714 31.69C167.894 31.7567 168.141 31.8333 168.454 31.92C168.847 32.0267 169.167 32.1333 169.414 32.24C169.661 32.34 169.871 32.4933 170.044 32.7C170.224 32.9067 170.317 33.1767 170.324 33.51C170.324 33.81 170.241 34.08 170.074 34.32C169.907 34.56 169.671 34.75 169.364 34.89C169.064 35.0233 168.717 35.09 168.324 35.09Z" fill="#98A4AE"/>
<path d="M73.9434 45.5L108.058 45.5L91.001 68.3301L73.9434 45.5Z" fill="white" stroke="#015486" stroke-width="2"/>
<path d="M91 65L71.0814 41L110.919 41L91 65Z" fill="white"/>
<path d="M31.155 11.978C30.2796 11.4725 29.3132 11.1443 28.311 11.0123C27.3088 10.8803 26.2904 10.947 25.314 11.2086C24.3376 11.4702 23.4223 11.9215 22.6203 12.5369C21.8183 13.1523 21.1454 13.9196 20.64 14.795L20.35 15.297C20.2507 15.4693 20.2239 15.6739 20.2755 15.8659C20.3271 16.0579 20.4528 16.2216 20.625 16.321L26.086 19.474L22.818 25.194L22.75 25.193C19.592 25.193 16.857 27.025 15.228 29.615C15.5062 29.5166 15.8027 29.481 16.0963 29.5108C16.3898 29.5405 16.6732 29.6348 16.926 29.787C18.338 27.921 20.444 26.693 22.75 26.693C25.154 26.693 27.341 28.028 28.75 30.029C28.9448 29.8497 29.1733 29.7109 29.4222 29.6206C29.6711 29.5303 29.9355 29.4903 30.2 29.503C28.869 27.445 26.833 25.883 24.444 25.372L27.385 20.224L32.658 23.269C32.7433 23.3183 32.8376 23.3503 32.9353 23.3631C33.033 23.376 33.1323 23.3695 33.2275 23.3439C33.3227 23.3184 33.4119 23.2743 33.4901 23.2143C33.5682 23.1543 33.6338 23.0794 33.683 22.994L33.973 22.493C34.4785 21.6176 34.8065 20.6511 34.9385 19.6489C35.0704 18.6466 35.0036 17.6282 34.742 16.6518C34.4803 15.6754 34.0288 14.7601 33.4134 13.9581C32.7979 13.1562 32.0305 12.4833 31.155 11.978ZM28.965 19.404L25.807 17.58C26.379 16.699 26.923 16.028 27.575 15.435C28.21 14.857 28.968 14.335 29.996 13.767C30.148 14.722 30.194 15.517 30.096 16.297C29.98 17.229 29.651 18.19 28.963 19.403M30.261 20.153C31.021 18.815 31.437 17.663 31.584 16.483C31.681 15.709 31.659 14.945 31.562 14.138C32.5536 15.0759 33.208 16.3148 33.4237 17.6625C33.6394 19.0102 33.4043 20.3915 32.755 21.592L30.261 20.153ZM26.565 14.325C25.775 15.044 25.14 15.844 24.505 16.829L22.025 15.397C22.7247 14.2594 23.773 13.3782 25.014 12.8845C26.2549 12.3908 27.6221 12.311 28.912 12.657C27.983 13.192 27.227 13.722 26.565 14.325ZM16.605 31.263C16.5536 31.1087 16.4535 30.9752 16.3197 30.8828C16.1859 30.7903 16.0257 30.7439 15.8632 30.7504C15.7007 30.757 15.5447 30.8162 15.4188 30.9191C15.2928 31.022 15.2038 31.163 15.165 31.321C14.91 32.363 14.427 32.935 13.877 33.267C13.301 33.615 12.567 33.749 11.748 33.749C11.5491 33.749 11.3583 33.828 11.2177 33.9687C11.077 34.1093 10.998 34.3001 10.998 34.499C10.998 34.6979 11.077 34.8887 11.2177 35.0293C11.3583 35.17 11.5491 35.249 11.748 35.249C12.705 35.249 13.748 35.097 14.652 34.551C15.1912 34.2252 15.6459 33.7767 15.979 33.242C17.768 35.524 21.261 35.512 22.998 33.218C24.763 35.548 28.338 35.524 30.101 33.132C30.5796 33.7834 31.2038 34.3141 31.9238 34.6816C32.6437 35.0492 33.4396 35.2435 34.248 35.249C34.4469 35.249 34.6377 35.17 34.7783 35.0293C34.919 34.8887 34.998 34.6979 34.998 34.499C34.998 34.3001 34.919 34.1093 34.7783 33.9687C34.6377 33.828 34.4469 33.749 34.248 33.749C32.773 33.749 31.303 32.789 30.818 31.271C30.77 31.1199 30.6754 30.9879 30.5477 30.894C30.42 30.8001 30.2659 30.749 30.1074 30.7481C29.9489 30.7472 29.7942 30.7965 29.6655 30.8891C29.5368 30.9816 29.4407 31.1125 29.391 31.263C28.428 34.172 24.653 34.135 23.707 31.384C23.6561 31.2364 23.5604 31.1085 23.4333 31.0179C23.3062 30.9273 23.1541 30.8786 22.998 30.8786C22.8419 30.8786 22.6897 30.9273 22.5626 31.0179C22.4355 31.1085 22.3399 31.2364 22.289 31.384C21.343 34.135 17.569 34.171 16.605 31.263Z" fill="#015486"/>
<defs>
<linearGradient id="paint0_linear_294_369" x1="179.069" y1="0.748829" x2="-69.2821" y2="206.234" gradientUnits="userSpaceOnUse">
<stop stop-color="white"/>
</linearGradient>
</defs>
</svg>
