<svg width="181" height="70" viewBox="0 0 181 70" fill="none" xmlns="http://www.w3.org/2000/svg">
<path d="M20 1H161C171.493 1 180 9.50659 180 20V26C180 36.4934 171.493 45 161 45H20C9.50659 45 1 36.4934 1 26V20C1 9.50659 9.50659 1 20 1Z" fill="url(#paint0_linear_294_383)" stroke="#015486" stroke-width="2"/>
<path d="M40.17 20V10.926C40.5253 10.8827 40.9153 10.8523 41.34 10.835C41.7733 10.809 42.2197 10.796 42.679 10.796C43.433 10.796 44.0743 10.9173 44.603 11.16C45.1317 11.394 45.5347 11.719 45.812 12.135C46.0893 12.551 46.228 13.0277 46.228 13.565C46.228 14.215 46.0677 14.7653 45.747 15.216C45.4263 15.6667 44.98 16.0133 44.408 16.256C43.836 16.49 43.173 16.607 42.419 16.607C42.055 16.607 41.717 16.594 41.405 16.568V20H40.17ZM42.575 15.58C43.3463 15.58 43.9443 15.4067 44.369 15.06C44.7937 14.7133 45.006 14.2497 45.006 13.669C45.006 13.1057 44.8023 12.6593 44.395 12.33C43.9877 12.0007 43.407 11.836 42.653 11.836C42.419 11.836 42.198 11.8403 41.99 11.849C41.782 11.8577 41.587 11.8707 41.405 11.888V15.515C41.5437 15.5323 41.7127 15.5497 41.912 15.567C42.1113 15.5757 42.3323 15.58 42.575 15.58ZM47.8937 20V13.24H49.0247V14.709C49.1374 14.423 49.289 14.1587 49.4797 13.916C49.6704 13.6647 49.9087 13.4653 50.1947 13.318C50.4807 13.162 50.8144 13.084 51.1957 13.084C51.3257 13.084 51.4557 13.0927 51.5857 13.11C51.7157 13.1187 51.824 13.136 51.9107 13.162L51.5597 14.371C51.395 14.3017 51.2 14.267 50.9747 14.267C50.654 14.267 50.3464 14.358 50.0517 14.54C49.7657 14.722 49.5274 15.0037 49.3367 15.385C49.1547 15.7663 49.0637 16.2517 49.0637 16.841V20H47.8937ZM55.5795 20.156C55.0162 20.156 54.5049 20.013 54.0455 19.727C53.5862 19.441 53.2179 19.038 52.9405 18.518C52.6719 17.9893 52.5375 17.3697 52.5375 16.659C52.5375 15.983 52.6719 15.3763 52.9405 14.839C53.2179 14.3017 53.5949 13.877 54.0715 13.565C54.5569 13.2443 55.1115 13.084 55.7355 13.084C56.1255 13.084 56.4765 13.1533 56.7885 13.292C57.1092 13.422 57.3865 13.5867 57.6205 13.786V13.24H58.6865V18.362C58.6865 18.6913 58.7645 18.908 58.9205 19.012C59.0852 19.1073 59.2629 19.155 59.4535 19.155L59.2065 20.065C58.3745 20.065 57.8719 19.727 57.6985 19.051C57.4992 19.3283 57.2262 19.584 56.8795 19.818C56.5415 20.0433 56.1082 20.156 55.5795 20.156ZM55.8395 19.116C56.1689 19.116 56.4809 19.038 56.7755 18.882C57.0702 18.7173 57.3172 18.5137 57.5165 18.271V14.644C57.2825 14.4793 57.0225 14.3493 56.7365 14.254C56.4592 14.15 56.1645 14.098 55.8525 14.098C55.4365 14.098 55.0682 14.2063 54.7475 14.423C54.4355 14.631 54.1885 14.9257 54.0065 15.307C53.8245 15.6797 53.7335 16.1173 53.7335 16.62C53.7335 17.1053 53.8245 17.5387 54.0065 17.92C54.1885 18.2927 54.4399 18.5873 54.7605 18.804C55.0812 19.012 55.4409 19.116 55.8395 19.116ZM61.316 20V13.24H62.486V20H61.316ZM61.901 12.083C61.6756 12.083 61.4806 12.0007 61.316 11.836C61.16 11.6713 61.082 11.4807 61.082 11.264C61.082 11.0127 61.1556 10.8133 61.303 10.666C61.4503 10.5187 61.6496 10.445 61.901 10.445C62.1263 10.445 62.317 10.5273 62.473 10.692C62.6376 10.848 62.72 11.0387 62.72 11.264C62.72 11.5067 62.6463 11.706 62.499 11.862C62.3516 12.0093 62.1523 12.083 61.901 12.083ZM67.453 20.156C66.8896 20.156 66.3783 20.013 65.919 19.727C65.4596 19.441 65.0913 19.038 64.814 18.518C64.5453 17.9893 64.411 17.3697 64.411 16.659C64.411 15.983 64.5453 15.3763 64.814 14.839C65.0913 14.3017 65.4683 13.877 65.945 13.565C66.4303 13.2443 66.985 13.084 67.609 13.084C67.999 13.084 68.35 13.1533 68.662 13.292C68.9826 13.422 69.26 13.5867 69.494 13.786V13.24H70.56V18.362C70.56 18.6913 70.638 18.908 70.794 19.012C70.9586 19.1073 71.1363 19.155 71.327 19.155L71.08 20.065C70.248 20.065 69.7453 19.727 69.572 19.051C69.3726 19.3283 69.0996 19.584 68.753 19.818C68.415 20.0433 67.9816 20.156 67.453 20.156ZM67.713 19.116C68.0423 19.116 68.3543 19.038 68.649 18.882C68.9436 18.7173 69.1906 18.5137 69.39 18.271V14.644C69.156 14.4793 68.896 14.3493 68.61 14.254C68.3326 14.15 68.038 14.098 67.726 14.098C67.31 14.098 66.9416 14.2063 66.621 14.423C66.309 14.631 66.062 14.9257 65.88 15.307C65.698 15.6797 65.607 16.1173 65.607 16.62C65.607 17.1053 65.698 17.5387 65.88 17.92C66.062 18.2927 66.3133 18.5873 66.634 18.804C66.9546 19.012 67.3143 19.116 67.713 19.116ZM79.9479 20.156C79.3932 20.156 78.8862 20.013 78.4269 19.727C77.9675 19.441 77.6035 19.038 77.3349 18.518C77.0662 17.9893 76.9319 17.3697 76.9319 16.659C76.9319 15.9743 77.0662 15.3633 77.3349 14.826C77.6122 14.2887 77.9762 13.864 78.4269 13.552C78.8862 13.24 79.3889 13.084 79.9349 13.084C80.3855 13.084 80.7712 13.175 81.0919 13.357C81.4212 13.539 81.6769 13.7253 81.8589 13.916V10.38H83.0289V18.362C83.0289 18.6913 83.1069 18.908 83.2629 19.012C83.4275 19.1073 83.6052 19.155 83.7959 19.155L83.5489 20.065C82.7255 20.065 82.2229 19.7357 82.0409 19.077C81.8502 19.3457 81.5815 19.5927 81.2349 19.818C80.8969 20.0433 80.4679 20.156 79.9479 20.156ZM80.2079 19.116C80.5285 19.116 80.8319 19.0423 81.1179 18.895C81.4125 18.739 81.6595 18.5397 81.8589 18.297V14.943C81.6942 14.735 81.4645 14.5443 81.1699 14.371C80.8752 14.189 80.5502 14.098 80.1949 14.098C79.7789 14.098 79.4149 14.2107 79.1029 14.436C78.7909 14.6613 78.5482 14.9647 78.3749 15.346C78.2102 15.7187 78.1279 16.1433 78.1279 16.62C78.1279 17.0967 78.2189 17.5257 78.4009 17.907C78.5829 18.2797 78.8299 18.5743 79.1419 18.791C79.4625 19.0077 79.8179 19.116 80.2079 19.116ZM88.2366 20.156C87.2659 20.156 86.4946 19.8483 85.9226 19.233C85.3592 18.609 85.0776 17.738 85.0776 16.62C85.0776 15.944 85.2032 15.3417 85.4546 14.813C85.7146 14.2757 86.0742 13.8553 86.5336 13.552C86.9929 13.24 87.5259 13.084 88.1326 13.084C88.7826 13.084 89.3199 13.227 89.7446 13.513C90.1779 13.7903 90.5029 14.1673 90.7196 14.644C90.9362 15.1207 91.0446 15.645 91.0446 16.217C91.0446 16.5203 91.0316 16.815 91.0056 17.101H86.2736C86.3516 17.7337 86.5726 18.2277 86.9366 18.583C87.3006 18.9383 87.7816 19.116 88.3796 19.116C88.7696 19.116 89.1206 19.077 89.4326 18.999C89.7446 18.9123 90.0436 18.804 90.3296 18.674L90.6026 19.675C90.2906 19.8137 89.9396 19.9263 89.5496 20.013C89.1596 20.1083 88.7219 20.156 88.2366 20.156ZM86.2606 16.152H89.9656C89.9656 15.4933 89.8009 14.9863 89.4716 14.631C89.1422 14.2757 88.6872 14.098 88.1066 14.098C87.6039 14.098 87.1879 14.2757 86.8586 14.631C86.5292 14.9777 86.3299 15.4847 86.2606 16.152ZM97.2313 20V10.926C97.5867 10.8827 97.9767 10.8523 98.4013 10.835C98.8347 10.809 99.281 10.796 99.7403 10.796C100.494 10.796 101.136 10.9173 101.664 11.16C102.193 11.394 102.596 11.719 102.873 12.135C103.151 12.551 103.289 13.0277 103.289 13.565C103.289 14.215 103.129 14.7653 102.808 15.216C102.488 15.6667 102.041 16.0133 101.469 16.256C100.897 16.49 100.234 16.607 99.4803 16.607C99.1163 16.607 98.7783 16.594 98.4663 16.568V20H97.2313ZM99.6363 15.58C100.408 15.58 101.006 15.4067 101.43 15.06C101.855 14.7133 102.067 14.2497 102.067 13.669C102.067 13.1057 101.864 12.6593 101.456 12.33C101.049 12.0007 100.468 11.836 99.7143 11.836C99.4803 11.836 99.2593 11.8403 99.0513 11.849C98.8433 11.8577 98.6483 11.8707 98.4663 11.888V15.515C98.605 15.5323 98.774 15.5497 98.9733 15.567C99.1727 15.5757 99.3937 15.58 99.6363 15.58ZM104.955 20V13.24H106.125V20H104.955ZM105.54 12.083C105.315 12.083 105.12 12.0007 104.955 11.836C104.799 11.6713 104.721 11.4807 104.721 11.264C104.721 11.0127 104.795 10.8133 104.942 10.666C105.089 10.5187 105.289 10.445 105.54 10.445C105.765 10.445 105.956 10.5273 106.112 10.692C106.277 10.848 106.359 11.0387 106.359 11.264C106.359 11.5067 106.285 11.706 106.138 11.862C105.991 12.0093 105.791 12.083 105.54 12.083ZM108.505 20V13.24H109.636V14.709C109.749 14.423 109.9 14.1587 110.091 13.916C110.282 13.6647 110.52 13.4653 110.806 13.318C111.092 13.162 111.426 13.084 111.807 13.084C111.937 13.084 112.067 13.0927 112.197 13.11C112.327 13.1187 112.435 13.136 112.522 13.162L112.171 14.371C112.006 14.3017 111.811 14.267 111.586 14.267C111.265 14.267 110.958 14.358 110.663 14.54C110.377 14.722 110.139 15.0037 109.948 15.385C109.766 15.7663 109.675 16.2517 109.675 16.841V20H108.505ZM116.191 20.156C115.628 20.156 115.116 20.013 114.657 19.727C114.198 19.441 113.829 19.038 113.552 18.518C113.283 17.9893 113.149 17.3697 113.149 16.659C113.149 15.983 113.283 15.3763 113.552 14.839C113.829 14.3017 114.206 13.877 114.683 13.565C115.168 13.2443 115.723 13.084 116.347 13.084C116.737 13.084 117.088 13.1533 117.4 13.292C117.721 13.422 117.998 13.5867 118.232 13.786V13.24H119.298V18.362C119.298 18.6913 119.376 18.908 119.532 19.012C119.697 19.1073 119.874 19.155 120.065 19.155L119.818 20.065C118.986 20.065 118.483 19.727 118.31 19.051C118.111 19.3283 117.838 19.584 117.491 19.818C117.153 20.0433 116.72 20.156 116.191 20.156ZM116.451 19.116C116.78 19.116 117.092 19.038 117.387 18.882C117.682 18.7173 117.929 18.5137 118.128 18.271V14.644C117.894 14.4793 117.634 14.3493 117.348 14.254C117.071 14.15 116.776 14.098 116.464 14.098C116.048 14.098 115.68 14.2063 115.359 14.423C115.047 14.631 114.8 14.9257 114.618 15.307C114.436 15.6797 114.345 16.1173 114.345 16.62C114.345 17.1053 114.436 17.5387 114.618 17.92C114.8 18.2927 115.051 18.5873 115.372 18.804C115.693 19.012 116.052 19.116 116.451 19.116ZM124.293 20.156C123.643 20.156 123.128 19.9437 122.746 19.519C122.374 19.0857 122.187 18.4703 122.187 17.673V14.501H121.017V13.487H122.213L122.46 11.355H123.357V13.487H125.229V14.501H123.357V17.764C123.357 18.2667 123.461 18.6177 123.669 18.817C123.886 19.0163 124.142 19.116 124.436 19.116C124.653 19.116 124.857 19.0813 125.047 19.012C125.247 18.9427 125.429 18.8603 125.593 18.765L125.918 19.701C125.745 19.805 125.511 19.9047 125.216 20C124.922 20.104 124.614 20.156 124.293 20.156ZM127.394 20V13.24H128.564V20H127.394ZM127.979 12.083C127.754 12.083 127.559 12.0007 127.394 11.836C127.238 11.6713 127.16 11.4807 127.16 11.264C127.16 11.0127 127.234 10.8133 127.381 10.666C127.529 10.5187 127.728 10.445 127.979 10.445C128.205 10.445 128.395 10.5273 128.551 10.692C128.716 10.848 128.798 11.0387 128.798 11.264C128.798 11.5067 128.725 11.706 128.577 11.862C128.43 12.0093 128.231 12.083 127.979 12.083ZM130.944 20V13.24H132.075V14.371C132.318 14.007 132.626 13.7037 132.998 13.461C133.38 13.2097 133.83 13.084 134.35 13.084C135.113 13.084 135.681 13.3137 136.053 13.773C136.435 14.2323 136.625 14.839 136.625 15.593V20H135.455V15.723C135.455 15.2377 135.338 14.8477 135.104 14.553C134.879 14.2583 134.563 14.111 134.155 14.111C133.757 14.111 133.38 14.254 133.024 14.54C132.669 14.8173 132.366 15.1467 132.114 15.528V20H130.944ZM138.938 20V13.24H140.108V20H138.938ZM139.523 12.083C139.297 12.083 139.102 12.0007 138.938 11.836C138.782 11.6713 138.704 11.4807 138.704 11.264C138.704 11.0127 138.777 10.8133 138.925 10.666C139.072 10.5187 139.271 10.445 139.523 10.445C139.748 10.445 139.939 10.5273 140.095 10.692C140.259 10.848 140.342 11.0387 140.342 11.264C140.342 11.5067 140.268 11.706 140.121 11.862C139.973 12.0093 139.774 12.083 139.523 12.083ZM142.488 20V13.24H143.619V14.371C143.861 14.007 144.169 13.7037 144.542 13.461C144.923 13.2097 145.374 13.084 145.894 13.084C146.656 13.084 147.224 13.3137 147.597 13.773C147.978 14.2323 148.169 14.839 148.169 15.593V20H146.999V15.723C146.999 15.2377 146.882 14.8477 146.648 14.553C146.422 14.2583 146.106 14.111 145.699 14.111C145.3 14.111 144.923 14.254 144.568 14.54C144.212 14.8173 143.909 15.1467 143.658 15.528V20H142.488ZM152.964 23.016C152.565 23.016 152.175 22.9683 151.794 22.873C151.421 22.7777 151.088 22.6347 150.793 22.444L151.222 21.43C151.43 21.5947 151.673 21.729 151.95 21.833C152.227 21.9457 152.565 22.002 152.964 22.002C153.579 22.002 154.06 21.8373 154.407 21.508C154.762 21.1873 154.94 20.6717 154.94 19.961V19.129C154.767 19.337 154.515 19.5363 154.186 19.727C153.865 19.909 153.48 20 153.029 20C152.518 20 152.032 19.87 151.573 19.61C151.114 19.3413 150.741 18.9513 150.455 18.44C150.169 17.9287 150.026 17.3133 150.026 16.594C150.026 15.918 150.165 15.3157 150.442 14.787C150.728 14.2583 151.109 13.8423 151.586 13.539C152.063 13.2357 152.587 13.084 153.159 13.084C153.54 13.084 153.887 13.149 154.199 13.279C154.511 13.409 154.78 13.5693 155.005 13.76V13.24H156.071V19.844C156.071 20.5893 155.941 21.196 155.681 21.664C155.421 22.132 155.057 22.4743 154.589 22.691C154.13 22.9077 153.588 23.016 152.964 23.016ZM153.289 18.96C153.636 18.96 153.948 18.882 154.225 18.726C154.502 18.57 154.728 18.388 154.901 18.18V14.644C154.71 14.5053 154.481 14.3797 154.212 14.267C153.943 14.1543 153.631 14.098 153.276 14.098C152.921 14.098 152.587 14.1933 152.275 14.384C151.963 14.5747 151.707 14.852 151.508 15.216C151.317 15.5713 151.222 16.009 151.222 16.529C151.222 17.023 151.317 17.452 151.508 17.816C151.707 18.18 151.963 18.4617 152.275 18.661C152.587 18.8603 152.925 18.96 153.289 18.96ZM160.973 20.156C160.409 20.156 159.898 20.013 159.439 19.727C158.979 19.441 158.611 19.038 158.334 18.518C158.065 17.9893 157.931 17.3697 157.931 16.659C157.931 15.983 158.065 15.3763 158.334 14.839C158.611 14.3017 158.988 13.877 159.465 13.565C159.95 13.2443 160.505 13.084 161.129 13.084C161.519 13.084 161.87 13.1533 162.182 13.292C162.502 13.422 162.78 13.5867 163.014 13.786V13.24H164.08V18.362C164.08 18.6913 164.158 18.908 164.314 19.012C164.478 19.1073 164.656 19.155 164.847 19.155L164.6 20.065C163.768 20.065 163.265 19.727 163.092 19.051C162.892 19.3283 162.619 19.584 162.273 19.818C161.935 20.0433 161.501 20.156 160.973 20.156ZM161.233 19.116C161.562 19.116 161.874 19.038 162.169 18.882C162.463 18.7173 162.71 18.5137 162.91 18.271V14.644C162.676 14.4793 162.416 14.3493 162.13 14.254C161.852 14.15 161.558 14.098 161.246 14.098C160.83 14.098 160.461 14.2063 160.141 14.423C159.829 14.631 159.582 14.9257 159.4 15.307C159.218 15.6797 159.127 16.1173 159.127 16.62C159.127 17.1053 159.218 17.5387 159.4 17.92C159.582 18.2927 159.833 18.5873 160.154 18.804C160.474 19.012 160.834 19.116 161.233 19.116Z" fill="#015486"/>
<path d="M43.44 35L41.78 32.15H40.68V35H39.77V28.03H42.02C42.5467 28.03 42.99 28.12 43.35 28.3C43.7167 28.48 43.99 28.7233 44.17 29.03C44.35 29.3367 44.44 29.6867 44.44 30.08C44.44 30.56 44.3 30.9833 44.02 31.35C43.7467 31.7167 43.3333 31.96 42.78 32.08L44.53 35H43.44ZM40.68 31.42H42.02C42.5133 31.42 42.8833 31.3 43.13 31.06C43.3767 30.8133 43.5 30.4867 43.5 30.08C43.5 29.6667 43.3767 29.3467 43.13 29.12C42.89 28.8933 42.52 28.78 42.02 28.78H40.68V31.42ZM51.014 29.52V35H50.104V34.19C49.9307 34.47 49.6873 34.69 49.374 34.85C49.0673 35.0033 48.7273 35.08 48.354 35.08C47.9273 35.08 47.544 34.9933 47.204 34.82C46.864 34.64 46.594 34.3733 46.394 34.02C46.2007 33.6667 46.104 33.2367 46.104 32.73V29.52H47.004V32.61C47.004 33.15 47.1407 33.5667 47.414 33.86C47.6873 34.1467 48.0607 34.29 48.534 34.29C49.0207 34.29 49.404 34.14 49.684 33.84C49.964 33.54 50.104 33.1033 50.104 32.53V29.52H51.014ZM52.5105 32.24C52.5105 31.68 52.6238 31.19 52.8505 30.77C53.0771 30.3433 53.3871 30.0133 53.7805 29.78C54.1805 29.5467 54.6238 29.43 55.1105 29.43C55.5905 29.43 56.0071 29.5333 56.3605 29.74C56.7138 29.9467 56.9771 30.2067 57.1505 30.52V29.52H58.0705V35H57.1505V33.98C56.9705 34.3 56.7005 34.5667 56.3405 34.78C55.9871 34.9867 55.5738 35.09 55.1005 35.09C54.6138 35.09 54.1738 34.97 53.7805 34.73C53.3871 34.49 53.0771 34.1533 52.8505 33.72C52.6238 33.2867 52.5105 32.7933 52.5105 32.24ZM57.1505 32.25C57.1505 31.8367 57.0671 31.4767 56.9005 31.17C56.7338 30.8633 56.5071 30.63 56.2205 30.47C55.9405 30.3033 55.6305 30.22 55.2905 30.22C54.9505 30.22 54.6405 30.3 54.3605 30.46C54.0805 30.62 53.8571 30.8533 53.6905 31.16C53.5238 31.4667 53.4405 31.8267 53.4405 32.24C53.4405 32.66 53.5238 33.0267 53.6905 33.34C53.8571 33.6467 54.0805 33.8833 54.3605 34.05C54.6405 34.21 54.9505 34.29 55.2905 34.29C55.6305 34.29 55.9405 34.21 56.2205 34.05C56.5071 33.8833 56.7338 33.6467 56.9005 33.34C57.0671 33.0267 57.1505 32.6633 57.1505 32.25ZM66.0343 35.07C65.3876 35.07 64.7976 34.92 64.2643 34.62C63.731 34.3133 63.3076 33.89 62.9943 33.35C62.6876 32.8033 62.5343 32.19 62.5343 31.51C62.5343 30.83 62.6876 30.22 62.9943 29.68C63.3076 29.1333 63.731 28.71 64.2643 28.41C64.7976 28.1033 65.3876 27.95 66.0343 27.95C66.6876 27.95 67.281 28.1033 67.8143 28.41C68.3476 28.71 68.7676 29.13 69.0743 29.67C69.381 30.21 69.5343 30.8233 69.5343 31.51C69.5343 32.1967 69.381 32.81 69.0743 33.35C68.7676 33.89 68.3476 34.3133 67.8143 34.62C67.281 34.92 66.6876 35.07 66.0343 35.07ZM66.0343 34.28C66.521 34.28 66.9576 34.1667 67.3443 33.94C67.7376 33.7133 68.0443 33.39 68.2643 32.97C68.491 32.55 68.6043 32.0633 68.6043 31.51C68.6043 30.95 68.491 30.4633 68.2643 30.05C68.0443 29.63 67.741 29.3067 67.3543 29.08C66.9676 28.8533 66.5276 28.74 66.0343 28.74C65.541 28.74 65.101 28.8533 64.7143 29.08C64.3276 29.3067 64.021 29.63 63.7943 30.05C63.5743 30.4633 63.4643 30.95 63.4643 31.51C63.4643 32.0633 63.5743 32.55 63.7943 32.97C64.021 33.39 64.3276 33.7133 64.7143 33.94C65.1076 34.1667 65.5476 34.28 66.0343 34.28ZM71.9456 30.41C72.1056 30.0967 72.3323 29.8533 72.6256 29.68C72.9256 29.5067 73.289 29.42 73.7156 29.42V30.36H73.4756C72.4556 30.36 71.9456 30.9133 71.9456 32.02V35H71.0356V29.52H71.9456V30.41ZM80.0661 32.05C80.0661 32.2233 80.0561 32.4067 80.0361 32.6H75.6561C75.6894 33.14 75.8728 33.5633 76.2061 33.87C76.5461 34.17 76.9561 34.32 77.4361 34.32C77.8294 34.32 78.1561 34.23 78.4161 34.05C78.6828 33.8633 78.8694 33.6167 78.9761 33.31H79.9561C79.8094 33.8367 79.5161 34.2667 79.0761 34.6C78.6361 34.9267 78.0894 35.09 77.4361 35.09C76.9161 35.09 76.4494 34.9733 76.0361 34.74C75.6294 34.5067 75.3094 34.1767 75.0761 33.75C74.8428 33.3167 74.7261 32.8167 74.7261 32.25C74.7261 31.6833 74.8394 31.1867 75.0661 30.76C75.2928 30.3333 75.6094 30.0067 76.0161 29.78C76.4294 29.5467 76.9028 29.43 77.4361 29.43C77.9561 29.43 78.4161 29.5433 78.8161 29.77C79.2161 29.9967 79.5228 30.31 79.7361 30.71C79.9561 31.1033 80.0661 31.55 80.0661 32.05ZM79.1261 31.86C79.1261 31.5133 79.0494 31.2167 78.8961 30.97C78.7428 30.7167 78.5328 30.5267 78.2661 30.4C78.0061 30.2667 77.7161 30.2 77.3961 30.2C76.9361 30.2 76.5428 30.3467 76.2161 30.64C75.8961 30.9333 75.7128 31.34 75.6661 31.86H79.1261ZM83.5073 35.09C83.0873 35.09 82.7106 35.02 82.3773 34.88C82.0439 34.7333 81.7806 34.5333 81.5873 34.28C81.3939 34.02 81.2873 33.7233 81.2673 33.39H82.2073C82.2339 33.6633 82.3606 33.8867 82.5873 34.06C82.8206 34.2333 83.1239 34.32 83.4973 34.32C83.8439 34.32 84.1173 34.2433 84.3173 34.09C84.5173 33.9367 84.6173 33.7433 84.6173 33.51C84.6173 33.27 84.5106 33.0933 84.2973 32.98C84.0839 32.86 83.7539 32.7433 83.3073 32.63C82.9006 32.5233 82.5673 32.4167 82.3073 32.31C82.0539 32.1967 81.8339 32.0333 81.6473 31.82C81.4673 31.6 81.3773 31.3133 81.3773 30.96C81.3773 30.68 81.4606 30.4233 81.6273 30.19C81.7939 29.9567 82.0306 29.7733 82.3373 29.64C82.6439 29.5 82.9939 29.43 83.3873 29.43C83.9939 29.43 84.4839 29.5833 84.8573 29.89C85.2306 30.1967 85.4306 30.6167 85.4573 31.15H84.5473C84.5273 30.8633 84.4106 30.6333 84.1973 30.46C83.9906 30.2867 83.7106 30.2 83.3573 30.2C83.0306 30.2 82.7706 30.27 82.5773 30.41C82.3839 30.55 82.2873 30.7333 82.2873 30.96C82.2873 31.14 82.3439 31.29 82.4573 31.41C82.5773 31.5233 82.7239 31.6167 82.8973 31.69C83.0773 31.7567 83.3239 31.8333 83.6373 31.92C84.0306 32.0267 84.3506 32.1333 84.5973 32.24C84.8439 32.34 85.0539 32.4933 85.2273 32.7C85.4073 32.9067 85.5006 33.1767 85.5073 33.51C85.5073 33.81 85.4239 34.08 85.2573 34.32C85.0906 34.56 84.8539 34.75 84.5473 34.89C84.2473 35.0233 83.9006 35.09 83.5073 35.09ZM88.2019 30.27V33.5C88.2019 33.7667 88.2585 33.9567 88.3719 34.07C88.4852 34.1767 88.6819 34.23 88.9619 34.23H89.6319V35H88.8119C88.3052 35 87.9252 34.8833 87.6719 34.65C87.4185 34.4167 87.2919 34.0333 87.2919 33.5V30.27H86.5819V29.52H87.2919V28.14H88.2019V29.52H89.6319V30.27H88.2019ZM96.0345 32.05C96.0345 32.2233 96.0245 32.4067 96.0045 32.6H91.6245C91.6578 33.14 91.8411 33.5633 92.1745 33.87C92.5145 34.17 92.9245 34.32 93.4045 34.32C93.7978 34.32 94.1245 34.23 94.3845 34.05C94.6511 33.8633 94.8378 33.6167 94.9445 33.31H95.9245C95.7778 33.8367 95.4845 34.2667 95.0445 34.6C94.6045 34.9267 94.0578 35.09 93.4045 35.09C92.8845 35.09 92.4178 34.9733 92.0045 34.74C91.5978 34.5067 91.2778 34.1767 91.0445 33.75C90.8111 33.3167 90.6945 32.8167 90.6945 32.25C90.6945 31.6833 90.8078 31.1867 91.0345 30.76C91.2611 30.3333 91.5778 30.0067 91.9845 29.78C92.3978 29.5467 92.8711 29.43 93.4045 29.43C93.9245 29.43 94.3845 29.5433 94.7845 29.77C95.1845 29.9967 95.4911 30.31 95.7045 30.71C95.9245 31.1033 96.0345 31.55 96.0345 32.05ZM95.0945 31.86C95.0945 31.5133 95.0178 31.2167 94.8645 30.97C94.7111 30.7167 94.5011 30.5267 94.2345 30.4C93.9745 30.2667 93.6845 30.2 93.3645 30.2C92.9045 30.2 92.5111 30.3467 92.1845 30.64C91.8645 30.9333 91.6811 31.34 91.6345 31.86H95.0945ZM99.4756 35.09C99.0556 35.09 98.679 35.02 98.3456 34.88C98.0123 34.7333 97.749 34.5333 97.5556 34.28C97.3623 34.02 97.2556 33.7233 97.2356 33.39H98.1756C98.2023 33.6633 98.329 33.8867 98.5556 34.06C98.789 34.2333 99.0923 34.32 99.4656 34.32C99.8123 34.32 100.086 34.2433 100.286 34.09C100.486 33.9367 100.586 33.7433 100.586 33.51C100.586 33.27 100.479 33.0933 100.266 32.98C100.052 32.86 99.7223 32.7433 99.2756 32.63C98.869 32.5233 98.5356 32.4167 98.2756 32.31C98.0223 32.1967 97.8023 32.0333 97.6156 31.82C97.4356 31.6 97.3456 31.3133 97.3456 30.96C97.3456 30.68 97.429 30.4233 97.5956 30.19C97.7623 29.9567 97.999 29.7733 98.3056 29.64C98.6123 29.5 98.9623 29.43 99.3556 29.43C99.9623 29.43 100.452 29.5833 100.826 29.89C101.199 30.1967 101.399 30.6167 101.426 31.15H100.516C100.496 30.8633 100.379 30.6333 100.166 30.46C99.959 30.2867 99.679 30.2 99.3256 30.2C98.999 30.2 98.739 30.27 98.5456 30.41C98.3523 30.55 98.2556 30.7333 98.2556 30.96C98.2556 31.14 98.3123 31.29 98.4256 31.41C98.5456 31.5233 98.6923 31.6167 98.8656 31.69C99.0456 31.7567 99.2923 31.8333 99.6056 31.92C99.999 32.0267 100.319 32.1333 100.566 32.24C100.812 32.34 101.022 32.4933 101.196 32.7C101.376 32.9067 101.469 33.1767 101.476 33.51C101.476 33.81 101.392 34.08 101.226 34.32C101.059 34.56 100.822 34.75 100.516 34.89C100.216 35.0233 99.869 35.09 99.4756 35.09ZM109.516 31.41C109.77 31.45 110 31.5533 110.206 31.72C110.42 31.8867 110.586 32.0933 110.706 32.34C110.833 32.5867 110.896 32.85 110.896 33.13C110.896 33.4833 110.806 33.8033 110.626 34.09C110.446 34.37 110.183 34.5933 109.836 34.76C109.496 34.92 109.093 35 108.626 35H106.026V28.03H108.526C109 28.03 109.403 28.11 109.736 28.27C110.07 28.4233 110.32 28.6333 110.486 28.9C110.653 29.1667 110.736 29.4667 110.736 29.8C110.736 30.2133 110.623 30.5567 110.396 30.83C110.176 31.0967 109.883 31.29 109.516 31.41ZM106.936 31.04H108.466C108.893 31.04 109.223 30.94 109.456 30.74C109.69 30.54 109.806 30.2633 109.806 29.91C109.806 29.5567 109.69 29.28 109.456 29.08C109.223 28.88 108.886 28.78 108.446 28.78H106.936V31.04ZM108.546 34.25C109 34.25 109.353 34.1433 109.606 33.93C109.86 33.7167 109.986 33.42 109.986 33.04C109.986 32.6533 109.853 32.35 109.586 32.13C109.32 31.9033 108.963 31.79 108.516 31.79H106.936V34.25H108.546ZM112.119 32.24C112.119 31.68 112.232 31.19 112.459 30.77C112.686 30.3433 112.996 30.0133 113.389 29.78C113.789 29.5467 114.232 29.43 114.719 29.43C115.199 29.43 115.616 29.5333 115.969 29.74C116.322 29.9467 116.586 30.2067 116.759 30.52V29.52H117.679V35H116.759V33.98C116.579 34.3 116.309 34.5667 115.949 34.78C115.596 34.9867 115.182 35.09 114.709 35.09C114.222 35.09 113.782 34.97 113.389 34.73C112.996 34.49 112.686 34.1533 112.459 33.72C112.232 33.2867 112.119 32.7933 112.119 32.24ZM116.759 32.25C116.759 31.8367 116.676 31.4767 116.509 31.17C116.342 30.8633 116.116 30.63 115.829 30.47C115.549 30.3033 115.239 30.22 114.899 30.22C114.559 30.22 114.249 30.3 113.969 30.46C113.689 30.62 113.466 30.8533 113.299 31.16C113.132 31.4667 113.049 31.8267 113.049 32.24C113.049 32.66 113.132 33.0267 113.299 33.34C113.466 33.6467 113.689 33.8833 113.969 34.05C114.249 34.21 114.559 34.29 114.899 34.29C115.239 34.29 115.549 34.21 115.829 34.05C116.116 33.8833 116.342 33.6467 116.509 33.34C116.676 33.0267 116.759 32.6633 116.759 32.25ZM120.427 30.41C120.587 30.0967 120.814 29.8533 121.107 29.68C121.407 29.5067 121.77 29.42 122.197 29.42V30.36H121.957C120.937 30.36 120.427 30.9133 120.427 32.02V35H119.517V29.52H120.427V30.41ZM124.457 30.54C124.644 30.2133 124.917 29.9467 125.277 29.74C125.637 29.5333 126.047 29.43 126.507 29.43C127.001 29.43 127.444 29.5467 127.837 29.78C128.231 30.0133 128.541 30.3433 128.767 30.77C128.994 31.19 129.107 31.68 129.107 32.24C129.107 32.7933 128.994 33.2867 128.767 33.72C128.541 34.1533 128.227 34.49 127.827 34.73C127.434 34.97 126.994 35.09 126.507 35.09C126.034 35.09 125.617 34.9867 125.257 34.78C124.904 34.5733 124.637 34.31 124.457 33.99V35H123.547V27.6H124.457V30.54ZM128.177 32.24C128.177 31.8267 128.094 31.4667 127.927 31.16C127.761 30.8533 127.534 30.62 127.247 30.46C126.967 30.3 126.657 30.22 126.317 30.22C125.984 30.22 125.674 30.3033 125.387 30.47C125.107 30.63 124.881 30.8667 124.707 31.18C124.541 31.4867 124.457 31.8433 124.457 32.25C124.457 32.6633 124.541 33.0267 124.707 33.34C124.881 33.6467 125.107 33.8833 125.387 34.05C125.674 34.21 125.984 34.29 126.317 34.29C126.657 34.29 126.967 34.21 127.247 34.05C127.534 33.8833 127.761 33.6467 127.927 33.34C128.094 33.0267 128.177 32.66 128.177 32.24ZM132.995 35.09C132.482 35.09 132.015 34.9733 131.595 34.74C131.182 34.5067 130.855 34.1767 130.615 33.75C130.382 33.3167 130.265 32.8167 130.265 32.25C130.265 31.69 130.385 31.1967 130.625 30.77C130.872 30.3367 131.205 30.0067 131.625 29.78C132.045 29.5467 132.515 29.43 133.035 29.43C133.555 29.43 134.025 29.5467 134.445 29.78C134.865 30.0067 135.195 30.3333 135.435 30.76C135.682 31.1867 135.805 31.6833 135.805 32.25C135.805 32.8167 135.678 33.3167 135.425 33.75C135.178 34.1767 134.842 34.5067 134.415 34.74C133.988 34.9733 133.515 35.09 132.995 35.09ZM132.995 34.29C133.322 34.29 133.628 34.2133 133.915 34.06C134.202 33.9067 134.432 33.6767 134.605 33.37C134.785 33.0633 134.875 32.69 134.875 32.25C134.875 31.81 134.788 31.4367 134.615 31.13C134.442 30.8233 134.215 30.5967 133.935 30.45C133.655 30.2967 133.352 30.22 133.025 30.22C132.692 30.22 132.385 30.2967 132.105 30.45C131.832 30.5967 131.612 30.8233 131.445 31.13C131.278 31.4367 131.195 31.81 131.195 32.25C131.195 32.6967 131.275 33.0733 131.435 33.38C131.602 33.6867 131.822 33.9167 132.095 34.07C132.368 34.2167 132.668 34.29 132.995 34.29ZM139.242 35.09C138.822 35.09 138.445 35.02 138.112 34.88C137.778 34.7333 137.515 34.5333 137.322 34.28C137.128 34.02 137.022 33.7233 137.002 33.39H137.942C137.968 33.6633 138.095 33.8867 138.322 34.06C138.555 34.2333 138.858 34.32 139.232 34.32C139.578 34.32 139.852 34.2433 140.052 34.09C140.252 33.9367 140.352 33.7433 140.352 33.51C140.352 33.27 140.245 33.0933 140.032 32.98C139.818 32.86 139.488 32.7433 139.042 32.63C138.635 32.5233 138.302 32.4167 138.042 32.31C137.788 32.1967 137.568 32.0333 137.382 31.82C137.202 31.6 137.112 31.3133 137.112 30.96C137.112 30.68 137.195 30.4233 137.362 30.19C137.528 29.9567 137.765 29.7733 138.072 29.64C138.378 29.5 138.728 29.43 139.122 29.43C139.728 29.43 140.218 29.5833 140.592 29.89C140.965 30.1967 141.165 30.6167 141.192 31.15H140.282C140.262 30.8633 140.145 30.6333 139.932 30.46C139.725 30.2867 139.445 30.2 139.092 30.2C138.765 30.2 138.505 30.27 138.312 30.41C138.118 30.55 138.022 30.7333 138.022 30.96C138.022 31.14 138.078 31.29 138.192 31.41C138.312 31.5233 138.458 31.6167 138.632 31.69C138.812 31.7567 139.058 31.8333 139.372 31.92C139.765 32.0267 140.085 32.1333 140.332 32.24C140.578 32.34 140.788 32.4933 140.962 32.7C141.142 32.9067 141.235 33.1767 141.242 33.51C141.242 33.81 141.158 34.08 140.992 34.32C140.825 34.56 140.588 34.75 140.282 34.89C139.982 35.0233 139.635 35.09 139.242 35.09ZM142.486 32.24C142.486 31.68 142.6 31.19 142.826 30.77C143.053 30.3433 143.363 30.0133 143.756 29.78C144.156 29.5467 144.6 29.43 145.086 29.43C145.566 29.43 145.983 29.5333 146.336 29.74C146.69 29.9467 146.953 30.2067 147.126 30.52V29.52H148.046V35H147.126V33.98C146.946 34.3 146.676 34.5667 146.316 34.78C145.963 34.9867 145.55 35.09 145.076 35.09C144.59 35.09 144.15 34.97 143.756 34.73C143.363 34.49 143.053 34.1533 142.826 33.72C142.6 33.2867 142.486 32.7933 142.486 32.24ZM147.126 32.25C147.126 31.8367 147.043 31.4767 146.876 31.17C146.71 30.8633 146.483 30.63 146.196 30.47C145.916 30.3033 145.606 30.22 145.266 30.22C144.926 30.22 144.616 30.3 144.336 30.46C144.056 30.62 143.833 30.8533 143.666 31.16C143.5 31.4667 143.416 31.8267 143.416 32.24C143.416 32.66 143.5 33.0267 143.666 33.34C143.833 33.6467 144.056 33.8833 144.336 34.05C144.616 34.21 144.926 34.29 145.266 34.29C145.606 34.29 145.916 34.21 146.196 34.05C146.483 33.8833 146.71 33.6467 146.876 33.34C147.043 33.0267 147.126 32.6633 147.126 32.25Z" fill="#98A4AE"/>
<path d="M73.9434 45.5L108.058 45.5L91.001 68.3301L73.9434 45.5Z" fill="white" stroke="#015486" stroke-width="2"/>
<path d="M91 65L71.0814 41L110.919 41L91 65Z" fill="white"/>
<path d="M31.155 11.978C30.2796 11.4725 29.3132 11.1443 28.311 11.0123C27.3088 10.8803 26.2904 10.947 25.314 11.2086C24.3376 11.4702 23.4223 11.9215 22.6203 12.5369C21.8183 13.1523 21.1454 13.9196 20.64 14.795L20.35 15.297C20.2507 15.4693 20.2239 15.6739 20.2755 15.8659C20.3271 16.0579 20.4528 16.2216 20.625 16.321L26.086 19.474L22.818 25.194L22.75 25.193C19.592 25.193 16.857 27.025 15.228 29.615C15.5062 29.5166 15.8027 29.481 16.0963 29.5108C16.3898 29.5405 16.6732 29.6348 16.926 29.787C18.338 27.921 20.444 26.693 22.75 26.693C25.154 26.693 27.341 28.028 28.75 30.029C28.9448 29.8497 29.1733 29.7109 29.4222 29.6206C29.6711 29.5303 29.9355 29.4903 30.2 29.503C28.869 27.445 26.833 25.883 24.444 25.372L27.385 20.224L32.658 23.269C32.7433 23.3183 32.8376 23.3503 32.9353 23.3631C33.033 23.376 33.1323 23.3695 33.2275 23.3439C33.3227 23.3184 33.4119 23.2743 33.4901 23.2143C33.5682 23.1543 33.6338 23.0794 33.683 22.994L33.973 22.493C34.4785 21.6176 34.8065 20.6511 34.9385 19.6489C35.0704 18.6466 35.0036 17.6282 34.742 16.6518C34.4803 15.6754 34.0288 14.7601 33.4134 13.9581C32.7979 13.1562 32.0305 12.4833 31.155 11.978ZM28.965 19.404L25.807 17.58C26.379 16.699 26.923 16.028 27.575 15.435C28.21 14.857 28.968 14.335 29.996 13.767C30.148 14.722 30.194 15.517 30.096 16.297C29.98 17.229 29.651 18.19 28.963 19.403M30.261 20.153C31.021 18.815 31.437 17.663 31.584 16.483C31.681 15.709 31.659 14.945 31.562 14.138C32.5536 15.0759 33.208 16.3148 33.4237 17.6625C33.6394 19.0102 33.4043 20.3915 32.755 21.592L30.261 20.153ZM26.565 14.325C25.775 15.044 25.14 15.844 24.505 16.829L22.025 15.397C22.7247 14.2594 23.773 13.3782 25.014 12.8845C26.2549 12.3908 27.6221 12.311 28.912 12.657C27.983 13.192 27.227 13.722 26.565 14.325ZM16.605 31.263C16.5536 31.1087 16.4535 30.9752 16.3197 30.8828C16.1859 30.7903 16.0257 30.7439 15.8632 30.7504C15.7007 30.757 15.5447 30.8162 15.4188 30.9191C15.2928 31.022 15.2038 31.163 15.165 31.321C14.91 32.363 14.427 32.935 13.877 33.267C13.301 33.615 12.567 33.749 11.748 33.749C11.5491 33.749 11.3583 33.828 11.2177 33.9687C11.077 34.1093 10.998 34.3001 10.998 34.499C10.998 34.6979 11.077 34.8887 11.2177 35.0293C11.3583 35.17 11.5491 35.249 11.748 35.249C12.705 35.249 13.748 35.097 14.652 34.551C15.1912 34.2252 15.6459 33.7767 15.979 33.242C17.768 35.524 21.261 35.512 22.998 33.218C24.763 35.548 28.338 35.524 30.101 33.132C30.5796 33.7834 31.2038 34.3141 31.9238 34.6816C32.6437 35.0492 33.4396 35.2435 34.248 35.249C34.4469 35.249 34.6377 35.17 34.7783 35.0293C34.919 34.8887 34.998 34.6979 34.998 34.499C34.998 34.3001 34.919 34.1093 34.7783 33.9687C34.6377 33.828 34.4469 33.749 34.248 33.749C32.773 33.749 31.303 32.789 30.818 31.271C30.77 31.1199 30.6754 30.9879 30.5477 30.894C30.42 30.8001 30.2659 30.749 30.1074 30.7481C29.9489 30.7472 29.7942 30.7965 29.6655 30.8891C29.5368 30.9816 29.4407 31.1125 29.391 31.263C28.428 34.172 24.653 34.135 23.707 31.384C23.6561 31.2364 23.5604 31.1085 23.4333 31.0179C23.3062 30.9273 23.1541 30.8786 22.998 30.8786C22.8419 30.8786 22.6897 30.9273 22.5626 31.0179C22.4355 31.1085 22.3399 31.2364 22.289 31.384C21.343 34.135 17.569 34.171 16.605 31.263Z" fill="#015486"/>
<defs>
<linearGradient id="paint0_linear_294_383" x1="179.069" y1="0.748829" x2="-69.2821" y2="206.234" gradientUnits="userSpaceOnUse">
<stop stop-color="white"/>
</linearGradient>
</defs>
</svg>
