<svg width="181" height="70" viewBox="0 0 181 70" fill="none" xmlns="http://www.w3.org/2000/svg">
<path d="M20 1H161C171.493 1 180 9.50659 180 20V26C180 36.4934 171.493 45 161 45H20C9.50659 45 1 36.4934 1 26V20C1 9.50659 9.50659 1 20 1Z" fill="url(#paint0_linear_295_453)" stroke="#015486" stroke-width="2"/>
<path d="M40.08 19V10.624C40.408 10.584 40.768 10.556 41.16 10.54C41.56 10.516 41.972 10.504 42.396 10.504C43.092 10.504 43.684 10.616 44.172 10.84C44.66 11.056 45.032 11.356 45.288 11.74C45.544 12.124 45.672 12.564 45.672 13.06C45.672 13.66 45.524 14.168 45.228 14.584C44.932 15 44.52 15.32 43.992 15.544C43.464 15.76 42.852 15.868 42.156 15.868C41.82 15.868 41.508 15.856 41.22 15.832V19H40.08ZM42.3 14.92C43.012 14.92 43.564 14.76 43.956 14.44C44.348 14.12 44.544 13.692 44.544 13.156C44.544 12.636 44.356 12.224 43.98 11.92C43.604 11.616 43.068 11.464 42.372 11.464C42.156 11.464 41.952 11.468 41.76 11.476C41.568 11.484 41.388 11.496 41.22 11.512V14.86C41.348 14.876 41.504 14.892 41.688 14.908C41.872 14.916 42.076 14.92 42.3 14.92ZM47.2327 19V12.76H48.2767V14.116C48.3807 13.852 48.5207 13.608 48.6967 13.384C48.8727 13.152 49.0927 12.968 49.3567 12.832C49.6207 12.688 49.9287 12.616 50.2807 12.616C50.4007 12.616 50.5207 12.624 50.6407 12.64C50.7607 12.648 50.8607 12.664 50.9407 12.688L50.6167 13.804C50.4647 13.74 50.2847 13.708 50.0767 13.708C49.7807 13.708 49.4967 13.792 49.2247 13.96C48.9607 14.128 48.7407 14.388 48.5647 14.74C48.3967 15.092 48.3127 15.54 48.3127 16.084V19H47.2327ZM54.3503 19.144C53.8303 19.144 53.3583 19.012 52.9343 18.748C52.5103 18.484 52.1703 18.112 51.9143 17.632C51.6663 17.144 51.5423 16.572 51.5423 15.916C51.5423 15.292 51.6663 14.732 51.9143 14.236C52.1703 13.74 52.5183 13.348 52.9583 13.06C53.4063 12.764 53.9183 12.616 54.4943 12.616C54.8543 12.616 55.1783 12.68 55.4663 12.808C55.7623 12.928 56.0183 13.08 56.2343 13.264V12.76H57.2183V17.488C57.2183 17.792 57.2903 17.992 57.4343 18.088C57.5863 18.176 57.7503 18.22 57.9263 18.22L57.6983 19.06C56.9303 19.06 56.4663 18.748 56.3063 18.124C56.1223 18.38 55.8703 18.616 55.5503 18.832C55.2383 19.04 54.8383 19.144 54.3503 19.144ZM54.5903 18.184C54.8943 18.184 55.1823 18.112 55.4543 17.968C55.7263 17.816 55.9543 17.628 56.1383 17.404V14.056C55.9223 13.904 55.6823 13.784 55.4183 13.696C55.1623 13.6 54.8903 13.552 54.6023 13.552C54.2183 13.552 53.8783 13.652 53.5823 13.852C53.2943 14.044 53.0663 14.316 52.8983 14.668C52.7303 15.012 52.6463 15.416 52.6463 15.88C52.6463 16.328 52.7303 16.728 52.8983 17.08C53.0663 17.424 53.2983 17.696 53.5943 17.896C53.8903 18.088 54.2223 18.184 54.5903 18.184ZM59.6686 19V12.76H60.7486V19H59.6686ZM60.2086 11.692C60.0006 11.692 59.8206 11.616 59.6686 11.464C59.5246 11.312 59.4526 11.136 59.4526 10.936C59.4526 10.704 59.5206 10.52 59.6566 10.384C59.7926 10.248 59.9766 10.18 60.2086 10.18C60.4166 10.18 60.5926 10.256 60.7366 10.408C60.8886 10.552 60.9646 10.728 60.9646 10.936C60.9646 11.16 60.8966 11.344 60.7606 11.488C60.6246 11.624 60.4406 11.692 60.2086 11.692ZM65.3566 19.144C64.8366 19.144 64.3646 19.012 63.9406 18.748C63.5166 18.484 63.1766 18.112 62.9206 17.632C62.6726 17.144 62.5486 16.572 62.5486 15.916C62.5486 15.292 62.6726 14.732 62.9206 14.236C63.1766 13.74 63.5246 13.348 63.9646 13.06C64.4126 12.764 64.9246 12.616 65.5006 12.616C65.8606 12.616 66.1846 12.68 66.4726 12.808C66.7686 12.928 67.0246 13.08 67.2406 13.264V12.76H68.2246V17.488C68.2246 17.792 68.2966 17.992 68.4406 18.088C68.5926 18.176 68.7566 18.22 68.9326 18.22L68.7046 19.06C67.9366 19.06 67.4726 18.748 67.3126 18.124C67.1286 18.38 66.8766 18.616 66.5566 18.832C66.2446 19.04 65.8446 19.144 65.3566 19.144ZM65.5966 18.184C65.9006 18.184 66.1886 18.112 66.4606 17.968C66.7326 17.816 66.9606 17.628 67.1446 17.404V14.056C66.9286 13.904 66.6886 13.784 66.4246 13.696C66.1686 13.6 65.8966 13.552 65.6086 13.552C65.2246 13.552 64.8846 13.652 64.5886 13.852C64.3006 14.044 64.0726 14.316 63.9046 14.668C63.7366 15.012 63.6526 15.416 63.6526 15.88C63.6526 16.328 63.7366 16.728 63.9046 17.08C64.0726 17.424 64.3046 17.696 64.6006 17.896C64.8966 18.088 65.2286 18.184 65.5966 18.184ZM76.9365 19.144C76.4245 19.144 75.9565 19.012 75.5325 18.748C75.1085 18.484 74.7725 18.112 74.5245 17.632C74.2765 17.144 74.1525 16.572 74.1525 15.916C74.1525 15.284 74.2765 14.72 74.5245 14.224C74.7805 13.728 75.1165 13.336 75.5325 13.048C75.9565 12.76 76.4205 12.616 76.9245 12.616C77.3405 12.616 77.6965 12.7 77.9925 12.868C78.2965 13.036 78.5325 13.208 78.7005 13.384V10.12H79.7805V17.488C79.7805 17.792 79.8525 17.992 79.9965 18.088C80.1485 18.176 80.3125 18.22 80.4885 18.22L80.2605 19.06C79.5005 19.06 79.0365 18.756 78.8685 18.148C78.6925 18.396 78.4445 18.624 78.1245 18.832C77.8125 19.04 77.4165 19.144 76.9365 19.144ZM77.1765 18.184C77.4725 18.184 77.7525 18.116 78.0165 17.98C78.2885 17.836 78.5165 17.652 78.7005 17.428V14.332C78.5485 14.14 78.3365 13.964 78.0645 13.804C77.7925 13.636 77.4925 13.552 77.1645 13.552C76.7805 13.552 76.4445 13.656 76.1565 13.864C75.8685 14.072 75.6445 14.352 75.4845 14.704C75.3325 15.048 75.2565 15.44 75.2565 15.88C75.2565 16.32 75.3405 16.716 75.5085 17.068C75.6765 17.412 75.9045 17.684 76.1925 17.884C76.4885 18.084 76.8165 18.184 77.1765 18.184ZM84.6107 19.144C83.7147 19.144 83.0027 18.86 82.4747 18.292C81.9547 17.716 81.6947 16.912 81.6947 15.88C81.6947 15.256 81.8107 14.7 82.0427 14.212C82.2827 13.716 82.6147 13.328 83.0387 13.048C83.4627 12.76 83.9547 12.616 84.5147 12.616C85.1147 12.616 85.6107 12.748 86.0027 13.012C86.4027 13.268 86.7027 13.616 86.9027 14.056C87.1027 14.496 87.2027 14.98 87.2027 15.508C87.2027 15.788 87.1907 16.06 87.1667 16.324H82.7987C82.8707 16.908 83.0747 17.364 83.4107 17.692C83.7467 18.02 84.1907 18.184 84.7427 18.184C85.1027 18.184 85.4267 18.148 85.7147 18.076C86.0027 17.996 86.2787 17.896 86.5427 17.776L86.7947 18.7C86.5067 18.828 86.1827 18.932 85.8227 19.012C85.4627 19.1 85.0587 19.144 84.6107 19.144ZM82.7867 15.448H86.2067C86.2067 14.84 86.0547 14.372 85.7507 14.044C85.4467 13.716 85.0267 13.552 84.4907 13.552C84.0267 13.552 83.6427 13.716 83.3387 14.044C83.0347 14.364 82.8507 14.832 82.7867 15.448ZM95.0477 19.144C94.4637 19.144 93.9317 19.068 93.4517 18.916C92.9717 18.756 92.5677 18.548 92.2397 18.292L92.8157 17.332C93.1037 17.572 93.4277 17.768 93.7877 17.92C94.1477 18.072 94.5677 18.148 95.0477 18.148C95.6237 18.148 96.0797 18.028 96.4157 17.788C96.7517 17.548 96.9197 17.224 96.9197 16.816C96.9197 16.584 96.8717 16.38 96.7757 16.204C96.6797 16.02 96.4917 15.844 96.2117 15.676C95.9397 15.5 95.5357 15.312 94.9997 15.112C94.4237 14.888 93.9637 14.664 93.6197 14.44C93.2757 14.208 93.0277 13.948 92.8757 13.66C92.7317 13.364 92.6597 13.016 92.6597 12.616C92.6597 12.216 92.7677 11.856 92.9837 11.536C93.2077 11.208 93.5317 10.948 93.9557 10.756C94.3877 10.556 94.9077 10.456 95.5157 10.456C96.0117 10.456 96.4557 10.508 96.8477 10.612C97.2477 10.708 97.6357 10.848 98.0117 11.032L97.5917 12.004C97.3197 11.844 96.9997 11.712 96.6317 11.608C96.2717 11.496 95.8917 11.44 95.4917 11.44C94.9637 11.44 94.5477 11.544 94.2437 11.752C93.9397 11.96 93.7877 12.228 93.7877 12.556C93.7877 12.764 93.8317 12.948 93.9197 13.108C94.0077 13.268 94.1797 13.424 94.4357 13.576C94.6997 13.728 95.0917 13.9 95.6117 14.092C96.2357 14.324 96.7277 14.568 97.0877 14.824C97.4557 15.08 97.7157 15.36 97.8677 15.664C98.0197 15.96 98.0957 16.3 98.0957 16.684C98.0957 17.204 97.9637 17.648 97.6997 18.016C97.4437 18.384 97.0837 18.664 96.6197 18.856C96.1637 19.048 95.6397 19.144 95.0477 19.144ZM102.348 19.144C101.828 19.144 101.356 19.012 100.932 18.748C100.508 18.484 100.168 18.112 99.912 17.632C99.664 17.144 99.54 16.572 99.54 15.916C99.54 15.292 99.664 14.732 99.912 14.236C100.168 13.74 100.516 13.348 100.956 13.06C101.404 12.764 101.916 12.616 102.492 12.616C102.852 12.616 103.176 12.68 103.464 12.808C103.76 12.928 104.016 13.08 104.232 13.264V12.76H105.216V17.488C105.216 17.792 105.288 17.992 105.432 18.088C105.584 18.176 105.748 18.22 105.924 18.22L105.696 19.06C104.928 19.06 104.464 18.748 104.304 18.124C104.12 18.38 103.868 18.616 103.548 18.832C103.236 19.04 102.836 19.144 102.348 19.144ZM102.588 18.184C102.892 18.184 103.18 18.112 103.452 17.968C103.724 17.816 103.952 17.628 104.136 17.404V14.056C103.92 13.904 103.68 13.784 103.416 13.696C103.16 13.6 102.888 13.552 102.6 13.552C102.216 13.552 101.876 13.652 101.58 13.852C101.292 14.044 101.064 14.316 100.896 14.668C100.728 15.012 100.644 15.416 100.644 15.88C100.644 16.328 100.728 16.728 100.896 17.08C101.064 17.424 101.296 17.696 101.592 17.896C101.888 18.088 102.22 18.184 102.588 18.184ZM101.184 11.704L100.764 10.96C100.908 10.8 101.092 10.656 101.316 10.528C101.54 10.4 101.772 10.336 102.012 10.336C102.212 10.336 102.384 10.372 102.528 10.444C102.672 10.508 102.808 10.576 102.936 10.648C103.072 10.712 103.224 10.744 103.392 10.744C103.568 10.744 103.724 10.708 103.86 10.636C103.996 10.556 104.116 10.468 104.22 10.372L104.64 11.128C104.496 11.264 104.328 11.392 104.136 11.512C103.952 11.624 103.736 11.68 103.488 11.68C103.28 11.68 103.104 11.648 102.96 11.584C102.816 11.512 102.676 11.444 102.54 11.38C102.404 11.308 102.244 11.272 102.06 11.272C101.884 11.272 101.724 11.316 101.58 11.404C101.436 11.492 101.304 11.592 101.184 11.704ZM110.177 19.144C109.585 19.144 109.053 19.008 108.581 18.736C108.109 18.456 107.737 18.072 107.465 17.584C107.201 17.088 107.069 16.52 107.069 15.88C107.069 15.208 107.205 14.628 107.477 14.14C107.749 13.652 108.121 13.276 108.593 13.012C109.065 12.748 109.593 12.616 110.177 12.616C110.761 12.616 111.285 12.748 111.749 13.012C112.221 13.276 112.593 13.652 112.865 14.14C113.145 14.62 113.285 15.192 113.285 15.856C113.285 16.52 113.149 17.1 112.877 17.596C112.605 18.084 112.233 18.464 111.761 18.736C111.297 19.008 110.769 19.144 110.177 19.144ZM110.177 18.184C110.809 18.184 111.301 17.972 111.653 17.548C112.005 17.116 112.181 16.56 112.181 15.88C112.181 15.464 112.093 15.084 111.917 14.74C111.741 14.388 111.501 14.108 111.197 13.9C110.901 13.684 110.561 13.576 110.177 13.576C109.545 13.576 109.053 13.784 108.701 14.2C108.349 14.616 108.173 15.168 108.173 15.856C108.173 16.272 108.261 16.66 108.437 17.02C108.613 17.372 108.849 17.656 109.145 17.872C109.449 18.08 109.793 18.184 110.177 18.184ZM119.039 19V10.6H124.019V11.584H120.179V14.152H123.383V15.088H120.179V19H119.039ZM125.64 19V12.76H126.684V14.116C126.788 13.852 126.928 13.608 127.104 13.384C127.28 13.152 127.5 12.968 127.764 12.832C128.028 12.688 128.336 12.616 128.688 12.616C128.808 12.616 128.928 12.624 129.048 12.64C129.168 12.648 129.268 12.664 129.348 12.688L129.024 13.804C128.872 13.74 128.692 13.708 128.484 13.708C128.188 13.708 127.904 13.792 127.632 13.96C127.368 14.128 127.148 14.388 126.972 14.74C126.804 15.092 126.72 15.54 126.72 16.084V19H125.64ZM132.758 19.144C132.238 19.144 131.766 19.012 131.342 18.748C130.918 18.484 130.578 18.112 130.322 17.632C130.074 17.144 129.95 16.572 129.95 15.916C129.95 15.292 130.074 14.732 130.322 14.236C130.578 13.74 130.926 13.348 131.366 13.06C131.814 12.764 132.326 12.616 132.902 12.616C133.262 12.616 133.586 12.68 133.874 12.808C134.17 12.928 134.426 13.08 134.642 13.264V12.76H135.626V17.488C135.626 17.792 135.698 17.992 135.842 18.088C135.994 18.176 136.158 18.22 136.334 18.22L136.106 19.06C135.338 19.06 134.874 18.748 134.714 18.124C134.53 18.38 134.278 18.616 133.958 18.832C133.646 19.04 133.246 19.144 132.758 19.144ZM132.998 18.184C133.302 18.184 133.59 18.112 133.862 17.968C134.134 17.816 134.362 17.628 134.546 17.404V14.056C134.33 13.904 134.09 13.784 133.826 13.696C133.57 13.6 133.298 13.552 133.01 13.552C132.626 13.552 132.286 13.652 131.99 13.852C131.702 14.044 131.474 14.316 131.306 14.668C131.138 15.012 131.054 15.416 131.054 15.88C131.054 16.328 131.138 16.728 131.306 17.08C131.474 17.424 131.706 17.696 132.002 17.896C132.298 18.088 132.63 18.184 132.998 18.184ZM138.076 19V12.76H139.12V13.804C139.344 13.468 139.628 13.188 139.972 12.964C140.324 12.732 140.74 12.616 141.22 12.616C141.924 12.616 142.448 12.828 142.792 13.252C143.144 13.676 143.32 14.236 143.32 14.932V19H142.24V15.052C142.24 14.604 142.132 14.244 141.916 13.972C141.708 13.7 141.416 13.564 141.04 13.564C140.672 13.564 140.324 13.696 139.996 13.96C139.668 14.216 139.388 14.52 139.156 14.872V19H138.076ZM147.998 19.144C147.406 19.144 146.886 19.008 146.438 18.736C145.998 18.456 145.658 18.072 145.418 17.584C145.178 17.088 145.058 16.52 145.058 15.88C145.058 15.28 145.178 14.732 145.418 14.236C145.666 13.74 146.018 13.348 146.474 13.06C146.93 12.764 147.466 12.616 148.082 12.616C148.434 12.616 148.742 12.648 149.006 12.712C149.278 12.776 149.538 12.868 149.786 12.988L149.462 13.9C149.238 13.788 149.022 13.708 148.814 13.66C148.614 13.604 148.39 13.576 148.142 13.576C147.582 13.576 147.11 13.78 146.726 14.188C146.35 14.588 146.162 15.144 146.162 15.856C146.162 16.288 146.242 16.68 146.402 17.032C146.562 17.384 146.782 17.664 147.062 17.872C147.35 18.08 147.686 18.184 148.07 18.184C148.374 18.184 148.634 18.152 148.85 18.088C149.066 18.016 149.298 17.916 149.546 17.788L149.882 18.7C149.634 18.836 149.354 18.944 149.042 19.024C148.738 19.104 148.39 19.144 147.998 19.144ZM151.438 19V12.76H152.518V19H151.438ZM151.978 11.692C151.77 11.692 151.59 11.616 151.438 11.464C151.294 11.312 151.222 11.136 151.222 10.936C151.222 10.704 151.29 10.52 151.426 10.384C151.562 10.248 151.746 10.18 151.978 10.18C152.186 10.18 152.362 10.256 152.506 10.408C152.658 10.552 152.734 10.728 152.734 10.936C152.734 11.16 152.666 11.344 152.53 11.488C152.394 11.624 152.21 11.692 151.978 11.692ZM156.418 19.144C155.946 19.144 155.518 19.084 155.134 18.964C154.758 18.844 154.446 18.688 154.198 18.496L154.654 17.596C154.862 17.772 155.122 17.92 155.434 18.04C155.754 18.152 156.094 18.208 156.454 18.208C156.902 18.208 157.238 18.136 157.462 17.992C157.694 17.84 157.81 17.648 157.81 17.416C157.81 17.248 157.766 17.1 157.678 16.972C157.598 16.844 157.446 16.72 157.222 16.6C156.998 16.472 156.674 16.336 156.25 16.192C155.666 15.992 155.226 15.756 154.93 15.484C154.642 15.204 154.498 14.82 154.498 14.332C154.498 13.852 154.706 13.448 155.122 13.12C155.546 12.784 156.13 12.616 156.874 12.616C157.274 12.616 157.63 12.66 157.942 12.748C158.254 12.828 158.534 12.932 158.782 13.06L158.482 13.948C158.266 13.82 158.018 13.716 157.738 13.636C157.466 13.556 157.162 13.516 156.826 13.516C156.41 13.516 156.094 13.6 155.878 13.768C155.662 13.936 155.554 14.12 155.554 14.32C155.554 14.512 155.638 14.676 155.806 14.812C155.974 14.948 156.302 15.096 156.79 15.256C157.582 15.52 158.134 15.812 158.446 16.132C158.758 16.452 158.914 16.852 158.914 17.332C158.914 17.892 158.686 18.336 158.23 18.664C157.782 18.984 157.178 19.144 156.418 19.144ZM163.171 19.144C162.579 19.144 162.059 19.008 161.611 18.736C161.171 18.456 160.831 18.072 160.591 17.584C160.351 17.088 160.231 16.52 160.231 15.88C160.231 15.28 160.351 14.732 160.591 14.236C160.839 13.74 161.191 13.348 161.647 13.06C162.103 12.764 162.639 12.616 163.255 12.616C163.607 12.616 163.915 12.648 164.179 12.712C164.451 12.776 164.711 12.868 164.959 12.988L164.635 13.9C164.411 13.788 164.195 13.708 163.987 13.66C163.787 13.604 163.563 13.576 163.315 13.576C162.755 13.576 162.283 13.78 161.899 14.188C161.523 14.588 161.335 15.144 161.335 15.856C161.335 16.288 161.415 16.68 161.575 17.032C161.735 17.384 161.955 17.664 162.235 17.872C162.523 18.08 162.859 18.184 163.243 18.184C163.547 18.184 163.807 18.152 164.023 18.088C164.239 18.016 164.471 17.916 164.719 17.788L165.055 18.7C164.807 18.836 164.527 18.944 164.215 19.024C163.911 19.104 163.563 19.144 163.171 19.144ZM169.122 19.144C168.53 19.144 167.998 19.008 167.526 18.736C167.054 18.456 166.682 18.072 166.41 17.584C166.146 17.088 166.014 16.52 166.014 15.88C166.014 15.208 166.15 14.628 166.422 14.14C166.694 13.652 167.066 13.276 167.538 13.012C168.01 12.748 168.538 12.616 169.122 12.616C169.706 12.616 170.23 12.748 170.694 13.012C171.166 13.276 171.538 13.652 171.81 14.14C172.09 14.62 172.23 15.192 172.23 15.856C172.23 16.52 172.094 17.1 171.822 17.596C171.55 18.084 171.178 18.464 170.706 18.736C170.242 19.008 169.714 19.144 169.122 19.144ZM169.122 18.184C169.754 18.184 170.246 17.972 170.598 17.548C170.95 17.116 171.126 16.56 171.126 15.88C171.126 15.464 171.038 15.084 170.862 14.74C170.686 14.388 170.446 14.108 170.142 13.9C169.846 13.684 169.506 13.576 169.122 13.576C168.49 13.576 167.998 13.784 167.646 14.2C167.294 14.616 167.118 15.168 167.118 15.856C167.118 16.272 167.206 16.66 167.382 17.02C167.558 17.372 167.794 17.656 168.09 17.872C168.394 18.08 168.738 18.184 169.122 18.184Z" fill="#015486"/>
<path d="M43.44 34L41.78 31.15H40.68V34H39.77V27.03H42.02C42.5467 27.03 42.99 27.12 43.35 27.3C43.7167 27.48 43.99 27.7233 44.17 28.03C44.35 28.3367 44.44 28.6867 44.44 29.08C44.44 29.56 44.3 29.9833 44.02 30.35C43.7467 30.7167 43.3333 30.96 42.78 31.08L44.53 34H43.44ZM40.68 30.42H42.02C42.5133 30.42 42.8833 30.3 43.13 30.06C43.3767 29.8133 43.5 29.4867 43.5 29.08C43.5 28.6667 43.3767 28.3467 43.13 28.12C42.89 27.8933 42.52 27.78 42.02 27.78H40.68V30.42ZM51.014 28.52V34H50.104V33.19C49.9307 33.47 49.6873 33.69 49.374 33.85C49.0673 34.0033 48.7273 34.08 48.354 34.08C47.9273 34.08 47.544 33.9933 47.204 33.82C46.864 33.64 46.594 33.3733 46.394 33.02C46.2007 32.6667 46.104 32.2367 46.104 31.73V28.52H47.004V31.61C47.004 32.15 47.1407 32.5667 47.414 32.86C47.6873 33.1467 48.0607 33.29 48.534 33.29C49.0207 33.29 49.404 33.14 49.684 32.84C49.964 32.54 50.104 32.1033 50.104 31.53V28.52H51.014ZM52.5105 31.24C52.5105 30.68 52.6238 30.19 52.8505 29.77C53.0771 29.3433 53.3871 29.0133 53.7805 28.78C54.1805 28.5467 54.6238 28.43 55.1105 28.43C55.5905 28.43 56.0071 28.5333 56.3605 28.74C56.7138 28.9467 56.9771 29.2067 57.1505 29.52V28.52H58.0705V34H57.1505V32.98C56.9705 33.3 56.7005 33.5667 56.3405 33.78C55.9871 33.9867 55.5738 34.09 55.1005 34.09C54.6138 34.09 54.1738 33.97 53.7805 33.73C53.3871 33.49 53.0771 33.1533 52.8505 32.72C52.6238 32.2867 52.5105 31.7933 52.5105 31.24ZM57.1505 31.25C57.1505 30.8367 57.0671 30.4767 56.9005 30.17C56.7338 29.8633 56.5071 29.63 56.2205 29.47C55.9405 29.3033 55.6305 29.22 55.2905 29.22C54.9505 29.22 54.6405 29.3 54.3605 29.46C54.0805 29.62 53.8571 29.8533 53.6905 30.16C53.5238 30.4667 53.4405 30.8267 53.4405 31.24C53.4405 31.66 53.5238 32.0267 53.6905 32.34C53.8571 32.6467 54.0805 32.8833 54.3605 33.05C54.6405 33.21 54.9505 33.29 55.2905 33.29C55.6305 33.29 55.9405 33.21 56.2205 33.05C56.5071 32.8833 56.7338 32.6467 56.9005 32.34C57.0671 32.0267 57.1505 31.6633 57.1505 31.25ZM62.5343 30.51C62.5343 29.83 62.6876 29.22 62.9943 28.68C63.301 28.1333 63.7176 27.7067 64.2443 27.4C64.7776 27.0933 65.3676 26.94 66.0143 26.94C66.7743 26.94 67.4376 27.1233 68.0043 27.49C68.571 27.8567 68.9843 28.3767 69.2443 29.05H68.1543C67.961 28.63 67.681 28.3067 67.3143 28.08C66.9543 27.8533 66.521 27.74 66.0143 27.74C65.5276 27.74 65.091 27.8533 64.7043 28.08C64.3176 28.3067 64.0143 28.63 63.7943 29.05C63.5743 29.4633 63.4643 29.95 63.4643 30.51C63.4643 31.0633 63.5743 31.55 63.7943 31.97C64.0143 32.3833 64.3176 32.7033 64.7043 32.93C65.091 33.1567 65.5276 33.27 66.0143 33.27C66.521 33.27 66.9543 33.16 67.3143 32.94C67.681 32.7133 67.961 32.39 68.1543 31.97H69.2443C68.9843 32.6367 68.571 33.1533 68.0043 33.52C67.4376 33.88 66.7743 34.06 66.0143 34.06C65.3676 34.06 64.7776 33.91 64.2443 33.61C63.7176 33.3033 63.301 32.88 62.9943 32.34C62.6876 31.8 62.5343 31.19 62.5343 30.51ZM70.5589 31.24C70.5589 30.68 70.6722 30.19 70.8989 29.77C71.1256 29.3433 71.4356 29.0133 71.8289 28.78C72.2289 28.5467 72.6722 28.43 73.1589 28.43C73.6389 28.43 74.0556 28.5333 74.4089 28.74C74.7622 28.9467 75.0256 29.2067 75.1989 29.52V28.52H76.1189V34H75.1989V32.98C75.0189 33.3 74.7489 33.5667 74.3889 33.78C74.0356 33.9867 73.6222 34.09 73.1489 34.09C72.6622 34.09 72.2222 33.97 71.8289 33.73C71.4356 33.49 71.1256 33.1533 70.8989 32.72C70.6722 32.2867 70.5589 31.7933 70.5589 31.24ZM75.1989 31.25C75.1989 30.8367 75.1156 30.4767 74.9489 30.17C74.7822 29.8633 74.5556 29.63 74.2689 29.47C73.9889 29.3033 73.6789 29.22 73.3389 29.22C72.9989 29.22 72.6889 29.3 72.4089 29.46C72.1289 29.62 71.9056 29.8533 71.7389 30.16C71.5722 30.4667 71.4889 30.8267 71.4889 31.24C71.4889 31.66 71.5722 32.0267 71.7389 32.34C71.9056 32.6467 72.1289 32.8833 72.4089 33.05C72.6889 33.21 72.9989 33.29 73.3389 33.29C73.6789 33.29 73.9889 33.21 74.2689 33.05C74.5556 32.8833 74.7822 32.6467 74.9489 32.34C75.1156 32.0267 75.1989 31.6633 75.1989 31.25ZM78.8667 29.41C79.0267 29.0967 79.2534 28.8533 79.5467 28.68C79.8467 28.5067 80.2101 28.42 80.6367 28.42V29.36H80.3967C79.3767 29.36 78.8667 29.9133 78.8667 31.02V34H77.9567V28.52H78.8667V29.41ZM81.6472 31.24C81.6472 30.68 81.7605 30.19 81.9872 29.77C82.2139 29.3433 82.5239 29.0133 82.9172 28.78C83.3172 28.5467 83.7605 28.43 84.2472 28.43C84.7272 28.43 85.1439 28.5333 85.4972 28.74C85.8505 28.9467 86.1139 29.2067 86.2872 29.52V28.52H87.2072V34H86.2872V32.98C86.1072 33.3 85.8372 33.5667 85.4772 33.78C85.1239 33.9867 84.7105 34.09 84.2372 34.09C83.7505 34.09 83.3105 33.97 82.9172 33.73C82.5239 33.49 82.2139 33.1533 81.9872 32.72C81.7605 32.2867 81.6472 31.7933 81.6472 31.24ZM86.2872 31.25C86.2872 30.8367 86.2039 30.4767 86.0372 30.17C85.8705 29.8633 85.6439 29.63 85.3572 29.47C85.0772 29.3033 84.7672 29.22 84.4272 29.22C84.0872 29.22 83.7772 29.3 83.4972 29.46C83.2172 29.62 82.9939 29.8533 82.8272 30.16C82.6605 30.4667 82.5772 30.8267 82.5772 31.24C82.5772 31.66 82.6605 32.0267 82.8272 32.34C82.9939 32.6467 83.2172 32.8833 83.4972 33.05C83.7772 33.21 84.0872 33.29 84.4272 33.29C84.7672 33.29 85.0772 33.21 85.3572 33.05C85.6439 32.8833 85.8705 32.6467 86.0372 32.34C86.2039 32.0267 86.2872 31.6633 86.2872 31.25ZM89.955 28.52V34H89.045V28.52H89.955ZM90.475 26.97L88.345 28.11V27.43L90.475 26.18V26.97ZM92.7159 29.54C92.9026 29.2133 93.1759 28.9467 93.5359 28.74C93.8959 28.5333 94.3059 28.43 94.7659 28.43C95.2593 28.43 95.7026 28.5467 96.0959 28.78C96.4893 29.0133 96.7993 29.3433 97.0259 29.77C97.2526 30.19 97.3659 30.68 97.3659 31.24C97.3659 31.7933 97.2526 32.2867 97.0259 32.72C96.7993 33.1533 96.4859 33.49 96.0859 33.73C95.6926 33.97 95.2526 34.09 94.7659 34.09C94.2926 34.09 93.8759 33.9867 93.5159 33.78C93.1626 33.5733 92.8959 33.31 92.7159 32.99V34H91.8059V26.6H92.7159V29.54ZM96.4359 31.24C96.4359 30.8267 96.3526 30.4667 96.1859 30.16C96.0193 29.8533 95.7926 29.62 95.5059 29.46C95.2259 29.3 94.9159 29.22 94.5759 29.22C94.2426 29.22 93.9326 29.3033 93.6459 29.47C93.3659 29.63 93.1393 29.8667 92.9659 30.18C92.7993 30.4867 92.7159 30.8433 92.7159 31.25C92.7159 31.6633 92.7993 32.0267 92.9659 32.34C93.1393 32.6467 93.3659 32.8833 93.6459 33.05C93.9326 33.21 94.2426 33.29 94.5759 33.29C94.9159 33.29 95.2259 33.21 95.5059 33.05C95.7926 32.8833 96.0193 32.6467 96.1859 32.34C96.3526 32.0267 96.4359 31.66 96.4359 31.24ZM98.5238 31.24C98.5238 30.68 98.6371 30.19 98.8638 29.77C99.0904 29.3433 99.4004 29.0133 99.7938 28.78C100.194 28.5467 100.637 28.43 101.124 28.43C101.604 28.43 102.02 28.5333 102.374 28.74C102.727 28.9467 102.99 29.2067 103.164 29.52V28.52H104.084V34H103.164V32.98C102.984 33.3 102.714 33.5667 102.354 33.78C102 33.9867 101.587 34.09 101.114 34.09C100.627 34.09 100.187 33.97 99.7938 33.73C99.4004 33.49 99.0904 33.1533 98.8638 32.72C98.6371 32.2867 98.5238 31.7933 98.5238 31.24ZM103.164 31.25C103.164 30.8367 103.08 30.4767 102.914 30.17C102.747 29.8633 102.52 29.63 102.234 29.47C101.954 29.3033 101.644 29.22 101.304 29.22C100.964 29.22 100.654 29.3 100.374 29.46C100.094 29.62 99.8704 29.8533 99.7038 30.16C99.5371 30.4667 99.4538 30.8267 99.4538 31.24C99.4538 31.66 99.5371 32.0267 99.7038 32.34C99.8704 32.6467 100.094 32.8833 100.374 33.05C100.654 33.21 100.964 33.29 101.304 33.29C101.644 33.29 101.954 33.21 102.234 33.05C102.52 32.8833 102.747 32.6467 102.914 32.34C103.08 32.0267 103.164 31.6633 103.164 31.25ZM107.862 34.09C107.442 34.09 107.065 34.02 106.732 33.88C106.398 33.7333 106.135 33.5333 105.942 33.28C105.748 33.02 105.642 32.7233 105.622 32.39H106.562C106.588 32.6633 106.715 32.8867 106.942 33.06C107.175 33.2333 107.478 33.32 107.852 33.32C108.198 33.32 108.472 33.2433 108.672 33.09C108.872 32.9367 108.972 32.7433 108.972 32.51C108.972 32.27 108.865 32.0933 108.652 31.98C108.438 31.86 108.108 31.7433 107.662 31.63C107.255 31.5233 106.922 31.4167 106.662 31.31C106.408 31.1967 106.188 31.0333 106.002 30.82C105.822 30.6 105.732 30.3133 105.732 29.96C105.732 29.68 105.815 29.4233 105.982 29.19C106.148 28.9567 106.385 28.7733 106.692 28.64C106.998 28.5 107.348 28.43 107.742 28.43C108.348 28.43 108.838 28.5833 109.212 28.89C109.585 29.1967 109.785 29.6167 109.812 30.15H108.902C108.882 29.8633 108.765 29.6333 108.552 29.46C108.345 29.2867 108.065 29.2 107.712 29.2C107.385 29.2 107.125 29.27 106.932 29.41C106.738 29.55 106.642 29.7333 106.642 29.96C106.642 30.14 106.698 30.29 106.812 30.41C106.932 30.5233 107.078 30.6167 107.252 30.69C107.432 30.7567 107.678 30.8333 107.992 30.92C108.385 31.0267 108.705 31.1333 108.952 31.24C109.198 31.34 109.408 31.4933 109.582 31.7C109.762 31.9067 109.855 32.1767 109.862 32.51C109.862 32.81 109.778 33.08 109.612 33.32C109.445 33.56 109.208 33.75 108.902 33.89C108.602 34.0233 108.255 34.09 107.862 34.09Z" fill="#98A4AE"/>
<path d="M73.9434 45.5L108.058 45.5L91.001 68.3301L73.9434 45.5Z" fill="white" stroke="#015486" stroke-width="2"/>
<path d="M91 65L71.0814 41L110.919 41L91 65Z" fill="white"/>
<path d="M31.155 11.978C30.2796 11.4725 29.3132 11.1443 28.311 11.0123C27.3088 10.8803 26.2904 10.947 25.314 11.2086C24.3376 11.4702 23.4223 11.9215 22.6203 12.5369C21.8183 13.1523 21.1454 13.9196 20.64 14.795L20.35 15.297C20.2507 15.4693 20.2239 15.6739 20.2755 15.8659C20.3271 16.0579 20.4528 16.2216 20.625 16.321L26.086 19.474L22.818 25.194L22.75 25.193C19.592 25.193 16.857 27.025 15.228 29.615C15.5062 29.5166 15.8027 29.481 16.0963 29.5108C16.3898 29.5405 16.6732 29.6348 16.926 29.787C18.338 27.921 20.444 26.693 22.75 26.693C25.154 26.693 27.341 28.028 28.75 30.029C28.9448 29.8497 29.1733 29.7109 29.4222 29.6206C29.6711 29.5303 29.9355 29.4903 30.2 29.503C28.869 27.445 26.833 25.883 24.444 25.372L27.385 20.224L32.658 23.269C32.7433 23.3183 32.8376 23.3503 32.9353 23.3631C33.033 23.376 33.1323 23.3695 33.2275 23.3439C33.3227 23.3184 33.4119 23.2743 33.4901 23.2143C33.5682 23.1543 33.6338 23.0794 33.683 22.994L33.973 22.493C34.4785 21.6176 34.8065 20.6511 34.9385 19.6489C35.0704 18.6466 35.0036 17.6282 34.742 16.6518C34.4803 15.6754 34.0288 14.7601 33.4134 13.9581C32.7979 13.1562 32.0305 12.4833 31.155 11.978ZM28.965 19.404L25.807 17.58C26.379 16.699 26.923 16.028 27.575 15.435C28.21 14.857 28.968 14.335 29.996 13.767C30.148 14.722 30.194 15.517 30.096 16.297C29.98 17.229 29.651 18.19 28.963 19.403M30.261 20.153C31.021 18.815 31.437 17.663 31.584 16.483C31.681 15.709 31.659 14.945 31.562 14.138C32.5536 15.0759 33.208 16.3148 33.4237 17.6625C33.6394 19.0102 33.4043 20.3915 32.755 21.592L30.261 20.153ZM26.565 14.325C25.775 15.044 25.14 15.844 24.505 16.829L22.025 15.397C22.7247 14.2594 23.773 13.3782 25.014 12.8845C26.2549 12.3908 27.6221 12.311 28.912 12.657C27.983 13.192 27.227 13.722 26.565 14.325ZM16.605 31.263C16.5536 31.1087 16.4535 30.9752 16.3197 30.8828C16.1859 30.7903 16.0257 30.7439 15.8632 30.7504C15.7007 30.757 15.5447 30.8162 15.4188 30.9191C15.2928 31.022 15.2038 31.163 15.165 31.321C14.91 32.363 14.427 32.935 13.877 33.267C13.301 33.615 12.567 33.749 11.748 33.749C11.5491 33.749 11.3583 33.828 11.2177 33.9687C11.077 34.1093 10.998 34.3001 10.998 34.499C10.998 34.6979 11.077 34.8887 11.2177 35.0293C11.3583 35.17 11.5491 35.249 11.748 35.249C12.705 35.249 13.748 35.097 14.652 34.551C15.1912 34.2252 15.6459 33.7767 15.979 33.242C17.768 35.524 21.261 35.512 22.998 33.218C24.763 35.548 28.338 35.524 30.101 33.132C30.5796 33.7834 31.2038 34.3141 31.9238 34.6816C32.6437 35.0492 33.4396 35.2435 34.248 35.249C34.4469 35.249 34.6377 35.17 34.7783 35.0293C34.919 34.8887 34.998 34.6979 34.998 34.499C34.998 34.3001 34.919 34.1093 34.7783 33.9687C34.6377 33.828 34.4469 33.749 34.248 33.749C32.773 33.749 31.303 32.789 30.818 31.271C30.77 31.1199 30.6754 30.9879 30.5477 30.894C30.42 30.8001 30.2659 30.749 30.1074 30.7481C29.9489 30.7472 29.7942 30.7965 29.6655 30.8891C29.5368 30.9816 29.4407 31.1125 29.391 31.263C28.428 34.172 24.653 34.135 23.707 31.384C23.6561 31.2364 23.5604 31.1085 23.4333 31.0179C23.3062 30.9273 23.1541 30.8786 22.998 30.8786C22.8419 30.8786 22.6897 30.9273 22.5626 31.0179C22.4355 31.1085 22.3399 31.2364 22.289 31.384C21.343 34.135 17.569 34.171 16.605 31.263Z" fill="#015486"/>
<defs>
<linearGradient id="paint0_linear_295_453" x1="179.069" y1="0.748829" x2="-69.2821" y2="206.234" gradientUnits="userSpaceOnUse">
<stop stop-color="white"/>
</linearGradient>
</defs>
</svg>
