<svg width="181" height="70" viewBox="0 0 181 70" fill="none" xmlns="http://www.w3.org/2000/svg">
<path d="M20 1H161C171.493 1 180 9.50659 180 20V26C180 36.4934 171.493 45 161 45H20C9.50659 45 1 36.4934 1 26V20C1 9.50659 9.50659 1 20 1Z" fill="url(#paint0_linear_294_320)" stroke="#015486" stroke-width="2"/>
<path d="M40.08 19V10.624C40.408 10.584 40.768 10.556 41.16 10.54C41.56 10.516 41.972 10.504 42.396 10.504C43.092 10.504 43.684 10.616 44.172 10.84C44.66 11.056 45.032 11.356 45.288 11.74C45.544 12.124 45.672 12.564 45.672 13.06C45.672 13.66 45.524 14.168 45.228 14.584C44.932 15 44.52 15.32 43.992 15.544C43.464 15.76 42.852 15.868 42.156 15.868C41.82 15.868 41.508 15.856 41.22 15.832V19H40.08ZM42.3 14.92C43.012 14.92 43.564 14.76 43.956 14.44C44.348 14.12 44.544 13.692 44.544 13.156C44.544 12.636 44.356 12.224 43.98 11.92C43.604 11.616 43.068 11.464 42.372 11.464C42.156 11.464 41.952 11.468 41.76 11.476C41.568 11.484 41.388 11.496 41.22 11.512V14.86C41.348 14.876 41.504 14.892 41.688 14.908C41.872 14.916 42.076 14.92 42.3 14.92ZM47.2327 19V12.76H48.2767V14.116C48.3807 13.852 48.5207 13.608 48.6967 13.384C48.8727 13.152 49.0927 12.968 49.3567 12.832C49.6207 12.688 49.9287 12.616 50.2807 12.616C50.4007 12.616 50.5207 12.624 50.6407 12.64C50.7607 12.648 50.8607 12.664 50.9407 12.688L50.6167 13.804C50.4647 13.74 50.2847 13.708 50.0767 13.708C49.7807 13.708 49.4967 13.792 49.2247 13.96C48.9607 14.128 48.7407 14.388 48.5647 14.74C48.3967 15.092 48.3127 15.54 48.3127 16.084V19H47.2327ZM54.3503 19.144C53.8303 19.144 53.3583 19.012 52.9343 18.748C52.5103 18.484 52.1703 18.112 51.9143 17.632C51.6663 17.144 51.5423 16.572 51.5423 15.916C51.5423 15.292 51.6663 14.732 51.9143 14.236C52.1703 13.74 52.5183 13.348 52.9583 13.06C53.4063 12.764 53.9183 12.616 54.4943 12.616C54.8543 12.616 55.1783 12.68 55.4663 12.808C55.7623 12.928 56.0183 13.08 56.2343 13.264V12.76H57.2183V17.488C57.2183 17.792 57.2903 17.992 57.4343 18.088C57.5863 18.176 57.7503 18.22 57.9263 18.22L57.6983 19.06C56.9303 19.06 56.4663 18.748 56.3063 18.124C56.1223 18.38 55.8703 18.616 55.5503 18.832C55.2383 19.04 54.8383 19.144 54.3503 19.144ZM54.5903 18.184C54.8943 18.184 55.1823 18.112 55.4543 17.968C55.7263 17.816 55.9543 17.628 56.1383 17.404V14.056C55.9223 13.904 55.6823 13.784 55.4183 13.696C55.1623 13.6 54.8903 13.552 54.6023 13.552C54.2183 13.552 53.8783 13.652 53.5823 13.852C53.2943 14.044 53.0663 14.316 52.8983 14.668C52.7303 15.012 52.6463 15.416 52.6463 15.88C52.6463 16.328 52.7303 16.728 52.8983 17.08C53.0663 17.424 53.2983 17.696 53.5943 17.896C53.8903 18.088 54.2223 18.184 54.5903 18.184ZM59.6686 19V12.76H60.7486V19H59.6686ZM60.2086 11.692C60.0006 11.692 59.8206 11.616 59.6686 11.464C59.5246 11.312 59.4526 11.136 59.4526 10.936C59.4526 10.704 59.5206 10.52 59.6566 10.384C59.7926 10.248 59.9766 10.18 60.2086 10.18C60.4166 10.18 60.5926 10.256 60.7366 10.408C60.8886 10.552 60.9646 10.728 60.9646 10.936C60.9646 11.16 60.8966 11.344 60.7606 11.488C60.6246 11.624 60.4406 11.692 60.2086 11.692ZM65.3566 19.144C64.8366 19.144 64.3646 19.012 63.9406 18.748C63.5166 18.484 63.1766 18.112 62.9206 17.632C62.6726 17.144 62.5486 16.572 62.5486 15.916C62.5486 15.292 62.6726 14.732 62.9206 14.236C63.1766 13.74 63.5246 13.348 63.9646 13.06C64.4126 12.764 64.9246 12.616 65.5006 12.616C65.8606 12.616 66.1846 12.68 66.4726 12.808C66.7686 12.928 67.0246 13.08 67.2406 13.264V12.76H68.2246V17.488C68.2246 17.792 68.2966 17.992 68.4406 18.088C68.5926 18.176 68.7566 18.22 68.9326 18.22L68.7046 19.06C67.9366 19.06 67.4726 18.748 67.3126 18.124C67.1286 18.38 66.8766 18.616 66.5566 18.832C66.2446 19.04 65.8446 19.144 65.3566 19.144ZM65.5966 18.184C65.9006 18.184 66.1886 18.112 66.4606 17.968C66.7326 17.816 66.9606 17.628 67.1446 17.404V14.056C66.9286 13.904 66.6886 13.784 66.4246 13.696C66.1686 13.6 65.8966 13.552 65.6086 13.552C65.2246 13.552 64.8846 13.652 64.5886 13.852C64.3006 14.044 64.0726 14.316 63.9046 14.668C63.7366 15.012 63.6526 15.416 63.6526 15.88C63.6526 16.328 63.7366 16.728 63.9046 17.08C64.0726 17.424 64.3046 17.696 64.6006 17.896C64.8966 18.088 65.2286 18.184 65.5966 18.184ZM76.9365 19.144C76.4245 19.144 75.9565 19.012 75.5325 18.748C75.1085 18.484 74.7725 18.112 74.5245 17.632C74.2765 17.144 74.1525 16.572 74.1525 15.916C74.1525 15.284 74.2765 14.72 74.5245 14.224C74.7805 13.728 75.1165 13.336 75.5325 13.048C75.9565 12.76 76.4205 12.616 76.9245 12.616C77.3405 12.616 77.6965 12.7 77.9925 12.868C78.2965 13.036 78.5325 13.208 78.7005 13.384V10.12H79.7805V17.488C79.7805 17.792 79.8525 17.992 79.9965 18.088C80.1485 18.176 80.3125 18.22 80.4885 18.22L80.2605 19.06C79.5005 19.06 79.0365 18.756 78.8685 18.148C78.6925 18.396 78.4445 18.624 78.1245 18.832C77.8125 19.04 77.4165 19.144 76.9365 19.144ZM77.1765 18.184C77.4725 18.184 77.7525 18.116 78.0165 17.98C78.2885 17.836 78.5165 17.652 78.7005 17.428V14.332C78.5485 14.14 78.3365 13.964 78.0645 13.804C77.7925 13.636 77.4925 13.552 77.1645 13.552C76.7805 13.552 76.4445 13.656 76.1565 13.864C75.8685 14.072 75.6445 14.352 75.4845 14.704C75.3325 15.048 75.2565 15.44 75.2565 15.88C75.2565 16.32 75.3405 16.716 75.5085 17.068C75.6765 17.412 75.9045 17.684 76.1925 17.884C76.4885 18.084 76.8165 18.184 77.1765 18.184ZM84.6107 19.144C83.7147 19.144 83.0027 18.86 82.4747 18.292C81.9547 17.716 81.6947 16.912 81.6947 15.88C81.6947 15.256 81.8107 14.7 82.0427 14.212C82.2827 13.716 82.6147 13.328 83.0387 13.048C83.4627 12.76 83.9547 12.616 84.5147 12.616C85.1147 12.616 85.6107 12.748 86.0027 13.012C86.4027 13.268 86.7027 13.616 86.9027 14.056C87.1027 14.496 87.2027 14.98 87.2027 15.508C87.2027 15.788 87.1907 16.06 87.1667 16.324H82.7987C82.8707 16.908 83.0747 17.364 83.4107 17.692C83.7467 18.02 84.1907 18.184 84.7427 18.184C85.1027 18.184 85.4267 18.148 85.7147 18.076C86.0027 17.996 86.2787 17.896 86.5427 17.776L86.7947 18.7C86.5067 18.828 86.1827 18.932 85.8227 19.012C85.4627 19.1 85.0587 19.144 84.6107 19.144ZM82.7867 15.448H86.2067C86.2067 14.84 86.0547 14.372 85.7507 14.044C85.4467 13.716 85.0267 13.552 84.4907 13.552C84.0267 13.552 83.6427 13.716 83.3387 14.044C83.0347 14.364 82.8507 14.832 82.7867 15.448ZM95.0477 19.144C94.4637 19.144 93.9317 19.068 93.4517 18.916C92.9717 18.756 92.5677 18.548 92.2397 18.292L92.8157 17.332C93.1037 17.572 93.4277 17.768 93.7877 17.92C94.1477 18.072 94.5677 18.148 95.0477 18.148C95.6237 18.148 96.0797 18.028 96.4157 17.788C96.7517 17.548 96.9197 17.224 96.9197 16.816C96.9197 16.584 96.8717 16.38 96.7757 16.204C96.6797 16.02 96.4917 15.844 96.2117 15.676C95.9397 15.5 95.5357 15.312 94.9997 15.112C94.4237 14.888 93.9637 14.664 93.6197 14.44C93.2757 14.208 93.0277 13.948 92.8757 13.66C92.7317 13.364 92.6597 13.016 92.6597 12.616C92.6597 12.216 92.7677 11.856 92.9837 11.536C93.2077 11.208 93.5317 10.948 93.9557 10.756C94.3877 10.556 94.9077 10.456 95.5157 10.456C96.0117 10.456 96.4557 10.508 96.8477 10.612C97.2477 10.708 97.6357 10.848 98.0117 11.032L97.5917 12.004C97.3197 11.844 96.9997 11.712 96.6317 11.608C96.2717 11.496 95.8917 11.44 95.4917 11.44C94.9637 11.44 94.5477 11.544 94.2437 11.752C93.9397 11.96 93.7877 12.228 93.7877 12.556C93.7877 12.764 93.8317 12.948 93.9197 13.108C94.0077 13.268 94.1797 13.424 94.4357 13.576C94.6997 13.728 95.0917 13.9 95.6117 14.092C96.2357 14.324 96.7277 14.568 97.0877 14.824C97.4557 15.08 97.7157 15.36 97.8677 15.664C98.0197 15.96 98.0957 16.3 98.0957 16.684C98.0957 17.204 97.9637 17.648 97.6997 18.016C97.4437 18.384 97.0837 18.664 96.6197 18.856C96.1637 19.048 95.6397 19.144 95.0477 19.144ZM102.348 19.144C101.828 19.144 101.356 19.012 100.932 18.748C100.508 18.484 100.168 18.112 99.912 17.632C99.664 17.144 99.54 16.572 99.54 15.916C99.54 15.292 99.664 14.732 99.912 14.236C100.168 13.74 100.516 13.348 100.956 13.06C101.404 12.764 101.916 12.616 102.492 12.616C102.852 12.616 103.176 12.68 103.464 12.808C103.76 12.928 104.016 13.08 104.232 13.264V12.76H105.216V17.488C105.216 17.792 105.288 17.992 105.432 18.088C105.584 18.176 105.748 18.22 105.924 18.22L105.696 19.06C104.928 19.06 104.464 18.748 104.304 18.124C104.12 18.38 103.868 18.616 103.548 18.832C103.236 19.04 102.836 19.144 102.348 19.144ZM102.588 18.184C102.892 18.184 103.18 18.112 103.452 17.968C103.724 17.816 103.952 17.628 104.136 17.404V14.056C103.92 13.904 103.68 13.784 103.416 13.696C103.16 13.6 102.888 13.552 102.6 13.552C102.216 13.552 101.876 13.652 101.58 13.852C101.292 14.044 101.064 14.316 100.896 14.668C100.728 15.012 100.644 15.416 100.644 15.88C100.644 16.328 100.728 16.728 100.896 17.08C101.064 17.424 101.296 17.696 101.592 17.896C101.888 18.088 102.22 18.184 102.588 18.184ZM101.184 11.704L100.764 10.96C100.908 10.8 101.092 10.656 101.316 10.528C101.54 10.4 101.772 10.336 102.012 10.336C102.212 10.336 102.384 10.372 102.528 10.444C102.672 10.508 102.808 10.576 102.936 10.648C103.072 10.712 103.224 10.744 103.392 10.744C103.568 10.744 103.724 10.708 103.86 10.636C103.996 10.556 104.116 10.468 104.22 10.372L104.64 11.128C104.496 11.264 104.328 11.392 104.136 11.512C103.952 11.624 103.736 11.68 103.488 11.68C103.28 11.68 103.104 11.648 102.96 11.584C102.816 11.512 102.676 11.444 102.54 11.38C102.404 11.308 102.244 11.272 102.06 11.272C101.884 11.272 101.724 11.316 101.58 11.404C101.436 11.492 101.304 11.592 101.184 11.704ZM110.177 19.144C109.585 19.144 109.053 19.008 108.581 18.736C108.109 18.456 107.737 18.072 107.465 17.584C107.201 17.088 107.069 16.52 107.069 15.88C107.069 15.208 107.205 14.628 107.477 14.14C107.749 13.652 108.121 13.276 108.593 13.012C109.065 12.748 109.593 12.616 110.177 12.616C110.761 12.616 111.285 12.748 111.749 13.012C112.221 13.276 112.593 13.652 112.865 14.14C113.145 14.62 113.285 15.192 113.285 15.856C113.285 16.52 113.149 17.1 112.877 17.596C112.605 18.084 112.233 18.464 111.761 18.736C111.297 19.008 110.769 19.144 110.177 19.144ZM110.177 18.184C110.809 18.184 111.301 17.972 111.653 17.548C112.005 17.116 112.181 16.56 112.181 15.88C112.181 15.464 112.093 15.084 111.917 14.74C111.741 14.388 111.501 14.108 111.197 13.9C110.901 13.684 110.561 13.576 110.177 13.576C109.545 13.576 109.053 13.784 108.701 14.2C108.349 14.616 108.173 15.168 108.173 15.856C108.173 16.272 108.261 16.66 108.437 17.02C108.613 17.372 108.849 17.656 109.145 17.872C109.449 18.08 109.793 18.184 110.177 18.184ZM119.039 19V10.6H124.019V11.584H120.179V14.152H123.383V15.088H120.179V19H119.039ZM125.64 19V12.76H126.684V14.116C126.788 13.852 126.928 13.608 127.104 13.384C127.28 13.152 127.5 12.968 127.764 12.832C128.028 12.688 128.336 12.616 128.688 12.616C128.808 12.616 128.928 12.624 129.048 12.64C129.168 12.648 129.268 12.664 129.348 12.688L129.024 13.804C128.872 13.74 128.692 13.708 128.484 13.708C128.188 13.708 127.904 13.792 127.632 13.96C127.368 14.128 127.148 14.388 126.972 14.74C126.804 15.092 126.72 15.54 126.72 16.084V19H125.64ZM132.758 19.144C132.238 19.144 131.766 19.012 131.342 18.748C130.918 18.484 130.578 18.112 130.322 17.632C130.074 17.144 129.95 16.572 129.95 15.916C129.95 15.292 130.074 14.732 130.322 14.236C130.578 13.74 130.926 13.348 131.366 13.06C131.814 12.764 132.326 12.616 132.902 12.616C133.262 12.616 133.586 12.68 133.874 12.808C134.17 12.928 134.426 13.08 134.642 13.264V12.76H135.626V17.488C135.626 17.792 135.698 17.992 135.842 18.088C135.994 18.176 136.158 18.22 136.334 18.22L136.106 19.06C135.338 19.06 134.874 18.748 134.714 18.124C134.53 18.38 134.278 18.616 133.958 18.832C133.646 19.04 133.246 19.144 132.758 19.144ZM132.998 18.184C133.302 18.184 133.59 18.112 133.862 17.968C134.134 17.816 134.362 17.628 134.546 17.404V14.056C134.33 13.904 134.09 13.784 133.826 13.696C133.57 13.6 133.298 13.552 133.01 13.552C132.626 13.552 132.286 13.652 131.99 13.852C131.702 14.044 131.474 14.316 131.306 14.668C131.138 15.012 131.054 15.416 131.054 15.88C131.054 16.328 131.138 16.728 131.306 17.08C131.474 17.424 131.706 17.696 132.002 17.896C132.298 18.088 132.63 18.184 132.998 18.184ZM138.076 19V12.76H139.12V13.804C139.344 13.468 139.628 13.188 139.972 12.964C140.324 12.732 140.74 12.616 141.22 12.616C141.924 12.616 142.448 12.828 142.792 13.252C143.144 13.676 143.32 14.236 143.32 14.932V19H142.24V15.052C142.24 14.604 142.132 14.244 141.916 13.972C141.708 13.7 141.416 13.564 141.04 13.564C140.672 13.564 140.324 13.696 139.996 13.96C139.668 14.216 139.388 14.52 139.156 14.872V19H138.076ZM147.998 19.144C147.406 19.144 146.886 19.008 146.438 18.736C145.998 18.456 145.658 18.072 145.418 17.584C145.178 17.088 145.058 16.52 145.058 15.88C145.058 15.28 145.178 14.732 145.418 14.236C145.666 13.74 146.018 13.348 146.474 13.06C146.93 12.764 147.466 12.616 148.082 12.616C148.434 12.616 148.742 12.648 149.006 12.712C149.278 12.776 149.538 12.868 149.786 12.988L149.462 13.9C149.238 13.788 149.022 13.708 148.814 13.66C148.614 13.604 148.39 13.576 148.142 13.576C147.582 13.576 147.11 13.78 146.726 14.188C146.35 14.588 146.162 15.144 146.162 15.856C146.162 16.288 146.242 16.68 146.402 17.032C146.562 17.384 146.782 17.664 147.062 17.872C147.35 18.08 147.686 18.184 148.07 18.184C148.374 18.184 148.634 18.152 148.85 18.088C149.066 18.016 149.298 17.916 149.546 17.788L149.882 18.7C149.634 18.836 149.354 18.944 149.042 19.024C148.738 19.104 148.39 19.144 147.998 19.144ZM151.438 19V12.76H152.518V19H151.438ZM151.978 11.692C151.77 11.692 151.59 11.616 151.438 11.464C151.294 11.312 151.222 11.136 151.222 10.936C151.222 10.704 151.29 10.52 151.426 10.384C151.562 10.248 151.746 10.18 151.978 10.18C152.186 10.18 152.362 10.256 152.506 10.408C152.658 10.552 152.734 10.728 152.734 10.936C152.734 11.16 152.666 11.344 152.53 11.488C152.394 11.624 152.21 11.692 151.978 11.692ZM156.418 19.144C155.946 19.144 155.518 19.084 155.134 18.964C154.758 18.844 154.446 18.688 154.198 18.496L154.654 17.596C154.862 17.772 155.122 17.92 155.434 18.04C155.754 18.152 156.094 18.208 156.454 18.208C156.902 18.208 157.238 18.136 157.462 17.992C157.694 17.84 157.81 17.648 157.81 17.416C157.81 17.248 157.766 17.1 157.678 16.972C157.598 16.844 157.446 16.72 157.222 16.6C156.998 16.472 156.674 16.336 156.25 16.192C155.666 15.992 155.226 15.756 154.93 15.484C154.642 15.204 154.498 14.82 154.498 14.332C154.498 13.852 154.706 13.448 155.122 13.12C155.546 12.784 156.13 12.616 156.874 12.616C157.274 12.616 157.63 12.66 157.942 12.748C158.254 12.828 158.534 12.932 158.782 13.06L158.482 13.948C158.266 13.82 158.018 13.716 157.738 13.636C157.466 13.556 157.162 13.516 156.826 13.516C156.41 13.516 156.094 13.6 155.878 13.768C155.662 13.936 155.554 14.12 155.554 14.32C155.554 14.512 155.638 14.676 155.806 14.812C155.974 14.948 156.302 15.096 156.79 15.256C157.582 15.52 158.134 15.812 158.446 16.132C158.758 16.452 158.914 16.852 158.914 17.332C158.914 17.892 158.686 18.336 158.23 18.664C157.782 18.984 157.178 19.144 156.418 19.144ZM163.171 19.144C162.579 19.144 162.059 19.008 161.611 18.736C161.171 18.456 160.831 18.072 160.591 17.584C160.351 17.088 160.231 16.52 160.231 15.88C160.231 15.28 160.351 14.732 160.591 14.236C160.839 13.74 161.191 13.348 161.647 13.06C162.103 12.764 162.639 12.616 163.255 12.616C163.607 12.616 163.915 12.648 164.179 12.712C164.451 12.776 164.711 12.868 164.959 12.988L164.635 13.9C164.411 13.788 164.195 13.708 163.987 13.66C163.787 13.604 163.563 13.576 163.315 13.576C162.755 13.576 162.283 13.78 161.899 14.188C161.523 14.588 161.335 15.144 161.335 15.856C161.335 16.288 161.415 16.68 161.575 17.032C161.735 17.384 161.955 17.664 162.235 17.872C162.523 18.08 162.859 18.184 163.243 18.184C163.547 18.184 163.807 18.152 164.023 18.088C164.239 18.016 164.471 17.916 164.719 17.788L165.055 18.7C164.807 18.836 164.527 18.944 164.215 19.024C163.911 19.104 163.563 19.144 163.171 19.144ZM169.122 19.144C168.53 19.144 167.998 19.008 167.526 18.736C167.054 18.456 166.682 18.072 166.41 17.584C166.146 17.088 166.014 16.52 166.014 15.88C166.014 15.208 166.15 14.628 166.422 14.14C166.694 13.652 167.066 13.276 167.538 13.012C168.01 12.748 168.538 12.616 169.122 12.616C169.706 12.616 170.23 12.748 170.694 13.012C171.166 13.276 171.538 13.652 171.81 14.14C172.09 14.62 172.23 15.192 172.23 15.856C172.23 16.52 172.094 17.1 171.822 17.596C171.55 18.084 171.178 18.464 170.706 18.736C170.242 19.008 169.714 19.144 169.122 19.144ZM169.122 18.184C169.754 18.184 170.246 17.972 170.598 17.548C170.95 17.116 171.126 16.56 171.126 15.88C171.126 15.464 171.038 15.084 170.862 14.74C170.686 14.388 170.446 14.108 170.142 13.9C169.846 13.684 169.506 13.576 169.122 13.576C168.49 13.576 167.998 13.784 167.646 14.2C167.294 14.616 167.118 15.168 167.118 15.856C167.118 16.272 167.206 16.66 167.382 17.02C167.558 17.372 167.794 17.656 168.09 17.872C168.394 18.08 168.738 18.184 169.122 18.184Z" fill="#015486"/>
<path d="M40.68 27.03V34H39.77V27.03H40.68ZM44.7909 28.43C45.2643 28.43 45.6776 28.5333 46.0309 28.74C46.3909 28.9467 46.6576 29.2067 46.8309 29.52V28.52H47.7509V34.12C47.7509 34.62 47.6443 35.0633 47.4309 35.45C47.2176 35.8433 46.9109 36.15 46.5109 36.37C46.1176 36.59 45.6576 36.7 45.1309 36.7C44.4109 36.7 43.8109 36.53 43.3309 36.19C42.8509 35.85 42.5676 35.3867 42.4809 34.8H43.3809C43.4809 35.1333 43.6876 35.4 44.0009 35.6C44.3143 35.8067 44.6909 35.91 45.1309 35.91C45.6309 35.91 46.0376 35.7533 46.3509 35.44C46.6709 35.1267 46.8309 34.6867 46.8309 34.12V32.97C46.6509 33.29 46.3843 33.5567 46.0309 33.77C45.6776 33.9833 45.2643 34.09 44.7909 34.09C44.3043 34.09 43.8609 33.97 43.4609 33.73C43.0676 33.49 42.7576 33.1533 42.5309 32.72C42.3043 32.2867 42.1909 31.7933 42.1909 31.24C42.1909 30.68 42.3043 30.19 42.5309 29.77C42.7576 29.3433 43.0676 29.0133 43.4609 28.78C43.8609 28.5467 44.3043 28.43 44.7909 28.43ZM46.8309 31.25C46.8309 30.8367 46.7476 30.4767 46.5809 30.17C46.4143 29.8633 46.1876 29.63 45.9009 29.47C45.6209 29.3033 45.3109 29.22 44.9709 29.22C44.6309 29.22 44.3209 29.3 44.0409 29.46C43.7609 29.62 43.5376 29.8533 43.3709 30.16C43.2043 30.4667 43.1209 30.8267 43.1209 31.24C43.1209 31.66 43.2043 32.0267 43.3709 32.34C43.5376 32.6467 43.7609 32.8833 44.0409 33.05C44.3209 33.21 44.6309 33.29 44.9709 33.29C45.3109 33.29 45.6209 33.21 45.9009 33.05C46.1876 32.8833 46.4143 32.6467 46.5809 32.34C46.7476 32.0267 46.8309 31.6633 46.8309 31.25ZM50.4988 29.41C50.6588 29.0967 50.8854 28.8533 51.1788 28.68C51.4788 28.5067 51.8421 28.42 52.2688 28.42V29.36H52.0288C51.0088 29.36 50.4988 29.9133 50.4988 31.02V34H49.5888V28.52H50.4988V29.41ZM58.6192 31.05C58.6192 31.2233 58.6092 31.4067 58.5892 31.6H54.2092C54.2426 32.14 54.4259 32.5633 54.7592 32.87C55.0992 33.17 55.5092 33.32 55.9892 33.32C56.3826 33.32 56.7092 33.23 56.9692 33.05C57.2359 32.8633 57.4226 32.6167 57.5292 32.31H58.5092C58.3626 32.8367 58.0692 33.2667 57.6292 33.6C57.1892 33.9267 56.6426 34.09 55.9892 34.09C55.4692 34.09 55.0026 33.9733 54.5892 33.74C54.1826 33.5067 53.8626 33.1767 53.6292 32.75C53.3959 32.3167 53.2792 31.8167 53.2792 31.25C53.2792 30.6833 53.3926 30.1867 53.6192 29.76C53.8459 29.3333 54.1626 29.0067 54.5692 28.78C54.9826 28.5467 55.4559 28.43 55.9892 28.43C56.5092 28.43 56.9692 28.5433 57.3692 28.77C57.7692 28.9967 58.0759 29.31 58.2892 29.71C58.5092 30.1033 58.6192 30.55 58.6192 31.05ZM57.6792 30.86C57.6792 30.5133 57.6026 30.2167 57.4492 29.97C57.2959 29.7167 57.0859 29.5267 56.8192 29.4C56.5592 29.2667 56.2692 29.2 55.9492 29.2C55.4892 29.2 55.0959 29.3467 54.7692 29.64C54.4492 29.9333 54.2659 30.34 54.2192 30.86H57.6792ZM60.6104 27.63C60.4371 27.63 60.2904 27.57 60.1704 27.45C60.0571 27.33 60.0004 27.1833 60.0004 27.01C60.0004 26.8367 60.0571 26.69 60.1704 26.57C60.2904 26.45 60.4371 26.39 60.6104 26.39C60.7837 26.39 60.9271 26.45 61.0404 26.57C61.1604 26.69 61.2204 26.8367 61.2204 27.01C61.2204 27.1833 61.1604 27.33 61.0404 27.45C60.9271 27.57 60.7837 27.63 60.6104 27.63ZM61.0604 35.19C61.0604 35.6767 60.9371 36.0333 60.6904 36.26C60.4437 36.4867 60.0837 36.6 59.6104 36.6H59.0804V35.83H59.4604C59.7137 35.83 59.8904 35.78 59.9904 35.68C60.0971 35.58 60.1504 35.41 60.1504 35.17V28.52H61.0604V35.19ZM62.5609 31.24C62.5609 30.68 62.6742 30.19 62.9009 29.77C63.1275 29.3433 63.4375 29.0133 63.8309 28.78C64.2309 28.5467 64.6742 28.43 65.1609 28.43C65.6409 28.43 66.0575 28.5333 66.4109 28.74C66.7642 28.9467 67.0275 29.2067 67.2009 29.52V28.52H68.1209V34H67.2009V32.98C67.0209 33.3 66.7509 33.5667 66.3909 33.78C66.0375 33.9867 65.6242 34.09 65.1509 34.09C64.6642 34.09 64.2242 33.97 63.8309 33.73C63.4375 33.49 63.1275 33.1533 62.9009 32.72C62.6742 32.2867 62.5609 31.7933 62.5609 31.24ZM67.2009 31.25C67.2009 30.8367 67.1175 30.4767 66.9509 30.17C66.7842 29.8633 66.5575 29.63 66.2709 29.47C65.9909 29.3033 65.6809 29.22 65.3409 29.22C65.0009 29.22 64.6909 29.3 64.4109 29.46C64.1309 29.62 63.9075 29.8533 63.7409 30.16C63.5742 30.4667 63.4909 30.8267 63.4909 31.24C63.4909 31.66 63.5742 32.0267 63.7409 32.34C63.9075 32.6467 64.1309 32.8833 64.4109 33.05C64.6909 33.21 65.0009 33.29 65.3409 33.29C65.6809 33.29 65.9909 33.21 66.2709 33.05C66.5575 32.8833 66.7842 32.6467 66.9509 32.34C67.1175 32.0267 67.2009 31.6633 67.2009 31.25ZM75.1347 34.07C74.6747 34.07 74.2614 33.99 73.8947 33.83C73.5347 33.6633 73.2514 33.4367 73.0447 33.15C72.838 32.8567 72.7314 32.52 72.7247 32.14H73.6947C73.728 32.4667 73.8614 32.7433 74.0947 32.97C74.3347 33.19 74.6814 33.3 75.1347 33.3C75.568 33.3 75.908 33.1933 76.1547 32.98C76.408 32.76 76.5347 32.48 76.5347 32.14C76.5347 31.8733 76.4614 31.6567 76.3147 31.49C76.168 31.3233 75.9847 31.1967 75.7647 31.11C75.5447 31.0233 75.248 30.93 74.8747 30.83C74.4147 30.71 74.0447 30.59 73.7647 30.47C73.4914 30.35 73.2547 30.1633 73.0547 29.91C72.8614 29.65 72.7647 29.3033 72.7647 28.87C72.7647 28.49 72.8614 28.1533 73.0547 27.86C73.248 27.5667 73.518 27.34 73.8647 27.18C74.218 27.02 74.6214 26.94 75.0747 26.94C75.728 26.94 76.2614 27.1033 76.6747 27.43C77.0947 27.7567 77.3314 28.19 77.3847 28.73H76.3847C76.3514 28.4633 76.2114 28.23 75.9647 28.03C75.718 27.8233 75.3914 27.72 74.9847 27.72C74.6047 27.72 74.2947 27.82 74.0547 28.02C73.8147 28.2133 73.6947 28.4867 73.6947 28.84C73.6947 29.0933 73.7647 29.3 73.9047 29.46C74.0514 29.62 74.228 29.7433 74.4347 29.83C74.648 29.91 74.9447 30.0033 75.3247 30.11C75.7847 30.2367 76.1547 30.3633 76.4347 30.49C76.7147 30.61 76.9547 30.8 77.1547 31.06C77.3547 31.3133 77.4547 31.66 77.4547 32.1C77.4547 32.44 77.3647 32.76 77.1847 33.06C77.0047 33.36 76.738 33.6033 76.3847 33.79C76.0314 33.9767 75.6147 34.07 75.1347 34.07ZM78.7538 31.24C78.7538 30.68 78.8672 30.19 79.0938 29.77C79.3205 29.3433 79.6305 29.0133 80.0238 28.78C80.4238 28.5467 80.8672 28.43 81.3538 28.43C81.8338 28.43 82.2505 28.5333 82.6038 28.74C82.9572 28.9467 83.2205 29.2067 83.3938 29.52V28.52H84.3138V34H83.3938V32.98C83.2138 33.3 82.9438 33.5667 82.5838 33.78C82.2305 33.9867 81.8172 34.09 81.3438 34.09C80.8572 34.09 80.4172 33.97 80.0238 33.73C79.6305 33.49 79.3205 33.1533 79.0938 32.72C78.8672 32.2867 78.7538 31.7933 78.7538 31.24ZM83.3938 31.25C83.3938 30.8367 83.3105 30.4767 83.1438 30.17C82.9772 29.8633 82.7505 29.63 82.4638 29.47C82.1838 29.3033 81.8738 29.22 81.5338 29.22C81.1938 29.22 80.8838 29.3 80.6038 29.46C80.3238 29.62 80.1005 29.8533 79.9338 30.16C79.7672 30.4667 79.6838 30.8267 79.6838 31.24C79.6838 31.66 79.7672 32.0267 79.9338 32.34C80.1005 32.6467 80.3238 32.8833 80.6038 33.05C80.8838 33.21 81.1938 33.29 81.5338 33.29C81.8738 33.29 82.1838 33.21 82.4638 33.05C82.7505 32.8833 82.9772 32.6467 83.1438 32.34C83.3105 32.0267 83.3938 31.6633 83.3938 31.25ZM80.2438 27.93C80.2905 27.59 80.4005 27.33 80.5738 27.15C80.7538 26.97 80.9772 26.88 81.2438 26.88C81.3705 26.88 81.4772 26.9033 81.5638 26.95C81.6572 26.99 81.7672 27.05 81.8938 27.13C81.9872 27.1967 82.0705 27.25 82.1438 27.29C82.2172 27.3233 82.2972 27.34 82.3838 27.34C82.4972 27.34 82.5938 27.3033 82.6738 27.23C82.7538 27.1567 82.8038 27.05 82.8238 26.91H83.3438C83.3038 27.2433 83.1938 27.5 83.0138 27.68C82.8338 27.86 82.6105 27.95 82.3438 27.95C82.2172 27.95 82.1038 27.93 82.0038 27.89C81.9105 27.8433 81.8038 27.7767 81.6838 27.69C81.5772 27.6233 81.4905 27.5733 81.4238 27.54C81.3638 27.5067 81.2905 27.49 81.2038 27.49C81.0905 27.49 80.9938 27.5267 80.9138 27.6C80.8405 27.6733 80.7938 27.7833 80.7738 27.93H80.2438ZM88.5416 34.09C88.0283 34.09 87.5616 33.9733 87.1416 33.74C86.7283 33.5067 86.4016 33.1767 86.1616 32.75C85.9283 32.3167 85.8116 31.8167 85.8116 31.25C85.8116 30.69 85.9316 30.1967 86.1716 29.77C86.4183 29.3367 86.7516 29.0067 87.1716 28.78C87.5916 28.5467 88.0616 28.43 88.5816 28.43C89.1016 28.43 89.5716 28.5467 89.9916 28.78C90.4116 29.0067 90.7416 29.3333 90.9816 29.76C91.2283 30.1867 91.3516 30.6833 91.3516 31.25C91.3516 31.8167 91.225 32.3167 90.9716 32.75C90.725 33.1767 90.3883 33.5067 89.9616 33.74C89.535 33.9733 89.0616 34.09 88.5416 34.09ZM88.5416 33.29C88.8683 33.29 89.175 33.2133 89.4616 33.06C89.7483 32.9067 89.9783 32.6767 90.1516 32.37C90.3316 32.0633 90.4216 31.69 90.4216 31.25C90.4216 30.81 90.335 30.4367 90.1616 30.13C89.9883 29.8233 89.7616 29.5967 89.4816 29.45C89.2016 29.2967 88.8983 29.22 88.5716 29.22C88.2383 29.22 87.9316 29.2967 87.6516 29.45C87.3783 29.5967 87.1583 29.8233 86.9916 30.13C86.825 30.4367 86.7416 30.81 86.7416 31.25C86.7416 31.6967 86.8216 32.0733 86.9816 32.38C87.1483 32.6867 87.3683 32.9167 87.6416 33.07C87.915 33.2167 88.215 33.29 88.5416 33.29ZM99.7541 27.03V27.77H96.7241V30.12H99.1841V30.86H96.7241V34H95.8141V27.03H99.7541ZM102.063 29.41C102.223 29.0967 102.45 28.8533 102.743 28.68C103.043 28.5067 103.407 28.42 103.833 28.42V29.36H103.593C102.573 29.36 102.063 29.9133 102.063 31.02V34H101.153V28.52H102.063V29.41ZM104.844 31.24C104.844 30.68 104.957 30.19 105.184 29.77C105.41 29.3433 105.72 29.0133 106.114 28.78C106.514 28.5467 106.957 28.43 107.444 28.43C107.924 28.43 108.34 28.5333 108.694 28.74C109.047 28.9467 109.31 29.2067 109.484 29.52V28.52H110.404V34H109.484V32.98C109.304 33.3 109.034 33.5667 108.674 33.78C108.32 33.9867 107.907 34.09 107.434 34.09C106.947 34.09 106.507 33.97 106.114 33.73C105.72 33.49 105.41 33.1533 105.184 32.72C104.957 32.2867 104.844 31.7933 104.844 31.24ZM109.484 31.25C109.484 30.8367 109.4 30.4767 109.234 30.17C109.067 29.8633 108.84 29.63 108.554 29.47C108.274 29.3033 107.964 29.22 107.624 29.22C107.284 29.22 106.974 29.3 106.694 29.46C106.414 29.62 106.19 29.8533 106.024 30.16C105.857 30.4667 105.774 30.8267 105.774 31.24C105.774 31.66 105.857 32.0267 106.024 32.34C106.19 32.6467 106.414 32.8833 106.694 33.05C106.974 33.21 107.284 33.29 107.624 33.29C107.964 33.29 108.274 33.21 108.554 33.05C108.84 32.8833 109.067 32.6467 109.234 32.34C109.4 32.0267 109.484 31.6633 109.484 31.25ZM114.911 28.42C115.578 28.42 116.118 28.6233 116.531 29.03C116.945 29.43 117.151 30.01 117.151 30.77V34H116.251V30.9C116.251 30.3533 116.115 29.9367 115.841 29.65C115.568 29.3567 115.195 29.21 114.721 29.21C114.241 29.21 113.858 29.36 113.571 29.66C113.291 29.96 113.151 30.3967 113.151 30.97V34H112.241V28.52H113.151V29.3C113.331 29.02 113.575 28.8033 113.881 28.65C114.195 28.4967 114.538 28.42 114.911 28.42ZM118.598 31.25C118.598 30.6833 118.711 30.19 118.938 29.77C119.165 29.3433 119.478 29.0133 119.878 28.78C120.285 28.5467 120.748 28.43 121.268 28.43C121.941 28.43 122.495 28.5933 122.928 28.92C123.368 29.2467 123.658 29.7 123.798 30.28H122.818C122.725 29.9467 122.541 29.6833 122.268 29.49C122.001 29.2967 121.668 29.2 121.268 29.2C120.748 29.2 120.328 29.38 120.008 29.74C119.688 30.0933 119.528 30.5967 119.528 31.25C119.528 31.91 119.688 32.42 120.008 32.78C120.328 33.14 120.748 33.32 121.268 33.32C121.668 33.32 122.001 33.2267 122.268 33.04C122.535 32.8533 122.718 32.5867 122.818 32.24H123.798C123.651 32.8 123.358 33.25 122.918 33.59C122.478 33.9233 121.928 34.09 121.268 34.09C120.748 34.09 120.285 33.9733 119.878 33.74C119.478 33.5067 119.165 33.1767 118.938 32.75C118.711 32.3233 118.598 31.8233 118.598 31.25ZM125.782 27.63C125.609 27.63 125.462 27.57 125.342 27.45C125.222 27.33 125.162 27.1833 125.162 27.01C125.162 26.8367 125.222 26.69 125.342 26.57C125.462 26.45 125.609 26.39 125.782 26.39C125.949 26.39 126.089 26.45 126.202 26.57C126.322 26.69 126.382 26.8367 126.382 27.01C126.382 27.1833 126.322 27.33 126.202 27.45C126.089 27.57 125.949 27.63 125.782 27.63ZM126.222 28.52V34H125.312V28.52H126.222ZM130.013 34.09C129.593 34.09 129.216 34.02 128.883 33.88C128.55 33.7333 128.286 33.5333 128.093 33.28C127.9 33.02 127.793 32.7233 127.773 32.39H128.713C128.74 32.6633 128.866 32.8867 129.093 33.06C129.326 33.2333 129.63 33.32 130.003 33.32C130.35 33.32 130.623 33.2433 130.823 33.09C131.023 32.9367 131.123 32.7433 131.123 32.51C131.123 32.27 131.016 32.0933 130.803 31.98C130.59 31.86 130.26 31.7433 129.813 31.63C129.406 31.5233 129.073 31.4167 128.813 31.31C128.56 31.1967 128.34 31.0333 128.153 30.82C127.973 30.6 127.883 30.3133 127.883 29.96C127.883 29.68 127.966 29.4233 128.133 29.19C128.3 28.9567 128.536 28.7733 128.843 28.64C129.15 28.5 129.5 28.43 129.893 28.43C130.5 28.43 130.99 28.5833 131.363 28.89C131.736 29.1967 131.936 29.6167 131.963 30.15H131.053C131.033 29.8633 130.916 29.6333 130.703 29.46C130.496 29.2867 130.216 29.2 129.863 29.2C129.536 29.2 129.276 29.27 129.083 29.41C128.89 29.55 128.793 29.7333 128.793 29.96C128.793 30.14 128.85 30.29 128.963 30.41C129.083 30.5233 129.23 30.6167 129.403 30.69C129.583 30.7567 129.83 30.8333 130.143 30.92C130.536 31.0267 130.856 31.1333 131.103 31.24C131.35 31.34 131.56 31.4933 131.733 31.7C131.913 31.9067 132.006 32.1767 132.013 32.51C132.013 32.81 131.93 33.08 131.763 33.32C131.596 33.56 131.36 33.75 131.053 33.89C130.753 34.0233 130.406 34.09 130.013 34.09ZM133.258 31.25C133.258 30.6833 133.371 30.19 133.598 29.77C133.824 29.3433 134.138 29.0133 134.538 28.78C134.944 28.5467 135.408 28.43 135.928 28.43C136.601 28.43 137.154 28.5933 137.588 28.92C138.028 29.2467 138.318 29.7 138.458 30.28H137.478C137.384 29.9467 137.201 29.6833 136.928 29.49C136.661 29.2967 136.328 29.2 135.928 29.2C135.408 29.2 134.988 29.38 134.668 29.74C134.348 30.0933 134.188 30.5967 134.188 31.25C134.188 31.91 134.348 32.42 134.668 32.78C134.988 33.14 135.408 33.32 135.928 33.32C136.328 33.32 136.661 33.2267 136.928 33.04C137.194 32.8533 137.378 32.5867 137.478 32.24H138.458C138.311 32.8 138.018 33.25 137.578 33.59C137.138 33.9233 136.588 34.09 135.928 34.09C135.408 34.09 134.944 33.9733 134.538 33.74C134.138 33.5067 133.824 33.1767 133.598 32.75C133.371 32.3233 133.258 31.8233 133.258 31.25ZM142.362 34.09C141.849 34.09 141.382 33.9733 140.962 33.74C140.549 33.5067 140.222 33.1767 139.982 32.75C139.749 32.3167 139.632 31.8167 139.632 31.25C139.632 30.69 139.752 30.1967 139.992 29.77C140.239 29.3367 140.572 29.0067 140.992 28.78C141.412 28.5467 141.882 28.43 142.402 28.43C142.922 28.43 143.392 28.5467 143.812 28.78C144.232 29.0067 144.562 29.3333 144.802 29.76C145.049 30.1867 145.172 30.6833 145.172 31.25C145.172 31.8167 145.045 32.3167 144.792 32.75C144.545 33.1767 144.209 33.5067 143.782 33.74C143.355 33.9733 142.882 34.09 142.362 34.09ZM142.362 33.29C142.689 33.29 142.995 33.2133 143.282 33.06C143.569 32.9067 143.799 32.6767 143.972 32.37C144.152 32.0633 144.242 31.69 144.242 31.25C144.242 30.81 144.155 30.4367 143.982 30.13C143.809 29.8233 143.582 29.5967 143.302 29.45C143.022 29.2967 142.719 29.22 142.392 29.22C142.059 29.22 141.752 29.2967 141.472 29.45C141.199 29.5967 140.979 29.8233 140.812 30.13C140.645 30.4367 140.562 30.81 140.562 31.25C140.562 31.6967 140.642 32.0733 140.802 32.38C140.969 32.6867 141.189 32.9167 141.462 33.07C141.735 33.2167 142.035 33.29 142.362 33.29Z" fill="#98A4AE"/>
<path d="M73.9434 45.5L108.058 45.5L91.001 68.3301L73.9434 45.5Z" fill="white" stroke="#015486" stroke-width="2"/>
<path d="M91 65L71.0814 41L110.919 41L91 65Z" fill="white"/>
<path d="M31.155 11.978C30.2796 11.4725 29.3132 11.1443 28.311 11.0123C27.3088 10.8803 26.2904 10.947 25.314 11.2086C24.3376 11.4702 23.4223 11.9215 22.6203 12.5369C21.8183 13.1523 21.1454 13.9196 20.64 14.795L20.35 15.297C20.2507 15.4693 20.2239 15.6739 20.2755 15.8659C20.3271 16.0579 20.4528 16.2216 20.625 16.321L26.086 19.474L22.818 25.194L22.75 25.193C19.592 25.193 16.857 27.025 15.228 29.615C15.5062 29.5166 15.8027 29.481 16.0963 29.5108C16.3898 29.5405 16.6732 29.6348 16.926 29.787C18.338 27.921 20.444 26.693 22.75 26.693C25.154 26.693 27.341 28.028 28.75 30.029C28.9448 29.8497 29.1733 29.7109 29.4222 29.6206C29.6711 29.5303 29.9355 29.4903 30.2 29.503C28.869 27.445 26.833 25.883 24.444 25.372L27.385 20.224L32.658 23.269C32.7433 23.3183 32.8376 23.3503 32.9353 23.3631C33.033 23.376 33.1323 23.3695 33.2275 23.3439C33.3227 23.3184 33.4119 23.2743 33.4901 23.2143C33.5682 23.1543 33.6338 23.0794 33.683 22.994L33.973 22.493C34.4785 21.6176 34.8065 20.6511 34.9385 19.6489C35.0704 18.6466 35.0036 17.6282 34.742 16.6518C34.4803 15.6754 34.0288 14.7601 33.4134 13.9581C32.7979 13.1562 32.0305 12.4833 31.155 11.978ZM28.965 19.404L25.807 17.58C26.379 16.699 26.923 16.028 27.575 15.435C28.21 14.857 28.968 14.335 29.996 13.767C30.148 14.722 30.194 15.517 30.096 16.297C29.98 17.229 29.651 18.19 28.963 19.403M30.261 20.153C31.021 18.815 31.437 17.663 31.584 16.483C31.681 15.709 31.659 14.945 31.562 14.138C32.5536 15.0759 33.208 16.3148 33.4237 17.6625C33.6394 19.0102 33.4043 20.3915 32.755 21.592L30.261 20.153ZM26.565 14.325C25.775 15.044 25.14 15.844 24.505 16.829L22.025 15.397C22.7247 14.2594 23.773 13.3782 25.014 12.8845C26.2549 12.3908 27.6221 12.311 28.912 12.657C27.983 13.192 27.227 13.722 26.565 14.325ZM16.605 31.263C16.5536 31.1087 16.4535 30.9752 16.3197 30.8828C16.1859 30.7903 16.0257 30.7439 15.8632 30.7504C15.7007 30.757 15.5447 30.8162 15.4188 30.9191C15.2928 31.022 15.2038 31.163 15.165 31.321C14.91 32.363 14.427 32.935 13.877 33.267C13.301 33.615 12.567 33.749 11.748 33.749C11.5491 33.749 11.3583 33.828 11.2177 33.9687C11.077 34.1093 10.998 34.3001 10.998 34.499C10.998 34.6979 11.077 34.8887 11.2177 35.0293C11.3583 35.17 11.5491 35.249 11.748 35.249C12.705 35.249 13.748 35.097 14.652 34.551C15.1912 34.2252 15.6459 33.7767 15.979 33.242C17.768 35.524 21.261 35.512 22.998 33.218C24.763 35.548 28.338 35.524 30.101 33.132C30.5796 33.7834 31.2038 34.3141 31.9238 34.6816C32.6437 35.0492 33.4396 35.2435 34.248 35.249C34.4469 35.249 34.6377 35.17 34.7783 35.0293C34.919 34.8887 34.998 34.6979 34.998 34.499C34.998 34.3001 34.919 34.1093 34.7783 33.9687C34.6377 33.828 34.4469 33.749 34.248 33.749C32.773 33.749 31.303 32.789 30.818 31.271C30.77 31.1199 30.6754 30.9879 30.5477 30.894C30.42 30.8001 30.2659 30.749 30.1074 30.7481C29.9489 30.7472 29.7942 30.7965 29.6655 30.8891C29.5368 30.9816 29.4407 31.1125 29.391 31.263C28.428 34.172 24.653 34.135 23.707 31.384C23.6561 31.2364 23.5604 31.1085 23.4333 31.0179C23.3062 30.9273 23.1541 30.8786 22.998 30.8786C22.8419 30.8786 22.6897 30.9273 22.5626 31.0179C22.4355 31.1085 22.3399 31.2364 22.289 31.384C21.343 34.135 17.569 34.171 16.605 31.263Z" fill="#015486"/>
<defs>
<linearGradient id="paint0_linear_294_320" x1="179.069" y1="0.748829" x2="-69.2821" y2="206.234" gradientUnits="userSpaceOnUse">
<stop stop-color="white"/>
</linearGradient>
</defs>
</svg>
