<svg width="181" height="70" viewBox="0 0 181 70" fill="none" xmlns="http://www.w3.org/2000/svg">
<path d="M20 1H161C171.493 1 180 9.50659 180 20V26C180 36.4934 171.493 45 161 45H20C9.50659 45 1 36.4934 1 26V20C1 9.50659 9.50659 1 20 1Z" fill="url(#paint0_linear_294_397)" stroke="#015486" stroke-width="2"/>
<path d="M40.26 21V11.228C40.6427 11.1813 41.0627 11.1487 41.52 11.13C41.9867 11.102 42.4673 11.088 42.962 11.088C43.774 11.088 44.4647 11.2187 45.034 11.48C45.6033 11.732 46.0373 12.082 46.336 12.53C46.6347 12.978 46.784 13.4913 46.784 14.07C46.784 14.77 46.6113 15.3627 46.266 15.848C45.9207 16.3333 45.44 16.7067 44.824 16.968C44.208 17.22 43.494 17.346 42.682 17.346C42.29 17.346 41.926 17.332 41.59 17.304V21H40.26ZM42.85 16.24C43.6807 16.24 44.3247 16.0533 44.782 15.68C45.2393 15.3067 45.468 14.8073 45.468 14.182C45.468 13.5753 45.2487 13.0947 44.81 12.74C44.3713 12.3853 43.746 12.208 42.934 12.208C42.682 12.208 42.444 12.2127 42.22 12.222C41.996 12.2313 41.786 12.2453 41.59 12.264V16.17C41.7393 16.1887 41.9213 16.2073 42.136 16.226C42.3507 16.2353 42.5887 16.24 42.85 16.24ZM48.5548 21V13.72H49.7728V15.302C49.8941 14.994 50.0574 14.7093 50.2628 14.448C50.4681 14.1773 50.7248 13.9627 51.0328 13.804C51.3408 13.636 51.7001 13.552 52.1108 13.552C52.2508 13.552 52.3908 13.5613 52.5308 13.58C52.6708 13.5893 52.7874 13.608 52.8808 13.636L52.5028 14.938C52.3254 14.8633 52.1154 14.826 51.8728 14.826C51.5274 14.826 51.1961 14.924 50.8788 15.12C50.5708 15.316 50.3141 15.6193 50.1088 16.03C49.9128 16.4407 49.8148 16.9633 49.8148 17.598V21H48.5548ZM56.8087 21.168C56.2021 21.168 55.6514 21.014 55.1567 20.706C54.6621 20.398 54.2654 19.964 53.9667 19.404C53.6774 18.8347 53.5327 18.1673 53.5327 17.402C53.5327 16.674 53.6774 16.0207 53.9667 15.442C54.2654 14.8633 54.6714 14.406 55.1847 14.07C55.7074 13.7247 56.3047 13.552 56.9767 13.552C57.3967 13.552 57.7747 13.6267 58.1107 13.776C58.4561 13.916 58.7547 14.0933 59.0067 14.308V13.72H60.1547V19.236C60.1547 19.5907 60.2387 19.824 60.4067 19.936C60.5841 20.0387 60.7754 20.09 60.9807 20.09L60.7147 21.07C59.8187 21.07 59.2774 20.706 59.0907 19.978C58.8761 20.2767 58.5821 20.552 58.2087 20.804C57.8447 21.0467 57.3781 21.168 56.8087 21.168ZM57.0887 20.048C57.4434 20.048 57.7794 19.964 58.0967 19.796C58.4141 19.6187 58.6801 19.3993 58.8947 19.138V15.232C58.6427 15.0547 58.3627 14.9147 58.0547 14.812C57.7561 14.7 57.4387 14.644 57.1027 14.644C56.6547 14.644 56.2581 14.7607 55.9127 14.994C55.5767 15.218 55.3107 15.5353 55.1147 15.946C54.9187 16.3473 54.8207 16.8187 54.8207 17.36C54.8207 17.8827 54.9187 18.3493 55.1147 18.76C55.3107 19.1613 55.5814 19.4787 55.9267 19.712C56.2721 19.936 56.6594 20.048 57.0887 20.048ZM62.9634 21V13.72H64.2234V21H62.9634ZM63.5934 12.474C63.3507 12.474 63.1407 12.3853 62.9634 12.208C62.7954 12.0307 62.7114 11.8253 62.7114 11.592C62.7114 11.3213 62.7907 11.1067 62.9494 10.948C63.108 10.7893 63.3227 10.71 63.5934 10.71C63.836 10.71 64.0414 10.7987 64.2094 10.976C64.3867 11.144 64.4754 11.3493 64.4754 11.592C64.4754 11.8533 64.396 12.068 64.2374 12.236C64.0787 12.3947 63.864 12.474 63.5934 12.474ZM69.5494 21.168C68.9427 21.168 68.392 21.014 67.8974 20.706C67.4027 20.398 67.006 19.964 66.7074 19.404C66.418 18.8347 66.2734 18.1673 66.2734 17.402C66.2734 16.674 66.418 16.0207 66.7074 15.442C67.006 14.8633 67.412 14.406 67.9254 14.07C68.448 13.7247 69.0454 13.552 69.7174 13.552C70.1374 13.552 70.5154 13.6267 70.8514 13.776C71.1967 13.916 71.4954 14.0933 71.7474 14.308V13.72H72.8954V19.236C72.8954 19.5907 72.9794 19.824 73.1474 19.936C73.3247 20.0387 73.516 20.09 73.7214 20.09L73.4554 21.07C72.5594 21.07 72.018 20.706 71.8314 19.978C71.6167 20.2767 71.3227 20.552 70.9494 20.804C70.5854 21.0467 70.1187 21.168 69.5494 21.168ZM69.8294 20.048C70.184 20.048 70.52 19.964 70.8374 19.796C71.1547 19.6187 71.4207 19.3993 71.6354 19.138V15.232C71.3834 15.0547 71.1034 14.9147 70.7954 14.812C70.4967 14.7 70.1794 14.644 69.8434 14.644C69.3954 14.644 68.9987 14.7607 68.6534 14.994C68.3174 15.218 68.0514 15.5353 67.8554 15.946C67.6594 16.3473 67.5614 16.8187 67.5614 17.36C67.5614 17.8827 67.6594 18.3493 67.8554 18.76C68.0514 19.1613 68.322 19.4787 68.6674 19.712C69.0127 19.936 69.4 20.048 69.8294 20.048ZM82.9592 21.168C82.3619 21.168 81.8159 21.014 81.3212 20.706C80.8266 20.398 80.4346 19.964 80.1452 19.404C79.8559 18.8347 79.7112 18.1673 79.7112 17.402C79.7112 16.6647 79.8559 16.0067 80.1452 15.428C80.4439 14.8493 80.8359 14.392 81.3212 14.056C81.8159 13.72 82.3572 13.552 82.9452 13.552C83.4306 13.552 83.8459 13.65 84.1912 13.846C84.5459 14.042 84.8212 14.2427 85.0172 14.448V10.64H86.2772V19.236C86.2772 19.5907 86.3612 19.824 86.5292 19.936C86.7066 20.0387 86.8979 20.09 87.1032 20.09L86.8372 21.07C85.9506 21.07 85.4092 20.7153 85.2132 20.006C85.0079 20.2953 84.7186 20.5613 84.3452 20.804C83.9812 21.0467 83.5192 21.168 82.9592 21.168ZM83.2392 20.048C83.5846 20.048 83.9112 19.9687 84.2192 19.81C84.5366 19.642 84.8026 19.4273 85.0172 19.166V15.554C84.8399 15.33 84.5926 15.1247 84.2752 14.938C83.9579 14.742 83.6079 14.644 83.2252 14.644C82.7772 14.644 82.3852 14.7653 82.0492 15.008C81.7132 15.2507 81.4519 15.5773 81.2652 15.988C81.0879 16.3893 80.9992 16.8467 80.9992 17.36C80.9992 17.8733 81.0972 18.3353 81.2932 18.746C81.4892 19.1473 81.7552 19.4647 82.0912 19.698C82.4366 19.9313 82.8192 20.048 83.2392 20.048ZM92.0165 21.168C91.3258 21.168 90.7051 21.0093 90.1545 20.692C89.6038 20.3653 89.1698 19.9173 88.8525 19.348C88.5445 18.7693 88.3905 18.1067 88.3905 17.36C88.3905 16.576 88.5491 15.8993 88.8665 15.33C89.1838 14.7607 89.6178 14.322 90.1685 14.014C90.7191 13.706 91.3351 13.552 92.0165 13.552C92.6978 13.552 93.3091 13.706 93.8505 14.014C94.4011 14.322 94.8351 14.7607 95.1525 15.33C95.4791 15.89 95.6425 16.5573 95.6425 17.332C95.6425 18.1067 95.4838 18.7833 95.1665 19.362C94.8491 19.9313 94.4151 20.3747 93.8645 20.692C93.3231 21.0093 92.7071 21.168 92.0165 21.168ZM92.0165 20.048C92.7538 20.048 93.3278 19.8007 93.7385 19.306C94.1491 18.802 94.3545 18.1533 94.3545 17.36C94.3545 16.8747 94.2518 16.4313 94.0465 16.03C93.8411 15.6193 93.5611 15.2927 93.2065 15.05C92.8611 14.798 92.4645 14.672 92.0165 14.672C91.2791 14.672 90.7051 14.9147 90.2945 15.4C89.8838 15.8853 89.6785 16.5293 89.6785 17.332C89.6785 17.8173 89.7811 18.27 89.9865 18.69C90.1918 19.1007 90.4671 19.432 90.8125 19.684C91.1671 19.9267 91.5685 20.048 92.0165 20.048ZM104.691 21.168C104.01 21.168 103.389 21.0793 102.829 20.902C102.269 20.7153 101.798 20.4727 101.415 20.174L102.087 19.054C102.423 19.334 102.801 19.5627 103.221 19.74C103.641 19.9173 104.131 20.006 104.691 20.006C105.363 20.006 105.895 19.866 106.287 19.586C106.679 19.306 106.875 18.928 106.875 18.452C106.875 18.1813 106.819 17.9433 106.707 17.738C106.595 17.5233 106.376 17.318 106.049 17.122C105.732 16.9167 105.26 16.6973 104.635 16.464C103.963 16.2027 103.426 15.9413 103.025 15.68C102.624 15.4093 102.334 15.106 102.157 14.77C101.989 14.4247 101.905 14.0187 101.905 13.552C101.905 13.0853 102.031 12.6653 102.283 12.292C102.544 11.9093 102.922 11.606 103.417 11.382C103.921 11.1487 104.528 11.032 105.237 11.032C105.816 11.032 106.334 11.0927 106.791 11.214C107.258 11.326 107.71 11.4893 108.149 11.704L107.659 12.838C107.342 12.6513 106.968 12.4973 106.539 12.376C106.119 12.2453 105.676 12.18 105.209 12.18C104.593 12.18 104.108 12.3013 103.753 12.544C103.398 12.7867 103.221 13.0993 103.221 13.482C103.221 13.7247 103.272 13.9393 103.375 14.126C103.478 14.3127 103.678 14.4947 103.977 14.672C104.285 14.8493 104.742 15.05 105.349 15.274C106.077 15.5447 106.651 15.8293 107.071 16.128C107.5 16.4267 107.804 16.7533 107.981 17.108C108.158 17.4533 108.247 17.85 108.247 18.298C108.247 18.9047 108.093 19.4227 107.785 19.852C107.486 20.2813 107.066 20.608 106.525 20.832C105.993 21.056 105.382 21.168 104.691 21.168ZM113.438 21.168C112.747 21.168 112.127 21.0093 111.576 20.692C111.025 20.3653 110.591 19.9173 110.274 19.348C109.966 18.7693 109.812 18.1067 109.812 17.36C109.812 16.576 109.971 15.8993 110.288 15.33C110.605 14.7607 111.039 14.322 111.59 14.014C112.141 13.706 112.757 13.552 113.438 13.552C114.119 13.552 114.731 13.706 115.272 14.014C115.823 14.322 116.257 14.7607 116.574 15.33C116.901 15.89 117.064 16.5573 117.064 17.332C117.064 18.1067 116.905 18.7833 116.588 19.362C116.271 19.9313 115.837 20.3747 115.286 20.692C114.745 21.0093 114.129 21.168 113.438 21.168ZM113.438 20.048C114.175 20.048 114.749 19.8007 115.16 19.306C115.571 18.802 115.776 18.1533 115.776 17.36C115.776 16.8747 115.673 16.4313 115.468 16.03C115.263 15.6193 114.983 15.2927 114.628 15.05C114.283 14.798 113.886 14.672 113.438 14.672C112.701 14.672 112.127 14.9147 111.716 15.4C111.305 15.8853 111.1 16.5293 111.1 17.332C111.1 17.8173 111.203 18.27 111.408 18.69C111.613 19.1007 111.889 19.432 112.234 19.684C112.589 19.9267 112.99 20.048 113.438 20.048ZM120.999 21.168C120.448 21.168 119.949 21.098 119.501 20.958C119.062 20.818 118.698 20.636 118.409 20.412L118.941 19.362C119.184 19.5673 119.487 19.74 119.851 19.88C120.224 20.0107 120.621 20.076 121.041 20.076C121.564 20.076 121.956 19.992 122.217 19.824C122.488 19.6467 122.623 19.4227 122.623 19.152C122.623 18.956 122.572 18.7833 122.469 18.634C122.376 18.4847 122.198 18.34 121.937 18.2C121.676 18.0507 121.298 17.892 120.803 17.724C120.122 17.4907 119.608 17.2153 119.263 16.898C118.927 16.5713 118.759 16.1233 118.759 15.554C118.759 14.994 119.002 14.5227 119.487 14.14C119.982 13.748 120.663 13.552 121.531 13.552C121.998 13.552 122.413 13.6033 122.777 13.706C123.141 13.7993 123.468 13.9207 123.757 14.07L123.407 15.106C123.155 14.9567 122.866 14.8353 122.539 14.742C122.222 14.6487 121.867 14.602 121.475 14.602C120.99 14.602 120.621 14.7 120.369 14.896C120.117 15.092 119.991 15.3067 119.991 15.54C119.991 15.764 120.089 15.9553 120.285 16.114C120.481 16.2727 120.864 16.4453 121.433 16.632C122.357 16.94 123.001 17.2807 123.365 17.654C123.729 18.0273 123.911 18.494 123.911 19.054C123.911 19.7073 123.645 20.2253 123.113 20.608C122.59 20.9813 121.886 21.168 120.999 21.168ZM127.848 21.168C127.297 21.168 126.798 21.098 126.35 20.958C125.911 20.818 125.547 20.636 125.258 20.412L125.79 19.362C126.033 19.5673 126.336 19.74 126.7 19.88C127.073 20.0107 127.47 20.076 127.89 20.076C128.413 20.076 128.805 19.992 129.066 19.824C129.337 19.6467 129.472 19.4227 129.472 19.152C129.472 18.956 129.421 18.7833 129.318 18.634C129.225 18.4847 129.047 18.34 128.786 18.2C128.525 18.0507 128.147 17.892 127.652 17.724C126.971 17.4907 126.457 17.2153 126.112 16.898C125.776 16.5713 125.608 16.1233 125.608 15.554C125.608 14.994 125.851 14.5227 126.336 14.14C126.831 13.748 127.512 13.552 128.38 13.552C128.847 13.552 129.262 13.6033 129.626 13.706C129.99 13.7993 130.317 13.9207 130.606 14.07L130.256 15.106C130.004 14.9567 129.715 14.8353 129.388 14.742C129.071 14.6487 128.716 14.602 128.324 14.602C127.839 14.602 127.47 14.7 127.218 14.896C126.966 15.092 126.84 15.3067 126.84 15.54C126.84 15.764 126.938 15.9553 127.134 16.114C127.33 16.2727 127.713 16.4453 128.282 16.632C129.206 16.94 129.85 17.2807 130.214 17.654C130.578 18.0273 130.76 18.494 130.76 19.054C130.76 19.7073 130.494 20.2253 129.962 20.608C129.439 20.9813 128.735 21.168 127.848 21.168ZM135.649 21.168C134.603 21.168 133.773 20.8367 133.157 20.174C132.55 19.502 132.247 18.564 132.247 17.36C132.247 16.632 132.382 15.9833 132.653 15.414C132.933 14.8353 133.32 14.3827 133.815 14.056C134.309 13.72 134.883 13.552 135.537 13.552C136.237 13.552 136.815 13.706 137.273 14.014C137.739 14.3127 138.089 14.7187 138.323 15.232C138.556 15.7453 138.673 16.31 138.673 16.926C138.673 17.2527 138.659 17.57 138.631 17.878H133.535C133.619 18.5593 133.857 19.0913 134.249 19.474C134.641 19.8567 135.159 20.048 135.803 20.048C136.223 20.048 136.601 20.006 136.937 19.922C137.273 19.8287 137.595 19.712 137.903 19.572L138.197 20.65C137.861 20.7993 137.483 20.9207 137.063 21.014C136.643 21.1167 136.171 21.168 135.649 21.168ZM133.521 16.856H137.511C137.511 16.1467 137.333 15.6007 136.979 15.218C136.624 14.8353 136.134 14.644 135.509 14.644C134.967 14.644 134.519 14.8353 134.165 15.218C133.81 15.5913 133.595 16.1373 133.521 16.856ZM143.326 24.248C142.897 24.248 142.477 24.1967 142.066 24.094C141.665 23.9913 141.305 23.8373 140.988 23.632L141.45 22.54C141.674 22.7173 141.935 22.862 142.234 22.974C142.533 23.0953 142.897 23.156 143.326 23.156C143.989 23.156 144.507 22.9787 144.88 22.624C145.263 22.2787 145.454 21.7233 145.454 20.958V20.062C145.267 20.286 144.997 20.5007 144.642 20.706C144.297 20.902 143.881 21 143.396 21C142.845 21 142.323 20.86 141.828 20.58C141.333 20.2907 140.932 19.8707 140.624 19.32C140.316 18.7693 140.162 18.1067 140.162 17.332C140.162 16.604 140.311 15.9553 140.61 15.386C140.918 14.8167 141.329 14.3687 141.842 14.042C142.355 13.7153 142.92 13.552 143.536 13.552C143.947 13.552 144.32 13.622 144.656 13.762C144.992 13.902 145.281 14.0747 145.524 14.28V13.72H146.672V20.832C146.672 21.6347 146.532 22.288 146.252 22.792C145.972 23.296 145.58 23.6647 145.076 23.898C144.581 24.1313 143.998 24.248 143.326 24.248ZM143.676 19.88C144.049 19.88 144.385 19.796 144.684 19.628C144.983 19.46 145.225 19.264 145.412 19.04V15.232C145.207 15.0827 144.959 14.9473 144.67 14.826C144.381 14.7047 144.045 14.644 143.662 14.644C143.279 14.644 142.92 14.7467 142.584 14.952C142.248 15.1573 141.973 15.456 141.758 15.848C141.553 16.2307 141.45 16.702 141.45 17.262C141.45 17.794 141.553 18.256 141.758 18.648C141.973 19.04 142.248 19.3433 142.584 19.558C142.92 19.7727 143.284 19.88 143.676 19.88ZM152.207 21.168C151.517 21.168 150.896 21.0093 150.345 20.692C149.795 20.3653 149.361 19.9173 149.043 19.348C148.735 18.7693 148.581 18.1067 148.581 17.36C148.581 16.576 148.74 15.8993 149.057 15.33C149.375 14.7607 149.809 14.322 150.359 14.014C150.91 13.706 151.526 13.552 152.207 13.552C152.889 13.552 153.5 13.706 154.041 14.014C154.592 14.322 155.026 14.7607 155.343 15.33C155.67 15.89 155.833 16.5573 155.833 17.332C155.833 18.1067 155.675 18.7833 155.357 19.362C155.04 19.9313 154.606 20.3747 154.055 20.692C153.514 21.0093 152.898 21.168 152.207 21.168ZM152.207 20.048C152.945 20.048 153.519 19.8007 153.929 19.306C154.34 18.802 154.545 18.1533 154.545 17.36C154.545 16.8747 154.443 16.4313 154.237 16.03C154.032 15.6193 153.752 15.2927 153.397 15.05C153.052 14.798 152.655 14.672 152.207 14.672C151.47 14.672 150.896 14.9147 150.485 15.4C150.075 15.8853 149.869 16.5293 149.869 17.332C149.869 17.8173 149.972 18.27 150.177 18.69C150.383 19.1007 150.658 19.432 151.003 19.684C151.358 19.9267 151.759 20.048 152.207 20.048Z" fill="#015486"/>
<path d="M45.25 36H44.34L40.68 30.45V36H39.77V29.02H40.68L44.34 34.56V29.02H45.25V36ZM47.5713 29.63C47.3979 29.63 47.2513 29.57 47.1313 29.45C47.0113 29.33 46.9513 29.1833 46.9513 29.01C46.9513 28.8367 47.0113 28.69 47.1313 28.57C47.2513 28.45 47.3979 28.39 47.5713 28.39C47.7379 28.39 47.8779 28.45 47.9913 28.57C48.1113 28.69 48.1713 28.8367 48.1713 29.01C48.1713 29.1833 48.1113 29.33 47.9913 29.45C47.8779 29.57 47.7379 29.63 47.5713 29.63ZM48.0113 30.52V36H47.1013V30.52H48.0113ZM50.9722 31.27V34.5C50.9722 34.7667 51.0289 34.9567 51.1422 35.07C51.2555 35.1767 51.4522 35.23 51.7322 35.23H52.4022V36H51.5822C51.0755 36 50.6955 35.8833 50.4422 35.65C50.1889 35.4167 50.0622 35.0333 50.0622 34.5V31.27H49.3522V30.52H50.0622V29.14H50.9722V30.52H52.4022V31.27H50.9722ZM58.8048 33.05C58.8048 33.2233 58.7948 33.4067 58.7748 33.6H54.3948C54.4281 34.14 54.6114 34.5633 54.9448 34.87C55.2848 35.17 55.6948 35.32 56.1748 35.32C56.5681 35.32 56.8948 35.23 57.1548 35.05C57.4214 34.8633 57.6081 34.6167 57.7148 34.31H58.6948C58.5481 34.8367 58.2548 35.2667 57.8148 35.6C57.3748 35.9267 56.8281 36.09 56.1748 36.09C55.6548 36.09 55.1881 35.9733 54.7748 35.74C54.3681 35.5067 54.0481 35.1767 53.8148 34.75C53.5814 34.3167 53.4648 33.8167 53.4648 33.25C53.4648 32.6833 53.5781 32.1867 53.8048 31.76C54.0314 31.3333 54.3481 31.0067 54.7548 30.78C55.1681 30.5467 55.6414 30.43 56.1748 30.43C56.6948 30.43 57.1548 30.5433 57.5548 30.77C57.9548 30.9967 58.2614 31.31 58.4748 31.71C58.6948 32.1033 58.8048 32.55 58.8048 33.05ZM57.8648 32.86C57.8648 32.5133 57.7881 32.2167 57.6348 31.97C57.4814 31.7167 57.2714 31.5267 57.0048 31.4C56.7448 31.2667 56.4548 31.2 56.1348 31.2C55.6748 31.2 55.2814 31.3467 54.9548 31.64C54.6348 31.9333 54.4514 32.34 54.4048 32.86H57.8648ZM61.2159 31.41C61.3759 31.0967 61.6026 30.8533 61.8959 30.68C62.1959 30.5067 62.5593 30.42 62.9859 30.42V31.36H62.7459C61.7259 31.36 61.2159 31.9133 61.2159 33.02V36H60.3059V30.52H61.2159V31.41ZM66.7264 36.09C66.2131 36.09 65.7464 35.9733 65.3264 35.74C64.9131 35.5067 64.5864 35.1767 64.3464 34.75C64.1131 34.3167 63.9964 33.8167 63.9964 33.25C63.9964 32.69 64.1164 32.1967 64.3564 31.77C64.6031 31.3367 64.9364 31.0067 65.3564 30.78C65.7764 30.5467 66.2464 30.43 66.7664 30.43C67.2864 30.43 67.7564 30.5467 68.1764 30.78C68.5964 31.0067 68.9264 31.3333 69.1664 31.76C69.4131 32.1867 69.5364 32.6833 69.5364 33.25C69.5364 33.8167 69.4097 34.3167 69.1564 34.75C68.9097 35.1767 68.5731 35.5067 68.1464 35.74C67.7197 35.9733 67.2464 36.09 66.7264 36.09ZM66.7264 35.29C67.0531 35.29 67.3597 35.2133 67.6464 35.06C67.9331 34.9067 68.1631 34.6767 68.3364 34.37C68.5164 34.0633 68.6064 33.69 68.6064 33.25C68.6064 32.81 68.5197 32.4367 68.3464 32.13C68.1731 31.8233 67.9464 31.5967 67.6664 31.45C67.3864 31.2967 67.0831 31.22 66.7564 31.22C66.4231 31.22 66.1164 31.2967 65.8364 31.45C65.5631 31.5967 65.3431 31.8233 65.1764 32.13C65.0097 32.4367 64.9264 32.81 64.9264 33.25C64.9264 33.6967 65.0064 34.0733 65.1664 34.38C65.3331 34.6867 65.5531 34.9167 65.8264 35.07C66.0997 35.2167 66.3997 35.29 66.7264 35.29ZM67.7464 28.9L65.6164 30.04V29.36L67.7464 28.11V28.9ZM71.5029 29.63C71.3296 29.63 71.1829 29.57 71.0629 29.45C70.9429 29.33 70.8829 29.1833 70.8829 29.01C70.8829 28.8367 70.9429 28.69 71.0629 28.57C71.1829 28.45 71.3296 28.39 71.5029 28.39C71.6696 28.39 71.8096 28.45 71.9229 28.57C72.0429 28.69 72.1029 28.8367 72.1029 29.01C72.1029 29.1833 72.0429 29.33 71.9229 29.45C71.8096 29.57 71.6696 29.63 71.5029 29.63ZM71.9429 30.52V36H71.0329V30.52H71.9429ZM74.7338 34.74L73.6138 37.43H73.0038L73.7338 34.74H74.7338ZM82.7123 36L81.0523 33.15H79.9523V36H79.0423V29.03H81.2923C81.8189 29.03 82.2623 29.12 82.6223 29.3C82.9889 29.48 83.2623 29.7233 83.4423 30.03C83.6223 30.3367 83.7123 30.6867 83.7123 31.08C83.7123 31.56 83.5723 31.9833 83.2923 32.35C83.0189 32.7167 82.6056 32.96 82.0523 33.08L83.8023 36H82.7123ZM79.9523 32.42H81.2923C81.7856 32.42 82.1556 32.3 82.4023 32.06C82.6489 31.8133 82.7723 31.4867 82.7723 31.08C82.7723 30.6667 82.6489 30.3467 82.4023 30.12C82.1623 29.8933 81.7923 29.78 81.2923 29.78H79.9523V32.42ZM85.8963 29.63C85.7229 29.63 85.5763 29.57 85.4563 29.45C85.3363 29.33 85.2763 29.1833 85.2763 29.01C85.2763 28.8367 85.3363 28.69 85.4563 28.57C85.5763 28.45 85.7229 28.39 85.8963 28.39C86.0629 28.39 86.2029 28.45 86.3163 28.57C86.4363 28.69 86.4963 28.8367 86.4963 29.01C86.4963 29.1833 86.4363 29.33 86.3163 29.45C86.2029 29.57 86.0629 29.63 85.8963 29.63ZM86.3363 30.52V36H85.4263V30.52H86.3363ZM90.5772 36.09C90.0639 36.09 89.5972 35.9733 89.1772 35.74C88.7639 35.5067 88.4372 35.1767 88.1972 34.75C87.9639 34.3167 87.8472 33.8167 87.8472 33.25C87.8472 32.69 87.9672 32.1967 88.2072 31.77C88.4539 31.3367 88.7872 31.0067 89.2072 30.78C89.6272 30.5467 90.0972 30.43 90.6172 30.43C91.1372 30.43 91.6072 30.5467 92.0272 30.78C92.4472 31.0067 92.7772 31.3333 93.0172 31.76C93.2639 32.1867 93.3872 32.6833 93.3872 33.25C93.3872 33.8167 93.2605 34.3167 93.0072 34.75C92.7605 35.1767 92.4239 35.5067 91.9972 35.74C91.5705 35.9733 91.0972 36.09 90.5772 36.09ZM90.5772 35.29C90.9039 35.29 91.2105 35.2133 91.4972 35.06C91.7839 34.9067 92.0139 34.6767 92.1872 34.37C92.3672 34.0633 92.4572 33.69 92.4572 33.25C92.4572 32.81 92.3705 32.4367 92.1972 32.13C92.0239 31.8233 91.7972 31.5967 91.5172 31.45C91.2372 31.2967 90.9339 31.22 90.6072 31.22C90.2739 31.22 89.9672 31.2967 89.6872 31.45C89.4139 31.5967 89.1939 31.8233 89.0272 32.13C88.8605 32.4367 88.7772 32.81 88.7772 33.25C88.7772 33.6967 88.8572 34.0733 89.0172 34.38C89.1839 34.6867 89.4039 34.9167 89.6772 35.07C89.9505 35.2167 90.2505 35.29 90.5772 35.29ZM97.5097 33.24C97.5097 32.68 97.623 32.19 97.8497 31.77C98.0764 31.3433 98.3864 31.0133 98.7797 30.78C99.1797 30.5467 99.6264 30.43 100.12 30.43C100.546 30.43 100.943 30.53 101.31 30.73C101.676 30.9233 101.956 31.18 102.15 31.5V28.6H103.07V36H102.15V34.97C101.97 35.2967 101.703 35.5667 101.35 35.78C100.996 35.9867 100.583 36.09 100.11 36.09C99.623 36.09 99.1797 35.97 98.7797 35.73C98.3864 35.49 98.0764 35.1533 97.8497 34.72C97.623 34.2867 97.5097 33.7933 97.5097 33.24ZM102.15 33.25C102.15 32.8367 102.066 32.4767 101.9 32.17C101.733 31.8633 101.506 31.63 101.22 31.47C100.94 31.3033 100.63 31.22 100.29 31.22C99.9497 31.22 99.6397 31.3 99.3597 31.46C99.0797 31.62 98.8564 31.8533 98.6897 32.16C98.523 32.4667 98.4397 32.8267 98.4397 33.24C98.4397 33.66 98.523 34.0267 98.6897 34.34C98.8564 34.6467 99.0797 34.8833 99.3597 35.05C99.6397 35.21 99.9497 35.29 100.29 35.29C100.63 35.29 100.94 35.21 101.22 35.05C101.506 34.8833 101.733 34.6467 101.9 34.34C102.066 34.0267 102.15 33.6633 102.15 33.25ZM109.907 33.05C109.907 33.2233 109.897 33.4067 109.877 33.6H105.497C105.531 34.14 105.714 34.5633 106.047 34.87C106.387 35.17 106.797 35.32 107.277 35.32C107.671 35.32 107.997 35.23 108.257 35.05C108.524 34.8633 108.711 34.6167 108.817 34.31H109.797C109.651 34.8367 109.357 35.2667 108.917 35.6C108.477 35.9267 107.931 36.09 107.277 36.09C106.757 36.09 106.291 35.9733 105.877 35.74C105.471 35.5067 105.151 35.1767 104.917 34.75C104.684 34.3167 104.567 33.8167 104.567 33.25C104.567 32.6833 104.681 32.1867 104.907 31.76C105.134 31.3333 105.451 31.0067 105.857 30.78C106.271 30.5467 106.744 30.43 107.277 30.43C107.797 30.43 108.257 30.5433 108.657 30.77C109.057 30.9967 109.364 31.31 109.577 31.71C109.797 32.1033 109.907 32.55 109.907 33.05ZM108.967 32.86C108.967 32.5133 108.891 32.2167 108.737 31.97C108.584 31.7167 108.374 31.5267 108.107 31.4C107.847 31.2667 107.557 31.2 107.237 31.2C106.777 31.2 106.384 31.3467 106.057 31.64C105.737 31.9333 105.554 32.34 105.507 32.86H108.967ZM117.885 29.03V34.18C117.885 34.7533 117.708 35.2133 117.355 35.56C117.001 35.9 116.535 36.07 115.955 36.07C115.368 36.07 114.898 35.8967 114.545 35.55C114.191 35.1967 114.015 34.7167 114.015 34.11H114.925C114.931 34.45 115.018 34.7267 115.185 34.94C115.358 35.1533 115.615 35.26 115.955 35.26C116.295 35.26 116.548 35.16 116.715 34.96C116.881 34.7533 116.965 34.4933 116.965 34.18V29.03H117.885ZM119.637 33.24C119.637 32.68 119.751 32.19 119.977 31.77C120.204 31.3433 120.514 31.0133 120.907 30.78C121.307 30.5467 121.751 30.43 122.237 30.43C122.717 30.43 123.134 30.5333 123.487 30.74C123.841 30.9467 124.104 31.2067 124.277 31.52V30.52H125.197V36H124.277V34.98C124.097 35.3 123.827 35.5667 123.467 35.78C123.114 35.9867 122.701 36.09 122.227 36.09C121.741 36.09 121.301 35.97 120.907 35.73C120.514 35.49 120.204 35.1533 119.977 34.72C119.751 34.2867 119.637 33.7933 119.637 33.24ZM124.277 33.25C124.277 32.8367 124.194 32.4767 124.027 32.17C123.861 31.8633 123.634 31.63 123.347 31.47C123.067 31.3033 122.757 31.22 122.417 31.22C122.077 31.22 121.767 31.3 121.487 31.46C121.207 31.62 120.984 31.8533 120.817 32.16C120.651 32.4667 120.567 32.8267 120.567 33.24C120.567 33.66 120.651 34.0267 120.817 34.34C120.984 34.6467 121.207 34.8833 121.487 35.05C121.767 35.21 122.077 35.29 122.417 35.29C122.757 35.29 123.067 35.21 123.347 35.05C123.634 34.8833 123.861 34.6467 124.027 34.34C124.194 34.0267 124.277 33.6633 124.277 33.25ZM129.705 30.42C130.372 30.42 130.912 30.6233 131.325 31.03C131.739 31.43 131.945 32.01 131.945 32.77V36H131.045V32.9C131.045 32.3533 130.909 31.9367 130.635 31.65C130.362 31.3567 129.989 31.21 129.515 31.21C129.035 31.21 128.652 31.36 128.365 31.66C128.085 31.96 127.945 32.3967 127.945 32.97V36H127.035V30.52H127.945V31.3C128.125 31.02 128.369 30.8033 128.675 30.65C128.989 30.4967 129.332 30.42 129.705 30.42ZM138.732 33.05C138.732 33.2233 138.722 33.4067 138.702 33.6H134.322C134.355 34.14 134.538 34.5633 134.872 34.87C135.212 35.17 135.622 35.32 136.102 35.32C136.495 35.32 136.822 35.23 137.082 35.05C137.348 34.8633 137.535 34.6167 137.642 34.31H138.622C138.475 34.8367 138.182 35.2667 137.742 35.6C137.302 35.9267 136.755 36.09 136.102 36.09C135.582 36.09 135.115 35.9733 134.702 35.74C134.295 35.5067 133.975 35.1767 133.742 34.75C133.508 34.3167 133.392 33.8167 133.392 33.25C133.392 32.6833 133.505 32.1867 133.732 31.76C133.958 31.3333 134.275 31.0067 134.682 30.78C135.095 30.5467 135.568 30.43 136.102 30.43C136.622 30.43 137.082 30.5433 137.482 30.77C137.882 30.9967 138.188 31.31 138.402 31.71C138.622 32.1033 138.732 32.55 138.732 33.05ZM137.792 32.86C137.792 32.5133 137.715 32.2167 137.562 31.97C137.408 31.7167 137.198 31.5267 136.932 31.4C136.672 31.2667 136.382 31.2 136.062 31.2C135.602 31.2 135.208 31.3467 134.882 31.64C134.562 31.9333 134.378 32.34 134.332 32.86H137.792ZM140.703 29.63C140.53 29.63 140.383 29.57 140.263 29.45C140.143 29.33 140.083 29.1833 140.083 29.01C140.083 28.8367 140.143 28.69 140.263 28.57C140.383 28.45 140.53 28.39 140.703 28.39C140.87 28.39 141.01 28.45 141.123 28.57C141.243 28.69 141.303 28.8367 141.303 29.01C141.303 29.1833 141.243 29.33 141.123 29.45C141.01 29.57 140.87 29.63 140.703 29.63ZM141.143 30.52V36H140.233V30.52H141.143ZM143.904 31.41C144.064 31.0967 144.29 30.8533 144.584 30.68C144.884 30.5067 145.247 30.42 145.674 30.42V31.36H145.434C144.414 31.36 143.904 31.9133 143.904 33.02V36H142.994V30.52H143.904V31.41ZM149.414 36.09C148.901 36.09 148.434 35.9733 148.014 35.74C147.601 35.5067 147.274 35.1767 147.034 34.75C146.801 34.3167 146.684 33.8167 146.684 33.25C146.684 32.69 146.804 32.1967 147.044 31.77C147.291 31.3367 147.624 31.0067 148.044 30.78C148.464 30.5467 148.934 30.43 149.454 30.43C149.974 30.43 150.444 30.5467 150.864 30.78C151.284 31.0067 151.614 31.3333 151.854 31.76C152.101 32.1867 152.224 32.6833 152.224 33.25C152.224 33.8167 152.098 34.3167 151.844 34.75C151.598 35.1767 151.261 35.5067 150.834 35.74C150.408 35.9733 149.934 36.09 149.414 36.09ZM149.414 35.29C149.741 35.29 150.048 35.2133 150.334 35.06C150.621 34.9067 150.851 34.6767 151.024 34.37C151.204 34.0633 151.294 33.69 151.294 33.25C151.294 32.81 151.208 32.4367 151.034 32.13C150.861 31.8233 150.634 31.5967 150.354 31.45C150.074 31.2967 149.771 31.22 149.444 31.22C149.111 31.22 148.804 31.2967 148.524 31.45C148.251 31.5967 148.031 31.8233 147.864 32.13C147.698 32.4367 147.614 32.81 147.614 33.25C147.614 33.6967 147.694 34.0733 147.854 34.38C148.021 34.6867 148.241 34.9167 148.514 35.07C148.788 35.2167 149.088 35.29 149.414 35.29Z" fill="#98A4AE"/>
<path d="M73.9434 45.5L108.058 45.5L91.001 68.3301L73.9434 45.5Z" fill="white" stroke="#015486" stroke-width="2"/>
<path d="M91 65L71.0814 41L110.919 41L91 65Z" fill="white"/>
<path d="M31.155 11.978C30.2796 11.4725 29.3132 11.1443 28.311 11.0123C27.3088 10.8803 26.2904 10.947 25.314 11.2086C24.3376 11.4702 23.4223 11.9215 22.6203 12.5369C21.8183 13.1523 21.1454 13.9196 20.64 14.795L20.35 15.297C20.2507 15.4693 20.2239 15.6739 20.2755 15.8659C20.3271 16.0579 20.4528 16.2216 20.625 16.321L26.086 19.474L22.818 25.194L22.75 25.193C19.592 25.193 16.857 27.025 15.228 29.615C15.5062 29.5166 15.8027 29.481 16.0963 29.5108C16.3898 29.5405 16.6732 29.6348 16.926 29.787C18.338 27.921 20.444 26.693 22.75 26.693C25.154 26.693 27.341 28.028 28.75 30.029C28.9448 29.8497 29.1733 29.7109 29.4222 29.6206C29.6711 29.5303 29.9355 29.4903 30.2 29.503C28.869 27.445 26.833 25.883 24.444 25.372L27.385 20.224L32.658 23.269C32.7433 23.3183 32.8376 23.3503 32.9353 23.3631C33.033 23.376 33.1323 23.3695 33.2275 23.3439C33.3227 23.3184 33.4119 23.2743 33.4901 23.2143C33.5682 23.1543 33.6338 23.0794 33.683 22.994L33.973 22.493C34.4785 21.6176 34.8065 20.6511 34.9385 19.6489C35.0704 18.6466 35.0036 17.6282 34.742 16.6518C34.4803 15.6754 34.0288 14.7601 33.4134 13.9581C32.7979 13.1562 32.0305 12.4833 31.155 11.978ZM28.965 19.404L25.807 17.58C26.379 16.699 26.923 16.028 27.575 15.435C28.21 14.857 28.968 14.335 29.996 13.767C30.148 14.722 30.194 15.517 30.096 16.297C29.98 17.229 29.651 18.19 28.963 19.403M30.261 20.153C31.021 18.815 31.437 17.663 31.584 16.483C31.681 15.709 31.659 14.945 31.562 14.138C32.5536 15.0759 33.208 16.3148 33.4237 17.6625C33.6394 19.0102 33.4043 20.3915 32.755 21.592L30.261 20.153ZM26.565 14.325C25.775 15.044 25.14 15.844 24.505 16.829L22.025 15.397C22.7247 14.2594 23.773 13.3782 25.014 12.8845C26.2549 12.3908 27.6221 12.311 28.912 12.657C27.983 13.192 27.227 13.722 26.565 14.325ZM16.605 31.263C16.5536 31.1087 16.4535 30.9752 16.3197 30.8828C16.1859 30.7903 16.0257 30.7439 15.8632 30.7504C15.7007 30.757 15.5447 30.8162 15.4188 30.9191C15.2928 31.022 15.2038 31.163 15.165 31.321C14.91 32.363 14.427 32.935 13.877 33.267C13.301 33.615 12.567 33.749 11.748 33.749C11.5491 33.749 11.3583 33.828 11.2177 33.9687C11.077 34.1093 10.998 34.3001 10.998 34.499C10.998 34.6979 11.077 34.8887 11.2177 35.0293C11.3583 35.17 11.5491 35.249 11.748 35.249C12.705 35.249 13.748 35.097 14.652 34.551C15.1912 34.2252 15.6459 33.7767 15.979 33.242C17.768 35.524 21.261 35.512 22.998 33.218C24.763 35.548 28.338 35.524 30.101 33.132C30.5796 33.7834 31.2038 34.3141 31.9238 34.6816C32.6437 35.0492 33.4396 35.2435 34.248 35.249C34.4469 35.249 34.6377 35.17 34.7783 35.0293C34.919 34.8887 34.998 34.6979 34.998 34.499C34.998 34.3001 34.919 34.1093 34.7783 33.9687C34.6377 33.828 34.4469 33.749 34.248 33.749C32.773 33.749 31.303 32.789 30.818 31.271C30.77 31.1199 30.6754 30.9879 30.5477 30.894C30.42 30.8001 30.2659 30.749 30.1074 30.7481C29.9489 30.7472 29.7942 30.7965 29.6655 30.8891C29.5368 30.9816 29.4407 31.1125 29.391 31.263C28.428 34.172 24.653 34.135 23.707 31.384C23.6561 31.2364 23.5604 31.1085 23.4333 31.0179C23.3062 30.9273 23.1541 30.8786 22.998 30.8786C22.8419 30.8786 22.6897 30.9273 22.5626 31.0179C22.4355 31.1085 22.3399 31.2364 22.289 31.384C21.343 34.135 17.569 34.171 16.605 31.263Z" fill="#015486"/>
<defs>
<linearGradient id="paint0_linear_294_397" x1="179.069" y1="0.748829" x2="-69.2821" y2="206.234" gradientUnits="userSpaceOnUse">
<stop stop-color="white"/>
</linearGradient>
</defs>
</svg>
